<svg width="390" height="345" viewBox="0 0 390 345" fill="none" xmlns="http://www.w3.org/2000/svg">
<path fill-rule="evenodd" clip-rule="evenodd" d="M318.999 219L286.896 219L103.102 219L71 219C40.6243 219 16 243.624 16 274C16 304.376 40.6244 329 71 329L389.999 329V345L71 345C31.7878 345 -3.11437e-06 313.212 -6.95614e-06 274C-1.07979e-05 234.788 31.7878 203 71 203L103.102 203L286.896 203L318.999 203C349.375 203 373.999 178.376 373.999 148C373.999 117.624 349.375 93 318.999 93H-0.000488281V77H318.999C358.211 77 389.999 108.788 389.999 148C389.999 187.212 358.211 219 318.999 219Z" fill="#F4EBD5"/>
<rect x="33.2495" y="0.32373" width="48.5" height="19.8396" fill="#F4EBD5" stroke="black" stroke-width="0.5"/>
<line x1="81.6953" y1="76.9146" x2="81.6953" y2="1.52697e-05" stroke="black" stroke-width="0.5"/>
<path d="M44.6595 13.11C42.8895 13.11 41.5495 12.64 41.1395 11.57L42.6695 11.29C42.9295 11.86 43.6195 12.08 44.7295 12.08C45.9295 12.08 46.3395 11.88 46.3395 11.55C46.3395 11.31 46.1395 11.19 45.5395 11.13L43.4695 10.92C42.0995 10.78 41.3695 10.35 41.3695 9.48C41.3695 8.49 42.5795 7.87 44.5095 7.87C46.3295 7.87 47.4195 8.36 47.8595 9.33L46.3795 9.6C46.1395 9.12 45.5195 8.87 44.4995 8.87C43.4195 8.87 42.8895 9.07 42.8895 9.4C42.8895 9.64 43.1295 9.72 43.7295 9.79L45.8395 10.02C47.1895 10.17 47.8895 10.63 47.8895 11.48C47.8895 12.44 46.8395 13.11 44.6595 13.11ZM51.9103 13.11C50.4003 13.11 49.4703 12.37 49.4703 11.22V9.13H48.1203V8.68L50.4703 6.94H50.9103V7.98H53.9203V9.13H50.9103V10.89C50.9103 11.58 51.3803 11.89 52.1703 11.89C52.5803 11.89 53.0003 11.8 53.4403 11.62L53.8203 12.7C53.2303 12.97 52.5603 13.11 51.9103 13.11ZM56.8864 13.11C55.3964 13.11 54.4664 12.55 54.4664 11.56C54.4664 10.74 55.1164 10.22 56.8964 9.98L59.5864 9.62C59.4364 9.19 58.9564 8.95 57.9064 8.95C56.7764 8.95 56.1464 9.2 55.9064 9.69L54.4164 9.56C54.7464 8.55 55.9664 7.87 57.9064 7.87C59.8664 7.87 61.0864 8.65 61.0864 10V13H59.7464L59.6864 12.14C59.0664 12.8 57.9964 13.11 56.8864 13.11ZM55.9464 11.53C55.9464 11.89 56.2864 12.07 57.0264 12.07C58.3364 12.07 59.6564 11.51 59.6564 10.59V10.55L56.9864 10.92C56.2164 11.04 55.9464 11.21 55.9464 11.53ZM62.4624 13V7.98H63.8424L63.9024 8.81C64.3724 8.23 65.1324 7.87 66.0624 7.87C66.5224 7.87 66.8924 7.92 67.2624 8.03L66.9624 9.3C66.6424 9.21 66.3424 9.15 65.9524 9.15C64.6024 9.15 63.9024 9.87 63.9024 11.09V13H62.4624ZM71.2169 13.11C69.7069 13.11 68.7769 12.37 68.7769 11.22V9.13H67.4269V8.68L69.7769 6.94H70.2169V7.98H73.2269V9.13H70.2169V10.89C70.2169 11.58 70.6869 11.89 71.4769 11.89C71.8869 11.89 72.3069 11.8 72.7469 11.62L73.1269 12.7C72.5369 12.97 71.8669 13.11 71.2169 13.11Z" fill="black"/>
<g clip-path="url(#clip0_18_4223)">
<path d="M47.3144 44.9114C45.159 45.2378 43.5233 47.0529 43.4256 49.2278C43.3273 51.4117 44.1621 53.3912 44.9005 54.8721C45.8624 56.8017 47.1419 58.8817 48.4962 61.0837C48.8054 61.5868 49.1172 62.0936 49.4271 62.602C48.71 62.9725 47.963 63.1563 47.1473 63.1697C45.0857 63.2034 42.627 62.1233 39.8401 59.9593C36.8742 57.6568 36.5231 57.3431 36.0372 56.9093C35.8625 56.7533 35.6642 56.5763 35.3455 56.3052L32.7476 59.2606C33.0308 59.5015 33.2027 59.655 33.3689 59.8036C33.9138 60.2898 34.3071 60.6412 37.3801 63.0271C40.9045 65.7637 44.2132 67.1263 47.2139 67.0769C48.7024 67.0526 50.109 66.6856 51.4167 65.9828C51.7938 66.6588 52.1522 67.33 52.4824 67.992C54.7612 72.563 54.707 74.8287 54.706 74.8512C54.707 74.8231 54.7089 74.8091 54.7089 74.8091L58.6678 75.1183C58.6931 74.8019 58.8365 71.8649 56.0476 66.2712C55.5586 65.2906 55.0206 64.3054 54.4564 63.3229C55.0958 62.2902 55.6452 60.7614 55.7647 58.5131C55.8941 56.0723 55.4615 53.3672 54.5459 50.8958C52.2413 44.6761 48.4283 44.7429 47.3144 44.9114ZM50.8144 52.2341C51.7135 54.6614 51.9279 57.037 51.7484 58.8249C50.4947 56.7861 49.318 54.8605 48.4657 53.1513C47.9028 52.0218 47.3347 50.693 47.3931 49.401C47.402 49.2044 47.4847 49.0324 47.6138 48.9173C47.6982 48.8424 47.8019 48.7915 47.9183 48.7737C48.2009 48.7309 48.5618 48.8764 48.9352 49.1828C49.4261 49.5864 50.1509 50.443 50.8144 52.2341Z" fill="#B4CC04"/>
<path d="M48.5391 51.9755C48.4592 52.3138 48.6124 52.6933 48.9064 52.8852C49.2004 53.0772 49.6156 53.0684 49.901 52.8643C50.1865 52.6602 50.3232 52.2745 50.2283 51.9399" stroke="#1A1A1A" stroke-width="0.3" stroke-miterlimit="10"/>
<path d="M53.6604 52.2635C54.2535 52.2635 54.7343 51.9383 54.7343 51.5372C54.7343 51.1362 54.2535 50.811 53.6604 50.811C53.0672 50.811 52.5864 51.1362 52.5864 51.5372C52.5864 51.9383 53.0672 52.2635 53.6604 52.2635Z" fill="#F39655"/>
<path d="M44.654 52.2635C45.2471 52.2635 45.7279 51.9383 45.7279 51.5372C45.7279 51.1362 45.2471 50.811 44.654 50.811C44.0609 50.811 43.5801 51.1362 43.5801 51.5372C43.5801 51.9383 44.0609 52.2635 44.654 52.2635Z" fill="#F39655"/>
<path d="M44.0972 49.4053C44.415 49.9246 45.1131 50.2857 45.8444 50.3091C46.5758 50.3325 47.3091 50.0173 47.6793 49.5198" stroke="#1A1A1A" stroke-width="0.3" stroke-miterlimit="10"/>
<path d="M50.5757 49.4053C50.8935 49.9246 51.5916 50.2857 52.323 50.3091C53.0543 50.3325 53.7876 50.0173 54.1578 49.5198" stroke="#1A1A1A" stroke-width="0.3" stroke-miterlimit="10"/>
<path d="M55.75 57.0121C57.535 57.2122 59.3939 56.671 60.7812 55.5472C61.7451 54.7664 62.4727 53.7116 62.8742 52.5497C63.252 51.4571 63.0252 50.1167 63.8847 49.2285" stroke="#1A1A1A" stroke-width="0.3" stroke-miterlimit="10"/>
<path d="M46.8544 58.2709C45.0694 58.471 43.2105 57.9298 41.8232 56.806C40.8593 56.0252 40.1318 54.9704 39.7302 53.8085C39.3525 52.7159 39.5793 51.3755 38.7197 50.4873" stroke="#1A1A1A" stroke-width="0.3" stroke-miterlimit="10"/>
<path d="M61.4253 75.2169C61.3371 75.0883 61.1931 75.0037 61.0491 74.9429C60.8268 74.849 60.5813 74.823 60.3396 74.8112C60.0979 74.7993 59.8544 74.8006 59.6162 74.7566C59.5096 74.7369 59.4018 74.7073 59.3139 74.6445C59.2527 74.6008 59.2029 74.5397 59.1785 74.4688C59.1763 74.4623 59.1743 74.4564 59.1724 74.4514C59.155 74.398 59.1046 74.3621 59.0475 74.3621H58.6799C58.8461 74.3621 58.9809 74.2295 58.9809 74.0659V73.7239C58.9809 73.5604 58.8461 73.4277 58.6799 73.4277H54.6316C54.4654 73.4277 54.3306 73.5604 54.3306 73.7239V74.0659C54.3306 74.2295 54.4654 74.3621 54.6316 74.3621C54.4654 74.3621 54.3306 74.4947 54.3306 74.6583V76.1953C54.3306 76.3588 54.4654 76.4914 54.6316 76.4914H61.208C61.3742 76.4914 61.509 76.3588 61.509 76.195C61.509 75.9918 61.5058 75.7886 61.509 75.5855C61.5116 75.4279 61.5109 75.342 61.4253 75.2169Z" stroke="#1A1A1A" stroke-width="0.3" stroke-miterlimit="10"/>
<path d="M30.684 61.0821C30.8397 61.1055 31.0005 61.059 31.1439 60.9963C31.3649 60.8992 31.5511 60.7394 31.724 60.5728C31.8968 60.4061 32.0614 60.2295 32.2555 60.0872C32.3427 60.0235 32.4379 59.9658 32.5445 59.9449C32.6187 59.9302 32.6983 59.9358 32.7674 59.9664C32.7738 59.9692 32.7795 59.9717 32.7846 59.9742C32.8363 59.9976 32.8975 59.9858 32.9362 59.9446L33.1858 59.679C33.0729 59.7991 33.0805 59.9864 33.2026 60.0975L33.4579 60.3297C33.58 60.4408 33.7703 60.4333 33.8832 60.3131L36.6315 57.388C36.7444 57.2678 36.7368 57.0806 36.6147 56.9695L36.3594 56.7373C36.2372 56.6262 36.0469 56.6337 35.934 56.7539C36.0469 56.6337 36.0393 56.4465 35.9172 56.3353L34.77 55.2921C34.6479 55.181 34.4576 55.1885 34.3447 55.3086L29.8803 60.0597C29.7673 60.1799 29.775 60.3674 29.8971 60.4785C30.0487 60.6165 30.2025 60.7519 30.3519 60.892C30.468 61.001 30.5324 61.059 30.684 61.0818V61.0821Z" stroke="#1A1A1A" stroke-width="0.3" stroke-miterlimit="10"/>
</g>
<path d="M63.7974 37.2803V34.7703H62.6824V34.2453C63.4174 34.2303 63.7774 34.0353 63.9324 33.5303H64.5424V37.2803H63.7974Z" fill="#B4CC04"/>
<path fill-rule="evenodd" clip-rule="evenodd" d="M57.7969 32.5H69.7701V37.9639H57.7969V32.5ZM57.2969 32H57.7969H69.7701H70.2701V32.5V37.9639V38.4639H69.7701H57.7969H57.2969V37.9639V32.5V32ZM63.7837 49.3719L63.7837 38.4641H63.2837L63.2837 49.3719H63.7837Z" fill="black"/>
<g clip-path="url(#clip1_18_4223)">
<path d="M248.584 44.9114C246.429 45.2378 244.793 47.0529 244.696 49.2278C244.597 51.4117 245.432 53.3912 246.17 54.8721C247.132 56.8017 248.412 58.8817 249.766 61.0837C250.075 61.5868 250.387 62.0936 250.697 62.602C249.98 62.9725 249.233 63.1563 248.417 63.1697C246.356 63.2034 243.897 62.1233 241.11 59.9593C238.144 57.6568 237.793 57.3431 237.307 56.9093C237.132 56.7533 236.934 56.5763 236.615 56.3052L234.018 59.2606C234.301 59.5015 234.473 59.655 234.639 59.8036C235.184 60.2898 235.577 60.6412 238.65 63.0271C242.174 65.7637 245.483 67.1263 248.484 67.0769C249.972 67.0526 251.379 66.6856 252.687 65.9828C253.064 66.6588 253.422 67.33 253.752 67.992C256.031 72.563 255.977 74.8287 255.976 74.8512C255.977 74.8231 255.979 74.8091 255.979 74.8091L259.938 75.1183C259.963 74.8019 260.107 71.8649 257.318 66.2712C256.829 65.2906 256.291 64.3054 255.726 63.3229C256.366 62.2902 256.915 60.7614 257.035 58.5131C257.164 56.0723 256.732 53.3672 255.816 50.8958C253.511 44.6761 249.698 44.7429 248.584 44.9114ZM252.084 52.2341C252.984 54.6614 253.198 57.037 253.018 58.8249C251.765 56.7861 250.588 54.8605 249.736 53.1513C249.173 52.0218 248.605 50.693 248.663 49.401C248.672 49.2044 248.755 49.0324 248.884 48.9173C248.968 48.8424 249.072 48.7915 249.188 48.7737C249.471 48.7309 249.832 48.8764 250.205 49.1828C250.696 49.5864 251.421 50.443 252.084 52.2341Z" fill="#B4CC04"/>
<path d="M249.809 51.9755C249.729 52.3138 249.882 52.6933 250.176 52.8852C250.47 53.0772 250.886 53.0684 251.171 52.8643C251.456 52.6602 251.593 52.2745 251.498 51.9399" stroke="#1A1A1A" stroke-width="0.3" stroke-miterlimit="10"/>
<path d="M254.93 52.2635C255.523 52.2635 256.004 51.9383 256.004 51.5372C256.004 51.1362 255.523 50.811 254.93 50.811C254.337 50.811 253.856 51.1362 253.856 51.5372C253.856 51.9383 254.337 52.2635 254.93 52.2635Z" fill="#F39655"/>
<path d="M245.924 52.2635C246.517 52.2635 246.998 51.9383 246.998 51.5372C246.998 51.1362 246.517 50.811 245.924 50.811C245.331 50.811 244.85 51.1362 244.85 51.5372C244.85 51.9383 245.331 52.2635 245.924 52.2635Z" fill="#F39655"/>
<path d="M245.367 49.4053C245.685 49.9246 246.383 50.2857 247.114 50.3091C247.846 50.3325 248.579 50.0173 248.949 49.5198" stroke="#1A1A1A" stroke-width="0.3" stroke-miterlimit="10"/>
<path d="M251.846 49.4053C252.164 49.9246 252.862 50.2857 253.593 50.3091C254.324 50.3325 255.058 50.0173 255.428 49.5198" stroke="#1A1A1A" stroke-width="0.3" stroke-miterlimit="10"/>
<path d="M257.02 57.0121C258.805 57.2122 260.664 56.671 262.051 55.5472C263.015 54.7664 263.743 53.7116 264.144 52.5497C264.522 51.4571 264.295 50.1167 265.155 49.2285" stroke="#1A1A1A" stroke-width="0.3" stroke-miterlimit="10"/>
<path d="M248.124 58.2709C246.339 58.471 244.481 57.9298 243.093 56.806C242.129 56.0252 241.402 54.9704 241 53.8085C240.622 52.7159 240.849 51.3755 239.99 50.4873" stroke="#1A1A1A" stroke-width="0.3" stroke-miterlimit="10"/>
<path d="M262.695 75.2169C262.607 75.0883 262.463 75.0037 262.319 74.9429C262.097 74.849 261.851 74.823 261.61 74.8112C261.368 74.7993 261.124 74.8006 260.886 74.7566C260.78 74.7369 260.672 74.7073 260.584 74.6445C260.523 74.6008 260.473 74.5397 260.448 74.4688C260.446 74.4623 260.444 74.4564 260.442 74.4514C260.425 74.398 260.375 74.3621 260.318 74.3621H259.95C260.116 74.3621 260.251 74.2295 260.251 74.0659V73.7239C260.251 73.5604 260.116 73.4277 259.95 73.4277H255.902C255.735 73.4277 255.601 73.5604 255.601 73.7239V74.0659C255.601 74.2295 255.735 74.3621 255.902 74.3621C255.735 74.3621 255.601 74.4947 255.601 74.6583V76.1953C255.601 76.3588 255.735 76.4914 255.902 76.4914H262.478C262.644 76.4914 262.779 76.3588 262.779 76.195C262.779 75.9918 262.776 75.7886 262.779 75.5855C262.782 75.4279 262.781 75.342 262.695 75.2169Z" stroke="#1A1A1A" stroke-width="0.3" stroke-miterlimit="10"/>
<path d="M231.954 61.0821C232.11 61.1055 232.271 61.059 232.414 60.9963C232.635 60.8992 232.821 60.7394 232.994 60.5728C233.167 60.4061 233.331 60.2295 233.526 60.0872C233.613 60.0235 233.708 59.9658 233.814 59.9449C233.889 59.9302 233.968 59.9358 234.037 59.9664C234.044 59.9692 234.05 59.9717 234.055 59.9742C234.106 59.9976 234.167 59.9858 234.206 59.9446L234.456 59.679C234.343 59.7991 234.35 59.9864 234.473 60.0975L234.728 60.3297C234.85 60.4408 235.04 60.4333 235.153 60.3131L237.902 57.388C238.014 57.2678 238.007 57.0806 237.885 56.9695L237.629 56.7373C237.507 56.6262 237.317 56.6337 237.204 56.7539C237.317 56.6337 237.309 56.4465 237.187 56.3353L236.04 55.2921C235.918 55.181 235.728 55.1885 235.615 55.3086L231.15 60.0597C231.037 60.1799 231.045 60.3674 231.167 60.4785C231.319 60.6165 231.473 60.7519 231.622 60.892C231.738 61.001 231.802 61.059 231.954 61.0818V61.0821Z" stroke="#1A1A1A" stroke-width="0.3" stroke-miterlimit="10"/>
</g>
<path d="M266.136 36.516V37H263.204V36.56L264.708 35.732C265.244 35.436 265.424 35.272 265.424 35C265.424 34.684 265.14 34.46 264.644 34.46C264.144 34.46 263.808 34.644 263.692 35.04L263.088 34.916C263.272 34.284 263.848 33.956 264.644 33.956C265.5 33.956 266.04 34.384 266.04 34.984C266.04 35.492 265.62 35.788 265.036 36.096L264.248 36.516H266.136Z" fill="#B4CC04"/>
<path fill-rule="evenodd" clip-rule="evenodd" d="M259.067 32.5H271.04V37.9639H259.067V32.5ZM258.567 32H259.067H271.04H271.54V32.5V37.9639V38.4639H271.04H259.067H258.567V37.9639V32.5V32ZM265.054 49.3719L265.054 38.4641H264.554L264.554 49.3719H265.054Z" fill="black"/>
<g clip-path="url(#clip2_18_4223)">
<path d="M163.956 170.911C166.111 171.238 167.747 173.053 167.844 175.228C167.943 177.412 167.108 179.391 166.37 180.872C165.408 182.802 164.128 184.882 162.774 187.084C162.465 187.587 162.153 188.094 161.843 188.602C162.56 188.972 163.307 189.156 164.123 189.17C166.184 189.203 168.643 188.123 171.43 185.959C174.396 183.657 174.747 183.343 175.233 182.909C175.408 182.753 175.606 182.576 175.925 182.305L178.522 185.261C178.239 185.501 178.067 185.655 177.901 185.804C177.356 186.29 176.963 186.641 173.89 189.027C170.366 191.764 167.057 193.126 164.056 193.077C162.568 193.053 161.161 192.686 159.853 191.983C159.476 192.659 159.118 193.33 158.788 193.992C156.509 198.563 156.563 200.829 156.564 200.851C156.563 200.823 156.561 200.809 156.561 200.809L152.602 201.118C152.577 200.802 152.434 197.865 155.222 192.271C155.711 191.291 156.249 190.305 156.814 189.323C156.174 188.29 155.625 186.761 155.505 184.513C155.376 182.072 155.809 179.367 156.724 176.896C159.029 170.676 162.842 170.743 163.956 170.911ZM160.456 178.234C159.556 180.661 159.342 183.037 159.522 184.825C160.775 182.786 161.952 180.861 162.804 179.151C163.367 178.022 163.935 176.693 163.877 175.401C163.868 175.204 163.785 175.032 163.656 174.917C163.572 174.842 163.468 174.791 163.352 174.774C163.069 174.731 162.708 174.876 162.335 175.183C161.844 175.586 161.119 176.443 160.456 178.234Z" fill="#B4CC04"/>
<path d="M162.731 177.976C162.811 178.314 162.658 178.693 162.364 178.885C162.07 179.077 161.654 179.068 161.369 178.864C161.084 178.66 160.947 178.274 161.042 177.94" stroke="#1A1A1A" stroke-width="0.3" stroke-miterlimit="10"/>
<path d="M157.61 178.263C157.017 178.263 156.536 177.938 156.536 177.537C156.536 177.136 157.017 176.811 157.61 176.811C158.203 176.811 158.684 177.136 158.684 177.537C158.684 177.938 158.203 178.263 157.61 178.263Z" fill="#F39655"/>
<path d="M166.616 178.263C166.023 178.263 165.542 177.938 165.542 177.537C165.542 177.136 166.023 176.811 166.616 176.811C167.209 176.811 167.69 177.136 167.69 177.537C167.69 177.938 167.209 178.263 166.616 178.263Z" fill="#F39655"/>
<path d="M167.173 175.405C166.855 175.925 166.157 176.286 165.426 176.309C164.694 176.332 163.961 176.017 163.591 175.52" stroke="#1A1A1A" stroke-width="0.3" stroke-miterlimit="10"/>
<path d="M160.694 175.405C160.377 175.925 159.678 176.286 158.947 176.309C158.216 176.332 157.482 176.017 157.112 175.52" stroke="#1A1A1A" stroke-width="0.3" stroke-miterlimit="10"/>
<path d="M155.52 183.012C153.735 183.212 151.876 182.671 150.489 181.547C149.525 180.766 148.797 179.712 148.396 178.55C148.018 177.457 148.245 176.117 147.385 175.229" stroke="#1A1A1A" stroke-width="0.3" stroke-miterlimit="10"/>
<path d="M164.416 184.271C166.201 184.471 168.06 183.93 169.447 182.806C170.411 182.025 171.138 180.97 171.54 179.808C171.918 178.716 171.691 177.375 172.55 176.487" stroke="#1A1A1A" stroke-width="0.3" stroke-miterlimit="10"/>
<path d="M149.845 201.217C149.933 201.088 150.077 201.004 150.221 200.943C150.443 200.849 150.689 200.823 150.93 200.811C151.172 200.799 151.416 200.801 151.654 200.757C151.76 200.737 151.868 200.707 151.956 200.645C152.017 200.601 152.067 200.54 152.092 200.469C152.094 200.462 152.096 200.456 152.098 200.451C152.115 200.398 152.165 200.362 152.223 200.362H152.59C152.424 200.362 152.289 200.229 152.289 200.066V199.724C152.289 199.56 152.424 199.428 152.59 199.428H156.638C156.805 199.428 156.939 199.56 156.939 199.724V200.066C156.939 200.229 156.805 200.362 156.638 200.362C156.805 200.362 156.939 200.495 156.939 200.658V202.195C156.939 202.359 156.805 202.491 156.638 202.491H150.062C149.896 202.491 149.761 202.359 149.761 202.195C149.761 201.992 149.764 201.789 149.761 201.585C149.758 201.428 149.759 201.342 149.845 201.217Z" stroke="#1A1A1A" stroke-width="0.3" stroke-miterlimit="10"/>
<path d="M180.586 187.082C180.43 187.106 180.27 187.059 180.126 186.996C179.905 186.899 179.719 186.739 179.546 186.573C179.373 186.406 179.209 186.229 179.014 186.087C178.927 186.024 178.832 185.966 178.726 185.945C178.651 185.93 178.572 185.936 178.503 185.966C178.496 185.969 178.491 185.972 178.485 185.974C178.434 185.998 178.373 185.986 178.334 185.945L178.084 185.679C178.197 185.799 178.19 185.986 178.067 186.097L177.812 186.33C177.69 186.441 177.5 186.433 177.387 186.313L174.639 183.388C174.526 183.268 174.533 183.081 174.655 182.969L174.911 182.737C175.033 182.626 175.223 182.634 175.336 182.754C175.223 182.634 175.231 182.446 175.353 182.335L176.5 181.292C176.622 181.181 176.812 181.188 176.925 181.309L181.39 186.06C181.503 186.18 181.495 186.367 181.373 186.479C181.221 186.616 181.068 186.752 180.918 186.892C180.802 187.001 180.738 187.059 180.586 187.082V187.082Z" stroke="#1A1A1A" stroke-width="0.3" stroke-miterlimit="10"/>
</g>
<path d="M147.644 163.044C146.816 163.044 146.212 162.776 146.048 162.216L146.644 162.06C146.772 162.404 147.112 162.552 147.644 162.552C148.264 162.552 148.52 162.36 148.52 162.1C148.52 161.864 148.332 161.716 147.884 161.716H147.2V161.224H147.836C148.24 161.224 148.468 161.088 148.468 160.864C148.468 160.628 148.2 160.448 147.668 160.448C147.148 160.448 146.82 160.616 146.704 160.94L146.116 160.808C146.312 160.256 146.896 159.956 147.672 159.956C148.548 159.956 149.068 160.332 149.068 160.828C149.068 161.096 148.892 161.324 148.568 161.448C148.98 161.556 149.148 161.82 149.148 162.116C149.148 162.68 148.548 163.044 147.644 163.044Z" fill="#B4CC04"/>
<path fill-rule="evenodd" clip-rule="evenodd" d="M153.473 158.5H141.5V163.964H153.473V158.5ZM153.973 158H153.473H141.5H141V158.5V163.964V164.464H141.5H153.473H153.973V163.964V158.5V158ZM147.486 175.372L147.486 164.464H147.986L147.986 175.372H147.486Z" fill="black"/>
<g clip-path="url(#clip3_18_4223)">
<path d="M86.5844 296.911C84.429 297.238 82.7933 299.053 82.6957 301.228C82.5973 303.412 83.4321 305.391 84.1705 306.872C85.1325 308.802 86.4119 310.882 87.7662 313.084C88.0755 313.587 88.3872 314.094 88.6971 314.602C87.98 314.972 87.2331 315.156 86.4173 315.17C84.3557 315.203 81.897 314.123 79.1101 311.959C76.1442 309.657 75.7931 309.343 75.3072 308.909C75.1325 308.753 74.9343 308.576 74.6155 308.305L72.0176 311.261C72.3008 311.501 72.4727 311.655 72.6389 311.804C73.1838 312.29 73.5771 312.641 76.6501 315.027C80.1745 317.764 83.4832 319.126 86.4839 319.077C87.9724 319.053 89.379 318.686 90.6867 317.983C91.0638 318.659 91.4222 319.33 91.7524 319.992C94.0312 324.563 93.977 326.829 93.976 326.851C93.977 326.823 93.9789 326.809 93.9789 326.809L97.9378 327.118C97.9632 326.802 98.1065 323.865 95.3177 318.271C94.8286 317.291 94.2907 316.305 93.7264 315.323C94.3658 314.29 94.9152 312.761 95.0347 310.513C95.1641 308.072 94.7315 305.367 93.8159 302.896C91.5113 296.676 87.6983 296.743 86.5844 296.911ZM90.0844 304.234C90.9836 306.661 91.198 309.037 91.0184 310.825C89.7647 308.786 88.588 306.861 87.7358 305.151C87.1728 304.022 86.6047 302.693 86.6631 301.401C86.672 301.204 86.7548 301.032 86.8839 300.917C86.9682 300.842 87.0719 300.791 87.1883 300.774C87.4709 300.731 87.8319 300.876 88.2052 301.183C88.6961 301.586 89.4209 302.443 90.0844 304.234Z" fill="#B4CC04"/>
<path d="M87.8091 303.976C87.7292 304.314 87.8824 304.693 88.1764 304.885C88.4704 305.077 88.8856 305.068 89.171 304.864C89.4565 304.66 89.5932 304.274 89.4984 303.94" stroke="#1A1A1A" stroke-width="0.3" stroke-miterlimit="10"/>
<path d="M92.9304 304.263C93.5235 304.263 94.0043 303.938 94.0043 303.537C94.0043 303.136 93.5235 302.811 92.9304 302.811C92.3373 302.811 91.8564 303.136 91.8564 303.537C91.8564 303.938 92.3373 304.263 92.9304 304.263Z" fill="#F39655"/>
<path d="M83.924 304.263C84.5171 304.263 84.998 303.938 84.998 303.537C84.998 303.136 84.5171 302.811 83.924 302.811C83.3309 302.811 82.8501 303.136 82.8501 303.537C82.8501 303.938 83.3309 304.263 83.924 304.263Z" fill="#F39655"/>
<path d="M83.3672 301.405C83.685 301.925 84.3831 302.286 85.1145 302.309C85.8459 302.332 86.5791 302.017 86.9493 301.52" stroke="#1A1A1A" stroke-width="0.3" stroke-miterlimit="10"/>
<path d="M89.8457 301.405C90.1635 301.925 90.8616 302.286 91.593 302.309C92.3244 302.332 93.0577 302.017 93.4278 301.52" stroke="#1A1A1A" stroke-width="0.3" stroke-miterlimit="10"/>
<path d="M95.02 309.012C96.805 309.212 98.664 308.671 100.051 307.547C101.015 306.766 101.743 305.712 102.144 304.55C102.522 303.457 102.295 302.117 103.155 301.229" stroke="#1A1A1A" stroke-width="0.3" stroke-miterlimit="10"/>
<path d="M86.1245 310.271C84.3394 310.471 82.4805 309.93 81.0932 308.806C80.1294 308.025 79.4018 306.97 79.0002 305.808C78.6225 304.716 78.8493 303.375 77.9897 302.487" stroke="#1A1A1A" stroke-width="0.3" stroke-miterlimit="10"/>
<path d="M100.695 327.217C100.607 327.088 100.463 327.004 100.319 326.943C100.097 326.849 99.8513 326.823 99.6096 326.811C99.368 326.799 99.1244 326.801 98.8862 326.757C98.7796 326.737 98.6718 326.707 98.5839 326.645C98.5227 326.601 98.4729 326.54 98.4485 326.469C98.4463 326.462 98.4444 326.456 98.4425 326.451C98.425 326.398 98.3746 326.362 98.3175 326.362H97.9499C98.1161 326.362 98.2509 326.229 98.2509 326.066V325.724C98.2509 325.56 98.1161 325.428 97.9499 325.428H93.9016C93.7354 325.428 93.6006 325.56 93.6006 325.724V326.066C93.6006 326.229 93.7354 326.362 93.9016 326.362C93.7354 326.362 93.6006 326.495 93.6006 326.658V328.195C93.6006 328.359 93.7354 328.491 93.9016 328.491H100.478C100.644 328.491 100.779 328.359 100.779 328.195C100.779 327.992 100.776 327.789 100.779 327.585C100.782 327.428 100.781 327.342 100.695 327.217Z" stroke="#1A1A1A" stroke-width="0.3" stroke-miterlimit="10"/>
<path d="M69.954 313.082C70.1097 313.106 70.2705 313.059 70.4139 312.996C70.6349 312.899 70.8211 312.739 70.994 312.573C71.1668 312.406 71.3314 312.229 71.5255 312.087C71.6128 312.024 71.7079 311.966 71.8145 311.945C71.8887 311.93 71.9683 311.936 72.0375 311.966C72.0438 311.969 72.0495 311.972 72.0546 311.974C72.1063 311.998 72.1675 311.986 72.2062 311.945L72.4558 311.679C72.3429 311.799 72.3505 311.986 72.4726 312.097L72.7279 312.33C72.85 312.441 73.0403 312.433 73.1532 312.313L75.9015 309.388C76.0144 309.268 76.0068 309.081 75.8847 308.969L75.6294 308.737C75.5073 308.626 75.317 308.634 75.2041 308.754C75.317 308.634 75.3094 308.446 75.1872 308.335L74.04 307.292C73.9179 307.181 73.7276 307.188 73.6147 307.309L69.1503 312.06C69.0374 312.18 69.045 312.367 69.1671 312.479C69.3187 312.616 69.4725 312.752 69.6219 312.892C69.738 313.001 69.8024 313.059 69.954 313.082V313.082Z" stroke="#1A1A1A" stroke-width="0.3" stroke-miterlimit="10"/>
</g>
<path d="M103.228 289V288.368H101.072V287.928L103.096 286H103.812V287.868H104.392V288.368H103.812V289H103.228ZM101.844 287.868H103.228V286.568L101.844 287.868Z" fill="#B4CC04"/>
<path fill-rule="evenodd" clip-rule="evenodd" d="M97.0669 284.5H109.04V289.964H97.0669V284.5ZM96.5669 284H97.0669H109.04H109.54V284.5V289.964V290.464H109.04H97.0669H96.5669V289.964V284.5V284ZM103.054 301.372L103.054 290.464H102.554L102.554 301.372H103.054Z" fill="black"/>
<g clip-path="url(#clip4_18_4223)">
<path d="M301.585 296.911C299.429 297.238 297.794 299.053 297.696 301.228C297.598 303.412 298.433 305.391 299.171 306.872C300.133 308.802 301.412 310.882 302.767 313.084C303.076 313.587 303.388 314.094 303.698 314.602C302.98 314.972 302.234 315.156 301.418 315.17C299.356 315.203 296.898 314.123 294.111 311.959C291.145 309.657 290.794 309.343 290.308 308.909C290.133 308.753 289.935 308.576 289.616 308.305L287.018 311.261C287.301 311.501 287.473 311.655 287.639 311.804C288.184 312.29 288.578 312.641 291.651 315.027C295.175 317.764 298.484 319.126 301.484 319.077C302.973 319.053 304.379 318.686 305.687 317.983C306.064 318.659 306.423 319.33 306.753 319.992C309.032 324.563 308.977 326.829 308.977 326.851C308.977 326.823 308.979 326.809 308.979 326.809L312.938 327.118C312.964 326.802 313.107 323.865 310.318 318.271C309.829 317.291 309.291 316.305 308.727 315.323C309.366 314.29 309.916 312.761 310.035 310.513C310.165 308.072 309.732 305.367 308.816 302.896C306.512 296.676 302.699 296.743 301.585 296.911ZM305.085 304.234C305.984 306.661 306.198 309.037 306.019 310.825C304.765 308.786 303.588 306.861 302.736 305.151C302.173 304.022 301.605 302.693 301.664 301.401C301.672 301.204 301.755 301.032 301.884 300.917C301.969 300.842 302.072 300.791 302.189 300.774C302.471 300.731 302.832 300.876 303.206 301.183C303.697 301.586 304.421 302.443 305.085 304.234Z" fill="#B4CC04"/>
<path d="M302.81 303.976C302.73 304.314 302.883 304.693 303.177 304.885C303.471 305.077 303.886 305.068 304.172 304.864C304.457 304.66 304.594 304.274 304.499 303.94" stroke="#1A1A1A" stroke-width="0.3" stroke-miterlimit="10"/>
<path d="M307.931 304.263C308.524 304.263 309.005 303.938 309.005 303.537C309.005 303.136 308.524 302.811 307.931 302.811C307.338 302.811 306.857 303.136 306.857 303.537C306.857 303.938 307.338 304.263 307.931 304.263Z" fill="#F39655"/>
<path d="M298.925 304.263C299.518 304.263 299.998 303.938 299.998 303.537C299.998 303.136 299.518 302.811 298.925 302.811C298.331 302.811 297.851 303.136 297.851 303.537C297.851 303.938 298.331 304.263 298.925 304.263Z" fill="#F39655"/>
<path d="M298.368 301.405C298.685 301.925 299.384 302.286 300.115 302.309C300.846 302.332 301.58 302.017 301.95 301.52" stroke="#1A1A1A" stroke-width="0.3" stroke-miterlimit="10"/>
<path d="M304.846 301.405C305.164 301.925 305.862 302.286 306.593 302.309C307.325 302.332 308.058 302.017 308.428 301.52" stroke="#1A1A1A" stroke-width="0.3" stroke-miterlimit="10"/>
<path d="M310.021 309.012C311.806 309.212 313.664 308.671 315.052 307.547C316.016 306.766 316.743 305.712 317.145 304.55C317.522 303.457 317.296 302.117 318.155 301.229" stroke="#1A1A1A" stroke-width="0.3" stroke-miterlimit="10"/>
<path d="M301.125 310.271C299.34 310.471 297.481 309.93 296.094 308.806C295.13 308.025 294.402 306.97 294.001 305.808C293.623 304.716 293.85 303.375 292.99 302.487" stroke="#1A1A1A" stroke-width="0.3" stroke-miterlimit="10"/>
<path d="M315.696 327.217C315.608 327.088 315.464 327.004 315.32 326.943C315.097 326.849 314.852 326.823 314.61 326.811C314.368 326.799 314.125 326.801 313.887 326.757C313.78 326.737 313.672 326.707 313.584 326.645C313.523 326.601 313.473 326.54 313.449 326.469C313.447 326.462 313.445 326.456 313.443 326.451C313.426 326.398 313.375 326.362 313.318 326.362H312.95C313.117 326.362 313.251 326.229 313.251 326.066V325.724C313.251 325.56 313.117 325.428 312.95 325.428H308.902C308.736 325.428 308.601 325.56 308.601 325.724V326.066C308.601 326.229 308.736 326.362 308.902 326.362C308.736 326.362 308.601 326.495 308.601 326.658V328.195C308.601 328.359 308.736 328.491 308.902 328.491H315.479C315.645 328.491 315.78 328.359 315.78 328.195C315.78 327.992 315.776 327.789 315.78 327.585C315.782 327.428 315.781 327.342 315.696 327.217Z" stroke="#1A1A1A" stroke-width="0.3" stroke-miterlimit="10"/>
<path d="M284.954 313.082C285.11 313.106 285.271 313.059 285.414 312.996C285.635 312.899 285.822 312.739 285.994 312.573C286.167 312.406 286.332 312.229 286.526 312.087C286.613 312.024 286.708 311.966 286.815 311.945C286.889 311.93 286.969 311.936 287.038 311.966C287.044 311.969 287.05 311.972 287.055 311.974C287.107 311.998 287.168 311.986 287.207 311.945L287.456 311.679C287.343 311.799 287.351 311.986 287.473 312.097L287.728 312.33C287.851 312.441 288.041 312.433 288.154 312.313L290.902 309.388C291.015 309.268 291.007 309.081 290.885 308.969L290.63 308.737C290.508 308.626 290.317 308.634 290.205 308.754C290.317 308.634 290.31 308.446 290.188 308.335L289.041 307.292C288.918 307.181 288.728 307.188 288.615 307.309L284.151 312.06C284.038 312.18 284.045 312.367 284.168 312.479C284.319 312.616 284.473 312.752 284.622 312.892C284.738 313.001 284.803 313.059 284.954 313.082V313.082Z" stroke="#1A1A1A" stroke-width="0.3" stroke-miterlimit="10"/>
</g>
<path d="M317.676 289.044C316.912 289.044 316.352 288.816 316.112 288.26L316.72 288.076C316.872 288.44 317.228 288.552 317.676 288.552C318.232 288.552 318.56 288.332 318.56 288.004C318.56 287.66 318.24 287.456 317.68 287.456C317.232 287.456 316.952 287.556 316.756 287.74L316.24 287.596L316.616 286H319.012V286.5H317.052L316.88 287.18C317.132 287.036 317.452 286.976 317.796 286.976C318.664 286.976 319.176 287.396 319.176 288C319.176 288.592 318.644 289.044 317.676 289.044Z" fill="#B4CC04"/>
<path fill-rule="evenodd" clip-rule="evenodd" d="M312.067 284.5H324.041V289.964H312.067V284.5ZM311.567 284H312.067H324.041H324.541V284.5V289.964V290.464H324.041H312.067H311.567V289.964V284.5V284ZM318.054 301.372L318.054 290.464H317.554L317.554 301.372H318.054Z" fill="black"/>
<rect x="317.25" y="252.324" width="48.5" height="19.8396" fill="#F4EBD5" stroke="black" stroke-width="0.5"/>
<line x1="365.696" y1="328.915" x2="365.696" y2="252" stroke="black" stroke-width="0.5"/>
<path d="M326.74 260.72C326.74 259.28 327.84 258.39 329.3 258.39C329.81 258.39 330.24 258.48 330.67 258.66L330.25 259.75C329.99 259.66 329.74 259.6 329.41 259.6C328.67 259.6 328.16 259.98 328.16 260.72V260.98H330.83V262.13H328.16V266H326.74V262.13H324.99V261.72L325.63 260.98H326.74V260.72ZM331.64 259.44C331.64 258.97 332 258.66 332.52 258.66C333.05 258.66 333.4 258.97 333.4 259.44C333.4 259.91 333.04 260.22 332.52 260.22C331.99 260.22 331.64 259.91 331.64 259.44ZM331.8 266V260.98H333.24V266H331.8ZM334.754 266V260.98H336.114L336.184 261.69C336.754 261.12 337.554 260.87 338.424 260.87C340.104 260.87 341.314 261.89 341.314 263.39V266H339.874V263.61C339.874 262.7 339.224 262.08 338.134 262.08C336.954 262.08 336.194 262.75 336.194 263.68V266H334.754ZM342.704 266V260.98H344.144V266H342.704ZM342.544 259.44C342.544 258.97 342.904 258.66 343.424 258.66C343.954 258.66 344.304 258.97 344.304 259.44C344.304 259.91 343.944 260.22 343.424 260.22C342.894 260.22 342.544 259.91 342.544 259.44ZM348.562 266.11C346.792 266.11 345.452 265.64 345.042 264.57L346.572 264.29C346.832 264.86 347.522 265.08 348.632 265.08C349.832 265.08 350.242 264.88 350.242 264.55C350.242 264.31 350.042 264.19 349.442 264.13L347.372 263.92C346.002 263.78 345.272 263.35 345.272 262.48C345.272 261.49 346.482 260.87 348.412 260.87C350.232 260.87 351.322 261.36 351.762 262.33L350.282 262.6C350.042 262.12 349.422 261.87 348.402 261.87C347.322 261.87 346.792 262.07 346.792 262.4C346.792 262.64 347.032 262.72 347.632 262.79L349.742 263.02C351.092 263.17 351.792 263.63 351.792 264.48C351.792 265.44 350.742 266.11 348.562 266.11ZM352.781 266V258.5H354.221V261.69C354.791 261.12 355.611 260.87 356.451 260.87C358.131 260.87 359.341 261.89 359.341 263.39V266H357.901V263.61C357.901 262.7 357.251 262.08 356.161 262.08C354.981 262.08 354.221 262.75 354.221 263.68V266H352.781Z" fill="black"/>
<defs>
<clipPath id="clip0_18_4223">
<rect width="34.2195" height="31.6981" fill="white" transform="translate(29.7295 44.8633)"/>
</clipPath>
<clipPath id="clip1_18_4223">
<rect width="34.2195" height="31.6981" fill="white" transform="translate(231 44.8633)"/>
</clipPath>
<clipPath id="clip2_18_4223">
<rect width="34.2195" height="31.6981" fill="white" transform="matrix(-1 0 0 1 181.541 170.863)"/>
</clipPath>
<clipPath id="clip3_18_4223">
<rect width="34.2195" height="31.6981" fill="white" transform="translate(68.9995 296.863)"/>
</clipPath>
<clipPath id="clip4_18_4223">
<rect width="34.2195" height="31.6981" fill="white" transform="translate(284 296.863)"/>
</clipPath>
</defs>
</svg>
