<svg width="1320" height="687" viewBox="0 0 1320 687" fill="none" xmlns="http://www.w3.org/2000/svg">
<path fill-rule="evenodd" clip-rule="evenodd" d="M124.033 437.479C122.684 437.479 121.34 437.459 120 437.42V437.288C63.5661 444.694 20 492.974 20 551.429C20 615.011 71.5436 666.555 135.126 666.555L1195.97 666.555C1197.32 666.555 1198.66 666.532 1200 666.485V686.496C1198.66 686.535 1197.32 686.555 1195.97 686.555L135.126 686.555C60.4978 686.555 6.52419e-06 626.057 0 551.429C-6.52419e-06 476.801 60.4979 416.303 135.126 416.303L1195.97 416.303C1197.32 416.303 1198.66 416.322 1200 416.362V416.494C1256.43 409.088 1300 360.808 1300 302.353C1300 238.771 1248.46 187.227 1184.87 187.227H124.034C122.684 187.227 121.339 187.25 120 187.296V167.286C121.34 167.247 122.684 167.227 124.034 167.227H1184.87C1259.5 167.227 1320 227.725 1320 302.353C1320 376.981 1259.5 437.479 1184.87 437.479H124.033Z" fill="#F4EBD5"/>
<rect x="120.5" y="1.5" width="105" height="43" fill="#F4EBD5" stroke="black"/>
<line x1="225.382" y1="167.227" x2="225.382" y2="0.8405" stroke="black"/>
<path d="M142.784 31.264C138.536 31.264 135.32 30.136 134.336 27.568L138.008 26.896C138.632 28.264 140.288 28.792 142.952 28.792C145.832 28.792 146.816 28.312 146.816 27.52C146.816 26.944 146.336 26.656 144.896 26.512L139.928 26.008C136.64 25.672 134.888 24.64 134.888 22.552C134.888 20.176 137.792 18.688 142.424 18.688C146.792 18.688 149.408 19.864 150.464 22.192L146.912 22.84C146.336 21.688 144.848 21.088 142.4 21.088C139.808 21.088 138.536 21.568 138.536 22.36C138.536 22.936 139.112 23.128 140.552 23.296L145.616 23.848C148.856 24.208 150.536 25.312 150.536 27.352C150.536 29.656 148.016 31.264 142.784 31.264ZM160.186 31.264C156.562 31.264 154.33 29.488 154.33 26.728V21.712H151.09V20.632L156.73 16.456H157.786V18.952H165.01V21.712H157.786V25.936C157.786 27.592 158.914 28.336 160.81 28.336C161.794 28.336 162.802 28.12 163.858 27.688L164.77 30.28C163.354 30.928 161.746 31.264 160.186 31.264ZM172.129 31.264C168.553 31.264 166.321 29.92 166.321 27.544C166.321 25.576 167.881 24.328 172.153 23.752L178.609 22.888C178.249 21.856 177.097 21.28 174.577 21.28C171.865 21.28 170.353 21.88 169.777 23.056L166.201 22.744C166.993 20.32 169.921 18.688 174.577 18.688C179.281 18.688 182.209 20.56 182.209 23.8V31H178.993L178.849 28.936C177.361 30.52 174.793 31.264 172.129 31.264ZM169.873 27.472C169.873 28.336 170.689 28.768 172.465 28.768C175.609 28.768 178.777 27.424 178.777 25.216V25.12L172.368 26.008C170.521 26.296 169.873 26.704 169.873 27.472ZM185.511 31V18.952H188.823L188.967 20.944C190.095 19.552 191.919 18.688 194.151 18.688C195.255 18.688 196.143 18.808 197.031 19.072L196.311 22.12C195.543 21.904 194.823 21.76 193.887 21.76C190.647 21.76 188.967 23.488 188.967 26.416V31H185.511ZM206.522 31.264C202.898 31.264 200.666 29.488 200.666 26.728V21.712H197.426V20.632L203.066 16.456H204.122V18.952H211.346V21.712H204.122V25.936C204.122 27.592 205.25 28.336 207.146 28.336C208.13 28.336 209.138 28.12 210.194 27.688L211.106 30.28C209.69 30.928 208.082 31.264 206.522 31.264Z" fill="black"/>
<rect x="1079.62" y="500.5" width="104.882" height="43" fill="#F4EBD5" stroke="black"/>
<line x1="1184.5" y1="666.387" x2="1184.5" y2="500" stroke="black"/>
<path d="M1094.18 517.328C1094.18 513.872 1096.82 511.736 1100.32 511.736C1101.54 511.736 1102.58 511.952 1103.61 512.384L1102.6 515C1101.98 514.784 1101.38 514.64 1100.58 514.64C1098.81 514.64 1097.58 515.552 1097.58 517.328V517.952H1103.99V520.712H1097.58V530H1094.18V520.712H1089.98V519.728L1091.51 517.952H1094.18V517.328ZM1105.94 514.256C1105.94 513.128 1106.8 512.384 1108.05 512.384C1109.32 512.384 1110.16 513.128 1110.16 514.256C1110.16 515.384 1109.3 516.128 1108.05 516.128C1106.78 516.128 1105.94 515.384 1105.94 514.256ZM1106.32 530V517.952H1109.78V530H1106.32ZM1113.41 530V517.952H1116.67L1116.84 519.656C1118.21 518.288 1120.13 517.688 1122.22 517.688C1126.25 517.688 1129.15 520.136 1129.15 523.736V530H1125.7V524.264C1125.7 522.08 1124.14 520.592 1121.52 520.592C1118.69 520.592 1116.87 522.2 1116.87 524.432V530H1113.41ZM1132.49 530V517.952H1135.95V530H1132.49ZM1132.11 514.256C1132.11 513.128 1132.97 512.384 1134.22 512.384C1135.49 512.384 1136.33 513.128 1136.33 514.256C1136.33 515.384 1135.47 516.128 1134.22 516.128C1132.95 516.128 1132.11 515.384 1132.11 514.256ZM1146.55 530.264C1142.3 530.264 1139.09 529.136 1138.1 526.568L1141.77 525.896C1142.4 527.264 1144.05 527.792 1146.72 527.792C1149.6 527.792 1150.58 527.312 1150.58 526.52C1150.58 525.944 1150.1 525.656 1148.66 525.512L1143.69 525.008C1140.41 524.672 1138.65 523.64 1138.65 521.552C1138.65 519.176 1141.56 517.688 1146.19 517.688C1150.56 517.688 1153.17 518.864 1154.23 521.192L1150.68 521.84C1150.1 520.688 1148.61 520.088 1146.17 520.088C1143.57 520.088 1142.3 520.568 1142.3 521.36C1142.3 521.936 1142.88 522.128 1144.32 522.296L1149.38 522.848C1152.62 523.208 1154.3 524.312 1154.3 526.352C1154.3 528.656 1151.78 530.264 1146.55 530.264ZM1156.68 530V512H1160.13V519.656C1161.5 518.288 1163.47 517.688 1165.48 517.688C1169.52 517.688 1172.42 520.136 1172.42 523.736V530H1168.96V524.264C1168.96 522.08 1167.4 520.592 1164.79 520.592C1161.96 520.592 1160.13 522.2 1160.13 524.432V530H1156.68Z" fill="black"/>
<g clip-path="url(#clip0_18_2695)">
<path d="M965.056 88.6899C959.74 89.4951 955.705 93.9722 955.464 99.3368C955.222 104.724 957.281 109.607 959.102 113.259C961.475 118.019 964.631 123.149 967.971 128.581C968.734 129.822 969.503 131.072 970.267 132.326C968.499 133.24 966.656 133.693 964.644 133.726C959.559 133.809 953.494 131.145 946.62 125.807C939.304 120.128 938.438 119.354 937.24 118.284C936.809 117.899 936.32 117.463 935.533 116.794L929.125 124.084C929.824 124.678 930.248 125.057 930.658 125.423C932.002 126.623 932.972 127.489 940.552 133.374C949.245 140.125 957.407 143.486 964.808 143.364C968.48 143.304 971.949 142.399 975.175 140.665C976.105 142.332 976.989 143.988 977.804 145.621C983.425 156.896 983.291 162.485 983.289 162.54C983.291 162.471 983.296 162.436 983.296 162.436L993.061 163.199C993.123 162.419 993.477 155.174 986.598 141.376C985.391 138.958 984.065 136.528 982.673 134.104C984.25 131.557 985.605 127.786 985.9 122.24C986.219 116.22 985.152 109.547 982.893 103.451C977.209 88.1095 967.804 88.2742 965.056 88.6899ZM973.689 106.752C975.907 112.74 976.436 118.599 975.993 123.009C972.901 117.98 969.998 113.231 967.896 109.015C966.508 106.229 965.106 102.951 965.25 99.7641C965.272 99.2791 965.476 98.8549 965.795 98.5709C966.003 98.3861 966.259 98.2607 966.546 98.2168C967.243 98.1113 968.133 98.4701 969.054 99.226C970.265 100.221 972.053 102.334 973.689 106.752Z" fill="#B4CC04"/>
<path d="M968.077 106.115C967.88 106.949 968.258 107.885 968.983 108.359C969.708 108.832 970.732 108.81 971.436 108.307C972.14 107.804 972.478 106.852 972.244 106.027" stroke="#1A1A1A" stroke-width="0.5" stroke-miterlimit="10"/>
<path d="M980.709 106.824C982.172 106.824 983.358 106.022 983.358 105.033C983.358 104.044 982.172 103.242 980.709 103.242C979.246 103.242 978.06 104.044 978.06 105.033C978.06 106.022 979.246 106.824 980.709 106.824Z" fill="#F39655"/>
<path d="M958.494 106.824C959.957 106.824 961.143 106.022 961.143 105.033C961.143 104.044 959.957 103.242 958.494 103.242C957.031 103.242 955.845 104.044 955.845 105.033C955.845 106.022 957.031 106.824 958.494 106.824Z" fill="#F39655"/>
<path d="M957.12 99.7749C957.904 101.056 959.626 101.946 961.43 102.004C963.234 102.062 965.043 101.284 965.956 100.057" stroke="#1A1A1A" stroke-width="0.5" stroke-miterlimit="10"/>
<path d="M973.1 99.7749C973.884 101.056 975.606 101.946 977.41 102.004C979.214 102.062 981.023 101.284 981.936 100.057" stroke="#1A1A1A" stroke-width="0.5" stroke-miterlimit="10"/>
<path d="M985.864 118.538C990.267 119.032 994.852 117.697 998.274 114.925C1000.65 112.999 1002.45 110.397 1003.44 107.531C1004.37 104.836 1003.81 101.53 1005.93 99.3389" stroke="#1A1A1A" stroke-width="0.5" stroke-miterlimit="10"/>
<path d="M963.922 121.643C959.519 122.137 954.934 120.802 951.512 118.03C949.134 116.104 947.34 113.502 946.349 110.636C945.417 107.941 945.977 104.635 943.857 102.444" stroke="#1A1A1A" stroke-width="0.5" stroke-miterlimit="10"/>
<path d="M999.862 163.442C999.645 163.125 999.29 162.916 998.934 162.766C998.386 162.534 997.78 162.471 997.184 162.441C996.588 162.412 995.987 162.415 995.4 162.307C995.137 162.258 994.871 162.185 994.654 162.03C994.503 161.922 994.38 161.772 994.32 161.597C994.315 161.581 994.31 161.566 994.305 161.554C994.262 161.422 994.138 161.334 993.997 161.334H993.09C993.5 161.334 993.833 161.006 993.833 160.603V159.759C993.833 159.356 993.5 159.029 993.09 159.029H983.105C982.695 159.029 982.362 159.356 982.362 159.759V160.603C982.362 161.006 982.695 161.334 983.105 161.334C982.695 161.334 982.362 161.661 982.362 162.064V165.855C982.362 166.259 982.695 166.586 983.105 166.586H999.326C999.736 166.586 1000.07 166.259 1000.07 165.855C1000.07 165.353 1000.06 164.852 1000.07 164.351C1000.08 163.962 1000.07 163.751 999.862 163.442Z" stroke="#1A1A1A" stroke-width="0.5" stroke-miterlimit="10"/>
<path d="M924.035 128.577C924.419 128.635 924.815 128.52 925.169 128.365C925.714 128.126 926.174 127.732 926.6 127.321C927.026 126.91 927.432 126.474 927.911 126.123C928.126 125.966 928.361 125.823 928.624 125.772C928.807 125.736 929.003 125.75 929.174 125.825C929.189 125.832 929.204 125.838 929.216 125.844C929.344 125.902 929.495 125.873 929.59 125.771L930.206 125.116C929.927 125.412 929.946 125.874 930.247 126.148L930.877 126.721C931.178 126.995 931.648 126.977 931.926 126.68L938.705 119.465C938.984 119.169 938.965 118.707 938.664 118.433L938.034 117.86C937.733 117.586 937.263 117.604 936.985 117.901C937.263 117.604 937.244 117.143 936.943 116.869L934.113 114.295C933.812 114.021 933.343 114.04 933.064 114.336L922.052 126.055C921.774 126.352 921.793 126.814 922.094 127.088C922.468 127.428 922.847 127.763 923.216 128.108C923.502 128.377 923.661 128.52 924.035 128.576V128.577Z" stroke="#1A1A1A" stroke-width="0.5" stroke-miterlimit="10"/>
</g>
<path d="M1010.41 67.548V69H1001.61V67.68L1006.12 65.196C1007.73 64.308 1008.27 63.816 1008.27 63C1008.27 62.052 1007.42 61.38 1005.93 61.38C1004.43 61.38 1003.42 61.932 1003.08 63.12L1001.26 62.748C1001.82 60.852 1003.54 59.868 1005.93 59.868C1008.5 59.868 1010.12 61.152 1010.12 62.952C1010.12 64.476 1008.86 65.364 1007.11 66.288L1004.74 67.548H1010.41Z" fill="#B4CC04"/>
<path fill-rule="evenodd" clip-rule="evenodd" d="M991 58H1021V72H991V58ZM990 57H991H1021H1022V58V72V73H1021H1006L1006 99.6992H1005L1005 73H991H990V72V58V57Z" fill="black"/>
<g clip-path="url(#clip1_18_2695)">
<path d="M590.611 337.757C595.927 338.563 599.962 343.04 600.203 348.404C600.445 353.791 598.386 358.674 596.565 362.327C594.192 367.086 591.036 372.217 587.696 377.648C586.933 378.889 586.164 380.139 585.4 381.393C587.168 382.307 589.011 382.761 591.023 382.794C596.108 382.877 602.173 380.213 609.047 374.875C616.363 369.195 617.229 368.422 618.427 367.352C618.858 366.967 619.347 366.53 620.134 365.861L626.542 373.151C625.843 373.746 625.419 374.124 625.009 374.491C623.665 375.69 622.695 376.557 615.115 382.442C606.422 389.192 598.26 392.553 590.859 392.431C587.187 392.371 583.718 391.466 580.492 389.732C579.562 391.4 578.678 393.056 577.863 394.688C572.242 405.963 572.376 411.552 572.378 411.608C572.376 411.538 572.371 411.504 572.371 411.504L562.606 412.266C562.544 411.486 562.19 404.241 569.069 390.444C570.276 388.025 571.602 385.595 572.994 383.172C571.417 380.624 570.062 376.853 569.767 371.308C569.448 365.287 570.515 358.615 572.774 352.519C578.458 337.177 587.863 337.342 590.611 337.757ZM581.978 355.82C579.76 361.807 579.231 367.667 579.674 372.077C582.766 367.048 585.669 362.298 587.771 358.082C589.159 355.296 590.561 352.018 590.417 348.831C590.395 348.346 590.191 347.922 589.872 347.638C589.664 347.454 589.408 347.328 589.121 347.284C588.424 347.179 587.534 347.537 586.613 348.293C585.402 349.289 583.614 351.402 581.978 355.82Z" fill="#B4CC04"/>
<path d="M587.59 355.182C587.787 356.016 587.409 356.953 586.684 357.426C585.959 357.899 584.935 357.878 584.231 357.374C583.527 356.871 583.19 355.919 583.423 355.094" stroke="#1A1A1A" stroke-width="0.5" stroke-miterlimit="10"/>
<path d="M574.958 355.892C573.495 355.892 572.309 355.09 572.309 354.1C572.309 353.111 573.495 352.309 574.958 352.309C576.421 352.309 577.607 353.111 577.607 354.1C577.607 355.09 576.421 355.892 574.958 355.892Z" fill="#F39655"/>
<path d="M597.173 355.892C595.71 355.892 594.524 355.09 594.524 354.1C594.524 353.111 595.71 352.309 597.173 352.309C598.636 352.309 599.822 353.111 599.822 354.1C599.822 355.09 598.636 355.892 597.173 355.892Z" fill="#F39655"/>
<path d="M598.547 348.842C597.763 350.123 596.041 351.014 594.237 351.072C592.433 351.129 590.624 350.352 589.711 349.125" stroke="#1A1A1A" stroke-width="0.5" stroke-miterlimit="10"/>
<path d="M582.567 348.842C581.783 350.123 580.061 351.014 578.257 351.072C576.453 351.129 574.644 350.352 573.731 349.125" stroke="#1A1A1A" stroke-width="0.5" stroke-miterlimit="10"/>
<path d="M569.803 367.605C565.4 368.099 560.815 366.764 557.393 363.992C555.015 362.066 553.221 359.464 552.23 356.598C551.298 353.903 551.858 350.597 549.738 348.406" stroke="#1A1A1A" stroke-width="0.5" stroke-miterlimit="10"/>
<path d="M591.745 370.71C596.148 371.204 600.733 369.869 604.155 367.097C606.533 365.171 608.327 362.569 609.318 359.703C610.25 357.008 609.69 353.702 611.81 351.511" stroke="#1A1A1A" stroke-width="0.5" stroke-miterlimit="10"/>
<path d="M555.805 412.509C556.022 412.192 556.377 411.984 556.733 411.834C557.281 411.602 557.887 411.538 558.483 411.509C559.079 411.479 559.68 411.482 560.267 411.374C560.53 411.325 560.796 411.252 561.013 411.098C561.164 410.99 561.287 410.839 561.347 410.664C561.352 410.648 561.357 410.633 561.362 410.621C561.405 410.489 561.529 410.401 561.67 410.401H562.577C562.167 410.401 561.834 410.074 561.834 409.67V408.827C561.834 408.423 562.167 408.096 562.577 408.096H572.562C572.972 408.096 573.305 408.423 573.305 408.827V409.67C573.305 410.074 572.972 410.401 572.562 410.401C572.972 410.401 573.305 410.728 573.305 411.131V414.923C573.305 415.326 572.972 415.653 572.562 415.653H556.341C555.931 415.653 555.598 415.326 555.598 414.922C555.598 414.421 555.606 413.92 555.598 413.418C555.592 413.03 555.593 412.818 555.805 412.509Z" stroke="#1A1A1A" stroke-width="0.5" stroke-miterlimit="10"/>
<path d="M631.632 377.644C631.248 377.702 630.852 377.587 630.498 377.433C629.953 377.193 629.493 376.799 629.067 376.388C628.641 375.977 628.235 375.541 627.756 375.19C627.541 375.033 627.306 374.891 627.043 374.839C626.86 374.803 626.664 374.817 626.493 374.892C626.477 374.899 626.463 374.905 626.451 374.912C626.323 374.969 626.172 374.94 626.077 374.839L625.461 374.183C625.74 374.48 625.721 374.942 625.42 375.216L624.79 375.788C624.489 376.062 624.019 376.044 623.741 375.748L616.962 368.532C616.683 368.236 616.702 367.774 617.003 367.5L617.633 366.927C617.934 366.653 618.404 366.672 618.682 366.968C618.404 366.672 618.423 366.21 618.724 365.936L621.553 363.363C621.855 363.088 622.324 363.107 622.603 363.403L633.615 375.123C633.893 375.419 633.874 375.882 633.573 376.156C633.199 376.496 632.82 376.83 632.451 377.176C632.165 377.444 632.006 377.587 631.632 377.644V377.644Z" stroke="#1A1A1A" stroke-width="0.5" stroke-miterlimit="10"/>
</g>
<path d="M550.932 319.132C548.448 319.132 546.636 318.328 546.144 316.648L547.932 316.18C548.316 317.212 549.336 317.656 550.932 317.656C552.792 317.656 553.56 317.08 553.56 316.3C553.56 315.592 552.996 315.148 551.652 315.148H549.6V313.672H551.508C552.72 313.672 553.404 313.264 553.404 312.592C553.404 311.884 552.6 311.344 551.004 311.344C549.444 311.344 548.46 311.848 548.112 312.82L546.348 312.424C546.936 310.768 548.688 309.868 551.016 309.868C553.644 309.868 555.204 310.996 555.204 312.484C555.204 313.288 554.676 313.972 553.704 314.344C554.94 314.668 555.444 315.46 555.444 316.348C555.444 318.04 553.644 319.132 550.932 319.132Z" fill="#B4CC04"/>
<path fill-rule="evenodd" clip-rule="evenodd" d="M536 307.975H566V321.919H536V307.975ZM535 306.975H536H566H567V307.975V321.919V322.919H566L551 322.919L551 349.824H550L550 322.919L536 322.919H535V321.919V307.975V306.975Z" fill="black"/>
<g clip-path="url(#clip2_18_2695)">
<path d="M241.023 587.85C235.706 588.655 231.671 593.132 231.43 598.497C231.188 603.883 233.247 608.766 235.068 612.419C237.441 617.178 240.597 622.309 243.938 627.741C244.7 628.982 245.469 630.232 246.234 631.486C244.465 632.399 242.622 632.853 240.61 632.886C235.525 632.969 229.461 630.305 222.586 624.967C215.271 619.288 214.405 618.514 213.206 617.444C212.775 617.059 212.286 616.623 211.5 615.954L205.092 623.244C205.79 623.838 206.214 624.217 206.624 624.583C207.968 625.782 208.938 626.649 216.518 632.534C225.212 639.284 233.373 642.645 240.775 642.524C244.446 642.464 247.916 641.558 251.141 639.825C252.072 641.492 252.956 643.148 253.77 644.781C259.391 656.056 259.257 661.644 259.255 661.7C259.257 661.631 259.262 661.596 259.262 661.596L269.027 662.359C269.09 661.578 269.443 654.334 262.564 640.536C261.358 638.117 260.031 635.687 258.639 633.264C260.216 630.717 261.571 626.945 261.866 621.4C262.185 615.379 261.118 608.707 258.86 602.611C253.175 587.269 243.77 587.434 241.023 587.85ZM249.656 605.912C251.874 611.899 252.402 617.759 251.96 622.169C248.867 617.14 245.965 612.39 243.862 608.174C242.474 605.388 241.073 602.111 241.217 598.924C241.239 598.439 241.443 598.015 241.761 597.731C241.969 597.546 242.225 597.42 242.512 597.376C243.209 597.271 244.1 597.63 245.02 598.386C246.231 599.381 248.019 601.494 249.656 605.912Z" fill="#B4CC04"/>
<path d="M244.043 605.274C243.846 606.109 244.224 607.045 244.949 607.518C245.674 607.992 246.698 607.97 247.403 607.467C248.107 606.963 248.444 606.012 248.21 605.187" stroke="#1A1A1A" stroke-width="0.5" stroke-miterlimit="10"/>
<path d="M256.676 605.984C258.139 605.984 259.325 605.182 259.325 604.193C259.325 603.203 258.139 602.401 256.676 602.401C255.213 602.401 254.027 603.203 254.027 604.193C254.027 605.182 255.213 605.984 256.676 605.984Z" fill="#F39655"/>
<path d="M234.46 605.984C235.923 605.984 237.109 605.182 237.109 604.193C237.109 603.203 235.923 602.401 234.46 602.401C232.997 602.401 231.811 603.203 231.811 604.193C231.811 605.182 232.997 605.984 234.46 605.984Z" fill="#F39655"/>
<path d="M233.087 598.935C233.871 600.215 235.592 601.106 237.396 601.164C239.201 601.222 241.009 600.444 241.922 599.217" stroke="#1A1A1A" stroke-width="0.5" stroke-miterlimit="10"/>
<path d="M249.067 598.935C249.85 600.215 251.572 601.106 253.376 601.164C255.18 601.222 256.989 600.444 257.902 599.217" stroke="#1A1A1A" stroke-width="0.5" stroke-miterlimit="10"/>
<path d="M261.83 617.698C266.233 618.191 270.819 616.856 274.24 614.084C276.618 612.158 278.413 609.557 279.403 606.691C280.335 603.996 279.775 600.689 281.896 598.499" stroke="#1A1A1A" stroke-width="0.5" stroke-miterlimit="10"/>
<path d="M239.888 620.803C235.485 621.296 230.9 619.961 227.478 617.189C225.101 615.263 223.306 612.661 222.315 609.796C221.384 607.101 221.943 603.794 219.823 601.604" stroke="#1A1A1A" stroke-width="0.5" stroke-miterlimit="10"/>
<path d="M275.829 662.602C275.611 662.285 275.256 662.076 274.901 661.926C274.352 661.694 273.747 661.63 273.151 661.601C272.555 661.572 271.954 661.575 271.366 661.466C271.103 661.418 270.837 661.345 270.621 661.19C270.47 661.082 270.347 660.931 270.287 660.756C270.281 660.74 270.276 660.726 270.272 660.713C270.229 660.582 270.104 660.493 269.963 660.493H269.057C269.467 660.493 269.799 660.166 269.799 659.763V658.919C269.799 658.516 269.467 658.188 269.057 658.188H259.071C258.661 658.188 258.329 658.516 258.329 658.919V659.763C258.329 660.166 258.661 660.493 259.071 660.493C258.661 660.493 258.329 660.82 258.329 661.224V665.015C258.329 665.418 258.661 665.745 259.071 665.745H275.293C275.703 665.745 276.035 665.418 276.035 665.014C276.035 664.513 276.027 664.012 276.035 663.511C276.041 663.122 276.04 662.91 275.829 662.602Z" stroke="#1A1A1A" stroke-width="0.5" stroke-miterlimit="10"/>
<path d="M200.001 627.737C200.385 627.794 200.782 627.68 201.135 627.525C201.681 627.286 202.14 626.891 202.566 626.48C202.993 626.069 203.399 625.634 203.877 625.283C204.093 625.126 204.327 624.983 204.59 624.932C204.773 624.895 204.97 624.909 205.14 624.985C205.156 624.992 205.17 624.998 205.182 625.004C205.31 625.062 205.461 625.032 205.556 624.931L206.172 624.276C205.894 624.572 205.912 625.034 206.214 625.308L206.843 625.881C207.145 626.155 207.614 626.136 207.892 625.84L214.671 618.625C214.95 618.328 214.931 617.866 214.63 617.592L214 617.02C213.699 616.746 213.229 616.764 212.951 617.061C213.229 616.764 213.211 616.302 212.91 616.028L210.08 613.455C209.779 613.181 209.309 613.199 209.031 613.496L198.019 625.215C197.74 625.511 197.759 625.974 198.06 626.248C198.434 626.588 198.813 626.922 199.182 627.268C199.468 627.537 199.627 627.68 200.001 627.736V627.737Z" stroke="#1A1A1A" stroke-width="0.5" stroke-miterlimit="10"/>
</g>
<path d="M282.684 569V567.104H276.216V565.784L282.288 560H284.436V565.604H286.176V567.104H284.436V569H282.684ZM278.532 565.604H282.684V561.704L278.532 565.604Z" fill="#B4CC04"/>
<path fill-rule="evenodd" clip-rule="evenodd" d="M267 558.099H297V572.043H267V558.099ZM266 557.099H267H297H298V558.099V572.043V573.043H297L282 573.043L282 599.949H281L281 573.043L267 573.043H266V572.043V558.099V557.099Z" fill="black"/>
<g clip-path="url(#clip3_18_2695)">
<path d="M1049.76 587.85C1044.45 588.655 1040.41 593.132 1040.17 598.497C1039.93 603.883 1041.99 608.766 1043.81 612.419C1046.18 617.178 1049.34 622.309 1052.68 627.741C1053.44 628.982 1054.21 630.232 1054.97 631.486C1053.2 632.399 1051.36 632.853 1049.35 632.886C1044.26 632.969 1038.2 630.305 1031.33 624.967C1024.01 619.288 1023.14 618.514 1021.95 617.444C1021.51 617.059 1021.03 616.623 1020.24 615.954L1013.83 623.244C1014.53 623.838 1014.95 624.217 1015.36 624.583C1016.71 625.782 1017.68 626.649 1025.26 632.534C1033.95 639.284 1042.11 642.645 1049.51 642.524C1053.19 642.464 1056.66 641.558 1059.88 639.825C1060.81 641.492 1061.7 643.148 1062.51 644.781C1068.13 656.056 1068 661.644 1067.99 661.7C1068 661.631 1068 661.596 1068 661.596L1077.77 662.359C1077.83 661.578 1078.18 654.334 1071.3 640.536C1070.1 638.117 1068.77 635.687 1067.38 633.264C1068.96 630.717 1070.31 626.945 1070.61 621.4C1070.92 615.379 1069.86 608.707 1067.6 602.611C1061.91 587.269 1052.51 587.434 1049.76 587.85ZM1058.4 605.912C1060.61 611.899 1061.14 617.759 1060.7 622.169C1057.61 617.14 1054.7 612.39 1052.6 608.174C1051.21 605.388 1049.81 602.111 1049.96 598.924C1049.98 598.439 1050.18 598.015 1050.5 597.731C1050.71 597.546 1050.96 597.42 1051.25 597.376C1051.95 597.271 1052.84 597.63 1053.76 598.386C1054.97 599.381 1056.76 601.494 1058.4 605.912Z" fill="#B4CC04"/>
<path d="M1052.78 605.274C1052.59 606.109 1052.96 607.045 1053.69 607.518C1054.41 607.992 1055.44 607.97 1056.14 607.467C1056.85 606.963 1057.18 606.012 1056.95 605.187" stroke="#1A1A1A" stroke-width="0.5" stroke-miterlimit="10"/>
<path d="M1065.42 605.984C1066.88 605.984 1068.06 605.182 1068.06 604.193C1068.06 603.203 1066.88 602.401 1065.42 602.401C1063.95 602.401 1062.77 603.203 1062.77 604.193C1062.77 605.182 1063.95 605.984 1065.42 605.984Z" fill="#F39655"/>
<path d="M1043.2 605.984C1044.66 605.984 1045.85 605.182 1045.85 604.193C1045.85 603.203 1044.66 602.401 1043.2 602.401C1041.74 602.401 1040.55 603.203 1040.55 604.193C1040.55 605.182 1041.74 605.984 1043.2 605.984Z" fill="#F39655"/>
<path d="M1041.83 598.935C1042.61 600.215 1044.33 601.106 1046.14 601.164C1047.94 601.222 1049.75 600.444 1050.66 599.217" stroke="#1A1A1A" stroke-width="0.5" stroke-miterlimit="10"/>
<path d="M1057.81 598.935C1058.59 600.215 1060.31 601.106 1062.12 601.164C1063.92 601.222 1065.73 600.444 1066.64 599.217" stroke="#1A1A1A" stroke-width="0.5" stroke-miterlimit="10"/>
<path d="M1070.57 617.698C1074.97 618.191 1079.56 616.856 1082.98 614.084C1085.36 612.158 1087.15 609.557 1088.14 606.691C1089.07 603.996 1088.51 600.689 1090.64 598.499" stroke="#1A1A1A" stroke-width="0.5" stroke-miterlimit="10"/>
<path d="M1048.63 620.803C1044.22 621.296 1039.64 619.961 1036.22 617.189C1033.84 615.263 1032.05 612.661 1031.05 609.796C1030.12 607.101 1030.68 603.794 1028.56 601.604" stroke="#1A1A1A" stroke-width="0.5" stroke-miterlimit="10"/>
<path d="M1084.57 662.602C1084.35 662.285 1084 662.076 1083.64 661.926C1083.09 661.694 1082.49 661.63 1081.89 661.601C1081.29 661.572 1080.69 661.575 1080.11 661.466C1079.84 661.418 1079.58 661.345 1079.36 661.19C1079.21 661.082 1079.09 660.931 1079.03 660.756C1079.02 660.74 1079.02 660.726 1079.01 660.713C1078.97 660.582 1078.84 660.493 1078.7 660.493H1077.8C1078.21 660.493 1078.54 660.166 1078.54 659.763V658.919C1078.54 658.516 1078.21 658.188 1077.8 658.188H1067.81C1067.4 658.188 1067.07 658.516 1067.07 658.919V659.763C1067.07 660.166 1067.4 660.493 1067.81 660.493C1067.4 660.493 1067.07 660.82 1067.07 661.224V665.015C1067.07 665.418 1067.4 665.745 1067.81 665.745H1084.03C1084.44 665.745 1084.77 665.418 1084.77 665.014C1084.77 664.513 1084.77 664.012 1084.77 663.511C1084.78 663.122 1084.78 662.91 1084.57 662.602Z" stroke="#1A1A1A" stroke-width="0.5" stroke-miterlimit="10"/>
<path d="M1008.74 627.737C1009.12 627.794 1009.52 627.68 1009.87 627.525C1010.42 627.286 1010.88 626.891 1011.31 626.48C1011.73 626.069 1012.14 625.634 1012.62 625.283C1012.83 625.126 1013.07 624.983 1013.33 624.932C1013.51 624.895 1013.71 624.909 1013.88 624.985C1013.9 624.992 1013.91 624.998 1013.92 625.004C1014.05 625.062 1014.2 625.032 1014.3 624.931L1014.91 624.276C1014.63 624.572 1014.65 625.034 1014.95 625.308L1015.58 625.881C1015.88 626.155 1016.35 626.136 1016.63 625.84L1023.41 618.625C1023.69 618.328 1023.67 617.866 1023.37 617.592L1022.74 617.02C1022.44 616.746 1021.97 616.764 1021.69 617.061C1021.97 616.764 1021.95 616.302 1021.65 616.028L1018.82 613.455C1018.52 613.181 1018.05 613.199 1017.77 613.496L1006.76 625.215C1006.48 625.511 1006.5 625.974 1006.8 626.248C1007.17 626.588 1007.55 626.922 1007.92 627.268C1008.21 627.537 1008.37 627.68 1008.74 627.736V627.737Z" stroke="#1A1A1A" stroke-width="0.5" stroke-miterlimit="10"/>
</g>
<path d="M1091.03 571.132C1088.74 571.132 1087.06 570.448 1086.34 568.78L1088.16 568.228C1088.62 569.32 1089.68 569.656 1091.03 569.656C1092.7 569.656 1093.68 568.996 1093.68 568.012C1093.68 566.98 1092.72 566.368 1091.04 566.368C1089.7 566.368 1088.86 566.668 1088.27 567.22L1086.72 566.788L1087.85 562H1095.04V563.5H1089.16L1088.64 565.54C1089.4 565.108 1090.36 564.928 1091.39 564.928C1093.99 564.928 1095.53 566.188 1095.53 568C1095.53 569.776 1093.93 571.132 1091.03 571.132Z" fill="#B4CC04"/>
<path fill-rule="evenodd" clip-rule="evenodd" d="M1076 559.092H1106V573.036H1076V559.092ZM1075 558.092H1076H1106H1107V559.092V573.036V574.036H1106L1091 574.036L1091 600.942H1090L1090 574.036L1076 574.036H1075V573.036V559.092V558.092Z" fill="black"/>
<g clip-path="url(#clip4_18_2695)">
<path d="M163.376 88.6899C158.059 89.4951 154.024 93.9722 153.783 99.3368C153.541 104.724 155.6 109.607 157.421 113.259C159.794 118.019 162.95 123.149 166.291 128.581C167.053 129.822 167.822 131.072 168.587 132.326C166.818 133.24 164.976 133.693 162.963 133.726C157.878 133.809 151.814 131.145 144.939 125.807C137.624 120.128 136.758 119.354 135.559 118.284C135.128 117.899 134.639 117.463 133.853 116.794L127.445 124.084C128.143 124.678 128.567 125.057 128.977 125.423C130.321 126.623 131.291 127.489 138.871 133.374C147.565 140.125 155.726 143.486 163.128 143.364C166.799 143.304 170.269 142.399 173.494 140.665C174.425 142.332 175.309 143.988 176.123 145.621C181.744 156.896 181.61 162.485 181.608 162.54C181.61 162.471 181.615 162.436 181.615 162.436L191.38 163.199C191.443 162.419 191.796 155.174 184.917 141.376C183.711 138.958 182.384 136.528 180.992 134.104C182.569 131.557 183.924 127.786 184.219 122.24C184.539 116.22 183.471 109.547 181.213 103.451C175.528 88.1095 166.123 88.2742 163.376 88.6899ZM172.009 106.752C174.227 112.74 174.755 118.599 174.313 123.009C171.22 117.98 168.318 113.231 166.216 109.015C164.827 106.229 163.426 102.951 163.57 99.7641C163.592 99.2791 163.796 98.8549 164.114 98.5709C164.322 98.3861 164.578 98.2607 164.865 98.2168C165.562 98.1113 166.453 98.4701 167.373 99.226C168.584 100.221 170.372 102.334 172.009 106.752Z" fill="#B4CC04"/>
<path d="M166.396 106.115C166.199 106.949 166.577 107.885 167.302 108.359C168.027 108.832 169.051 108.81 169.756 108.307C170.46 107.804 170.797 106.852 170.563 106.027" stroke="#1A1A1A" stroke-width="0.5" stroke-miterlimit="10"/>
<path d="M179.029 106.824C180.492 106.824 181.678 106.022 181.678 105.033C181.678 104.044 180.492 103.242 179.029 103.242C177.566 103.242 176.38 104.044 176.38 105.033C176.38 106.022 177.566 106.824 179.029 106.824Z" fill="#F39655"/>
<path d="M156.813 106.824C158.276 106.824 159.462 106.022 159.462 105.033C159.462 104.044 158.276 103.242 156.813 103.242C155.35 103.242 154.164 104.044 154.164 105.033C154.164 106.022 155.35 106.824 156.813 106.824Z" fill="#F39655"/>
<path d="M155.44 99.7749C156.224 101.056 157.945 101.946 159.75 102.004C161.554 102.062 163.362 101.284 164.275 100.057" stroke="#1A1A1A" stroke-width="0.5" stroke-miterlimit="10"/>
<path d="M171.42 99.7749C172.203 101.056 173.925 101.946 175.729 102.004C177.533 102.062 179.342 101.284 180.255 100.057" stroke="#1A1A1A" stroke-width="0.5" stroke-miterlimit="10"/>
<path d="M184.183 118.538C188.586 119.032 193.172 117.697 196.593 114.925C198.971 112.999 200.766 110.397 201.756 107.531C202.688 104.836 202.128 101.53 204.249 99.3389" stroke="#1A1A1A" stroke-width="0.5" stroke-miterlimit="10"/>
<path d="M162.241 121.643C157.838 122.137 153.253 120.802 149.831 118.03C147.454 116.104 145.659 113.502 144.668 110.636C143.737 107.941 144.296 104.635 142.176 102.444" stroke="#1A1A1A" stroke-width="0.5" stroke-miterlimit="10"/>
<path d="M198.182 163.442C197.964 163.125 197.609 162.916 197.254 162.766C196.705 162.534 196.1 162.471 195.504 162.441C194.908 162.412 194.307 162.415 193.719 162.307C193.456 162.258 193.19 162.185 192.974 162.03C192.823 161.922 192.7 161.772 192.64 161.597C192.634 161.581 192.629 161.566 192.625 161.554C192.582 161.422 192.457 161.334 192.316 161.334H191.41C191.82 161.334 192.152 161.006 192.152 160.603V159.759C192.152 159.356 191.82 159.029 191.41 159.029H181.424C181.014 159.029 180.682 159.356 180.682 159.759V160.603C180.682 161.006 181.014 161.334 181.424 161.334C181.014 161.334 180.682 161.661 180.682 162.064V165.855C180.682 166.259 181.014 166.586 181.424 166.586H197.646C198.056 166.586 198.388 166.259 198.388 165.855C198.388 165.353 198.38 164.852 198.388 164.351C198.394 163.962 198.393 163.751 198.182 163.442Z" stroke="#1A1A1A" stroke-width="0.5" stroke-miterlimit="10"/>
<path d="M122.354 128.577C122.738 128.635 123.135 128.52 123.488 128.365C124.034 128.126 124.493 127.732 124.919 127.321C125.346 126.91 125.752 126.474 126.231 126.123C126.446 125.966 126.68 125.823 126.943 125.772C127.126 125.736 127.323 125.75 127.493 125.825C127.509 125.832 127.523 125.838 127.535 125.844C127.663 125.902 127.814 125.873 127.909 125.771L128.525 125.116C128.247 125.412 128.265 125.874 128.567 126.148L129.196 126.721C129.498 126.995 129.967 126.977 130.245 126.68L137.024 119.465C137.303 119.169 137.284 118.707 136.983 118.433L136.353 117.86C136.052 117.586 135.583 117.604 135.304 117.901C135.583 117.604 135.564 117.143 135.263 116.869L132.433 114.295C132.132 114.021 131.662 114.04 131.384 114.336L120.372 126.055C120.093 126.352 120.112 126.814 120.413 127.088C120.787 127.428 121.166 127.763 121.535 128.108C121.821 128.377 121.98 128.52 122.354 128.576V128.577Z" stroke="#1A1A1A" stroke-width="0.5" stroke-miterlimit="10"/>
</g>
<path d="M203.952 69V62.976H201.276V61.716C203.04 61.68 203.904 61.212 204.276 60H205.74V69H203.952Z" fill="#B4CC04"/>
<path fill-rule="evenodd" clip-rule="evenodd" d="M189 57.8428H219V71.7867H189V57.8428ZM188 56.8428H189H219H220V57.8428V71.7867V72.7867H219H189H188V71.7867V57.8428V56.8428ZM204 99.6922L204 72.7868H203L203 99.6922H204Z" fill="black"/>
<defs>
<clipPath id="clip0_18_2695">
<rect width="84.4066" height="78.1872" fill="white" transform="translate(921.681 88.5713)"/>
</clipPath>
<clipPath id="clip1_18_2695">
<rect width="84.4066" height="78.1872" fill="white" transform="matrix(-1 0 0 1 633.986 337.639)"/>
</clipPath>
<clipPath id="clip2_18_2695">
<rect width="84.4066" height="78.1872" fill="white" transform="translate(197.647 587.731)"/>
</clipPath>
<clipPath id="clip3_18_2695">
<rect width="84.4066" height="78.1872" fill="white" transform="translate(1006.39 587.731)"/>
</clipPath>
<clipPath id="clip4_18_2695">
<rect width="84.4066" height="78.1872" fill="white" transform="translate(120 88.5713)"/>
</clipPath>
</defs>
</svg>
