<svg width="30" height="30" viewBox="0 0 30 30" fill="none" xmlns="http://www.w3.org/2000/svg">
<g clip-path="url(#clip0_18_4368)">
<path d="M19.2026 17.6198C18.6919 17.1304 17.8832 17.1304 17.3938 17.6411C16.9043 18.1518 16.9043 18.9605 17.415 19.4499L27.4593 29.2814C27.7147 29.5155 28.0339 29.6432 28.3531 29.6432C28.6936 29.6432 29.0128 29.5155 29.2681 29.2601C29.7576 28.7494 29.7576 27.9407 29.2468 27.4513L19.2026 17.6198Z" fill="#FBBC33"/>
<path d="M10.1586 11.9806C10.414 12.236 10.7332 12.3636 11.0524 12.3636C11.3716 12.3636 11.7121 12.236 11.9461 11.9806C12.4356 11.4912 12.4356 10.6825 11.9461 10.1718L2.34876 0.553119C1.85931 0.0636738 1.05066 0.0636738 0.539935 0.553119C0.0504902 1.04256 0.0504902 1.85121 0.539935 2.36194L10.1586 11.9806Z" fill="#FBBC33"/>
<path d="M29.2682 0.553119C28.7788 0.0636738 27.9701 0.0636738 27.4594 0.553119L0.539935 27.4726C0.0504902 27.9621 0.0504902 28.7707 0.539935 29.2814C0.795298 29.5368 1.1145 29.6645 1.4337 29.6645C1.75291 29.6645 2.09339 29.5368 2.32747 29.2814L29.2682 2.36194C29.7577 1.85121 29.7577 1.04256 29.2682 0.553119Z" fill="#FBBC33"/>
</g>
<defs>
<clipPath id="clip0_18_4368">
<rect width="29.9838" height="29.92" fill="white" transform="translate(0.0078125)"/>
</clipPath>
</defs>
</svg>
