<svg width="379" height="210" viewBox="0 0 379 210" fill="none" xmlns="http://www.w3.org/2000/svg">
<g filter="url(#filter0_d_18_2304)">
<rect y="13" width="376" height="194" rx="20" fill="#F9F8F8"/>
</g>
<rect x="186" y="43" width="3" height="138" rx="1.5" fill="#F39655"/>
<g filter="url(#filter1_d_18_2304)">
<rect x="173" width="177" height="28" rx="5" fill="#B4CC04"/>
</g>
<path d="M186.386 15.832H184.738V19H182.434V10.968H184.738V13.848H186.402L190.018 10.968H193.218L188.306 14.776L193.362 19H190.13L186.386 15.832ZM194.497 10.968H196.689L196.769 12.024C197.217 11.6293 197.782 11.3253 198.465 11.112C199.148 10.8987 199.916 10.792 200.769 10.792C201.868 10.792 202.838 10.968 203.681 11.32C204.524 11.6613 205.18 12.152 205.649 12.792C206.118 13.4213 206.353 14.152 206.353 14.984C206.353 15.8053 206.118 16.536 205.649 17.176C205.18 17.8053 204.524 18.296 203.681 18.648C202.838 19 201.868 19.176 200.769 19.176C199.937 19.176 199.185 19.0693 198.513 18.856C197.841 18.6427 197.27 18.344 196.801 17.96V22.52H194.497V10.968ZM196.801 14.984C196.801 15.6773 197.126 16.2267 197.777 16.632C198.428 17.0373 199.297 17.24 200.385 17.24C201.494 17.24 202.369 17.0373 203.009 16.632C203.649 16.2267 203.969 15.6773 203.969 14.984C203.969 14.2907 203.649 13.7413 203.009 13.336C202.369 12.9307 201.494 12.728 200.385 12.728C199.297 12.728 198.428 12.9307 197.777 13.336C197.126 13.7413 196.801 14.2907 196.801 14.984ZM209.001 10.968L212.601 16.68L215.785 10.968H218.361L211.657 22.52H209.049L211.273 18.808L206.281 10.968H209.001ZM219.419 10.968H229.675V19H227.371V12.92H221.723V19H219.419V10.968ZM232.075 10.968H234.379V13.816H240.187V10.968H242.491V19H240.187V15.784H234.379V19H232.075V10.968ZM255.816 10.968H258.12V19H255.816V10.968ZM244.888 10.968H247.192V13.144H251.112C251.869 13.144 252.53 13.2667 253.095 13.512C253.661 13.7573 254.093 14.104 254.392 14.552C254.69 14.9893 254.84 15.496 254.84 16.072C254.84 16.648 254.69 17.16 254.392 17.608C254.093 18.0453 253.661 18.3867 253.095 18.632C252.53 18.8773 251.869 19 251.112 19H244.888V10.968ZM250.936 17.192C251.405 17.192 251.773 17.096 252.04 16.904C252.317 16.7013 252.456 16.424 252.456 16.072C252.456 15.72 252.317 15.448 252.04 15.256C251.773 15.0533 251.405 14.952 250.936 14.952H247.192V17.192H250.936ZM260.513 10.968H262.817V16.472L268.833 10.968H271.041V19H268.737V13.48L262.705 19H260.513V10.968ZM265.841 9.912C264.859 9.912 264.049 9.69333 263.409 9.256C262.769 8.808 262.374 8.216 262.225 7.48H264.337C264.39 7.78933 264.55 8.02933 264.817 8.2C265.094 8.37067 265.435 8.456 265.841 8.456C266.235 8.456 266.566 8.376 266.833 8.216C267.099 8.04533 267.27 7.8 267.345 7.48H269.457C269.307 8.216 268.913 8.808 268.273 9.256C267.633 9.69333 266.822 9.912 265.841 9.912ZM277.684 10.968H279.876L279.956 12.024C280.404 11.6293 280.97 11.3253 281.652 11.112C282.335 10.8987 283.103 10.792 283.956 10.792C285.055 10.792 286.026 10.968 286.868 11.32C287.711 11.6613 288.367 12.152 288.836 12.792C289.306 13.4213 289.54 14.152 289.54 14.984C289.54 15.8053 289.306 16.536 288.836 17.176C288.367 17.8053 287.711 18.296 286.868 18.648C286.026 19 285.055 19.176 283.956 19.176C283.124 19.176 282.372 19.0693 281.7 18.856C281.028 18.6427 280.458 18.344 279.988 17.96V22.52H277.684V10.968ZM279.988 14.984C279.988 15.6773 280.314 16.2267 280.964 16.632C281.615 17.0373 282.484 17.24 283.572 17.24C284.682 17.24 285.556 17.0373 286.196 16.632C286.836 16.2267 287.156 15.6773 287.156 14.984C287.156 14.2907 286.836 13.7413 286.196 13.336C285.556 12.9307 284.682 12.728 283.572 12.728C282.484 12.728 281.615 12.9307 280.964 13.336C280.314 13.7413 279.988 14.2907 279.988 14.984ZM294.528 19.176C293.323 19.176 292.374 18.9627 291.68 18.536C290.998 18.0987 290.656 17.4853 290.656 16.696C290.656 16.024 290.955 15.4853 291.552 15.08C292.16 14.664 293.158 14.36 294.544 14.168L298.848 13.592C298.72 13.24 298.443 12.9733 298.016 12.792C297.6 12.6107 296.982 12.52 296.16 12.52C295.264 12.52 294.555 12.6213 294.032 12.824C293.51 13.016 293.152 13.3093 292.96 13.704L290.576 13.496C290.843 12.664 291.462 12.008 292.432 11.528C293.403 11.0373 294.646 10.792 296.16 10.792C297.739 10.792 298.982 11.0907 299.888 11.688C300.795 12.2853 301.248 13.1227 301.248 14.2V19H299.104L299.008 17.624C298.528 18.136 297.894 18.5253 297.104 18.792C296.315 19.048 295.456 19.176 294.528 19.176ZM293.024 16.648C293.024 17.224 293.6 17.512 294.752 17.512C295.467 17.512 296.144 17.416 296.784 17.224C297.435 17.032 297.958 16.7547 298.352 16.392C298.758 16.0293 298.96 15.6133 298.96 15.144V15.08L294.688 15.672C294.08 15.768 293.648 15.8907 293.392 16.04C293.147 16.1893 293.024 16.392 293.024 16.648ZM303.45 10.968H305.754V16.472L311.77 10.968H313.978V19H311.674V13.48L305.642 19H303.45V10.968ZM308.778 9.912C307.797 9.912 306.986 9.69333 306.346 9.256C305.706 8.808 305.311 8.216 305.162 7.48H307.274C307.327 7.78933 307.487 8.02933 307.754 8.2C308.031 8.37067 308.373 8.456 308.778 8.456C309.173 8.456 309.503 8.376 309.77 8.216C310.037 8.04533 310.207 7.8 310.282 7.48H312.394C312.245 8.216 311.85 8.808 311.21 9.256C310.57 9.69333 309.759 9.912 308.778 9.912ZM321.557 19.176C320.373 19.176 319.328 19 318.421 18.648C317.525 18.296 316.827 17.8053 316.325 17.176C315.835 16.536 315.589 15.8053 315.589 14.984C315.589 14.1627 315.835 13.4373 316.325 12.808C316.827 12.168 317.525 11.672 318.421 11.32C319.328 10.968 320.373 10.792 321.557 10.792C322.741 10.792 323.787 10.968 324.693 11.32C325.6 11.672 326.299 12.168 326.789 12.808C327.291 13.4373 327.541 14.1627 327.541 14.984C327.541 15.8053 327.291 16.536 326.789 17.176C326.299 17.8053 325.6 18.296 324.693 18.648C323.787 19 322.741 19.176 321.557 19.176ZM317.973 14.984C317.973 15.6773 318.293 16.2267 318.933 16.632C319.584 17.0373 320.459 17.24 321.557 17.24C322.667 17.24 323.541 17.0373 324.181 16.632C324.832 16.2267 325.157 15.6773 325.157 14.984C325.157 14.2907 324.832 13.7413 324.181 13.336C323.541 12.9307 322.667 12.728 321.557 12.728C320.459 12.728 319.584 12.9307 318.933 13.336C318.293 13.7413 317.973 14.2907 317.973 14.984ZM329.153 10.968H331.457V13.816H337.265V10.968H339.569V19H337.265V15.784H331.457V19H329.153V10.968Z" fill="#1A1A1A"/>
<path d="M41.1168 101.43H24.9168V97.5H46.2768V101.04L33.4968 120H28.3968L41.1168 101.43ZM57.5432 120.33C55.0832 120.33 52.9732 120.01 51.2132 119.37C49.4732 118.73 48.1432 117.83 47.2232 116.67C46.3032 115.51 45.8432 114.14 45.8432 112.56C45.8432 111.36 46.1432 110.25 46.7432 109.23C47.3432 108.19 48.3732 106.98 49.8332 105.6L58.3532 97.5H64.1132L55.5032 105.36C56.5032 105.14 57.4932 105.03 58.4732 105.03C60.7532 105.03 62.7032 105.34 64.3232 105.96C65.9632 106.56 67.2032 107.43 68.0432 108.57C68.9032 109.69 69.3332 111.01 69.3332 112.53C69.3332 114.09 68.8532 115.46 67.8932 116.64C66.9532 117.82 65.5932 118.73 63.8132 119.37C62.0332 120.01 59.9432 120.33 57.5432 120.33ZM50.4032 112.56C50.4032 113.84 51.0432 114.85 52.3232 115.59C53.6032 116.33 55.3432 116.7 57.5432 116.7C59.7832 116.7 61.5432 116.33 62.8232 115.59C64.1032 114.83 64.7432 113.81 64.7432 112.53C64.7432 111.25 64.1132 110.25 62.8532 109.53C61.5932 108.81 59.8632 108.45 57.6632 108.45C55.5632 108.45 53.9132 108.75 52.7132 109.35C51.9732 109.69 51.4032 110.14 51.0032 110.7C50.6032 111.24 50.4032 111.86 50.4032 112.56ZM92.2045 120.33C89.7645 120.33 87.5945 119.84 85.6945 118.86C83.8145 117.88 82.3445 116.51 81.2845 114.75C80.2245 112.99 79.6945 110.97 79.6945 108.69C79.6945 106.45 80.2245 104.46 81.2845 102.72C82.3445 100.96 83.8145 99.6 85.6945 98.64C87.5945 97.66 89.7645 97.17 92.2045 97.17C94.6445 97.17 96.8145 97.66 98.7145 98.64C100.614 99.6 102.084 100.96 103.124 102.72C104.184 104.46 104.714 106.45 104.714 108.69C104.714 110.97 104.184 112.99 103.124 114.75C102.084 116.51 100.614 117.88 98.7145 118.86C96.8145 119.84 94.6445 120.33 92.2045 120.33ZM84.2845 108.69C84.2845 110.23 84.6145 111.6 85.2745 112.8C85.9545 113.98 86.8945 114.9 88.0945 115.56C89.2945 116.22 90.6645 116.55 92.2045 116.55C93.7445 116.55 95.1145 116.22 96.3145 115.56C97.5145 114.9 98.4445 113.98 99.1045 112.8C99.7845 111.6 100.124 110.23 100.124 108.69C100.124 107.17 99.7845 105.83 99.1045 104.67C98.4445 103.49 97.5145 102.58 96.3145 101.94C95.1145 101.28 93.7445 100.95 92.2045 100.95C90.6645 100.95 89.2945 101.28 88.0945 101.94C86.8945 102.58 85.9545 103.49 85.2745 104.67C84.6145 105.83 84.2845 107.17 84.2845 108.69ZM120.417 120.33C117.977 120.33 115.807 119.84 113.907 118.86C112.027 117.88 110.557 116.51 109.497 114.75C108.437 112.99 107.907 110.97 107.907 108.69C107.907 106.45 108.437 104.46 109.497 102.72C110.557 100.96 112.027 99.6 113.907 98.64C115.807 97.66 117.977 97.17 120.417 97.17C122.857 97.17 125.027 97.66 126.927 98.64C128.827 99.6 130.297 100.96 131.337 102.72C132.397 104.46 132.927 106.45 132.927 108.69C132.927 110.97 132.397 112.99 131.337 114.75C130.297 116.51 128.827 117.88 126.927 118.86C125.027 119.84 122.857 120.33 120.417 120.33ZM112.497 108.69C112.497 110.23 112.827 111.6 113.487 112.8C114.167 113.98 115.107 114.9 116.307 115.56C117.507 116.22 118.877 116.55 120.417 116.55C121.957 116.55 123.327 116.22 124.527 115.56C125.727 114.9 126.657 113.98 127.317 112.8C127.997 111.6 128.337 110.23 128.337 108.69C128.337 107.17 127.997 105.83 127.317 104.67C126.657 103.49 125.727 102.58 124.527 101.94C123.327 101.28 121.957 100.95 120.417 100.95C118.877 100.95 117.507 101.28 116.307 101.94C115.107 102.58 114.167 103.49 113.487 104.67C112.827 105.83 112.497 107.17 112.497 108.69ZM148.63 120.33C146.19 120.33 144.02 119.84 142.12 118.86C140.24 117.88 138.77 116.51 137.71 114.75C136.65 112.99 136.12 110.97 136.12 108.69C136.12 106.45 136.65 104.46 137.71 102.72C138.77 100.96 140.24 99.6 142.12 98.64C144.02 97.66 146.19 97.17 148.63 97.17C151.07 97.17 153.24 97.66 155.14 98.64C157.04 99.6 158.51 100.96 159.55 102.72C160.61 104.46 161.14 106.45 161.14 108.69C161.14 110.97 160.61 112.99 159.55 114.75C158.51 116.51 157.04 117.88 155.14 118.86C153.24 119.84 151.07 120.33 148.63 120.33ZM140.71 108.69C140.71 110.23 141.04 111.6 141.7 112.8C142.38 113.98 143.32 114.9 144.52 115.56C145.72 116.22 147.09 116.55 148.63 116.55C150.17 116.55 151.54 116.22 152.74 115.56C153.94 114.9 154.87 113.98 155.53 112.8C156.21 111.6 156.55 110.23 156.55 108.69C156.55 107.17 156.21 105.83 155.53 104.67C154.87 103.49 153.94 102.58 152.74 101.94C151.54 101.28 150.17 100.95 148.63 100.95C147.09 100.95 145.72 101.28 144.52 101.94C143.32 102.58 142.38 103.49 141.7 104.67C141.04 105.83 140.71 107.17 140.71 108.69Z" fill="#1A1A1A"/>
<path d="M23.8821 65V55.69H34.6741V65H33.4581V56.792H25.0981V65H23.8821ZM38.2806 69.18V55.69H39.4586L39.4776 57.837C40.4466 56.45 42.3466 55.576 44.8166 55.576C48.5216 55.576 51.0296 57.495 51.0296 60.345C51.0296 63.176 48.5216 65.133 44.8166 65.133C42.3466 65.133 40.4656 64.24 39.4966 62.872V69.18H38.2806ZM39.4966 60.345C39.4966 62.568 41.5296 64.031 44.6646 64.031C47.7616 64.031 49.7566 62.568 49.7566 60.345C49.7566 58.103 47.7616 56.678 44.6646 56.678C41.5296 56.678 39.4966 58.103 39.4966 60.345ZM59.3969 65.133C55.4829 65.133 52.9559 63.119 52.9559 60.345C52.9559 57.59 55.4829 55.576 59.3969 55.576C63.2729 55.576 65.8379 57.59 65.8379 60.345C65.8379 63.119 63.2729 65.133 59.3969 65.133ZM54.2289 60.345C54.2289 62.549 56.2239 64.031 59.3969 64.031C62.5889 64.031 64.5649 62.549 64.5649 60.345C64.5649 58.16 62.5889 56.678 59.3969 56.678C56.2239 56.678 54.2289 58.16 54.2289 60.345ZM66.521 65L71.86 60.098L66.806 55.69H68.421L72.848 59.547H74.634V55.69H75.85V59.547H77.636L82.101 55.69H83.716L78.662 60.079L83.963 65H82.329L77.617 60.611H75.85V65H74.634V60.611H72.886L68.136 65H66.521ZM85.9847 65V55.69H87.2007V63.575L95.6557 55.69H96.8527V65H95.6367V57.115L87.1627 65H85.9847ZM100.457 65V55.69H107.677C109.501 55.69 110.736 56.602 110.736 58.046C110.736 59.072 110.147 59.813 109.14 60.155C110.489 60.421 111.211 61.276 111.211 62.454C111.211 63.974 109.919 65 107.715 65H100.457ZM101.654 63.993H107.81C109.14 63.993 109.938 63.366 109.938 62.34C109.938 61.333 109.14 60.725 107.81 60.725H101.654V63.993ZM101.654 59.718H107.563C108.779 59.718 109.482 59.148 109.482 58.198C109.482 57.229 108.779 56.697 107.563 56.697H101.654V59.718ZM117.421 65.133C114.761 65.133 113.26 64.107 113.26 62.473C113.26 60.953 114.514 60.117 117.022 59.756L123.235 58.863C122.836 57.419 121.544 56.621 119.169 56.621C116.642 56.621 115.008 57.305 114.495 58.673L113.26 58.502C113.811 56.754 115.92 55.576 119.169 55.576C122.627 55.576 124.489 57.21 124.489 59.414V65H123.33L123.292 62.492C122.114 64.259 119.853 65.133 117.421 65.133ZM114.533 62.454C114.533 63.48 115.54 64.088 117.554 64.088C120.651 64.088 123.311 62.454 123.311 59.927V59.832L117.155 60.706C115.198 60.991 114.533 61.561 114.533 62.454ZM133.394 65.133C129.404 65.133 126.915 63.119 126.915 60.345C126.915 57.609 129.537 55.576 133.394 55.576C136.814 55.576 139.455 57.343 139.455 59.908C139.455 60.117 139.436 60.421 139.398 60.649H128.169C128.34 62.72 130.278 64.069 133.394 64.069C135.845 64.069 137.384 63.328 138.049 61.941L139.284 62.15C138.6 63.974 136.434 65.133 133.394 65.133ZM128.226 59.642H138.163C138.106 57.932 136.054 56.602 133.394 56.602C130.468 56.602 128.587 57.799 128.226 59.642ZM145.133 65V56.792H140.098V55.69H151.384V56.792H146.349V65H145.133Z" fill="#1A1A1A"/>
<path d="M86.61 164V160.181C84.976 160.637 83.646 160.846 82.183 160.846C79.086 160.846 77.433 159.687 77.433 157.388V154.69H78.63V157.369C78.63 158.965 80.017 159.744 82.278 159.744C83.931 159.744 85.09 159.516 86.61 159.117V154.69H87.826V164H86.61ZM96.8772 164.133C92.8872 164.133 90.3982 162.119 90.3982 159.345C90.3982 156.609 93.0202 154.576 96.8772 154.576C100.297 154.576 102.938 156.343 102.938 158.908C102.938 159.117 102.919 159.421 102.881 159.649H91.6522C91.8232 161.72 93.7612 163.069 96.8772 163.069C99.3282 163.069 100.867 162.328 101.532 160.941L102.767 161.15C102.083 162.974 99.9172 164.133 96.8772 164.133ZM91.7092 158.642H101.646C101.589 156.932 99.5372 155.602 96.8772 155.602C93.9512 155.602 92.0702 156.799 91.7092 158.642ZM104.65 164.133C104.327 164.133 104.042 164.095 103.795 164L104.042 162.974C104.194 163.012 104.384 163.031 104.517 163.031C105.087 163.031 105.562 162.803 105.885 162.214C106.246 161.549 106.417 160.238 106.531 157.977L106.702 154.69H116.05V164H114.834V155.773H107.861L107.728 158.091C107.576 160.599 107.405 161.986 106.911 162.841C106.36 163.867 105.448 164.133 104.65 164.133ZM125.061 164.133C121.147 164.133 118.62 162.119 118.62 159.345C118.62 156.59 121.147 154.576 125.061 154.576C128.937 154.576 131.502 156.59 131.502 159.345C131.502 162.119 128.937 164.133 125.061 164.133ZM119.893 159.345C119.893 161.549 121.888 163.031 125.061 163.031C128.253 163.031 130.229 161.549 130.229 159.345C130.229 157.16 128.253 155.678 125.061 155.678C121.888 155.678 119.893 157.16 119.893 159.345ZM134.077 164V154.69H141.297C143.121 154.69 144.356 155.602 144.356 157.046C144.356 158.072 143.767 158.813 142.76 159.155C144.109 159.421 144.831 160.276 144.831 161.454C144.831 162.974 143.539 164 141.335 164H134.077ZM135.274 162.993H141.43C142.76 162.993 143.558 162.366 143.558 161.34C143.558 160.333 142.76 159.725 141.43 159.725H135.274V162.993ZM135.274 158.718H141.183C142.399 158.718 143.102 158.148 143.102 157.198C143.102 156.229 142.399 155.697 141.183 155.697H135.274V158.718ZM153.209 164.133C149.219 164.133 146.73 162.119 146.73 159.345C146.73 156.609 149.352 154.576 153.209 154.576C156.629 154.576 159.27 156.343 159.27 158.908C159.27 159.117 159.251 159.421 159.213 159.649H147.984C148.155 161.72 150.093 163.069 153.209 163.069C155.66 163.069 157.199 162.328 157.864 160.941L159.099 161.15C158.415 162.974 156.249 164.133 153.209 164.133ZM148.041 158.642H157.978C157.921 156.932 155.869 155.602 153.209 155.602C150.283 155.602 148.402 156.799 148.041 158.642ZM171.108 164L165.427 159.649H163.033V164H161.817V154.69H163.033V158.547H165.465L170.861 154.69H172.647L166.472 159.079L172.913 164H171.108Z" fill="#1A1A1A"/>
<path d="M205.425 55.462H208.066L212.949 60.269L217.699 55.462H220.34V65H217.661V58.787L213.177 63.252H212.607L208.104 58.901V65H205.425V55.462ZM229.34 65.209C227.934 65.209 226.692 65 225.616 64.582C224.552 64.164 223.722 63.5813 223.127 62.834C222.544 62.074 222.253 61.2063 222.253 60.231C222.253 59.2557 222.544 58.3943 223.127 57.647C223.722 56.887 224.552 56.298 225.616 55.88C226.692 55.462 227.934 55.253 229.34 55.253C230.746 55.253 231.987 55.462 233.064 55.88C234.14 56.298 234.97 56.887 235.553 57.647C236.148 58.3943 236.446 59.2557 236.446 60.231C236.446 61.2063 236.148 62.074 235.553 62.834C234.97 63.5813 234.14 64.164 233.064 64.582C231.987 65 230.746 65.209 229.34 65.209ZM225.084 60.231C225.084 61.0543 225.464 61.7067 226.224 62.188C226.996 62.6693 228.035 62.91 229.34 62.91C230.657 62.91 231.696 62.6693 232.456 62.188C233.228 61.7067 233.615 61.0543 233.615 60.231C233.615 59.4077 233.228 58.7553 232.456 58.274C231.696 57.7927 230.657 57.552 229.34 57.552C228.035 57.552 226.996 57.7927 226.224 58.274C225.464 58.7553 225.084 59.4077 225.084 60.231ZM238.267 65.209C237.773 65.209 237.336 65.1393 236.956 65L237.279 62.853C237.481 62.8783 237.64 62.891 237.754 62.891C238.02 62.891 238.254 62.8403 238.457 62.739C238.672 62.625 238.856 62.4413 239.008 62.188C239.172 61.922 239.293 61.5293 239.369 61.01C239.457 60.478 239.533 59.699 239.597 58.673L239.768 55.462H250.598V65H247.862V57.78H242.333L242.238 59.3C242.162 60.44 242.048 61.3647 241.896 62.074C241.744 62.7833 241.516 63.3597 241.212 63.803C240.566 64.7403 239.584 65.209 238.267 65.209ZM259.602 65.209C258.196 65.209 256.955 65 255.878 64.582C254.814 64.164 253.985 63.5813 253.389 62.834C252.807 62.074 252.515 61.2063 252.515 60.231C252.515 59.2557 252.807 58.3943 253.389 57.647C253.985 56.887 254.814 56.298 255.878 55.88C256.955 55.462 258.196 55.253 259.602 55.253C261.008 55.253 262.25 55.462 263.326 55.88C264.403 56.298 265.233 56.887 265.815 57.647C266.411 58.3943 266.708 59.2557 266.708 60.231C266.708 61.2063 266.411 62.074 265.815 62.834C265.233 63.5813 264.403 64.164 263.326 64.582C262.25 65 261.008 65.209 259.602 65.209ZM255.346 60.231C255.346 61.0543 255.726 61.7067 256.486 62.188C257.259 62.6693 258.298 62.91 259.602 62.91C260.92 62.91 261.958 62.6693 262.718 62.188C263.491 61.7067 263.877 61.0543 263.877 60.231C263.877 59.4077 263.491 58.7553 262.718 58.274C261.958 57.7927 260.92 57.552 259.602 57.552C258.298 57.552 257.259 57.7927 256.486 58.274C255.726 58.7553 255.346 59.4077 255.346 60.231ZM281.141 62.682H283.193V67.831H280.533V65H270.045V67.831H267.385V62.682H268.753C269.26 62.1627 269.615 61.5483 269.817 60.839C270.033 60.117 270.159 59.1733 270.197 58.008L270.311 55.462H281.141V62.682ZM278.443 62.682V57.723H272.819L272.8 58.464C272.788 59.3887 272.68 60.1993 272.477 60.896C272.287 61.5927 271.964 62.188 271.508 62.682H278.443ZM288.792 65.209C287.36 65.209 286.233 64.9557 285.41 64.449C284.599 63.9297 284.194 63.2013 284.194 62.264C284.194 61.466 284.548 60.8263 285.258 60.345C285.98 59.851 287.164 59.49 288.811 59.262L293.922 58.578C293.77 58.16 293.44 57.8433 292.934 57.628C292.44 57.4127 291.705 57.305 290.73 57.305C289.666 57.305 288.823 57.4253 288.203 57.666C287.582 57.894 287.158 58.2423 286.93 58.711L284.099 58.464C284.415 57.476 285.15 56.697 286.303 56.127C287.455 55.5443 288.931 55.253 290.73 55.253C292.604 55.253 294.08 55.6077 295.157 56.317C296.233 57.0263 296.772 58.0207 296.772 59.3V65H294.226L294.112 63.366C293.542 63.974 292.788 64.4363 291.851 64.753C290.913 65.057 289.894 65.209 288.792 65.209ZM287.006 62.207C287.006 62.891 287.69 63.233 289.058 63.233C289.906 63.233 290.711 63.119 291.471 62.891C292.243 62.663 292.864 62.3337 293.333 61.903C293.814 61.4723 294.055 60.9783 294.055 60.421V60.345L288.982 61.048C288.26 61.162 287.747 61.3077 287.443 61.485C287.151 61.6623 287.006 61.903 287.006 62.207ZM308.316 61.865H304.649L301.533 65H298.227L301.742 61.618C300.855 61.4027 300.178 61.048 299.709 60.554C299.253 60.0473 299.025 59.4203 299.025 58.673C299.025 57.7103 299.411 56.9377 300.184 56.355C300.969 55.7597 302.021 55.462 303.338 55.462H311.014V65H308.316V61.865ZM301.837 58.673C301.837 59.053 301.976 59.3507 302.255 59.566C302.546 59.7813 302.939 59.889 303.433 59.889H308.316V57.457H303.433C302.926 57.457 302.534 57.5647 302.255 57.78C301.976 57.9827 301.837 58.2803 301.837 58.673Z" fill="#1A1A1A"/>
<path d="M241.435 164.209C240.004 164.209 238.876 163.956 238.053 163.449C237.242 162.93 236.837 162.201 236.837 161.264C236.837 160.466 237.192 159.826 237.901 159.345C238.623 158.851 239.807 158.49 241.454 158.262L246.565 157.578C246.413 157.16 246.084 156.843 245.577 156.628C245.083 156.413 244.348 156.305 243.373 156.305C242.309 156.305 241.467 156.425 240.846 156.666C240.225 156.894 239.801 157.242 239.573 157.711L236.742 157.464C237.059 156.476 237.793 155.697 238.946 155.127C240.099 154.544 241.574 154.253 243.373 154.253C245.248 154.253 246.723 154.608 247.8 155.317C248.877 156.026 249.415 157.021 249.415 158.3V164H246.869L246.755 162.366C246.185 162.974 245.431 163.436 244.494 163.753C243.557 164.057 242.537 164.209 241.435 164.209ZM239.649 161.207C239.649 161.891 240.333 162.233 241.701 162.233C242.55 162.233 243.354 162.119 244.114 161.891C244.887 161.663 245.507 161.334 245.976 160.903C246.457 160.472 246.698 159.978 246.698 159.421V159.345L241.625 160.048C240.903 160.162 240.39 160.308 240.086 160.485C239.795 160.662 239.649 160.903 239.649 161.207ZM253.018 154.462L257.293 161.245L261.074 154.462H264.133L256.172 168.18H253.075L255.716 163.772L249.788 154.462H253.018ZM277.017 161.682H279.069V166.831H276.409V164H265.921V166.831H263.261V161.682H264.629C265.136 161.163 265.491 160.548 265.693 159.839C265.909 159.117 266.035 158.173 266.073 157.008L266.187 154.462H277.017V161.682ZM274.319 161.682V156.723H268.695L268.676 157.464C268.664 158.389 268.556 159.199 268.353 159.896C268.163 160.593 267.84 161.188 267.384 161.682H274.319ZM280.696 154.462H283.432V160.998L290.576 154.462H293.198V164H290.462V157.445L283.299 164H280.696V154.462ZM299.507 156.78H294.738V154.462H307.012V156.78H302.243V164H299.507V156.78ZM314.575 164.209C313.169 164.209 311.928 164 310.851 163.582C309.787 163.164 308.957 162.581 308.362 161.834C307.779 161.074 307.488 160.206 307.488 159.231C307.488 158.256 307.779 157.394 308.362 156.647C308.957 155.887 309.787 155.298 310.851 154.88C311.928 154.462 313.169 154.253 314.575 154.253C315.981 154.253 317.222 154.462 318.299 154.88C319.376 155.298 320.205 155.887 320.788 156.647C321.383 157.394 321.681 158.256 321.681 159.231C321.681 160.206 321.383 161.074 320.788 161.834C320.205 162.581 319.376 163.164 318.299 163.582C317.222 164 315.981 164.209 314.575 164.209ZM310.319 159.231C310.319 160.054 310.699 160.707 311.459 161.188C312.232 161.669 313.27 161.91 314.575 161.91C315.892 161.91 316.931 161.669 317.691 161.188C318.464 160.707 318.85 160.054 318.85 159.231C318.85 158.408 318.464 157.755 317.691 157.274C316.931 156.793 315.892 156.552 314.575 156.552C313.27 156.552 312.232 156.793 311.459 157.274C310.699 157.755 310.319 158.408 310.319 159.231ZM323.595 154.462H326.198L326.293 155.716C326.825 155.247 327.496 154.886 328.307 154.633C329.118 154.38 330.03 154.253 331.043 154.253C332.348 154.253 333.5 154.462 334.501 154.88C335.502 155.285 336.281 155.868 336.838 156.628C337.395 157.375 337.674 158.243 337.674 159.231C337.674 160.206 337.395 161.074 336.838 161.834C336.281 162.581 335.502 163.164 334.501 163.582C333.5 164 332.348 164.209 331.043 164.209C330.055 164.209 329.162 164.082 328.364 163.829C327.566 163.576 326.888 163.221 326.331 162.765V168.18H323.595V154.462ZM326.331 159.231C326.331 160.054 326.717 160.707 327.49 161.188C328.263 161.669 329.295 161.91 330.587 161.91C331.904 161.91 332.943 161.669 333.703 161.188C334.463 160.707 334.843 160.054 334.843 159.231C334.843 158.408 334.463 157.755 333.703 157.274C332.943 156.793 331.904 156.552 330.587 156.552C329.295 156.552 328.263 156.793 327.49 157.274C326.717 157.755 326.331 158.408 326.331 159.231ZM339.608 154.462H342.344V160.998L349.488 154.462H352.11V164H349.374V157.445L342.211 164H339.608V154.462ZM363.882 160.865H360.215L357.099 164H353.793L357.308 160.618C356.422 160.403 355.744 160.048 355.275 159.554C354.819 159.047 354.591 158.42 354.591 157.673C354.591 156.71 354.978 155.938 355.75 155.355C356.536 154.76 357.587 154.462 358.904 154.462H366.58V164H363.882V160.865ZM357.403 157.673C357.403 158.053 357.543 158.351 357.821 158.566C358.113 158.781 358.505 158.889 358.999 158.889H363.882V156.457H358.999C358.493 156.457 358.1 156.565 357.821 156.78C357.543 156.983 357.403 157.28 357.403 157.673Z" fill="#1A1A1A"/>
<g filter="url(#filter2_d_18_2304)">
<rect x="284" y="112" width="40" height="40" rx="20" fill="#B0D0EF"/>
</g>
<path d="M303.024 128.78H304.104V131.49H302.704V130H297.184V131.49H295.784V128.78H296.504C296.77 128.507 296.957 128.183 297.064 127.81C297.177 127.43 297.244 126.933 297.264 126.32L297.324 124.98H303.024V128.78ZM301.604 128.78V126.17H298.644L298.634 126.56C298.627 127.047 298.57 127.473 298.464 127.84C298.364 128.207 298.194 128.52 297.954 128.78H301.604ZM308.24 130.11C307.5 130.11 306.847 130 306.28 129.78C305.72 129.56 305.283 129.253 304.97 128.86C304.663 128.46 304.51 128.003 304.51 127.49C304.51 126.977 304.663 126.523 304.97 126.13C305.283 125.73 305.72 125.42 306.28 125.2C306.847 124.98 307.5 124.87 308.24 124.87C308.98 124.87 309.633 124.98 310.2 125.2C310.767 125.42 311.203 125.73 311.51 126.13C311.823 126.523 311.98 126.977 311.98 127.49C311.98 128.003 311.823 128.46 311.51 128.86C311.203 129.253 310.767 129.56 310.2 129.78C309.633 130 308.98 130.11 308.24 130.11ZM306 127.49C306 127.923 306.2 128.267 306.6 128.52C307.007 128.773 307.553 128.9 308.24 128.9C308.933 128.9 309.48 128.773 309.88 128.52C310.287 128.267 310.49 127.923 310.49 127.49C310.49 127.057 310.287 126.713 309.88 126.46C309.48 126.207 308.933 126.08 308.24 126.08C307.553 126.08 307.007 126.207 306.6 126.46C306.2 126.713 306 127.057 306 127.49ZM299.487 136.98H297.257V135.93C297.997 135.917 298.561 135.8 298.947 135.58C299.334 135.36 299.604 135 299.757 134.5H300.977V142H299.487V136.98ZM306.545 142.11C305.679 142.11 304.945 142.017 304.345 141.83C303.745 141.637 303.295 141.37 302.995 141.03C302.695 140.69 302.545 140.29 302.545 139.83C302.545 139.397 302.699 139.023 303.005 138.71C303.319 138.397 303.755 138.167 304.315 138.02C303.922 137.873 303.612 137.663 303.385 137.39C303.159 137.117 303.045 136.797 303.045 136.43C303.045 136.037 303.182 135.687 303.455 135.38C303.729 135.067 304.129 134.823 304.655 134.65C305.182 134.477 305.812 134.39 306.545 134.39C307.279 134.39 307.905 134.477 308.425 134.65C308.952 134.823 309.352 135.067 309.625 135.38C309.899 135.687 310.035 136.037 310.035 136.43C310.035 136.79 309.925 137.107 309.705 137.38C309.485 137.653 309.182 137.867 308.795 138.02C309.349 138.167 309.775 138.397 310.075 138.71C310.382 139.023 310.535 139.397 310.535 139.83C310.535 140.29 310.385 140.69 310.085 141.03C309.785 141.37 309.335 141.637 308.735 141.83C308.142 142.017 307.412 142.11 306.545 142.11ZM304.115 139.77C304.115 140.117 304.319 140.39 304.725 140.59C305.139 140.79 305.745 140.89 306.545 140.89C307.345 140.89 307.952 140.79 308.365 140.59C308.779 140.39 308.985 140.117 308.985 139.77C308.985 139.41 308.772 139.137 308.345 138.95C307.919 138.757 307.319 138.66 306.545 138.66C305.772 138.66 305.172 138.757 304.745 138.95C304.325 139.137 304.115 139.41 304.115 139.77ZM304.525 136.52C304.525 136.827 304.702 137.07 305.055 137.25C305.415 137.423 305.912 137.51 306.545 137.51C307.172 137.51 307.662 137.423 308.015 137.25C308.375 137.077 308.555 136.833 308.555 136.52C308.555 136.213 308.382 135.973 308.035 135.8C307.695 135.62 307.199 135.53 306.545 135.53C305.892 135.53 305.392 135.62 305.045 135.8C304.699 135.973 304.525 136.213 304.525 136.52Z" fill="#1A1A1A"/>
<g filter="url(#filter3_d_18_2304)">
<rect x="251" y="65" width="50" height="50" rx="25" fill="#F39655"/>
</g>
<path d="M261.462 89.099C260.508 89.099 259.716 88.943 259.086 88.631C258.456 88.319 258.051 87.854 257.871 87.236L259.212 86.885C259.356 87.263 259.614 87.542 259.986 87.722C260.358 87.902 260.85 87.992 261.462 87.992C262.128 87.992 262.623 87.902 262.947 87.722C263.271 87.536 263.433 87.287 263.433 86.975C263.433 86.699 263.316 86.486 263.082 86.336C262.848 86.186 262.488 86.111 262.002 86.111H260.463V85.004H261.894C262.344 85.004 262.692 84.932 262.938 84.788C263.19 84.644 263.316 84.446 263.316 84.194C263.316 83.918 263.16 83.693 262.848 83.519C262.536 83.345 262.092 83.258 261.516 83.258C260.934 83.258 260.46 83.351 260.094 83.537C259.728 83.723 259.479 83.999 259.347 84.365L258.024 84.068C258.24 83.456 258.657 82.985 259.275 82.655C259.893 82.319 260.643 82.151 261.525 82.151C262.167 82.151 262.725 82.238 263.199 82.412C263.673 82.58 264.036 82.814 264.288 83.114C264.54 83.408 264.666 83.741 264.666 84.113C264.666 84.419 264.567 84.695 264.369 84.941C264.177 85.181 263.901 85.37 263.541 85.508C263.985 85.622 264.312 85.814 264.522 86.084C264.738 86.348 264.846 86.657 264.846 87.011C264.846 87.431 264.705 87.8 264.423 88.118C264.141 88.43 263.745 88.673 263.235 88.847C262.725 89.015 262.134 89.099 261.462 89.099ZM269.154 89.099C267.318 89.099 266.145 88.511 265.635 87.335L267.003 86.921C267.165 87.311 267.426 87.587 267.786 87.749C268.152 87.911 268.608 87.992 269.154 87.992C269.772 87.992 270.258 87.881 270.612 87.659C270.966 87.431 271.143 87.131 271.143 86.759C271.143 86.369 270.969 86.066 270.621 85.85C270.279 85.634 269.793 85.526 269.163 85.526C268.671 85.526 268.257 85.58 267.921 85.688C267.591 85.79 267.312 85.949 267.084 86.165L265.923 85.841L266.769 82.25H272.16V83.375H267.75L267.363 84.905C267.897 84.599 268.584 84.446 269.424 84.446C270.066 84.446 270.618 84.545 271.08 84.743C271.548 84.935 271.905 85.205 272.151 85.553C272.403 85.895 272.529 86.294 272.529 86.75C272.529 87.2 272.397 87.602 272.133 87.956C271.869 88.31 271.482 88.589 270.972 88.793C270.468 88.997 269.862 89.099 269.154 89.099ZM273.779 85.805H277.793V86.912H273.779V85.805ZM282.285 89.099C280.449 89.099 279.276 88.511 278.766 87.335L280.134 86.921C280.296 87.311 280.557 87.587 280.917 87.749C281.283 87.911 281.739 87.992 282.285 87.992C282.903 87.992 283.389 87.881 283.743 87.659C284.097 87.431 284.274 87.131 284.274 86.759C284.274 86.369 284.1 86.066 283.752 85.85C283.41 85.634 282.924 85.526 282.294 85.526C281.802 85.526 281.388 85.58 281.052 85.688C280.722 85.79 280.443 85.949 280.215 86.165L279.054 85.841L279.9 82.25H285.291V83.375H280.881L280.494 84.905C281.028 84.599 281.715 84.446 282.555 84.446C283.197 84.446 283.749 84.545 284.211 84.743C284.679 84.935 285.036 85.205 285.282 85.553C285.534 85.895 285.66 86.294 285.66 86.75C285.66 87.2 285.528 87.602 285.264 87.956C285 88.31 284.613 88.589 284.103 88.793C283.599 88.997 282.993 89.099 282.285 89.099ZM290.267 89.099C289.535 89.099 288.884 88.952 288.314 88.658C287.75 88.364 287.309 87.953 286.991 87.425C286.673 86.897 286.514 86.291 286.514 85.607C286.514 84.935 286.673 84.338 286.991 83.816C287.309 83.288 287.75 82.88 288.314 82.592C288.884 82.298 289.535 82.151 290.267 82.151C290.999 82.151 291.65 82.298 292.22 82.592C292.79 82.88 293.231 83.288 293.543 83.816C293.861 84.338 294.02 84.935 294.02 85.607C294.02 86.291 293.861 86.897 293.543 87.425C293.231 87.953 292.79 88.364 292.22 88.658C291.65 88.952 290.999 89.099 290.267 89.099ZM287.891 85.607C287.891 86.069 287.99 86.48 288.188 86.84C288.392 87.194 288.674 87.47 289.034 87.668C289.394 87.866 289.805 87.965 290.267 87.965C290.729 87.965 291.14 87.866 291.5 87.668C291.86 87.47 292.139 87.194 292.337 86.84C292.541 86.48 292.643 86.069 292.643 85.607C292.643 85.151 292.541 84.749 292.337 84.401C292.139 84.047 291.86 83.774 291.5 83.582C291.14 83.384 290.729 83.285 290.267 83.285C289.805 83.285 289.394 83.384 289.034 83.582C288.674 83.774 288.392 84.047 288.188 84.401C287.99 84.749 287.891 85.151 287.891 85.607ZM266.572 101.099C266.338 101.099 266.131 101.066 265.951 101L266.104 99.983C266.2 99.995 266.275 100.001 266.329 100.001C266.455 100.001 266.566 99.977 266.662 99.929C266.764 99.875 266.851 99.788 266.923 99.668C267.001 99.542 267.058 99.356 267.094 99.11C267.136 98.858 267.172 98.489 267.202 98.003L267.283 96.482H272.413V101H271.117V97.58H268.498L268.453 98.3C268.417 98.84 268.363 99.278 268.291 99.614C268.219 99.95 268.111 100.223 267.967 100.433C267.661 100.877 267.196 101.099 266.572 101.099ZM276.642 101.099C275.964 101.099 275.373 101 274.869 100.802C274.371 100.598 273.987 100.322 273.717 99.974C273.453 99.62 273.321 99.218 273.321 98.768C273.321 98.312 273.462 97.904 273.744 97.544C274.026 97.178 274.416 96.893 274.914 96.689C275.418 96.485 275.991 96.383 276.633 96.383C277.251 96.383 277.803 96.476 278.289 96.662C278.775 96.842 279.153 97.1 279.423 97.436C279.699 97.766 279.837 98.144 279.837 98.57C279.837 98.726 279.813 98.909 279.765 99.119H274.635C274.731 99.437 274.95 99.683 275.292 99.857C275.64 100.025 276.09 100.109 276.642 100.109C277.146 100.109 277.551 100.058 277.857 99.956C278.163 99.848 278.385 99.689 278.523 99.479L279.774 99.749C279.576 100.181 279.201 100.514 278.649 100.748C278.097 100.982 277.428 101.099 276.642 101.099ZM278.478 98.219C278.436 97.961 278.247 97.751 277.911 97.589C277.575 97.421 277.149 97.337 276.633 97.337C276.141 97.337 275.727 97.415 275.391 97.571C275.055 97.721 274.821 97.937 274.689 98.219H278.478ZM282.338 97.58H280.079V96.482H285.893V97.58H283.634V101H282.338V97.58Z" fill="#1A1A1A"/>
<g filter="url(#filter4_d_18_2304)">
<rect x="317" y="88" width="30" height="30" rx="15" fill="#FBBC33"/>
</g>
<path d="M329.845 101.088C329.253 101.088 328.73 101 328.277 100.824C327.829 100.648 327.48 100.403 327.229 100.088C326.984 99.768 326.861 99.4027 326.861 98.992C326.861 98.5813 326.984 98.2187 327.229 97.904C327.48 97.584 327.829 97.336 328.277 97.16C328.73 96.984 329.253 96.896 329.845 96.896C330.437 96.896 330.96 96.984 331.413 97.16C331.866 97.336 332.216 97.584 332.461 97.904C332.712 98.2187 332.837 98.5813 332.837 98.992C332.837 99.4027 332.712 99.768 332.461 100.088C332.216 100.403 331.866 100.648 331.413 100.824C330.96 101 330.437 101.088 329.845 101.088ZM328.053 98.992C328.053 99.3387 328.213 99.6133 328.533 99.816C328.858 100.019 329.296 100.12 329.845 100.12C330.4 100.12 330.837 100.019 331.157 99.816C331.482 99.6133 331.645 99.3387 331.645 98.992C331.645 98.6453 331.482 98.3707 331.157 98.168C330.837 97.9653 330.4 97.864 329.845 97.864C329.296 97.864 328.858 97.9653 328.533 98.168C328.213 98.3707 328.053 98.6453 328.053 98.992ZM335.032 97.96H333.024V96.984H338.192V97.96H336.184V101H335.032V97.96ZM328.747 111.088C327.115 111.088 326.072 110.565 325.619 109.52L326.835 109.152C326.979 109.499 327.211 109.744 327.531 109.888C327.856 110.032 328.261 110.104 328.747 110.104C329.296 110.104 329.728 110.005 330.043 109.808C330.357 109.605 330.515 109.339 330.515 109.008C330.515 108.661 330.36 108.392 330.051 108.2C329.747 108.008 329.315 107.912 328.755 107.912C328.317 107.912 327.949 107.96 327.651 108.056C327.357 108.147 327.109 108.288 326.907 108.48L325.875 108.192L326.627 105H331.419V106H327.499L327.155 107.36C327.629 107.088 328.24 106.952 328.987 106.952C329.557 106.952 330.048 107.04 330.459 107.216C330.875 107.387 331.192 107.627 331.411 107.936C331.635 108.24 331.747 108.595 331.747 109C331.747 109.4 331.629 109.757 331.395 110.072C331.16 110.387 330.816 110.635 330.363 110.816C329.915 110.997 329.376 111.088 328.747 111.088ZM335.842 111.088C335.191 111.088 334.613 110.957 334.106 110.696C333.605 110.435 333.213 110.069 332.93 109.6C332.647 109.131 332.506 108.592 332.506 107.984C332.506 107.387 332.647 106.856 332.93 106.392C333.213 105.923 333.605 105.56 334.106 105.304C334.613 105.043 335.191 104.912 335.842 104.912C336.493 104.912 337.071 105.043 337.578 105.304C338.085 105.56 338.477 105.923 338.754 106.392C339.037 106.856 339.178 107.387 339.178 107.984C339.178 108.592 339.037 109.131 338.754 109.6C338.477 110.069 338.085 110.435 337.578 110.696C337.071 110.957 336.493 111.088 335.842 111.088ZM333.73 107.984C333.73 108.395 333.818 108.76 333.994 109.08C334.175 109.395 334.426 109.64 334.746 109.816C335.066 109.992 335.431 110.08 335.842 110.08C336.253 110.08 336.618 109.992 336.938 109.816C337.258 109.64 337.506 109.395 337.682 109.08C337.863 108.76 337.954 108.395 337.954 107.984C337.954 107.579 337.863 107.221 337.682 106.912C337.506 106.597 337.258 106.355 336.938 106.184C336.618 106.008 336.253 105.92 335.842 105.92C335.431 105.92 335.066 106.008 334.746 106.184C334.426 106.355 334.175 106.597 333.994 106.912C333.818 107.221 333.73 107.579 333.73 107.984Z" fill="#1A1A1A"/>
<g filter="url(#filter5_d_18_2304)">
<rect x="195" y="90" width="60" height="60" rx="30" fill="#B4CC04"/>
</g>
<path d="M209.013 120V114.98H206.783V113.93C208.253 113.9 208.973 113.51 209.283 112.5H210.503V120H209.013ZM216.071 120.11C213.411 120.11 212.071 119.19 212.071 117.83C212.071 116.96 212.721 116.31 213.841 116.02C213.071 115.73 212.571 115.18 212.571 114.43C212.571 113.26 213.821 112.39 216.071 112.39C218.321 112.39 219.561 113.26 219.561 114.43C219.561 115.17 219.071 115.72 218.321 116.02C219.431 116.31 220.061 116.96 220.061 117.83C220.061 119.19 218.731 120.11 216.071 120.11ZM213.641 117.77C213.641 118.45 214.431 118.89 216.071 118.89C217.711 118.89 218.511 118.45 218.511 117.77C218.511 117.05 217.611 116.66 216.071 116.66C214.531 116.66 213.641 117.05 213.641 117.77ZM214.051 114.52C214.051 115.14 214.811 115.51 216.071 115.51C217.331 115.51 218.081 115.14 218.081 114.52C218.081 113.92 217.401 113.53 216.071 113.53C214.741 113.53 214.051 113.92 214.051 114.52ZM221.292 117.68V116.45H225.752V117.68H221.292ZM230.751 120.11C228.681 120.11 227.171 119.44 226.761 118.04L228.251 117.65C228.571 118.51 229.421 118.88 230.751 118.88C232.301 118.88 232.941 118.4 232.941 117.75C232.941 117.16 232.471 116.79 231.351 116.79H229.641V115.56H231.231C232.241 115.56 232.811 115.22 232.811 114.66C232.811 114.07 232.141 113.62 230.811 113.62C229.511 113.62 228.691 114.04 228.401 114.85L226.931 114.52C227.421 113.14 228.881 112.39 230.821 112.39C233.011 112.39 234.311 113.33 234.311 114.57C234.311 115.24 233.871 115.81 233.061 116.12C234.091 116.39 234.511 117.05 234.511 117.79C234.511 119.2 233.011 120.11 230.751 120.11ZM239.297 120.11C237.387 120.11 235.987 119.54 235.387 118.15L236.907 117.69C237.287 118.6 238.177 118.88 239.297 118.88C240.687 118.88 241.507 118.33 241.507 117.51C241.507 116.65 240.707 116.14 239.307 116.14C238.187 116.14 237.487 116.39 236.997 116.85L235.707 116.49L236.647 112.5H242.637V113.75H237.737L237.307 115.45C237.937 115.09 238.737 114.94 239.597 114.94C241.767 114.94 243.047 115.99 243.047 117.5C243.047 118.98 241.717 120.11 239.297 120.11ZM214.524 132.11C214.284 132.11 214.024 132.07 213.834 132L214.004 130.87C214.084 130.88 214.174 130.89 214.254 130.89C214.524 130.89 214.744 130.8 214.914 130.52C215.104 130.22 215.164 129.66 215.224 128.67L215.314 126.98H221.014V132H219.574V128.2H216.664L216.614 129C216.544 130.14 216.414 130.88 216.074 131.37C215.704 131.91 215.144 132.11 214.524 132.11ZM225.714 132.11C223.414 132.11 222.024 131.01 222.024 129.52C222.024 127.99 223.534 126.87 225.704 126.87C227.774 126.87 229.264 127.85 229.264 129.3C229.264 129.46 229.234 129.69 229.184 129.91H223.484C223.694 130.62 224.484 131.01 225.714 131.01C226.834 131.01 227.504 130.78 227.804 130.31L229.194 130.61C228.754 131.59 227.434 132.11 225.714 132.11ZM223.544 128.91H227.754C227.664 128.35 226.864 127.93 225.704 127.93C224.604 127.93 223.834 128.28 223.544 128.91ZM232.042 132V128.2H229.532V126.98H235.992V128.2H233.482V132H232.042Z" fill="#1A1A1A"/>
<defs>
<filter id="filter0_d_18_2304" x="0" y="13" width="379" height="197" filterUnits="userSpaceOnUse" color-interpolation-filters="sRGB">
<feFlood flood-opacity="0" result="BackgroundImageFix"/>
<feColorMatrix in="SourceAlpha" type="matrix" values="0 0 0 0 0 0 0 0 0 0 0 0 0 0 0 0 0 0 127 0" result="hardAlpha"/>
<feOffset dx="3" dy="3"/>
<feComposite in2="hardAlpha" operator="out"/>
<feColorMatrix type="matrix" values="0 0 0 0 0 0 0 0 0 0 0 0 0 0 0 0 0 0 0.4 0"/>
<feBlend mode="normal" in2="BackgroundImageFix" result="effect1_dropShadow_18_2304"/>
<feBlend mode="normal" in="SourceGraphic" in2="effect1_dropShadow_18_2304" result="shape"/>
</filter>
<filter id="filter1_d_18_2304" x="173" y="0" width="178" height="29" filterUnits="userSpaceOnUse" color-interpolation-filters="sRGB">
<feFlood flood-opacity="0" result="BackgroundImageFix"/>
<feColorMatrix in="SourceAlpha" type="matrix" values="0 0 0 0 0 0 0 0 0 0 0 0 0 0 0 0 0 0 127 0" result="hardAlpha"/>
<feOffset dx="1" dy="1"/>
<feComposite in2="hardAlpha" operator="out"/>
<feColorMatrix type="matrix" values="0 0 0 0 0 0 0 0 0 0 0 0 0 0 0 0 0 0 0.4 0"/>
<feBlend mode="normal" in2="BackgroundImageFix" result="effect1_dropShadow_18_2304"/>
<feBlend mode="normal" in="SourceGraphic" in2="effect1_dropShadow_18_2304" result="shape"/>
</filter>
<filter id="filter2_d_18_2304" x="284" y="112" width="41" height="41" filterUnits="userSpaceOnUse" color-interpolation-filters="sRGB">
<feFlood flood-opacity="0" result="BackgroundImageFix"/>
<feColorMatrix in="SourceAlpha" type="matrix" values="0 0 0 0 0 0 0 0 0 0 0 0 0 0 0 0 0 0 127 0" result="hardAlpha"/>
<feOffset dx="1" dy="1"/>
<feComposite in2="hardAlpha" operator="out"/>
<feColorMatrix type="matrix" values="0 0 0 0 0 0 0 0 0 0 0 0 0 0 0 0 0 0 0.4 0"/>
<feBlend mode="normal" in2="BackgroundImageFix" result="effect1_dropShadow_18_2304"/>
<feBlend mode="normal" in="SourceGraphic" in2="effect1_dropShadow_18_2304" result="shape"/>
</filter>
<filter id="filter3_d_18_2304" x="251" y="65" width="51" height="51" filterUnits="userSpaceOnUse" color-interpolation-filters="sRGB">
<feFlood flood-opacity="0" result="BackgroundImageFix"/>
<feColorMatrix in="SourceAlpha" type="matrix" values="0 0 0 0 0 0 0 0 0 0 0 0 0 0 0 0 0 0 127 0" result="hardAlpha"/>
<feOffset dx="1" dy="1"/>
<feComposite in2="hardAlpha" operator="out"/>
<feColorMatrix type="matrix" values="0 0 0 0 0 0 0 0 0 0 0 0 0 0 0 0 0 0 0.4 0"/>
<feBlend mode="normal" in2="BackgroundImageFix" result="effect1_dropShadow_18_2304"/>
<feBlend mode="normal" in="SourceGraphic" in2="effect1_dropShadow_18_2304" result="shape"/>
</filter>
<filter id="filter4_d_18_2304" x="317" y="88" width="31" height="31" filterUnits="userSpaceOnUse" color-interpolation-filters="sRGB">
<feFlood flood-opacity="0" result="BackgroundImageFix"/>
<feColorMatrix in="SourceAlpha" type="matrix" values="0 0 0 0 0 0 0 0 0 0 0 0 0 0 0 0 0 0 127 0" result="hardAlpha"/>
<feOffset dx="1" dy="1"/>
<feComposite in2="hardAlpha" operator="out"/>
<feColorMatrix type="matrix" values="0 0 0 0 0 0 0 0 0 0 0 0 0 0 0 0 0 0 0.4 0"/>
<feBlend mode="normal" in2="BackgroundImageFix" result="effect1_dropShadow_18_2304"/>
<feBlend mode="normal" in="SourceGraphic" in2="effect1_dropShadow_18_2304" result="shape"/>
</filter>
<filter id="filter5_d_18_2304" x="195" y="90" width="61" height="61" filterUnits="userSpaceOnUse" color-interpolation-filters="sRGB">
<feFlood flood-opacity="0" result="BackgroundImageFix"/>
<feColorMatrix in="SourceAlpha" type="matrix" values="0 0 0 0 0 0 0 0 0 0 0 0 0 0 0 0 0 0 127 0" result="hardAlpha"/>
<feOffset dx="1" dy="1"/>
<feComposite in2="hardAlpha" operator="out"/>
<feColorMatrix type="matrix" values="0 0 0 0 0 0 0 0 0 0 0 0 0 0 0 0 0 0 0.4 0"/>
<feBlend mode="normal" in2="BackgroundImageFix" result="effect1_dropShadow_18_2304"/>
<feBlend mode="normal" in="SourceGraphic" in2="effect1_dropShadow_18_2304" result="shape"/>
</filter>
</defs>
</svg>
