<svg width="27" height="28" viewBox="0 0 27 28" fill="none" xmlns="http://www.w3.org/2000/svg">
<g clip-path="url(#clip0_18_4359)">
<path d="M13.5 2.52257C17.1046 2.52257 17.5316 2.5368 18.9551 2.60415C20.2713 2.66645 20.9862 2.89452 21.4619 3.0862C22.092 3.34016 22.5418 3.64359 23.0142 4.13347C23.4865 4.62335 23.7791 5.08977 24.024 5.7432C24.2089 6.23658 24.4288 6.97787 24.4888 8.3428C24.5538 9.8191 24.5675 10.2618 24.5675 14C24.5675 17.7382 24.5538 18.181 24.4888 19.6572C24.4288 21.0222 24.2089 21.7635 24.024 22.2569C23.7791 22.9103 23.4865 23.3767 23.0142 23.8666C22.5418 24.3565 22.092 24.6599 21.4619 24.9138C20.9862 25.1055 20.2713 25.3336 18.9551 25.3959C17.5318 25.4633 17.1049 25.4775 13.5 25.4775C9.89509 25.4775 9.46815 25.4633 8.04484 25.3959C6.7286 25.3336 6.01379 25.1055 5.53809 24.9138C4.90794 24.6599 4.45817 24.3565 3.98579 23.8666C3.51341 23.3767 3.22082 22.9103 2.97597 22.2569C2.79109 21.7635 2.57117 21.0222 2.5111 19.6573C2.44615 18.181 2.43243 17.7382 2.43243 14C2.43243 10.2618 2.44615 9.8191 2.5111 8.34285C2.57117 6.97787 2.79109 6.23658 2.97597 5.7432C3.22082 5.08977 3.51341 4.62335 3.98579 4.13347C4.45817 3.64359 4.90794 3.34016 5.53809 3.0862C6.01379 2.89452 6.7286 2.66645 8.04479 2.60415C9.46836 2.5368 9.8953 2.52257 13.5 2.52257ZM13.5 0C9.83357 0 9.37389 0.0161162 7.93397 0.0842488C6.497 0.15227 5.51569 0.3889 4.65693 0.73501C3.76919 1.09279 3.01633 1.5715 2.26582 2.3498C1.51532 3.1281 1.05371 3.90884 0.708706 4.82947C0.374958 5.72003 0.146778 6.73768 0.0811863 8.22787C0.015487 9.72107 0 10.1978 0 14C0 17.8022 0.015487 18.279 0.0811863 19.7722C0.146778 21.2624 0.374958 22.28 0.708706 23.1706C1.05371 24.0912 1.51532 24.872 2.26582 25.6503C3.01633 26.4286 3.76919 26.9073 4.65693 27.265C5.51569 27.6112 6.497 27.8478 7.93397 27.9158C9.37389 27.9839 9.83357 28 13.5 28C17.1664 28 17.6261 27.9839 19.066 27.9158C20.503 27.8478 21.4843 27.6112 22.343 27.265C23.2308 26.9073 23.9836 26.4286 24.7341 25.6503C25.4846 24.872 25.9462 24.0912 26.2912 23.1706C26.625 22.28 26.8532 21.2624 26.9188 19.7722C26.9845 18.279 27 17.8022 27 14C27 10.1978 26.9845 9.72107 26.9188 8.22787C26.8532 6.73768 26.625 5.72003 26.2912 4.82947C25.9462 3.90884 25.4846 3.1281 24.7341 2.3498C23.9836 1.5715 23.2308 1.09279 22.343 0.73501C21.4843 0.3889 20.503 0.15227 19.066 0.0842488C17.6261 0.0161162 17.1664 0 13.5 0ZM13.5 6.81082C9.6713 6.81082 6.56752 10.0296 6.56752 14C6.56752 17.9705 9.6713 21.1892 13.5 21.1892C17.3286 21.1892 20.4324 17.9705 20.4324 14C20.4324 10.0296 17.3286 6.81082 13.5 6.81082ZM13.5 18.6667C11.0147 18.6667 8.99995 16.5773 8.99995 14C8.99995 11.4227 11.0147 9.33333 13.5 9.33333C15.9852 9.33333 18 11.4227 18 14C18 16.5773 15.9852 18.6667 13.5 18.6667ZM22.3263 6.52678C22.3263 7.45463 21.601 8.20681 20.7063 8.20681C19.8116 8.20681 19.0863 7.45463 19.0863 6.52678C19.0863 5.59893 19.8116 4.84681 20.7063 4.84681C21.601 4.84681 22.3263 5.59893 22.3263 6.52678Z" fill="#0A0A08"/>
</g>
<defs>
<clipPath id="clip0_18_4359">
<rect width="27" height="28" fill="white"/>
</clipPath>
</defs>
</svg>
