<svg width="16" height="17" viewBox="0 0 16 17" fill="none" xmlns="http://www.w3.org/2000/svg">
<g clip-path="url(#clip0_18_1737)">
<path fill-rule="evenodd" clip-rule="evenodd" d="M8.0001 14.8C4.4721 14.8 1.6001 11.928 1.6001 8.4C1.6001 4.872 4.4721 2 8.0001 2C11.5281 2 14.4001 4.872 14.4001 8.4C14.4001 11.928 11.5281 14.8 8.0001 14.8ZM6.4001 10.136L11.6721 4.864L12.8001 6L6.4001 12.4L3.2001 9.2L4.3281 8.072L6.4001 10.136Z" fill="#B4CC04"/>
<path fill-rule="evenodd" clip-rule="evenodd" d="M0 8.3999C0 3.9839 3.584 0.399902 8 0.399902C12.416 0.399902 16 3.9839 16 8.3999C16 12.8159 12.416 16.3999 8 16.3999C3.584 16.3999 0 12.8159 0 8.3999ZM1.6 8.3999C1.6 11.9279 4.472 14.7999 8 14.7999C11.528 14.7999 14.4 11.9279 14.4 8.3999C14.4 4.8719 11.528 1.9999 8 1.9999C4.472 1.9999 1.6 4.8719 1.6 8.3999Z" fill="#B4CC04"/>
</g>
<defs>
<clipPath id="clip0_18_1737">
<rect width="16" height="16" fill="white" transform="translate(0 0.399902)"/>
</clipPath>
</defs>
</svg>
