<svg width="16" height="16" viewBox="0 0 16 16" fill="none" xmlns="http://www.w3.org/2000/svg">
<g clip-path="url(#clip0_18_1914)">
<g opacity="0.24">
<path fill-rule="evenodd" clip-rule="evenodd" d="M0 8C0 3.584 3.584 0 8 0C12.416 0 16 3.584 16 8C16 12.416 12.416 16 8 16C3.584 16 0 12.416 0 8ZM1.6 8C1.6 11.528 4.472 14.4 8 14.4C11.528 14.4 14.4 11.528 14.4 8C14.4 4.472 11.528 1.6 8 1.6C4.472 1.6 1.6 4.472 1.6 8Z" fill="#B4CC04"/>
<path fill-rule="evenodd" clip-rule="evenodd" d="M8.0001 14.4001C4.4721 14.4001 1.6001 11.5281 1.6001 8.0001C1.6001 4.4721 4.4721 1.6001 8.0001 1.6001C11.5281 1.6001 14.4001 4.4721 14.4001 8.0001C14.4001 11.5281 11.5281 14.4001 8.0001 14.4001ZM11.7681 10.6364L10.6361 11.7684L8.00002 9.13229L5.36419 11.7681L4.23219 10.6361L6.86802 8.00029L4.23213 5.36439L5.36813 4.23639L8.00002 6.86829L10.6362 4.23213L11.7642 5.36813L9.13202 8.00029L11.7681 10.6364Z" fill="#B4CC04"/>
</g>
</g>
<defs>
<clipPath id="clip0_18_1914">
<rect width="16" height="16" fill="white"/>
</clipPath>
</defs>
</svg>
