<svg width="25" height="32" viewBox="0 0 25 32" fill="none" xmlns="http://www.w3.org/2000/svg">
<path d="M22.488 0.767487C20.4992 -0.466503 17.8222 -0.188465 16.1225 1.42872C14.4162 3.05268 13.6172 5.16228 13.1122 6.81874C12.4542 8.97709 11.9406 11.4713 11.3972 14.1112C11.273 14.7142 11.1479 15.3217 11.0203 15.9297C10.1638 15.7221 9.42184 15.3492 8.75091 14.7968C7.05607 13.4008 5.86959 10.8678 5.22407 7.26873C4.53731 3.43903 4.48648 2.95383 4.41598 2.28267C4.39057 2.0412 4.36179 1.76723 4.30568 1.3371L0 1.83448C0.0498764 2.21678 0.0748174 2.45419 0.0987965 2.68393C0.177927 3.43633 0.234514 3.9802 0.946212 7.94802C1.76246 12.4994 3.42708 15.8372 5.89404 17.8691C7.11793 18.877 8.53031 19.5631 10.1134 19.921C9.91534 20.705 9.70575 21.4718 9.47987 22.2125C7.92075 27.3254 6.18851 29.0432 6.17124 29.0604C6.19282 29.0391 6.20482 29.0297 6.20482 29.0297L9.18109 32C9.43767 31.7725 11.7416 29.5961 13.6498 23.339C13.9841 22.2423 14.2824 21.1076 14.5572 19.9575C15.8444 19.5987 17.4285 18.793 19.2 17.1339C21.1231 15.3326 22.7878 12.9381 23.887 10.3921C26.6541 3.98426 23.5158 1.40524 22.488 0.767487ZM19.8681 8.85478C18.7881 11.3557 17.192 13.3435 15.7149 14.605C16.2185 12.1605 16.6995 9.85722 17.2827 7.9453C17.6678 6.68198 18.1977 5.26067 19.2077 4.29975C19.3612 4.15351 19.5563 4.07724 19.7467 4.07724C19.871 4.07724 19.9928 4.10973 20.1002 4.17608C20.3606 4.33767 20.5452 4.69965 20.6191 5.19433C20.7164 5.84563 20.6651 7.00921 19.8686 8.85433L19.8681 8.85478Z" fill="#B4CC04"/>
</svg>
