<svg width="92" height="92" viewBox="0 0 92 92" fill="none" xmlns="http://www.w3.org/2000/svg">
<path d="M14.0426 13.6436H58.1657L58.2297 26.6527H26.8504V39.2774H78.21V77.9203H33.9588V64.9112H65.4022V52.2224H13.9785L14.0426 13.6436Z" fill="#403D38"/>
<path d="M71.5501 26.7168C75.1576 26.7168 78.0821 23.7902 78.0821 20.1802C78.0821 16.5701 75.1576 13.6436 71.5501 13.6436C67.9426 13.6436 65.0181 16.5701 65.0181 20.1802C65.0181 23.7902 67.9426 26.7168 71.5501 26.7168Z" fill="#403D38"/>
<path d="M20.7029 77.9849C24.3105 77.9849 27.2349 75.0583 27.2349 71.4482C27.2349 67.8382 24.3105 64.9116 20.7029 64.9116C17.0954 64.9116 14.1709 67.8382 14.1709 71.4482C14.1709 75.0583 17.0954 77.9849 20.7029 77.9849Z" fill="#403D38"/>
<path d="M87.9441 4.22314H4.69287V87.533H87.9441V4.22314Z" stroke="#403D38" stroke-width="4.25669" stroke-miterlimit="10"/>
</svg>
