<svg width="119" height="54" viewBox="0 0 119 54" fill="none" xmlns="http://www.w3.org/2000/svg">
<path d="M107.663 0H11.3365C5.07554 0 0 4.92745 0 11.0058V42.9942C0 49.0726 5.07554 54 11.3365 54H107.663C113.924 54 119 49.0726 119 42.9942V11.0058C119 4.92745 113.924 0 107.663 0Z" fill="#B4CC05"/>
<path d="M30.8711 11.5513C29.0806 10.3704 26.6708 10.6367 25.1403 12.1838C23.604 13.7372 22.8847 15.755 22.43 17.3399C21.8375 19.4046 21.3753 21.7904 20.8857 24.3156C20.7737 24.8926 20.6612 25.4736 20.5464 26.0552C19.7751 25.8564 19.1072 25.4999 18.5034 24.9714C16.9774 23.6363 15.909 21.2133 15.328 17.7701C14.7099 14.1068 14.6642 13.6429 14.6007 13.0002C14.5779 12.7688 14.5522 12.5071 14.5013 12.0958L10.625 12.5717C10.6696 12.9373 10.6924 13.1641 10.7141 13.3841C10.7849 14.104 10.8364 14.6238 11.4768 18.4196C12.2115 22.7736 13.7101 25.9666 15.9313 27.9102C17.0328 28.8746 18.3045 29.5305 19.73 29.8727C19.5517 30.6223 19.3626 31.3564 19.1592 32.0648C17.7555 36.9558 16.1964 38.5989 16.1804 38.6149C16.1998 38.5949 16.2107 38.5852 16.2107 38.5852L18.8901 41.4269C19.121 41.2092 21.1948 39.1274 22.9127 33.1417C23.2138 32.0922 23.4823 31.0073 23.7297 29.907C24.8883 29.5636 26.3143 28.7935 27.9094 27.2058C29.6405 25.4828 31.1396 23.1924 32.1291 20.7569C34.62 14.6273 31.7949 12.1604 30.8694 11.5502L30.8711 11.5513ZM28.5122 19.2875C27.5398 21.6795 26.1029 23.5814 24.7729 24.788C25.226 22.4497 25.6596 20.2461 26.1841 18.4173C26.5308 17.2085 27.0079 15.8493 27.9169 14.9301C28.0551 14.7901 28.2311 14.717 28.4025 14.717C28.5144 14.717 28.6241 14.7478 28.7207 14.8118C28.9555 14.9666 29.1212 15.3123 29.188 15.7859C29.2754 16.4092 29.2291 17.5221 28.5122 19.2869V19.2875Z" fill="#F4EBD5"/>
<path d="M108.338 30.1451C108.099 27.4479 106.567 25.61 104.13 24.5251C101.973 23.5647 99.7075 23.4847 97.4331 23.9652C93.9699 24.6965 91.6492 26.7475 90.6277 30.1588C90.3649 31.0375 90.2666 31.9647 90.0866 32.9022C89.6262 32.6091 89.1354 32.2966 88.5989 31.955C87.9551 32.9445 87.3244 33.914 86.6851 34.8967C86.777 34.9641 86.8456 35.0286 86.9256 35.0715C88.0625 35.6776 89.1965 36.2889 90.3426 36.8774C90.5568 36.9871 90.6848 37.0871 90.7454 37.339C91.1904 39.1878 91.8217 40.9743 92.6261 42.6979C92.677 42.807 92.7969 42.9613 92.8872 42.9624C94.1418 42.9801 95.397 42.9744 96.7064 42.9744C95.9266 41.3867 95.2382 39.8116 94.7217 38.1234C96.5608 38.4794 98.3484 38.5742 100.146 38.3937C101.932 38.2143 103.635 37.7532 105.147 36.7568C107.521 35.1926 108.586 32.9422 108.338 30.1445L108.338 30.1451ZM103.099 33.9409C102.14 34.663 101.043 35.0132 99.8761 35.1458C98.0022 35.3583 96.1505 35.1926 94.3189 34.7458C94.0093 34.6704 93.8824 34.5367 93.9001 34.2248C93.9167 33.9323 93.9036 33.6386 93.9036 33.3456C93.8859 31.7402 94.1887 30.2251 95.2387 28.9385C96.1705 27.797 97.4017 27.1988 98.8317 26.9886C99.9595 26.8223 101.076 26.8629 102.162 27.2765C105.238 28.4477 105.277 32.3006 103.099 33.9409Z" fill="#F4EBD5"/>
<path d="M44.9361 32.5419C44.7018 33.2926 44.2654 33.9039 43.6192 34.3324C42.0624 35.3654 40.3456 35.8515 38.4785 35.6099C37.1971 35.4442 36.2995 34.6958 35.6957 33.5046C39.8788 32.3837 44.0305 31.2713 48.1731 30.1613C47.948 26.3569 45.5291 23.8306 41.7819 23.4735C39.6274 23.2684 37.5941 23.7386 35.6917 24.7361C32.646 26.3324 30.803 29.466 31.4971 33.0127C32.0941 36.0641 34.4371 38.3504 37.5244 38.7984C39.8263 39.1326 42.0052 38.6601 44.1037 37.7477C45.5999 37.097 46.89 36.1618 47.7909 34.7689C48.3182 33.9536 48.6313 33.0578 48.7141 32.0535C47.5252 32.1175 46.3569 32.1734 45.1909 32.2551C45.0977 32.2614 44.9726 32.4271 44.9366 32.5414L44.9361 32.5419ZM35.1683 30.1984C35.5043 28.5753 36.5749 27.5995 38.0541 27.0311C39.0681 26.6414 40.1256 26.4215 41.2242 26.5992C42.1743 26.7528 42.9479 27.1956 43.4741 28.0212C43.5444 28.1314 43.5952 28.2537 43.6786 28.4165C40.7992 29.1878 37.9849 29.9419 35.1027 30.7143C35.1261 30.5258 35.1346 30.3595 35.1683 30.1984Z" fill="#F4EBD5"/>
<path d="M64.1391 32.5106C63.9191 33.2848 63.4706 33.9024 62.8131 34.34C61.2442 35.3843 59.5115 35.8699 57.6324 35.6151C56.3721 35.4443 55.4854 34.6942 54.8958 33.523C55.0712 33.4762 55.2118 33.4385 55.3523 33.4007C59.1995 32.3701 63.0467 31.3389 66.8939 30.3082C66.9853 30.2837 67.0962 30.2831 67.1624 30.2283C67.2487 30.1574 67.3613 30.0397 67.3561 29.9483C67.2059 27.3289 65.7599 24.9836 63.0804 23.9638C61.1831 23.2417 59.2549 23.3091 57.3176 23.8102C55.3643 24.3152 53.6321 25.2116 52.329 26.7787C50.3819 29.1188 50.0146 31.7485 51.1703 34.5365C52.2318 37.0983 54.2434 38.5243 56.9771 38.8242C60.1119 39.1681 62.973 38.3306 65.4811 36.4321C66.754 35.4683 67.5744 34.1583 67.8486 32.5524C67.8743 32.4015 67.8772 32.2467 67.8937 32.0627C66.69 32.1279 65.5348 32.185 64.3807 32.2633C64.2927 32.269 64.1676 32.4101 64.1391 32.5106ZM55.7848 27.8722C57.0874 26.8741 58.5871 26.4513 60.2222 26.589C61.3059 26.6804 62.1658 27.1889 62.7371 28.1355C62.7839 28.2132 62.8096 28.3041 62.8571 28.4166C60.0114 29.1793 57.1885 29.9357 54.304 30.7087C54.3931 29.5198 54.8781 28.5675 55.7848 27.8727V27.8722Z" fill="#F4EBD5"/>
<path d="M81.5695 24.2212C79.5448 23.5008 77.4692 23.4917 75.3828 23.8687C73.8363 24.1481 72.448 24.7788 71.3362 25.9152C70.6701 26.5956 70.2068 27.4034 69.9634 28.3764C71.2563 28.5638 72.504 28.7449 73.7632 28.9271C74.0534 28.185 74.5002 27.596 75.2074 27.276C76.8037 26.5539 78.4422 26.4945 80.0756 27.1286C80.7766 27.4006 81.2102 27.9639 81.4056 28.7214C80.9085 28.8146 80.4321 28.8991 79.9579 28.994C78.0834 29.3693 76.1992 29.7035 74.3396 30.1412C73.1005 30.4331 71.9378 30.949 71.0277 31.9014C69.5257 33.473 69.6029 36.8609 72.4434 38.1738C73.8106 38.8057 75.2508 38.9125 76.7163 38.7754C78.5542 38.6034 80.2115 38.0052 81.4838 36.5873C81.5141 36.5535 81.5638 36.537 81.6232 36.5016C81.6958 37.198 81.7644 37.8601 81.8329 38.5229H85.3208V38.039C85.3208 35.2081 85.3219 32.3767 85.3208 29.5459C85.3196 26.9972 83.9759 25.0776 81.569 24.2212H81.5695ZM79.6785 34.9167C78.3468 35.7 76.886 35.9674 75.3548 35.7017C74.2922 35.5178 73.7666 34.6294 74.1476 33.7164C74.355 33.2188 74.7761 32.9349 75.2691 32.8023C76.1255 32.5721 76.9916 32.3744 77.86 32.1967C79.0723 31.9494 80.2915 31.7328 81.5621 31.4929C81.6135 33.0491 80.9445 34.1718 79.6785 34.9162V34.9167Z" fill="#F4EBD5"/>
</svg>
