<svg width="312" height="142" viewBox="0 0 312 142" fill="none" xmlns="http://www.w3.org/2000/svg">
<path d="M282.277 0H29.7227C13.3073 0 0 12.919 0 28.8555V112.724C0 128.661 13.3073 141.58 29.7227 141.58H282.277C298.693 141.58 312 128.661 312 112.724V28.8555C312 12.919 298.693 0 282.277 0Z" fill="#B4CC05"/>
<path d="M80.9391 30.284C76.2448 27.1879 69.9266 27.8859 65.9138 31.9422C61.886 36.0149 60.0001 41.3055 58.8078 45.4606C57.2545 50.874 56.0427 57.1292 54.759 63.7498C54.4654 65.2627 54.1703 66.7861 53.8692 68.3109C51.8471 67.7897 50.0961 66.855 48.5128 65.4694C44.512 61.9689 41.7109 55.6163 40.1875 46.5885C38.5668 36.9841 38.447 35.7678 38.2807 34.0827C38.2208 33.476 38.1534 32.79 38.0201 31.7115L27.8569 32.9592C27.9738 33.9179 28.0336 34.5125 28.0905 35.0892C28.2763 36.9766 28.4111 38.3397 30.0902 48.2916C32.0165 59.7071 35.9455 68.0788 41.7693 73.1746C44.6572 75.703 47.9915 77.4226 51.7288 78.3198C51.2614 80.2851 50.7656 82.2098 50.2324 84.0672C46.5521 96.8907 42.4643 101.199 42.4224 101.241C42.4733 101.188 42.5018 101.163 42.5018 101.163L49.5269 108.613C50.132 108.042 55.5693 102.584 60.0735 86.8908C60.8629 84.1391 61.5669 81.2946 62.2155 78.4097C65.2532 77.5095 68.992 75.4903 73.1741 71.3277C77.7127 66.8101 81.6432 60.805 84.2375 54.4195C90.7683 38.3486 83.3612 31.8808 80.9346 30.281L80.9391 30.284ZM74.7543 50.5669C72.2049 56.8386 68.4377 61.8251 64.9506 64.9886C66.1385 58.8577 67.2754 53.0804 68.6504 48.2856C69.5597 45.1161 70.8104 41.5526 73.1936 39.1425C73.556 38.7755 74.0174 38.5838 74.4668 38.5838C74.7603 38.5838 75.0479 38.6647 75.3011 38.8325C75.9167 39.2384 76.3511 40.1446 76.5264 41.3864C76.7555 43.0206 76.6342 45.9384 74.7543 50.5654V50.5669Z" fill="#F4EBD5"/>
<path d="M284.046 79.0355C283.42 71.9639 279.404 67.1452 273.014 64.3007C267.358 61.7828 261.419 61.5731 255.456 62.8328C246.376 64.7501 240.292 70.1275 237.613 79.0714C236.924 81.3752 236.667 83.8063 236.195 86.2643C234.988 85.4959 233.701 84.6765 232.294 83.7808C230.606 86.3751 228.953 88.9171 227.276 91.4934C227.518 91.6702 227.697 91.8394 227.907 91.9518C230.888 93.541 233.861 95.1438 236.866 96.6866C237.428 96.9742 237.763 97.2363 237.922 97.8969C239.089 102.744 240.744 107.428 242.853 111.947C242.986 112.233 243.301 112.638 243.537 112.641C246.827 112.687 250.118 112.672 253.551 112.672C251.506 108.509 249.701 104.38 248.347 99.9535C253.169 100.887 257.856 101.135 262.57 100.662C267.251 100.192 271.716 98.9829 275.681 96.3706C281.904 92.2693 284.697 86.3691 284.048 79.034L284.046 79.0355ZM270.311 88.9875C267.796 90.8808 264.921 91.799 261.861 92.1465C256.948 92.7037 252.093 92.2693 247.291 91.098C246.479 90.9003 246.147 90.5498 246.193 89.7319C246.237 88.965 246.202 88.1951 246.202 87.4267C246.156 83.2176 246.95 79.2452 249.703 75.8719C252.146 72.8792 255.374 71.3109 259.123 70.7596C262.08 70.3238 265.007 70.4301 267.854 71.5146C275.919 74.5853 276.021 84.687 270.311 88.9875Z" fill="#F4EBD5"/>
<path d="M117.817 85.3183C117.202 87.2866 116.058 88.8893 114.364 90.0127C110.282 92.7209 105.781 93.9956 100.886 93.362C97.5261 92.9276 95.1729 90.9654 93.5896 87.8423C104.557 84.9034 115.442 81.9871 126.304 79.0767C125.713 69.1022 119.371 62.4785 109.547 61.5423C103.898 61.0046 98.5671 62.2374 93.5791 64.8527C85.5939 69.0378 80.7617 77.2537 82.5816 86.5526C84.1469 94.5528 90.2898 100.547 98.3844 101.722C104.419 102.598 110.132 101.359 115.634 98.9671C119.557 97.261 122.939 94.809 125.301 91.1571C126.684 89.0196 127.505 86.6709 127.722 84.0377C124.605 84.2054 121.542 84.3522 118.485 84.5664C118.24 84.5829 117.912 85.0173 117.818 85.3168L117.817 85.3183ZM92.207 79.174C93.0878 74.9185 95.8949 72.3601 99.7729 70.8697C102.432 69.8481 105.204 69.2715 108.085 69.7373C110.576 70.1402 112.604 71.3011 113.983 73.4655C114.168 73.7546 114.301 74.0752 114.52 74.5021C106.97 76.5242 99.5917 78.5015 92.0348 80.5266C92.0962 80.0323 92.1187 79.5964 92.207 79.174Z" fill="#F4EBD5"/>
<path d="M168.163 85.2349C167.586 87.2646 166.41 88.8838 164.686 90.0312C160.573 92.7693 156.03 94.0425 151.104 93.3744C147.799 92.9266 145.474 90.9598 143.929 87.8892C144.388 87.7663 144.757 87.6675 145.125 87.5686C155.212 84.8664 165.299 82.1627 175.386 79.4605C175.625 79.3961 175.916 79.3946 176.09 79.2508C176.316 79.0651 176.611 78.7565 176.598 78.5169C176.204 71.6491 172.412 65.5002 165.387 62.8265C160.413 60.9332 155.358 61.1099 150.278 62.4235C145.157 63.7477 140.615 66.0979 137.199 70.2066C132.094 76.3419 131.131 83.2367 134.161 90.5464C136.944 97.263 142.218 101.002 149.385 101.788C157.604 102.69 165.106 100.494 171.682 95.5164C175.019 92.9895 177.17 89.5548 177.889 85.3443C177.956 84.9488 177.964 84.5429 178.007 84.0606C174.851 84.2313 171.822 84.3811 168.797 84.5863C168.566 84.6013 168.238 84.9713 168.163 85.2349ZM146.259 73.0735C149.674 70.4567 153.606 69.3483 157.893 69.7093C160.735 69.9489 162.989 71.2821 164.487 73.7641C164.61 73.9678 164.677 74.2059 164.802 74.501C157.341 76.5007 149.94 78.4839 142.377 80.5106C142.61 77.3935 143.882 74.8965 146.259 73.075V73.0735Z" fill="#F4EBD5"/>
<path d="M213.862 63.504C208.553 61.6152 203.111 61.5912 197.641 62.5798C193.586 63.3123 189.946 64.966 187.032 67.9453C185.285 69.7293 184.07 71.8473 183.432 74.3982C186.822 74.8895 190.093 75.3643 193.395 75.8422C194.155 73.8964 195.327 72.3521 197.181 71.5133C201.366 69.6199 205.662 69.4641 209.945 71.1268C211.783 71.8398 212.92 73.3167 213.432 75.3029C212.129 75.5471 210.879 75.7688 209.636 76.0174C204.722 77.0015 199.782 77.8778 194.906 79.0252C191.657 79.7906 188.609 81.1432 186.223 83.6402C182.285 87.7609 182.487 96.6434 189.934 100.086C193.519 101.742 197.295 102.022 201.137 101.663C205.956 101.212 210.301 99.6436 213.637 95.9259C213.716 95.8375 213.847 95.794 214.003 95.7012C214.193 97.5271 214.373 99.2632 214.552 101.001H223.697V99.732C223.697 92.31 223.7 84.8864 223.697 77.4644C223.694 70.7823 220.171 65.7494 213.86 63.504H213.862ZM208.904 91.546C205.412 93.5996 201.582 94.3006 197.568 93.6041C194.782 93.1218 193.404 90.7926 194.403 88.399C194.946 87.0943 196.05 86.3498 197.343 86.0023C199.588 85.3987 201.859 84.8804 204.136 84.4146C207.314 83.766 210.511 83.1983 213.842 82.5692C213.977 86.6494 212.223 89.5928 208.904 91.5445V91.546Z" fill="#F4EBD5"/>
</svg>
