<svg width="92" height="100" viewBox="0 0 92 100" fill="none" xmlns="http://www.w3.org/2000/svg">
<g clip-path="url(#clip0_18_1259)">
<path d="M6.01611 75.0033C4.18233 74.0162 2.74061 72.6452 1.69093 70.8927C0.642515 69.1415 0.117676 67.1609 0.117676 64.951C0.117676 62.7411 0.642515 60.7619 1.69219 59.0094C2.74187 57.2569 4.1836 55.8871 6.01737 54.8988C7.85115 53.9104 9.91257 53.4175 12.2029 53.4175C14.1315 53.4175 15.8755 53.7571 17.4336 54.4375C18.9917 55.118 20.3006 56.095 21.3604 57.3684L18.0533 60.4273C16.5483 58.6863 14.6829 57.8145 12.4571 57.8145C11.0786 57.8145 9.84933 58.1173 8.76804 58.723C7.68674 59.3287 6.84447 60.1726 6.23996 61.256C5.63544 62.3395 5.33319 63.5711 5.33319 64.9523C5.33319 66.3335 5.63544 67.5652 6.23996 68.6486C6.84447 69.732 7.68674 70.5759 8.76804 71.1816C9.84933 71.7873 11.0786 72.0901 12.4571 72.0901C14.6829 72.0901 16.5483 71.2095 18.0533 69.4456L21.3604 72.5045C20.3006 73.8008 18.9853 74.7879 17.4171 75.4671C15.8477 76.1463 14.0986 76.4871 12.17 76.4871C9.90118 76.4871 7.84989 75.993 6.01611 75.0059V75.0033Z" fill="#403D38"/>
<path d="M43.3708 58.0055H36.2481V76.1028H31.1604V58.0055H24.0693V53.7998H43.372V58.0055H43.3708Z" fill="#403D38"/>
<path d="M63.1539 71.9605V76.1028H45.9189V53.7998H62.7404V57.9421H51.0383V62.7851H61.3732V66.7995H51.0383V71.9618H63.1539V71.9605Z" fill="#403D38"/>
<path d="M81.6803 67.4042H74.6209L70.9951 76.1019H65.7163L75.6377 53.7988H80.7254L90.6784 76.1019H85.2719L81.679 67.4042H81.6803ZM81.6803 67.4042L78.1506 58.8649L74.6209 67.4042H81.6803Z" fill="#403D38"/>
<path d="M16.0816 90.9969H9.02224L5.39768 99.6946H0.117676L10.039 77.3916H15.1268L25.0798 99.6946H19.6733L16.0804 90.9969H16.0816ZM16.0816 90.9969L12.5519 82.4576L9.02224 90.9969H16.0816Z" fill="#403D38"/>
<path d="M46.4505 94.9164H36.1156L34.144 99.6961H28.8652L38.7866 77.3931H43.8744L53.8273 99.6961H48.4209L46.4492 94.9164H46.4505ZM44.8292 90.9972L41.2995 82.4579L37.7698 90.9972H44.8292Z" fill="#403D38"/>
<path d="M80.1501 90.7108H76.9062V99.6961H71.8501V90.7108H68.5429L63.55 99.6961H57.6035L64.281 88.0346L58.0171 77.3931H63.4552L68.4481 86.4101H71.8501V77.3931H76.9062V86.4101H80.2133L85.2379 77.3931H90.676L84.4437 88.0346L91.0895 99.6961H85.143L80.1501 90.7108Z" fill="#403D38"/>
<path d="M52.7079 14.8568C53.4591 15.8097 53.836 16.9843 53.836 18.3807C53.836 20.4424 53.0557 22.0491 51.4964 23.201C49.937 24.3541 47.7087 24.9293 44.8113 24.9293H33.3647V1.6582H44.1815C46.8803 1.6582 48.9809 2.179 50.4859 3.22059C51.9896 4.26219 52.7421 5.74728 52.7421 7.67588C52.7421 8.82898 52.455 9.8427 51.8796 10.7183C51.3041 11.5939 50.4973 12.287 49.4577 12.7964C50.8729 13.2171 51.9567 13.9052 52.7092 14.8581L52.7079 14.8568ZM38.7067 11.2987H43.7174C44.8897 11.2987 45.775 11.0604 46.3719 10.584C46.9688 10.1075 47.2673 9.40427 47.2673 8.47292C47.2673 7.54156 46.9625 6.86617 46.3555 6.37832C45.7472 5.89047 44.8682 5.64718 43.7174 5.64718H38.7067V11.2987ZM48.3954 17.9486C48.3954 16.02 47.1345 15.0557 44.6127 15.0557H38.7067V20.9404H44.6127C47.1345 20.9404 48.3954 19.9431 48.3954 17.9486Z" fill="#403D38"/>
<path d="M70.627 19.9431H59.8431L57.7855 24.9293H52.2778L62.6304 1.6582H67.9395L78.325 24.9293H72.6846L70.627 19.9431ZM68.9348 15.854L65.2521 6.94474L61.5694 15.854H68.9348Z" fill="#403D38"/>
<path d="M38.6978 28.2275H33.3672V51.4987H38.6978V28.2275Z" fill="#403D38"/>
<path d="M78.3174 28.2275H72.9868V51.4987H78.3174V28.2275Z" fill="#403D38"/>
<path d="M58.5264 28.2275H53.1958V51.4987H58.5264V28.2275Z" fill="#403D38"/>
<path d="M78.2798 51.4978V46.1567H33.375V51.4978H78.2798Z" fill="#403D38"/>
<path d="M30.3092 0.646973H0.102539V1.66069H30.3092V0.646973Z" fill="#403D38"/>
<path d="M30.3092 13.3589H0.102539V14.3726H30.3092V13.3589Z" fill="#403D38"/>
<path d="M30.3092 23.5176H0.102539V24.5313H30.3092V23.5176Z" fill="#403D38"/>
<path d="M30.3092 33.6753H0.102539V34.689H30.3092V33.6753Z" fill="#403D38"/>
<path d="M30.3092 43.9438H0.102539V52.5072H30.3092V43.9438Z" fill="#403D38"/>
<path d="M0.102539 0.696624L0.102539 49.9595H1.11428L1.11428 0.696624H0.102539Z" fill="#403D38"/>
<path d="M29.2988 0.697604L29.2988 49.9604H30.3106L30.3106 0.697604H29.2988Z" fill="#403D38"/>
</g>
<defs>
<clipPath id="clip0_18_1259">
<rect width="90.9869" height="99.049" fill="white" transform="translate(0.102539 0.646973)"/>
</clipPath>
</defs>
</svg>
