<?xml version="1.0" encoding="UTF-8"?>
<svg id="_Слой_1" data-name="Слой 1" xmlns="http://www.w3.org/2000/svg" xmlns:xlink="http://www.w3.org/1999/xlink" viewBox="0 0 346.16 209.47">
  <defs>
    <style>
      .cls-1, .cls-2 {
        stroke: #eaeeed;
      }

      .cls-1, .cls-2, .cls-3, .cls-4, .cls-5, .cls-6, .cls-7, .cls-8, .cls-9, .cls-10, .cls-11, .cls-12, .cls-13, .cls-14 {
        fill: none;
      }

      .cls-1, .cls-2, .cls-3, .cls-4, .cls-6, .cls-7, .cls-8, .cls-15, .cls-9, .cls-10, .cls-11, .cls-12, .cls-13, .cls-14 {
        stroke-miterlimit: 10;
      }

      .cls-1, .cls-10, .cls-12 {
        stroke-width: 1.69px;
      }

      .cls-2, .cls-4 {
        stroke-width: .85px;
      }

      .cls-3, .cls-8 {
        stroke-width: 1.27px;
      }

      .cls-3, .cls-11, .cls-13 {
        stroke: #c8d2d3;
      }

      .cls-4, .cls-8 {
        stroke: #f6f5f3;
      }

      .cls-16 {
        clip-path: url(#clippath);
      }

      .cls-5, .cls-17, .cls-18, .cls-19, .cls-20, .cls-21, .cls-22 {
        stroke-width: 0px;
      }

      .cls-6 {
        stroke: #1a1a1a;
        stroke-width: .1px;
      }

      .cls-17 {
        fill: #c8d2d3;
      }

      .cls-7 {
        stroke-width: 2.54px;
      }

      .cls-7, .cls-12, .cls-14 {
        stroke: #fff;
      }

      .cls-15, .cls-18 {
        fill: #f0f0f0;
      }

      .cls-15, .cls-9, .cls-10 {
        stroke: #f0f0f0;
      }

      .cls-15, .cls-9, .cls-11 {
        stroke-width: .42px;
      }

      .cls-23 {
        clip-path: url(#clippath-1);
      }

      .cls-24 {
        clip-path: url(#clippath-4);
      }

      .cls-25 {
        clip-path: url(#clippath-3);
      }

      .cls-26 {
        clip-path: url(#clippath-2);
      }

      .cls-27 {
        clip-path: url(#clippath-7);
      }

      .cls-28 {
        clip-path: url(#clippath-6);
      }

      .cls-29 {
        clip-path: url(#clippath-5);
      }

      .cls-19 {
        fill: #f6f5f3;
      }

      .cls-20 {
        fill: #f39655;
      }

      .cls-21 {
        fill: #b4cc04;
      }

      .cls-22 {
        fill: #eaeeed;
      }

      .cls-13, .cls-14 {
        stroke-width: .21px;
      }
    </style>
    <clipPath id="clippath">
      <rect class="cls-5" x="3.25" y="21.68" width="338" height="132"/>
    </clipPath>
    <clipPath id="clippath-1">
      <rect class="cls-5" x="3.26" y="3.03" width="337.99" height="202.03"/>
    </clipPath>
    <clipPath id="clippath-2">
      <rect class="cls-5" x="3.26" y="3.03" width="337.99" height="202.03"/>
    </clipPath>
    <clipPath id="clippath-3">
      <rect class="cls-5" x="3.26" y="3.03" width="337.99" height="202.03"/>
    </clipPath>
    <clipPath id="clippath-4">
      <rect class="cls-5" x="3.26" y="3.03" width="337.99" height="202.03"/>
    </clipPath>
    <clipPath id="clippath-5">
      <rect class="cls-5" x="3.26" y="3.03" width="337.99" height="202.03"/>
    </clipPath>
    <clipPath id="clippath-6">
      <rect class="cls-5" x="3.26" y="3.03" width="337.99" height="202.03"/>
    </clipPath>
    <clipPath id="clippath-7">
      <rect class="cls-5" x="39.06" y="66.69" width="36.97" height="17.39"/>
    </clipPath>
  </defs>
  <g class="cls-16">
    <g>
      <g id="_карта" data-name=" карта">
        <rect class="cls-17" x="3.26" y="3.03" width="337.99" height="202.03"/>
        <path class="cls-22" d="M341.24,144.45v60.6h-181.09c2.76-3.68,5.99-7.95,9.66-12.63,2.66-3.4,24.46-27.07,33.43-41.74,3.43-5.6,8.1-10.41,11.21-16.2.15-.28.65-1.22,1.66-2.07,1.39-1.16,3.01-1.53,4.15-1.66,1.68-2.15,4.17-5.42,7.06-9.56,3.96-5.66,4.47-6.97,6.85-9.34,3.13-3.14,6.68-6.67,11.63-7.06,4.1-.32,6.13,1.75,11.43.62,1.62-.35,3.07-.94,4.17-1.38,2.11-.83,3.8-1.79,7.14-3.68,4.3-2.44,5.95-3.64,6.88-4.35.86-.65,1.55-1.23,2.03-1.64,21.26,16.69,42.51,33.39,63.78,50.08h0Z"/>
        <path class="cls-22" d="M74.61,205.06H3.26v-54.42c23.79,18.13,47.56,36.28,71.35,54.42Z"/>
        <path class="cls-19" d="M234.71,62.62c-.97,1.64-2.18,2.71-3.01,3.32-3.77,2-7.54,4.02-11.32,6.02-.74.33-1.93.75-3.43.83-.93.04-1.73-.05-2.35-.18-.05,0-.1-.01-.15-.03-.96-.54-1.9-1.08-2.87-1.64-1.71-.97-3.43-1.95-5.13-2.93-3.43.57-9.93,1.17-17.34-1.36-4.46-1.51-7.82-3.67-10.07-5.4-12.99-9.31-25.97-18.62-38.96-27.94-1.54-1.1-3.07-2.2-4.62-3.31-1.88-1.35-3.77-2.7-5.65-4.06,2.26-3.42,4.5-6.85,6.75-10.28-5.26-3.77-10.53-7.55-15.79-11.31-24.4,34.86-48.8,69.71-73.21,104.56-.19-.15-.38-.31-.58-.46-.83,1.1-1.66,2.18-2.49,3.28,1.3.88,2.6,1.76,3.89,2.65.78-.89,1.57-1.79,2.36-2.68-.37-.3-.74-.61-1.11-.91,20.77-29.28,41.54-58.56,62.31-87.85,6.4,4.54,12.82,9.08,19.22,13.61,1.6,1.13,3.18,2.26,4.79,3.39,21.82,15.46,43.64,30.92,65.47,46.38.96.68,1.93,1.36,2.9,2.06,4.1,2.9,8.2,5.8,12.29,8.71.65.88,2.4,3.44,2.49,7.17.08,3.43-1.28,5.9-1.87,6.86-22.11,31.32-44.22,62.63-66.32,93.94h-76.97c-23.56-17.49-47.13-34.99-70.7-52.49V3.03h231.87c.2,9.06.39,18.13.58,27.18.05,2.54.11,5.09.16,7.62.13,5.94.26,11.9.38,17.85.1,1.15.18,4.04-1.55,6.96h0Z"/>
        <path class="cls-19" d="M341.24,3.03v143.02c-9.39-7.13-18.8-14.26-28.19-21.39.14-.67.29-1.33.43-2-20.65-15.42-35.85-27.35-43.26-32.88,0,0-9.2-6.87-12.61-14.95-1.2-2.85-1.85-5.52-2.18-7.79-.4-9.83-.8-19.67-1.2-29.51-.1-2.58-.21-5.16-.32-7.74-.36-8.92-.73-17.84-1.09-26.77h88.42-.01Z"/>
        <path class="cls-22" d="M274.95,96.32c-1.14,1.13-2.6,2.39-4.42,3.58-2.86,1.86-5.58,2.9-7.64,3.5,4.02-2.36,8.04-4.72,12.05-7.08h0Z"/>
        <path class="cls-19" d="M232.22,30.28c9.24-.21,18.49-.42,27.73-.63-.15,2.6-.31,5.19-.46,7.78-9.5.15-19,.31-28.5.47.41-2.55.83-5.09,1.25-7.64h-.01Z"/>
        <path class="cls-19" d="M128.48,40.72c2.96-4.51,5.92-9.03,8.88-13.55,1.61.93,3.22,1.86,4.83,2.81-2.8,4.51-5.6,9.03-8.41,13.55-1.76-.94-3.53-1.87-5.29-2.81Z"/>
        <path class="cls-19" d="M198.57,90.71c4.62-7.01,9.24-14.02,13.87-21.03.99.57,1.98,1.14,2.96,1.71-4.62,7.11-9.24,14.22-13.87,21.34-.99-.68-1.98-1.35-2.96-2.03h0Z"/>
        <path class="cls-22" d="M74.44,3.03c-3.14,4.2-6.26,8.4-9.4,12.6-.86.78-1.86,1.58-3.01,2.36-4.13,2.76-8.07,3.59-9.76,3.94-5.96,1.27-24.18,5.26-49.02,10.34V3.03h71.2Z"/>
        <path class="cls-19" d="M29.61,3.03c-.65,1.46-1.97,3.82-4.55,5.61-.93.65-1.84,1.1-2.65,1.4-3.29-2.34-6.58-4.68-9.88-7.01h17.07Z"/>
        <path class="cls-17" d="M61.14,162.12c-.1.04-.21.09-.32.08-.21-.01-.36-.21-.47-.38-.5-.91-.35-2.12.26-2.96s1.67-1.31,2.72-1.33c.5,0,1.05.1,1.37.49,2.07,2.49-2.2,3.54-3.57,4.11h0Z"/>
        <path class="cls-18" d="M118.9,3.03c-3.52,5.16-7.04,10.31-10.56,15.47-3.66-2.42-7.32-4.84-10.97-7.24.44-.77.89-1.54,1.32-2.31-3.44-1.97-6.89-3.94-10.34-5.92h30.56,0Z"/>
        <path class="cls-18" d="M41.26,103.64c8.42,6.24,16.84,12.46,25.26,18.69-6.55,8.98-13.1,17.95-19.65,26.94-11.67-8.04-23.33-16.1-34.99-24.14,7.06-10.04,14.12-20.07,21.18-30.11,3.12,2.11,6.23,4.22,9.35,6.33-.38.76-.76,1.53-1.14,2.29h0Z"/>
        <path class="cls-10" d="M43.45,42.74c2.75-3.32,5.51-6.65,8.26-9.97,3.01,2.23,6.02,4.47,9.03,6.69-2.49,3.48-4.99,6.96-7.47,10.44"/>
        <path class="cls-10" d="M13.07,59.1c1.51.94,3.01,1.87,4.51,2.81.73-1.19,1.45-2.39,2.18-3.58"/>
        <path class="cls-18" d="M42.51,81.99c5.09-6.96,10.17-13.92,15.26-20.88,3.22,2.6,6.44,5.19,9.66,7.78-4.67,6.8-9.35,13.6-14.02,20.4-3.63-2.44-7.27-4.88-10.9-7.32h0Z"/>
        <path class="cls-18" d="M84.51,45.97c-.66-1.11-1.08-2.51-.93-3.81.06-.47.18-.92.43-1.32-2.42-1.99-4.83-3.99-7.26-5.98-5.21,6.86-10.42,13.74-15.63,20.6,3.4,2.34,6.82,4.68,10.22,7.03,4.41-5.47,8.82-10.94,13.23-16.42-.02-.03-.04-.07-.07-.1h0Z"/>
        <path class="cls-10" d="M62.45,68.13c2.13-3.22,4.25-6.44,6.39-9.66"/>
        <path class="cls-10" d="M67.74,65.01c-2.7-1.92-5.4-3.84-8.1-5.76"/>
        <path class="cls-13" d="M22.87,99.34c1.19-1.76,2.39-3.53,3.58-5.29,1.72-.52,3.43-1.04,5.14-1.56,1.76-2.34,3.53-4.67,5.29-7.01.11-.18.54-.86,1.4-1.09.87-.24,1.83.07,2.49.78,3.58,2.6,7.17,5.19,10.75,7.79"/>
        <path class="cls-18" d="M54.35,59.41c-7.94,10.69-15.89,21.39-23.83,32.08-.99.15-2.7.54-4.51,1.71-1.83,1.18-2.89,2.6-3.43,3.43-6.44-3.81-12.88-7.61-19.32-11.42v-14.93c17.03-3.63,34.06-7.25,51.09-10.89h0Z"/>
        <path class="cls-22" d="M40.64,63.77c-2.13,2.91-4.26,5.81-6.39,8.73,1.04.57,2.08,1.14,3.12,1.71,2.03-2.86,4.05-5.71,6.08-8.57-.94-.63-1.87-1.25-2.81-1.87h0Z"/>
        <path class="cls-22" d="M26.2,71.45c-.97-.76-1.93-1.52-2.9-2.28l-1.56,1.76c1.05.8,2.09,1.61,3.13,2.41.42-.64.86-1.28,1.33-1.9h0Z"/>
        <path class="cls-22" d="M27.06,72.12c-.27.38-.55.75-.81,1.14-.17.25-.34.5-.51.75,1.23.95,2.46,1.89,3.69,2.85.38-.66.76-1.32,1.14-1.97-1.17-.92-2.34-1.84-3.51-2.76h0Z"/>
        <path class="cls-22" d="M31.4,88.38c-.32,0-1.27.04-2.18.72-1.14.88-1.32,2.14-1.35,2.39-1.98-.1-3.94-.21-5.92-.31,3.44-5.01,6.89-10.03,10.32-15.04,1.68,1.31,3.37,2.62,5.04,3.93-1.97,2.77-3.94,5.54-5.92,8.31h0Z"/>
        <path class="cls-18" d="M10.22,79.86c.97-1.42,1.94-2.84,2.9-4.25,2.91,2.07,5.82,4.14,8.73,6.2.86-1.31,1.73-2.61,2.59-3.92-3.57-2.77-7.13-5.53-10.69-8.31-2.57,3.74-5.12,7.47-7.69,11.22,3.53,2.6,7.06,5.19,10.59,7.79.73-.85,1.44-1.69,2.17-2.54-2.87-2.06-5.74-4.12-8.61-6.18h0Z"/>
        <path class="cls-22" d="M3.89,74.46c.38-.49.77-.96,1.14-1.45.62.56,1.24,1.11,1.86,1.67-.38.44-.76.89-1.14,1.33-.62-.52-1.24-1.04-1.87-1.55Z"/>
        <path class="cls-18" d="M9.6,112.46c.35.38.69.76,1.04,1.14-1.45,1.94-2.9,3.88-4.36,5.82-1-.69-2.01-1.39-3.02-2.08v-27.19c4.92,3.5,9.83,6.99,14.74,10.49-2.8,3.94-5.6,7.89-8.4,11.83h0Z"/>
        <path class="cls-22" d="M43.76,53.7c1.59,1.1,3.18,2.22,4.78,3.32.56-.87,1.1-1.73,1.67-2.6-1.56-1.1-3.12-2.22-4.67-3.32-.59.87-1.17,1.73-1.76,2.6h0Z"/>
        <path class="cls-22" d="M13.06,52.74c1.09.76,2.17,1.51,3.26,2.26.38-.59.75-1.18,1.14-1.77l-3.18-2.26c-.4.59-.8,1.18-1.2,1.77h-.01Z"/>
        <path class="cls-22" d="M46.46,44.87c.66.45,1.31.9,1.97,1.35.21-.35.42-.69.63-1.04-.58-.42-1.14-.85-1.72-1.28-.29.32-.59.64-.88.96h0Z"/>
        <path class="cls-22" d="M67.02,30.44c.42-.69.83-1.39,1.25-2.08-.69-.42-1.39-.84-2.09-1.27-.13.02-.25.05-.38.08-.56.13-1.14.27-1.72.21-.54.77-1.08,1.56-1.62,2.33,1.01.59,2.01,1.17,3.02,1.76-.49.73-.96,1.45-1.46,2.18l3.11,1.97c.72-1.21,1.46-2.42,2.18-3.63-.76-.52-1.53-1.04-2.29-1.56h0s0,0,0,0Z"/>
        <path class="cls-22" d="M69.09,34.8c.31.21.63.42.93.63.4-.87.82-1.56,1.47-2.27-.28-.17-.66-.38-.94-.54-.42.69-1.05,1.5-1.46,2.19h0Z"/>
        <path class="cls-22" d="M56.2,31.2c1.15-.26,2.29-.51,3.44-.77-.14-.42-.38-1.14-.52-1.55-1.1.17-2.22.43-3.32.61.13.66.26,1.05.4,1.71h0Z"/>
        <path class="cls-22" d="M29.32,105.92c-3.18,4.71-6.36,9.42-9.55,14.13,9.76,6.89,19.52,13.78,29.29,20.67,3.26-4.5,6.51-9,9.76-13.5-3.49-2.6-6.99-5.19-10.49-7.79-.81.04-3.54.05-6.13-1.86-2.19-1.64-3.04-3.75-3.32-4.57-3.19-2.36-6.38-4.71-9.56-7.07h0Z"/>
        <path class="cls-18" d="M67.12,100.63c.45-.72.9-1.45,1.35-2.18-.26-.44-.63-.96-1.14-1.06,4.47-6.5,8.93-13,13.39-19.5,3.6,2.36,7.2,4.71,10.8,7.06-5.12,7.62-10.25,15.24-15.37,22.86-1.73-1.11-3.46-2.22-5.19-3.33.21-.45.42-.9.63-1.35-1.49-.83-2.97-1.67-4.46-2.49h0Z"/>
        <path class="cls-10" d="M84.15,81.32c1.97-2.81,3.94-5.61,5.92-8.41"/>
        <path class="cls-10" d="M85.5,76.64l8,5.29"/>
        <path class="cls-18" d="M84.46,72.49c4.49-6.1,8.97-12.21,13.46-18.31.46.18.93.36,1.39.54.59-.86,1.18-1.72,1.76-2.58,3.04,1.97,6.1,3.94,9.14,5.92-5.09,7.31-10.18,14.6-15.26,21.91-3.5-2.49-7-4.99-10.49-7.47h0Z"/>
        <path class="cls-18" d="M113.43,46.84c3.15-4.19,6.3-8.38,9.45-12.56-2.57-1.8-5.12-3.6-7.68-5.4-3.04,4.4-6.1,8.79-9.14,13.19,2.46,1.59,4.92,3.18,7.37,4.78h0Z"/>
        <path class="cls-18" d="M89.34,20.06c-.86,1.41-1.73,2.84-2.6,4.25,1.53,1.04,3.04,2.08,4.57,3.11,2.03-2.57,4.05-5.13,6.08-7.69-1.5-1.21-3.01-2.42-4.53-3.63.63-.9,1.25-1.8,1.86-2.7,2.32,1.77,4.64,3.53,6.96,5.3-2.46,3.57-4.92,7.13-7.37,10.69.02.06.43,1.13-.21,1.98-.55.73-1.65.98-2.6.52-3.08-2.35-6.16-4.7-9.24-7.06,1.53-2.25,3.04-4.5,4.57-6.75.83.66,1.67,1.32,2.49,1.98h0s0,0,0,0Z"/>
        <polygon class="cls-22" points="79.89 15.44 77.03 19.28 80.17 21.63 79.32 22.77 73.91 18.73 78.49 12.6 83.9 16.64 83.03 17.79 79.89 15.44"/>
        <path class="cls-22" d="M100.24,11.64c.72-1.1,1.46-2.22,2.18-3.32,2.25,1.59,4.5,3.18,6.75,4.78-.66,1.04-1.32,2.07-1.97,3.11-2.32-1.52-4.64-3.05-6.96-4.57h0Z"/>
        <path class="cls-18" d="M127.71,95.08c.83-1.5,1.66-3.01,2.49-4.51-1.35-1.25-2.7-2.49-4.05-3.74.24-.39.49-.79.72-1.18-3.57-2.67-7.13-5.34-10.69-8-3.92,5.56-7.84,11.11-11.76,16.67,3.35,2.39,6.69,4.78,10.05,7.17.05.34.1.68.15,1.01,1.32.96,2.65,1.92,3.97,2.88.49-.13.99-.26,1.48-.39,3.71,2.81,7.43,5.61,11.13,8.41,1.18-1.47,2.41-3.15,3.63-5.05,1.31-2.04,2.4-3.98,3.29-5.78-3.48-2.49-6.96-4.99-10.43-7.47h0Z"/>
        <path class="cls-18" d="M117.58,111.97c-.26-.42-.52-.83-.78-1.25-1.97-1.22-3.94-2.44-5.92-3.67-.61-.11-1.22-.23-1.83-.35-2.82-2.21-5.64-4.42-8.46-6.63-3.14,4.53-6.28,9.06-9.43,13.58,6.91,5.35,14.08,10.34,21.01,15.65,2.02,1.55,4.03,3.12,6.04,4.68,1.34-1.88,2.68-3.79,4.03-5.75,2.06-3,4-5.96,5.86-8.89-3.51-2.46-7.03-4.93-10.53-7.39h0s0,0,0,0Z"/>
        <path class="cls-18" d="M107.81,134.89c-6.84-5.21-13.88-10.15-20.69-15.39l-10.5,15.13c9.25,5.8,18.49,11.62,27.74,17.42,3.18-3.85,6.42-7.97,9.69-12.34-2.07-1.61-4.15-3.23-6.24-4.82h0Z"/>
        <path class="cls-18" d="M70.57,166.2c.63.59,1.53.96,2.36.71.83-.25,1.39-1.09,1.56-1.95s0-1.74-.19-2.6c-.45-1.97-1.11-3.96-2.48-5.45-1.26-1.36-3.08-2.18-4.94-2.21-.57-.01-1.21.08-1.6.51-.61.7-.26,1.89-.86,2.6-.33.39-.88.54-1.24.9-.53.54-.51,1.45-.15,2.12s.97,1.15,1.57,1.62c1.22.95,2.34,1.55,3.82,1.95,1.22.32,1.25.91,2.15,1.78h0Z"/>
        <path class="cls-9" d="M82.07,152.13l1.35.83"/>
        <path class="cls-9" d="M80.42,154.4c.42.24.82.49,1.25.74"/>
        <path class="cls-18" d="M126.83,187.64c.11.27.21.55.32.83-.93,1.21-1.84,2.43-2.76,3.65-1.24-.88-2.48-1.76-3.71-2.64.48-.67.96-1.34,1.43-2.01-1.16-.74-2.32-1.48-3.48-2.22-.41.52-.83,1.04-1.25,1.56.32.45.63.9.94,1.35-.49.76-.97,1.53-1.46,2.29-.62.1-1.25.21-1.86.32-.63.86-1.25,1.73-1.86,2.6,1.11.76,2.21,1.52,3.32,2.29.67-.79,1.34-1.57,2-2.36,1.11.77,2.21,1.54,3.32,2.31-2.39,3.15-4.77,6.31-7.15,9.46h-1.92l-39.97-27.38c2.57-3.74,5.13-7.48,7.69-11.21.9.8,1.79,1.6,2.7,2.38-.45.66-.9,1.32-1.35,1.98,1.21.87,2.43,1.73,3.63,2.6.63-.76,1.26-1.52,1.89-2.28-.07-.49-.16-.97-.24-1.46l1.15-1.68,2.07.23c.45-.73.9-1.46,1.36-2.18-2.6-2.07-5.19-4.15-7.79-6.23,2.07-2.94,4.15-5.88,6.22-8.82,4.15,2.74,8.31,5.46,12.46,8.2-.05.16-.33,1.12.21,2.07.44.77,1.14,1.07,1.36,1.14,9.07,6.29,18.13,12.6,27.21,18.9-1.49,2.11-2.98,4.23-4.47,6.34h-.01,0Z"/>
        <path class="cls-19" d="M124.95,163.55c9.24-12.95,18.49-25.89,27.73-38.83-3.67-6.43-7.34-12.88-11.01-19.32-11.07,15.96-22.15,31.92-33.23,47.87,5.5,3.43,11,6.85,16.51,10.28h0Z"/>
        <path class="cls-10" d="M172.25,104.26c2.6,1.82,5.2,3.63,7.79,5.46-4.67,7.06-9.35,14.12-14.02,21.18-2.6-1.76-5.2-3.53-7.79-5.29"/>
        <path class="cls-10" d="M173.19,119.84c-2.49-1.71-4.99-3.43-7.48-5.14"/>
        <path class="cls-22" d="M154.03,121.55c-.63-1.56-1.25-3.11-1.87-4.67,1.09.72,2.18,1.46,3.27,2.18-.46.83-.93,1.67-1.4,2.49h0Z"/>
        <path class="cls-18" d="M149.82,98.03c-1.66,2.29-3.32,4.57-4.99,6.86,1.46,2.75,2.9,5.5,4.36,8.25,2.43,1.53,4.87,3.06,7.3,4.58,2.4-3.29,4.79-6.59,7.19-9.89-4.62-3.27-9.24-6.54-13.87-9.81h0Z"/>
        <path class="cls-10" d="M127.71,166.88c2.9,1.82,5.82,3.63,8.73,5.46,7.37-10.69,14.74-21.39,22.12-32.09-2.49-1.82-4.99-3.63-7.48-5.46"/>
        <path class="cls-10" d="M143.61,161.91c-2.65-1.88-5.31-3.74-7.96-5.62"/>
        <path class="cls-10" d="M150.67,151.21c-2.65-1.88-5.31-3.74-7.96-5.62"/>
        <path class="cls-22" d="M125.16,157.32c.86-1.1,1.73-2.21,2.6-3.32-2.94-2.15-5.89-4.29-8.82-6.43-.86,1.07-1.73,2.15-2.6,3.22,2.94,2.18,5.89,4.36,8.82,6.54h0Z"/>
        <path class="cls-22" d="M133.16,147.56c.83-1.14,1.66-2.29,2.49-3.43-1.21-.83-2.43-1.66-3.63-2.49-.8,1.04-1.59,2.07-2.39,3.12,1.18.93,2.35,1.87,3.53,2.8Z"/>
        <path class="cls-1" d="M132.22,143.3c.96-1.35,1.94-2.7,2.9-4.05"/>
        <path class="cls-22" d="M129.42,141.02c2.15.07,4.29.14,6.43.21,2.29-3.15,4.57-6.3,6.85-9.45-3.88-2.6-7.75-5.19-11.63-7.79-2.8,4.05-5.61,8.1-8.41,12.15,2.25,1.63,4.5,3.26,6.75,4.88h0Z"/>
        <path class="cls-19" d="M126.41,135.2c.93-1.21,1.87-2.43,2.8-3.63,1.46,1.04,2.9,2.07,4.36,3.12-.87,1.32-1.73,2.63-2.6,3.95-1.52-1.14-3.04-2.29-4.57-3.43h0Z"/>
        <path class="cls-22" d="M121.93,138.59c-.54-.4-1.1-.8-1.64-1.21-.83,1.14-1.67,2.29-2.49,3.43.45.38.9.76,1.35,1.13.89-1.15,1.88-2.23,2.79-3.36h0Z"/>
        <path class="cls-22" d="M122.81,139.24c-.93,1.15-1.93,2.25-2.83,3.42.58.49,1.18.99,1.76,1.49.93-1.21,1.86-2.43,2.81-3.63-.57-.43-1.15-.85-1.74-1.27h0Z"/>
        <path class="cls-22" d="M128.38,149.22c.38-.59.76-1.18,1.14-1.76-.8-.69-1.59-1.38-2.39-2.07-.45.59-.9,1.18-1.35,1.76.86.69,1.73,1.38,2.59,2.07h0Z"/>
        <path class="cls-22" d="M137.42,117.87c2.07-1.32,4.15-2.63,6.23-3.94,1.9,2.94,3.8,5.89,5.71,8.82-2.12,1.28-4.22,2.57-6.34,3.84-1.87-2.9-3.74-5.82-5.6-8.72h0Z"/>
        <path class="cls-22" d="M136.17,113.71c.35.59.69,1.18,1.04,1.76,1.01-.56,2.01-1.11,3.01-1.67l-.82-1.63c-1.08.5-2.16,1.01-3.24,1.52h0Z"/>
        <path class="cls-22" d="M139.81,110.08c.52,1.06,1.05,2.11,1.59,3.17.43-.22.85-.46,1.27-.68-.54-1.03-1.07-2.04-1.61-3.07-.41.19-.83.38-1.25.57h0Z"/>
        <path class="cls-22" d="M183.73,94.81c.55-.83,1.1-1.67,1.66-2.49.87.66,1.73,1.32,2.6,1.97-.55.76-1.1,1.53-1.66,2.29-.87-.59-1.73-1.18-2.6-1.76h0Z"/>
        <path class="cls-22" d="M155.74,70.56c-.05-.04-.1-.08-.15-.13-.02-.01-.04-.04-.07-.06,0,0-.01-.01-.02-.01-.21-.16-.43-.32-.65-.48-.34-.25-.68-.48-1.03-.71-.17.26-.35.51-.51.77.87.59,1.73,1.18,2.6,1.76.05-.07.12-.15.17-.24-.13-.28-.21-.57-.27-.87-.02-.01-.04-.04-.06-.04h0Z"/>
        <path class="cls-22" d="M154.96,67.45c-.18.26-.35.54-.54.8.7.47,1.38.96,2.03,1.48.04-.01.07-.03.12-.04.15-.04.32-.04.47-.04.11,0,.21.04.29.1.07-.11.15-.21.24-.32-.87-.66-1.73-1.32-2.6-1.97h0Z"/>
        <path class="cls-10" d="M179.99,97.31c2.29,1.46,4.57,2.9,6.85,4.36,2.52-3.81,5.05-7.61,7.58-11.43-4.5-3.25-9-6.5-13.5-9.76-2.63,3.88-5.26,7.75-7.89,11.63"/>
        <path class="cls-10" d="M160.36,81.11c2.88,2.25,5.74,4.5,8.62,6.75,2.29-3.63,4.57-7.27,6.85-10.9-3.22-2.46-6.43-4.92-9.66-7.37-1.01,1.28-2.01,2.57-3.01,3.84"/>
        <path class="cls-10" d="M158.08,73.32c1.35-1.94,2.7-3.88,4.05-5.82-2.46-1.8-4.91-3.6-7.37-5.4-1.25,1.73-2.49,3.46-3.74,5.2"/>
        <path class="cls-19" d="M141.36,99.38c-5.33-8.72-10.66-17.44-15.99-26.17,1.25-1.8,2.49-3.6,3.74-5.39,7.48,5.54,14.96,11.07,22.43,16.61-3.39,4.99-6.79,9.96-10.18,14.96h0Z"/>
        <path class="cls-10" d="M149.98,71.97c2.52,1.94,5.05,3.88,7.58,5.82"/>
        <path class="cls-10" d="M135.86,60.76c2.6,1.69,5.2,3.39,7.79,5.09,1.59-2.74,3.18-5.47,4.78-8.2-2.21-1.56-4.43-3.12-6.65-4.67l-2.18,3.63"/>
        <path class="cls-10" d="M139.08,50.58c-1.25-.94-2.49-1.87-3.74-2.81-2.01,2.74-4.01,5.47-6.02,8.2"/>
        <path class="cls-1" d="M126.72,61.9c-1.9,2.77-3.81,5.53-5.71,8.31"/>
        <path class="cls-18" d="M160.96,136.5c.54.44,1.09.88,1.63,1.32.26-.41.52-.83.78-1.25-.55-.43-1.1-.85-1.66-1.27-.25.4-.5.8-.75,1.19h0Z"/>
        <path class="cls-18" d="M146.94,141.16c.54.44,1.09.88,1.63,1.32.26-.41.52-.83.78-1.25-.55-.43-1.1-.85-1.66-1.27-.25.4-.5.8-.75,1.19h0Z"/>
        <path class="cls-18" d="M132.37,162.23c.54.44,1.09.88,1.63,1.32.26-.41.52-.83.78-1.25-.55-.43-1.1-.85-1.66-1.27-.25.4-.5.8-.75,1.19h0Z"/>
        <path class="cls-22" d="M112.22,159.38c.54.44,1.09.88,1.64,1.32.26-.41.52-.83.78-1.25-.56-.43-1.11-.85-1.67-1.27-.25.4-.5.8-.75,1.19h0Z"/>
        <path class="cls-18" d="M139.63,151.99c.54.44,1.09.88,1.63,1.32.26-.41.52-.83.78-1.25-.55-.43-1.1-.85-1.66-1.27-.25.4-.5.8-.75,1.19h0Z"/>
        <path class="cls-18" d="M120.07,164.85c.54.44,1.09.88,1.64,1.32.26-.41.52-.83.78-1.25-.56-.43-1.11-.85-1.67-1.27-.25.4-.5.8-.75,1.19h0Z"/>
        <path class="cls-10" d="M200.86,123.16c-3.98-2.74-7.96-5.47-11.94-8.2"/>
        <path class="cls-10" d="M195.88,129.6c.52-.73,1.04-1.46,1.55-2.18"/>
        <path class="cls-10" d="M191.41,135.62c.59-.73,1.18-1.46,1.76-2.18"/>
        <path class="cls-18" d="M180.3,130.74c-.76-.55-1.52-1.1-2.29-1.66,2.88-4.05,5.74-8.1,8.62-12.15.8.52,1.59,1.04,2.39,1.56-.83,1.21-1.66,2.43-2.49,3.63-1.3-.1-2.21.22-2.29.63-.06.35.51.81,1.25,1.14,1.98,1.32,3.95,2.63,5.92,3.94-.49.83-.96,1.66-1.46,2.49-1.94-1.1-3.88-2.21-5.82-3.32-.65-1.18-1.33-1.99-1.66-1.86-.34.13-.34,1.25,0,2.7-.73.96-1.46,1.94-2.18,2.9h0Z"/>
        <path class="cls-10" d="M188.5,140.71c-3.91-2.8-7.82-5.6-11.74-8.41"/>
        <path class="cls-18" d="M168.88,141.65c1.38.9,2.77,1.8,4.15,2.7.87-1.14,1.73-2.29,2.6-3.43-1.14-1.18-2.29-2.35-3.43-3.53-1.1,1.41-2.21,2.84-3.32,4.26h0Z"/>
        <path class="cls-10" d="M170.85,164.9c-3.6-2.63-7.2-5.26-10.8-7.89"/>
        <path class="cls-19" d="M105.59,182.14c1.71-2.29,3.43-4.57,5.14-6.85-2.54-1.82-5.09-3.63-7.64-5.46-1.71,2.49-3.43,4.99-5.14,7.48,2.54,1.61,5.09,3.22,7.64,4.83h0Z"/>
        <path class="cls-2" d="M108.86,181.36c.59.5,1.18,1.01,1.76,1.51"/>
        <path class="cls-8" d="M97.09,179.35c-.82-.55-1.64-1.11-2.46-1.67"/>
        <path class="cls-4" d="M106.68,185.88c-.91-.62-1.82-1.24-2.74-1.87"/>
        <path class="cls-10" d="M176.62,153.8c1.16-1.91,2.32-3.82,3.49-5.73-1.38-1.49-3.03-3.3-4.79-4.3"/>
        <path class="cls-1" d="M173.79,146.95c.17.59.58,1.1,1.12,1.39"/>
        <path class="cls-1" d="M171.96,149.72l1.55,1.1"/>
        <path class="cls-1" d="M169.58,151.95c.36.32.73.63,1.09.94"/>
        <path class="cls-10" d="M161.46,177.9c.71-.94,1.44-1.88,2.15-2.82"/>
        <path class="cls-10" d="M165.71,171.54c.71-.94,1.44-1.88,2.15-2.82"/>
        <path class="cls-10" d="M149.48,195.35c.71-.94,1.44-1.88,2.15-2.82"/>
        <path class="cls-10" d="M153.73,188.99c.71-.94,1.44-1.88,2.15-2.82"/>
        <path class="cls-10" d="M152.16,177.78c2.4,2.01,4.79,4.03,7.19,6.04"/>
        <path class="cls-10" d="M154.08,165.88c2.15,1.76,4.29,3.51,6.43,5.26"/>
        <path class="cls-10" d="M139.43,195.18c2.21,2.15,4.62,4.09,7.18,5.8"/>
        <path class="cls-10" d="M142.08,183.65c1.9,1.54,3.79,3.07,5.7,4.6"/>
        <path class="cls-1" d="M148.73,182.14c1.09.88,2.18,1.76,3.27,2.65"/>
        <path class="cls-1" d="M155.28,173.57c.83.63,1.66,1.25,2.49,1.87"/>
        <path class="cls-10" d="M156.05,163.76c.82-1.12,1.63-2.23,2.45-3.35"/>
        <path class="cls-10" d="M149.14,173.21c.82-1.12,1.63-2.23,2.45-3.35"/>
        <path class="cls-10" d="M143.62,180.18c.82-1.12,1.63-2.23,2.45-3.35"/>
        <path class="cls-10" d="M137.23,189.93c.82-1.12,1.63-2.23,2.45-3.35"/>
        <g class="cls-23">
          <g>
            <path class="cls-19" d="M312.69,75.6c6.34-1.83,12.67-3.67,19.02-5.5,1.83,7.31,3.66,14.6,5.49,21.91-5.47.8-10.94,1.59-16.4,2.39-.49-.71-1.02-1.44-1.55-2.18-.87-1.18-1.73-2.29-2.6-3.32-1.32-4.43-2.63-8.86-3.95-13.29h0Z"/>
            <path class="cls-3" d="M223.03,205.05c-.05-1.35-.22-3.26-.78-5.47-.4-1.6-1.01-3.95-2.65-6.54-.26-.4-1.55-2.43-3.9-4.51-2.46-2.2-3.42-2.1-4.21-3.58-.95-1.78-.4-3.49.04-6.02.58-3.29.32-6.68.57-10.02.29-3.92-.99-10.15-7.95-20.25"/>
            <path class="cls-3" d="M221.31,196.49c1.08-.47,2.76-1.35,4.36-2.99,2.26-2.31,3.13-4.87,3.58-6.23,1.06-3.24.26-3.78,1.25-5.76.29-.59,1.28-2.51,6.07-4.99,3.2-1.65,8.18-4.21,14.77-3.96,4.05.16,4.68,1.23,10.15,1.3,4.11.06,3.89-.54,6.86-.31,5.11.4,6.06,2.23,11.52,2.65,2.88.22,5.13.37,6.55-1.09.33-.35.74-.93,1.4-6.23.38-3.04.57-4.57.31-5.29-1.09-3.1-4.46-3.01-4.67-5.29-.04-.38.04-.57,2.65-5.29,1.02-1.85,1.24-2.26,1.25-2.96.02-1.62-1.27-2.62-2.65-4.21-1.11-1.26-2.51-3.16-3.74-5.92"/>
            <path class="cls-17" d="M289.08,199.25c-.48.29-1,.53-1.39.93-.92.92-.99,2.58-2.14,3.21-.96.52-2.13.02-3.22-.02-.86-.04-1.71.22-2.57.23-.96,0-1.89-.32-2.81-.63-.89-.3-1.86-.68-2.32-1.51-.67-1.23.27-2.85,1.55-3.39,1.29-.54,2.76-.32,4.14-.06,1.38.27,2.81.58,4.15.2.83-.24,1.57-.73,2.38-1.05,1.86-.75,4.97.4,2.23,2.12h0Z"/>
            <path class="cls-17" d="M341.24,173.42v2.99c-.71-.15-1.39-.41-2-.8-.61-.4-1.2-1.21-.78-1.8.27-.4.83-.45,1.31-.39.48.06.97.19,1.43.04.02,0,.02-.01.04-.01h0Z"/>
            <path class="cls-17" d="M315.17,150.95c.81,1.61,1.92,3.46,1.11,5.07-.49.97-1.55,1.51-2.6,1.82-3.35.99-6.95.27-10.29-.74-2.04-.62-4.13-1.39-5.59-2.94-2.67-2.84-2.42-7.34-1.26-11.06.88-2.82,2.23-5.57,4.43-7.54,2.2-1.97,5.36-3.03,8.18-2.18,3.11.93,4.55,3.82,4.5,6.88-.07,3.82-.27,7.13,1.52,10.68h0Z"/>
            <path class="cls-3" d="M279.9,135.82c-8.18-1.92-13.67-.74-17.15.68-4.08,1.67-5.27,3.62-10.28,4.83-5.75,1.39-10.47.35-10.75,1.55-.22.97,2.9,1.55,5.07,5.04.45.73,2.26,3.63,1.16,6.02-.3.66-.88,1.43-2.65,2.34-4.39,2.27-7.07.8-10.43,2.18-3.12,1.27-3.56,3.66-5.93,6.32-2.57,2.89-7.3,6.03-16.93,6.62"/>
            <path class="cls-10" d="M306.67,98.97c-.94-.82-1.87-1.63-2.81-2.44-.74-.64-1.29-1.49-1.57-2.43-.93-3.12-1.86-6.24-2.79-9.36-.05-.19-.29-1.19.31-2.18.45-.74,1.11-1.04,1.35-1.14,3.08-.9,6.16-1.8,9.24-2.7"/>
            <path class="cls-10" d="M317.76,100.47c3.43-1.08,6.86-2.18,10.3-3.26"/>
            <path class="cls-1" d="M325.14,108.57c1.42.2,2.84.4,4.26.61"/>
            <path class="cls-22" d="M320.69,80.28c.23,1.43.64,2.83,1.23,4.16,3.88-.92,7.48-1.83,11.11-3.47-.48-1.32-.67-2.68-1.14-4-3.78,1.12-7.4,2.19-11.18,3.32h0Z"/>
            <path class="cls-18" d="M292.34,84.01c1.66,4.14,3.68,8.14,6.04,11.93-.5.6-1.11,1.13-1.89,1.26-4.93-1.67-9.23-4.62-12.68-8.53,1.35-.63,2.8-1.25,4.15-1.89-.05.5.55,1.24,1.05,1.25s.96-.4,1.04-.89-.22-1-.67-1.22c1.07-.67,1.89-1.25,2.95-1.92h0Z"/>
            <path class="cls-10" d="M303.23,43.73c-.67-2.04-1.34-4.08-2.01-6.13,6.6-2.13,13.19-4.26,19.78-6.39,1.45,4.2,2.9,8.41,4.36,12.61-.83.26-1.67.52-2.49.78"/>
            <path class="cls-10" d="M307.81,57.68c-.96-2.94-1.93-5.89-2.9-8.83"/>
            <path class="cls-10" d="M325.04,51.74c.83-.26,1.65-.53,2.48-.8,1.2,4.14,2.55,8.33,3.96,12.4-6.61,2.01-13.22,4.02-19.83,6.04-.64-1.96-1.29-3.93-1.93-5.9"/>
            <path class="cls-22" d="M288.07,62.38c.58,2.08,1.15,4.15,1.73,6.23-1.17.74-2.32,1.32-3.7,1.39-.58-2.07-1.2-4.14-1.78-6.21,1.36-.69,2.38-.71,3.74-1.4h0Z"/>
            <path class="cls-1" d="M284.86,54.74c.42,1.08.83,2.15,1.25,3.22"/>
            <path class="cls-1" d="M281.95,55.47l.52,1.87"/>
            <path class="cls-10" d="M337.38,112.53c1.51-3.63,3.02-7.26,4.53-10.9-2.42-1.47-4.76-3.08-7.19-4.56"/>
            <path class="cls-22" d="M318.42,87.44c.34,1,.68,2.01,1.02,3.01,2.26-.76,4.51-1.53,6.76-2.29,3.42,1.21,6.86,2.42,10.27,3.63.37-1.17.73-2.35,1.11-3.52-3.42-1.32-6.83-2.64-10.24-3.96-2.97,1.04-5.94,2.07-8.92,3.11h0Z"/>
            <path class="cls-10" d="M292.65,47.88c-1.14-3.22-2.29-6.44-3.43-9.66"/>
            <path class="cls-10" d="M286.73,39.47c-4.98.42-9.96.83-14.95,1.25-.42.18-1.58.72-2.34,2.03-1.12,1.93-.42,3.92-.31,4.21.46,2.7.93,5.4,1.4,8.1,1.45-.37,2.9-.72,4.36-1.09"/>
            <path class="cls-10" d="M275.98,61.27c-1.67-.15-3.32-.31-4.98-.47.02.73-.03,1.85-.46,3.12-.6,1.72-1.6,2.86-2.18,3.43.18.86,1.55,6.76,7.32,9.81,4.48,2.37,8.8,1.52,9.96,1.25,4.68-1.82,9.36-3.65,14.04-5.48-.68-2.38-1.36-4.75-2.05-7.14"/>
            <path class="cls-15" d="M308.22,41.5c2.23,6.9,4.46,13.81,6.7,20.72,3.17-1.04,6.33-2.08,9.5-3.12-2.18-6.8-4.36-13.6-6.55-20.4-3.22.94-6.43,1.87-9.66,2.81h.01Z"/>
            <path class="cls-10" d="M343.89,50.06c-1.77.67-3.53,1.35-5.3,2.03-1.25-4.57-2.49-9.13-3.74-13.7,2.55-.94,5.09-1.87,7.64-2.81"/>
            <path class="cls-18" d="M341.24,73.74v3.96c-1.14-.22-2.29-.46-3.43-.68.15-1.08.32-2.18.46-3.26h2.96Z"/>
            <path class="cls-10" d="M334.54,117.5c-1.51,1.5-3.02,3.01-4.52,4.51-6.6-4.99-13.19-9.97-19.78-14.96,1.45-1.92,2.9-3.84,4.36-5.76"/>
            <path class="cls-10" d="M272.4,17.82c-.02.1-.27,1.14-1.25,1.56-.83.35-1.84.1-2.49-.63-2.8-2.28-5.61-4.57-8.41-6.85,2.6-2.81,5.2-5.61,7.79-8.41"/>
            <path class="cls-18" d="M295.14,17.82c-.6.85-1.51,1.05-1.71,1.08-4.1.93-8.2,1.86-12.3,2.8-.82.18-1.61-.06-2.02-.62-.26-.35-.31-.72-.32-.93-.05-5.71-.11-11.43-.15-17.14h14.86c.65,4.11,1.3,8.2,1.95,12.3.04.13.46,1.38-.32,2.49h0Z"/>
            <path class="cls-18" d="M317.41,12.68c-.86,1.08-2.17,1.1-2.33,1.1-3.43,1.09-6.86,2.18-10.28,3.26-.76.5-1.73.42-2.33-.16-.49-.47-.67-1.19-.47-1.86-.52-4-1.05-8-1.58-12h15.1c.74,2.18,1.48,4.36,2.22,6.54.49,1.04.38,2.26-.31,3.11h0Z"/>
            <path class="cls-18" d="M340.63,3.03c-4.21,2.29-8.41,4.57-12.63,6.86-.28.09-.95.26-1.71,0-1.39-.45-1.83-1.88-1.88-2.03l-1.86-4.83h18.08Z"/>
            <path class="cls-10" d="M262.9,27.17c1.51-.16,3.02-.31,4.52-.47"/>
            <path class="cls-10" d="M274.27,8.48c.05.98.1,1.98.15,2.96"/>
            <path class="cls-10" d="M212.28,51.93c-.21,3.17-.41,6.33-.63,9.5-5.09-.47-10.18-.94-15.26-1.4"/>
            <path class="cls-10" d="M198.42,50.84c.15-3.06.31-6.13.46-9.19,5.04.26,10.07.52,15.1.78"/>
            <path class="cls-10" d="M191.41,39.47c-4.51-1.56-9.04-3.12-13.55-4.67-.93,2.23-1.87,4.47-2.8,6.69"/>
            <path class="cls-10" d="M189.23,49.59c-1.66,2.28-3.32,4.57-4.99,6.85-3.01-1.92-6.02-3.84-9.04-5.76"/>
            <path class="cls-10" d="M168.05,38.85c-1.14,1.4-2.29,2.81-3.43,4.21-3.99-3.01-7.99-6.02-11.99-9.03"/>
            <path class="cls-10" d="M172.1,31.22c-4.99-3.58-9.96-7.16-14.96-10.75-1.71,2.28-3.43,4.57-5.14,6.85"/>
            <path class="cls-1" d="M203.1,48.3c1.5.19,3.01.38,4.51.56"/>
            <path class="cls-10" d="M210.73,47.76c1.24.1,2.49.19,3.73.28"/>
            <path class="cls-10" d="M230.5,47.72c.73.1,1.46.21,2.18.31"/>
            <path class="cls-10" d="M190.33,46.11c.82.17,1.65.34,2.48.51"/>
            <path class="cls-10" d="M169.45,36.82l1.55,1.25"/>
            <path class="cls-10" d="M164.44,34.01l.77-1.25"/>
            <path class="cls-10" d="M223.34,12.21c-.02,3.68-.05,7.38-.07,11.06"/>
            <path class="cls-10" d="M223.28,20.94c-2.93.35-6.92.63-11.62.31-1.55-.1-8.49-.64-17.29-3.74-11.1-3.9-19.56-9.91-25.23-14.8"/>
            <path class="cls-10" d="M168.52,5.67c1.25-.99,2.49-1.97,3.74-2.96"/>
            <path class="cls-10" d="M184.24,15.64c1.66-3.11,3.32-6.23,4.99-9.35"/>
            <path class="cls-10" d="M204.96,22.96c.46-3.9.93-7.78,1.4-11.68"/>
            <path class="cls-18" d="M225.39,3.03c-.05,1.14-.12,2.29-.18,3.43-2.96-.16-5.92-.32-8.88-.47.04-.99.06-1.97.1-2.96h8.96Z"/>
            <path class="cls-1" d="M216.8,17.02l1.25.16"/>
            <path class="cls-1" d="M216.8,13.16c.65-.24,1.38-.26,2.03-.03"/>
            <path class="cls-1" d="M211.04,11.9v1.56"/>
            <path class="cls-22" d="M205.57,5.22c.62.52,1.24,1.05,1.87,1.57-.21-1.14-.24-2.47-.45-3.61-.11.89-.54,1.82-1.41,2.04h0Z"/>
            <path class="cls-22" d="M204.95,6l1.55,1.56c-1.32.18-2.68.11-3.87-.49.84-.16,1.76-.41,2.32-1.06h0Z"/>
            <path class="cls-22" d="M198.46,10.65c.1,1.45.2,2.9.29,4.36-.13-.56,1.02-1.24,1.45-.85s.04,1.25-.52,1.19c.1.19.18.67.29.85.52-.08,1.05-.17,1.57-.26.06-.94-.06-1.72,0-2.65-1.44.32-3.21-1.18-3.08-2.65h0Z"/>
            <path class="cls-22" d="M197.53,12.84c-.1.63-.21,1.24-.32,1.86-.37-.83-1.3-1.25-2.21-1.23v-1.42c.78.21,1.75.58,2.54.78h0Z"/>
            <path class="cls-22" d="M201.05,4.41c-.46.72-.93,1.45-1.4,2.18-.88-.18-1.7-.61-2.32-1.24,1.45.26,2.65.07,3.72-.94h0Z"/>
            <path class="cls-22" d="M197.17,3.18c-.46.58-.93,1.14-1.4,1.72-.95-.43-1.77-1.14-2.35-2.02,1.35.44,2.37.6,3.76.3h0Z"/>
            <path class="cls-22" d="M182.28,3.03c.71,1.02,1.62,1.83,2.71,2.49.05-1.08.79-2.08,1.78-2.49h-4.49,0Z"/>
          </g>
        </g>
        <g class="cls-26">
          <g>
            <path class="cls-14" d="M106.06,205.97c-12.25-9.29-24.5-18.58-36.76-27.88,6.96-9.87,13.92-19.73,20.88-29.59,15.32,10.7,30.63,21.39,45.94,32.08-5.76,8.41-11.53,16.82-17.29,25.23"/>
            <path class="cls-14" d="M102.01,205.05c-33.13-25.03-66.25-50.06-99.37-75.09"/>
            <path class="cls-14" d="M68.83,133.39c6.6,4.62,13.19,9.24,19.78,13.87-6.86,9.96-13.71,19.93-20.56,29.9-20.82-15.68-41.64-31.36-62.46-47.04,5.24-7.94,10.49-15.89,15.73-23.83.3-.81.6-1.93.63-3.27.05-3.21-1.53-5.53-2.18-6.39-5.82-3.99-11.62-7.97-17.43-11.96"/>
            <path class="cls-14" d="M2.17,127.63c.58.42,1.14.83,1.72,1.25,5.3-7.79,10.59-15.57,15.89-23.36.25-.68.75-2.25.39-4.21-.42-2.29-1.75-3.71-2.26-4.21-5.03-3.48-10.07-6.96-15.1-10.43"/>
            <path class="cls-14" d="M118.21,59.25c-17.55-12.51-35.1-25.02-52.65-37.54-1.3.83-2.8,1.69-4.51,2.49-2.88,1.34-5.56,2.15-7.78,2.65-2.9.63-5.81,1.25-8.73,1.86-13.99,2.98-27.91,5.83-41.74,8.57"/>
            <path class="cls-14" d="M118.87,57.89c-17.4-12.48-34.81-24.95-52.22-37.42,1.58-1.66,3.21-3.47,4.83-5.46,1.32-1.61,2.25-2.85,2.81-3.58,2.39-3.17,5.2-6.91,8.57-11.37"/>
            <path class="cls-14" d="M2.64,35.73c11.49-1.99,23.29-4.26,35.35-6.85,6.07-1.31,12.04-2.66,17.91-4.05,1.38-.38,3.01-.92,4.74-1.75,1.35-.65,2.53-1.33,3.51-1.99"/>
            <path class="cls-14" d="M65.09,19.85c1.54-1.66,3.11-3.41,4.67-5.3,3.52-4.23,6.5-8.38,9.04-12.31"/>
            <path class="cls-14" d="M77.24,2.4c-3.58,4.57-7.17,9.14-10.75,13.71-.69.92-1.61,1.95-2.81,2.96-2.65,2.23-5.39,3.25-7.17,3.74-7.67,2-15.61,3.94-23.83,5.76-10.3,2.28-20.27,4.24-29.91,5.92"/>
            <path class="cls-14" d="M131.29,43.05c22.75,15.94,45.49,31.89,68.24,47.83"/>
            <path class="cls-14" d="M200.28,89.77c-22.57-15.94-45.13-31.88-67.69-47.81"/>
            <path class="cls-14" d="M215.86,36.35c.57.35,2.04,1.35,2.8,3.27.43,1.06.49,2.03.46,2.65.07,3.92-.21,9.08-1.55,14.96-1.32,5.74-3.25,10.4-4.99,13.86-2.93,4.51-5.89,9.03-8.88,13.55-21.8,32.98-44.07,64.53-66.66,94.69-22.58-15.84-45.17-31.67-67.75-47.51"/>
            <path class="cls-14" d="M120.7,206.13c6.77-9.57,15.56-21.99,21.91-30.94,31.01-43.75,47.54-66.92,68.74-99.43,1.15-1.76,2.08-3.19,2.63-4.04,1.91-3.68,4.01-8.61,5.47-14.65,1.63-6.76,1.93-12.73,1.79-17.29-.04-1.06.49-2.08,1.41-2.58,0,0,.01,0,.02-.01,1.16-.63,2.26-.57,2.7-.52"/>
            <path class="cls-14" d="M211.19,36.2c-.54.42-1.54,1.07-2.96,1.4-1.59.38-2.9.16-3.58,0-4.18-.59-8.95-1.58-14.07-3.22-9.93-3.18-17.67-7.67-23.15-11.52-.35-.21-1.05-.72-1.55-1.66-.43-.82-.51-1.58-.52-1.98"/>
            <path class="cls-14" d="M163.89,18.29c0,.66.1,1.84.73,3.11.46.92,1.04,1.58,1.46,1.98,3.95,2.93,9.06,6.19,15.37,9.03,9.1,4.1,17.42,5.86,23.57,6.65,1.01.06,2.57.04,4.36-.52,1.4-.44,2.48-1.05,3.22-1.56"/>
            <path class="cls-14" d="M212.59,32.93c-.32-.21-.81-.53-1.46-.83-1.73-.83-3.24-.99-3.63-1.03-1.79-.22-11.3-1.71-16.61-3.43,0,0-6.66-2.16-20.14-10.28-.29-.17-1.21-.75-2.49-.83-.56-.03-1.02.03-1.35.1"/>
            <path class="cls-14" d="M214.46,32.82c-.7-.6-1.74-1.35-3.12-1.98-1.42-.64-2.71-.91-3.63-1.04-4.61-.5-10.27-1.52-16.51-3.63-8.85-3-15.66-7.11-20.35-10.49-.54-.22-1.37-.47-2.39-.52-1.17-.06-2.12.15-2.72.35"/>
            <path class="cls-14" d="M152.99,9.77c-3.53-2.43-7.06-4.84-10.59-7.27"/>
            <path class="cls-14" d="M145.72,2.51c2.7,1.94,5.4,3.88,8.1,5.81"/>
            <path class="cls-14" d="M156,8.32c-2.74-1.94-5.47-3.88-8.2-5.82"/>
            <path class="cls-14" d="M152.58,10.92c-3.91-2.6-7.82-5.2-11.74-7.78"/>
            <path class="cls-14" d="M229.52,32.62c.1-.08.2-.17.3-.26,1.06-.89,1.67-2.21,1.66-3.59-.04-8.55-.07-17.09-.1-25.64"/>
            <path class="cls-14" d="M234.91,32.62c-.1-.08-.2-.17-.3-.26-1.06-.89-1.67-2.21-1.66-3.59.04-8.55.07-17.09.1-25.64"/>
            <path class="cls-14" d="M342.49,137.49c-11.96-8.9-21.58-16.25-28.35-21.49-6.71-5.19-13.8-10.76-25.55-19.72-4.52-3.44-8.26-6.28-10.8-8.2.05-.37.11-1.11-.21-1.97-.35-.96-.95-1.53-1.25-1.76-2.26-1.35-5.83-3.89-8.83-8.2-.99-1.44-3.14-4.58-4.15-9.14-1.46-6.54-.76-16.69-1.04-20.35-.04-.44-.13-1.4-.73-2.39-.43-.72-.98-1.19-1.35-1.46-.1-3.71-.21-7.41-.31-11.11-.1-.43-.27-1.02-.63-1.67-.27-.49-.58-.86-.83-1.14-.69-8.86-1.39-17.72-2.08-26.58"/>
            <path class="cls-14" d="M342.07,135.62c-2.6-1.89-5.19-3.79-7.79-5.71-13.39-9.88-26.42-19.81-39.14-29.79-.61-.48-1.36-.76-2.13-.81-.15-.01-.32-.01-.47-.03"/>
            <path class="cls-14" d="M341.66,133.86c-12.3-8.89-24.7-18.19-37.17-27.93-2.94-2.29-5.86-4.6-8.75-6.9-.88-.7-1.95-1.14-3.07-1.19h-.13c-.68-.03-1.3.01-1.8.08"/>
            <path class="cls-14" d="M341.66,138.22c-8.03-6.09-16.06-12.18-24.09-18.28-13.38-10.17-26.73-20.34-40.08-30.53-.7-.54-2.95-1.94-5.61-4.25-.93-.82-4.64-4.06-7.17-7.68-3.71-5.35-4.27-10.72-5.2-19.83-.35-3.4-.65-8.15-.42-13.92.33.25,1.02.84,1.45,1.86.42.99.39,1.88.35,2.29-.08,1.58-.15,3.83-.07,6.54.12,4.1.21,7.44,1.18,11.53.77,3.2,2.02,8.49,5.68,12.61.9,1.01,2.67,2.79,4.7,4.52,1.24,1.07,2.33,1.91,3.11,2.49.14.08,1.13.71,1.27,1.89.07.56-.09,1.04-.23,1.34"/>
            <path class="cls-14" d="M341.76,139.77c-21.73-17.16-34.3-26.42-41.95-31.78-8.26-5.78-16.04-12.19-24.19-18.11-.67-.49-2.76-2-5.3-4.32-2.45-2.24-4.27-4.26-5.39-5.61,0,0-1.6-2.01-2.9-4.15-4.53-7.43-4.36-23.82-4.57-39.88-.04-2.84-.08-5.11-.1-6.33-.17-1.48-.33-2.96-.48-4.45-.29-2.8-.96-8.8-1.7-22.55"/>
            <path class="cls-14" d="M259.07,44.77c-.13-4.08-.26-8.17-.38-12.26-.1-.62-.3-1.42-.73-2.28-.21-.44-.45-.82-.68-1.14"/>
            <path class="cls-14" d="M303.45,26.59c.2-.36.5-.81.93-1.25.76-.76,1.57-1.16,2.08-1.35,3.92-1.08,8.02-2.35,12.26-3.84,8.81-3.1,16.64-6.63,23.46-10.18"/>
            <path class="cls-14" d="M342.18,8.53c-4.88,2.6-10.36,5.22-16.4,7.69-7.52,3.07-14.58,5.34-20.98,7.06-.6.25-1.5.72-2.39,1.56-.96.92-1.49,1.89-1.77,2.49"/>
            <path class="cls-14" d="M317.26,26.08c.61.31,1.8.82,3.32.73.67-.04,1.25-.18,1.68-.33,3.74-1.24,7.7-2.7,11.82-4.44,2.89-1.22,5.63-2.48,8.2-3.74"/>
            <path class="cls-14" d="M342.28,16.94c-2.83,1.53-5.98,3.09-9.45,4.57-4.11,1.75-7.98,3.1-11.52,4.16-.45.01-.94.01-1.45,0s-1-.06-1.45-.1"/>
            <path class="cls-14" d="M36.59,177.16c-6.96,9.69-13.92,19.38-20.88,29.07"/>
            <path class="cls-14" d="M13.95,206.44c7.23-10.04,14.47-20.07,21.7-30.11"/>
            <path class="cls-14" d="M12.19,206.13c-3.36-3.71-6.72-7.41-10.07-11.11"/>
            <path class="cls-14" d="M10.42,205.92c-2.63-2.8-5.26-5.6-7.89-8.41"/>
            <path class="cls-14" d="M2.43,183.39c7.58-3.46,15.16-6.92,22.74-10.38.55-.21,1.25-.41,2.08-.52,1.28-.17,2.36-.04,3.11.1"/>
            <path class="cls-14" d="M2.43,185.15c12.39-5.98,21.51-10.22,23.37-10.9,1.04-.38,2.08-.52,2.08-.52.66-.1,1.48-.15,2.41-.07.56.04,1.06.13,1.5.24"/>
            <path class="cls-14" d="M217.37,36.46c.33.13.85.37,1.35.83.59.53.89,1.11,1.04,1.46.26-.4.68-.95,1.35-1.46.89-.67,1.77-.93,2.29-1.04"/>
          </g>
        </g>
        <g class="cls-25">
          <g>
            <path class="cls-7" d="M36.59,177.16C75.91,120.96,115.24,64.77,154.55,8.58"/>
            <path class="cls-12" d="M152.64,11.31c7.28,5.3,13.76,9.13,18.61,11.78,9.21,5.01,18.65,10.05,31.82,12.33,4.21.73,7.74.99,10.1,1.1,16.83-.04,35.77-.63,56.11-2.19,16.65-1.28,31.35-2.98,48.91-8.86.55-.18.99-.33,1.3-.44,11.06-3.81,19.11-7.73,24.36-10.58"/>
            <path class="cls-12" d="M138.29,31.74c5.38-7.89,10.76-15.79,16.15-23.67,5.14,3.94,13.21,9.73,22.96,15.06,0,0,11.42,6.22,20.87,8.42.25.06.46.1.63.15,1.68.37,3.26.65,4.75.85,5.1.73,10.51.7,10.51.7,40.16-.18,57.94-2.34,57.94-2.34,16.7-2.03,26.67-3.24,40.34-7.32,10.29-3.08,19.05-6.69,26.08-10.05,2.98-1.42,5.45-2.7,7.26-3.66"/>
            <path class="cls-7" d="M79.11,208.46c-26.11-19.78-52.23-39.56-78.35-59.34"/>
          </g>
        </g>
        <g class="cls-24">
          <g>
            <path class="cls-11" d="M33.44,168.75c-.26-2.4.26-3.89.82-4.84.46-.76.97-1.21.99-2.07.01-.55-.17-1.15-1.46-2.75-1.22-1.51-1.83-2.26-2.96-3.12-1.58-1.19-2.81-2.12-4.51-2.02-.32.01-2.17.15-3.43,1.71-1.48,1.84-.89,4.09-.82,4.32"/>
            <g>
              <circle class="cls-17" cx="33.44" cy="168.75" r=".52"/>
              <circle class="cls-17" cx="29.08" cy="165.74" r=".52"/>
              <circle class="cls-17" cx="24.72" cy="162.37" r=".52"/>
              <circle class="cls-17" cx="22.07" cy="159.98" r=".52"/>
              <circle class="cls-17" cx="23.66" cy="155" r=".52"/>
              <circle class="cls-17" cx="28.55" cy="154.63" r=".52"/>
              <circle class="cls-17" cx="32.91" cy="157.85" r=".52"/>
              <circle class="cls-17" cx="35.25" cy="162.37" r=".52"/>
              <circle class="cls-17" cx="37.22" cy="171.61" r=".52"/>
              <circle class="cls-17" cx="13.64" cy="153.94" r=".52"/>
              <circle class="cls-17" cx="9.28" cy="150.93" r=".52"/>
              <circle class="cls-17" cx="4.92" cy="147.55" r=".52"/>
              <circle class="cls-17" cx="17.42" cy="156.8" r=".52"/>
              <circle class="cls-17" cx="54.29" cy="184.55" r=".52"/>
              <circle class="cls-17" cx="49.93" cy="181.54" r=".52"/>
              <circle class="cls-17" cx="45.57" cy="178.17" r=".52"/>
              <circle class="cls-17" cx="41.29" cy="174.73" r=".52"/>
              <circle class="cls-17" cx="58.6" cy="187.94" r=".52"/>
              <circle class="cls-17" cx="80.06" cy="204.79" r=".52"/>
              <circle class="cls-17" cx="75.6" cy="201.14" r=".52"/>
              <circle class="cls-17" cx="67.17" cy="194.58" r=".52"/>
              <circle class="cls-17" cx="62.81" cy="191.57" r=".52"/>
              <circle class="cls-17" cx="70.95" cy="197.44" r=".52"/>
            </g>
            <path class="cls-11" d="M2.74,145.59c26.24,20.11,52.47,40.21,78.71,60.32"/>
          </g>
        </g>
        <g class="cls-29">
          <g>
            <path class="cls-10" d="M2.8,51.62c1.35.88,2.7,1.76,4.05,2.65,2.13-3.17,4.26-6.33,6.39-9.5,3.37,2.28,6.75,4.57,10.12,6.85,2.28-3.17,4.57-6.33,6.85-9.5,3.22,2.39,6.44,4.78,9.66,7.17-2.18,3.27-4.36,6.55-6.55,9.81-1.35-.94-2.7-1.87-4.05-2.81"/>
            <path class="cls-10" d="M136.43,205.05c-2.39-1.3-4.78-2.61-7.16-3.91"/>
            <path class="cls-10" d="M125.53,205.05c2.8-3.73,5.59-7.46,8.39-11.18"/>
          </g>
        </g>
        <g class="cls-28">
          <path class="cls-13" d="M18.42,104.99c-3.98,5.64-7.96,11.28-11.94,16.92-.04.08-.4.71-1.14.83-.58.1-1.18-.14-1.55-.63-.72-.52-1.45-1.04-2.18-1.56"/>
        </g>
      </g>
      <g id="_Йеппи" data-name=" Йеппи">
        <g class="cls-27">
          <g>
            <path class="cls-21" d="M55.43,67.67c-1.04.16-1.83,1.05-1.88,2.12-.04,1.07.35,2.04.72,2.78.47.95,1.08,1.97,1.74,3.06.15.25.3.5.45.75-.35.18-.71.27-1.1.28-.99.01-2.19-.51-3.53-1.58-1.44-1.14-1.6-1.29-1.83-1.5-.08-.07-.18-.17-.33-.29l-1.26,1.45c.13.12.22.19.3.26.26.24.46.41,1.94,1.58,1.71,1.35,3.31,2.01,4.76,1.99.72-.01,1.4-.19,2.03-.54.18.33.35.66.51.99,1.1,2.25,1.08,3.36,1.08,3.38v-.02l1.92.15c.01-.15.08-1.6-1.27-4.35-.24-.49-.49-.96-.77-1.45.31-.51.58-1.26.63-2.36.06-1.2-.15-2.53-.59-3.75-1.12-3.06-2.96-3.03-3.49-2.94M57.13,71.27c.44,1.19.54,2.36.45,3.24-.6-1-1.17-1.95-1.58-2.79-.27-.56-.54-1.21-.52-1.84,0-.1.04-.18.1-.24.04-.04.09-.07.15-.07.13-.02.31.05.49.2.24.2.59.62.91,1.5"/>
            <path class="cls-6" d="M56.03,71.14c-.04.17.03.35.18.44s.35.09.48-.01c.14-.1.21-.29.15-.46"/>
            <path class="cls-20" d="M57.98,70.93c0,.19.24.36.52.36s.52-.16.52-.36-.24-.36-.52-.36-.52.16-.52.36"/>
            <path class="cls-20" d="M53.63,70.93c0,.19.24.36.52.36s.52-.16.52-.36-.24-.36-.52-.36-.52.16-.52.36"/>
            <path class="cls-6" d="M53.88,69.88c.15.25.49.43.85.44.35.01.71-.14.88-.39"/>
            <path class="cls-6" d="M57.01,69.88c.15.25.49.43.85.44s.71-.14.88-.39"/>
            <path class="cls-6" d="M59.51,73.62c.86.1,1.76-.17,2.43-.72.47-.38.82-.9,1.01-1.47.18-.54.07-1.19.49-1.64"/>
            <path class="cls-6" d="M55.21,74.24c-.86.1-1.76-.17-2.43-.72-.47-.38-.82-.9-1.01-1.47-.18-.54-.07-1.19-.49-1.64"/>
            <path class="cls-6" d="M62.26,82.57c-.04-.07-.11-.11-.18-.14-.1-.04-.22-.06-.35-.07s-.24,0-.35-.03c-.05-.01-.1-.03-.15-.06-.03-.02-.06-.05-.06-.08h0s-.03-.05-.06-.05h-.18c.08,0,.15-.07.15-.14v-.17c0-.08-.06-.14-.15-.14h-1.96c-.08,0-.15.07-.15.14v.17c0,.08.06.14.15.14-.08,0-.15.07-.15.14v.75c0,.08.06.14.15.14h3.18c.08,0,.15-.07.15-.14v-.3c0-.07,0-.12-.04-.18h0,0Z"/>
            <path class="cls-6" d="M47.39,75.62c.08.01.15-.01.22-.04.1-.04.19-.13.28-.21.08-.08.16-.17.26-.24.04-.03.09-.06.14-.07.03-.01.08,0,.1.01h0s.06,0,.07-.01l.12-.13c-.06.06-.05.15,0,.21l.13.11c.06.06.15.05.21-.01l1.33-1.44c.06-.06.05-.15,0-.21l-.13-.11c-.06-.06-.15-.05-.21.01.06-.06.05-.15,0-.21l-.56-.51c-.06-.06-.15-.05-.21.01l-2.16,2.33c-.06.06-.05.15,0,.21.07.07.15.14.22.21.06.06.09.08.16.1h0Z"/>
          </g>
        </g>
      </g>
    </g>
  </g>
</svg>