<svg width="338" height="132" viewBox="0 0 338 132" fill="none" xmlns="http://www.w3.org/2000/svg">
<g clip-path="url(#clip0_71_10)">
<path d="M338 0H0V132H338V0Z" fill="white"/>
<mask id="mask0_71_10" style="mask-type:luminance" maskUnits="userSpaceOnUse" x="0" y="0" width="338" height="132">
<path d="M338 0H0V132H338V0Z" fill="white"/>
</mask>
<g mask="url(#mask0_71_10)">
<path d="M338 -18.6001H0V183.4H338V-18.6001Z" fill="#C8D2D3"/>
<path d="M338 122.8V183.4H156.9C159.7 179.7 162.9 175.4 166.6 170.8C169.3 167.4 191.1 143.7 200 129.1C203.4 123.5 208.1 118.7 211.2 112.9C211.3 112.6 211.8 111.7 212.9 110.8C214.3 109.6 215.9 109.3 217 109.1C218.7 107 221.2 103.7 224.1 99.4997C228.1 93.7997 228.6 92.4997 231 90.1997C234.1 87.0997 237.7 83.4997 242.6 83.0997C246.7 82.7997 248.7 84.8997 254 83.6997C255.6 83.3997 257.1 82.7997 258.2 82.2997C260.3 81.4997 262 80.4997 265.3 78.5997C269.6 76.1997 271.3 74.9997 272.2 74.2997C273.1 73.5997 273.7 73.0997 274.2 72.6997C295.5 89.3997 316.7 106.1 338 122.8Z" fill="#EAEEED"/>
<path d="M71.4 183.4H0V129C23.8 147.1 47.6 165.2 71.4 183.4Z" fill="#EAEEED"/>
<path d="M231.5 40.8999C230.5 42.4999 229.3 43.5999 228.5 44.1999C224.7 46.1999 221 48.1999 217.2 50.1999C216.5 50.4999 215.3 50.9999 213.8 50.9999C212.9 50.9999 212.1 50.8999 211.4 50.7999C211.3 50.7999 211.3 50.7999 211.3 50.7999C210.3 50.2999 209.4 49.6999 208.4 49.1999C206.7 48.1999 205 47.2999 203.3 46.2999C199.9 46.8999 193.4 47.4999 186 44.8999C181.5 43.3999 178.2 41.1999 175.9 39.4999C162.9 30.1999 149.9 20.8999 136.9 11.5999C135.4 10.4999 133.8 9.3999 132.3 8.2999C130.4 6.8999 128.5 5.5999 126.7 4.1999C129 0.799901 131.2 -2.7001 133.5 -6.1001C128.2 -9.9001 123 -13.7001 117.7 -17.4001C93.1 17.4999 68.7 52.3999 44.3 87.1999C44.1 86.9999 43.9 86.8999 43.7 86.6999C42.9 87.7999 42 88.8999 41.2 89.9999C42.5 90.8999 43.8 91.7999 45.1 92.6999C45.9 91.7999 46.7 90.8999 47.5 89.9999C47.1 89.6999 46.8 89.3999 46.4 89.0999C67.2 59.7999 87.9 30.4999 108.7 1.2999C115.1 5.7999 121.5 10.3999 127.9 14.8999C129.5 15.9999 131.1 17.1999 132.7 18.2999C154.5 33.7999 176.3 49.1999 198.2 64.6999C199.2 65.3999 200.1 66.0999 201.1 66.7999C205.2 69.6999 209.3 72.5999 213.4 75.4999C214 76.3999 215.8 78.8999 215.9 82.6999C216 86.0999 214.6 88.5999 214 89.5999C191.9 120.9 169.8 152.2 147.7 183.5H70.7C47.1 166 23.6 148.5 0 131V-18.6001H231.9C232.1 -9.5001 232.3 -0.500097 232.5 8.5999C232.6 11.0999 232.6 13.6999 232.7 16.1999C232.8 22.0999 233 28.0999 233.1 33.9999C233.1 35.1999 233.2 37.9999 231.5 40.8999Z" fill="#F6F5F3"/>
<path d="M338 -18.6001V124.4C328.6 117.3 319.2 110.1 309.8 103C309.9 102.3 310.1 101.7 310.2 101C289.6 85.5999 274.3 73.6999 266.9 68.0999C266.9 68.0999 257.7 61.1999 254.3 53.1999C253.1 50.3999 252.4 47.6999 252.1 45.3999C251.7 35.5999 251.3 25.6999 250.9 15.8999C250.8 13.2999 250.7 10.6999 250.6 8.1999C250.2 -0.700098 249.9 -9.6001 249.5 -18.6001H338Z" fill="#F6F5F3"/>
<path d="M271.7 74.6001C270.6 75.7001 269.1 77.0001 267.3 78.2001C264.4 80.1001 261.7 81.1001 259.7 81.7001C263.7 79.4001 267.7 77.0001 271.7 74.6001Z" fill="#EAEEED"/>
<path d="M229 8.6C238.2 8.4 247.5 8.2 256.7 8C256.6 10.6 256.4 13.2 256.2 15.8C246.7 16 237.2 16.1 227.7 16.3C228.1 13.7 228.6 11.1 229 8.6Z" fill="#F6F5F3"/>
<path d="M125.2 19C128.2 14.5 131.1 10 134.1 5.5C135.7 6.4 137.3 7.4 138.9 8.3C136.1 12.8 133.3 17.3 130.5 21.9C128.8 20.9 127 20 125.2 19Z" fill="#F6F5F3"/>
<path d="M195.301 69C199.901 62 204.501 55 209.201 48C210.201 48.6 211.201 49.1 212.201 49.7C207.601 56.8 203.001 63.9 198.301 71C197.301 70.4 196.301 69.7 195.301 69Z" fill="#F6F5F3"/>
<path d="M71.2 -18.6001C68.1 -14.4001 64.9 -10.2001 61.8 -6.0001C60.9 -5.2001 59.9 -4.4001 58.8 -3.6001C54.7 -0.800098 50.7 -9.80496e-05 49 0.299902C43 1.5999 24.8 5.5999 0 10.5999V-18.6001H71.2Z" fill="#EAEEED"/>
<path d="M38.0006 81.9999C46.4006 88.1999 54.8006 94.4999 63.3006 100.7C56.8006 109.7 50.2006 118.6 43.6006 127.6C31.9006 119.6 20.3006 111.5 8.60059 103.5C15.7006 93.4999 22.7006 83.3999 29.8006 73.3999C32.9006 75.4999 36.0006 77.5999 39.2006 79.6999C38.8006 80.3999 38.4006 81.1999 38.0006 81.9999Z" fill="#F0F0F0"/>
<path d="M40.2002 21.1001C43.0002 17.8001 45.7002 14.4001 48.5002 11.1001C51.5002 13.3001 54.5002 15.6001 57.5002 17.8001C55.0002 21.3001 52.5002 24.8001 50.0002 28.2001" stroke="#F0F0F0" stroke-width="1.69" stroke-miterlimit="10"/>
<path d="M9.80078 37.4001C11.3008 38.3001 12.8008 39.3001 14.3008 40.2001C15.0008 39.0001 15.8008 37.8001 16.5008 36.6001" stroke="#F0F0F0" stroke-width="1.69" stroke-miterlimit="10"/>
<path d="M39.3008 60.2999C44.4008 53.2999 49.5008 46.3999 54.6008 39.3999C57.8008 41.9999 61.0008 44.5999 64.3008 47.1999C59.6008 53.9999 55.0008 60.7999 50.3008 67.5999C46.5008 65.1999 42.9008 62.6999 39.3008 60.2999Z" fill="#F0F0F0"/>
<path d="M81.3004 24.2997C80.6004 23.1997 80.2004 21.7997 80.4004 20.4997C80.5004 19.9997 80.6004 19.5997 80.8004 19.1997C78.4004 17.1997 76.0004 15.1997 73.5004 13.1997C68.3004 19.9997 63.1004 26.8997 57.9004 33.7997C61.3004 36.0997 64.7004 38.4997 68.1004 40.7997C72.5004 35.2997 76.9004 29.8997 81.3004 24.2997Z" fill="#F0F0F0"/>
<path d="M59.2002 46.3997C61.3002 43.1997 63.4002 39.9997 65.6002 36.6997" stroke="#F0F0F0" stroke-width="1.69" stroke-miterlimit="10"/>
<path d="M64.5004 43.3C61.8004 41.4 59.1004 39.5 56.4004 37.5" stroke="#F0F0F0" stroke-width="1.69" stroke-miterlimit="10"/>
<path d="M19.6006 77.7C20.8006 75.9 22.0006 74.2 23.2006 72.4C24.9006 71.9 26.6006 71.4 28.3006 70.8C30.1006 68.5 31.8006 66.1 33.6006 63.8C33.7006 63.6 34.1006 62.9 35.0006 62.7C35.9006 62.5 36.8006 62.8 37.5006 63.5C41.1006 66.1 44.7006 68.7 48.3006 71.3" stroke="#C8D2D3" stroke-width="0.21" stroke-miterlimit="10"/>
<path d="M51.1 37.6997C43.2 48.3997 35.2 59.0997 27.3 69.7997C26.3 69.9997 24.6 70.2997 22.8 71.4997C21 72.6997 19.9 74.0997 19.4 74.8997C12.9 71.0997 6.4 67.2997 0 63.4997V48.5997C17 44.9997 34.1 41.3997 51.1 37.6997Z" fill="#F0F0F0"/>
<path d="M37.4 42.1001C35.3 45.0001 33.1 47.9001 31 50.8001C32 51.4001 33.1 51.9001 34.1 52.5001C36.1 49.6001 38.1 46.8001 40.2 43.9001C39.3 43.3001 38.3 42.7001 37.4 42.1001Z" fill="#EAEEED"/>
<path d="M22.9004 49.8C22.0004 49 21.0004 48.2 20.0004 47.5L18.4004 49.3C19.4004 50.1 20.5004 50.9 21.5004 51.7C22.0004 51 22.5004 50.4 22.9004 49.8Z" fill="#EAEEED"/>
<path d="M23.8 50.3999C23.5 50.7999 23.3 51.1999 23 51.4999C22.8 51.6999 22.7 51.9999 22.5 52.2999C23.7 53.1999 25 54.1999 26.2 55.0999C26.6 54.3999 27 53.7999 27.3 53.0999C26.1 52.2999 25 51.3999 23.8 50.3999Z" fill="#EAEEED"/>
<path d="M28.1006 66.7C27.8006 66.7 26.8006 66.7 25.9006 67.4C24.8006 68.3 24.6006 69.5 24.5006 69.8C22.5006 69.7 20.6006 69.6 18.6006 69.5C22.0006 64.5 25.5006 59.5 28.9006 54.5C30.6006 55.8 32.3006 57.1 33.9006 58.4C32.1006 61.2 30.1006 63.9 28.1006 66.7Z" fill="#EAEEED"/>
<path d="M7.00078 58.2C8.00078 56.8 8.90078 55.4 9.90078 54C12.8008 56.1 15.7008 58.1 18.6008 60.2C19.5008 58.9 20.3008 57.6 21.2008 56.3C17.6008 53.5 14.1008 50.8 10.5008 48C7.90078 51.7 5.40078 55.5 2.80078 59.2C6.30078 61.8 9.90078 64.4 13.4008 67C14.1008 66.2 14.8008 65.3 15.6008 64.5C12.7008 62.3 9.80078 60.2 7.00078 58.2Z" fill="#F0F0F0"/>
<path d="M0.600586 52.7999C1.00059 52.2999 1.40059 51.7999 1.70059 51.3999C2.40059 51.8999 3.00059 52.3999 3.60059 52.9999C3.20059 53.3999 2.80059 53.8999 2.50059 54.2999C1.90059 53.7999 1.30059 53.2999 0.600586 52.7999Z" fill="#EAEEED"/>
<path d="M6.30039 90.8C6.70039 91.2 7.00039 91.6 7.30039 91.9C5.90039 93.8 4.40039 95.8 2.90039 97.7C1.90039 97 0.900391 96.3 -0.0996094 95.6V68.5C4.80039 72 9.70039 75.5 14.6004 79C11.9004 82.9 9.10039 86.8 6.30039 90.8Z" fill="#F0F0F0"/>
<path d="M40.5 31.9999C42.1 33.0999 43.7 34.1999 45.3 35.2999C45.9 34.3999 46.4 33.5999 47 32.6999C45.4 31.5999 43.9 30.4999 42.3 29.3999C41.7 30.2999 41.1 31.1999 40.5 31.9999Z" fill="#EAEEED"/>
<path d="M9.80078 31.0998C10.9008 31.8998 12.0008 32.5998 13.1008 33.3998C13.5008 32.7998 13.9008 32.1998 14.2008 31.5998L11.0008 29.2998C10.6008 29.8998 10.2008 30.4998 9.80078 31.0998Z" fill="#EAEEED"/>
<path d="M43.2002 23.1997C43.9002 23.6997 44.5002 24.0997 45.2002 24.4997C45.4002 24.1997 45.6002 23.7997 45.8002 23.4997C45.2002 23.0997 44.7002 22.6997 44.1002 22.1997C43.8002 22.4997 43.5002 22.8997 43.2002 23.1997Z" fill="#EAEEED"/>
<path d="M63.8002 8.7999C64.2002 8.0999 64.6002 7.3999 65.0002 6.6999C64.3002 6.2999 63.6002 5.8999 62.9002 5.3999C62.8002 5.3999 62.7002 5.3999 62.5002 5.4999C61.9002 5.5999 61.4002 5.7999 60.8002 5.6999C60.3002 6.4999 59.7002 7.2999 59.2002 7.9999C60.2002 8.5999 61.2002 9.1999 62.2002 9.7999C61.7002 10.4999 61.2002 11.1999 60.7002 11.9999L63.8002 13.9999C64.5002 12.7999 65.3002 11.5999 66.0002 10.3999C65.3002 9.7999 64.5002 9.2999 63.8002 8.7999Z" fill="#EAEEED"/>
<path d="M65.8008 13.0999C66.1008 13.2999 66.4008 13.4999 66.7008 13.6999C67.1008 12.7999 67.5008 12.0999 68.2008 11.3999C67.9008 11.1999 67.5008 10.9999 67.3008 10.8999C66.9008 11.5999 66.2008 12.3999 65.8008 13.0999Z" fill="#EAEEED"/>
<path d="M52.9 9.49971C54.1 9.19971 55.2 8.99971 56.3 8.69971C56.2 8.29971 55.9 7.59971 55.8 7.19971C54.7 7.39971 53.6 7.59971 52.5 7.79971C52.7 8.49971 52.8 8.89971 52.9 9.49971Z" fill="#EAEEED"/>
<path d="M26.1006 84.1997C22.9006 88.8997 19.7006 93.5997 16.6006 98.2997C26.4006 105.2 36.1006 112.1 45.9006 119C49.2006 114.5 52.4006 110 55.7006 105.5C52.2006 102.9 48.7006 100.3 45.2006 97.6997C44.4006 97.6997 41.7006 97.7997 39.1006 95.7997C36.9006 94.1997 36.1006 91.9997 35.8006 91.1997C32.4006 88.9997 29.2006 86.5997 26.1006 84.1997Z" fill="#EAEEED"/>
<path d="M63.9004 78.9001C64.3004 78.2001 64.8004 77.5001 65.2004 76.7001C64.9004 76.3001 64.6004 75.7001 64.1004 75.6001C68.6004 69.1001 73.0004 62.6001 77.5004 56.1001C81.1004 58.5001 84.7004 60.8001 88.3004 63.2001C83.1004 70.9001 78.0004 78.5001 72.9004 86.1001C71.2004 85.0001 69.4004 83.9001 67.7004 82.8001C67.9004 82.4001 68.1004 81.9001 68.3004 81.5001C66.8004 80.6001 65.4004 79.8001 63.9004 78.9001Z" fill="#F0F0F0"/>
<path d="M80.9004 59.5997C82.9004 56.7997 84.8004 53.9997 86.8004 51.1997" stroke="#F0F0F0" stroke-width="1.69" stroke-miterlimit="10"/>
<path d="M82.2002 55L90.2002 60.3" stroke="#F0F0F0" stroke-width="1.69" stroke-miterlimit="10"/>
<path d="M81.2002 50.7999C85.7002 44.6999 90.2002 38.5999 94.7002 32.4999C95.2002 32.6999 95.6002 32.8999 96.1002 32.9999C96.7002 32.0999 97.3002 31.2999 97.9002 30.3999C100.9 32.3999 104 34.2999 107 36.2999C101.9 43.5999 96.8002 50.8999 91.7002 58.1999C88.2002 55.7999 84.7002 53.2999 81.2002 50.7999Z" fill="#F0F0F0"/>
<path d="M110.201 25.1997C113.401 20.9997 116.501 16.7997 119.601 12.5997C117.001 10.7997 114.501 8.99971 111.901 7.19971C108.901 11.5997 105.801 15.9997 102.801 20.3997C105.301 21.9997 107.701 23.5997 110.201 25.1997Z" fill="#F0F0F0"/>
<path d="M86.1006 -1.60029C85.2006 -0.200293 84.4006 1.19971 83.5006 2.59971C85.0006 3.59971 86.5006 4.69971 88.1006 5.69971C90.1006 3.09971 92.2006 0.599707 94.2006 -2.00029C92.7006 -3.20029 91.2006 -4.40029 89.7006 -5.60029C90.3006 -6.50029 90.9006 -7.40029 91.6006 -8.30029C93.9006 -6.50029 96.2006 -4.80029 98.6006 -3.00029C96.0006 0.599707 93.5006 4.09971 91.1006 7.69971C91.1006 7.79971 91.5006 8.79971 90.9006 9.69971C90.3006 10.3997 89.2006 10.6997 88.3006 10.1997C85.2006 7.79971 82.1006 5.49971 79.1006 3.09971C80.6006 0.899707 82.1006 -1.40029 83.7006 -3.70029C84.4006 -2.90029 85.2006 -2.30029 86.1006 -1.60029Z" fill="#F0F0F0"/>
<path d="M76.6002 -6.2001L73.8002 -2.4001L76.9002 -0.100098L76.1002 1.0999L70.7002 -3.0001L75.2002 -9.1001L80.6002 -5.0001L79.8002 -3.9001L76.6002 -6.2001Z" fill="#EAEEED"/>
<path d="M124.501 73.4C125.301 71.9 126.201 70.4 127.001 68.9C125.601 67.7 124.301 66.4 122.901 65.2C123.101 64.8 123.401 64.4 123.601 64C120.001 61.3 116.501 58.7 112.901 56C109.001 61.6 105.101 67.1 101.101 72.7C104.401 75.1 107.801 77.5 111.201 79.9C111.301 80.2 111.301 80.6 111.401 80.9C112.701 81.9 114.101 82.8 115.401 83.8C115.901 83.7 116.401 83.5 116.901 83.4C120.601 86.2 124.301 89 128.001 91.8C129.201 90.3 130.401 88.6 131.601 86.7C132.901 84.7 134.001 82.7 134.901 80.9C131.401 78.4 127.901 75.9 124.501 73.4Z" fill="#F0F0F0"/>
<path d="M114.3 90.3C114 89.9 113.8 89.5 113.5 89.1C111.5 87.9 109.6 86.7 107.6 85.4C107 85.3 106.4 85.2 105.8 85.1C103 82.9 100.2 80.7 97.3004 78.5C94.2004 83 91.0004 87.6 87.9004 92.1C94.8004 97.4 102 102.4 108.9 107.7C110.9 109.3 112.9 110.8 114.9 112.4C116.2 110.5 117.6 108.6 118.9 106.6C121 103.6 122.9 100.6 124.8 97.7C121.3 95.2 117.8 92.7 114.3 90.3Z" fill="#F0F0F0"/>
<path d="M104.6 113.2C97.8004 108 90.7004 103 83.9004 97.7998L73.4004 113C82.6004 118.8 91.9004 124.6 101.1 130.4C104.3 126.6 107.5 122.4 110.8 118.1C108.7 116.4 106.6 114.8 104.6 113.2Z" fill="#F0F0F0"/>
<path d="M78.8008 130.5L80.1008 131.3" stroke="#F0F0F0" stroke-width="0.42" stroke-miterlimit="10"/>
<path d="M123.6 166C123.7 166.3 123.8 166.6 123.9 166.8C123 168 122.1 169.2 121.1 170.4C119.9 169.5 118.6 168.6 117.4 167.8C117.9 167.1 118.4 166.5 118.8 165.8C117.6 165.1 116.5 164.3 115.3 163.6C114.9 164.1 114.5 164.6 114.1 165.2C114.4 165.6 114.7 166.1 115 166.6C114.5 167.4 114 168.1 113.5 168.9C112.9 169 112.3 169.1 111.6 169.2C111 170.1 110.4 170.9 109.7 171.8C110.8 172.6 111.9 173.3 113 174.1C113.7 173.3 114.3 172.5 115 171.7C116.1 172.5 117.2 173.2 118.3 174C115.9 177.1 113.5 180.3 111.1 183.5H109.2L69.2002 156.1C71.8002 152.4 74.3002 148.6 76.9002 144.9C77.8002 145.7 78.7002 146.5 79.6002 147.3C79.2002 148 78.7002 148.6 78.3002 149.3C79.5002 150.2 80.7002 151 81.9002 151.9C82.5002 151.1 83.2002 150.4 83.8002 149.6C83.7002 149.1 83.6002 148.6 83.6002 148.1L84.8002 146.4L86.9002 146.6C87.3002 145.9 87.8002 145.1 88.3002 144.4C85.7002 142.3 83.1002 140.3 80.5002 138.2C82.6002 135.3 84.7002 132.3 86.7002 129.4C90.9002 132.1 95.0002 134.9 99.2002 137.6C99.1002 137.8 98.9002 138.7 99.4002 139.7C99.8002 140.5 100.5 140.8 100.8 140.8C109.9 147.1 118.9 153.4 128 159.7C126.6 161.8 125.1 163.9 123.6 166Z" fill="#F0F0F0"/>
<path d="M121.7 141.9C130.9 129 140.2 116 149.4 103.1C145.7 96.6998 142.1 90.1998 138.4 83.7998C127.3 99.7998 116.2 115.7 105.2 131.7C110.7 135 116.2 138.4 121.7 141.9Z" fill="#F6F5F3"/>
<path d="M169 82.6001C171.6 84.4001 174.2 86.2001 176.8 88.1001C172.1 95.2001 167.4 102.2 162.8 109.3C160.2 107.5 157.6 105.8 155 104" stroke="#F0F0F0" stroke-width="1.69" stroke-miterlimit="10"/>
<path d="M169.9 98.2001C167.4 96.5001 164.9 94.8001 162.4 93.1001" stroke="#F0F0F0" stroke-width="1.69" stroke-miterlimit="10"/>
<path d="M150.8 99.8997C150.2 98.2997 149.6 96.7997 148.9 95.1997C150 95.8997 151.1 96.6997 152.2 97.3997C151.7 98.1997 151.2 99.0997 150.8 99.8997Z" fill="#EAEEED"/>
<path d="M146.601 76.2998C144.901 78.5998 143.301 80.8998 141.601 83.1998C143.101 85.9998 144.501 88.6998 146.001 91.3998C148.401 92.8998 150.901 94.4998 153.301 95.9998C155.701 92.6998 158.101 89.3998 160.501 86.0998C155.801 82.8998 151.201 79.5998 146.601 76.2998Z" fill="#F0F0F0"/>
<path d="M124.5 145.2C127.4 147 130.3 148.8 133.2 150.7C140.6 140 147.9 129.3 155.3 118.6C152.8 116.8 150.3 115 147.8 113.1" stroke="#F0F0F0" stroke-width="1.69" stroke-miterlimit="10"/>
<path d="M147.4 129.5C144.8 127.6 142.1 125.8 139.4 123.9" stroke="#F0F0F0" stroke-width="1.69" stroke-miterlimit="10"/>
<path d="M121.901 135.6C122.801 134.5 123.601 133.4 124.501 132.3C121.601 130.2 118.601 128 115.701 125.9C114.801 127 114.001 128.1 113.101 129.1C116.001 131.3 119.001 133.5 121.901 135.6Z" fill="#EAEEED"/>
<path d="M129.9 125.9C130.7 124.8 131.6 123.6 132.4 122.5C131.2 121.7 130 120.8 128.8 120C128 121 127.2 122.1 126.4 123.1C127.6 124 128.7 124.9 129.9 125.9Z" fill="#EAEEED"/>
<path d="M129 121.6C130 120.2 130.9 118.9 131.9 117.5" stroke="#EAEEED" stroke-width="1.69" stroke-miterlimit="10"/>
<path d="M126.2 119.3C128.3 119.4 130.5 119.4 132.6 119.5C134.9 116.4 137.2 113.2 139.5 110.1C135.6 107.5 131.7 104.9 127.9 102.3C125.1 106.3 122.3 110.4 119.5 114.5C121.7 116.1 123.9 117.7 126.2 119.3Z" fill="#EAEEED"/>
<path d="M123.2 113.5C124.1 112.3 125.1 111.1 126 109.9C127.5 110.9 128.9 112 130.4 113C129.5 114.3 128.7 115.6 127.8 116.9C126.2 115.8 124.7 114.7 123.2 113.5Z" fill="#F6F5F3"/>
<path d="M118.701 116.9C118.201 116.5 117.601 116.1 117.101 115.7C116.301 116.8 115.401 118 114.601 119.1C115.001 119.5 115.501 119.9 115.901 120.2C116.801 119.1 117.801 118 118.701 116.9Z" fill="#EAEEED"/>
<path d="M119.601 117.6C118.701 118.7 117.701 119.8 116.801 121C117.401 121.5 118.001 122 118.601 122.5C119.501 121.3 120.501 120.1 121.401 118.9C120.701 118.4 120.101 118 119.601 117.6Z" fill="#EAEEED"/>
<path d="M125.1 127.5C125.5 126.9 125.9 126.3 126.2 125.7C125.4 125 124.6 124.3 123.8 123.6C123.4 124.2 122.9 124.8 122.5 125.4C123.4 126.2 124.3 126.8 125.1 127.5Z" fill="#EAEEED"/>
<path d="M134.2 96.1998C136.3 94.8998 138.3 93.5998 140.4 92.2998C142.3 95.1998 144.2 98.1998 146.1 101.1C144 102.4 141.9 103.7 139.8 104.9C137.9 102 136 99.0998 134.2 96.1998Z" fill="#EAEEED"/>
<path d="M132.9 92C133.3 92.6 133.6 93.2 133.9 93.8C134.9 93.2 135.9 92.7 136.9 92.1L136.1 90.5C135.1 91 134 91.5 132.9 92Z" fill="#EAEEED"/>
<path d="M136.601 88.3998C137.101 89.4998 137.701 90.4998 138.201 91.5998C138.601 91.3998 139.101 91.0998 139.501 90.8998C139.001 89.8998 138.401 88.8998 137.901 87.7998C137.401 87.9998 137.001 88.1998 136.601 88.3998Z" fill="#EAEEED"/>
<path d="M180.5 73.1001C181.1 72.3001 181.6 71.4001 182.2 70.6001C183.1 71.3001 183.9 71.9001 184.8 72.6001C184.2 73.4001 183.7 74.1001 183.1 74.9001C182.2 74.3001 181.3 73.7001 180.5 73.1001Z" fill="#EAEEED"/>
<path d="M152.5 48.9C152.4 48.9 152.4 48.8 152.4 48.8C152.4 48.8 152.4 48.8 152.3 48.7C152.1 48.5 151.9 48.4 151.7 48.2C151.4 48 151 47.7 150.7 47.5C150.5 47.8 150.3 48 150.2 48.3C151.1 48.9 151.9 49.5 152.8 50.1C152.9 50 152.9 49.9 153 49.9C152.7 49.5 152.6 49.2 152.5 48.9Z" fill="#EAEEED"/>
<path d="M151.7 45.7998C151.5 46.0998 151.3 46.2998 151.2 46.5998C151.9 47.0998 152.6 47.5998 153.2 48.0998H153.3C153.4 48.0998 153.6 48.0998 153.8 48.0998C153.9 48.0998 154 48.0998 154.1 48.1998C154.2 48.0998 154.2 47.9998 154.3 47.8998C153.4 47.0998 152.6 46.3998 151.7 45.7998Z" fill="#EAEEED"/>
<path d="M176.701 75.5998C179.001 77.0998 181.301 78.4998 183.601 79.9998C186.101 76.1998 188.701 72.3998 191.201 68.5998C186.701 65.3998 182.201 62.0998 177.701 58.7998C175.101 62.6998 172.401 66.5998 169.801 70.3998" stroke="#F0F0F0" stroke-width="1.69" stroke-miterlimit="10"/>
<path d="M157.101 59.3999C160.001 61.5999 162.801 63.8999 165.701 66.1999C168.001 62.5999 170.301 58.8999 172.601 55.2999C169.401 52.7999 166.201 50.3999 162.901 47.8999C161.901 49.1999 160.901 50.4999 159.901 51.6999" stroke="#F0F0F0" stroke-width="1.69" stroke-miterlimit="10"/>
<path d="M154.801 51.5999C156.201 49.6999 157.501 47.6999 158.901 45.7999C156.401 43.9999 154.001 42.1999 151.501 40.3999C150.301 42.0999 149.001 43.8999 147.801 45.5999" stroke="#F0F0F0" stroke-width="1.69" stroke-miterlimit="10"/>
<path d="M138.101 77.7001C132.801 69.0001 127.401 60.3001 122.101 51.5001C123.301 49.7001 124.601 47.9001 125.801 46.1001C133.301 51.6001 140.801 57.2001 148.201 62.7001C144.901 67.7001 141.501 72.7001 138.101 77.7001Z" fill="#F6F5F3"/>
<path d="M146.7 50.2998C149.2 52.1998 151.8 54.1998 154.3 56.0998" stroke="#F0F0F0" stroke-width="1.69" stroke-miterlimit="10"/>
<path d="M132.601 39.0998C135.201 40.7998 137.801 42.4998 140.401 44.1998C142.001 41.4998 143.601 38.6998 145.201 35.9998C143.001 34.3998 140.801 32.8998 138.601 31.2998L136.401 34.8998" stroke="#F0F0F0" stroke-width="1.69" stroke-miterlimit="10"/>
<path d="M135.801 28.9001C134.601 28.0001 133.301 27.0001 132.101 26.1001C130.101 28.8001 128.101 31.6001 126.101 34.3001" stroke="#F0F0F0" stroke-width="1.69" stroke-miterlimit="10"/>
<path d="M123.501 40.1997C121.601 42.9997 119.701 45.6997 117.801 48.4997" stroke="#EAEEED" stroke-width="1.69" stroke-miterlimit="10"/>
<path d="M157.7 114.8C158.2 115.2 158.8 115.7 159.3 116.1C159.6 115.7 159.8 115.3 160.1 114.9C159.5 114.5 159 114 158.4 113.6C158.2 114 158 114.4 157.7 114.8Z" fill="#F0F0F0"/>
<path d="M143.7 119.5C144.2 119.9 144.8 120.4 145.3 120.8C145.6 120.4 145.8 120 146.1 119.6C145.5 119.2 145 118.7 144.4 118.3C144.2 118.7 143.9 119.1 143.7 119.5Z" fill="#F0F0F0"/>
<path d="M136.4 130.3C136.9 130.7 137.5 131.2 138 131.6C138.3 131.2 138.5 130.8 138.8 130.4C138.2 130 137.7 129.5 137.1 129.1C136.9 129.5 136.6 129.9 136.4 130.3Z" fill="#F0F0F0"/>
<path d="M197.6 101.5C193.6 98.7998 189.6 95.9998 185.7 93.2998" stroke="#F0F0F0" stroke-width="1.69" stroke-miterlimit="10"/>
<path d="M192.601 107.9C193.101 107.2 193.601 106.4 194.201 105.7" stroke="#F0F0F0" stroke-width="1.69" stroke-miterlimit="10"/>
<path d="M188.2 113.9C188.8 113.2 189.4 112.4 190 111.7" stroke="#F0F0F0" stroke-width="1.69" stroke-miterlimit="10"/>
<path d="M177 109.1C176.2 108.5 175.5 108 174.7 107.4C177.6 103.3 180.4 99.2997 183.3 95.1997C184.1 95.6997 184.9 96.1997 185.7 96.7997C184.9 97.9997 184 99.1997 183.2 100.4C181.9 100.3 181 100.6 180.9 101C180.8 101.3 181.4 101.8 182.1 102.1C184.1 103.4 186 104.7 188 106C187.5 106.8 187 107.7 186.5 108.5C184.6 107.4 182.6 106.3 180.7 105.2C180.1 104 179.4 103.2 179 103.3C178.7 103.4 178.7 104.5 179 106C178.5 107.1 177.8 108.1 177 109.1Z" fill="#F0F0F0"/>
<path d="M185.2 119C181.3 116.2 177.4 113.4 173.5 110.6" stroke="#F0F0F0" stroke-width="1.69" stroke-miterlimit="10"/>
<path d="M165.601 120C167.001 120.9 168.401 121.8 169.701 122.7C170.601 121.6 171.401 120.4 172.301 119.3C171.201 118.1 170.001 116.9 168.901 115.8C167.801 117.1 166.701 118.5 165.601 120Z" fill="#F0F0F0"/>
<path d="M173.401 132.1C174.601 130.2 175.701 128.3 176.901 126.4C175.501 124.9 173.901 123.1 172.101 122.1" stroke="#F0F0F0" stroke-width="1.69" stroke-miterlimit="10"/>
<path d="M170.5 125.3C170.7 125.9 171.1 126.4 171.6 126.7" stroke="#EAEEED" stroke-width="1.69" stroke-miterlimit="10"/>
<path d="M168.7 128L170.3 129.1" stroke="#EAEEED" stroke-width="1.69" stroke-miterlimit="10"/>
<path d="M166.301 130.3C166.701 130.6 167.001 130.9 167.401 131.2" stroke="#EAEEED" stroke-width="1.69" stroke-miterlimit="10"/>
<mask id="mask1_71_10" style="mask-type:luminance" maskUnits="userSpaceOnUse" x="0" y="-19" width="338" height="203">
<path d="M338 -18.6001H0V183.4H338V-18.6001Z" fill="white"/>
</mask>
<g mask="url(#mask1_71_10)">
<path d="M309.4 53.8999C315.7 52.0999 322.1 50.1999 328.4 48.3999C330.2 55.6999 332.1 62.9999 333.9 70.2999C328.4 71.0999 323 71.8999 317.5 72.6999C317 71.9999 316.5 71.2999 316 70.4999C315.1 69.2999 314.3 68.1999 313.4 67.1999C312.1 62.7999 310.8 58.3999 309.4 53.8999Z" fill="#F6F5F3"/>
<path d="M219.8 183.4C219.7 182 219.6 180.1 219 177.9C218.6 176.3 218 174 216.4 171.4C216.1 171 214.8 169 212.5 166.9C210 164.7 209.1 164.8 208.3 163.3C207.4 161.5 207.9 159.8 208.3 157.3C208.9 154 208.6 150.6 208.9 147.3C209.2 143.4 207.9 137.2 201 127" stroke="#C8D2D3" stroke-width="1.27" stroke-miterlimit="10"/>
<path d="M218.101 174.8C219.201 174.3 220.901 173.4 222.501 171.8C224.801 169.5 225.601 166.9 226.101 165.6C227.201 162.4 226.401 161.8 227.301 159.8C227.601 159.2 228.601 157.3 233.401 154.8C236.601 153.2 241.601 150.6 248.201 150.8C252.301 151 252.901 152 258.401 152.1C262.501 152.2 262.301 151.6 265.301 151.8C270.401 152.2 271.401 154 276.801 154.4C279.701 154.6 281.901 154.8 283.301 153.3C283.601 152.9 284.001 152.4 284.701 147.1C285.101 144.1 285.301 142.5 285.001 141.8C283.901 138.7 280.501 138.8 280.301 136.5C280.301 136.1 280.301 135.9 282.901 131.2C283.901 129.3 284.101 128.9 284.101 128.2C284.101 126.6 282.801 125.6 281.501 124C280.401 122.7 279.001 120.8 277.801 118.1" stroke="#C8D2D3" stroke-width="1.27" stroke-miterlimit="10"/>
<path d="M311.9 129.3C312.7 130.9 313.8 132.8 313 134.4C312.5 135.4 311.5 135.9 310.4 136.2C307 137.2 303.4 136.5 300.1 135.5C298.1 134.9 296 134.1 294.5 132.6C291.8 129.8 292.1 125.3 293.2 121.5C294.1 118.7 295.4 115.9 297.6 114C299.8 112 303 111 305.8 111.8C308.9 112.7 310.3 115.6 310.3 118.7C310.3 122.4 310.1 125.7 311.9 129.3Z" fill="#C8D2D3"/>
<path d="M276.6 114.1C268.4 112.2 262.9 113.4 259.5 114.8C255.4 116.5 254.2 118.4 249.2 119.6C243.4 121 238.7 120 238.4 121.2C238.2 122.2 241.3 122.8 243.5 126.2C243.9 126.9 245.8 129.8 244.7 132.2C244.4 132.9 243.8 133.6 242.1 134.5C237.7 136.8 235 135.3 231.7 136.7C228.6 138 228.1 140.4 225.8 143C223.2 145.9 218.5 149 208.9 149.6" stroke="#C8D2D3" stroke-width="1.27" stroke-miterlimit="10"/>
<path d="M303.4 77.3001C302.5 76.5001 301.5 75.7001 300.6 74.9001C299.9 74.3001 299.3 73.4001 299 72.5001C298.1 69.4001 297.1 66.3001 296.2 63.1001C296.2 62.9001 295.9 61.9001 296.5 60.9001C297 60.2001 297.6 59.9001 297.9 59.8001C301 58.9001 304.1 58.0001 307.1 57.1001" stroke="#F0F0F0" stroke-width="1.69" stroke-miterlimit="10"/>
<path d="M314.5 78.8C317.9 77.7 321.4 76.6 324.8 75.5" stroke="#F0F0F0" stroke-width="1.69" stroke-miterlimit="10"/>
<path d="M321.9 86.8999C323.3 87.0999 324.7 87.2999 326.2 87.4999" stroke="#EAEEED" stroke-width="1.69" stroke-miterlimit="10"/>
<path d="M317.4 58.5998C317.6 59.9998 318 61.3998 318.6 62.7998C322.5 61.8998 326.1 60.9998 329.7 59.2998C329.2 57.9998 329 56.5998 328.6 55.2998C324.9 56.3998 321.2 57.4998 317.4 58.5998Z" fill="#EAEEED"/>
<path d="M289.1 62.2998C290.8 66.3998 292.8 70.3998 295.1 74.1998C294.6 74.7998 294 75.2998 293.2 75.4998C288.3 73.7998 284 70.8998 280.5 66.9998C281.9 66.3998 283.3 65.7998 284.6 65.0998C284.6 65.5998 285.1 66.2998 285.6 66.2998C286.1 66.2998 286.6 65.8998 286.6 65.3998C286.6 64.8998 286.4 64.3998 285.9 64.1998C287.2 63.5998 288 62.9998 289.1 62.2998Z" fill="#F0F0F0"/>
<path d="M300 22C299.3 20 298.7 17.9 298 15.9C304.6 13.8 311.2 11.6 317.8 9.5C319.3 13.7 320.7 17.9 322.2 22.1C321.4 22.4 320.5 22.6 319.7 22.9" stroke="#F0F0F0" stroke-width="1.69" stroke-miterlimit="10"/>
<path d="M304.6 36.0002C303.6 33.1002 302.7 30.1002 301.7 27.2002" stroke="#F0F0F0" stroke-width="1.69" stroke-miterlimit="10"/>
<path d="M321.801 30.0998C322.601 29.7998 323.401 29.5998 324.301 29.2998C325.501 33.3998 326.801 37.5998 328.301 41.6998C321.701 43.6998 315.101 45.6998 308.501 47.6998C307.901 45.6998 307.201 43.7998 306.601 41.7998" stroke="#F0F0F0" stroke-width="1.69" stroke-miterlimit="10"/>
<path d="M284.8 40.7002C285.4 42.8002 285.9 44.8002 286.5 46.9002C285.3 47.6002 284.2 48.2002 282.8 48.3002C282.2 46.2002 281.6 44.2002 281 42.1002C282.4 41.4002 283.4 41.4002 284.8 40.7002Z" fill="#EAEEED"/>
<path d="M281.601 33.1001C282.001 34.2001 282.401 35.3001 282.801 36.3001" stroke="#EAEEED" stroke-width="1.69" stroke-miterlimit="10"/>
<path d="M278.7 33.7998L279.2 35.6998" stroke="#EAEEED" stroke-width="1.69" stroke-miterlimit="10"/>
<path d="M334.1 90.7998C335.6 87.1998 337.1 83.4998 338.6 79.8998C336.2 78.3998 333.8 76.7998 331.4 75.2998" stroke="#F0F0F0" stroke-width="1.69" stroke-miterlimit="10"/>
<path d="M315.2 65.8001C315.5 66.8001 315.9 67.8001 316.2 68.8001C318.5 68.0001 320.7 67.3001 323 66.5001C326.4 67.7001 329.9 68.9001 333.3 70.1001C333.7 68.9001 334 67.8001 334.4 66.6001C331 65.3001 327.6 64.0001 324.2 62.6001C321.1 63.7001 318.1 64.7001 315.2 65.8001Z" fill="#EAEEED"/>
<path d="M289.4 26.2C288.3 23 287.1 19.8 286 16.5" stroke="#F0F0F0" stroke-width="1.69" stroke-miterlimit="10"/>
<path d="M283.5 17.7998C278.5 18.1998 273.5 18.5998 268.5 18.9998C268.1 19.1998 266.9 19.6998 266.2 20.9998C265.1 22.8998 265.8 24.8998 265.9 25.1998C266.4 27.8998 266.8 30.5998 267.3 33.2998C268.8 32.8998 270.2 32.5998 271.7 32.1998" stroke="#F0F0F0" stroke-width="1.69" stroke-miterlimit="10"/>
<path d="M272.7 39.6001C271 39.4001 269.4 39.3001 267.7 39.1001C267.7 39.8001 267.7 40.9001 267.2 42.2001C266.6 43.9001 265.6 45.1001 265 45.6001C265.2 46.5001 266.5 52.4001 272.3 55.4001C276.8 57.8001 281.1 56.9001 282.3 56.6001C287 54.8001 291.7 52.9001 296.3 51.1001C295.6 48.7001 294.9 46.3001 294.3 44.0001" stroke="#F0F0F0" stroke-width="1.69" stroke-miterlimit="10"/>
<path d="M305 19.8C307.2 26.7 309.5 33.6 311.7 40.5C314.9 39.5 318 38.4 321.2 37.4C319 30.6 316.8 23.8 314.7 17C311.4 18 308.2 18.9 305 19.8Z" fill="#F0F0F0" stroke="#F0F0F0" stroke-width="0.42" stroke-miterlimit="10"/>
<path d="M340.601 28.3999C338.801 29.0999 337.101 29.6999 335.301 30.3999C334.101 25.7999 332.801 21.2999 331.601 16.6999C334.101 15.7999 336.701 14.7999 339.201 13.8999" stroke="#F0F0F0" stroke-width="1.69" stroke-miterlimit="10"/>
<path d="M338.001 52.1001V56.1001C336.901 55.9001 335.701 55.6001 334.601 55.4001C334.701 54.3001 334.901 53.2001 335.101 52.1001H338.001Z" fill="#F0F0F0"/>
<path d="M331.3 95.8C329.8 97.3 328.3 98.8 326.8 100.3C320.2 95.3 313.6 90.3 307 85.3C308.5 83.4 309.9 81.5 311.4 79.5" stroke="#F0F0F0" stroke-width="1.69" stroke-miterlimit="10"/>
<path d="M291.9 -3.9001C291.3 -3.0001 290.4 -2.9001 290.2 -2.8001C286.1 -1.9001 282 -0.900097 277.9 -9.72748e-05C277.1 0.199903 276.3 -0.100098 275.9 -0.600098C275.6 -1.0001 275.6 -1.3001 275.6 -1.5001C275.6 -7.2001 275.5 -12.9001 275.5 -18.6001H290.4C291 -14.5001 291.7 -10.4001 292.4 -6.3001C292.2 -6.2001 292.7 -5.0001 291.9 -3.9001Z" fill="#F0F0F0"/>
<path d="M259.601 5.5C261.101 5.3 262.601 5.2 264.101 5" stroke="#F0F0F0" stroke-width="1.69" stroke-miterlimit="10"/>
<path d="M209.001 30.2002C208.801 33.4002 208.601 36.5002 208.401 39.7002C203.301 39.2002 198.201 38.8002 193.101 38.3002" stroke="#F0F0F0" stroke-width="1.69" stroke-miterlimit="10"/>
<path d="M195.2 29.2C195.3 26.1 195.5 23.1 195.7 20C200.7 20.3 205.8 20.5 210.8 20.8" stroke="#F0F0F0" stroke-width="1.69" stroke-miterlimit="10"/>
<path d="M188.2 17.8001C183.7 16.2001 179.2 14.7001 174.6 13.1001C173.7 15.3001 172.7 17.6001 171.8 19.8001" stroke="#F0F0F0" stroke-width="1.69" stroke-miterlimit="10"/>
<path d="M186 27.8999C184.3 30.1999 182.7 32.4999 181 34.6999C178 32.7999 175 30.8999 172 28.8999" stroke="#F0F0F0" stroke-width="1.69" stroke-miterlimit="10"/>
<path d="M164.8 17.1999C163.7 18.5999 162.5 19.9999 161.4 21.3999C157.4 18.3999 153.4 15.3999 149.4 12.3999" stroke="#F0F0F0" stroke-width="1.69" stroke-miterlimit="10"/>
<path d="M168.8 9.5002C163.8 5.9002 158.8 2.3002 153.8 -1.2998C152.1 1.0002 150.4 3.30019 148.7 5.60019" stroke="#F0F0F0" stroke-width="1.69" stroke-miterlimit="10"/>
<path d="M199.8 26.6001C201.3 26.8001 202.8 27.0001 204.3 27.2001" stroke="#EAEEED" stroke-width="1.69" stroke-miterlimit="10"/>
<path d="M207.5 26.1001C208.7 26.2001 210 26.3001 211.2 26.4001" stroke="#F0F0F0" stroke-width="1.69" stroke-miterlimit="10"/>
<path d="M227.2 26C227.9 26.1 228.7 26.2 229.4 26.3" stroke="#F0F0F0" stroke-width="1.69" stroke-miterlimit="10"/>
<path d="M187.101 24.3999C187.901 24.5999 188.701 24.6999 189.601 24.8999" stroke="#F0F0F0" stroke-width="1.69" stroke-miterlimit="10"/>
<path d="M166.2 15.1001L167.8 16.3001" stroke="#F0F0F0" stroke-width="1.69" stroke-miterlimit="10"/>
<path d="M161.2 12.3001L162 11.1001" stroke="#F0F0F0" stroke-width="1.69" stroke-miterlimit="10"/>
<path d="M220.1 -9.5C220.1 -5.8 220 -2.1 220 1.6" stroke="#F0F0F0" stroke-width="1.69" stroke-miterlimit="10"/>
<path d="M220 -0.700001C217.1 -0.300001 213.1 -0.0999996 208.4 -0.4C206.8 -0.5 199.9 -1 191.1 -4.1C180 -8.1 171.6 -14.1 165.9 -19" stroke="#F0F0F0" stroke-width="1.69" stroke-miterlimit="10"/>
<path d="M201.7 1.3001C202.2 -2.5999 202.6 -6.4999 203.1 -10.3999" stroke="#F0F0F0" stroke-width="1.69" stroke-miterlimit="10"/>
</g>
<mask id="mask2_71_10" style="mask-type:luminance" maskUnits="userSpaceOnUse" x="0" y="-19" width="338" height="203">
<path d="M338 -18.6001H0V183.4H338V-18.6001Z" fill="white"/>
</mask>
<g mask="url(#mask2_71_10)">
<path d="M102.8 184.3C90.6 175 78.3 165.7 66 156.4C73 146.5 79.9 136.7 86.9 126.8C102.2 137.5 117.5 148.2 132.8 158.9C127 167.3 121.3 175.7 115.5 184.1" stroke="white" stroke-width="0.21" stroke-miterlimit="10"/>
<path d="M98.7994 183.4C65.6994 158.4 32.5994 133.3 -0.600586 108.3" stroke="white" stroke-width="0.21" stroke-miterlimit="10"/>
<path d="M65.6 111.7C72.2 116.3 78.8 120.9 85.4 125.6C78.5 135.6 71.7 145.5 64.8 155.5C44 139.8 23.2 124.1 2.3 108.5C7.5 100.6 12.8 92.6 18 84.7C18.3 83.9 18.6 82.8 18.6 81.4C18.6 78.2 17.1 75.9 16.4 75C10.6 71 4.8 67 -1 63" stroke="white" stroke-width="0.21" stroke-miterlimit="10"/>
<path d="M-1.10059 105.9C-0.500586 106.3 -0.000585914 106.7 0.599414 107.2C5.89941 99.4 11.1994 91.6 16.4994 83.8C16.6994 83.1 17.2994 81.6 16.8994 79.6C16.4994 77.3 15.0994 75.9 14.5994 75.4C9.59941 71.9 4.49941 68.4 -0.500586 65" stroke="white" stroke-width="0.21" stroke-miterlimit="10"/>
<path d="M115 37.6C97.3996 25.1 79.8996 12.5 62.2996 0C60.9996 0.8 59.4996 1.7 57.7996 2.5C54.8996 3.8 52.1996 4.6 49.9996 5.1C47.0996 5.7 44.1996 6.3 41.2996 7C27.2996 10 13.3996 12.8 -0.400391 15.6" stroke="white" stroke-width="0.21" stroke-miterlimit="10"/>
<path d="M115.599 36.1998C98.1994 23.6998 80.7994 11.1998 63.3994 -1.2002C64.9994 -2.9002 66.5994 -4.70019 68.1994 -6.70019C69.4994 -8.30019 70.3994 -9.50019 70.9994 -10.3002C73.3994 -13.5002 76.1994 -17.2002 79.5994 -21.7002" stroke="white" stroke-width="0.21" stroke-miterlimit="10"/>
<path d="M-0.600586 13.9997C10.8994 11.9997 22.6994 9.69971 34.6994 7.09971C40.7994 5.79971 46.6994 4.39971 52.5994 2.99971C53.9994 2.59971 55.5994 2.09971 57.2994 1.19971C58.5994 0.599707 59.7994 -0.100293 60.7994 -0.800293" stroke="white" stroke-width="0.21" stroke-miterlimit="10"/>
<path d="M74 -19.3003C70.4 -14.7003 66.8 -10.2003 63.2 -5.60029C62.5 -4.70029 61.6 -3.60029 60.4 -2.60029C57.7 -0.400294 55 0.599707 53.2 1.09971C45.5 3.09971 37.6 4.99971 29.4 6.89971C19.1 9.19971 9.2 11.0997 -0.5 12.7997" stroke="white" stroke-width="0.21" stroke-miterlimit="10"/>
<path d="M128 21.3999C150.8 37.2999 173.5 53.2999 196.2 69.1999" stroke="white" stroke-width="0.21" stroke-miterlimit="10"/>
<path d="M197 68.0998C174.4 52.1998 151.9 36.1998 129.3 20.2998" stroke="white" stroke-width="0.21" stroke-miterlimit="10"/>
<path d="M212.6 14.6997C213.2 14.9997 214.6 15.9997 215.4 17.9997C215.8 19.0997 215.9 19.9997 215.9 20.6997C216 24.5997 215.7 29.7997 214.3 35.6997C213 41.3997 211.1 46.0997 209.3 49.5997C206.4 54.0997 203.4 58.5997 200.4 63.1997C178.6 96.1997 156.3 127.7 133.7 157.9C111.2 141.8 88.6 126 66 110.1" stroke="white" stroke-width="0.21" stroke-miterlimit="10"/>
<path d="M117.399 184.5C124.199 174.9 132.999 162.5 139.299 153.6C170.299 109.8 186.799 86.6999 207.999 54.1999C209.099 52.3999 210.099 50.9999 210.599 50.1999C212.499 46.4999 214.599 41.5999 216.099 35.4999C217.699 28.6999 217.999 22.7999 217.899 18.1999C217.899 17.0999 218.399 16.0999 219.299 15.5999C220.499 14.9999 221.599 14.9999 221.999 15.0999" stroke="white" stroke-width="0.21" stroke-miterlimit="10"/>
<path d="M207.9 14.5C207.4 14.9 206.4 15.6 204.9 15.9C203.3 16.3 202 16.1 201.3 15.9C197.1 15.3 192.4 14.3 187.2 12.7C177.3 9.5 169.5 5 164.1 1.2C163.7 1 163 0.5 162.5 -0.5C162.1 -1.3 162 -2.1 162 -2.5" stroke="white" stroke-width="0.21" stroke-miterlimit="10"/>
<path d="M160.6 -3.40039C160.6 -2.70039 160.7 -1.60039 161.3 -0.30039C161.8 0.599609 162.3 1.29961 162.8 1.69961C166.7 4.59961 171.9 7.89961 178.2 10.6996C187.3 14.7996 195.6 16.5996 201.8 17.3996C202.8 17.4996 204.4 17.3996 206.2 16.8996C207.6 16.4996 208.7 15.8996 209.4 15.2996" stroke="white" stroke-width="0.21" stroke-miterlimit="10"/>
<path d="M209.3 11.1999C209 10.9999 208.5 10.6999 207.8 10.3999C206.1 9.5999 204.6 9.3999 204.2 9.3999C202.4 9.1999 192.9 7.6999 187.6 5.9999C187.6 5.9999 180.9 3.7999 167.5 -4.3001C167.2 -4.5001 166.3 -5.1001 165 -5.1001C164.4 -5.1001 164 -5.1001 163.6 -5.0001" stroke="white" stroke-width="0.21" stroke-miterlimit="10"/>
<path d="M211.2 11.0996C210.5 10.4996 209.5 9.69965 208.1 9.09965C206.7 8.49965 205.4 8.19965 204.5 8.09965C199.9 7.59965 194.2 6.59965 188 4.49965C179.1 1.49965 172.3 -2.60035 167.6 -6.00035C167.1 -6.20035 166.2 -6.50035 165.2 -6.50035C164 -6.60035 163.1 -6.40035 162.5 -6.10035" stroke="white" stroke-width="0.21" stroke-miterlimit="10"/>
<path d="M226.3 10.8999C226.4 10.7999 226.5 10.6999 226.6 10.5999C227.7 9.6999 228.3 8.3999 228.3 6.9999C228.3 -1.5001 228.2 -10.1001 228.2 -18.6001" stroke="white" stroke-width="0.21" stroke-miterlimit="10"/>
<path d="M231.7 10.8999C231.6 10.7999 231.5 10.6999 231.4 10.5999C230.3 9.6999 229.7 8.3999 229.7 6.9999C229.7 -1.5001 229.8 -10.1001 229.8 -18.6001" stroke="white" stroke-width="0.21" stroke-miterlimit="10"/>
<path d="M339.2 115.8C327.2 106.9 317.6 99.5996 310.8 94.2996C304.1 89.0996 297 83.4996 285.3 74.5996C280.8 71.1996 277 68.2996 274.5 66.3996C274.5 65.9996 274.6 65.2996 274.3 64.3996C273.9 63.3996 273.3 62.8996 273.1 62.5996C270.8 61.2996 267.3 58.6996 264.3 54.3996C263.3 52.9996 261.2 49.7996 260.2 45.2996C258.7 38.7996 259.4 28.5996 259.2 24.9996C259.2 24.5996 259.1 23.5996 258.5 22.5996C258.1 21.8996 257.5 21.3996 257.1 21.0996C257 17.3996 256.9 13.6996 256.8 9.99961C256.7 9.59961 256.5 8.99961 256.2 8.29961C255.9 7.79961 255.6 7.39961 255.4 7.19961C254.7 -1.70039 254 -10.5004 253.3 -19.4004" stroke="white" stroke-width="0.21" stroke-miterlimit="10"/>
<path d="M338.8 113.9C336.2 112 333.6 110.1 331 108.2C317.6 98.2996 304.6 88.3996 291.9 78.3996C291.3 77.8996 290.5 77.5996 289.8 77.5996C289.7 77.5996 289.5 77.5996 289.3 77.5996" stroke="white" stroke-width="0.21" stroke-miterlimit="10"/>
<path d="M338.399 112.2C326.099 103.3 313.699 93.9997 301.199 84.2997C298.299 81.9997 295.299 79.6997 292.399 77.3997C291.499 76.6997 290.399 76.2997 289.299 76.1997H289.199C288.499 76.1997 287.899 76.1997 287.399 76.2997" stroke="white" stroke-width="0.21" stroke-miterlimit="10"/>
<path d="M338.4 116.5C330.4 110.4 322.3 104.3 314.3 98.1996C300.9 87.9996 287.6 77.8996 274.2 67.6996C273.5 67.1996 271.2 65.7996 268.6 63.4996C267.7 62.6996 264 59.3996 261.4 55.7996C257.7 50.4996 257.1 45.0996 256.2 35.9996C255.8 32.5996 255.6 27.7996 255.8 22.0996C256.1 22.2996 256.8 22.8996 257.3 23.9996C257.7 24.9996 257.7 25.8996 257.7 26.2996C257.6 27.8996 257.6 30.0996 257.6 32.7996C257.7 36.8996 257.8 40.1996 258.8 44.2996C259.6 47.4996 260.8 52.7996 264.5 56.8996C265.4 57.8996 267.2 59.6996 269.2 61.3996C270.4 62.4996 271.5 63.2996 272.3 63.8996C272.4 63.9996 273.4 64.5996 273.6 65.7996C273.7 66.3996 273.5 66.7996 273.4 67.0996" stroke="white" stroke-width="0.21" stroke-miterlimit="10"/>
<path d="M338.5 118.1C316.8 100.9 304.2 91.7 296.5 86.3C288.2 80.5 280.5 74.1 272.3 68.2C271.6 67.7 269.5 66.2 267 63.9C264.5 61.7 262.7 59.6 261.6 58.3C261.6 58.3 260 56.3 258.7 54.1C254.2 46.7 254.3 30.3 254.1 14.2C254.1 11.4 254 9.1 254 7.9C253.8 6.4 253.7 4.9 253.5 3.5C253.2 0.7 252.5 -5.3 251.8 -19" stroke="white" stroke-width="0.21" stroke-miterlimit="10"/>
<path d="M255.8 23.0999C255.7 18.9999 255.5 14.8999 255.4 10.7999C255.3 10.1999 255.1 9.3999 254.7 8.4999C254.5 8.0999 254.2 7.6999 254 7.3999" stroke="white" stroke-width="0.21" stroke-miterlimit="10"/>
<path d="M300.2 4.89981C300.4 4.49981 300.7 4.0998 301.1 3.6998C301.9 2.8998 302.7 2.4998 303.2 2.2998C307.1 1.1998 311.2 -0.100196 315.5 -1.5002C324.3 -4.6002 332.1 -8.1002 339 -11.7002" stroke="white" stroke-width="0.21" stroke-miterlimit="10"/>
<path d="M338.9 -13.2002C334 -10.6002 328.5 -8.0002 322.5 -5.5002C315 -2.4002 307.9 -0.200195 301.5 1.5998C300.9 1.7998 300 2.2998 299.1 3.1998C298.1 4.0998 297.6 5.0998 297.3 5.6998" stroke="white" stroke-width="0.21" stroke-miterlimit="10"/>
<path d="M314 4.39971C314.6 4.69971 315.8 5.19971 317.3 5.09971C318 5.09971 318.5 4.89971 319 4.79971C322.7 3.59971 326.7 2.09971 330.8 0.399707C333.7 -0.800293 336.4 -2.10029 339 -3.30029" stroke="white" stroke-width="0.21" stroke-miterlimit="10"/>
<path d="M339 -4.7002C336.2 -3.2002 333 -1.6002 329.5 -0.100195C325.4 1.6998 321.5 2.9998 318 4.0998C317.5 4.0998 317.1 4.0998 316.5 4.0998C315.9 4.0998 315.5 3.9998 315 3.9998" stroke="white" stroke-width="0.21" stroke-miterlimit="10"/>
<path d="M214.1 14.7996C214.4 14.8996 215 15.1996 215.5 15.5996C216.1 16.0996 216.4 16.6996 216.5 17.0996C216.8 16.6996 217.2 16.0996 217.9 15.5996C218.8 14.8996 219.7 14.6996 220.2 14.5996" stroke="white" stroke-width="0.21" stroke-miterlimit="10"/>
</g>
<mask id="mask3_71_10" style="mask-type:luminance" maskUnits="userSpaceOnUse" x="0" y="-19" width="338" height="203">
<path d="M338 -18.6001H0V183.4H338V-18.6001Z" fill="white"/>
</mask>
<g mask="url(#mask3_71_10)">
<path d="M33.2998 155.5C72.6998 99.2999 112 43.0999 151.3 -13.1001" stroke="white" stroke-width="2.54" stroke-miterlimit="10"/>
<path d="M149.4 -10.3999C156.7 -5.0999 163.2 -1.2999 168 1.4001C177.2 6.4001 186.6 11.4001 199.8 13.7001C204 14.4001 207.5 14.7001 209.9 14.8001C226.7 14.8001 245.7 14.2001 266 12.6001C282.6 11.3001 297.4 9.6001 314.9 3.7001C315.4 3.5001 315.9 3.4001 316.2 3.3001C327.3 -0.499902 335.3 -4.3999 340.6 -7.2999" stroke="white" stroke-width="1.69" stroke-miterlimit="10"/>
<path d="M135 10.0999C140.4 2.1999 145.8 -5.7001 151.1 -13.6001C156.2 -9.7001 164.3 -3.9001 174.1 1.4999C174.1 1.4999 185.5 7.6999 195 9.8999C195.2 9.9999 195.5 9.9999 195.6 9.9999C197.3 10.3999 198.9 10.6999 200.4 10.7999C205.5 11.4999 210.9 11.4999 210.9 11.4999C251.1 11.2999 268.8 9.1999 268.8 9.1999C285.5 7.1999 295.5 5.9999 309.1 1.8999C319.4 -1.2001 328.1 -4.8001 335.2 -8.2001C338.2 -9.6001 340.7 -10.9001 342.5 -11.9001" stroke="white" stroke-width="1.69" stroke-miterlimit="10"/>
<path d="M75.9 186.8C49.7 167 23.6 147.2 -2.5 127.4" stroke="white" stroke-width="2.54" stroke-miterlimit="10"/>
</g>
<mask id="mask4_71_10" style="mask-type:luminance" maskUnits="userSpaceOnUse" x="0" y="-19" width="338" height="203">
<path d="M338 -18.6001H0V183.4H338V-18.6001Z" fill="white"/>
</mask>
<g mask="url(#mask4_71_10)">
<path d="M30.2001 147.1C29.9001 144.7 30.5001 143.2 31.0001 142.3C31.5001 141.5 32.0001 141.1 32.0001 140.2C32.0001 139.6 31.8001 139.1 30.5001 137.4C29.3001 135.9 28.7001 135.1 27.5001 134.3C25.9001 133.1 24.7001 132.2 23.0001 132.3C22.7001 132.3 20.8001 132.4 19.6001 134C18.1001 135.8 18.7001 138.1 18.8001 138.3" stroke="#C8D2D3" stroke-width="0.42" stroke-miterlimit="10"/>
<path d="M10.4004 132.8C10.6765 132.8 10.9004 132.576 10.9004 132.3C10.9004 132.024 10.6765 131.8 10.4004 131.8C10.1242 131.8 9.90039 132.024 9.90039 132.3C9.90039 132.576 10.1242 132.8 10.4004 132.8Z" fill="#C8D2D3"/>
<path d="M6 129.7C6.27614 129.7 6.5 129.476 6.5 129.2C6.5 128.924 6.27614 128.7 6 128.7C5.72386 128.7 5.5 128.924 5.5 129.2C5.5 129.476 5.72386 129.7 6 129.7Z" fill="#C8D2D3"/>
<path d="M1.7002 126.4C1.97634 126.4 2.2002 126.176 2.2002 125.9C2.2002 125.624 1.97634 125.4 1.7002 125.4C1.42405 125.4 1.2002 125.624 1.2002 125.9C1.2002 126.176 1.42405 126.4 1.7002 126.4Z" fill="#C8D2D3"/>
<path d="M-0.5 123.9C25.7 144 52 164.1 78.2 184.2" stroke="#C8D2D3" stroke-width="0.42" stroke-miterlimit="10"/>
</g>
<mask id="mask5_71_10" style="mask-type:luminance" maskUnits="userSpaceOnUse" x="0" y="-19" width="338" height="203">
<path d="M338 -18.6001H0V183.4H338V-18.6001Z" fill="white"/>
</mask>
<g mask="url(#mask5_71_10)">
<path d="M-0.5 29.8999C0.9 30.7999 2.2 31.6999 3.6 32.5999C5.7 29.3999 7.9 26.2999 10 23.0999C13.4 25.3999 16.8 27.6999 20.1 29.8999C22.4 26.6999 24.7 23.5999 27 20.3999C30.2 22.7999 33.4 25.1999 36.7 27.5999C34.5 30.8999 32.3 34.0999 30.2 37.3999C28.8 36.4999 27.5 35.4999 26.2 34.5999" stroke="#F0F0F0" stroke-width="1.69" stroke-miterlimit="10"/>
</g>
<mask id="mask6_71_10" style="mask-type:luminance" maskUnits="userSpaceOnUse" x="0" y="-19" width="338" height="203">
<path d="M338 -18.6001H0V183.4H338V-18.6001Z" fill="white"/>
</mask>
<g mask="url(#mask6_71_10)">
<path d="M15.2 83.2998C11.2 88.8998 7.2 94.5998 3.3 100.2C3.3 100.3 2.9 100.9 2.2 101C1.6 101.1 1 100.9 0.7 100.4C5.96046e-08 99.8998 -0.8 99.3998 -1.5 98.7998" stroke="#C8D2D3" stroke-width="0.21" stroke-miterlimit="10"/>
</g>
<mask id="mask7_71_10" style="mask-type:luminance" maskUnits="userSpaceOnUse" x="35" y="45" width="38" height="18">
<path d="M72.8008 45H35.8008V62.4H72.8008V45Z" fill="white"/>
</mask>
<g mask="url(#mask7_71_10)">
<path d="M52.2012 46.0001C51.2012 46.2001 50.4012 47.1001 50.3012 48.1001C50.3012 49.2001 50.6012 50.1001 51.0012 50.9001C51.5012 51.8001 52.1012 52.9001 52.7012 54.0001C52.9012 54.2001 53.0012 54.5001 53.2012 54.8001C52.9012 55.0001 52.5012 55.1001 52.1012 55.1001C51.1012 55.1001 49.9012 54.6001 48.6012 53.5001C47.2012 52.4001 47.0012 52.2001 46.8012 52.0001C46.7012 51.9001 46.6012 51.8001 46.5012 51.7001L45.2012 53.1001C45.3012 53.2001 45.4012 53.3001 45.5012 53.4001C45.8012 53.6001 46.0012 53.8001 47.4012 55.0001C49.1012 56.3001 50.7012 57.0001 52.2012 57.0001C52.9012 57.0001 53.6012 56.8001 54.2012 56.5001C54.4012 56.8001 54.5012 57.2001 54.7012 57.5001C55.8012 59.7001 55.8012 60.9001 55.8012 60.9001L57.7012 61.1001C57.7012 60.9001 57.8012 59.5001 56.4012 56.8001C56.2012 56.3001 55.9012 55.8001 55.6012 55.4001C55.9012 54.9001 56.2012 54.1001 56.2012 53.0001C56.3012 51.8001 56.0012 50.5001 55.6012 49.2001C54.6012 45.9001 52.7012 45.9001 52.2012 46.0001ZM53.9012 49.6001C54.3012 50.8001 54.4012 52.0001 54.4012 52.8001C53.8012 51.8001 53.2012 50.9001 52.8012 50.0001C52.5012 49.4001 52.3012 48.8001 52.3012 48.2001C52.3012 48.1001 52.3012 48.0001 52.4012 48.0001C52.4012 48.0001 52.5012 47.9001 52.6012 47.9001C52.7012 47.9001 52.9012 48.0001 53.1012 48.1001C53.2012 48.3001 53.6012 48.7001 53.9012 49.6001Z" fill="#B4CC04"/>
<path d="M52.8008 49.4999C52.8008 49.6999 52.8008 49.7999 53.0008 49.8999C53.2008 49.9999 53.3008 49.9999 53.5008 49.8999C53.6008 49.7999 53.7008 49.5999 53.7008 49.3999" stroke="#1A1A1A" stroke-width="0.1" stroke-miterlimit="10"/>
<path d="M54.7012 49.2003C54.7012 49.4003 54.9012 49.6003 55.2012 49.6003C55.5012 49.6003 55.7012 49.4003 55.7012 49.2003C55.7012 49.0003 55.5012 48.8003 55.2012 48.8003C54.9012 48.8003 54.7012 49.1003 54.7012 49.2003Z" fill="#F39655"/>
<path d="M50.4014 49.2003C50.4014 49.4003 50.6014 49.6003 50.9014 49.6003C51.2014 49.6003 51.4014 49.4003 51.4014 49.2003C51.4014 49.0003 51.2014 48.8003 50.9014 48.8003C50.6014 48.8003 50.4014 49.1003 50.4014 49.2003Z" fill="#F39655"/>
<path d="M50.6016 48.2002C50.8016 48.4002 51.1016 48.6002 51.4016 48.6002C51.7016 48.6002 52.1016 48.5002 52.3016 48.2002" stroke="#1A1A1A" stroke-width="0.1" stroke-miterlimit="10"/>
<path d="M53.8008 48.2002C54.0008 48.4002 54.3008 48.6002 54.6008 48.6002C54.9008 48.6002 55.3008 48.5002 55.5008 48.2002" stroke="#1A1A1A" stroke-width="0.1" stroke-miterlimit="10"/>
<path d="M56.3008 51.9001C57.2008 52.0001 58.1008 51.7001 58.7008 51.2001C59.2008 50.8001 59.5008 50.3001 59.7008 49.7001C59.9008 49.2001 59.8008 48.5001 60.2008 48.1001" stroke="#1A1A1A" stroke-width="0.1" stroke-miterlimit="10"/>
<path d="M52.0016 52.6003C51.1016 52.7003 50.2016 52.4003 49.6016 51.9003C49.1016 51.5003 48.8016 51.0003 48.6016 50.4003C48.4016 49.9003 48.5016 49.2003 48.1016 48.8003" stroke="#1A1A1A" stroke-width="0.1" stroke-miterlimit="10"/>
<path d="M59.0014 60.9C59.0014 60.8 58.9014 60.8 58.8014 60.8C58.7014 60.8 58.6014 60.7 58.5014 60.7C58.4014 60.7 58.3014 60.7 58.2014 60.7C58.2014 60.7 58.1014 60.7 58.0014 60.6L57.9014 60.5C57.9014 60.5 57.9014 60.4 57.8014 60.4H57.6014C57.7014 60.4 57.8014 60.3 57.8014 60.3V60.1C57.8014 60 57.7014 60 57.6014 60H55.6014C55.5014 60 55.4014 60.1 55.4014 60.1V60.3C55.4014 60.4 55.5014 60.4 55.6014 60.4C55.5014 60.4 55.4014 60.5 55.4014 60.5V61.3C55.4014 61.4 55.5014 61.4 55.6014 61.4H58.8014C58.9014 61.4 59.0014 61.3 59.0014 61.3V61V60.9Z" stroke="#1A1A1A" stroke-width="0.1" stroke-miterlimit="10"/>
<path d="M44.1011 53.9C44.2011 53.9 44.3011 53.9 44.3011 53.9C44.4011 53.9 44.5011 53.8 44.6011 53.7C44.7011 53.6 44.8011 53.5 44.9011 53.5L45.0011 53.4H45.1011H45.2011L45.3011 53.3C45.2011 53.4 45.3011 53.5 45.3011 53.5L45.4011 53.6C45.5011 53.7 45.6011 53.7 45.6011 53.6L46.9011 52.2C47.0011 52.1 46.9011 52 46.9011 52L46.8011 51.9C46.7011 51.8 46.6011 51.8 46.6011 51.9C46.7011 51.8 46.6011 51.7 46.6011 51.7L46.0011 51.2C45.9011 51.1 45.8011 51.1 45.8011 51.2L43.6011 53.5C43.5011 53.6 43.6011 53.7 43.6011 53.7C43.7011 53.8 43.8011 53.8 43.8011 53.9C44.0011 53.9 44.0011 53.9 44.1011 53.9Z" stroke="#1A1A1A" stroke-width="0.1" stroke-miterlimit="10"/>
</g>
</g>
</g>
<defs>
<clipPath id="clip0_71_10">
<rect width="338" height="132" fill="white"/>
</clipPath>
</defs>
</svg>
