<?xml version="1.0" encoding="UTF-8"?>
<svg id="_Слой_1" data-name="Слой 1" xmlns="http://www.w3.org/2000/svg" xmlns:xlink="http://www.w3.org/1999/xlink" viewBox="0 0 681.7 437.88">
  <defs>
    <style>
      .cls-1 {
        stroke-miterlimit: 10;
        stroke-width: .4px;
      }

      .cls-1, .cls-2, .cls-3, .cls-4, .cls-5, .cls-6, .cls-7, .cls-8, .cls-9, .cls-10, .cls-11, .cls-12 {
        fill: none;
      }

      .cls-1, .cls-2, .cls-5, .cls-10 {
        stroke: #fff;
      }

      .cls-2 {
        stroke-width: .4px;
      }

      .cls-2, .cls-3, .cls-13, .cls-5, .cls-14, .cls-6, .cls-7, .cls-8, .cls-9, .cls-10, .cls-11, .cls-12 {
        stroke-miterlimit: 10;
      }

      .cls-15 {
        clip-path: url(#clippath);
      }

      .cls-3 {
        stroke: #f4ebd4;
      }

      .cls-3, .cls-6, .cls-11 {
        stroke-width: 1.59px;
      }

      .cls-13 {
        fill: #e1deeb;
      }

      .cls-13, .cls-14, .cls-8 {
        stroke-width: .8px;
      }

      .cls-13, .cls-9, .cls-11 {
        stroke: #f0f0f0;
      }

      .cls-4, .cls-16, .cls-17, .cls-18, .cls-19, .cls-20, .cls-21, .cls-22, .cls-23 {
        stroke-width: 0px;
      }

      .cls-16, .cls-24, .cls-25, .cls-14 {
        fill: #c8d2d3;
      }

      .cls-5, .cls-12 {
        stroke-width: 4.79px;
      }

      .cls-24 {
        stroke-miterlimit: 10;
        stroke-width: .8px;
      }

      .cls-24, .cls-25, .cls-14, .cls-8 {
        stroke: #c8d2d3;
      }

      .cls-25 {
        stroke-miterlimit: 10;
        stroke-width: .8px;
      }

      .cls-17 {
        fill: #e9efed;
      }

      .cls-26 {
        clip-path: url(#clippath-1);
      }

      .cls-27 {
        clip-path: url(#clippath-4);
      }

      .cls-28 {
        clip-path: url(#clippath-3);
      }

      .cls-29 {
        clip-path: url(#clippath-2);
      }

      .cls-30 {
        clip-path: url(#clippath-5);
      }

      .cls-18 {
        fill: #f0f0f0;
      }

      .cls-19 {
        fill: #f6f5f3;
      }

      .cls-20 {
        fill: #f39655;
      }

      .cls-21 {
        fill: #b4cc04;
      }

      .cls-6 {
        stroke: #eaeeed;
      }

      .cls-7 {
        stroke: #1a1a1a;
        stroke-width: .2px;
      }

      .cls-22 {
        fill: #f6f6f6;
      }

      .cls-9 {
        stroke-width: 2.4px;
      }

      .cls-10 {
        stroke-width: 5.59px;
      }

      .cls-23 {
        fill: #eaeeed;
      }

      .cls-12 {
        stroke: #f6f5f3;
      }
    </style>
    <clipPath id="clippath">
      <rect class="cls-4" x="24.38" y="31.68" width="539" height="385"/>
    </clipPath>
    <clipPath id="clippath-1">
      <rect class="cls-4" x="7.32" y="31.69" width="635.29" height="384.98"/>
    </clipPath>
    <clipPath id="clippath-2">
      <rect class="cls-4" x="7.32" y="31.69" width="635.29" height="384.98"/>
    </clipPath>
    <clipPath id="clippath-3">
      <rect class="cls-4" x="7.32" y="31.69" width="635.29" height="384.98"/>
    </clipPath>
    <clipPath id="clippath-4">
      <rect class="cls-4" x="7.32" y="31.69" width="635.29" height="384.98"/>
    </clipPath>
    <clipPath id="clippath-5">
      <rect class="cls-4" x="111.1" y="169.44" width="52.35" height="24.65"/>
    </clipPath>
  </defs>
  <g class="cls-15">
    <g>
      <g id="_карта_2-2" data-name=" карта 2-2">
        <rect class="cls-16" x="7.32" y="31.69" width="635.29" height="384.98"/>
        <path class="cls-19" d="M642.61,31.69v384.98h-221.29c1.75-2.55,3.48-5.08,5.22-7.61,1.75-.2,3.51-.39,5.26-.59,1.37-2.83,2.74-5.67,4.1-8.49-3.32-1.96-6.63-3.91-9.95-5.86,1.95-2.74,3.9-5.47,5.86-8.21-1.36-.88-2.73-1.75-4.1-2.63,1.27-1.96,2.54-3.91,3.81-5.86,1.36.68,2.74,1.36,4.1,2.06,3.42-5.86,6.83-11.72,10.25-17.59,1.75.77,3.51,1.56,5.26,2.35,2.25-3.22,4.49-6.45,6.73-9.68,1.2.85,2.41,1.69,3.61,2.55-2.28,3.83-4.55,7.68-6.84,11.52.68.39,1.37.77,2.06,1.16,5.95-9.27,11.91-18.55,17.86-27.83-1.46-1.31-3.2-3.26-4.18-4.96-.98-1.69-1.46-3.77-.91-5.65.49-1.67,1.72-3.05,2.23-4.71.52-1.66-.24-4-1.97-4.07,1.79-2.32,3.57-4.65,5.35-6.98.21-.27.64-.87,1.4-1.09,1.05-.31,2.07.28,2.57.61,2.53,1.96,5.07,3.91,7.61,5.86,9.82-14.72,19.65-29.42,29.46-44.14-7.35-4.42-14.71-8.86-22.06-13.28,1.62-5.34,3.26-10.68,4.87-16.02-17.3-10.62-34.61-21.22-51.92-31.83-.13-1.82-.26-3.65-.38-5.47-18.4-10.37-33.99-19.42-46.65-26.75-.31-.18-.61-.35-.94-.55-3.78-2.21-9.63-5.87-15.26-12.34-1.09-1.25-6.45-7.54-9.95-16.41-2.3-5.8-3.26-10.94-3.69-14.62-4.7-35.95-9.43-71.9-14.13-107.85h286.57v-.02s.01,0,.01,0Z"/>
        <path class="cls-23" d="M519.07,276.04c-30.01,46.88-60,93.76-89.99,140.64h-142.17c-16.78-9.65-33.57-19.3-50.35-28.95-1.43-.82-1.87-2.68-.95-4.06,1.98-2.95,3.95-5.91,5.92-8.86,3.82-5.71,7.64-11.43,11.45-17.14,35.42-53,70.82-105.98,106.23-158.97,4.28.4,13.02.64,22.84-3.51,8.7-3.68,14.24-9.11,17.02-12.27,16.58,8.97,33.15,17.94,49.73,26.91-.23,1.64-.46,3.27-.7,4.92,17.8,10.86,35.6,21.73,53.41,32.57-1.95,4.88-3.9,9.77-5.86,14.65,7.81,4.69,15.62,9.37,23.42,14.06h-.01,0Z"/>
        <path class="cls-23" d="M236.45,370.78c-9.75,15.29-19.49,30.6-29.22,45.9H7.32v-200.99c76.38,51.69,152.76,103.39,229.14,155.08h-.01s0,0,0,0Z"/>
        <path class="cls-23" d="M203.75,31.69c-2.99,19.92-9.76,45.04-25.22,70.22C126.42,186.87,22.24,196.91,7.32,198.11v-96.89c9.48-1.74,19.03-3.69,28.5-5.35-.08,1.43.8,2.85,2.1,3.42,1.31.57,2.66.24,3.65-.8.19-1.65.38-3.32.58-4.98,2.11-.85,5.14-2.24,8.49-4.39,10.15-6.52,15.27-14.99,19.91-22.85,7-11.86,13.53-22.95,20.24-34.57h112.96s0,0,0,0Z"/>
        <path class="cls-19" d="M138.59,373.53c-6.02,11.81-12.51,23.9-19.52,36.22-1.32,2.32-2.65,4.64-3.99,6.93H7.32v-138.18c12.13,8.74,22.66,14.93,31.09,19.39,7.17,3.78,19.42,9.86,34.88,20.65.63.43,1.26.88,1.9,1.34.19.13.36.25.55.38,6.09,4.35,11.9,9.07,17.7,13.79,3.39,2.76,6.79,5.51,10.17,8.27,8.27,6.72,16.51,13.43,24.78,20.15,3.89,3.18,7.94,6.59,10.22,11.07h0Z"/>
        <path class="cls-19" d="M277.76,416.68h-75.93c9.82-14.73,20.11-29.59,30.9-44.53h0c1.36-1.79,3.2-4.25,5.25-7.25,6.4-9.34,9.73-16.51,9.96-16.4.23.11-2.04,6.94-6.83,14.85-3.57,5.9-6.51,12.16-9.82,18.21-.34.62-1.19,2.17-.92,4.06.25,1.75,1.35,3.02,2.12,3.74,15.08,9.11,30.17,18.22,45.25,27.32h0s0,0,0,0Z"/>
        <path class="cls-19" d="M348.09,148.11c-1.34,3.33-4.27,4.83-7.42,6.65-3.26,1.89-7.82,4.77-13.27,8.98-1.64-.81-3.27-1.64-4.91-2.46-.26-.14-.53-.26-.78-.39-2-1.01-4-2.01-6.02-3.01-2.94.73-7.27,1.48-12.48,1.18-6.35-.38-11.24-2.14-17.17-4.69-14.25-6.11-22.64-11.32-22.64-11.32-9.13-5.67-19.92-12.16-33.48-20.06h-.01c-3.13-1.82-6.41-3.73-9.85-5.71,1.95-4.56,3.9-9.11,5.86-13.68-6.12-3.91-12.23-7.82-18.34-11.72-25.37,44.27-50.74,88.54-76.12,132.81-1.05.78-2.09,1.56-3.12,2.35,1.68.78,3.38,1.56,5.07,2.35.54-1.69,1.08-3.38,1.61-5.06,21.32-36.34,42.64-72.67,63.96-109,8.91,5.11,17.82,10.2,26.73,15.31,28.7,16.43,57.4,32.87,86.08,49.3.19.11.38.22.56.32,5.42,3.1,10.82,6.2,16.23,9.29.96.92,3.43,3.55,4.3,7.82.94,4.58-.56,8.19-1.11,9.36-27.75,47.98-55.51,95.97-83.25,143.94-.07.11-.13.2-.17.31-.01.01-.03.03-.03.03-.01,0-.01.01-.01.01-.01,0-.01.01-.01.01-.53.91-1.05,1.82-1.58,2.73-.22.38-.33.58-.35.61-.58,1-3.32,5.56-9.91,16.44-79.78-48.69-107.98-65.98-110.58-67.67-.18-.11-3.31-2.19-7.63-4.94-.46-.29-.9-.58-1.36-.87-36.53-23.6-73.06-47.21-109.58-70.81v-38.24c5.86-10.39,11.71-20.78,17.57-31.16,1.71-1.76,4.42-4.24,8.19-6.45,4.66-2.74,8.71-3.77,9.95-4.1,7.75-2.07,44.2-13.42,94.85-29.3,10.74-17.59,21.47-35.16,32.21-52.75-.36-1.61-1.13-3.89-2.94-5.86-2.88-3.14-6.17-3.02-11.13-4.69-5.25-1.78-14.15-6.15-14.06-10.55.07-2.91,4.03-3.36,5.86-7.61.57-1.32.81-2.71.8-4.1h16.57c-.9,2.55-1.81,5.08-2.72,7.61,5.67,2.55,11.32,5.08,16.98,7.61,3.69-5.08,7.38-10.16,11.07-15.24h145.21c3.16,27.35,6.32,54.69,9.48,82.03.04.29.07.57.11.85,1.05,9.09,2.1,18.18,3.15,27.28.33,1.53.57,3.87-.39,6.24l-.02.02h.02Z"/>
        <path class="cls-19" d="M91.75,31.69c-6.13,10.09-10.57,18.47-13.79,25-1.91,3.89-4.66,9.72-10.15,16.41-2.25,2.75-8.99,10.54-20.29,17.18-9.4,5.51-17.44,7.58-24.59,9.37-4.2,1.05-9.45,2.11-15.62,2.8V31.69h84.45Z"/>
        <path class="cls-19" d="M346.34,416.68h-39.76c-21.69-13.96-43.37-27.91-65.06-41.86,3.71-5.55,7.42-11.1,11.13-16.64.11-.17.22-.33.33-.5.62.39,1.24.78,1.86,1.18,1.05.66,2.07,1.31,3.12,1.97,9.42,5.95,18.83,11.89,28.24,17.84.11.07.21.14.31.2,19.94,12.61,39.89,25.22,59.83,37.82h0Z"/>
        <path class="cls-19" d="M642.61,31.69v384.98h-218.89c1.54-2.8,3.08-5.61,4.62-8.41.2,1.03.41,2.08.6,3.11,3.78-3.44,6.87-7.64,9.04-12.28-3.71-2.2-7.32-4.53-10.64-7.28,1.57-2.32,2.95-4.43,4.51-6.77-1.37-.94-2.57-2.08-3.95-3.02,1.6-2.12,3.22-4.24,4.81-6.35.98.58,2.78,1.79,3.76,2.38,3.77-5.61,7.42-11.4,11.2-17.02,1.16.98,2.57,1.37,3.74,2.36,2-3.44,4-6.66,6.02-10.1,2.14,1.47,4.16,3.06,6.3,4.52-2.83,4.01-5.64,7.71-8.47,11.71.97,1.05,2.37,1.12,3.79,1.2,6.52-9.15,13.24-18.06,18.56-27.97-3.32-1.09-6.14-3.81-7.17-7.16-1.03-3.35-.34-7.17,1.79-9.96-.87-1.08-.83-2.28-1.71-3.35.62-1.85,1.43-3.22,2.98-4.42,2.83-2.2,2.32-5.22,5.57-3.38,3.3,1.86,6.24,5.49,9.29,7.81,9.32-14.26,18.64-28.5,27.97-42.76.18-.35.36-.89.35-1.54-.05-1.91-1.82-3.02-2-3.14-5.32-3.45-10.64-6.91-15.97-10.37-.27-.2-2.14-1.59-2.34-4.1-.15-2.04.9-3.46,1.16-3.81.98-1.96,1.95-3.91,2.94-5.86.11-.11.89-.95.73-2.2-.18-1.37-1.36-2.01-1.46-2.06-17.44-10.65-34.88-21.29-52.31-31.93.14-1.5.26-3,.39-4.49-18.73-11.21-37.47-22.4-56.21-33.59-5-2.59-8.36-5.68-10.34-7.82-1.02-1.09-6.09-6.69-8.79-15.82-.99-3.38-1.39-6.31-1.56-8.41-1.44-10.63-2.9-21.28-4.34-31.93-.03-.21-.07-.42-.08-.62-3.64-26.71-7.26-53.43-10.9-80.16h287.02s0,0,0,0Z"/>
        <path class="cls-12" d="M141.6,275.46c-16.13,28.38-32.27,56.78-48.4,85.16"/>
        <path class="cls-12" d="M289.24,384.45c-19.28-12.52-38.57-25.04-57.84-37.56"/>
        <g>
          <path class="cls-16" d="M344.4,326.34c-1.35,1.73-1.75,3.73-2.46,6.55-.93,3.68-3.34,6.78-5.44,9.95-2.79,4.2-4.48,8.29-3.01,13.26.86,2.9,2.72,5.38,4.7,7.66,4.04,4.65,8.95,8.81,14.85,10.56,2.18.65,4.71.9,6.6-.38,2.17-1.47,2.73-4.36,3.88-6.71,1.98-4.03,5.91-6.54,7.32-10.76,1.86-5.55,2.79-11.62,4.16-17.33,1.09-4.5,2.19-9.07,2.37-13.72.11-2.6.99-7.49-1.5-9.24-4.04-2.84-11.4,1.75-15.46,2.75-4.63,1.13-9.14,2.46-13.22,4.98-1.27.78-2.16,1.57-2.83,2.42h.02s0,0,0,0Z"/>
          <path class="cls-16" d="M341.39,372.08c-1.74-1.2-4.49-.39-5.3,1.55-.27-1.58-1.83-2.52-3.06-3.54s-2.24-2.91-1.2-4.13c.55-.65,1.52-.82,2.34-.62s1.54.7,2.22,1.22c1.75,1.36,3.37,2.9,4.79,4.59l.22.93h0s0-.01,0-.01Z"/>
          <path class="cls-16" d="M338.92,389.93c-.07,1.11-.12,2.28.34,3.3.46,1.05,1.4,1.79,2.3,2.5,2.1,1.64,4.2,3.28,6.3,4.92,1.97-3.53,3.21-7.46,3.61-11.48.36-3.65-.06-7.59-2.34-10.46-1.59-1.99-7.03-4.77-9.26-2.11-1.72,2.06-.76,10.39-.93,13.33h-.01Z"/>
          <path class="cls-16" d="M449.01,313.65c1.08.69,2.42.76,3.65,1.12,2.64.78,4.77,3.1,5.32,5.81.11.5.11,1.11-.31,1.39-.38.27-.9.09-1.33-.11-2.81-1.26-5.45-2.89-7.83-4.84-1.55-1.28-3.06-2.76-3.72-4.66-.38-1.12-.49-5.63,1.64-4.4,1.32.77.63,4.45,2.57,5.69h0s0,0,0,0Z"/>
          <path class="cls-16" d="M421.3,307.84c-2.41.97-4.98,1.95-7.55,1.56-1.48-.22-2.95-.94-3.8-2.18s-.95-3.02-.03-4.22c.8-1.02,2.16-1.44,3.45-1.48,1.29-.05,2.57.21,3.88.25,2.57.07,7.47-3.4,9.1-1.09,2.24,3.18-2.84,6.27-5.06,7.15h.01Z"/>
          <path class="cls-16" d="M433.71,227.89c-1.52.95-3.43,1.28-4.7,2.54-1.95,1.91-1.67,5.09-1.13,7.78.78,3.95,1.94,8.08,4.93,10.75,4.16,3.72,10.42,3.44,15.97,2.95,1.83-.16,4.04-.59,4.69-2.32.42-1.1,0-2.33-.41-3.44-1.95-5.24-3.89-10.47-5.83-15.71-.89-2.41-1.87-4.94-3.9-6.53-1.49-1.16-4.87-2.27-6.66-1.07-1.91,1.28-.62,3.58-2.95,5.04h0s0,0,0,0Z"/>
          <path class="cls-16" d="M152.17,410.04c1.58-1.23,2.79-2.92,3.45-4.81.37-1.06.57-2.22.34-3.32s-.91-2.16-1.94-2.61c-1.19-.53-2.61-.2-3.7.53s-1.89,1.78-2.67,2.82c-1.26,1.67-2.52,3.34-3.77,5-.87,1.16-6.16,9.25-1.97,8.64,1.4-.2,3.26-2.48,4.59-3.18,1.91-1,3.96-1.72,5.67-3.06h.01s0,0,0,0Z"/>
          <path class="cls-16" d="M160.71,366.2c.89-.89,2.4-1.03,3.49-.4s1.73,1.93,1.68,3.18c-.08,2.2-2.07,4.57-4.18,2.99-1.65-1.23-2.61-4.14-1-5.77h0Z"/>
          <path class="cls-16" d="M168.37,393.63c.29.6.64,1.2,1.17,1.59s1.3.54,1.87.22c.72-.42.89-1.36,1-2.18.14-1.1.27-2.23.05-3.31-.4-1.95-2.67-3.8-4.53-2.18-1.55,1.36-.28,4.37.43,5.86h.01s0,.01,0,.01Z"/>
          <path class="cls-16" d="M188.25,368.03c1.26.46,2.53.94,3.61,1.75s1.94,2.01,2.02,3.34c.11,1.91-1.31,3.53-2.26,5.2-1.59,2.77-1.98,6.21-1.04,9.27.47,1.52,1.35,3.04,2.81,3.69,3.47,1.55,7.73-2.58,11.06-.76-.16,1.97,2.27,3.41,4.19,2.89s3.26-2.18,4.47-3.74c.7-.9,1.4-1.79,2.1-2.7.79-1.01,1.58-2.48.74-3.45-.61-.7-1.75-.62-2.54-.16s-1.4,1.2-2.12,1.76c-.92.72-2.08,1.16-3.24,1.05-1.16-.1-2.28-.79-2.76-1.85-1.15-2.55,1.68-5.7.36-8.17-.81-1.5-2.74-1.9-4.41-2.2-1.67-.31-3.61-.89-4.18-2.5-.41-1.14.05-2.43-.18-3.61-.34-1.79-2.11-2.94-3.85-3.46-1.13-.34-2.37-.5-3.44,0s-1.82,2.59-1.32,3.65h-.02s0,0,0,0Z"/>
          <path class="cls-16" d="M28.73,264.16c-1.26,2.6-4.96,2.95-7.61,1.85-2.66-1.12-4.78-3.23-7.35-4.53-2.1-1.05-4.53-1.6-6.45-2.84v-14.13c2.97-1.28,7.32-.2,11.21,2.13,3.92,2.35,6.41,6.46,8.73,10.41,1.28,2.2,2.59,4.85,1.48,7.12h0s0,0,0,0Z"/>
          <path class="cls-16" d="M11.53,256.09c-1.13.55-2.74.23-4.21-.52v-7.63c1.01.05,2.01.34,2.77.8,1.3.78,2.49,1.92,2.92,3.39.43,1.48-.11,3.29-1.48,3.96h0Z"/>
          <path class="cls-16" d="M84.4,301.39c1.09.58,2.44.58,3.49,1.24.65.42,1.14,1.06,1.85,1.35,1.16.47,2.59-.27,3.1-1.4s.22-2.54-.52-3.56-1.83-1.71-2.99-2.22c-2.12-.93-5.17-1.39-7.07.27.55,1.62.32,3.36,2.14,4.33h0Z"/>
          <path class="cls-16" d="M8.41,159.54c-.33.31-.7.61-1.09.89v-13.95c.52-.05,1.02-.24,1.54-.24,1.72.01,2.76,1.97,2.99,3.68.48,3.5-.85,7.21-3.43,9.61h0Z"/>
          <path class="cls-16" d="M7.32,136.53c2.22,2.24,4.9,4.35,6.02,6.25.59.99,1.48,2.24,2.56,1.86.57-.2.9-.81,1.11-1.37.68-1.82.74-3.82.31-5.71-.4-1.72-1.22-3.36-2.37-4.7-1.05-1.22-4.79-3.7-7.63-4.36v8.04h0Z"/>
          <path class="cls-16" d="M481.6,265.5c-.65,1.09-1.23,2.36-.89,3.57.23.81.83,1.45,1.41,2.07.39.42.8.83,1.32,1.08s1.17.28,1.62-.07c.71-.54.58-1.63.39-2.5-.24-1.05-.49-2.13-1.11-3s-1.72-1.5-2.77-1.25l.03.1h0Z"/>
        </g>
        <g>
          <path class="cls-23" d="M195.29,384.66c.2.78.63,1.61,1.41,1.81.54.14,1.11-.08,1.5-.46s.62-.9.74-1.44c.33-1.43-.16-4.35-2.02-4.5-2.27-.19-1.98,3.22-1.63,4.59h0Z"/>
          <path class="cls-23" d="M357.27,335.91c.01.62.04,1.28.42,1.75.62.77,1.87.7,2.71.18,1.93-1.18,2.34-3.77,3.64-5.63.75-1.08,1.88-2.08,1.85-3.39-.03-1.16-1.01-2.1-2.09-2.52-1.65-.63-3.65-.26-4.96.93-2.33,2.11-1.61,5.88-1.56,8.66h.01s0,.02,0,.02Z"/>
          <path class="cls-23" d="M365.11,352.96c-1.17.81-2.65,1.01-4,1.51-1.6.61-3.08,1.68-4.79,1.77-2.65.14-4.75-2.09-6.46-4.11-1.01-1.2-2.06-2.52-2.1-4.08-.05-1.34.68-2.6,1.56-3.61,1.2-1.37,2.82-2.48,4.63-2.71,2.6-.34,5.06,1.09,7.3,2.46,2.49,1.53,8.32,5.7,3.85,8.78h.01Z"/>
        </g>
        <path class="cls-8" d="M318.53,250.82c11.29,8.45,17.09,23.63,14.33,37.46-.37,1.83-.87,3.75-.29,5.53.74,2.28,3.01,3.64,4.98,5,9.32,6.42,15.33,17.4,15.73,28.69"/>
        <path class="cls-8" d="M404.07,230.39c-4.12.28-8.24.56-12.35.85-9.84.67-17.67,8.96-27.37,10.82,2.73,1.84,5.56,3.8,7.11,6.71,1.55,2.91,1.33,7.04-1.37,8.92-2.83,1.97-6.8.66-10.06,1.77-3.88,1.33-5.74,5.59-8.01,9-4.15,6.23-11.01,10.57-18.41,11.64"/>
        <path class="cls-8" d="M347.37,309.27c3.08-2,4.54-5.72,5.31-9.31s1.06-7.34,2.62-10.66c1.66-3.52,4.63-6.28,7.95-8.3,3.32-2.02,6.99-3.38,10.63-4.73,14.02-5.16,29.84.5,44.76.09,2.04-4.83,3.5-10.14,2.17-15.21-.49-1.85-2.84-2.73-4.31-3.95-.51-.42-1-.9-1.27-1.5-.72-1.56.13-3.38,1.08-4.82s2.06-2.99,1.87-4.69c-2.83-3.41-5.76-7.19-8.13-11.05"/>
        <path class="cls-19" d="M75.54,94.68c-.48,1.74-.87,3.71-2.33,4.77-2.26,1.64-5.38.08-7.69-1.5-.43,2.23-.86,4.45-1.29,6.67-.1.5-.19,1.06.1,1.49.59.91,1.98.35,2.91-.22,5.94-3.63,13.89-3.65,19.84-.05,1.75,1.06,3.63,2.48,5.63,2.02,1.82-.42,2.93-2.21,3.83-3.84,1.9-3.44,3.79-6.88,5.69-10.32-3.03-2.06-6.06-4.13-9.09-6.19-2.33-1.59-5.37-4.64-8.28-4.94-5.29-.56-8.05,8.33-9.31,12.11h0s0,0,0,0Z"/>
        <g>
          <path class="cls-23" d="M144.31,124.26c-1.08.68-2.15,1.36-3.23,2.03.31,2.2,2.86,4.15,4.99,3.56,0,1.35-.68,2.68-1.78,3.47,1.27-.3,2.57.34,3.84.05.81-1.16,1.51-2.28,1.36-3.69-.15-1.4-1.88-2.63-3-1.76v-3.92c-.54.07-1.74-.03-2.19.27h.01Z"/>
          <path class="cls-23" d="M109.02,186.69l.04-.56c-1.66,4.44-3.67,8.74-6.02,12.85,2.3,1.25,4.67,3.25,6.97,4.49,2.21-4.46,4.16-9.03,6.37-13.5-2.44-1.46-4.93-1.83-7.37-3.3h0Z"/>
          <path class="cls-23" d="M604.96,87.18c-.96,3.49-1.46,7.11-1.48,10.74-2.52.36-5.2.49-7.71.03-.55-4.22-.03-8.21,1.56-12.15,2.61.48,5.02.89,7.63,1.37h0s0,0,0,0Z"/>
          <path class="cls-23" d="M609.83,90.88c-.58,1.17-.88,2.5-.85,3.81.01.47.07.96.36,1.33.38.48,1.05.63,1.64.54s1.13-.4,1.66-.7c-.06-1.28.11-2.58.48-3.81-1.05.07-2.5-.47-3.3-1.16h.01s0-.01,0-.01Z"/>
          <path class="cls-23" d="M599.57,270.33c-.7,1.57-1.4,3.14-2.09,4.72,1.82.27,3.69.68,5.51.93.27-1.49.48-2.75.74-4.25-1.48-.71-2.54-1.21-4.16-1.4h.01,0Z"/>
          <path class="cls-23" d="M633.79,303.98c-2.34-2.06-5.76-2.8-8.74-1.9.14-2.27.76-4.18,1.49-6.33,2.74-.07,5.34.5,7.85,1.6.15,2.36.05,4.35-.61,6.63h0Z"/>
          <path class="cls-23" d="M516.98,333.19c.64-.96,1.36-2.01,2.19-2.92-.31-.23-.61-.46-.9-.7-1.93,1.71-3.28,4.22-3.78,6.75.16.11.32.2.48.3.6-1.2,1.28-2.36,2.01-3.44h0s0,.01,0,.01Z"/>
          <path class="cls-23" d="M520.09,334.55c.46-.9.98-1.77,1.55-2.61-.55-.34-1.1-.69-1.63-1.05-.85.92-1.59,1.99-2.23,2.96-.7,1.06-1.36,2.18-1.94,3.34.81.51,1.61,1,2.41,1.48.54-1.4,1.16-2.78,1.83-4.11h0s0-.01,0-.01Z"/>
          <path class="cls-23" d="M526.11,334.35c-.53.92-.97,1.87-1.39,2.75-.65,1.37-1.21,2.78-1.8,4.18,1.2.65,2.43,1.28,3.69,1.91,1.33-2.52,2.45-4.72,3.78-7.24-1.46-.44-2.89-.98-4.28-1.61h0s0,.01,0,.01Z"/>
          <path class="cls-23" d="M523.98,336.27c.37-.77.77-1.57,1.21-2.36-.92-.44-1.82-.91-2.69-1.42-.59.87-1.13,1.79-1.59,2.73-.66,1.28-1.23,2.61-1.75,3.97.95.55,1.91,1.08,2.87,1.6.64-1.51,1.25-3.03,1.96-4.52h-.01s0-.01,0-.01Z"/>
          <path class="cls-23" d="M510.49,393.35c3.93,2.89,7.86,5.78,11.8,8.67-1.17,1.63-1.95,3.42-3.13,5.06-4.5-1.97-8.54-4.31-12.18-7.6,1.08-2.05,2.42-4.07,3.5-6.12h.01,0Z"/>
          <path class="cls-23" d="M503.24,393.42c.84-2.27,2.25-4.32,4.06-5.91.86.83,1.54,1.55,2.4,2.38-1.58,1.19-2.93,2.96-3.45,4.87-.97-.66-2.04-.67-3.01-1.33h0s0,0,0,0Z"/>
          <path class="cls-23" d="M521.31,342.5c-1.16,2.62-3.14,4.87-5.6,6.35,2.08-.07,4,.12,6.08.05.63-1.63,1.61-3.34,2.87-4.56-1.11-.38-2.23-1.47-3.35-1.84h0Z"/>
          <path class="cls-23" d="M514.77,343.48c-.94-.03-1.83-.72-2.07-1.63l2.07,1.63Z"/>
          <path class="cls-23" d="M533.1,377.02c.21-.79.81-1.46,1.57-1.75,1.14.7,2.57,1.22,3.73,1.91-.52.39-1.08.98-1.59,1.37-1.05-.46-2.66-1.09-3.7-1.55h0s0,.01,0,.01Z"/>
          <path class="cls-23" d="M559.15,336.13l-3.99,6.51c1.52.87,3.16,2.07,4.67,2.94,1.12-2.6,2.32-5.28,3.88-7.64-1.56-.66-3.02-1.16-4.57-1.81h0s0,0,0,0Z"/>
          <path class="cls-23" d="M553.99,344.81c1.24.7,2.49,1.4,3.73,2.1-1.58,2.12-3.22,4.04-4.79,6.16-.97-.85-2.02-1.61-2.99-2.47,1.4-2.1,2.64-3.69,4.04-5.8h0Z"/>
        </g>
        <g class="cls-26">
          <g>
            <path class="cls-3" d="M440.3,157.06c2.71,7.04,5.43,14.08,8.14,21.12"/>
            <path class="cls-19" d="M469.05,157.76c-3.64-2.56-3.88-7.45-3.29-11.54-13.17,1.73-22.7,7.22-26.12,9.36,2.02,7.49,4.91,13.03,8.27,20.02,7.95-1.34,16.05-1.69,24.09-1.12,1.45-5.3,2.22-10.76,3.07-16.2-1.98.13-4.39.62-6.02-.53h.01s0,0,0,0Z"/>
            <path class="cls-19" d="M501.77,177.88c1.4-2.88,2.18-6.1,3.02-9.18,1.11-4.07,2.17-8.29,3.81-12.23-12.26-8.1-23.85-9.88-26.46-10.23-.5-.07-.99-.13-1.48-.19-2.61,9.37-3.04,19.28-5.53,28.69,8.62.88,17.12,2.83,25.25,5.81.47-.93.97-1.83,1.39-2.67h0s0,0,0,0Z"/>
            <path class="cls-19" d="M515.49,161.71c-1.42-1.24-2.85-2.37-4.28-3.41-1.4,3.5-2.34,7.21-3.32,10.84-.79,2.91-1.57,5.86-2.71,8.66-.54,1.34-1.22,2.6-1.87,3.9,5.65,2.26,11.1,5.02,16.25,8.27,2.99-4.26,5.98-8.52,8.97-12.78-2.49-4.09-6.64-9.89-13.05-15.46h0s0-.02,0-.02Z"/>
            <path class="cls-19" d="M452.39,49.05c-13.7,5.92-27.14,11.92-40.83,17.83-2.37-11.74-4.75-23.46-7.12-35.19h41.43c2.82,5.55,5.07,11.69,6.52,17.36h0Z"/>
            <path class="cls-19" d="M490.55,51.61c-5.4,4.49-11.99,8.14-17.4,12.65-4.25-7.17-13.25-11.01-16.94-18.5-2.3-4.69-4.62-9.37-6.92-14.07h25.19c5.16,6.78,10.44,13.64,16.06,19.92h.01,0Z"/>
            <path class="cls-19" d="M494.92,206.86c4.52,7.88,10.01,15.2,16.31,21.74,3.52-3.6,7.67-7.4,11.69-10.43-5.57-5.96-10.59-12.72-15.12-19.51-4.62,2.52-8.65,5.08-12.87,8.21h0Z"/>
            <path class="cls-18" d="M81.68,207.48c4.97,2.05,9.7,4.67,14.07,7.79-3.11,8.37-6.95,16.44-11.88,23.89-5.51-2.21-10.57-4.81-15.32-8.37,4.37-7.98,8.21-15.65,13.12-23.31h.01Z"/>
            <path class="cls-18" d="M49.06,210.05c6.5,4.14,13.13,8.06,19.89,11.77-1.02,2.36-2.1,4.98-3.12,7.33-6.36-3.36-12.45-6.94-18.34-11.07.34-2.8,1.24-5.23,1.58-8.03h-.01,0Z"/>
            <path class="cls-18" d="M41.57,213.07c5.12-6.28,9.63-13.04,13.46-20.19-8.32-4.51-16.3-9.55-24.62-14.06-4.25,7.02-8.91,13.63-13.17,20.64,7.82,4.51,16.5,9.09,24.32,13.6h0Z"/>
            <path class="cls-19" d="M83.18,79.97c7.09,3.96,14.18,7.93,21.28,11.89-3.63,5.85-7.13,12.23-10.76,18.08-7.46-2.42-15.04-5.72-21.92-9.49,3.14-7.69,6.91-13.49,11.41-20.48h-.01s0,.01,0,.01Z"/>
            <path class="cls-18" d="M122.44,192.29c4.56-9.38,9.77-18.44,15.58-27.09,4.27,2.49,8.72,5.01,12.98,7.5-4.76,9.61-9.28,18.79-15.14,27.78-4.63-2.67-8.8-5.52-13.42-8.19h0Z"/>
            <path class="cls-18" d="M157.99,130.96c-5.35,9.58-10.69,19.16-16.05,28.74,4.37,2.19,8.25,4.61,12.62,6.81,5.6-8.17,10.85-16.64,15.18-25.56-3.47-3.83-7.22-7.5-11.75-9.99h0s0-.01,0-.01Z"/>
            <path class="cls-18" d="M145.61,174.95c2.41-3.82,4.84-7.64,7.26-11.46-.56-.27-1.11-.55-1.67-.82-2.33,3.51-4.65,7.03-6.98,10.54.46.58.93,1.16,1.39,1.74h0Z"/>
            <path class="cls-18" d="M139.25,163.25c3.48,2.24,6.96,4.49,10.44,6.74.23-.42.46-.85.69-1.27-3.45-2.32-6.9-4.62-10.34-6.94-.27.49-.52.97-.78,1.47Z"/>
            <g>
              <path class="cls-11" d="M132.61,152.99c2.6-4.49,5.21-8.99,7.81-13.48-3.77-2.21-7.54-4.43-11.32-6.64-2.74,4.17-5.47,8.33-8.2,12.5"/>
              <path class="cls-11" d="M104.31,162.37c1.82.97,3.65,1.96,5.47,2.93,2.27-3.91,4.55-7.82,6.83-11.72-4.04-2.48-8.06-4.95-12.1-7.42-2.53,3.91-5.07,7.82-7.61,11.72-4.04-2.28-8.06-4.56-12.1-6.83-2.14,4.23-4.29,8.46-6.45,12.7-4.29-2.67-8.59-5.34-12.88-8.01-.85,1.36-1.69,2.74-2.53,4.1"/>
              <path class="cls-11" d="M61.18,167.45c-3.9-2.41-7.81-4.82-11.71-7.22-2.27,4.23-4.55,8.46-6.83,12.7,3.71,2.21,7.42,4.43,11.13,6.64"/>
              <path class="cls-9" d="M88.12,385.91c5.76-7.52,11.52-15.04,17.28-22.56,6.06,5.47,12.1,10.93,18.15,16.4-8.26,11.74-16.52,23.48-24.78,35.23"/>
              <path class="cls-9" d="M57.36,342.32c1.34-2.24,2.68-4.47,4.02-6.71"/>
              <path class="cls-9" d="M50.9,353.09c1.59-2.67,3.2-5.33,4.79-8"/>
              <path class="cls-9" d="M43.95,364.68c1.64-2.74,3.29-5.47,4.92-8.21"/>
              <path class="cls-9" d="M37.34,375.71c1.53-2.56,3.06-5.12,4.59-7.67"/>
              <path class="cls-9" d="M19.81,389.79c2.17,1.44,4.34,2.87,6.51,4.3,2.99-4.98,5.97-9.96,8.95-14.93"/>
              <path class="cls-9" d="M7.99,381.96c2.97,1.97,5.93,3.93,8.89,5.89"/>
              <path class="cls-9" d="M16.59,378.08c-1.08-.62-2.15-1.22-3.22-1.83"/>
              <path class="cls-9" d="M27.8,384.45c-2.66-1.52-5.33-3.02-7.99-4.54"/>
              <path class="cls-9" d="M19.8,372.73c1.69-2.74,3.38-5.47,5.07-8.21"/>
              <path class="cls-9" d="M42.83,353.98c-3.51-2.09-7.03-4.17-10.53-6.25"/>
              <path class="cls-9" d="M40.47,330.31c-1.98-1.09-3.96-2.2-5.94-3.29"/>
              <path class="cls-9" d="M52.52,336.99c-2.03-1.13-4.08-2.26-6.11-3.38"/>
              <path class="cls-9" d="M64.11,325.55c-6.64-3.61-13.27-7.22-19.91-10.84"/>
              <path class="cls-9" d="M64.98,319.4c-1.66-.88-3.32-1.75-4.98-2.63"/>
              <path class="cls-9" d="M39.52,314.42c-1.17,2.05-2.34,4.1-3.51,6.16"/>
              <path class="cls-9" d="M25.76,334.06c1.75-3.02,3.51-6.06,5.27-9.08"/>
              <path class="cls-9" d="M12.88,369.8c.45-.85.89-1.71,1.34-2.56"/>
              <path class="cls-9" d="M13.46,362.77c-1.2-.78-2.39-1.56-3.59-2.35"/>
              <path class="cls-9" d="M14.05,360.42c.88-1.36,1.75-2.74,2.63-4.1"/>
              <path class="cls-9" d="M17.85,353.09c-1.36-.49-2.74-.97-4.1-1.47"/>
              <path class="cls-9" d="M6.44,359.54c2.14-4.98,4.29-9.96,6.45-14.94-2.24-1.17-4.49-2.35-6.73-3.51"/>
              <path class="cls-9" d="M5.55,329.08c3.61,2.05,7.22,4.1,10.83,6.16"/>
              <path class="cls-9" d="M21.66,321.45c3.71-6.45,7.42-12.89,11.13-19.34-8.78-5.37-17.56-10.74-26.34-16.12"/>
              <path class="cls-9" d="M13.75,314.42c1.17-2.15,2.34-4.3,3.51-6.45-3.32-1.75-6.64-3.51-9.95-5.27"/>
              <path class="cls-9" d="M42.93,384.21c-.94,1.64-1.88,3.28-2.83,4.92,2.34,1.27,4.68,2.54,7.03,3.81"/>
              <path class="cls-9" d="M55.08,379.47c-2.36-1.36-4.71-2.74-7.07-4.1-.77,1.34-1.54,2.67-2.3,4.02"/>
              <path class="cls-9" d="M17.85,398.62c-.88-.53-1.75-1.05-2.63-1.58-1.17,2.15-2.34,4.3-3.51,6.45"/>
              <path class="cls-9" d="M19.9,406.37c.88-1.64,1.75-3.29,2.63-4.93-.91-.54-1.81-1.09-2.72-1.63"/>
              <path class="cls-9" d="M15.8,414.04l2.2-4.12"/>
              <path class="cls-9" d="M86.06,409.64c.88-1.47,1.75-2.93,2.63-4.4"/>
              <path class="cls-9" d="M90.75,401.44c1.08-1.75,2.14-3.51,3.22-5.27"/>
              <path class="cls-9" d="M95.39,393.21c1.09-1.84,2.18-3.69,3.26-5.54"/>
              <path class="cls-9" d="M84.28,414.38l-3.8-2.36"/>
              <path class="cls-9" d="M75.53,409.64l-2.05-1.17"/>
              <path class="cls-9" d="M71.96,405.98c3.8-5.89,7.22-12.02,10.24-18.35"/>
              <path class="cls-9" d="M81.96,397.92c1.17.58,2.34,1.17,3.51,1.75"/>
              <path class="cls-9" d="M76.98,356.64c2.95,1.63,5.89,3.26,8.83,4.89"/>
              <path class="cls-9" d="M74.5,331.08c6.71,3.95,13.51,7.75,20.39,11.37"/>
              <path class="cls-9" d="M93.2,348.16c-.89,2.05-1.79,4.09-2.69,6.13"/>
              <path class="cls-9" d="M75.24,347.52c2.03,1.2,4.07,2.4,6.1,3.59"/>
              <path class="cls-9" d="M72.53,342.52c.7-1.36,1.38-2.73,2.07-4.09"/>
              <path class="cls-9" d="M69.04,340.26c.89-1.48,1.79-2.97,2.68-4.45"/>
              <path class="cls-9" d="M70.5,351.75c-2.19-.99-4.39-1.99-6.58-2.98,1.05-1.73,2.09-3.47,3.14-5.2"/>
              <path class="cls-9" d="M59.03,372.34c2.34-4.1,4.68-8.21,7.03-12.31"/>
              <path class="cls-9" d="M73.28,378.59c-1.82-.97-3.65-1.96-5.47-2.93"/>
              <path class="cls-9" d="M78.75,367.84c-1.75-1.05-3.51-2.09-5.27-3.13"/>
              <path class="cls-9" d="M77.19,361.01c-1.24-.46-2.47-.91-3.71-1.36"/>
              <path class="cls-9" d="M64.5,372.34c.72.39,1.43.78,2.14,1.17"/>
              <path class="cls-9" d="M68.01,387.57c-1.63-1.05-3.26-2.09-4.88-3.13"/>
              <path class="cls-9" d="M58.45,391.67c-1.69-1.24-3.38-2.48-5.07-3.71"/>
              <path class="cls-9" d="M63.92,402.8c-2.48-1.5-4.96-2.99-7.44-4.49"/>
              <path class="cls-9" d="M52.52,402.61c-.82,1.24-1.64,2.48-2.46,3.71-1.89-1.11-3.77-2.21-5.67-3.32.66-1.11,1.3-2.21,1.95-3.32"/>
              <path class="cls-9" d="M62.16,390.89l2.34,1.36"/>
              <path class="cls-9" d="M79.63,375.66c2.24-3.91,4.49-7.82,6.73-11.72"/>
              <path class="cls-9" d="M74.69,384.26c1.32-2.3,2.64-4.6,3.96-6.9"/>
              <path class="cls-9" d="M68.01,395.88l4.27-7.44"/>
              <path class="cls-9" d="M64.98,401.14l1.43-2.48"/>
            </g>
            <path class="cls-18" d="M137.31,260.23c3.15-5.71,6.3-11.43,9.45-17.14-11.09-6.27-22.18-12.53-33.27-18.8-3.38,5.73-6.76,11.46-10.14,17.18,11.33,6.25,22.64,12.5,33.97,18.76h-.01Z"/>
            <path class="cls-18" d="M153.44,209.52c5.22-9.05,10.45-18.1,15.67-27.15,3.55,3.07,9.05,5.96,13.42,7.66-5.25,9.7-10.87,19.22-17.44,28.06-3.41-3.68-7.27-6.1-11.65-8.57h-.01Z"/>
            <path class="cls-18" d="M172.77,176.71c4.03,2.61,8.06,5.21,12.09,7.82,6.02-8.88,12.39-18.45,17.11-28.08-4.82-1.93-9.17-4.29-13.99-6.22-5.79,8.29-10.95,17.3-15.21,26.48h0Z"/>
            <path class="cls-18" d="M202.85,121.14c-3.2,5.29-6.39,10.59-9.59,15.89,3.4,1.65,6.97,3.6,10.38,5.26,2.99-5.34,5.54-10.75,8.54-16.09-3.25-1.58-6.08-3.47-9.32-5.05h-.01Z"/>
            <path class="cls-23" d="M110.26,185.55c-2.57,4.7-5.15,9.4-7.73,14.11,2.24,1.32,5.02,2.56,7.27,3.88,2.05-4.28,4.59-8.95,6.64-13.22-2.45-1.47-3.73-3.28-6.18-4.76h.01,0Z"/>
            <path class="cls-23" d="M112.78,181.46c1.54-4.18,3.7-8.12,6.38-11.67.95.92,2.3,1.79,3.53,2.28-2.14,4.18-3.93,8.19-6.07,12.36-1.3-.97-2.53-2.01-3.84-2.98h0Z"/>
            <path class="cls-23" d="M122.68,154.94c-.26,1.69-.51,3.38-.77,5.08.85-.62,2.57-.95,3.57-.62s1.81,1.16,2.13,2.16c.61-1.36,1.14-2.69,1.75-4.05-2.19-1.13-4.49-1.43-6.68-2.57h0s0,0,0,0Z"/>
            <path class="cls-18" d="M231.68,218.1c2.24-3.91,4.49-7.83,6.73-11.74-4.49-2.11-8.63-4.91-12.7-7.73.1-2.92.17-5.98-1.13-8.6-1.2-2.45-3.45-4.2-5.72-5.72-2.73-1.84-5.98-3.47-8.93-4.92-4.09,6.52-8.19,13.18-12.3,19.96,11.37,6.23,22.67,12.56,34.04,18.75h0Z"/>
            <path class="cls-18" d="M193.38,206.44c-1.59,2.66-3.18,5.34-4.77,8.04-1.79,3.05-3.57,6.09-5.31,9.11,11.43,6.39,22.31,13.89,34.19,19.29,3.37-5.87,6.72-11.74,10.09-17.6-11.43-6.23-22.78-12.59-34.19-18.84h-.01Z"/>
            <path class="cls-18" d="M179.18,230.74c-3.41,5.97-6.74,11.89-9.98,17.77l33.96,19.34c3.41-5.94,6.8-11.87,10.21-17.81-11.83-5.53-22.73-12.94-34.19-19.3h0s0,0,0,0Z"/>
            <path class="cls-11" d="M169.65,113.22c-.9,2.04-1.81,4.08-2.71,6.12,3.01,1.4,5.08,3.34,8.09,4.74,2.37-4.28,5.6-8.97,7.97-13.25-1.58-1.05-3.18-1.84-4.74-2.89"/>
            <path class="cls-11" d="M158.71,115.73l-2.94-2.05c1.27-2.15,1.93-4.53,3.2-6.68.73.97,1.76,1.98,2.92,2.34"/>
            <path class="cls-18" d="M243.07,40.82c-4.18,7.82-8.36,15.65-12.54,23.47,1.91.12,3.8,1.96,3.1,3.74,5.09,2.7,10.4,5.49,15.5,8.19,4.37-8.08,9.32-16.28,13.68-24.35-3.55-1.94-6.84-4.22-10.39-6.16-1.59-.87-3.26-1.75-5.07-1.75-1.12,0-2.26.35-3.33.03s-1.8-2.44-.96-3.16c0,0,.01,0,.01,0Z"/>
            <path class="cls-18" d="M169.5,300.18c6-10.62,12-21.23,17.99-31.85,17.06,10.68,34.13,21.35,51.19,32.03-6.23,10.7-12.46,21.41-18.69,32.1-16.84-10.76-33.67-21.53-50.5-32.29h.01Z"/>
            <path class="cls-18" d="M175.36,294.5c-6.25-4.1-12.49-8.21-18.73-12.31,1.56-2.58,3.13-5.16,4.68-7.74,6.06,4.53,12.1,9.06,18.15,13.6-1.36,2.15-2.74,4.3-4.1,6.45h0Z"/>
            <path class="cls-18" d="M252.09,216.53c2.93,1.76,5.86,3.52,8.78,5.28,2.56-4.18,5.63-8.38,8.19-12.56-5.81-3.22-11.47-6.74-17.28-9.96-2.14,3.22-4.12,6.36-6.27,9.58,2.79,1.44,5.64,4.68,6.59,7.66h-.01s0-.01,0-.01Z"/>
            <g>
              <path class="cls-11" d="M243.51,341.46c-3.99-2.66-7.97-5.31-11.96-7.97,3.95-6.51,7.5-13.14,11.46-19.65"/>
              <path class="cls-11" d="M249.11,314.16c3.12,1.96,6.25,3.91,9.36,5.87"/>
              <path class="cls-11" d="M238.01,322.03c2.74,1.66,5.47,3.32,8.2,4.98"/>
              <path class="cls-11" d="M247.99,336.42c1.27-1.96,2.53-3.91,3.81-5.86"/>
              <path class="cls-11" d="M252.65,328.78l1.17-2.05"/>
              <path class="cls-11" d="M240.04,331.75c.97.39,1.95.79,2.92,1.18"/>
              <path class="cls-11" d="M260.26,315.01c.21-1.37.96-2.66,2.05-3.51"/>
              <path class="cls-11" d="M264.63,307.09l1.76-3.22"/>
              <path class="cls-11" d="M261.83,293.46c2.71,1.69,5.43,3.38,8.15,5.07"/>
              <path class="cls-11" d="M273.73,292.45c.69-1.17,1.36-2.35,2.05-3.51"/>
              <path class="cls-11" d="M278.11,284.25c.49-.88.97-1.75,1.47-2.63"/>
              <path class="cls-11" d="M282.9,276.48c-4.34-2.76-8.67-5.52-13.01-8.29-1.04,2.05-2.06,4.1-3.1,6.15"/>
              <path class="cls-11" d="M264.05,279.58c1.85,1.17,3.71,2.35,5.56,3.51"/>
              <path class="cls-11" d="M261.04,282.43c-.96,1.67-1.91,3.34-2.87,5.01"/>
              <path class="cls-11" d="M265.82,288.05c.77-.11,1.59.27,2.02.9"/>
              <path class="cls-11" d="M254.66,293.61c-1.37,2.73-2.75,5.46-4.12,8.2,2.34,1.37,4.7,3.11,7.04,4.49"/>
              <path class="cls-11" d="M258.76,298.36c1.36.79,2.73,1.57,4.09,2.36"/>
              <path class="cls-11" d="M285.42,264.9c1.55-2.61,3.1-5.23,4.64-7.84.38-.65.78-1.36.73-2.11-.19-2.43-4.31-2.47-5.14-4.76"/>
              <path class="cls-11" d="M281.33,246.75l2.63,1.47"/>
              <path class="cls-11" d="M287.45,237.44c4.79,2.82,9.58,5.63,14.37,8.45"/>
              <path class="cls-11" d="M289.41,233.66c2.79-4.72,5.56-9.43,8.35-14.15"/>
              <path class="cls-11" d="M299,214.93c5.33,3.08,10.67,6.16,16.01,9.25"/>
              <path class="cls-11" d="M293.64,226.51c2.53,1.66,5.07,3.33,7.6,4.99"/>
              <path class="cls-11" d="M302.97,241.16c1.08-1.75,2.16-3.51,3.24-5.26"/>
              <path class="cls-11" d="M308.27,231.51c.39-.78.78-1.56,1.17-2.35"/>
              <path class="cls-11" d="M286,194.62l8.12,5.1c2.35-4.58,5.4-9.61,7.74-14.2-5.55-2.63-11.22-6.3-16.21-9.89-2.97,4.77-5.79,9.47-8.75,14.24"/>
              <path class="cls-11" d="M292.46,190.78l1.75,1.47"/>
              <path class="cls-11" d="M279.62,204.49c3.14,1.93,6.27,3.87,9.4,5.81-5.49,8.68-10.94,17.84-16.42,26.52-2.62-1.87-4.97-3.52-7.58-5.39"/>
              <path class="cls-11" d="M271.41,217.7c3.02,1.85,6.06,3.71,9.08,5.56"/>
              <path class="cls-11" d="M255.57,222.13c1.08,1.08,2.14,2.15,3.22,3.22"/>
              <path class="cls-11" d="M233.56,282.88c2.72,1.78,5.44,3.55,8.16,5.33,7.23-13.46,15.92-26.8,24.22-39.62-3.51-2.06-7.15-4.19-10.65-6.24"/>
              <path class="cls-11" d="M265.44,180.68c2.35,1.25,4.7,2.51,7.05,3.77,2.67-4.01,4.78-8.92,6.64-13.35-8.45-4.87-17.51-9.35-25.95-14.22-1.66,2.24-3.84,4.44-5.5,6.68"/>
              <path class="cls-11" d="M230.9,157.84c2.98,1.47,5.95,2.94,8.93,4.41,1.67-3.17,3.34-6.34,5-9.5-5.74-3.4-11.46-6.8-17.2-10.19-1.62,2.99-3.23,5.99-4.85,8.98"/>
              <path class="cls-11" d="M265.82,128.09l-3.22,4.69c-5.27-3.22-10.53-6.45-15.81-9.67"/>
              <path class="cls-11" d="M329.64,90.86c.1,3.52.19,7.04.3,10.56-6.67.64-14.71.81-23.71-.3-18.55-2.27-32.86-8.88-41.87-14.05,1.85-3.33,3.71-6.65,5.56-9.98"/>
              <path class="cls-11" d="M272.47,118.57c-9.61-4.09-17.21-8.68-21.28-11.28-1.66,2.35-3.32,4.69-4.98,7.03"/>
              <path class="cls-11" d="M295.33,125.73c-2.92-.59-5.35-1.23-7.26-1.74-3.64-.97-7.14-2.12-10.45-3.36"/>
              <path class="cls-11" d="M319.94,129.39c.02-.73.03-1.46.04-2.19-1.8.15-4.32.3-7.32.3-3.61,0-6.92-.23-9.91-.58"/>
              <path class="cls-11" d="M319.83,135.24c.03-1.14.04-2.28.07-3.42"/>
              <path class="cls-11" d="M301.83,148.6c5.91.09,11.82.17,17.74.26.07-3.69.15-7.4.22-11.09"/>
              <path class="cls-11" d="M302.42,136.87c.11-3.32.22-6.64.33-9.96"/>
              <path class="cls-11" d="M292.17,137.76c-1.75,2.74-3.51,5.47-5.27,8.21-3.32-1.66-6.64-3.32-9.95-4.98"/>
              <path class="cls-11" d="M273.73,130.14c1.3-3.17,2.59-6.35,3.89-9.51"/>
              <path class="cls-11" d="M282.45,95.47c1.68-2.79,3.37-5.59,5.04-8.37"/>
              <path class="cls-11" d="M308.05,101.34c-.12-3.49-.24-6.98-.36-10.47"/>
            </g>
            <path class="cls-18" d="M330.52,82.38c-3.81.31-7.61.59-11.42.88-2.01-17.18-4.02-34.36-6.03-51.56h13.1c1.26,14.73,2.53,29.45,3.79,44.19.19,2.17.38,4.34.56,6.5h0Z"/>
            <path class="cls-18" d="M333.16,75.35c-1.06.18-2.14.36-3.2.53-1.28.22-2.55.43-3.83.64-.34-14.93-.68-29.88-1.03-44.83h1.76c1.09,1.18,2.18,2.35,3.27,3.53-.73.91-1.44,1.82-2.14,2.73.39,5.34.77,10.68,1.16,16.02,1.3.71,2.6,1.43,3.9,2.15-1.11.38-2.21.77-3.32,1.16.26,3.12.52,6.25.77,9.37.7.74,1.37,1.5,2.06,2.24l.59,6.45h0s0,.01,0,.01Z"/>
            <path class="cls-18" d="M274.63,31.69c-3.16,4.49-6.33,8.99-9.49,13.48-4.35-3.18-8.72-6.38-13.07-9.57,1.32-1.3,2.64-2.6,3.96-3.91h18.6s0,0,0,0Z"/>
            <path class="cls-23" d="M304.02,83.6c-.89.58-2.07.56-3.08.21-1.01-.36-2.45-1.22-2.65-2.38-.19-1.16,1.05-4.06,2.05-4.65,1.36-.8,3.06.1,4.36.97.55.37,1.13.76,1.44,1.33.66,1.18-1.13,3.87-2.14,4.52h.01s0,0,0,0Z"/>
            <g>
              <path class="cls-6" d="M257.72,45.37c-2.74-1.5-5.47-2.99-8.2-4.49"/>
              <path class="cls-6" d="M319.98,92.29c1.05.07,2.08.12,3.13.19"/>
              <path class="cls-6" d="M312.95,92.81l1.95-.21"/>
              <path class="cls-6" d="M308.05,82.11c.37,1.13.73,2.36.31,3.47s-1.99,1.81-2.83.97"/>
              <path class="cls-6" d="M295.28,84.24c-1.05-1.24-1.09-3.12-.49-4.65.59-1.52,1.7-2.78,2.79-4"/>
              <path class="cls-6" d="M297.14,84.85l1.55.08"/>
              <path class="cls-6" d="M295.19,94.78c.66-.52,1.68-.51,2.34.02"/>
              <path class="cls-6" d="M301.79,97.11c.68-1.31.79-2.91.31-4.3"/>
              <path class="cls-6" d="M282.73,86.95c-.89-.93-1.79-1.86-2.68-2.79"/>
              <path class="cls-6" d="M277.24,83.27c-.62-.32-.95-1.09-.78-1.75"/>
              <path class="cls-6" d="M273.93,82.48c-.42-.75-.25-1.76.38-2.35"/>
              <path class="cls-6" d="M299.28,92.06c.88,1.25.65,3.17-.51,4.18"/>
              <path class="cls-6" d="M300.07,94.78l2.34-.58"/>
            </g>
            <path class="cls-19" d="M210.93,268.15c5.74,4.18,11.85,7.85,18.22,10.97,2.87-3.88,5.57-8.61,7.54-13.01-6.08-4.65-12.78-8.31-19.92-11.09-2.51,4.12-4.33,8.57-5.86,13.14h.01s0-.01,0-.01Z"/>
            <path class="cls-17" d="M216.7,264.89c1.17-1.63,2.34-3.26,3.52-4.88,3.63,2.56,7.5,5.11,11.14,7.66-.91,1.36-1.61,2.91-2.52,4.27-4.13-2.2-8.3-4.38-12.13-7.06h0Z"/>
            <path class="cls-19" d="M237.24,258.66c3.97-6.52,7.64-13.22,11-20.08-5.25-2.57-10.6-5.13-15.85-7.71-3.96,6.13-7.46,12.62-10.16,19.39,5.21,2.71,9.8,5.69,15.03,8.4h-.01Z"/>
            <path class="cls-19" d="M232.7,237.34c-1.94,2.54-3.57,5.31-4.86,8.22,2.21,1.17,4.62,2.59,6.84,3.76,1.35-2.94,3.3-6.31,4.64-9.25-2.14-1.04-4.47-1.7-6.61-2.74h-.01s0,0,0,0Z"/>
            <path class="cls-23" d="M238.88,223.84c2.15,3.69,4.43,7.33,6.83,10.87,2.02-2.01,4.89-3.95,6.92-5.96-2.22-3.26-3.96-6.91-6.17-10.17-2.84.98-5.62,2.97-7.57,5.25h-.01Z"/>
            <path class="cls-23" d="M236.61,219.43c.46.78.92,1.55,1.38,2.34,1.17-1.05,2.37-1.91,3.54-2.95l-1.56-1.96c-1.1.78-2.25,1.78-3.36,2.56h0Z"/>
            <path class="cls-6" d="M241.13,214.92c1.09.63,1.99,1.59,2.55,2.72"/>
            <path class="cls-11" d="M249.02,274.54l-7.91-4.92"/>
            <path class="cls-11" d="M256.54,262.01c-3.1-1.16-6.01-2.83-8.56-4.93"/>
            <path class="cls-11" d="M238.01,276.83c.72.33,1.43.66,2.14.97"/>
            <path class="cls-6" d="M308.08,134.39c1.94.28,3.92.24,5.86-.12"/>
            <g>
              <path class="cls-11" d="M437.51,395.4c3.8-5.98,7.58-11.96,11.38-17.94"/>
              <path class="cls-11" d="M441.35,373.54c1.17,1.1,2.34,2.2,3.53,3.31"/>
              <path class="cls-11" d="M436.89,380.54c.66.58,1.3,1.17,1.95,1.75"/>
              <path class="cls-11" d="M440.57,384.3l.78.39"/>
              <path class="cls-11" d="M440.21,379.17l.78.78"/>
              <path class="cls-11" d="M429.68,390.47c1.11.52,2.21,1.05,3.32,1.56"/>
              <path class="cls-11" d="M431.21,381.88c1.48-1.71,2.95-3.42,4.43-5.13"/>
              <path class="cls-11" d="M475.62,322.62c1.08-1.13,2.15-2.27,3.24-3.4"/>
              <path class="cls-11" d="M475.5,331.29c.58-1.05,1.16-2.09,1.75-3.13"/>
              <path class="cls-11" d="M386.44,92.65c.08.66-.57,1.22-1.23,1.29-.66.07-1.29-.22-1.88-.5-4.03-1.93-7.83-4.35-11.29-7.19,2.23-3.96,4.73-7.96,6.96-11.93-3.02-1.83-6.12-4.04-8.68-6.48,2.56-4.25,5.03-8.86,7.59-13.11-4.37-3.81-8.19-8.41-11.92-12.83,2.34-3.13,4.93-5.9,7.26-9.02-.43-.38-.85-.77-1.28-1.18"/>
              <path class="cls-11" d="M377.76,36.78c.3,2.55.59,5.08.89,7.63"/>
              <path class="cls-11" d="M383.8,52.99l.77,4.3"/>
              <path class="cls-11" d="M380.63,62.18c.39,2.74.79,5.47,1.18,8.21"/>
              <path class="cls-11" d="M387.91,80.92c-.02,1.4.26,2.8.78,4.1"/>
              <path class="cls-11" d="M393.79,45.02l7.19-5.32"/>
              <path class="cls-11" d="M413.4,126.02c-1.47-3.91-2.94-7.81-4.4-11.72-7.69-.04-15.99,1.82-23.31,4.22-.56,5.2-.24,10.68,1.66,15.56.17.42.37.88.77,1.09,1.55.83,2.82-2.72,4.43-2.04"/>
              <path class="cls-11" d="M395.81,141.88c-2.48.63-5.09.71-7.61.23.71,2.91.38,6.12-.87,8.84.93,5.25,6.84,12.75,12.7,12.36,3.68-.24,8.74-3.56,12.17-4.96,3.01-1.23,7.24-2.14,9.87-4.03,1.86-1.32,1.42-.38,1.59-2.53.11-1.44-.73-3.61-1.16-4.99"/>
            </g>
            <path class="cls-18" d="M432.05,118.02c3.09,7.09,6.17,14.18,9.25,21.27,3.49-1.83,7.64-3.61,11.3-5.05-3.78-7.24-7.51-14.81-10.73-22.31-3.36,1.76-6.45,4.33-9.81,6.09h-.01,0Z"/>
            <path class="cls-18" d="M446.41,75.18c.33.97.65,1.94.97,2.91,6.6-3.41,13.02-7.17,19.21-11.28-3.74-5.12-7.8-10.27-10.95-15.78-4.86,2.75-9.88,5.26-15.01,7.58,1.98,5.51,3.91,11.03,5.78,16.57h0Z"/>
            <path class="cls-18" d="M439.01,79.05c-1.91-5.75-3.92-11.48-5.97-17.18-5.06,2.06-10.21,3.94-15.41,5.63,2.26,6.43,2.65,13.26,4.79,19.83.15.46.34.95.54,1.45,5.75-2.08,11.42-4.41,16.96-6.99-.31-.91-.61-1.82-.91-2.73Z"/>
            <path class="cls-18" d="M413.78,87.02c-1.38-5.67-1.83-11.67-3.99-17.1-5.56,1.61-11.16,3.04-16.75,4.28.15,7.86.8,14.68,2.1,22.43,6.76-1.39,13.45-3.14,20.04-5.23-.54-1.43-1.04-2.85-1.4-4.38h0Z"/>
            <path class="cls-11" d="M452.34,117.82c-2.06-5.15-4.12-10.31-6.18-15.46-7.45,3.38-15.33,6.09-22.79,9.47.24,2.31.76,4.9,1.79,6.98"/>
            <path class="cls-11" d="M427.93,125.05c1.24,2.99,2.47,5.99,3.71,8.99"/>
            <path class="cls-11" d="M434.82,141.82c1.03,2.48,2.06,4.96,3.08,7.44,7.53-3.14,15.51-6.68,23.04-9.82-2.37-4.85-3.99-10.12-5.91-15.16"/>
            <path class="cls-11" d="M468.08,124.49c-1.77-5.17-3.8-10.26-6.06-15.23,6.89-2.98,13.56-6.65,19.64-11.05,2.28,2.79,5.08,6.45,7.36,9.24"/>
            <path class="cls-6" d="M409.81,149.8c-.97-1.86-1.95-3.71-2.92-5.57"/>
            <path class="cls-6" d="M406.26,138.09c-.46-1.18-.93-2.36-1.4-3.54-1.27.49-2.18.76-3.45,1.25"/>
            <path class="cls-6" d="M471.41,112.51c2.41,3.3,4.61,6.77,6.54,10.38"/>
            <path class="cls-23" d="M474.61,112.21c1.15-1.34,2.49-2.52,3.97-3.49,2.25,3.89,5.29,7.55,7.54,11.43-1.44.9-3.08,1.48-4.51,2.39-2.36-3.29-4.64-7.05-6.99-10.34h0s0,.01,0,.01Z"/>
            <path class="cls-11" d="M435.35,183.12l-5.3-2.56c-1.76-5.17-3.34-10.05-5.1-15.22,3.69-1.69,7.23-4.03,10.93-5.71"/>
            <path class="cls-18" d="M469.81,93.75c2.3-1.48,4.59-3,6.81-4.61-.88-1.46-1.49-4.12-2.37-5.58-2.41,1.46-4.8,2.93-7.19,4.41.78,1.99,1.75,3.9,2.76,5.78h0Z"/>
            <path class="cls-18" d="M459.96,92.31c-1.88,1.16-3.77,2.32-5.66,3.45.18,1.96,1.13,3.97,2.11,5.67,2.14-1.09,4.24-2.24,6.33-3.41-.99-1.87-1.94-3.77-2.79-5.7h0Z"/>
            <path class="cls-18" d="M451.43,163.54c-.19-1.27-.39-2.54-.58-3.81,4.09-1.09,8.42-2.41,12.51-3.49.1,1.27-.03,2.82.07,4.09-.78.39-1.27.78-2.05,1.17-.39,1.13-.39,2.39,0,3.51,3.02.99,6.04,2.01,9.05,2.99-.39.97-.76,1.89-1.15,2.87-3.61-.46-7.44-1.05-10.83-2.37-2.74,1.17-5.77,2.36-8.5,3.53-.58-1.17-1.17-2.34-1.75-3.51,4.47-1.83,6.62-3.18,6.45-4.01-.11-.54-1.19-.86-3.22-.97h0Z"/>
            <path class="cls-23" d="M508.59,151.74c-4.43-1.05-8.88-2.1-13.31-3.14-.46,2.87-1.16,5.83-1.61,8.69,4.4.93,9.06,1.73,13.46,2.66.39-2.74,1.07-5.47,1.46-8.21h0Z"/>
            <path class="cls-23" d="M492.64,148.87l-1.71,6.07c-1.91-.26-3.55-1.24-5.22-2.17.46-1.69.67-2.97,1.13-4.66,1.69.39,4.12.38,5.82.77h0Z"/>
            <path class="cls-11" d="M532.98,126.89c1.68-1.37,3.45-2.5,5.13-3.87-4.43-6.2-8.7-12.52-12.75-18.96-3.69,2.67-8.5,4.87-12.51,6.99-6.9-1.15-14.39-2.32-21.29-3.46-.31,1.76-1.3,3.6-1.61,5.35"/>
            <path class="cls-11" d="M510.96,110.82c-.34,1.75-.68,3.51-1.02,5.27"/>
            <path class="cls-11" d="M506.38,141.08c-6.99-1-14.02-1.71-21.06-2.17"/>
            <path class="cls-11" d="M486.07,132.54c-3.7-.65-7.39-1.29-11.1-1.94"/>
            <path class="cls-13" d="M470.28,150.26c-.03,1.63-.06,3.26-.09,4.88,1.3.15,2.89-.26,4.19-.11.05-1.23.55-2.33,1.16-3.4-1.46-.86-3.59-1.65-5.26-1.37h0Z"/>
            <path class="cls-11" d="M458.17,151.82c1.12-1.06,2.57-1.75,4.1-1.96"/>
            <path class="cls-11" d="M473.13,196.14c1.31-4.56,2.62-9.11,3.93-13.67-2.45-1.28-4.66-2.57-7.11-3.86"/>
            <path class="cls-11" d="M462.22,177.9l-13.68,6.41"/>
            <path class="cls-11" d="M445.29,186.21c-1.79,1.69-3.39,3.57-4.78,5.59,7.91,5.75,16.43,11.16,24.85,16.14,1.07-1.65,2.79-3.54,3.85-5.2"/>
            <path class="cls-18" d="M509.84,100.84c1.82-1.51,3.78-2.83,5.86-3.95-.69-.93-1.41-2.13-2.1-3.05-2.01.66-3.99,1.57-5.5,3.07.77,1.18.96,2.75,1.73,3.93h0Z"/>
            <path class="cls-18" d="M514.69,125.54c3.41-2.23,6.84-4.45,10.25-6.68-1.05-1.24-1.91-2.72-2.95-3.96-3.32,2.15-6.5,4.22-9.83,6.37.8,1.23,1.72,3.05,2.52,4.28h0s0,0,0,0Z"/>
            <path class="cls-23" d="M515.12,127.98c-.13.77.31,1.6,1.02,1.95,2.92-.74,5.7-1.59,8.19-3.31-.78-.91-1.75-2.01-2.53-2.92-2.65,1.2-4.16,2.81-6.67,4.3h0s0-.01,0-.01Z"/>
            <path class="cls-23" d="M523.79,122.86c1.03.73,1.88,1.69,2.47,2.8,1.38-1.09,2.77-2.2,4.16-3.29-.6-1.05-1.32-1.98-2.37-2.59-1.66.76-3.1,1.66-4.26,3.07h0Z"/>
            <path class="cls-11" d="M507.55,136.37c3.45.19,6.9.39,10.34.58"/>
            <path class="cls-18" d="M499.15,175.84l-.39,3.32c-7.11-1.17-14.49-2.86-21.29-5.24.39-1.11.58-2.07.97-3.18,2.72.69,5.51,1.26,8.23,1.95.27-1.3.56-2.58.81-3.89-1.28-.05-2.57-.54-3.56-1.37.42-1.49.51-2.63.93-4.12.97.07,1.8.15,2.78.21.07-.66.09-1.7.15-2.35,3.01.59,6.06.98,9.06,1.57-.49.75-.6,2.22-.62,3.12.72.39,1.24.39,1.95.78-.38,1.63-.58,3.26-.95,4.88-.73-.59-1.63-1.01-2.57-1.16,0,1.46-1.28,2.74-2.74,2.54,2.46.93,4.76,1.98,7.23,2.91v.02s0,0,0,0Z"/>
            <path class="cls-6" d="M457.78,192.64c1.28,0,2.54.27,3.71.78"/>
            <path class="cls-11" d="M488.83,201.05c1.51-4.92,3.54-9.68,6.06-14.16,3.89.57,8.04,1.91,11.49,3.79"/>
            <path class="cls-11" d="M508.41,192.58l5.31,8.11"/>
            <path class="cls-11" d="M485.89,205.65l-5.29,11.61c3.31,1.83,5.98,3.79,9.28,5.62"/>
            <path class="cls-23" d="M507.57,202.12c2.18,3.42,4.37,6.85,6.56,10.28-1.2,1.09-2.55,2.09-4.04,2.74-2.52-3.07-5.03-6.17-6.97-9.65,1.56-1.11,2.89-2.27,4.45-3.37h0Z"/>
            <path class="cls-6" d="M493.48,210.22c.66,1.47,1.52,2.85,2.57,4.08"/>
            <path class="cls-11" d="M522.64,209.79c2.8,4.71,5.6,9.41,8.39,14.12-6.34,4.11-13.07,8.58-19.41,12.69-6.09-3.91-12.44-8.07-18.53-11.98"/>
            <path class="cls-18" d="M535.98,210.34c4.66-3.74,9.32-7.49,13.97-11.24,1.76,2.83,3.99,5.83,5.75,8.65-4.4,3.11-8.52,6-12.92,9.11-2.44-2.24-4.35-4.29-6.8-6.53h0s0,0,0,0Z"/>
            <path class="cls-18" d="M522.59,195.76c1.66,2.35,3.32,4.69,4.98,7.03,4.69-3.25,9.45-6.77,13.76-10.51-1.75-3.89-4.34-7.56-7.02-10.89-3.59,2.67-7.2,5.36-10.79,8.03.85-1.02,2.79-.51,3.31.7s-.03,2.68-1,3.59-2.01,1.59-3.25,2.05h0s0-.01,0-.01Z"/>
            <path class="cls-11" d="M523.07,164.2c2.67,3.38,5.35,6.78,8.02,10.16"/>
            <path class="cls-23" d="M515.39,161.67c-1.32-.5-2.98.23-3.49,1.53s.19,2.98,1.5,3.51,2.98-.17,3.53-1.47-.14-2.99-1.43-3.53l-.1-.04h-.01Z"/>
            <path class="cls-18" d="M543.92,165.96c3.64-3.72,7.77-6.95,12.26-9.58-3.57-5.3-7.79-10.23-12.43-14.61-3.79,3.24-6.88,6.58-10.67,9.82,3.42,4.66,7.42,9.72,10.85,14.38h0Z"/>
            <path class="cls-18" d="M554.97,181.69c4.02-3.54,8.5-6.57,13.28-8.97,1.56,2.35,2.73,5.46,4.29,7.81-1.63.19-2.71,1.33-3.19,2.9s.05,3.4,1.29,4.46c-1.59,1.66-3.14,4.65-4.74,6.31-3.87-4.07-7.07-8.45-10.95-12.51h.01Z"/>
            <path class="cls-11" d="M573.69,187.94c2.6-1.96,5.2-3.91,7.81-5.86-4.27-6.23-8.45-12.22-12.71-18.44-4,3.62-8.84,6.63-13.45,9.43"/>
            <path class="cls-11" d="M551.43,175.02c-1.7,1.29-3.39,2.59-5.09,3.89,5.29,7.49,10.24,15.44,15.54,22.92.78-.66,1.3-2.29,2.08-2.94"/>
            <path class="cls-11" d="M541.93,171.68c-6.08-7.58-12.15-15.17-18.22-22.76,1.43-1.3,2.91-1.85,4.33-3.15"/>
            <path class="cls-11" d="M531.45,142.88c4.68-3.26,9.36-6.51,14.05-9.78,1.95,2.48,4.4,5.89,6.36,8.36"/>
            <path class="cls-11" d="M558.04,152.04c1.05,2.09,2.09,4.16,3.14,6.24-3.13,2.35-5.8,5.08-8.92,7.42"/>
            <path class="cls-18" d="M515.85,179.61c1.7-1.03,3.4-2.07,5.09-3.1-.9-1.05-1.82-2.31-2.72-3.35-2.32,1.71-4.9,2.01-7.75,1.51,1.75.5,2.83,3.1,2.32,4.85-1.55-.58-3.11-1.15-4.66-1.72-.99.4-2.53,1.3-2.71,2.36,4.79.48,9.29,3.48,12.12,7.38,1.17-1.56,2.3-2.71,3.47-4.27-1.82-.91-3.34-2.75-5.16-3.65h.01,0Z"/>
            <path class="cls-18" d="M499.72,66.75c3,4.69,5.99,9.37,8.99,14.06-4.7,3.36-9.5,6.98-14.21,10.35-4.03-3.69-7.64-7.96-10.61-12.55,4.82-3.9,10.99-7.96,15.81-11.86h.02Z"/>
            <path class="cls-11" d="M509.7,142.58l3.71.41"/>
            <path class="cls-23" d="M501.21,118.22c-.05,2.15-.1,4.3-.15,6.45.97-.07,1.98-.17,2.96-.23.42.31-.07,1.46-.32,1.92s-.62.9-.61,1.43.74.98,1.05.56c.97.19,1.48.15,2.41-.17.15-3.19-.31-6.6-.73-9.77-1.36-.09-3.26-.11-4.63-.19h.01s0-.01,0-.01Z"/>
            <path class="cls-18" d="M92.4,205.73c-1.18-1.29-2.66-2.31-4.29-2.93.53-.97,1.09-2.13,1.61-3.1-3.06-1.75-6.16-3.75-9.21-5.51,2.5-4.41,4.63-8.8,7.13-13.2,5.45,2.44,11.03,5.2,15.73,8.88-2.72,5.83-6.97,10.82-10.96,15.86h-.01s0,0,0,0Z"/>
            <path class="cls-22" d="M85.37,192.49c2.81,1.94,5.62,3.88,8.42,5.82.68-1.8,1.79-3.74,2.91-5.31-3.02-1.59-5.98-3.27-8.99-4.86-.71,1.24-1.63,3.11-2.34,4.36h0Z"/>
            <path class="cls-18" d="M52.08,208.38c4.86,3.77,10.19,6.91,15.83,9.33,2.68-4.14,6.01-8.21,8.69-12.34-5.06-3.34-10.28-6.99-15.35-10.32-3.54,3.47-6.72,9.03-9.17,13.33h0Z"/>
            <path class="cls-23" d="M57.12,204.87c.78-1.08,1.56-2.15,2.34-3.22,3.7,2.36,7.42,4.89,11.12,7.25-.68.89-1.74,2.07-2.41,2.95-3.95-1.82-7.65-4.26-11.05-6.98h0s0,0,0,0Z"/>
            <path class="cls-23" d="M143.74,133.66c1.05.27,1.98.89,2.63,1.75.67-.99,1.37-1.97,1.74-3.1s.36-2.46-.28-3.46c-.38-.61-.99-1.1-1.13-1.8s.71-1.53,1.23-1.05c-2.13-.96-4.51-1.11-6.54.04-.73.42-.72,1.67-.14,2.28.58.61,1.38.95,2.09,1.39s1.4,1.08,1.52,1.91-.33,2.26-1.14,2.04h.01s0,.01,0,.01Z"/>
            <path class="cls-18" d="M391.95,57.49c-.07,4.49.5,8.99,1.67,13.31,4.16-1.7,8.45-2.29,12.61-3.99-.53-3.99-.98-7.94-1.51-11.93-4.35.13-8.47,1.89-12.77,2.61h-.01,0Z"/>
            <path class="cls-18" d="M413.75,41.83c.77,2.22,1.54,4.44,2.31,6.65-.34-1.28,1.96-2.36,3.08-1.64s1.19,2.46.38,3.51-2.22,1.47-3.53,1.47c.39.78.8,2.16,1.19,2.94,3.38-1.97,6.41-4.25,9.78-6.22-1.96-3.64-3.94-7.71-5.9-11.35-1.41,2.92-4.14,5.37-7.3,4.65h0Z"/>
            <path class="cls-18" d="M393.12,63.69c.63,2.35,1.26,4.7,1.89,7.05,3.77-1.57,7.89-3.01,11.66-4.57-.5-1.29-1.45-3.45-1.95-4.74-3.22,2.28-8.07,4.03-11.6,2.28h0Z"/>
            <path class="cls-18" d="M390.63,43.81l3.13,4.3c2.82-2.78,5.78-5.81,8.59-8.59-.78-.91-1.63-2.16-2.41-3.06-3.55,2.05-6.39,4.48-9.3,7.36h0Z"/>
            <path class="cls-18" d="M543.73,87.91c5.43,8.66,11.13,17.14,17.09,25.45,4.86-4.11,9.93-7.67,14.79-11.78-2.98-4.96-5.45-9.89-8.43-14.85.69-4.16,1.63-8.26,2.33-12.42-5.11-.11-9.91-.93-14.92-2.01-1.09,6.08-5.83,12.03-10.87,15.61h0s0,0,0,0Z"/>
            <path class="cls-23" d="M583.54,81.22l-.93,9.07c1.17.19,2.02.68,3.2.88.66-2.83,1.4-5.95,2.06-8.79-1.67-.37-2.66-.8-4.33-1.16h0Z"/>
            <path class="cls-23" d="M572.62,73.89c1.13,1.18,2.78,1.83,4.4,1.74-.3,1.66-.58,3.62-.88,5.28-1.4.34-2.95-.29-4.12-1.14.1-1.75.5-4.12.6-5.88h-.01s0,0,0,0Z"/>
            <path class="cls-18" d="M568.49,44.31c1.16,6.06,2.32,12.12,3.48,18.17-6.12.62-11.88,1.19-17.75-.6-.56-2.79.08-5.09-.24-7.92-.76-6.56-5.38-12.79-11.04-16.17,1.23-2,2.38-4.04,3.53-6.09h26.34c1.09,2.32,2.28,4.58,3.62,6.73-2.65,2.04-5.29,3.84-7.94,5.89,0,0,.01,0,.01,0Z"/>
            <path class="cls-18" d="M607.19,47.82c-3.23,2.92-7.1,5.53-9.83,8.91-4.7-5.92-9.03-12.16-12.9-18.65,4.08-1.92,6.8-3.75,10.26-6.39h1.19c4.03,5.18,7.83,10.55,11.29,16.12h0Z"/>
            <path class="cls-18" d="M584.56,45.83c3.09,3.45,5.79,7.26,8.04,11.32-.97,2.83-1.65,5.43-2.62,8.26-4.87-.16-9.53.6-14.41.44-.35-4.88-.81-9.64-1.16-14.53,3.69-1.69,6.45-3.81,10.15-5.49h0Z"/>
            <path class="cls-23" d="M578.58,53.3c2.1,2.67,4.2,5.34,6.31,8.02,1.4-1.43,3.04-2.4,4.44-3.83-1.77-2.24-3.85-4.77-5.63-7-1.47.69-3.66,2.13-5.12,2.81h-.01s0,0,0,0Z"/>
            <path class="cls-18" d="M600.13,68.05c7.7,10.48,15.41,20.96,23.11,31.43-.16-.22,10.74-8.29,11.67-9.12,2.38-2.17,2.41-2.19.61-4.93-1.45-2.2-3.1-4.3-4.64-6.43-6.19-8.57-12.39-17.14-18.57-25.72-1.27.69-2.65,1.5-3.92,2.2,1.27,1.74,1.86,3.71,2.32,5.82-2.68.71-5.65-1.07-5.9-3.83-2.95,2.87-4.66,6.47-4.66,10.59h-.01s0-.01,0-.01Z"/>
            <path class="cls-23" d="M604.58,87.67c-.62,3.7-1.23,7.41-1.84,11.12-2.53,0-4.74-.29-7.27-.29.5-3.91.73-7.55,1.21-11.46,2.15.27,5.75.37,7.9.62h0Z"/>
            <path class="cls-23" d="M609.12,92.59c-1.61.54-1.98,3.1-.61,4.09s3.67-.15,3.73-1.83c.07-1.69-2.09-3.01-3.58-2.19l.45-.06h.01s0-.01,0-.01Z"/>
            <path class="cls-18" d="M571.02,123.18c4.66-3.2,9.33-6.41,14-9.61-1.74-2.56-3.91-5.19-5.65-7.75-5.11,3.99-10.02,7.55-15.14,11.53,2.01,2.09,4.78,3.73,6.79,5.82Z"/>
            <path class="cls-18" d="M587.91,116.68c12.63,15.64,24.5,31.9,35.51,48.72-3.67,4.35-8.27,7.3-13.06,10.37-13.58-15.36-27.16-31.06-38.37-48.22,4.19-4.45,10.49-8.08,15.93-10.87h0Z"/>
            <path class="cls-23" d="M582.4,121.35c11.83,15.57,23.65,31.13,35.48,46.7-.93,1.01-2.1,2.15-3.55,3.26-1.18.9-2.31,1.63-3.34,2.2-6.24-6.51-12.74-13.83-19.3-21.98-6.78-8.42-12.7-16.6-17.87-24.32,3.04-2.43,5.54-3.42,8.58-5.86h0Z"/>
            <path class="cls-23" d="M613.79,111.2c1.83-1.34,3.68-2.68,5.51-4.03,1.98,2.83,4,5.68,6.09,8.56,2.1,2.92,4.21,5.79,6.31,8.6-5.01,4.22-11.04,8.59-16.45,12.29-4.31-5.98-8.62-11.97-12.93-17.94,2.84-2.24,5.86-4.11,8.95-5.99.73,1.03,1.64,2.05,2.37,3.08-1.89,1.48-3.96,3.24-5.86,4.73,2.29,3.17,4.58,6.33,6.86,9.5,2.68-2.01,5.37-4.01,8.05-6-2.97-4.26-5.94-8.53-8.9-12.79h0s0-.02,0-.02Z"/>
            <path class="cls-18" d="M642.61,95.39v33.02c-4.94-6.28-9.44-13.07-13.28-19.84,5.43-3.2,10.02-7.78,13.28-13.18Z"/>
            <path class="cls-18" d="M642.61,149.54v17.25c-3.08,2.77-6.17,5.57-9.18,8.26-3.02-4.21-6.06-9.12-8.35-13.79,5.58-4.28,11.43-8.21,17.52-11.72h0s0-.01,0-.01Z"/>
            <path class="cls-11" d="M642.75,191.41c-4.66,4.58-9.32,9.16-13.98,13.75,6.06,8.53,13.18,16.55,19.99,24.5"/>
            <path class="cls-11" d="M616.28,241.09c.64-1.27,1.75-2.29,3.09-2.79,6.22,6.44,12.03,13.73,16.43,21.53-4.08,3.99-7.21,8.95-11.29,12.95-4.04-.66-8.1-1.05-12.13-1.71"/>
            <path class="cls-11" d="M613.23,236.72c-3.09-4.71-6.17-9.42-9.26-14.14-9.01,7.29-18.74,14.54-27.74,21.84,3.65,3.5,6.26,8.05,6.84,13.07,5.98.69,13.55,1.74,19.52,2.44,3.24.38,5.98,2.96,8.97,4.26"/>
            <path class="cls-11" d="M549.51,315.31c.81-3.98,2.56-7.76,5.07-10.93-6.58-4.63-13.71-8.67-20.28-13.3-2.94,1.87-5.74,4.21-6.99,7.45"/>
            <path class="cls-11" d="M494.47,344.6c3.59-5.89,7.17-11.79,10.76-17.68"/>
            <path class="cls-11" d="M508.43,327.37c5.04-9.27,10.08-18.53,15.11-27.79"/>
            <path class="cls-11" d="M551.45,239.11c2.87-2.21,5.73-4.42,8.59-6.64"/>
            <path class="cls-11" d="M527.62,240.63l2.74-1.56"/>
            <path class="cls-6" d="M607.57,250.51c-.97-2.06-.62-4.67.87-6.4-1.95-.21-3.9-.41-5.86-.62.66-1.69.92-3.45,1.57-5.14-1.75.74-4.23.59-5.86-.38"/>
            <path class="cls-23" d="M623.54,255.32c-.23.02-.45.02-.68-.05-.47-.13-.81-.48-1.04-.89-.22-.38-.34-.75-.36-1.18-.03-.41.11-.73.27-1.07,0-.01,0-.03.01-.03.01-.07.05-.14.07-.21-.79-.85-1.59-1.71-2.37-2.55-1.46,1.17-2.92,2.36-4.38,3.53.58.77,1.12,1.53,1.65,2.3.09,0,.17.02.25.04.92.27,1.83.76,2.3,1.62.37.66.47,1.42.39,2.17-.02.15-.04.29-.07.44.71,1.04,1.43,2.09,2.21,3.13,1.95-1.47,3.92-2.93,5.87-4.39-.94-1-1.88-2.01-2.82-3.02-.44.08-.88.15-1.32.18h.01s0-.02,0-.02Z"/>
            <path class="cls-23" d="M596.15,269.51c-.88-.24-1.79-.47-2.75-.71-1.9,1.09-3.61,2.49-5.06,4.13,2.03.48,4,.9,5.98,1.3.66-1.55,1.29-3.11,1.83-4.71h0s0-.01,0-.01Z"/>
            <path class="cls-23" d="M599.14,270.32c-.5,1.52-1.1,3.01-1.72,4.47,1.88.33,3.79.62,5.76.85.17-1.36.4-2.74.57-4.1-1.64-.41-3.14-.81-4.61-1.22h.01,0Z"/>
            <path class="cls-11" d="M580.54,283.66c-3.23,3.61-6.76,6.94-10.56,9.94,3.29,4.87,7.44,8.93,10.84,13.72"/>
            <path class="cls-11" d="M585.37,281.37c6.23,1.19,12.5,2.21,18.78,3.07"/>
            <path class="cls-23" d="M617.05,280.07c1.1-.53,1.58-2.05.99-3.11s-2.1-1.48-3.16-.87-1.44,2.13-.84,3.18,2.1,1.48,3.18.9l-.18-.11h0Z"/>
            <path class="cls-23" d="M628.84,278.72c-.94-.7-2.43-.51-3.16.41-.73.92-.58,2.42.32,3.18.9.76,2.4.65,3.18-.23.78-.88.72-2.38-.15-3.18l-.2-.17h0Z"/>
            <path class="cls-11" d="M606.56,313.75c1.3-7.82,2.61-15.65,3.91-23.47"/>
            <path class="cls-11" d="M611.93,288.91c.8-1.16,1.59-2.32,2.38-3.49,8.62.65,16.2,3.14,24.63,5.07"/>
            <path class="cls-6" d="M601.24,295.57c-1.09-1.44-2.17-2.9-3.26-4.34-1.49.98-3.1,1.76-4.59,2.75-.33-1.17-.62-2.7-.95-3.87-1.83.7-3.85,1.39-5.68,2.09"/>
            <path class="cls-18" d="M584.09,310.59c1.04,1.5,2.07,3,3.11,4.5.91-.85,1.98-1.67,2.9-2.52-1.05-1.3-2.49-2.59-3.53-3.89-.84.66-1.64,1.25-2.48,1.91h.01,0Z"/>
            <path class="cls-11" d="M597.14,315.51c-2.19,1.32-4.23,2.89-6.06,4.68,3.11,2.94,5.51,6.63,7.61,10.36"/>
            <path class="cls-11" d="M598.71,332.68c2.02,2.45,4.06,4.9,6.09,7.36,3.02-3.1,6.19-6.71,9.56-9.44"/>
            <path class="cls-18" d="M622.37,303.61l6.49,10.23c-3.52,2.44-7,4.96-10.53,7.39-2.71-2.91-5.26-6.05-7.31-9.45,3.38-3.88,6.6-6.19,11.35-8.16h0Z"/>
            <path class="cls-23" d="M624.46,300.65c1.64-2.33,3.74-4.34,6.15-5.86,1.27,1.96,2.22,3.92,3.49,5.88-1.63,1.7-3.92,3-6.12,3.82-1.08-1.27-2.45-2.57-3.53-3.84h0Z"/>
            <path class="cls-11" d="M633.33,316.61c3.69-2.56,7.38-5.12,11.09-7.68"/>
            <path class="cls-11" d="M637.33,336.99c-8.03,4.71-15.62,10.17-22.64,16.29,2.73,3.72,5.85,7.83,8.58,11.55,1.35,1.83,3.8,5.08,4.98,7.03,2.95-2.21,5.59-4.49,8.54-6.7"/>
            <path class="cls-11" d="M632.28,358.7c-.95-1.67-1.9-3.35-2.85-5.02"/>
            <path class="cls-11" d="M575.28,334.34c2.22,3.04,4.44,6.09,6.66,9.13"/>
            <path class="cls-11" d="M571.18,329.35c-3.91-2.33-7.82-4.66-11.73-6.98-1.93.66-3.48,2.22-4.48,3.99-3.78,6.66-7.56,13.31-11.35,19.98"/>
            <path class="cls-22" d="M539.58,328.8c2.88-6.13,5.76-12.26,8.65-18.38-5.43-2.83-10.89-6.07-15.96-9.5-3.69,5.55-7.41,10.94-11.1,16.48,6.32,3.38,12.43,7.46,18.42,11.4h-.01Z"/>
            <path class="cls-11" d="M538.95,299.22c1.37.88,2.74,1.75,4.11,2.63"/>
            <path class="cls-11" d="M533.11,312.66c.88-1.56,1.75-3.13,2.63-4.69"/>
            <path class="cls-11" d="M538.97,315.01c.2-1.49.81-2.93,1.75-4.1"/>
            <path class="cls-11" d="M539.27,312.65l-5.02-2.87"/>
            <path class="cls-18" d="M521.08,321.21c5.15,2.93,10.14,6.17,14.91,9.69-.48,1.49-1.08,3.36-2.3,4.34-5.03-3.1-10.16-6.04-15.19-9.13.04-1.97,1.49-3.24,2.57-4.88h.01s0-.01,0-.01Z"/>
            <path class="cls-11" d="M576.48,272.51c-.94-1.58-1.88-3.17-2.83-4.75-3.5,1.88-7.5,3.43-11,5.31-1.45.78-2.79,1.7-4.35,1.16-.89-.31-1.52-1.07-2.11-1.79-2.02-2.52-4.04-5.03-6.06-7.54"/>
            <path class="cls-18" d="M558.08,274.14c2.71,3.84,5.43,7.71,8.15,11.55,2.52-1.98,4.97-3.69,7.49-5.67-2.06-2.92-4.38-5.97-6.44-8.89-2.76,1.69-6.02,2.41-9.2,3.02h0s0,0,0,0Z"/>
            <path class="cls-11" d="M570.3,268.42c-1.13-.4-1.8-1.77-1.42-2.91"/>
            <path class="cls-11" d="M475.44,373.61c-1.08,2.93-2.14,5.86-3.22,8.79,1.28,1.98,3.3,3.46,5.56,4.1-1.16,2.64-2.26,5.6-3.43,8.24-2.55-1.67-5.55-2.83-8.58-3.24"/>
            <path class="cls-11" d="M493.06,394.43c4.32-7.59,8.38-15.34,12.14-23.23"/>
            <path class="cls-23" d="M510.66,393.67c3.8,2.26,7.59,4.53,11.39,6.78-1.56,1.96-2.62,4.57-4.19,6.52-3.59-2.57-6.9-4.76-10.49-7.33,1.2-2.04,2.08-3.95,3.29-5.98h0Z"/>
            <path class="cls-23" d="M555.65,342.25c1.33,1.36,2.94,2.47,4.68,3.22.9-2.72,2.13-5.24,4.19-7.23-1.05-1.41-2.57-2.33-4.19-3.02-1.57,2.24-3.11,4.79-4.68,7.03h0s0,0,0,0Z"/>
            <path class="cls-23" d="M554.23,344.87c.96,1.09,1.91,2.19,2.87,3.28-1.47,1.36-2.6,3-4.07,4.37-.77-.69-1.9-1.6-2.68-2.3,1.28-1.95,2.6-3.4,3.88-5.35h.01,0Z"/>
            <path class="cls-11" d="M550.71,363.02c7.5,5.37,15.28,10.35,23.31,14.87.26-.11.31-.52.11-.7,4.45-6.86,9.52-13.46,13.98-20.32"/>
            <path class="cls-11" d="M608.28,381.18c.79-1.36,1.58-2.72,2.37-4.09-2.87-2.32-5.77-4.53-8.65-6.84-1.15,1.97-2.81,3.99-3.96,5.95"/>
            <path class="cls-6" d="M601.36,382.38c-.25-.85.27-1.83,1.11-2.11"/>
            <path class="cls-11" d="M596.32,388.59c-1.08-.77-2.15-1.55-3.23-2.33-1.07,1.05-2.14,2.33-2.6,3.76.97.97,1.91,2.29,2.89,3.26"/>
            <path class="cls-11" d="M590.55,400.8c-1.47-1.56-2.93-3.13-4.39-4.69-4.91,7.07-10.1,13.75-15.02,20.82"/>
            <path class="cls-23" d="M589.33,409.35c-1.33,2.4-2.75,4.88-4.12,7.33h-3.7c1.78-2.95,3.26-5.8,5.18-8.8.88.49,1.75.98,2.63,1.47h.01Z"/>
            <path class="cls-23" d="M609.53,411.73c.14.03.27.07.42.11,1.32-2.02,2.64-4.04,3.96-6-1.28-.35-2.56-.7-3.84-1.05-1.42,2.13-2.69,4.13-3.92,6.1,1.09.32,2.23.56,3.38.85h0Z"/>
            <path class="cls-23" d="M608.17,414.58c-.46.7-.91,1.4-1.37,2.1h-4.27c.67-1.05,1.31-2.07,1.95-3.09,1.2.4,2.45.7,3.7.99h-.01Z"/>
            <path class="cls-11" d="M594.5,416.33c4.61-8.89,9.88-17.44,15.76-25.54,3.88,2.01,8.3,5.09,12.17,7.09,3.63,6.96,8.93,13.97,14.79,19.19"/>
            <path class="cls-11" d="M626.5,412.28l-2.63,5.56"/>
            <path class="cls-11" d="M621.56,408.5c-2.65,3.13-4.97,6.54-6.91,10.15"/>
            <path class="cls-23" d="M618.9,300.28c-1.07-.16-2.21.31-2.86,1.18s-.77,2.09-.31,3.07c1.94-.03,3.63-1.99,3.36-3.91l-.19-.35h0s0,0,0,0Z"/>
            <path class="cls-6" d="M604.83,319.41c1.07,1.17,2.14,2.35,3.22,3.52"/>
            <path class="cls-6" d="M600.43,322.06c.87.98,1.75,1.97,2.61,2.95"/>
            <path class="cls-6" d="M518.6,381.86c-1.44,2.46-1.07,5.95,1.11,7.78,2.58,2.19,7.02,1.23,8.78-1.66,4.31-7.08-5.33-13.93-9.89-6.12Z"/>
            <path class="cls-18" d="M536.33,392.06c1.47.88,2.93,1.75,4.39,2.63,1.98-2.62,3.85-5.31,5.83-7.94-1.28-1.16-2.56-2.56-3.84-3.73-2.3,3.15-4.08,5.87-6.38,9.02h-.01s0,.02,0,.02Z"/>
            <path class="cls-6" d="M532.79,397.38c3.73,2.7,7.77,4.96,12.01,6.75"/>
            <path class="cls-6" d="M527.66,405.87c3.98,2.21,7.95,4.42,11.93,6.64"/>
            <path class="cls-6" d="M533.64,409.02c1.46-2.74,2.92-5.47,4.38-8.21"/>
            <path class="cls-23" d="M526.34,334.47c-1.42,1.94-2.55,4.08-3.69,6.2.68.42,1.36.84,2.03,1.26.3-.66.6-1.32.93-1.97.75-1.5,1.55-2.97,2.36-4.43-.54-.36-1.09-.71-1.63-1.06h-.01,0Z"/>
            <path class="cls-23" d="M518.13,334.5c.69-1.28,1.5-2.56,2.62-3.46-.96-.56-1.91-1.1-2.88-1.63-1.49,1.93-1.81,4.34-3.3,6.27.76.47,1.52.93,2.26,1.4.43-.86.84-1.73,1.29-2.59h-.01s0,.01,0,.01Z"/>
            <path class="cls-23" d="M522.69,332.2s-.03.01-.03.02c-.09.05-.17.09-.25.15-.08.05-.16.11-.24.16-.15.1.03-.04-.14.11-.31.27-.67.65-.86.9-.52.66-1.04,1.6-1.46,2.44-.38.73-.73,1.48-1.09,2.22.76.47,1.52.94,2.28,1.41,1.14-2.14,2.28-4.28,3.71-6.23-.63-.4-1.28-.78-1.91-1.16h-.01v-.02Z"/>
            <path class="cls-23" d="M529.68,336.68c-.77,1.39-1.52,2.79-2.23,4.2-.35.7-.73,1.4-1.05,2.13,1.24.77,2.47,1.53,3.71,2.3.85-2.06,2.05-4.25,2.91-6.31-1.1-.78-2.22-1.55-3.34-2.32h0Z"/>
            <path class="cls-23" d="M506.49,387.98c-1.16,1.88-2.33,3.77-3.49,5.66.93.6,1.85,1.2,2.79,1.8,1.2-1.85,2.33-3.67,3.53-5.52-.96-.65-1.87-1.3-2.83-1.95h0s0,.01,0,.01Z"/>
            <path class="cls-11" d="M534.97,369.58c11.06,5.52,21.76,11.75,32.03,18.63-6.76,12.33-13.21,24.67-21.11,36.32"/>
            <path class="cls-11" d="M548.63,392.06l2.05,1.17"/>
            <path class="cls-11" d="M545.7,394.7l1.47.58"/>
            <path class="cls-11" d="M533.71,375.92l1.75.89"/>
            <path class="cls-11" d="M509.4,347.23c.97-1.36,1.95-2.74,2.93-4.1"/>
            <path class="cls-11" d="M518.74,347.22l1.74-2.36"/>
            <path class="cls-19" d="M569.13,367.17c4.46-6.81,8.35-13.99,11.63-21.43-4.47-2.53-8.66-5.13-12.78-8.21-3.21,7.25-7.6,13.29-12.39,19.61,4.08,3.22,9.47,6.8,13.55,10.03h0Z"/>
            <path class="cls-6" d="M565.36,352.25c1.44-2.26,2.89-4.52,4.33-6.78"/>
            <path class="cls-6" d="M571.71,354.26c.48-2.08,1.52-4.01,2.99-5.55"/>
            <path class="cls-6" d="M572.33,351.06c-1.19-1.25-2.71-2.19-4.37-2.69"/>
            <path class="cls-6" d="M484.27,376.02c2.02-1.58,3.54-3.78,4.3-6.24"/>
            <path class="cls-6" d="M495.93,368.34c1.67-.72,2.91-2.32,3.22-4.11"/>
            <path class="cls-6" d="M491.24,365.11c.82-.26,1.49-.94,1.75-1.76"/>
            <path class="cls-6" d="M476.58,371.25l2.24-5.03"/>
          </g>
        </g>
        <g class="cls-29">
          <g>
            <path class="cls-2" d="M4.97,203.97c7.37-13.49,14.74-26.97,22.1-40.46,1.35-2.15,4.05-5.76,8.74-8.37,2.05-1.14,4-1.81,5.61-2.23,8.53-2.82,17.2-5.59,26.01-8.32,20.64-6.38,40.83-12.09,60.51-17.18,2.46-.46,6.2-1.48,10.14-3.91,5.29-3.26,8.31-7.41,9.75-9.76,17.44-29.95,34.87-59.9,52.31-89.85"/>
            <path class="cls-2" d="M1.09,198c7.37-13.49,14.74-26.97,22.1-40.46,1.35-2.15,4.05-5.76,8.74-8.37,2.05-1.14,4-1.81,5.61-2.23,8.53-2.82,17.2-5.59,26.01-8.32,20.64-6.38,40.83-12.09,60.51-17.18,2.46-.46,6.2-1.48,10.14-3.91,5.29-3.26,8.31-7.41,9.75-9.76,17.44-29.95,34.87-59.9,52.31-89.85"/>
            <path class="cls-2" d="M3.7,200.25c7.37-13.49,14.74-26.97,22.1-40.46,1.35-2.15,4.05-5.76,8.74-8.37,2.05-1.14,4-1.81,5.61-2.23,8.53-2.82,17.2-5.59,26.01-8.32,20.64-6.38,40.83-12.09,60.51-17.18,2.46-.46,6.2-1.48,10.14-3.91,5.29-3.26,8.31-7.41,9.75-9.76,17.44-29.95,34.87-59.9,52.31-89.85"/>
            <path class="cls-2" d="M4.97,277.51c24.01,13.68,48.01,27.35,72.02,41.02,12.98-6.35,25.95-12.7,38.94-19.04"/>
            <path class="cls-2" d="M125.28,306.02c-7.59,12.32-15.19,24.64-22.79,36.97-8.01-7.56-16.02-15.12-24.04-22.69,12.69-6.45,25.37-12.89,38.06-19.34"/>
            <path class="cls-2" d="M57.36,418.43c14.3-24.66,28.6-49.32,42.9-73.98-7.66-7.47-15.32-14.94-22.98-22.41-19.13,31.84-38.26,63.68-57.38,95.51"/>
            <path class="cls-2" d="M4.97,280.44c23.42,13.22,46.85,26.44,70.28,39.66-19.91,32.78-39.82,65.55-59.74,98.33"/>
            <path class="cls-2" d="M40.81,300.67c-11.65,20.99-23.31,41.98-34.96,62.98"/>
            <path class="cls-2" d="M5.27,360.42c11.03-20.38,22.06-40.77,33.09-61.14"/>
            <path class="cls-2" d="M126.31,307.29c-21.71,37.25-43.42,74.49-65.13,111.73"/>
            <path class="cls-2" d="M345.35,418.04C232.28,347.34,119.21,276.63,6.14,205.93"/>
            <path class="cls-2" d="M75.25,320.1c.58-.53,1.16-1.05,1.75-1.58.49.58.97,1.17,1.47,1.75-.39.58-.78,1.17-1.17,1.75-.68-.65-1.36-1.29-2.04-1.94h0Z"/>
            <path class="cls-2" d="M100.26,344.46c.74-.5,1.48-.99,2.22-1.48.66.61,1.3,1.21,1.95,1.82-.6.88-1.2,1.75-1.79,2.63-.8-.99-1.59-1.99-2.39-2.98h.01Z"/>
            <path class="cls-2" d="M40.81,300.67c.35-.72.7-1.44,1.05-2.17"/>
            <path class="cls-2" d="M38.34,299.28c.3-.71.58-1.43.88-2.14"/>
            <path class="cls-2" d="M29.78,401.1c-8.02-5.01-16.05-10.03-24.08-15.04"/>
            <path class="cls-2" d="M27.95,403.05c-7.95-4.88-15.9-9.76-23.85-14.65"/>
            <path class="cls-2" d="M3.7,200.25c118.18,74.29,236.36,148.58,354.54,222.87"/>
            <path class="cls-2" d="M81.48,253.04c6.02-10.2,12.04-20.4,18.05-30.6.08-1.02.07-2.73-.58-4.69-.77-2.31-2.07-3.82-2.83-4.59-26.07-15.31-52.14-30.62-78.21-45.93"/>
            <path class="cls-2" d="M19.1,165.02c26.12,15.53,52.25,31.04,78.38,46.57.78.66,2.61,2.37,3.51,5.27.98,3.14.3,5.78,0,6.74-5.82,10.24-11.63,20.49-17.44,30.73"/>
            <path class="cls-2" d="M208.34,156.33c-23.46-13.85-46.93-27.69-70.4-41.54"/>
            <path class="cls-2" d="M209.81,153.83c-23.25-13.72-46.5-27.44-69.75-41.16"/>
            <path class="cls-2" d="M219.87,339.57c33.11-58.35,66.22-116.71,99.33-175.05.03-.06.23-.38.5-.84,2.18-3.78,9.79-17.37,7.69-33.03-.89-6.64-2.82-8.6-4.27-9.49-1.94-1.19-4.1-1.15-5.47-.97-.46.61-1.45,1.75-3.13,2.54-1.85.87-3.53.85-4.29.78-5.66-.15-12.43-.81-19.91-2.54-12.1-2.8-21.63-7.4-28.3-11.32-.75-.58-2.06-1.77-2.93-3.71-.5-1.13-.7-2.17-.78-2.93-8.18-4.3-16.44-8.79-24.79-13.48-20.67-11.61-40.12-23.45-58.37-35.33"/>
            <path class="cls-2" d="M307.47,185.2c-27.84-16.01-55.67-32.02-83.51-48.03"/>
            <path class="cls-2" d="M309.07,182.76c-27.84-16.01-55.67-32.02-83.51-48.03"/>
            <path class="cls-2" d="M221.5,340.59c55.2-94.24,94.39-163.83,103.46-180.86,0,0,7.52-13.99,5.82-29.63-.81-7.37-3.1-10.55-5.53-12.27-3.07-2.17-6.6-2.2-8.52-2.06-.43-.42-1.01-.89-1.73-1.31-1.87-1.08-3.71-1.17-4.68-1.15-5.15-.34-11.22-1.16-17.86-2.9-11.36-2.98-20.28-7.56-26.55-11.49-.81-.18-1.75-.33-2.84-.38-1.32-.07-2.46.03-3.4.17-6.54-3.56-13.11-7.21-19.71-10.93-21.77-12.29-42.62-24.8-62.57-37.41"/>
            <path class="cls-1" d="M191.83,64.59l1.98-3.43c1-1.73,3.2-2.32,4.93-1.32l33.13,19.14c1.73,1,2.32,3.2,1.32,4.93l-1.98,3.43c-1,1.73-3.2,2.32-4.93,1.32l-33.13-19.14c-1.73-1-2.32-3.2-1.32-4.93Z"/>
            <path class="cls-1" d="M211.64,54.33h1.73c1.09,0,1.98.89,1.98,1.98v35.91c0,1.09-.89,1.98-1.98,1.98h-1.73c-1.09,0-1.98-.89-1.98-1.98v-35.91c0-1.09.89-1.98,1.98-1.98Z" transform="translate(41.98 221.22) rotate(-60.02)"/>
            <path class="cls-2" d="M339.89,110.81c-3.22-28.32-6.45-56.64-9.66-84.96"/>
            <path class="cls-2" d="M332.86,26.13c3.13,28.52,6.25,57.03,9.37,85.55"/>
            <path class="cls-2" d="M357.45,22.03c5.86,40.92,11.71,81.84,17.56,122.76.81,4.87,2.34,8.52,3.51,10.84,3.31,6.57,7.81,10.6,11.42,13.77,3.44,3.02,6.45,5.03,7.75,5.88.22.14.38.24.44.28,2.75,1.72,35.5,22.24,108.42,67.92.49.34,2.35,1.54,4.88,1.22,1.77-.23,2.99-1.09,3.51-1.51,26.06-18.93,52.11-37.87,78.17-56.8"/>
            <path class="cls-2" d="M360.58,18.41c5.82,41.3,11.63,82.4,17.4,123.33.8,4.86,2.31,8.49,3.47,10.8,3.26,6.53,7.71,10.53,11.27,13.67,3.39,2.99,6.36,4.97,7.65,5.81.22.14.38.24.44.28,2.71,1.71,34.9,21.9,106.15,66.57.47.33,2.29,1.49,4.76,1.16,1.73-.23,2.93-1.09,3.45-1.51,25.6-18.8,51.2-37.63,76.82-56.45"/>
            <path class="cls-2" d="M608.84,206.16c12.74-9.25,25.48-18.51,38.22-27.76"/>
            <path class="cls-2" d="M606.41,203.07c13.15-9.67,26.3-19.33,39.47-29"/>
            <path class="cls-2" d="M643.97,415.7c-6.41-8.56-12.85-17.31-19.3-26.27-8.38-11.66-16.46-23.18-24.22-34.57-21.79-30.37-43.59-60.74-65.38-91.12"/>
            <path class="cls-2" d="M648.38,410.94c-6.41-8.56-12.85-17.31-19.3-26.27-8.38-11.66-16.46-23.18-24.22-34.57-21.79-30.37-43.59-60.74-65.38-91.12"/>
            <path class="cls-2" d="M644.61,413.32c-6.41-8.56-12.85-17.31-19.3-26.27-8.38-11.66-16.46-23.18-24.22-34.57-21.79-30.37-43.59-60.74-65.38-91.12"/>
            <path class="cls-2" d="M645.64,410.94c-6.41-8.56-12.85-17.31-19.3-26.27-8.38-11.66-16.46-23.18-24.22-34.57-21.79-30.37-43.59-60.74-65.38-91.12"/>
            <path class="cls-2" d="M659.89,300.36c-7.15,7.95-14.5,15.96-22.04,24.01-9.81,10.48-19.56,20.62-29.23,30.45-25.58,27.25-51.16,54.51-76.75,81.76"/>
            <path class="cls-2" d="M654.38,296.94c-7.15,7.95-14.5,15.96-22.04,24.01-9.81,10.48-19.56,20.62-29.23,30.45-25.58,27.25-51.16,54.51-76.75,81.76"/>
            <path class="cls-2" d="M657.44,300.19c-7.15,7.95-14.5,15.96-22.04,24.01-9.81,10.48-19.56,20.62-29.23,30.45-25.58,27.25-51.16,54.51-76.75,81.76"/>
            <path class="cls-2" d="M654.91,299.63c-7.15,7.95-14.5,15.96-22.04,24.01-9.81,10.48-19.56,20.62-29.23,30.45-25.58,27.25-51.16,54.51-76.75,81.76"/>
            <path class="cls-2" d="M598.4,189.32c1.15-2.25,1.58-4.26,1.75-5.56.27-2,.12-3.56,0-4.69-.23-2.2-.73-4-1.17-5.27-25.18-34.87-50.35-69.73-75.54-104.6-.85-.73-2.1-1.65-3.81-2.35-2.99-1.21-5.67-1.06-7.03-.88"/>
            <path class="cls-2" d="M601.62,189.61c.71-1.66,1.7-4.53,1.75-8.21.07-3.65-.81-6.52-1.47-8.21-25.67-35.35-51.34-70.7-76.99-106.06-.94-.85-2.59-2.13-4.98-2.93-3.53-1.18-6.58-.62-7.9-.3"/>
            <path class="cls-2" d="M602.5,194.01c-.93.25-2.2.42-3.51,0-2.28-.73-3.44-2.83-3.76-3.26-2.3-3.06-34.74-47.57-79.09-108.66-.45-.46-1.37-1.54-1.75-3.22-.31-1.34-.14-2.47,0-3.07"/>
            <path class="cls-2" d="M603.96,196.64c-.68.31-2.44.98-4.68.58-2.65-.46-4.23-2.12-4.68-2.63-26.84-37.01-53.67-74.03-80.51-111.04-.54-.48-1.13-1.16-1.58-2.11-1.5-3.18.15-6.46.41-6.98"/>
            <path class="cls-2" d="M511.15,48.4c-.23-.53-1.04-2.55-.3-4.98.78-2.59,2.75-3.82,3.22-4.1,5.17-3.71,10.34-7.42,15.51-11.13"/>
            <path class="cls-2" d="M513.79,46.64c-.31-.97-.57-2.4,0-3.81.5-1.24,1.41-1.94,1.83-2.24,2.12-1.58,9.21-6.6,18.96-13.28"/>
            <path class="cls-2" d="M524.91,38.14c.83.34,2.4.83,4.38.66,1.4-.12,2.49-.52,3.21-.85,4.89-3.74,9.78-7.49,14.67-11.24"/>
            <path class="cls-2" d="M524.03,39.76c1.25.45,3.57,1.07,6.45.73,2.02-.24,3.61-.87,4.65-1.39,4.89-3.83,9.78-7.67,14.67-11.5"/>
            <path class="cls-2" d="M502.07,53.96c-3.38-4.42-6.76-8.92-10.14-13.47-3.11-4.19-6.17-8.36-9.17-12.5"/>
            <path class="cls-2" d="M475.73,28.38c2.57,3.77,5.16,7.54,7.74,11.32.27.37.66.81,1.24,1.18,1.71,1.12,3.63.7,4.1.58-3.19-4.23-6.37-8.46-9.56-12.7"/>
            <path class="cls-2" d="M474.56,29.55c2.6,3.77,5.21,7.55,7.81,11.32.29.45,1.2,1.71,2.93,2.35,2.19.8,4.09-.02,4.49-.19,3.26,4.17,6.51,8.33,9.75,12.5"/>
            <path class="cls-2" d="M500.71,54.55c-6.37-8.6-12.75-17.18-19.13-25.78"/>
            <path class="cls-2" d="M503.64,52.21c-3.9-4.95-7.81-9.9-11.71-14.85-.27-3.13-.52-6.25-.78-9.38"/>
            <path class="cls-2" d="M488.81,20.76c.33,4.62.66,9.24.97,13.87-1.5-2.28-2.99-4.56-4.49-6.83"/>
            <path class="cls-2" d="M176.05,52.63c27.94,16.46,55.87,32.93,83.82,49.38-.02.62.05,1.79.69,3.07.82,1.64,2.1,2.48,2.63,2.79,6.26,3.66,15.24,7.98,26.64,10.7,8.17,1.95,15.48,2.56,21.37,2.63,1.83-.46,2.99-1.89,2.89-3.06-.11-1.43-2.14-2.99-4.64-2.36-4.62-.31-9.86-.99-15.51-2.35-12.74-3.05-22.63-8.3-29.42-12.75-.34-.11-1.99-.62-3.51.3-.53.31-.89.71-1.13,1.02"/>
            <path class="cls-2" d="M314.09,118.14c1.67-.33,4.54-.6,7.5.72,5.08,2.26,6.74,7.53,7.32,9.38.8,2.54.78,4.5.73,7.77-.05,2.95-.38,7.26-1.75,12.45-.46,1.66-1.02,3.41-1.72,5.25-1.63,4.26-3.58,7.82-5.45,10.72-33.33,58.56-66.66,117.12-100.01,175.68"/>
            <path class="cls-2" d="M489.56,67.64c.52.59.77,1.16.89,1.6.61,2.18-.77,4.84-3.41,6.79-6.8,4.03-13.76,8.08-20.88,12.11-7.07,4-14.06,7.86-20.95,11.59-.15.1-2.52,1.68-5.2.52-2.53-1.1-3.08-3.68-3.13-3.91"/>
            <path class="cls-2" d="M425.42,102.09l-.88-1.61c-1.23-2.26-.36-5.12,1.93-6.37,9.33-4.49,19.02-9.45,28.96-14.94,7.95-4.4,15.53-8.82,22.72-13.23.42-.15,2.38-.84,4.41.15,1.03.5,1.66,1.24,1.98,1.68"/>
            <path class="cls-2" d="M486.76,70.24h0c.14.19.55.82.49,1.69-.11,1.3-1.22,1.97-1.33,2.04-21.86,12.75-38.07,21.83-40.24,22.57-1.83.63-3.34.24-3.34.24-.85-.22-1.46-.62-1.78-.87"/>
            <path class="cls-2" d="M428.67,99.26h0c-.75-1.37-.22-3.12,1.17-3.88,8.15-4.09,16.5-8.45,25-13.1,7.8-4.26,15.31-8.55,22.55-12.83,1.3.38,2.6.74,3.89,1.12"/>
            <path class="cls-2" d="M630.83,64.87c.53-.58,1.06-.89,1.49-1.07,2.09-.85,4.9.21,7.13,2.59,4.79,6.29,9.61,12.74,14.45,19.35,4.79,6.56,9.44,13.06,13.94,19.49.11.13,1.96,2.32,1.13,5.11-.8,2.64-3.3,3.49-3.52,3.56"/>
            <path class="cls-2" d="M621.65,54.93l-1.5,1.06c-2.1,1.48-5.04.95-6.55-1.18-5.54-8.76-11.59-17.8-18.19-27.05-5.29-7.4-10.56-14.41-15.78-21.04-.2-.39-1.11-2.28-.37-4.41.38-1.09,1.03-1.79,1.44-2.17"/>
            <path class="cls-2" d="M633.75,67.35h0c.17-.15.75-.65,1.62-.68,1.31-.05,2.1.98,2.17,1.09,15.2,20.24,26.09,35.3,27.09,37.37.84,1.75.63,3.29.63,3.29-.12.86-.46,1.52-.66,1.87"/>
            <path class="cls-2" d="M618.46,52.02h0c-1.28.9-3.07.58-3.99-.72-5-7.63-10.3-15.42-15.9-23.33-5.13-7.25-10.26-14.22-15.35-20.92.22-1.33.44-2.67.66-4"/>
            <path class="cls-2" d="M681.59,136.72l-1.5,1.06c-2.1,1.48-5.04.95-6.55-1.18-5.54-8.76-11.59-17.8-18.19-27.05-5.29-7.4-10.56-14.41-15.78-21.04-.2-.39-1.11-2.28-.37-4.41.38-1.09,1.03-1.79,1.44-2.17"/>
            <path class="cls-2" d="M678.41,133.82h0c-1.28.9-3.07.58-3.99-.72-5-7.63-10.3-15.42-15.9-23.33-5.13-7.25-10.26-14.22-15.35-20.92.22-1.33.44-2.67.66-4"/>
            <path class="cls-2" d="M7.32,99.38c5.28-1.24,20.32-4.89,33.96-10.26,4.52-1.77,9.4-3.94,14.35-8.21,2.83-2.44,4.82-4.83,6.15-6.45,4-4.85,6.59-9.38,8.2-12.6"/>
            <path class="cls-2" d="M7.32,101.43c10.41-2.6,21.24-5.81,32.4-9.76,2.61-.93,5.18-1.87,7.71-2.83,2.5-1.24,6.01-3.27,9.66-6.45,3.61-3.13,5.81-6.03,7.9-8.79,1.91-2.52,4.35-6.04,6.73-10.54"/>
            <path class="cls-2" d="M71.72,63.05c-15.93-9.35-31.85-18.69-47.77-28.03-.51-.27-1.17-.69-1.8-1.36-1.38-1.48-1.67-3.2-1.75-3.91"/>
            <path class="cls-2" d="M70.96,64.43c-16.03-9.34-32.06-18.68-48.1-28.02-.6-.3-1.32-.74-2-1.44-2.02-2.05-2.21-4.69-2.23-5.52"/>
            <path class="cls-2" d="M441.51,417.55c26.58-42.14,53.17-84.29,79.75-126.44,1.26-2,1.93-4.31,1.93-6.67v-5.76"/>
            <path class="cls-2" d="M443.99,417.55c26.58-42.14,53.17-84.29,79.75-126.44,1.26-2,1.93-4.31,1.93-6.67-.12-3.12-.25-6.25-.37-9.37"/>
            <g class="cls-28">
              <g>
                <path class="cls-5" d="M126.18,304.75c40.4-69.92,80.8-139.85,121.2-209.77,18.53,14.98,34.92,19.51,45.09,21.09,8.57,1.34,19.69.52,41.57-1.17,20.77-1.6,31.15-2.41,42.15-4.1,14.14-2.17,38.77-6.12,66.75-18.17,21.67-9.32,36.3-19.69,65.58-40.43,15-10.63,27.15-20.07,35.72-26.96"/>
                <path class="cls-5" d="M647.87,256.71c-11.53-15.74-25.37-34.64-36.89-50.39-36.4-49.77-72.73-99.59-109.02-149.47"/>
                <path class="cls-5" d="M606.89,205.15c-12.2,9.34-24.69,18.72-37.47,28.13-12.01,8.84-23.92,17.43-35.72,25.78-37.47,59.18-74.94,118.37-112.42,177.55"/>
                <path class="cls-10" d="M336.96,430.74C225.13,362.18,113.29,293.62,1.46,225.07"/>
              </g>
            </g>
            <path class="cls-2" d="M457.55,392.12c22.94,13.68,45.88,27.37,68.82,41.05"/>
            <path class="cls-2" d="M456.44,393.87c22.94,13.68,45.88,27.37,68.82,41.05"/>
          </g>
        </g>
        <g class="cls-27">
          <g>
            <path class="cls-8" d="M121.45,296c-1.01-3.8-.46-5.99.33-7.3.36-.62.96-1.37.89-2.44-.04-.62-.32-1.28-1.95-2.94-1.54-1.56-2.3-2.35-3.67-3.18-1.91-1.16-3.39-2.07-5.29-1.78-2.15.32-3.42,1.98-3.66,2.31-1.4,1.9-1.55,4.56-.46,6.9"/>
            <g>
              <circle class="cls-14" cx="121.4" cy="295.4" r=".59"/>
              <circle class="cls-14" cx="115.57" cy="292.25" r=".59"/>
              <circle class="cls-14" cx="110.61" cy="289.42" r=".59"/>
              <circle class="cls-24" cx="107.51" cy="287.18" r=".59"/>
              <circle class="cls-14" cx="108.89" cy="279.82" r=".59"/>
              <circle class="cls-14" cx="114.34" cy="278.88" r=".59"/>
              <circle class="cls-14" cx="119.6" cy="282.01" r=".59"/>
              <circle class="cls-14" cx="122.72" cy="286.83" r=".59"/>
              <circle class="cls-14" cx="124.77" cy="298.2" r=".59"/>
              <circle class="cls-14" cx="96.92" cy="280.82" r=".59"/>
              <circle class="cls-14" cx="92.07" cy="277.89" r=".59"/>
              <circle class="cls-14" cx="87" cy="274.72" r=".59"/>
              <circle class="cls-14" cx="83.18" cy="272.04" r=".59"/>
              <circle class="cls-14" cx="101.48" cy="283.73" r=".59"/>
              <circle class="cls-14" cx="145.97" cy="311.49" r=".59"/>
              <circle class="cls-14" cx="140.15" cy="307.97" r=".59"/>
              <circle class="cls-14" cx="134.88" cy="304.72" r=".59"/>
              <circle class="cls-14" cx="129.68" cy="301.26" r=".59"/>
              <circle class="cls-14" cx="150.6" cy="314.71" r=".59"/>
              <circle class="cls-14" cx="177.16" cy="330.94" r=".59"/>
              <circle class="cls-14" cx="171.16" cy="327.18" r=".59"/>
              <circle class="cls-14" cx="160.83" cy="320.48" r=".59"/>
              <circle class="cls-14" cx="155.73" cy="317.45" r=".59"/>
              <circle class="cls-14" cx="165.53" cy="323.53" r=".59"/>
              <circle class="cls-14" cx="214.66" cy="354.78" r=".59"/>
              <path class="cls-14" d="M209.71,351.03c.33,0,.59.27.59.59s-.27.59-.59.59-.59-.27-.59-.59.27-.59.59-.59Z"/>
              <circle class="cls-14" cx="204.44" cy="348.12" r=".59"/>
              <circle class="cls-14" cx="200.62" cy="346" r=".59"/>
              <circle class="cls-14" cx="219.51" cy="357.79" r=".59"/>
              <circle class="cls-14" cx="190.47" cy="339.42" r=".59"/>
              <circle class="cls-14" cx="185.83" cy="336.62" r=".59"/>
              <circle class="cls-14" cx="181.99" cy="333.88" r=".59"/>
              <circle class="cls-14" cx="195.63" cy="342.32" r=".59"/>
              <circle class="cls-14" cx="239.53" cy="370.42" r=".59"/>
              <circle class="cls-14" cx="234.53" cy="367.1" r=".59"/>
              <circle class="cls-14" cx="229.02" cy="363.76" r=".59"/>
              <circle class="cls-14" cx="224.42" cy="360.87" r=".59"/>
              <circle class="cls-14" cx="244.74" cy="373.5" r=".59"/>
              <circle class="cls-14" cx="270.71" cy="389.87" r=".59"/>
              <circle class="cls-14" cx="265.3" cy="386.28" r=".59"/>
              <circle class="cls-14" cx="255.28" cy="380.05" r=".59"/>
              <circle class="cls-14" cx="250.05" cy="376.72" r=".59"/>
              <circle class="cls-14" cx="259.67" cy="382.8" r=".59"/>
              <circle class="cls-14" cx="296.63" cy="406" r=".59"/>
              <circle class="cls-14" cx="291.22" cy="402.68" r=".59"/>
              <circle class="cls-14" cx="281.02" cy="396.24" r=".59"/>
              <circle class="cls-14" cx="276.38" cy="393.02" r=".59"/>
              <circle class="cls-14" cx="285.59" cy="399.16" r=".59"/>
              <circle class="cls-14" cx="306.94" cy="412.53" r=".59"/>
              <circle class="cls-14" cx="302.3" cy="409.62" r=".59"/>
              <circle class="cls-14" cx="311.71" cy="415.32" r=".59"/>
              <circle class="cls-25" cx="30.75" cy="239.11" r=".59"/>
              <path class="cls-14" d="M24.75,234.93c.33,0,.59.27.59.59s-.27.59-.59.59-.59-.27-.59-.59.27-.59.59-.59Z"/>
              <circle class="cls-14" cx="14.55" cy="229.07" r=".59"/>
              <circle class="cls-14" cx="9.28" cy="226.16" r=".59"/>
              <circle class="cls-14" cx="19.12" cy="231.86" r=".59"/>
              <circle class="cls-14" cx="56.66" cy="255.54" r=".59"/>
              <circle class="cls-14" cx="51.26" cy="252.16" r=".59"/>
              <circle class="cls-14" cx="41.06" cy="245.66" r=".59"/>
              <circle class="cls-14" cx="36.18" cy="242.76" r=".59"/>
              <circle class="cls-14" cx="45.62" cy="248.54" r=".59"/>
              <circle class="cls-14" cx="77.17" cy="268.11" r=".59"/>
              <circle class="cls-14" cx="66.98" cy="262.02" r=".59"/>
              <circle class="cls-14" cx="61.74" cy="258.76" r=".59"/>
              <circle class="cls-14" cx="71.54" cy="264.81" r=".59"/>
            </g>
            <path class="cls-8" d="M4.97,223.11c103.51,64.91,207.01,129.82,310.52,194.73"/>
          </g>
        </g>
      </g>
      <g id="_Йеппи" data-name=" Йеппи">
        <g class="cls-30">
          <g>
            <path class="cls-21" d="M134.29,170.83c-1.48.23-2.6,1.49-2.66,3.01-.07,1.52.5,2.9,1.01,3.94.66,1.34,1.53,2.79,2.46,4.33.22.35.42.7.64,1.06-.5.26-1.01.38-1.56.4-1.41.03-3.1-.73-5.01-2.24-2.03-1.6-2.27-1.82-2.61-2.13-.12-.11-.26-.23-.47-.42l-1.78,2.06c.19.17.31.27.42.38.38.34.65.58,2.75,2.24,2.41,1.91,4.68,2.86,6.73,2.82,1.02-.02,1.98-.27,2.88-.76.26.47.5.94.73,1.4,1.56,3.18,1.52,4.77,1.52,4.78v-.03l2.71.22c.02-.23.12-2.27-1.79-6.16-.34-.69-.7-1.37-1.09-2.05.44-.72.81-1.79.89-3.35.09-1.7-.21-3.58-.84-5.31-1.58-4.34-4.19-4.29-4.95-4.17M136.68,175.93c.62,1.69.77,3.34.64,4.59-.86-1.42-1.67-2.76-2.25-3.95-.38-.79-.77-1.71-.73-2.61,0-.14.07-.26.15-.34.06-.06.13-.09.21-.11.19-.03.44.07.7.29.34.28.83.88,1.28,2.13"/>
            <path class="cls-7" d="M135.12,175.75c-.06.24.05.5.26.63.2.14.49.13.68-.02.2-.15.29-.41.23-.65"/>
            <path class="cls-20" d="M137.9,175.44c0,.28.33.5.73.5s.73-.23.73-.5-.33-.5-.73-.5-.73.23-.73.5"/>
            <path class="cls-20" d="M131.73,175.44c0,.28.33.5.73.5s.73-.23.73-.5-.33-.5-.73-.5-.73.23-.73.5"/>
            <path class="cls-7" d="M132.09,173.96c.22.36.7.62,1.2.63s1.01-.2,1.26-.55"/>
            <path class="cls-7" d="M136.52,173.96c.22.36.7.62,1.2.63s1.01-.2,1.26-.55"/>
            <path class="cls-7" d="M140.06,179.26c1.22.14,2.49-.24,3.45-1.02.66-.54,1.16-1.28,1.44-2.09.26-.76.11-1.69.7-2.32"/>
            <path class="cls-7" d="M133.97,180.14c-1.22.14-2.49-.24-3.45-1.02-.66-.54-1.16-1.28-1.44-2.09-.26-.76-.11-1.69-.7-2.32"/>
            <path class="cls-7" d="M143.95,191.94c-.07-.09-.16-.15-.26-.19-.15-.07-.32-.08-.49-.09s-.34,0-.5-.04c-.07-.02-.15-.03-.21-.08-.04-.03-.08-.07-.1-.12v-.02s-.05-.07-.09-.07h-.26c.11,0,.21-.1.21-.21v-.24c0-.11-.1-.21-.21-.21h-2.78c-.11,0-.21.1-.21.21v.24c0,.11.1.21.21.21-.11,0-.21.1-.21.21v1.07c0,.11.1.21.21.21h4.51c.11,0,.21-.1.21-.21v-.42c0-.11,0-.17-.06-.26h0Z"/>
            <path class="cls-7" d="M122.9,182.09c.11.02.22-.02.31-.06.15-.07.28-.18.4-.3s.23-.24.37-.34c.06-.05.13-.09.2-.1.05-.01.11,0,.15.02h.01s.08.01.11-.03l.17-.19c-.08.08-.07.22.01.3l.18.16c.08.08.22.07.3-.01l1.88-2.04c.08-.08.07-.22-.01-.3l-.18-.16c-.08-.08-.22-.07-.3.01.08-.08.07-.22-.01-.3l-.79-.73c-.08-.08-.22-.07-.3.01l-3.06,3.31c-.08.08-.07.22.01.3.11.1.21.19.31.29.08.08.13.12.23.14h.01s0,0,0,0Z"/>
          </g>
        </g>
      </g>
    </g>
  </g>
</svg>