<?xml version="1.0" encoding="UTF-8"?>
<svg id="_Слой_1" data-name="Слой 1" xmlns="http://www.w3.org/2000/svg" xmlns:xlink="http://www.w3.org/1999/xlink" viewBox="0 0 839.8 508.2">
  <defs>
    <style>
      .cls-1, .cls-2, .cls-3, .cls-4, .cls-5, .cls-6, .cls-7, .cls-8, .cls-9, .cls-10, .cls-11, .cls-12, .cls-13, .cls-14 {
        fill: none;
      }

      .cls-1, .cls-2, .cls-4, .cls-5, .cls-6, .cls-7, .cls-8, .cls-9, .cls-10, .cls-15, .cls-11, .cls-12, .cls-13, .cls-14 {
        stroke-miterlimit: 10;
      }

      .cls-1, .cls-5, .cls-6 {
        stroke: #c8d2d3;
      }

      .cls-1, .cls-7 {
        stroke-width: 3.09px;
      }

      .cls-2, .cls-5 {
        stroke-width: .52px;
      }

      .cls-2, .cls-8, .cls-11 {
        stroke: #fff;
      }

      .cls-16 {
        clip-path: url(#clippath);
      }

      .cls-3, .cls-17, .cls-18, .cls-19, .cls-20, .cls-21, .cls-22 {
        stroke-width: 0px;
      }

      .cls-4, .cls-6, .cls-15 {
        stroke-width: 1.03px;
      }

      .cls-4, .cls-15, .cls-12 {
        stroke: #f0f0f0;
      }

      .cls-17 {
        fill: #c8d2d3;
      }

      .cls-7, .cls-13 {
        stroke: #f6f5f3;
      }

      .cls-8 {
        stroke-width: 6.18px;
      }

      .cls-23 {
        clip-path: url(#clippath-1);
      }

      .cls-24 {
        clip-path: url(#clippath-4);
      }

      .cls-25 {
        clip-path: url(#clippath-3);
      }

      .cls-26 {
        clip-path: url(#clippath-2);
      }

      .cls-27 {
        clip-path: url(#clippath-7);
      }

      .cls-28 {
        clip-path: url(#clippath-6);
      }

      .cls-29 {
        clip-path: url(#clippath-5);
      }

      .cls-18, .cls-15 {
        fill: #f0f0f0;
      }

      .cls-19 {
        fill: #f6f5f3;
      }

      .cls-20 {
        fill: #f39655;
      }

      .cls-21 {
        fill: #b4cc04;
      }

      .cls-9, .cls-13 {
        stroke-width: 2.06px;
      }

      .cls-9, .cls-14 {
        stroke: #eaeeed;
      }

      .cls-10 {
        stroke: #1a1a1a;
        stroke-width: .26px;
      }

      .cls-11, .cls-12, .cls-14 {
        stroke-width: 4.12px;
      }

      .cls-22 {
        fill: #eaeeed;
      }
    </style>
    <clipPath id="clippath">
      <rect class="cls-3" x="7.88" y="7.35" width="820" height="461"/>
    </clipPath>
    <clipPath id="clippath-1">
      <rect class="cls-3" x="7.91" y="7.36" width="819.96" height="490.13"/>
    </clipPath>
    <clipPath id="clippath-2">
      <rect class="cls-3" x="7.91" y="7.36" width="819.96" height="490.13"/>
    </clipPath>
    <clipPath id="clippath-3">
      <rect class="cls-3" x="7.91" y="7.36" width="819.96" height="490.13"/>
    </clipPath>
    <clipPath id="clippath-4">
      <rect class="cls-3" x="7.91" y="7.36" width="819.96" height="490.13"/>
    </clipPath>
    <clipPath id="clippath-5">
      <rect class="cls-3" x="7.91" y="7.36" width="819.96" height="490.13"/>
    </clipPath>
    <clipPath id="clippath-6">
      <rect class="cls-3" x="7.91" y="7.36" width="819.96" height="490.13"/>
    </clipPath>
    <clipPath id="clippath-7">
      <rect class="cls-3" x="94.76" y="161.81" width="89.67" height="42.2"/>
    </clipPath>
  </defs>
  <g class="cls-16">
    <g>
      <g id="_карта" data-name=" карта">
        <rect class="cls-17" x="7.91" y="7.36" width="819.96" height="490.13"/>
        <path class="cls-22" d="M827.86,350.47v147.01h-439.33c6.68-8.95,14.52-19.29,23.43-30.65,6.45-8.23,59.33-65.69,81.11-101.26,8.32-13.59,19.66-25.26,27.21-39.29.36-.68,1.57-2.95,4.03-5.04,3.38-2.81,7.29-3.71,10.08-4.02,4.07-5.2,10.12-13.14,17.13-23.18,9.59-13.73,10.85-16.9,16.63-22.66,7.6-7.61,16.22-16.18,28.22-17.13,9.96-.78,14.86,4.24,27.71,1.51,3.93-.85,7.46-2.27,10.13-3.34,5.1-2.02,9.23-4.35,17.32-8.91,10.43-5.92,14.43-8.82,16.68-10.54,2.09-1.59,3.76-2.99,4.92-3.98,51.59,40.5,103.15,81,154.73,121.5h.01s0,0,0,0Z"/>
        <path class="cls-22" d="M180.99,497.49H7.91v-132.02c57.71,44,115.4,88.02,173.09,132.02h0Z"/>
        <path class="cls-19" d="M569.41,151.94c-2.35,3.98-5.28,6.55-7.31,8.06-9.16,4.87-18.3,9.75-27.47,14.61-1.81.82-4.68,1.82-8.32,2.02-2.24.1-4.19-.13-5.7-.45-.13,0-.23-.04-.35-.06-2.32-1.32-4.62-2.63-6.95-3.98-4.15-2.35-8.3-4.74-12.45-7.1-8.3,1.39-24.08,2.84-42.08-3.29-10.81-3.66-18.97-8.9-24.44-13.1-31.5-22.58-63-45.17-94.5-67.79-3.73-2.67-7.46-5.35-11.2-8.03-4.57-3.29-9.14-6.56-13.71-9.84,5.46-8.31,10.92-16.63,16.38-24.94-12.77-9.14-25.53-18.31-38.3-27.44-59.2,84.56-118.39,169.1-177.6,253.66-.46-.37-.92-.75-1.39-1.13-2.02,2.65-4.03,5.29-6.04,7.95,3.15,2.13,6.29,4.28,9.44,6.42,1.9-2.17,3.81-4.33,5.72-6.49-.89-.73-1.79-1.46-2.69-2.2,50.39-71.04,100.76-142.08,151.15-213.12,15.55,11.01,31.09,22.02,46.64,33.04,3.87,2.75,7.73,5.49,11.61,8.22,52.93,37.51,105.88,75,158.83,112.5,2.35,1.67,4.68,3.32,7.02,4.98,9.95,7.04,19.88,14.07,29.82,21.12,1.59,2.12,5.83,8.35,6.04,17.38.2,8.3-3.11,14.32-4.53,16.63-53.64,75.97-107.27,151.93-160.91,227.91h-186.74c-57.15-42.43-114.34-84.88-171.52-127.34V7.36h562.54c.48,21.98.95,43.96,1.41,65.94.14,6.15.27,12.33.4,18.49.31,14.42.62,28.86.91,43.28.23,2.79.45,9.8-3.77,16.87h0s.02,0,.02,0Z"/>
        <path class="cls-19" d="M827.86,7.36v346.98c-22.79-17.3-45.6-34.58-68.4-51.89.35-1.63.7-3.24,1.05-4.87-50.11-37.4-86.97-66.35-104.95-79.76,0,0-22.33-16.67-30.6-36.26-2.92-6.92-4.48-13.4-5.29-18.9-.98-23.86-1.93-47.72-2.91-71.58-.26-6.25-.51-12.52-.76-18.76-.88-21.65-1.76-43.3-2.64-64.95h214.51-.02,0Z"/>
        <path class="cls-22" d="M667.04,233.7c-2.76,2.73-6.3,5.79-10.72,8.69-6.93,4.53-13.53,7.05-18.52,8.51,9.75-5.73,19.49-11.46,29.24-17.18h0v-.02Z"/>
        <path class="cls-19" d="M563.36,73.48c22.42-.5,44.84-1.01,67.27-1.51-.38,6.3-.75,12.6-1.13,18.89-23.05.38-46.1.75-69.15,1.13,1.01-6.18,2.02-12.35,3.03-18.52h-.01s0,.01,0,.01Z"/>
        <path class="cls-19" d="M311.7,98.79c7.17-10.96,14.36-21.92,21.54-32.87,3.9,2.26,7.82,4.53,11.71,6.81-6.8,10.96-13.6,21.92-20.4,32.87-4.28-2.26-8.57-4.53-12.85-6.81h0Z"/>
        <path class="cls-19" d="M481.74,220.09c11.21-17.01,22.42-34.01,33.63-51.01,2.39,1.39,4.78,2.77,7.17,4.16-11.21,17.26-22.42,34.51-33.63,51.77-2.39-1.63-4.79-3.27-7.17-4.91h0Z"/>
        <path class="cls-22" d="M180.59,7.36c-7.6,10.18-15.21,20.37-22.81,30.55-2.08,1.9-4.51,3.85-7.31,5.72-10.01,6.7-19.58,8.71-23.68,9.58-14.46,3.08-58.65,12.76-118.91,25.08V7.36h172.71Z"/>
        <path class="cls-19" d="M71.82,7.36c-1.57,3.53-4.78,9.26-11.03,13.6-2.26,1.58-4.48,2.66-6.42,3.4-7.98-5.67-15.97-11.35-23.96-17,0,0,41.4,0,41.4,0Z"/>
        <path class="cls-17" d="M148.33,393.33c-.24.11-.51.2-.77.2-.51-.03-.88-.49-1.12-.93-1.21-2.23-.87-5.14.65-7.17,1.51-2.04,4.07-3.18,6.6-3.23,1.21-.02,2.53.24,3.32,1.18,5.04,6.05-5.35,8.58-8.65,9.98h0s-.01-.02-.01-.02Z"/>
        <path class="cls-18" d="M288.44,7.36c-8.55,12.52-17.08,25.03-25.62,37.53-8.88-5.87-17.76-11.74-26.63-17.58,1.08-1.86,2.14-3.74,3.21-5.6-8.36-4.78-16.72-9.57-25.09-14.36h74.13s0,.01,0,.01Z"/>
        <path class="cls-18" d="M100.1,251.45c20.42,15.12,40.86,30.23,61.28,45.36-15.9,21.79-31.79,43.57-47.68,65.36-28.3-19.52-56.6-39.04-84.89-58.57,17.13-24.35,34.26-48.7,51.39-73.05,7.56,5.13,15.11,10.24,22.67,15.37-.93,1.85-1.85,3.7-2.77,5.54h.01s0-.01,0-.01Z"/>
        <path class="cls-12" d="M105.39,103.7c6.67-8.06,13.35-16.12,20.02-24.18,7.31,5.42,14.61,10.83,21.91,16.25-6.04,8.44-12.1,16.89-18.14,25.32"/>
        <path class="cls-12" d="M31.71,143.39c3.65,2.26,7.31,4.53,10.96,6.8,1.76-2.9,3.53-5.79,5.29-8.69"/>
        <path class="cls-18" d="M103.13,198.92c12.35-16.88,24.68-33.76,37.03-50.63,7.82,6.3,15.62,12.6,23.43,18.89-11.34,16.5-22.67,33.01-34.01,49.49-8.81-5.92-17.64-11.84-26.44-17.76h0s0,0,0,0Z"/>
        <path class="cls-18" d="M205.01,111.54c-1.6-2.69-2.63-6.11-2.26-9.25.13-1.13.45-2.24,1.03-3.2-5.87-4.84-11.74-9.67-17.62-14.5-12.63,16.65-25.27,33.32-37.9,49.98,8.26,5.68,16.54,11.35,24.81,17.04,10.69-13.27,21.39-26.55,32.1-39.82-.05-.08-.12-.17-.15-.25h0Z"/>
        <path class="cls-12" d="M151.49,165.29c5.17-7.82,10.32-15.62,15.49-23.43"/>
        <path class="cls-12" d="M164.34,157.74c-6.54-4.66-13.1-9.32-19.65-13.98"/>
        <path class="cls-5" d="M55.46,241.02c2.9-4.28,5.8-8.57,8.69-12.85,4.16-1.26,8.32-2.52,12.46-3.78,4.28-5.67,8.57-11.34,12.85-17.01.27-.43,1.33-2.07,3.39-2.65,2.11-.59,4.44.15,6.04,1.9,8.69,6.3,17.38,12.6,26.08,18.89"/>
        <path class="cls-18" d="M131.85,144.14c-19.27,25.95-38.55,51.9-57.82,77.85-2.39.36-6.56,1.3-10.96,4.15-4.42,2.85-7.01,6.3-8.32,8.32-15.63-9.24-31.24-18.46-46.86-27.69v-36.21c41.31-8.8,82.63-17.6,123.95-26.4h0Z"/>
        <path class="cls-22" d="M98.59,154.72c-5.17,7.05-10.32,14.1-15.5,21.17,2.52,1.39,5.03,2.77,7.56,4.16,4.91-6.93,9.82-13.85,14.74-20.79-2.26-1.51-4.53-3.02-6.81-4.53h0s0-.01,0-.01Z"/>
        <path class="cls-22" d="M63.56,173.34c-2.35-1.85-4.69-3.68-7.03-5.53l-3.78,4.28c2.53,1.95,5.06,3.9,7.6,5.85,1.03-1.57,2.1-3.1,3.21-4.61h0s0,.01,0,.01Z"/>
        <path class="cls-22" d="M65.64,174.98c-.67.91-1.33,1.82-1.97,2.76-.41.6-.83,1.21-1.24,1.82,2.99,2.3,5.97,4.6,8.96,6.9.93-1.6,1.85-3.19,2.77-4.79-2.84-2.24-5.68-4.47-8.53-6.69h.01Z"/>
        <path class="cls-22" d="M76.17,214.42c-.76,0-3.1.08-5.29,1.76-2.76,2.12-3.2,5.19-3.28,5.79-4.78-.24-9.58-.51-14.36-.75,8.35-12.16,16.69-24.32,25.04-36.48,4.07,3.17,8.17,6.35,12.24,9.52-4.78,6.72-9.57,13.43-14.36,20.15h.01s0,0,0,0Z"/>
        <path class="cls-18" d="M24.78,193.77c2.34-3.44,4.7-6.88,7.05-10.32,7.06,5.01,14.13,10.02,21.18,15.04,2.09-3.17,4.19-6.33,6.28-9.5-8.65-6.72-17.29-13.43-25.94-20.15-6.22,9.07-12.42,18.14-18.65,27.21,8.56,6.3,17.13,12.6,25.69,18.89,1.76-2.06,3.51-4.12,5.27-6.18-6.96-4.99-13.93-9.99-20.89-14.99h-.01s0,0,0,0Z"/>
        <path class="cls-22" d="M9.42,180.66c.93-1.18,1.85-2.35,2.78-3.52,1.51,1.35,3.01,2.7,4.51,4.04-.93,1.08-1.85,2.16-2.77,3.24-1.51-1.26-3.01-2.51-4.52-3.76h0Z"/>
        <path class="cls-18" d="M23.27,272.86c.84.92,1.68,1.86,2.52,2.77-3.53,4.7-7.05,9.4-10.59,14.11-2.43-1.68-4.87-3.36-7.31-5.05v-65.96c11.92,8.48,23.85,16.96,35.76,25.43-6.8,9.57-13.6,19.14-20.4,28.71h.01Z"/>
        <path class="cls-22" d="M106.14,130.28c3.86,2.68,7.72,5.38,11.59,8.06,1.35-2.1,2.68-4.2,4.04-6.3-3.78-2.68-7.56-5.38-11.33-8.06-1.43,2.1-2.85,4.2-4.28,6.3h-.01Z"/>
        <path class="cls-22" d="M31.67,127.96c2.63,1.83,5.26,3.66,7.9,5.49.92-1.43,1.83-2.86,2.75-4.29-2.58-1.83-5.15-3.67-7.72-5.5-.97,1.43-1.94,2.86-2.92,4.29h-.01,0Z"/>
        <path class="cls-22" d="M112.7,108.87c1.6,1.09,3.19,2.18,4.79,3.28.5-.85,1.01-1.68,1.51-2.52-1.39-1.03-2.77-2.06-4.16-3.09-.71.77-1.43,1.56-2.14,2.32h0s0,0,0,0Z"/>
        <path class="cls-22" d="M162.58,73.86c1.01-1.68,2.02-3.36,3.02-5.03-1.69-1.03-3.38-2.05-5.07-3.08-.31.06-.6.13-.91.19-1.36.31-2.78.67-4.18.51-1.3,1.89-2.63,3.77-3.93,5.65,2.44,1.43,4.87,2.85,7.31,4.28-1.18,1.76-2.35,3.53-3.53,5.29l7.55,4.78c1.76-2.93,3.53-5.88,5.29-8.81-1.85-1.25-3.7-2.52-5.54-3.78v-.02s-.01,0-.01,0Z"/>
        <path class="cls-22" d="M167.61,84.43c.75.5,1.51,1.01,2.26,1.51.97-2.1,2.01-3.8,3.56-5.5-.67-.42-1.6-.92-2.29-1.33-1.01,1.68-2.54,3.64-3.55,5.32h.01Z"/>
        <path class="cls-22" d="M136.34,75.71c2.78-.63,5.56-1.25,8.35-1.88-.34-1.01-.91-2.75-1.26-3.75-2.68.42-5.38,1.06-8.06,1.48.33,1.6.65,2.56.98,4.15h-.01Z"/>
        <path class="cls-22" d="M71.11,256.97c-7.72,11.42-15.43,22.86-23.15,34.28,23.68,16.71,47.35,33.42,71.04,50.14,7.89-10.91,15.78-21.83,23.67-32.74-8.48-6.3-16.96-12.6-25.44-18.89-1.96.08-8.6.13-14.86-4.53-5.32-3.96-7.38-9.1-8.06-11.08-7.73-5.71-15.47-11.43-23.21-17.15h.01v-.02Z"/>
        <path class="cls-18" d="M162.82,244.15c1.09-1.76,2.18-3.52,3.27-5.29-.64-1.08-1.54-2.35-2.76-2.57,10.83-15.77,21.66-31.53,32.49-47.3,8.73,5.71,17.47,11.41,26.2,17.13-12.43,18.49-24.86,36.96-37.29,55.45-4.2-2.7-8.39-5.39-12.59-8.09.51-1.09,1.01-2.18,1.51-3.27-3.62-2.02-7.21-4.04-10.83-6.04h0s0-.01,0-.01Z"/>
        <path class="cls-12" d="M204.14,197.29c4.79-6.8,9.57-13.6,14.36-20.4"/>
        <path class="cls-12" d="M207.42,185.95c6.46,4.28,12.93,8.57,19.4,12.85"/>
        <path class="cls-18" d="M204.9,175.88c10.88-14.8,21.76-29.6,32.65-44.42,1.12.43,2.24.88,3.38,1.3,1.43-2.09,2.85-4.18,4.28-6.26,7.39,4.78,14.79,9.58,22.17,14.36-12.35,17.71-24.68,35.43-37.03,53.15-8.48-6.04-16.96-12.1-25.45-18.14h0Z"/>
        <path class="cls-18" d="M275.18,113.66c7.64-10.16,15.29-20.32,22.92-30.48-6.22-4.36-12.42-8.73-18.64-13.1-7.39,10.67-14.79,21.33-22.17,32,5.96,3.86,11.92,7.72,17.88,11.59h0s0-.01,0-.01Z"/>
        <path class="cls-18" d="M216.73,48.67c-2.1,3.44-4.2,6.88-6.3,10.33,3.7,2.52,7.39,5.04,11.09,7.56,4.92-6.22,9.83-12.44,14.75-18.67-3.65-2.94-7.32-5.87-10.98-8.8,1.51-2.18,3.02-4.37,4.53-6.55,5.63,4.28,11.25,8.56,16.88,12.85-5.96,8.65-11.92,17.29-17.88,25.94.05.14,1.05,2.73-.51,4.79-1.34,1.78-4.01,2.39-6.3,1.25-7.48-5.72-14.94-11.42-22.42-17.13,3.7-5.46,7.39-10.91,11.09-16.38,2.02,1.6,4.04,3.19,6.04,4.78v.02h0Z"/>
        <polygon class="cls-22" points="193.82 37.48 186.86 46.8 194.49 52.49 192.42 55.25 179.3 45.45 190.4 30.57 203.53 40.37 201.43 43.17 193.82 37.48"/>
        <path class="cls-22" d="M243.18,28.26c1.76-2.68,3.53-5.38,5.29-8.06,5.46,3.86,10.91,7.72,16.38,11.59-1.6,2.52-3.19,5.03-4.79,7.56-5.63-3.69-11.25-7.39-16.88-11.08h0Z"/>
        <path class="cls-18" d="M309.82,230.67c2.02-3.65,4.04-7.31,6.05-10.96-3.27-3.02-6.55-6.04-9.82-9.07.58-.96,1.17-1.91,1.76-2.87-8.64-6.48-17.3-12.95-25.94-19.43-9.51,13.48-19.02,26.95-28.52,40.43,8.12,5.79,16.24,11.59,24.38,17.38.13.82.24,1.63.38,2.46,3.21,2.32,6.42,4.66,9.64,6.99,1.2-.32,2.39-.63,3.6-.95,9.01,6.81,18.01,13.6,27.01,20.41,2.87-3.58,5.86-7.66,8.82-12.25,3.18-4.93,5.82-9.65,7.99-14.01-8.44-6.04-16.89-12.1-25.32-18.14h-.01Z"/>
        <path class="cls-18" d="M285.25,271.66c-.63-1.01-1.26-2.02-1.89-3.02-4.79-2.96-9.58-5.93-14.36-8.89-1.48-.28-2.98-.55-4.45-.83-6.83-5.37-13.67-10.71-20.51-16.08-7.62,10.99-15.24,21.97-22.87,32.94,16.76,12.97,34.16,25.08,50.99,37.96,4.9,3.76,9.78,7.55,14.66,11.35,3.26-4.55,6.51-9.18,9.76-13.95,4.98-7.29,9.7-14.48,14.21-21.57-8.52-5.97-17.04-11.95-25.55-17.92v.02s0,0,0,0Z"/>
        <path class="cls-18" d="M261.55,327.27c-16.6-12.63-33.68-24.63-50.2-37.33l-25.47,36.7c22.43,14.08,44.86,28.17,67.29,42.26,7.7-9.33,15.57-19.33,23.51-29.93-5.04-3.91-10.07-7.83-15.14-11.7h-.01s0,0,0,0Z"/>
        <path class="cls-18" d="M171.2,403.21c1.51,1.43,3.71,2.32,5.71,1.72,2.03-.61,3.38-2.64,3.79-4.71s0-4.23-.46-6.3c-1.09-4.77-2.68-9.61-6.02-13.21-3.05-3.3-7.49-5.27-11.99-5.36-1.4-.03-2.95.2-3.88,1.24-1.49,1.69-.65,4.59-2.1,6.3-.8.95-2.12,1.3-2.99,2.18-1.29,1.32-1.23,3.52-.37,5.14s2.35,2.8,3.81,3.93c2.96,2.3,5.67,3.77,9.26,4.73,2.96.78,3.01,2.23,5.23,4.33h0s0,.02,0,.02Z"/>
        <path class="cls-4" d="M199.1,369.09l3.27,2.02"/>
        <path class="cls-4" d="M195.1,374.59c1.01.6,2.01,1.18,3.01,1.78"/>
        <path class="cls-18" d="M307.67,455.24c.26.67.51,1.35.76,2.02-2.24,2.95-4.47,5.91-6.69,8.86-2.99-2.13-6.01-4.26-9.01-6.4,1.17-1.63,2.32-3.26,3.48-4.88-2.81-1.8-5.62-3.58-8.44-5.39-1,1.27-2.02,2.52-3.02,3.79.76,1.09,1.52,2.17,2.27,3.27-1.18,1.86-2.36,3.7-3.53,5.55-1.51.26-3.02.51-4.53.76-1.52,2.09-3.02,4.2-4.53,6.29,2.67,1.86,5.38,3.7,8.05,5.55,1.63-1.9,3.26-3.81,4.87-5.73,2.67,1.86,5.36,3.73,8.04,5.6-5.79,7.65-11.57,15.31-17.36,22.96h-4.64l-96.96-66.42c6.23-9.08,12.43-18.14,18.65-27.21,2.18,1.93,4.35,3.87,6.54,5.79-1.09,1.6-2.18,3.2-3.26,4.79,2.93,2.11,5.88,4.2,8.81,6.3,1.54-1.86,3.07-3.7,4.6-5.53-.18-1.18-.39-2.36-.57-3.53l2.79-4.08,5.02.55c1.09-1.76,2.18-3.53,3.29-5.29-6.3-5.04-12.6-10.08-18.89-15.11,5.02-7.14,10.07-14.28,15.1-21.41,10.08,6.64,20.15,13.26,30.24,19.9-.13.39-.82,2.7.51,5.04,1.07,1.89,2.77,2.58,3.29,2.77,22,15.27,43.99,30.57,65.99,45.84-3.61,5.11-7.23,10.26-10.84,15.37h-.03Z"/>
        <path class="cls-19" d="M303.13,396.8c22.42-31.41,44.84-62.8,67.27-94.21-8.9-15.61-17.8-31.23-26.7-46.86-26.87,38.71-53.74,77.43-80.61,116.13,13.35,8.32,26.7,16.63,40.05,24.95h0Z"/>
        <path class="cls-12" d="M417.88,252.96c6.3,4.41,12.6,8.81,18.89,13.23-11.33,17.13-22.67,34.26-34.01,51.39-6.3-4.28-12.6-8.57-18.89-12.85"/>
        <path class="cls-12" d="M420.15,290.75c-6.05-4.16-12.1-8.32-18.14-12.46"/>
        <path class="cls-22" d="M373.67,294.91c-1.52-3.78-3.02-7.55-4.53-11.33,2.64,1.76,5.29,3.53,7.93,5.29-1.13,2.02-2.27,4.04-3.39,6.05h-.01Z"/>
        <path class="cls-18" d="M363.47,237.85c-4.04,5.54-8.06,11.09-12.1,16.63,3.53,6.67,7.05,13.35,10.58,20.02,5.9,3.7,11.81,7.42,17.7,11.13,5.82-7.99,11.62-15.98,17.44-23.98-11.21-7.93-22.42-15.88-33.63-23.8h0Z"/>
        <path class="cls-12" d="M309.82,404.86c7.05,4.4,14.11,8.81,21.17,13.23,17.88-25.94,35.77-51.89,53.65-77.83-6.05-4.4-12.1-8.81-18.14-13.23"/>
        <path class="cls-12" d="M348.4,392.81c-6.43-4.55-12.88-9.09-19.31-13.64"/>
        <path class="cls-12" d="M365.53,366.86c-6.43-4.55-12.88-9.09-19.31-13.64"/>
        <path class="cls-22" d="M303.64,381.69c2.1-2.68,4.2-5.38,6.3-8.06-7.14-5.21-14.28-10.4-21.41-15.61-2.1,2.61-4.2,5.21-6.3,7.82,7.14,5.29,14.28,10.58,21.41,15.88h0v-.02Z"/>
        <path class="cls-22" d="M323.04,358c2.02-2.77,4.04-5.54,6.05-8.32-2.93-2.02-5.88-4.04-8.81-6.05-1.93,2.52-3.86,5.04-5.8,7.55,2.85,2.27,5.71,4.53,8.57,6.8h0Z"/>
        <path class="cls-14" d="M320.77,347.68c2.35-3.27,4.7-6.55,7.05-9.82"/>
        <path class="cls-22" d="M313.97,342.14c5.21.17,10.4.34,15.61.51,5.54-7.64,11.08-15.29,16.63-22.92-9.41-6.3-18.81-12.6-28.21-18.89-6.8,9.82-13.6,19.65-20.4,29.47,5.45,3.95,10.91,7.89,16.38,11.84Z"/>
        <path class="cls-19" d="M306.67,328.02c2.27-2.93,4.53-5.88,6.8-8.81,3.53,2.52,7.05,5.04,10.58,7.55-2.1,3.19-4.2,6.38-6.3,9.58-3.7-2.77-7.39-5.54-11.08-8.32h0Z"/>
        <path class="cls-22" d="M295.79,336.24c-1.33-.98-2.65-1.95-3.99-2.92-2.02,2.77-4.04,5.54-6.05,8.32,1.09.92,2.18,1.85,3.27,2.76,2.17-2.78,4.56-5.39,6.77-8.15h0Z"/>
        <path class="cls-22" d="M297.93,337.8c-2.24,2.8-4.67,5.45-6.86,8.3,1.42,1.2,2.85,2.4,4.27,3.61,2.27-2.93,4.53-5.88,6.8-8.81-1.4-1.03-2.8-2.05-4.21-3.08h0Z"/>
        <path class="cls-22" d="M311.45,362.04c.92-1.43,1.85-2.85,2.77-4.28-1.93-1.68-3.86-3.36-5.8-5.04-1.09,1.43-2.18,2.85-3.27,4.28,2.1,1.68,4.2,3.36,6.3,5.04h0Z"/>
        <path class="cls-22" d="M333.37,285.96c5.04-3.19,10.08-6.38,15.11-9.58,4.62,7.14,9.23,14.28,13.86,21.41-5.13,3.11-10.24,6.22-15.37,9.32-4.53-7.05-9.07-14.11-13.6-21.17h0s0,.02,0,.02Z"/>
        <path class="cls-22" d="M330.34,275.88c.85,1.43,1.68,2.85,2.52,4.28,2.44-1.35,4.87-2.68,7.31-4.04l-1.98-3.95c-2.61,1.23-5.24,2.46-7.86,3.68h0s0,.02,0,.02Z"/>
        <path class="cls-22" d="M339.16,267.07c1.27,2.57,2.57,5.13,3.84,7.69,1.03-.55,2.06-1.1,3.09-1.64-1.3-2.48-2.61-4.95-3.9-7.43-1.01.46-2.02.92-3.02,1.39h0Z"/>
        <path class="cls-22" d="M445.72,230.03c1.35-2.02,2.68-4.04,4.04-6.04,2.1,1.6,4.2,3.19,6.3,4.79-1.35,1.85-2.68,3.7-4.04,5.54-2.1-1.43-4.2-2.85-6.3-4.28Z"/>
        <path class="cls-22" d="M377.82,171.19c-.13-.1-.24-.21-.38-.3-.06-.04-.11-.1-.17-.13-.02,0-.03-.03-.05-.04-.52-.39-1.04-.78-1.57-1.16-.83-.6-1.67-1.16-2.5-1.73-.41.63-.83,1.24-1.24,1.88,2.1,1.43,4.2,2.85,6.3,4.28.14-.18.28-.38.41-.57-.31-.67-.51-1.38-.66-2.11-.05-.04-.1-.08-.14-.12h.01,0Z"/>
        <path class="cls-22" d="M375.94,163.66c-.43.65-.86,1.29-1.3,1.95,1.69,1.15,3.35,2.32,4.92,3.6.1-.03.18-.07.28-.1.37-.08.76-.12,1.14-.12.27,0,.49.1.69.23.18-.26.38-.52.57-.78-2.1-1.6-4.2-3.19-6.3-4.79h0s0,0,0,0Z"/>
        <path class="cls-12" d="M436.65,236.09c5.54,3.53,11.08,7.05,16.63,10.59,6.13-9.24,12.26-18.48,18.39-27.71-10.91-7.9-21.83-15.78-32.74-23.68-6.38,9.41-12.77,18.81-19.14,28.21"/>
        <path class="cls-12" d="M389.04,196.78c6.97,5.46,13.94,10.91,20.91,16.38,5.54-8.81,11.08-17.63,16.63-26.45-7.82-5.96-15.61-11.92-23.43-17.88-2.44,3.11-4.87,6.22-7.31,9.32"/>
        <path class="cls-12" d="M383.5,177.89c3.27-4.71,6.55-9.41,9.82-14.1-5.96-4.37-11.92-8.73-17.88-13.1-3.02,4.2-6.05,8.4-9.07,12.6"/>
        <path class="cls-19" d="M342.94,241.12c-12.93-21.16-25.86-42.32-38.79-63.49,3.02-4.37,6.05-8.73,9.07-13.1,18.14,13.43,36.27,26.87,54.42,40.3-8.23,12.1-16.46,24.18-24.68,36.28h-.01Z"/>
        <path class="cls-12" d="M363.85,174.62c6.13,4.71,12.26,9.41,18.39,14.1"/>
        <path class="cls-12" d="M329.59,147.41c6.3,4.12,12.6,8.23,18.89,12.35,3.86-6.63,7.72-13.27,11.59-19.9-5.38-3.78-10.74-7.55-16.12-11.34l-5.29,8.81"/>
        <path class="cls-12" d="M337.39,122.73c-3.02-2.26-6.05-4.53-9.07-6.81-4.87,6.63-9.74,13.27-14.61,19.9"/>
        <path class="cls-14" d="M307.42,150.18c-4.62,6.72-9.23,13.43-13.86,20.15"/>
        <path class="cls-18" d="M390.49,331.17c1.32,1.07,2.64,2.14,3.96,3.21.63-1.01,1.26-2.02,1.89-3.02-1.35-1.03-2.68-2.06-4.04-3.09-.61.97-1.21,1.93-1.82,2.89h0s0,.01,0,.01Z"/>
        <path class="cls-18" d="M356.48,342.48c1.32,1.07,2.64,2.14,3.96,3.21.63-1.01,1.26-2.02,1.89-3.02-1.35-1.03-2.68-2.06-4.04-3.09-.61.97-1.21,1.93-1.82,2.89h0s0,.01,0,.01Z"/>
        <path class="cls-18" d="M321.12,393.59c1.32,1.07,2.64,2.14,3.96,3.21.63-1.01,1.26-2.02,1.89-3.02-1.35-1.03-2.68-2.06-4.04-3.09-.61.97-1.21,1.93-1.82,2.89h0s0,.01,0,.01Z"/>
        <path class="cls-22" d="M272.25,386.68c1.32,1.07,2.64,2.14,3.96,3.21.63-1.01,1.26-2.02,1.89-3.02-1.35-1.03-2.68-2.06-4.04-3.09-.61.97-1.21,1.93-1.82,2.89h0s0,.01,0,.01Z"/>
        <path class="cls-18" d="M338.74,368.75c1.32,1.07,2.64,2.14,3.96,3.21.63-1.01,1.26-2.02,1.89-3.02-1.35-1.03-2.68-2.06-4.04-3.09-.61.97-1.21,1.93-1.82,2.89h0s0,.01,0,.01Z"/>
        <path class="cls-18" d="M291.3,399.95c1.32,1.07,2.64,2.14,3.96,3.21.63-1.01,1.26-2.02,1.89-3.02-1.35-1.03-2.68-2.06-4.04-3.09-.61.97-1.21,1.93-1.82,2.89h0s0,.01,0,.01Z"/>
        <path class="cls-12" d="M487.28,298.81c-9.65-6.63-19.31-13.27-28.97-19.9"/>
        <path class="cls-12" d="M475.19,314.43c1.26-1.76,2.52-3.53,3.78-5.29"/>
        <path class="cls-12" d="M464.36,329.03c1.43-1.76,2.85-3.53,4.28-5.29"/>
        <path class="cls-18" d="M437.4,317.19c-1.85-1.35-3.7-2.68-5.54-4.04,6.97-9.82,13.94-19.65,20.91-29.47,1.93,1.26,3.86,2.52,5.8,3.78-2.02,2.93-4.04,5.88-6.05,8.81-3.16-.23-5.38.54-5.54,1.52-.14.85,1.23,1.95,3.02,2.77,4.79,3.19,9.58,6.38,14.36,9.58-1.17,2.02-2.35,4.04-3.53,6.05-4.7-2.68-9.41-5.38-14.11-8.06-1.57-2.87-3.23-4.83-4.04-4.53-.83.3-.83,3.02,0,6.55-1.76,2.35-3.53,4.7-5.29,7.05h-.01s0,0,0,0Z"/>
        <path class="cls-12" d="M457.3,341.38c-9.49-6.8-18.97-13.6-28.46-20.4"/>
        <path class="cls-18" d="M409.7,343.65c3.36,2.18,6.72,4.36,10.08,6.55,2.1-2.77,4.2-5.54,6.3-8.32-2.77-2.85-5.54-5.71-8.32-8.57-2.68,3.44-5.38,6.89-8.06,10.33h0s0,.01,0,.01Z"/>
        <path class="cls-12" d="M414.48,400.07c-8.73-6.38-17.47-12.77-26.2-19.14"/>
        <path class="cls-19" d="M256.16,441.89c4.16-5.54,8.32-11.08,12.46-16.63-6.17-4.4-12.35-8.81-18.52-13.23-4.16,6.05-8.32,12.1-12.46,18.14,6.18,3.9,12.35,7.82,18.52,11.71h0Z"/>
        <path class="cls-9" d="M264.1,440.01c1.43,1.21,2.85,2.44,4.28,3.65"/>
        <path class="cls-7" d="M235.53,435.12c-1.99-1.35-3.96-2.7-5.95-4.05"/>
        <path class="cls-13" d="M258.81,450.96c-2.21-1.51-4.43-3.02-6.64-4.52"/>
        <path class="cls-12" d="M428.49,373.13c2.82-4.63,5.63-9.27,8.45-13.89-3.35-3.61-7.35-8.01-11.62-10.45"/>
        <path class="cls-14" d="M421.61,356.51c.41,1.42,1.41,2.67,2.7,3.36"/>
        <path class="cls-14" d="M417.17,363.23l3.77,2.67"/>
        <path class="cls-14" d="M411.4,368.66c.88.76,1.76,1.52,2.64,2.27"/>
        <path class="cls-12" d="M391.7,431.61c1.74-2.29,3.49-4.56,5.23-6.85"/>
        <path class="cls-12" d="M402.01,416.16c1.74-2.29,3.49-4.56,5.23-6.85"/>
        <path class="cls-12" d="M362.62,473.95c1.74-2.29,3.49-4.56,5.23-6.85"/>
        <path class="cls-12" d="M372.94,458.51c1.74-2.29,3.49-4.56,5.23-6.85"/>
        <path class="cls-12" d="M369.13,431.32c5.82,4.89,11.64,9.78,17.44,14.67"/>
        <path class="cls-12" d="M373.78,402.45c5.21,4.26,10.4,8.52,15.61,12.77"/>
        <path class="cls-12" d="M338.25,473.53c5.36,5.2,11.2,9.92,17.41,14.08"/>
        <path class="cls-12" d="M344.68,445.54c4.6,3.73,9.2,7.45,13.82,11.17"/>
        <path class="cls-14" d="M360.82,441.89c2.64,2.14,5.29,4.28,7.93,6.42"/>
        <path class="cls-14" d="M376.7,421.11c2.02,1.52,4.04,3.02,6.05,4.53"/>
        <path class="cls-12" d="M378.58,397.3c1.98-2.7,3.95-5.42,5.93-8.12"/>
        <path class="cls-12" d="M361.82,420.22c1.98-2.7,3.95-5.42,5.93-8.12"/>
        <path class="cls-12" d="M348.41,437.14c1.98-2.7,3.95-5.42,5.93-8.12"/>
        <path class="cls-12" d="M332.92,460.78c1.98-2.7,3.95-5.42,5.93-8.12"/>
        <g class="cls-23">
          <g>
            <path class="cls-19" d="M758.58,183.43c15.38-4.45,30.75-8.9,46.13-13.35,4.43,17.71,8.89,35.43,13.32,53.15-13.27,1.93-26.54,3.86-39.8,5.79-1.2-1.74-2.46-3.5-3.78-5.29-2.11-2.85-4.21-5.54-6.3-8.06-3.19-10.74-6.38-21.49-9.58-32.24h0Z"/>
            <path class="cls-1" d="M541.07,497.48c-.13-3.27-.53-7.89-1.9-13.27-.98-3.87-2.46-9.58-6.42-15.88-.62-.97-3.78-5.89-9.45-10.95-5.97-5.35-8.29-5.11-10.2-8.69-2.3-4.32-.97-8.48.11-14.62,1.41-7.99.79-16.21,1.4-24.3.7-9.51-2.4-24.63-19.27-49.13"/>
            <path class="cls-1" d="M536.91,476.7c2.63-1.14,6.71-3.29,10.59-7.23,5.49-5.6,7.6-11.82,8.69-15.11,2.58-7.85.64-9.17,3.03-13.98.71-1.43,3.11-6.1,14.74-12.1,7.75-3.99,19.84-10.22,35.85-9.6,9.83.39,11.35,2.98,24.61,3.17,9.97.14,9.45-1.32,16.63-.75,12.4.97,14.7,5.4,27.96,6.42,6.99.54,12.43.89,15.88-2.64.82-.83,1.79-2.24,3.4-15.11.92-7.37,1.37-11.1.75-12.85-2.65-7.51-10.82-7.29-11.34-12.85-.08-.9.09-1.38,6.42-12.85,2.47-4.48,3.01-5.46,3.03-7.17.03-3.92-3.07-6.35-6.42-10.2-2.67-3.07-6.09-7.68-9.07-14.36"/>
            <path class="cls-17" d="M701.32,483.4c-1.16.72-2.43,1.29-3.39,2.24-2.23,2.23-2.41,6.26-5.19,7.77-2.33,1.27-5.16.05-7.82-.06-2.09-.1-4.15.54-6.24.55-2.34,0-4.6-.76-6.82-1.52-2.16-.74-4.53-1.64-5.62-3.65-1.63-2.98.64-6.89,3.77-8.23,3.13-1.33,6.7-.8,10.03-.14,3.34.66,6.82,1.41,10.08.48,2.02-.58,3.81-1.77,5.77-2.55,4.53-1.82,12.05.99,5.41,5.14h0s0,0,0,0Z"/>
            <path class="cls-17" d="M827.86,420.74v7.23c-1.72-.35-3.38-1-4.85-1.95-1.49-.98-2.92-2.92-1.9-4.38.67-.95,2.03-1.09,3.18-.95,1.16.14,2.35.46,3.47.08.03-.01.06-.03.09-.04h0Z"/>
            <path class="cls-17" d="M764.61,366.22c1.97,3.91,4.66,8.41,2.67,12.31-1.2,2.36-3.78,3.65-6.31,4.4-8.12,2.39-16.85.66-24.96-1.78-4.95-1.49-10.02-3.36-13.56-7.14-6.47-6.88-5.87-17.81-3.05-26.83,2.13-6.83,5.41-13.52,10.74-18.3,5.33-4.77,13-7.35,19.86-5.29,7.54,2.26,11.04,9.29,10.91,16.71-.16,9.27-.67,17.3,3.67,25.91h.02Z"/>
            <path class="cls-1" d="M679.04,329.53c-19.86-4.67-33.15-1.81-41.62,1.65-9.88,4.05-12.78,8.77-24.95,11.71-13.95,3.38-25.41.86-26.08,3.78-.53,2.36,7.03,3.76,12.29,12.22,1.09,1.76,5.47,8.8,2.82,14.61-.73,1.61-2.15,3.46-6.42,5.67-10.65,5.52-17.14,1.95-25.32,5.29-7.57,3.1-8.64,8.88-14.37,15.34-6.22,7.01-17.72,14.63-41.08,16.05"/>
            <path class="cls-12" d="M743.98,240.11c-2.28-1.98-4.54-3.95-6.82-5.92-1.8-1.57-3.12-3.62-3.81-5.9-2.26-7.57-4.51-15.13-6.77-22.7-.13-.48-.69-2.9.75-5.29,1.09-1.79,2.7-2.53,3.28-2.77,7.47-2.18,14.95-4.37,22.42-6.54"/>
            <path class="cls-12" d="M770.89,243.75c8.33-2.63,16.66-5.27,24.98-7.9"/>
            <path class="cls-14" d="M788.8,263.4c3.45.48,6.89.98,10.34,1.46"/>
            <path class="cls-22" d="M778.01,194.77c.55,3.47,1.55,6.88,2.97,10.09,9.4-2.23,18.14-4.45,26.94-8.42-1.16-3.2-1.63-6.51-2.78-9.71-9.17,2.72-17.97,5.32-27.14,8.04h0Z"/>
            <path class="cls-18" d="M709.21,203.83c4.03,10.04,8.93,19.74,14.64,28.94-1.22,1.44-2.71,2.73-4.57,3.05-11.97-4.04-22.38-11.21-30.76-20.68,3.28-1.52,6.8-3.04,10.08-4.57-.14,1.21,1.35,2.99,2.55,3.04s2.34-.97,2.51-2.16-.53-2.44-1.61-2.98c2.59-1.62,4.57-3.04,7.16-4.66h0s0,.02,0,.02Z"/>
            <path class="cls-12" d="M735.63,106.1c-1.63-4.95-3.26-9.92-4.88-14.86,15.99-5.17,31.99-10.32,47.99-15.5,3.53,10.2,7.05,20.4,10.59,30.6-2.02.63-4.03,1.25-6.04,1.89"/>
            <path class="cls-12" d="M746.75,139.94c-2.34-7.13-4.68-14.28-7.03-21.41"/>
            <path class="cls-12" d="M788.54,125.55c2.01-.65,4.02-1.29,6.03-1.93,2.91,10.03,6.18,20.19,9.6,30.07-16.04,4.88-32.08,9.77-48.1,14.65-1.57-4.76-3.13-9.53-4.7-14.31"/>
            <path class="cls-22" d="M698.86,151.35c1.4,5.04,2.8,10.07,4.2,15.1-2.82,1.79-5.62,3.2-8.97,3.35-1.41-5.04-2.91-10.02-4.32-15.06,3.32-1.69,5.77-1.71,9.08-3.4h0Z"/>
            <path class="cls-14" d="M691.07,132.8c1.01,2.6,2.02,5.21,3.03,7.82"/>
            <path class="cls-14" d="M684,134.57l1.27,4.53"/>
            <path class="cls-12" d="M818.48,273.01c3.66-8.81,7.33-17.63,10.99-26.43-5.89-3.58-11.55-7.49-17.44-11.07"/>
            <path class="cls-22" d="M772.48,212.14c.83,2.44,1.65,4.88,2.47,7.32,5.47-1.85,10.93-3.7,16.39-5.54,8.3,2.93,16.63,5.87,24.93,8.8.9-2.84,1.78-5.7,2.67-8.54-8.28-3.2-16.57-6.4-24.85-9.6-7.21,2.51-14.41,5.04-21.63,7.54h.01Z"/>
            <path class="cls-12" d="M709.96,116.18c-2.77-7.82-5.54-15.61-8.32-23.43"/>
            <path class="cls-12" d="M695.61,95.78c-12.09,1.01-24.18,2.02-36.28,3.03-1.03.43-3.84,1.76-5.67,4.91-2.72,4.68-1.02,9.51-.75,10.2,1.13,6.54,2.27,13.1,3.4,19.65,3.53-.88,7.05-1.76,10.59-2.65"/>
            <path class="cls-12" d="M669.54,148.67c-4.03-.38-8.06-.75-12.09-1.13.06,1.77-.07,4.49-1.13,7.55-1.44,4.19-3.87,6.94-5.29,8.32.46,2.09,3.78,16.41,17.76,23.8,10.88,5.76,21.35,3.68,24.18,3.02,11.35-4.43,22.71-8.87,34.07-13.29-1.66-5.77-3.32-11.54-4.97-17.32"/>
            <path class="cls-15" d="M747.75,100.69c5.41,16.75,10.83,33.51,16.24,50.25,7.68-2.52,15.37-5.04,23.05-7.55-5.29-16.5-10.59-33.01-15.88-49.49-7.82,2.26-15.61,4.53-23.43,6.81h.01Z"/>
            <path class="cls-12" d="M834.29,121.47c-4.28,1.64-8.57,3.28-12.84,4.91-3.03-11.08-6.04-22.17-9.07-33.25,6.17-2.26,12.34-4.53,18.52-6.81"/>
            <path class="cls-18" d="M827.86,178.9v9.6c-2.77-.54-5.55-1.1-8.32-1.67.37-2.63.76-5.28,1.13-7.93h7.19Z"/>
            <path class="cls-12" d="M811.61,285.08c-3.66,3.65-7.31,7.31-10.96,10.95-15.99-12.1-31.99-24.18-47.99-36.27,3.53-4.66,7.05-9.32,10.59-13.98"/>
            <path class="cls-12" d="M660.85,43.24c-.05.24-.64,2.77-3.03,3.78-2.02.85-4.47.26-6.04-1.51-6.8-5.54-13.6-11.08-20.41-16.63,6.3-6.81,12.6-13.6,18.89-20.41"/>
            <path class="cls-18" d="M716.01,43.25c-1.45,2.08-3.66,2.55-4.16,2.63-9.95,2.26-19.89,4.53-29.84,6.79-1.97.44-3.89-.13-4.91-1.51-.63-.85-.75-1.75-.76-2.26-.14-13.85-.26-27.71-.36-41.57h36.04c1.59,9.96,3.16,19.89,4.74,29.84.1.31,1.13,3.35-.76,6.06h.01s0,.01,0,.01Z"/>
            <path class="cls-18" d="M770.05,30.78c-2.08,2.63-5.26,2.65-5.66,2.65-8.32,2.63-16.64,5.29-24.95,7.92-1.84,1.22-4.21,1.01-5.66-.37-1.18-1.13-1.61-2.9-1.15-4.53-1.28-9.71-2.57-19.41-3.85-29.1h36.63c1.8,5.29,3.58,10.59,5.39,15.86,1.21,2.52.91,5.47-.75,7.56h0Z"/>
            <path class="cls-18" d="M826.37,7.36c-10.21,5.55-20.41,11.07-30.64,16.63-.68.22-2.3.62-4.15,0-3.38-1.1-4.43-4.56-4.55-4.91l-4.52-11.72h43.86Z"/>
            <path class="cls-12" d="M637.8,65.92c3.66-.38,7.31-.75,10.96-1.13"/>
            <path class="cls-12" d="M665.38,20.58c.13,2.39.24,4.78.38,7.17"/>
            <path class="cls-12" d="M514.99,126c-.51,7.68-1.01,15.37-1.52,23.05-12.35-1.13-24.68-2.26-37.03-3.4"/>
            <path class="cls-12" d="M481.36,123.35c.38-7.43.75-14.86,1.13-22.29,12.22.63,24.44,1.25,36.65,1.89"/>
            <path class="cls-12" d="M464.36,95.78c-10.95-3.78-21.92-7.56-32.87-11.33-2.27,5.42-4.53,10.83-6.8,16.25"/>
            <path class="cls-12" d="M459.07,120.33c-4.04,5.54-8.06,11.08-12.1,16.63-7.31-4.66-14.61-9.32-21.92-13.98"/>
            <path class="cls-12" d="M407.68,94.26c-2.77,3.39-5.54,6.81-8.32,10.2-9.7-7.31-19.39-14.61-29.09-21.92"/>
            <path class="cls-12" d="M417.5,75.74c-12.1-8.69-24.18-17.38-36.27-26.08-4.16,5.54-8.32,11.08-12.46,16.63"/>
            <path class="cls-14" d="M492.71,117.19c3.64.46,7.29.9,10.93,1.36"/>
            <path class="cls-12" d="M511.23,115.88c3.02.22,6.03.46,9.05.69"/>
            <path class="cls-12" d="M559.2,115.78c1.76.25,3.53.5,5.29.75"/>
            <path class="cls-12" d="M461.74,111.89c2.01.41,4.02.82,6.02,1.24"/>
            <path class="cls-12" d="M411.08,89.35l3.78,3.03"/>
            <path class="cls-12" d="M398.93,82.52l1.89-3.03"/>
            <path class="cls-12" d="M541.82,29.65c-.06,8.94-.13,17.89-.18,26.83"/>
            <path class="cls-12" d="M541.67,50.81c-7.11.87-16.79,1.53-28.2.75-3.77-.26-20.6-1.56-41.94-9.07-26.92-9.47-47.46-24.04-61.21-35.9"/>
            <path class="cls-12" d="M408.82,13.77c3.02-2.39,6.05-4.78,9.07-7.18"/>
            <path class="cls-12" d="M446.98,37.96c4.04-7.56,8.06-15.11,12.1-22.67"/>
            <path class="cls-12" d="M497.23,55.72c1.13-9.45,2.27-18.89,3.39-28.34"/>
            <path class="cls-18" d="M546.79,7.36c-.14,2.77-.28,5.55-.42,8.32-7.18-.39-14.36-.76-21.54-1.15.08-2.39.15-4.77.22-7.18h21.74Z"/>
            <path class="cls-14" d="M525.95,41.3l3.03.37"/>
            <path class="cls-14" d="M525.95,31.93c1.57-.59,3.34-.62,4.92-.07"/>
            <path class="cls-14" d="M511.97,28.89v3.78"/>
            <path class="cls-22" d="M498.72,12.68c1.51,1.27,3.02,2.53,4.52,3.8-.51-2.77-.58-5.98-1.08-8.75-.27,2.16-1.32,4.41-3.43,4.95h-.01Z"/>
            <path class="cls-22" d="M497.2,14.56l3.77,3.79c-3.21.43-6.51.28-9.39-1.2,2.04-.38,4.27-1.01,5.62-2.57h0s0-.01,0-.01Z"/>
            <path class="cls-22" d="M481.45,25.86c.23,3.53.48,7.05.72,10.59-.31-1.36,2.48-3.01,3.52-2.08s.11,3.03-1.27,2.9c.24.46.45,1.63.69,2.08,1.27-.21,2.55-.41,3.81-.62.14-2.26-.14-4.16,0-6.42-3.49.77-7.8-2.87-7.48-6.43,0,0,.01,0,.01,0Z"/>
            <path class="cls-22" d="M479.2,31.17c-.26,1.51-.52,3.01-.77,4.53-.89-2.02-3.16-3.03-5.36-2.99v-3.45c1.89.5,4.25,1.41,6.14,1.91,0,0-.01,0-.01,0Z"/>
            <path class="cls-22" d="M487.75,10.72c-1.13,1.76-2.27,3.53-3.39,5.29-2.13-.42-4.11-1.46-5.63-3.01,3.5.65,6.45.16,9.03-2.28h-.01Z"/>
            <path class="cls-22" d="M478.34,7.73c-1.13,1.39-2.27,2.77-3.39,4.16-2.3-1.05-4.3-2.78-5.7-4.89,3.27,1.08,5.73,1.44,9.11.73,0,0-.01,0-.01,0Z"/>
            <path class="cls-22" d="M442.21,7.36c1.71,2.47,3.92,4.45,6.57,6.05.13-2.61,1.92-5.03,4.33-6.05h-10.9Z"/>
          </g>
        </g>
        <g class="cls-26">
          <g>
            <path class="cls-2" d="M257.29,499.7c-29.73-22.55-59.45-45.09-89.18-67.64,16.88-23.93,33.76-47.86,50.63-71.79,37.15,25.94,74.31,51.89,111.47,77.83-13.98,20.4-27.96,40.8-41.94,61.21"/>
            <path class="cls-2" d="M247.46,497.48c-80.36-60.73-160.71-121.44-241.07-182.17"/>
            <path class="cls-2" d="M166.98,323.62c15.99,11.21,31.99,22.42,47.99,33.63-16.63,24.18-33.25,48.36-49.88,72.55-50.51-38.04-101.02-76.08-151.52-114.11,12.73-19.27,25.44-38.54,38.16-57.82.73-1.96,1.46-4.68,1.51-7.93.13-7.78-3.7-13.41-5.29-15.49-14.1-9.66-28.19-19.35-42.3-29.01"/>
            <path class="cls-2" d="M5.26,309.64c1.39,1.01,2.77,2.02,4.16,3.02,12.84-18.89,25.69-37.79,38.54-56.68.62-1.63,1.82-5.45.94-10.2-1.03-5.57-4.26-9.02-5.47-10.2-12.22-8.44-24.44-16.88-36.65-25.32"/>
            <path class="cls-2" d="M286.77,143.76c-42.57-30.36-85.14-60.71-127.72-91.07-3.15,2.03-6.79,4.1-10.96,6.04-6.98,3.26-13.48,5.21-18.89,6.43-7.04,1.53-14.1,3.03-21.17,4.53-33.95,7.22-67.71,14.15-101.27,20.79"/>
            <path class="cls-2" d="M288.38,140.46c-42.23-30.26-84.46-60.53-126.69-90.79,3.84-4.01,7.77-8.42,11.71-13.23,3.21-3.91,5.46-6.91,6.8-8.69,5.79-7.69,12.61-16.75,20.79-27.59"/>
            <path class="cls-2" d="M6.39,86.71c27.86-4.82,56.49-10.32,85.77-16.63,14.73-3.17,29.21-6.44,43.45-9.82,3.35-.9,7.29-2.24,11.5-4.24,3.29-1.56,6.13-3.23,8.52-4.83"/>
            <path class="cls-2" d="M157.91,48.16c3.74-4.01,7.54-8.28,11.34-12.85,8.54-10.26,15.78-20.33,21.92-29.85"/>
            <path class="cls-2" d="M187.39,5.84c-8.69,11.09-17.38,22.17-26.07,33.25-1.69,2.24-3.91,4.74-6.8,7.17-6.43,5.42-13.07,7.88-17.38,9.07-18.59,4.87-37.88,9.55-57.82,13.98-24.97,5.55-49.19,10.29-72.56,14.36"/>
            <path class="cls-2" d="M318.5,104.46c55.19,38.68,110.36,77.36,165.55,116.04"/>
            <path class="cls-2" d="M485.87,217.8c-54.74-38.66-109.48-77.33-164.23-116"/>
            <path class="cls-2" d="M523.68,88.21c1.38.85,4.93,3.28,6.8,7.93,1.03,2.58,1.17,4.92,1.13,6.43.17,9.52-.51,22.03-3.78,36.27-3.19,13.91-7.89,25.24-12.09,33.63-7.11,10.96-14.29,21.9-21.54,32.87-52.88,80.01-106.93,156.55-161.73,229.74-54.79-38.42-109.58-76.83-164.37-115.24"/>
            <path class="cls-2" d="M292.81,500.08c16.43-23.23,37.75-53.33,53.15-75.07,75.22-106.14,115.33-162.35,166.76-241.21,2.79-4.28,5.04-7.75,6.38-9.81,4.63-8.94,9.74-20.9,13.27-35.54,3.96-16.39,4.67-30.89,4.34-41.95-.08-2.57,1.18-5.04,3.42-6.27.02,0,.04-.02.05-.03,2.81-1.53,5.49-1.38,6.54-1.25"/>
            <path class="cls-2" d="M512.34,87.84c-1.32,1.01-3.74,2.6-7.17,3.39-3.84.9-7.03.39-8.69,0-10.15-1.43-21.7-3.83-34.14-7.82-24.08-7.71-42.86-18.61-56.17-27.96-.83-.51-2.57-1.75-3.78-4.03-1.06-1.99-1.23-3.82-1.26-4.78"/>
            <path class="cls-2" d="M397.6,44.39c0,1.58.23,4.44,1.76,7.56,1.11,2.24,2.51,3.82,3.53,4.78,9.58,7.11,21.98,15.02,37.29,21.92,22.09,9.96,42.26,14.22,57.18,16.12,2.44.15,6.23.1,10.58-1.25,3.39-1.06,6.02-2.56,7.82-3.78"/>
            <path class="cls-2" d="M515.75,79.9c-.76-.51-1.97-1.28-3.53-2.02-4.2-2-7.85-2.4-8.82-2.51-4.36-.53-27.42-4.15-40.3-8.32,0,0-16.17-5.24-48.86-24.96-.71-.42-2.95-1.81-6.05-1.99-1.36-.08-2.49.08-3.27.24"/>
            <path class="cls-2" d="M520.28,79.64c-1.7-1.45-4.21-3.28-7.55-4.78-3.45-1.56-6.57-2.21-8.81-2.52-11.19-1.21-24.93-3.69-40.05-8.81-21.48-7.28-37.99-17.26-49.37-25.44-1.33-.53-3.32-1.12-5.8-1.26-2.84-.15-5.14.37-6.6.83"/>
            <path class="cls-2" d="M371.16,23.73c-8.57-5.88-17.13-11.76-25.7-17.64"/>
            <path class="cls-2" d="M353.52,6.09c6.55,4.7,13.1,9.41,19.65,14.1"/>
            <path class="cls-2" d="M378.46,20.2c-6.63-4.7-13.27-9.41-19.9-14.1"/>
            <path class="cls-2" d="M370.15,26.5c-9.49-6.3-18.97-12.6-28.46-18.89"/>
            <path class="cls-2" d="M556.81,79.15c.24-.21.48-.41.73-.62,2.58-2.16,4.04-5.36,4.03-8.72-.08-20.74-.16-41.47-.23-62.21"/>
            <path class="cls-2" d="M569.89,79.15c-.24-.21-.48-.41-.73-.62-2.58-2.16-4.04-5.36-4.03-8.72.08-20.74.16-41.47.23-62.21"/>
            <path class="cls-2" d="M830.88,333.57c-29.03-21.58-52.34-39.42-68.77-52.14-16.28-12.59-33.48-26.12-61.97-47.86-10.96-8.36-20.03-15.24-26.2-19.9.13-.9.26-2.71-.51-4.79-.84-2.32-2.32-3.71-3.03-4.28-5.47-3.27-14.16-9.43-21.41-19.9-2.42-3.49-7.6-11.13-10.08-22.16-3.55-15.88-1.84-40.51-2.52-49.37-.08-1.07-.31-3.4-1.76-5.79-1.06-1.74-2.38-2.87-3.28-3.53-.24-8.99-.51-17.97-.75-26.95-.22-1.05-.65-2.49-1.52-4.04-.66-1.18-1.39-2.1-2.02-2.77-1.68-21.5-3.35-42.99-5.03-64.49"/>
            <path class="cls-2" d="M829.87,329.03c-6.29-4.59-12.59-9.2-18.89-13.86-32.47-23.95-64.11-48.07-94.96-72.27-1.48-1.16-3.28-1.85-5.17-1.96-.38-.02-.76-.04-1.15-.07"/>
            <path class="cls-2" d="M828.87,324.75c-29.84-21.55-59.93-44.13-90.18-67.77-7.14-5.57-14.21-11.15-21.22-16.74-2.13-1.7-4.72-2.75-7.46-2.9-.1,0-.2,0-.3,0-1.67-.07-3.15.03-4.38.2"/>
            <path class="cls-2" d="M828.87,335.33c-19.48-14.76-38.97-29.55-58.44-44.33-32.45-24.65-64.85-49.34-97.24-74.05-1.71-1.3-7.16-4.71-13.6-10.32-2.27-1.98-11.27-9.85-17.38-18.65-9.02-12.98-10.34-26.02-12.6-48.12-.84-8.24-1.58-19.79-1.01-33.76.79.61,2.46,2.04,3.52,4.51,1.03,2.42.95,4.57.84,5.56-.2,3.83-.36,9.31-.16,15.87.29,9.96.52,18.07,2.87,27.97,1.85,7.76,4.9,20.6,13.78,30.6,2.18,2.45,6.49,6.76,11.41,10.96,3.02,2.6,5.65,4.63,7.55,6.04.34.21,2.73,1.71,3.07,4.57.16,1.35-.22,2.51-.55,3.26"/>
            <path class="cls-2" d="M829.12,339.11c-52.72-41.63-83.21-64.09-101.77-77.08-20.02-14.01-38.91-29.57-58.69-43.93-1.64-1.18-6.7-4.86-12.86-10.48-5.95-5.43-10.34-10.35-13.09-13.6,0,0-3.88-4.88-7.05-10.08-10.98-18.01-10.57-57.79-11.09-96.74-.09-6.89-.2-12.4-.24-15.37-.41-3.58-.8-7.18-1.17-10.8-.7-6.78-2.34-21.35-4.12-54.7"/>
            <path class="cls-2" d="M628.52,108.62c-.31-9.92-.62-19.82-.91-29.73-.24-1.5-.73-3.45-1.76-5.54-.53-1.07-1.1-1.99-1.65-2.76"/>
            <path class="cls-2" d="M736.16,64.53c.48-.88,1.22-1.96,2.27-3.03,1.83-1.85,3.8-2.8,5.03-3.28,9.52-2.63,19.46-5.71,29.73-9.31,21.37-7.53,40.36-16.08,56.92-24.68"/>
            <path class="cls-2" d="M830.13,20.7c-11.84,6.3-25.12,12.66-39.8,18.64-18.23,7.43-35.38,12.97-50.89,17.13-1.44.6-3.64,1.73-5.79,3.78-2.34,2.24-3.63,4.57-4.28,6.04"/>
            <path class="cls-2" d="M769.67,63.28c1.46.75,4.35,1.98,8.06,1.76,1.64-.1,3.03-.44,4.09-.82,9.08-3.01,18.67-6.56,28.66-10.77,7.01-2.95,13.65-6,19.9-9.07"/>
            <path class="cls-2" d="M830.38,41.1c-6.85,3.72-14.49,7.51-22.92,11.08-9.96,4.23-19.36,7.51-27.96,10.08-1.1.04-2.28.04-3.53,0s-2.43-.13-3.53-.24"/>
            <path class="cls-2" d="M88.77,429.8c-16.89,23.51-33.76,47.02-50.63,70.54"/>
            <path class="cls-2" d="M33.85,500.83c17.55-24.35,35.11-48.7,52.64-73.05"/>
            <path class="cls-2" d="M29.56,500.08c-8.15-8.98-16.28-17.98-24.44-26.95"/>
            <path class="cls-2" d="M25.28,499.58c-6.38-6.8-12.77-13.6-19.15-20.4"/>
            <path class="cls-2" d="M5.89,444.92c18.38-8.4,36.78-16.79,55.17-25.19,1.34-.49,3.04-1,5.03-1.26,3.11-.41,5.74-.11,7.56.24"/>
            <path class="cls-2" d="M5.89,449.2c30.05-14.49,52.2-24.8,56.68-26.45,2.52-.92,5.03-1.26,5.03-1.26,1.6-.23,3.6-.35,5.86-.15,1.36.11,2.57.33,3.64.58"/>
            <path class="cls-2" d="M527.33,88.47c.8.31,2.05.89,3.28,2.02,1.42,1.29,2.16,2.69,2.52,3.53.62-.96,1.66-2.31,3.28-3.53,2.16-1.64,4.3-2.25,5.54-2.52"/>
          </g>
        </g>
        <g class="cls-25">
          <g>
            <path class="cls-8" d="M88.77,429.8C184.16,293.48,279.56,157.15,374.95,20.82"/>
            <path class="cls-11" d="M370.3,27.46c17.67,12.84,33.39,22.16,45.15,28.57,22.35,12.16,45.24,24.38,77.2,29.91,10.22,1.77,18.77,2.4,24.49,2.65,40.85-.11,86.79-1.54,136.11-5.31,40.4-3.09,76.05-7.21,118.65-21.5,1.33-.44,2.42-.81,3.16-1.07,26.84-9.24,46.35-18.75,59.1-25.67"/>
            <path class="cls-11" d="M335.48,77.01c13.07-19.15,26.11-38.29,39.18-57.44,12.46,9.56,32.05,23.6,55.69,36.54,0,0,27.7,15.08,50.61,20.43.61.14,1.11.25,1.54.35,4.07.89,7.92,1.57,11.52,2.08,12.38,1.77,25.51,1.7,25.51,1.7,97.42-.43,140.57-5.67,140.57-5.67,40.51-4.92,64.71-7.86,97.87-17.76,24.97-7.47,46.21-16.25,63.26-24.36,7.23-3.45,13.24-6.56,17.6-8.89"/>
            <path class="cls-8" d="M191.93,505.74c-63.35-47.99-126.71-95.98-190.07-143.96"/>
          </g>
        </g>
        <g class="cls-24">
          <g>
            <path class="cls-6" d="M81.12,409.41c-.65-5.8.62-9.44,1.99-11.73,1.1-1.86,2.35-2.95,2.41-5.04.04-1.34-.41-2.79-3.54-6.67-2.96-3.67-4.43-5.49-7.18-7.55-3.85-2.89-6.82-5.13-10.96-4.91-.78.04-5.25.35-8.32,4.16-3.6,4.47-2.14,9.92-1.99,10.47"/>
            <g>
              <circle class="cls-17" cx="81.12" cy="409.41" r="1.27"/>
              <circle class="cls-17" cx="70.54" cy="402.1" r="1.27"/>
              <circle class="cls-17" cx="59.95" cy="393.92" r="1.27"/>
              <circle class="cls-17" cx="53.53" cy="388.12" r="1.27"/>
              <circle class="cls-17" cx="57.4" cy="376.04" r="1.27"/>
              <circle class="cls-17" cx="69.26" cy="375.15" r="1.27"/>
              <circle class="cls-17" cx="79.84" cy="382.96" r="1.27"/>
              <circle class="cls-17" cx="85.5" cy="393.92" r="1.27"/>
              <circle class="cls-17" cx="90.29" cy="416.34" r="1.27"/>
              <circle class="cls-17" cx="33.07" cy="373.48" r="1.27"/>
              <circle class="cls-17" cx="22.5" cy="366.18" r="1.27"/>
              <circle class="cls-17" cx="11.92" cy="357.98" r="1.27"/>
              <circle class="cls-17" cx="42.26" cy="380.41" r="1.27"/>
              <circle class="cls-17" cx="131.7" cy="447.75" r="1.27"/>
              <circle class="cls-17" cx="121.12" cy="440.44" r="1.27"/>
              <circle class="cls-17" cx="110.54" cy="432.25" r="1.27"/>
              <circle class="cls-17" cx="100.15" cy="423.92" r="1.27"/>
              <circle class="cls-17" cx="142.15" cy="455.95" r="1.27"/>
              <circle class="cls-17" cx="194.21" cy="496.85" r="1.27"/>
              <circle class="cls-17" cx="183.4" cy="487.99" r="1.27"/>
              <circle class="cls-17" cx="162.96" cy="472.07" r="1.27"/>
              <circle class="cls-17" cx="152.37" cy="464.76" r="1.27"/>
              <circle class="cls-17" cx="172.13" cy="479" r="1.27"/>
            </g>
            <path class="cls-6" d="M6.65,353.22c63.65,48.79,127.3,97.57,190.95,146.36"/>
          </g>
        </g>
        <g class="cls-29">
          <g>
            <path class="cls-12" d="M6.77,125.25c3.28,2.14,6.54,4.28,9.82,6.42,5.17-7.68,10.32-15.37,15.5-23.05,8.19,5.54,16.38,11.08,24.56,16.63,5.54-7.68,11.08-15.37,16.63-23.05,7.82,5.79,15.61,11.59,23.43,17.38-5.29,7.93-10.58,15.88-15.88,23.8-3.28-2.26-6.54-4.53-9.82-6.8"/>
            <path class="cls-12" d="M330.97,497.48c-5.8-3.16-11.59-6.33-17.38-9.49"/>
            <path class="cls-12" d="M304.52,497.48c6.79-9.05,13.57-18.08,20.35-27.14"/>
          </g>
        </g>
        <g class="cls-28">
          <path class="cls-5" d="M44.69,254.73c-9.65,13.69-19.31,27.37-28.97,41.07-.1.2-.97,1.71-2.77,2.02-1.41.23-2.87-.34-3.78-1.52-1.76-1.26-3.53-2.52-5.29-3.78"/>
        </g>
      </g>
      <g id="_Йеппи" data-name=" Йеппи">
        <g class="cls-27">
          <g>
            <path class="cls-21" d="M134.47,164.19c-2.53.39-4.45,2.55-4.56,5.15-.12,2.6.87,4.96,1.73,6.73,1.13,2.3,2.63,4.77,4.22,7.41.36.6.73,1.21,1.09,1.81-.85.45-1.72.66-2.68.68-2.42.04-5.3-1.24-8.57-3.83-3.48-2.75-3.89-3.12-4.46-3.63-.21-.18-.44-.4-.82-.72l-3.04,3.52c.33.29.54.48.73.65.64.57,1.1,1,4.71,3.84,4.14,3.26,8.02,4.89,11.54,4.83,1.75-.03,3.4-.46,4.93-1.3.45.8.87,1.6,1.24,2.4,2.68,5.46,2.62,8.15,2.6,8.18v-.05l4.65.37c.03-.38.2-3.88-3.08-10.55-.57-1.18-1.21-2.35-1.87-3.52.75-1.24,1.4-3.05,1.54-5.74.15-2.91-.36-6.13-1.43-9.08-2.71-7.42-7.18-7.34-8.48-7.13M138.58,172.92c1.05,2.9,1.3,5.73,1.09,7.87-1.47-2.43-2.85-4.73-3.85-6.76-.66-1.35-1.33-2.93-1.26-4.47,0-.24.1-.45.26-.57.1-.1.21-.15.36-.18.33-.05.75.13,1.2.49.57.49,1.43,1.51,2.21,3.63"/>
            <path class="cls-10" d="M135.91,172.61c-.1.4.08.85.43,1.08s.84.21,1.16-.02c.34-.24.49-.7.38-1.1"/>
            <path class="cls-20" d="M140.66,172.09c0,.48.57.87,1.26.87s1.26-.39,1.26-.87-.57-.87-1.26-.87-1.26.39-1.26.87"/>
            <path class="cls-20" d="M130.1,172.09c0,.48.57.87,1.26.87s1.26-.39,1.26-.87-.57-.87-1.26-.87-1.26.39-1.26.87"/>
            <path class="cls-10" d="M130.71,169.54c.37.62,1.2,1.05,2.05,1.08s1.72-.35,2.15-.93"/>
            <path class="cls-10" d="M138.3,169.54c.37.62,1.2,1.05,2.05,1.08s1.72-.35,2.15-.93"/>
            <path class="cls-10" d="M144.38,178.61c2.09.24,4.27-.41,5.9-1.75,1.13-.93,1.99-2.2,2.46-3.57.45-1.3.18-2.9,1.18-3.96"/>
            <path class="cls-10" d="M133.94,180.12c-2.09.24-4.27-.41-5.9-1.75-1.13-.93-1.99-2.2-2.46-3.57-.44-1.3-.18-2.9-1.18-3.96"/>
            <path class="cls-10" d="M151.04,200.32c-.1-.15-.27-.26-.45-.33-.26-.12-.54-.15-.84-.15s-.57,0-.85-.06c-.13-.02-.24-.06-.35-.13-.07-.05-.13-.13-.15-.21v-.02c-.02-.06-.08-.1-.15-.1h-.43c.2,0,.35-.15.35-.35v-.41c0-.2-.15-.35-.35-.35h-4.74c-.2,0-.35.15-.35.35v.41c0,.2.15.35.35.35-.2,0-.35.15-.35.35v1.83c0,.2.15.35.35.35h7.72c.2,0,.35-.15.35-.35v-.73c0-.18,0-.29-.1-.45h-.02,0Z"/>
            <path class="cls-10" d="M114.97,183.47c.18.03.37-.03.54-.1.25-.12.47-.31.68-.51s.39-.41.63-.57c.11-.07.21-.15.34-.16.08-.02.18,0,.25.02h.02c.06.03.14,0,.18-.03l.29-.32c-.14.15-.13.37.02.49l.3.28c.14.13.37.13.5-.02l3.22-3.49c.14-.15.13-.37-.02-.49l-.3-.28c-.14-.13-.37-.13-.5.02.14-.15.13-.37-.02-.49l-1.35-1.24c-.14-.13-.37-.13-.5.02l-5.24,5.66c-.14.15-.13.37.02.51.18.16.36.33.54.49.14.13.21.2.39.23h.01Z"/>
          </g>
        </g>
      </g>
    </g>
  </g>
</svg>