<svg width="820" height="461" viewBox="0 0 820 461" fill="none" xmlns="http://www.w3.org/2000/svg">
<g clip-path="url(#clip0_71_937)">
<path d="M820 0H0V461H820V0Z" fill="white" stroke-miterlimit="10"/>
<mask id="mask0_71_937" style="mask-type:luminance" maskUnits="userSpaceOnUse" x="0" y="0" width="820" height="461">
<path d="M820 0H0V461H820V0Z" fill="white"/>
</mask>
<g mask="url(#mask0_71_937)">
<path d="M820 0H0V490.1H820V0Z" fill="#C8D2D3"/>
<path d="M820 343.1V490.1H380.7C387.4 481.1 395.2 470.8 404.1 459.5C410.6 451.3 463.4 393.8 485.2 358.2C493.5 344.6 504.9 332.9 512.4 318.9C512.8 318.2 514 315.9 516.4 313.9C519.8 311.1 523.7 310.2 526.5 309.9C530.6 304.7 536.6 296.8 543.6 286.7C553.2 273 554.4 269.8 560.2 264C567.8 256.4 576.4 247.8 588.4 246.9C598.4 246.1 603.3 251.1 616.1 248.4C620 247.5 623.6 246.1 626.2 245.1C631.3 243.1 635.4 240.7 643.5 236.2C653.9 230.3 657.9 227.4 660.2 225.7C662.3 224.1 664 222.7 665.1 221.7C716.8 262.1 768.4 302.6 820 343.1Z" fill="#EAEEED"/>
<path d="M173.1 490.1H0V358.1C57.7 402.1 115.4 446.1 173.1 490.1Z" fill="#EAEEED"/>
<path d="M561.5 144.6C559.2 148.6 556.2 151.2 554.2 152.7C545 157.6 535.9 162.5 526.7 167.3C524.9 168.1 522 169.1 518.4 169.3C516.2 169.4 514.2 169.2 512.7 168.9C512.6 168.9 512.5 168.9 512.4 168.8C510.1 167.5 507.8 166.2 505.4 164.8C501.3 162.4 497.1 160.1 492.9 157.7C484.6 159.1 468.8 160.5 450.8 154.4C440 150.7 431.8 145.5 426.4 141.3C394.9 118.7 363.4 96.1 331.9 73.5C328.2 70.8 324.4 68.2 320.7 65.5C316.1 62.2 311.6 58.9 307 55.7C312.5 47.4 317.9 39.1 323.4 30.8C310.6 21.7 297.9 12.5 285.1 3.4C225.9 88 166.7 172.5 107.5 257.1C107 256.7 106.6 256.3 106.1 256C104.1 258.6 102.1 261.3 100.1 264C103.3 266.1 106.4 268.3 109.5 270.4C111.4 268.2 113.3 266.1 115.2 263.9C114.3 263.2 113.4 262.4 112.5 261.7C162.9 190.7 213.3 119.6 263.6 48.6C279.1 59.6 294.7 70.6 310.2 81.6C314.1 84.4 317.9 87.1 321.8 89.8C374.7 127.3 427.7 164.8 480.6 202.3C483 204 485.3 205.6 487.6 207.3C497.6 214.3 507.5 221.4 517.4 228.4C519 230.5 523.2 236.8 523.4 245.8C523.6 254.1 520.3 260.1 518.9 262.4C465.3 338.4 411.6 414.3 358 490.3H171.5C114.4 447.7 57.2 405.3 0 362.8V0H562.5C563 22 563.5 44 563.9 65.9C564 72.1 564.2 78.2 564.3 84.4C564.6 98.8 564.9 113.3 565.2 127.7C565.5 130.5 565.7 137.5 561.5 144.6Z" fill="#F6F5F3"/>
<path d="M820 -9.76548e-05V347C797.2 329.7 774.4 312.4 751.6 295.1C751.9 293.5 752.3 291.9 752.6 290.2C702.5 252.8 665.6 223.8 647.6 210.4C647.6 210.4 625.3 193.7 617 174.1C614.1 167.2 612.5 160.7 611.7 155.2C610.7 131.3 609.8 107.5 608.8 83.5999C608.5 77.3999 608.3 71.0999 608 64.7999C607.1 43.1999 606.2 21.4999 605.4 -0.100098L820 -9.76548e-05Z" fill="#F6F5F3"/>
<path d="M659.2 226.3C656.4 229 652.9 232.1 648.5 235C641.6 239.5 635 242.1 630 243.5C639.7 237.8 649.4 232.1 659.2 226.3Z" fill="#EAEEED"/>
<path d="M555.5 66.1001C577.9 65.6001 600.3 65.1001 622.8 64.6001C622.4 70.9001 622 77.2001 621.7 83.5001C598.7 83.9001 575.6 84.3001 552.5 84.6001C553.5 78.5001 554.5 72.3001 555.5 66.1001Z" fill="#F6F5F3"/>
<path d="M303.8 91.4C311 80.4 318.2 69.5 325.3 58.5C329.2 60.8 333.1 63 337 65.3C330.2 76.3 323.4 87.2 316.6 98.2C312.4 96 308.1 93.7 303.8 91.4Z" fill="#F6F5F3"/>
<path d="M473.9 212.7C485.1 195.7 496.3 178.7 507.5 161.7C509.9 163.1 512.3 164.5 514.7 165.9C503.5 183.2 492.3 200.4 481.1 217.7C478.6 216 476.2 214.4 473.9 212.7Z" fill="#F6F5F3"/>
<path d="M172.7 0C165.1 10.2 157.5 20.4 149.9 30.6C147.8 32.5 145.4 34.4 142.6 36.3C132.6 43 123 45 118.9 45.9C104.5 48.9 60.3 58.6 0 70.9V0H172.7Z" fill="#EAEEED"/>
<path d="M63.9 0C62.3 3.5 59.1 9.3 52.9 13.6C50.6 15.2 48.4 16.3 46.5 17C38.5 11.3 30.5 5.6 22.5 0H63.9Z" fill="#F6F5F3"/>
<path d="M140.5 386C140.3 386.1 140 386.2 139.7 386.2C139.2 386.2 138.8 385.7 138.6 385.3C137.4 383.1 137.7 380.2 139.2 378.1C140.7 376.1 143.3 374.9 145.8 374.9C147 374.9 148.3 375.1 149.1 376.1C154.2 382.1 143.8 384.6 140.5 386Z" fill="#C8D2D3"/>
<path d="M280.6 -9.76548e-05C272.1 12.4999 263.5 24.9999 255 37.4999C246.1 31.5999 237.2 25.7999 228.4 19.8999C229.5 17.9999 230.5 16.1999 231.6 14.2999C223.2 9.4999 214.9 4.6999 206.5 -0.100098L280.6 -9.76548e-05Z" fill="#F0F0F0"/>
<path d="M92.1999 244.1C112.6 259.2 133.1 274.3 153.5 289.5C137.6 311.3 121.7 333.1 105.8 354.9C77.4999 335.4 49.1999 315.9 20.8999 296.3C37.9999 271.9 55.1999 247.6 72.2999 223.2C79.8999 228.3 87.3999 233.4 94.9999 238.6C94.0999 240.4 93.0999 242.3 92.1999 244.1Z" fill="#F0F0F0"/>
<path d="M97.5 96.3001C104.2 88.2001 110.8 80.2001 117.5 72.1001C124.8 77.5001 132.1 82.9001 139.4 88.3001C133.4 96.7001 127.3 105.2 121.3 113.6" stroke="#F0F0F0" stroke-width="4.12" stroke-miterlimit="10"/>
<path d="M23.7998 136C27.4998 138.3 31.0998 140.5 34.7998 142.8C36.5998 139.9 38.2998 137 40.0998 134.1" stroke="#F0F0F0" stroke-width="4.12" stroke-miterlimit="10"/>
<path d="M95.2998 191.6C107.6 174.7 120 157.8 132.3 141C140.1 147.3 147.9 153.6 155.7 159.9C144.4 176.4 133 192.9 121.7 209.4C112.9 203.4 104.1 197.5 95.2998 191.6Z" fill="#F0F0F0"/>
<path d="M197.1 104.2C195.5 101.5 194.5 98.0998 194.8 94.9998C194.9 93.8998 195.2 92.7998 195.8 91.7998C189.9 86.9998 184.1 82.0998 178.2 77.2998C165.6 93.9998 152.9 110.6 140.3 127.3C148.6 133 156.8 138.7 165.1 144.3C175.8 131 186.5 117.7 197.2 104.5C197.2 104.4 197.2 104.3 197.1 104.2Z" fill="#F0F0F0"/>
<path d="M143.6 157.9C148.8 150.1 153.9 142.3 159.1 134.5" stroke="#F0F0F0" stroke-width="4.12" stroke-miterlimit="10"/>
<path d="M156.5 150.4C150 145.7 143.4 141.1 136.9 136.4" stroke="#F0F0F0" stroke-width="4.12" stroke-miterlimit="10"/>
<path d="M47.6001 233.7C50.5001 229.4 53.4001 225.1 56.3001 220.8C60.5001 219.5 64.6001 218.3 68.8001 217C73.1001 211.3 77.4001 205.7 81.6001 200C81.9001 199.6 82.9001 197.9 85.0001 197.4C87.1001 196.8 89.4001 197.5 91.0001 199.3C99.7001 205.6 108.4 211.9 117.1 218.2" stroke="#C8D2D3" stroke-width="0.52" stroke-miterlimit="10"/>
<path d="M124 136.8C104.7 162.7 85.4 188.7 66.2 214.6C63.8 215 59.6 215.9 55.2 218.7C50.8 221.6 48.2 225 46.9 227C31.3 217.8 15.7 208.5 0 199.3V163.1C41.3 154.4 82.6 145.6 124 136.8Z" fill="#F0F0F0"/>
<path d="M90.7002 147.4C85.5002 154.5 80.4002 161.5 75.2002 168.6C77.7002 170 80.2002 171.4 82.8002 172.8C87.7002 165.9 92.6002 158.9 97.5002 152C95.3002 150.4 93.0002 148.9 90.7002 147.4Z" fill="#EAEEED"/>
<path d="M55.6999 166C53.3999 164.1 50.9999 162.3 48.6999 160.5L44.8999 164.8C47.3999 166.7 49.9999 168.7 52.4999 170.7C53.4999 169 54.5999 167.5 55.6999 166Z" fill="#EAEEED"/>
<path d="M57.8001 167.6C57.1001 168.5 56.5001 169.4 55.8001 170.4C55.4001 171 55.0001 171.6 54.6001 172.2C57.6001 174.5 60.6001 176.8 63.6001 179.1C64.5001 177.5 65.5001 175.9 66.4001 174.3C63.4001 172.1 60.6001 169.8 57.8001 167.6Z" fill="#EAEEED"/>
<path d="M68.2998 207.1C67.4998 207.1 65.1998 207.2 62.9998 208.9C60.1998 211 59.7998 214.1 59.6998 214.7C54.8998 214.5 50.0998 214.2 45.2998 213.9C53.5998 201.7 61.9998 189.6 70.2998 177.4C74.3998 180.6 78.4998 183.8 82.4998 186.9C77.8998 193.6 73.0998 200.3 68.2998 207.1Z" fill="#EAEEED"/>
<path d="M16.9 186.4C19.2 183 21.6 179.5 24 176.1C31.1 181.1 38.1 186.1 45.2 191.1C47.3 187.9 49.4 184.8 51.5 181.6C42.8 174.9 34.2 168.2 25.6 161.5C19.4 170.6 13.2 179.6 7 188.7C15.6 195 24.1 201.3 32.7 207.6C34.5 205.5 36.2 203.5 38 201.4C30.8 196.4 23.9 191.4 16.9 186.4Z" fill="#F0F0F0"/>
<path d="M1.5 173.3C2.4 172.1 3.4 170.9 4.3 169.8C5.8 171.2 7.3 172.5 8.8 173.8C7.9 174.9 7 176 6 177C4.6 175.8 3.1 174.6 1.5 173.3Z" fill="#EAEEED"/>
<path d="M15.4 265.5C16.2 266.4 17.1 267.4 17.9 268.3C14.4 273 10.9 277.7 7.3 282.4C4.9 280.7 2.4 279 0 277.4V211.4C11.9 219.9 23.9 228.4 35.8 236.8C29 246.4 22.2 255.9 15.4 265.5Z" fill="#F0F0F0"/>
<path d="M98.2998 122.9C102.2 125.6 106 128.3 109.9 131C111.2 128.9 112.6 126.8 113.9 124.7C110.1 122 106.3 119.3 102.6 116.6C101.1 118.7 99.6998 120.8 98.2998 122.9Z" fill="#EAEEED"/>
<path d="M23.7998 120.6C26.3998 122.4 29.0998 124.3 31.6998 126.1C32.5998 124.7 33.4998 123.2 34.4998 121.8C31.8998 120 29.2998 118.1 26.7998 116.3C25.7998 117.7 24.7998 119.2 23.7998 120.6Z" fill="#EAEEED"/>
<path d="M104.8 101.5C106.4 102.6 108 103.7 109.6 104.8C110.1 104 110.6 103.1 111.1 102.3C109.7 101.3 108.3 100.2 106.9 99.1997C106.3 99.9997 105.5 100.8 104.8 101.5Z" fill="#EAEEED"/>
<path d="M154.7 66.4999C155.7 64.7999 156.7 63.0999 157.7 61.4999C156 60.4999 154.3 59.3999 152.6 58.3999C152.3 58.4999 152 58.4999 151.7 58.5999C150.3 58.8999 148.9 59.2999 147.5 59.0999C146.2 60.9999 144.9 62.8999 143.6 64.6999C146 66.0999 148.5 67.4999 150.9 68.9999C149.7 70.7999 148.5 72.4999 147.4 74.2999L155 79.0999C156.8 76.1999 158.5 73.1999 160.3 70.2999C158.4 68.9999 156.6 67.7999 154.7 66.4999Z" fill="#EAEEED"/>
<path d="M159.7 77.0998C160.5 77.5998 161.2 78.0998 162 78.5998C163 76.4998 164 74.7998 165.6 73.0998C164.9 72.6998 164 72.1998 163.3 71.7998C162.3 73.3998 160.7 75.3998 159.7 77.0998Z" fill="#EAEEED"/>
<path d="M128.5 68.3998C131.3 67.7998 134.1 67.1998 136.9 66.4998C136.6 65.4998 136 63.7998 135.6 62.7998C132.9 63.1998 130.2 63.8998 127.5 64.2998C127.8 65.7998 128.1 66.7998 128.5 68.3998Z" fill="#EAEEED"/>
<path d="M63.2 249.6C55.5 261 47.8 272.5 40 283.9C63.7 300.6 87.4 317.3 111 334C118.9 323.1 126.8 312.2 134.7 301.3C126.2 295 117.7 288.7 109.3 282.4C107.3 282.5 100.7 282.5 94.4 277.9C89.1 273.9 87 268.8 86.3 266.8C78.7 261.1 71 255.4 63.2 249.6Z" fill="#EAEEED"/>
<path d="M154.9 236.8C156 235 157.1 233.3 158.2 231.5C157.6 230.4 156.7 229.1 155.4 228.9C166.2 213.1 177.1 197.4 187.9 181.6C196.6 187.3 205.4 193 214.1 198.7C201.7 217.2 189.2 235.7 176.8 254.2C172.6 251.5 168.4 248.8 164.2 246.1C164.7 245 165.2 243.9 165.7 242.8C162.2 240.8 158.6 238.8 154.9 236.8Z" fill="#F0F0F0"/>
<path d="M196.3 189.9C201.1 183.1 205.9 176.3 210.7 169.5" stroke="#F0F0F0" stroke-width="4.12" stroke-miterlimit="10"/>
<path d="M199.5 178.6C206 182.9 212.4 187.2 218.9 191.5" stroke="#F0F0F0" stroke-width="4.12" stroke-miterlimit="10"/>
<path d="M197 168.5C207.9 153.7 218.8 138.9 229.6 124.1C230.7 124.5 231.8 125 233 125.4C234.4 123.3 235.9 121.2 237.3 119.1C244.7 123.9 252.1 128.7 259.5 133.5C247.2 151.2 234.8 168.9 222.5 186.7C214 180.6 205.5 174.6 197 168.5Z" fill="#F0F0F0"/>
<path d="M267.3 106.3C274.9 96.0997 282.6 85.9997 290.2 75.7997C284 71.3997 277.8 67.0997 271.6 62.6997C264.2 73.3997 256.8 83.9997 249.4 94.6997C255.4 98.5997 261.3 102.5 267.3 106.3Z" fill="#F0F0F0"/>
<path d="M208.9 41.2997C206.8 44.6997 204.7 48.1997 202.6 51.5997C206.3 54.0997 210 56.5997 213.7 59.1997C218.6 52.9997 223.5 46.7997 228.5 40.4997C224.9 37.5997 221.2 34.5997 217.5 31.6997C219 29.4997 220.5 27.2997 222 25.1997C227.6 29.4997 233.2 33.7997 238.9 37.9997C232.9 46.6997 227 55.2997 221 63.8997C221.1 63.9997 222.1 66.5997 220.5 68.6997C219.2 70.4997 216.5 71.0997 214.2 69.8997C206.7 64.1997 199.3 58.4997 191.8 52.7997C195.5 47.2997 199.2 41.8997 202.9 36.3997C204.8 38.0997 206.8 39.6997 208.9 41.2997Z" fill="#F0F0F0"/>
<path d="M185.9 30.0997L179 39.3997L186.6 45.0997L184.5 47.8997L171.4 38.0997L182.5 23.1997L195.7 32.9997L193.6 35.7997L185.9 30.0997Z" fill="#EAEEED"/>
<path d="M235.3 20.8998C237.1 18.1998 238.8 15.4998 240.6 12.7998C246.1 16.6998 251.5 20.4998 257 24.3998C255.4 26.8998 253.8 29.3998 252.2 31.9998C246.6 28.2998 240.9 24.5998 235.3 20.8998Z" fill="#EAEEED"/>
<path d="M301.9 223.3C303.9 219.7 305.9 216 307.9 212.3C304.6 209.3 301.4 206.3 298.1 203.2C298.7 202.2 299.3 201.3 299.9 200.3C291.3 193.8 282.6 187.4 274 180.9C264.5 194.4 255 207.8 245.5 221.3C253.6 227.1 261.7 232.9 269.9 238.7C270 239.5 270.1 240.3 270.3 241.2C273.5 243.5 276.7 245.9 279.9 248.2C281.1 247.9 282.3 247.6 283.5 247.3C292.5 254.1 301.5 260.9 310.5 267.7C313.4 264.1 316.4 260 319.3 255.5C322.5 250.6 325.1 245.9 327.3 241.5C318.9 235.4 310.4 229.3 301.9 223.3Z" fill="#F0F0F0"/>
<path d="M277.4 264.3C276.8 263.3 276.1 262.3 275.5 261.3C270.7 258.3 265.9 255.4 261.1 252.4C259.6 252.1 258.1 251.9 256.6 251.6C249.8 246.2 242.9 240.9 236.1 235.5C228.5 246.5 220.9 257.5 213.2 268.4C230 281.4 247.4 293.5 264.2 306.4C269.1 310.2 274 313.9 278.9 317.8C282.2 313.3 285.4 308.6 288.7 303.8C293.7 296.5 298.4 289.3 302.9 282.2C294.4 276.2 285.9 270.3 277.4 264.3Z" fill="#F0F0F0"/>
<path d="M253.7 319.9C237.1 307.3 220 295.3 203.5 282.6L178 319.3C200.4 333.4 222.9 347.5 245.3 361.6C253 352.3 260.9 342.3 268.8 331.7C263.8 327.7 258.7 323.8 253.7 319.9Z" fill="#F0F0F0"/>
<path d="M163.3 395.9C164.8 397.3 167 398.2 169 397.6C171 397 172.4 395 172.8 392.9C173.2 390.8 172.8 388.7 172.3 386.6C171.2 381.8 169.6 377 166.3 373.4C163.2 370.1 158.8 368.1 154.3 368C152.9 368 151.4 368.2 150.4 369.2C148.9 370.9 149.8 373.8 148.3 375.5C147.5 376.5 146.2 376.8 145.3 377.7C144 379 144.1 381.2 144.9 382.8C145.7 384.4 147.3 385.6 148.7 386.7C151.7 389 154.4 390.5 158 391.4C161 392.3 161.1 393.8 163.3 395.9Z" fill="#F0F0F0"/>
<path d="M191.2 361.7L194.5 363.7" stroke="#F0F0F0" stroke-width="1.03" stroke-miterlimit="10"/>
<path d="M187.2 367.2C188.2 367.8 189.2 368.4 190.2 369" stroke="#F0F0F0" stroke-width="1.03" stroke-miterlimit="10"/>
<path d="M299.8 447.9C300.1 448.6 300.3 449.3 300.6 449.9C298.4 452.9 296.1 455.8 293.9 458.8C290.9 456.7 287.9 454.5 284.9 452.4C286.1 450.8 287.2 449.1 288.4 447.5C285.6 445.7 282.8 443.9 280 442.1C279 443.4 278 444.6 277 445.9C277.8 447 278.5 448.1 279.3 449.2C278.1 451.1 276.9 452.9 275.8 454.7C274.3 455 272.8 455.2 271.3 455.5C269.8 457.6 268.3 459.7 266.8 461.8C269.5 463.7 272.2 465.5 274.8 467.3C276.4 465.4 278.1 463.5 279.7 461.6C282.4 463.5 285.1 465.3 287.7 467.2C281.9 474.8 276.1 482.5 270.3 490.2H265.7L168.7 423.8C174.9 414.7 181.1 405.7 187.3 396.6C189.5 398.5 191.7 400.5 193.8 402.4C192.7 404 191.6 405.6 190.5 407.2C193.4 409.3 196.4 411.4 199.3 413.5C200.8 411.6 202.4 409.8 203.9 408C203.7 406.8 203.5 405.6 203.3 404.5L206.1 400.4L211.1 400.9C212.2 399.1 213.3 397.4 214.4 395.6C208.1 390.6 201.8 385.5 195.5 380.5C200.5 373.4 205.6 366.2 210.6 359.1C220.7 365.7 230.7 372.4 240.8 379C240.7 379.4 240 381.7 241.3 384C242.4 385.9 244.1 386.6 244.6 386.8C266.6 402.1 288.6 417.4 310.6 432.6C307.1 437.6 303.4 442.8 299.8 447.9Z" fill="#F0F0F0"/>
<path d="M295.3 389.4C317.7 358 340.1 326.6 362.6 295.2C353.7 279.6 344.8 264 335.9 248.3C309 287 282.2 325.7 255.3 364.4C268.6 372.8 281.9 381.1 295.3 389.4Z" fill="#F6F5F3"/>
<path d="M410 245.6C416.3 250 422.6 254.4 428.9 258.8C417.6 275.9 406.2 293.1 394.9 310.2C388.6 305.9 382.3 301.6 376 297.3" stroke="#F0F0F0" stroke-width="4.12" stroke-miterlimit="10"/>
<path d="M412.3 283.4C406.3 279.2 400.2 275.1 394.2 270.9" stroke="#F0F0F0" stroke-width="4.12" stroke-miterlimit="10"/>
<path d="M365.8 287.6C364.3 283.8 362.8 280.1 361.3 276.3C363.9 278.1 366.6 279.8 369.2 281.6C368.1 283.5 366.9 285.6 365.8 287.6Z" fill="#EAEEED"/>
<path d="M355.6 230.5C351.6 236 347.5 241.6 343.5 247.1C347 253.8 350.5 260.5 354.1 267.1C360 270.8 365.9 274.5 371.8 278.2C377.6 270.2 383.4 262.2 389.2 254.2C378 246.4 366.8 238.4 355.6 230.5Z" fill="#F0F0F0"/>
<path d="M301.9 397.5C308.9 401.9 316 406.3 323.1 410.7C341 384.8 358.9 358.8 376.7 332.9C370.7 328.5 364.6 324.1 358.6 319.7" stroke="#F0F0F0" stroke-width="4.12" stroke-miterlimit="10"/>
<path d="M340.5 385.5C334.1 381 327.6 376.4 321.2 371.9" stroke="#F0F0F0" stroke-width="4.12" stroke-miterlimit="10"/>
<path d="M357.7 359.5C351.3 355 344.8 350.4 338.4 345.9" stroke="#F0F0F0" stroke-width="4.12" stroke-miterlimit="10"/>
<path d="M295.8 374.3C297.9 371.6 300 368.9 302.1 366.2C295 361 287.8 355.8 280.7 350.6C278.6 353.2 276.5 355.8 274.4 358.4C281.5 363.8 288.6 369.1 295.8 374.3Z" fill="#EAEEED"/>
<path d="M315.2 350.6C317.2 347.8 319.2 345.1 321.2 342.3C318.3 340.3 315.3 338.3 312.4 336.3C310.5 338.8 308.5 341.3 306.6 343.8C309.5 346.1 312.3 348.4 315.2 350.6Z" fill="#EAEEED"/>
<path d="M312.9 340.3C315.3 337 317.6 333.8 319.9 330.5" stroke="#EAEEED" stroke-width="4.12" stroke-miterlimit="10"/>
<path d="M306.1 334.8C311.3 335 316.5 335.1 321.7 335.3C327.2 327.7 332.8 320 338.3 312.4C328.9 306.1 319.5 299.8 310.1 293.5C303.3 303.3 296.5 313.1 289.7 323C295.2 326.9 300.6 330.9 306.1 334.8Z" fill="#EAEEED"/>
<path d="M298.8 320.7C301.1 317.8 303.3 314.8 305.6 311.9C309.1 314.4 312.6 316.9 316.2 319.4C314.1 322.6 312 325.8 309.9 329C306.2 326.2 302.5 323.4 298.8 320.7Z" fill="#F6F5F3"/>
<path d="M287.9 328.9C286.6 327.9 285.3 326.9 283.9 326C281.9 328.8 279.9 331.5 277.9 334.3C279 335.2 280.1 336.2 281.2 337.1C283.3 334.3 285.7 331.7 287.9 328.9Z" fill="#EAEEED"/>
<path d="M290.1 330.4C287.9 333.2 285.4 335.9 283.2 338.7C284.6 339.9 286.1 341.1 287.5 342.3C289.8 339.4 292 336.4 294.3 333.5C292.9 332.5 291.5 331.5 290.1 330.4Z" fill="#EAEEED"/>
<path d="M303.6 354.7C304.5 353.3 305.5 351.8 306.4 350.4C304.5 348.7 302.5 347 300.6 345.4C299.5 346.8 298.4 348.3 297.3 349.7C299.4 351.3 301.5 353 303.6 354.7Z" fill="#EAEEED"/>
<path d="M325.5 278.6C330.5 275.4 335.6 272.2 340.6 269C345.2 276.1 349.8 283.3 354.5 290.4C349.4 293.5 344.3 296.6 339.1 299.7C334.6 292.7 330 285.7 325.5 278.6Z" fill="#EAEEED"/>
<path d="M322.5 268.5C323.4 269.9 324.2 271.4 325 272.8C327.4 271.4 329.9 270.1 332.3 268.8L330.3 264.8C327.7 266 325.1 267.3 322.5 268.5Z" fill="#EAEEED"/>
<path d="M331.3 259.7C332.6 262.3 333.9 264.8 335.1 267.4C336.1 266.9 337.2 266.3 338.2 265.8C336.9 263.3 335.6 260.8 334.3 258.4C333.3 258.8 332.3 259.3 331.3 259.7Z" fill="#EAEEED"/>
<path d="M437.8 222.7C439.2 220.7 440.5 218.7 441.8 216.7C443.9 218.3 446 219.9 448.1 221.5C446.7 223.4 445.4 225.2 444.1 227C442 225.5 439.9 224.1 437.8 222.7Z" fill="#EAEEED"/>
<path d="M369.9 163.8C369.8 163.7 369.7 163.6 369.5 163.5C369.4 163.5 369.4 163.4 369.3 163.4C368.8 163 368.3 162.6 367.7 162.2C366.9 161.6 366 161 365.2 160.5C364.8 161.1 364.4 161.7 364 162.4C366.1 163.8 368.2 165.3 370.3 166.7C370.4 166.5 370.6 166.3 370.7 166.1C370.4 165.4 370.2 164.7 370 164C370 163.9 370 163.9 369.9 163.8Z" fill="#EAEEED"/>
<path d="M368.1 156.3C367.7 156.9 367.2 157.6 366.8 158.2C368.5 159.3 370.2 160.5 371.7 161.8C371.8 161.8 371.9 161.7 372 161.7C372.4 161.6 372.8 161.6 373.1 161.6C373.4 161.6 373.6 161.7 373.8 161.8C374 161.5 374.2 161.3 374.4 161C372.3 159.5 370.2 157.9 368.1 156.3Z" fill="#EAEEED"/>
<path d="M428.8 228.7C434.3 232.2 439.9 235.8 445.4 239.3C451.5 230.1 457.7 220.8 463.8 211.6C452.9 203.7 442 195.8 431.1 187.9C424.7 197.3 418.3 206.7 412 216.1" stroke="#F0F0F0" stroke-width="4.12" stroke-miterlimit="10"/>
<path d="M381.2 189.4C388.2 194.9 395.1 200.3 402.1 205.8C407.6 197 413.2 188.2 418.7 179.4C410.9 173.4 403.1 167.5 395.3 161.5C392.9 164.6 390.4 167.7 388 170.8" stroke="#F0F0F0" stroke-width="4.12" stroke-miterlimit="10"/>
<path d="M375.6 170.5C378.9 165.8 382.1 161.1 385.4 156.4C379.4 152 373.5 147.7 367.5 143.3C364.5 147.5 361.5 151.7 358.4 155.9" stroke="#F0F0F0" stroke-width="4.12" stroke-miterlimit="10"/>
<path d="M335.1 233.8C322.2 212.6 309.2 191.5 296.3 170.3C299.3 165.9 302.3 161.6 305.4 157.2C323.5 170.6 341.7 184.1 359.8 197.5C351.5 209.6 343.3 221.7 335.1 233.8Z" fill="#F6F5F3"/>
<path d="M356 167.3C362.1 172 368.3 176.7 374.4 181.4" stroke="#F0F0F0" stroke-width="4.12" stroke-miterlimit="10"/>
<path d="M321.7 140.1C328 144.2 334.3 148.3 340.6 152.5C344.5 145.9 348.3 139.2 352.2 132.6C346.8 128.8 341.5 125 336.1 121.3L330.8 130.1" stroke="#F0F0F0" stroke-width="4.12" stroke-miterlimit="10"/>
<path d="M329.5 115.4C326.5 113.1 323.5 110.9 320.4 108.6C315.5 115.2 310.7 121.9 305.8 128.5" stroke="#F0F0F0" stroke-width="4.12" stroke-miterlimit="10"/>
<path d="M299.5 142.8C294.9 149.5 290.3 156.2 285.6 162.9" stroke="#EAEEED" stroke-width="4.12" stroke-miterlimit="10"/>
<path d="M382.6 323.8C383.9 324.9 385.2 325.9 386.6 327C387.2 326 387.9 325 388.5 324C387.1 323 385.8 321.9 384.5 320.9C383.8 321.9 383.2 322.9 382.6 323.8Z" fill="#F0F0F0"/>
<path d="M348.6 335.1C349.9 336.2 351.2 337.2 352.6 338.3C353.2 337.3 353.9 336.3 354.5 335.3C353.1 334.3 351.8 333.2 350.5 332.2C349.8 333.2 349.2 334.2 348.6 335.1Z" fill="#F0F0F0"/>
<path d="M313.2 386.2C314.5 387.3 315.8 388.3 317.2 389.4C317.8 388.4 318.5 387.4 319.1 386.4C317.7 385.4 316.4 384.3 315.1 383.3C314.4 384.3 313.8 385.3 313.2 386.2Z" fill="#F0F0F0"/>
<path d="M264.4 379.3C265.7 380.4 267 381.4 268.4 382.5C269 381.5 269.7 380.5 270.3 379.5C268.9 378.5 267.6 377.4 266.3 376.4C265.6 377.4 265 378.4 264.4 379.3Z" fill="#EAEEED"/>
<path d="M330.9 361.4C332.2 362.5 333.5 363.5 334.9 364.6C335.5 363.6 336.2 362.6 336.8 361.6C335.4 360.6 334.1 359.5 332.8 358.5C332.1 359.5 331.5 360.4 330.9 361.4Z" fill="#F0F0F0"/>
<path d="M283.4 392.6C284.7 393.7 286 394.7 287.4 395.8C288 394.8 288.7 393.8 289.3 392.8C287.9 391.8 286.6 390.7 285.3 389.7C284.6 390.7 284 391.6 283.4 392.6Z" fill="#F0F0F0"/>
<path d="M479.4 291.5C469.8 284.9 460.1 278.2 450.4 271.6" stroke="#F0F0F0" stroke-width="4.12" stroke-miterlimit="10"/>
<path d="M467.3 307.1C468.6 305.3 469.8 303.6 471.1 301.8" stroke="#F0F0F0" stroke-width="4.12" stroke-miterlimit="10"/>
<path d="M456.5 321.7C457.9 319.9 459.4 318.2 460.8 316.4" stroke="#F0F0F0" stroke-width="4.12" stroke-miterlimit="10"/>
<path d="M429.5 309.8C427.6 308.4 425.8 307.1 424 305.8C431 296 437.9 286.2 444.9 276.3C446.8 277.6 448.8 278.8 450.7 280.1C448.7 283 446.7 286 444.7 288.9C441.5 288.7 439.3 289.4 439.2 290.4C439.1 291.3 440.4 292.4 442.2 293.2C447 296.4 451.8 299.6 456.6 302.8C455.4 304.8 454.2 306.8 453.1 308.8C448.4 306.1 443.7 303.4 439 300.7C437.4 297.8 435.8 295.9 435 296.2C434.2 296.5 434.2 299.2 435 302.7C433 305.1 431.3 307.5 429.5 309.8Z" fill="#F0F0F0"/>
<path d="M449.4 334C439.9 327.2 430.4 320.4 420.9 313.6" stroke="#F0F0F0" stroke-width="4.12" stroke-miterlimit="10"/>
<path d="M401.8 336.3C405.2 338.5 408.5 340.7 411.9 342.8C414 340 416.1 337.3 418.2 334.5C415.4 331.6 412.7 328.8 409.9 325.9C407.2 329.4 404.5 332.8 401.8 336.3Z" fill="#F0F0F0"/>
<path d="M406.6 392.7C397.9 386.3 389.1 379.9 380.4 373.6" stroke="#F0F0F0" stroke-width="4.12" stroke-miterlimit="10"/>
<path d="M248.3 434.5C252.5 429 256.6 423.4 260.8 417.9C254.6 413.5 248.5 409.1 242.3 404.7C238.1 410.7 234 416.8 229.8 422.8C235.9 426.7 242.1 430.6 248.3 434.5Z" fill="#F6F5F3"/>
<path d="M256.2 432.7C257.6 433.9 259.1 435.1 260.5 436.3" stroke="#EAEEED" stroke-width="2.06" stroke-miterlimit="10"/>
<path d="M227.7 427.8C225.7 426.4 223.7 425.1 221.8 423.8" stroke="#F6F5F3" stroke-width="3.09" stroke-miterlimit="10"/>
<path d="M250.9 443.6C248.7 442.1 246.5 440.6 244.3 439.1" stroke="#F6F5F3" stroke-width="2.06" stroke-miterlimit="10"/>
<path d="M420.6 365.8C423.4 361.2 426.2 356.5 429.1 351.9C425.7 348.3 421.7 343.9 417.5 341.4" stroke="#F0F0F0" stroke-width="4.12" stroke-miterlimit="10"/>
<path d="M413.7 349.2C414.1 350.6 415.1 351.9 416.4 352.6" stroke="#EAEEED" stroke-width="4.12" stroke-miterlimit="10"/>
<path d="M409.3 355.9L413.1 358.6" stroke="#EAEEED" stroke-width="4.12" stroke-miterlimit="10"/>
<path d="M403.5 361.3C404.4 362.1 405.3 362.8 406.1 363.6" stroke="#EAEEED" stroke-width="4.12" stroke-miterlimit="10"/>
<path d="M383.8 424.3C385.5 422 387.3 419.7 389 417.4" stroke="#F0F0F0" stroke-width="4.12" stroke-miterlimit="10"/>
<path d="M394.1 408.8C395.8 406.5 397.6 404.2 399.3 401.9" stroke="#F0F0F0" stroke-width="4.12" stroke-miterlimit="10"/>
<path d="M354.7 466.6C356.4 464.3 358.2 462 359.9 459.7" stroke="#F0F0F0" stroke-width="4.12" stroke-miterlimit="10"/>
<path d="M365.1 451.2C366.8 448.9 368.6 446.6 370.3 444.3" stroke="#F0F0F0" stroke-width="4.12" stroke-miterlimit="10"/>
<path d="M361.3 424C367.1 428.9 372.9 433.8 378.7 438.7" stroke="#F0F0F0" stroke-width="4.12" stroke-miterlimit="10"/>
<path d="M365.9 395.1C371.1 399.4 376.3 403.6 381.5 407.9" stroke="#F0F0F0" stroke-width="4.12" stroke-miterlimit="10"/>
<path d="M336.8 438.2C341.4 441.9 346 445.7 350.6 449.4" stroke="#F0F0F0" stroke-width="4.12" stroke-miterlimit="10"/>
<path d="M352.9 434.5C355.5 436.6 358.2 438.8 360.8 440.9" stroke="#EAEEED" stroke-width="4.12" stroke-miterlimit="10"/>
<path d="M368.8 413.8C370.8 415.3 372.8 416.8 374.8 418.3" stroke="#EAEEED" stroke-width="4.12" stroke-miterlimit="10"/>
<path d="M370.7 389.9C372.7 387.2 374.7 384.5 376.6 381.8" stroke="#F0F0F0" stroke-width="4.12" stroke-miterlimit="10"/>
<path d="M353.9 412.9C355.9 410.2 357.9 407.5 359.8 404.8" stroke="#F0F0F0" stroke-width="4.12" stroke-miterlimit="10"/>
<path d="M340.5 429.8C342.5 427.1 344.5 424.4 346.4 421.7" stroke="#F0F0F0" stroke-width="4.12" stroke-miterlimit="10"/>
<path d="M325 453.4C327 450.7 329 448 330.9 445.3" stroke="#F0F0F0" stroke-width="4.12" stroke-miterlimit="10"/>
<mask id="mask1_71_937" style="mask-type:luminance" maskUnits="userSpaceOnUse" x="0" y="0" width="820" height="491">
<path d="M820 0H0V490.1H820V0Z" fill="white"/>
</mask>
<g mask="url(#mask1_71_937)">
<path d="M750.7 176.1C766.1 171.7 781.5 167.2 796.8 162.7C801.2 180.4 805.7 198.1 810.1 215.8C796.8 217.7 783.6 219.7 770.3 221.6C769.1 219.9 767.8 218.1 766.5 216.3C764.4 213.4 762.3 210.8 760.2 208.2C757.1 197.6 753.9 186.8 750.7 176.1Z" fill="#F6F5F3"/>
<path d="M533.2 490.1C533.1 486.8 532.7 482.2 531.3 476.8C530.3 472.9 528.8 467.2 524.9 460.9C524.3 459.9 521.1 455 515.4 449.9C509.4 444.5 507.1 444.8 505.2 441.2C502.9 436.9 504.2 432.7 505.3 426.6C506.7 418.6 506.1 410.4 506.7 402.3C507.4 392.8 504.3 377.7 487.4 353.2" stroke="#C8D2D3" stroke-width="3.09" stroke-miterlimit="10"/>
<path d="M529 469.4C531.6 468.3 535.7 466.1 539.6 462.2C545.1 456.6 547.2 450.4 548.3 447.1C550.9 439.2 548.9 437.9 551.3 433.1C552 431.7 554.4 427 566 421C573.8 417 585.8 410.8 601.8 411.4C611.6 411.8 613.1 414.4 626.4 414.6C636.4 414.7 635.9 413.3 643 413.8C655.4 414.8 657.7 419.2 671 420.2C678 420.7 683.4 421.1 686.9 417.6C687.7 416.8 688.7 415.4 690.3 402.5C691.2 395.1 691.7 391.4 691.1 389.6C688.4 382.1 680.3 382.3 679.8 376.7C679.7 375.8 679.9 375.3 686.2 363.8C688.7 359.3 689.2 358.3 689.2 356.6C689.2 352.7 686.1 350.2 682.8 346.4C680.1 343.3 676.7 338.7 673.7 332" stroke="#C8D2D3" stroke-width="3.09" stroke-miterlimit="10"/>
<path d="M820 413.4V420.6C818.3 420.2 816.6 419.6 815.2 418.6C813.7 417.6 812.3 415.7 813.3 414.2C814 413.2 815.3 413.1 816.5 413.2C817.7 413.3 818.8 413.7 820 413.3C819.9 413.4 819.9 413.4 820 413.4Z" fill="#C8D2D3"/>
<path d="M756.7 358.9C758.7 362.8 761.4 367.3 759.4 371.2C758.2 373.6 755.6 374.8 753.1 375.6C745 378 736.3 376.3 728.1 373.8C723.1 372.3 718.1 370.4 714.5 366.7C708 359.8 708.6 348.9 711.5 339.9C713.6 333.1 716.9 326.4 722.2 321.6C727.5 316.8 735.2 314.2 742.1 316.3C749.6 318.6 753.1 325.6 753 333C752.9 342.2 752.4 350.2 756.7 358.9Z" fill="#C8D2D3"/>
<path d="M671.2 322.2C651.3 317.5 638 320.4 629.6 323.8C619.7 327.8 616.8 332.6 604.6 335.5C590.6 338.9 579.2 336.4 578.5 339.3C578 341.7 585.5 343.1 590.8 351.5C591.9 353.3 596.3 360.3 593.6 366.1C592.9 367.7 591.4 369.6 587.2 371.8C576.5 377.3 570.1 373.8 561.9 377.1C554.3 380.2 553.3 386 547.5 392.4C541.3 399.4 529.8 407 506.4 408.4" stroke="#C8D2D3" stroke-width="3.09" stroke-miterlimit="10"/>
<path d="M736.1 232.8C733.8 230.8 731.6 228.9 729.3 226.9C727.5 225.3 726.2 223.3 725.5 221C723.2 213.4 721 205.9 718.7 198.3C718.6 197.8 718 195.4 719.5 193C720.6 191.2 722.2 190.5 722.8 190.2C730.3 188 737.8 185.8 745.2 183.7" stroke="#F0F0F0" stroke-width="4.12" stroke-miterlimit="10"/>
<path d="M763 236.4C771.3 233.8 779.7 231.1 788 228.5" stroke="#F0F0F0" stroke-width="4.12" stroke-miterlimit="10"/>
<path d="M780.9 256C784.4 256.5 787.8 257 791.2 257.5" stroke="#EAEEED" stroke-width="4.12" stroke-miterlimit="10"/>
<path d="M770.1 187.4C770.6 190.9 771.6 194.3 773.1 197.5C782.5 195.3 791.2 193.1 800 189.1C798.8 185.9 798.4 182.6 797.2 179.4C788.1 182.1 779.3 184.7 770.1 187.4Z" fill="#EAEEED"/>
<path d="M701.3 196.5C705.3 206.5 710.2 216.2 715.9 225.4C714.7 226.8 713.2 228.1 711.3 228.5C699.3 224.5 688.9 217.3 680.5 207.8C683.8 206.3 687.3 204.8 690.6 203.2C690.5 204.4 691.9 206.2 693.1 206.2C694.3 206.2 695.4 205.2 695.6 204C695.8 202.8 695.1 201.6 694 201C696.8 199.5 698.7 198.1 701.3 196.5Z" fill="#F0F0F0"/>
<path d="M727.8 98.7003C726.2 93.8003 724.5 88.8003 722.9 83.8003C738.9 78.6003 754.9 73.5003 770.9 68.3003C774.4 78.5003 777.9 88.7003 781.5 98.9003C779.5 99.5003 777.5 100.1 775.5 100.8" stroke="#F0F0F0" stroke-width="4.12" stroke-miterlimit="10"/>
<path d="M738.9 132.6C736.6 125.5 734.2 118.3 731.9 111.2" stroke="#F0F0F0" stroke-width="4.12" stroke-miterlimit="10"/>
<path d="M780.7 118.2C782.7 117.5 784.7 116.9 786.7 116.3C789.6 126.3 792.9 136.5 796.3 146.4C780.3 151.3 764.2 156.2 748.2 161C746.6 156.2 745.1 151.5 743.5 146.7" stroke="#F0F0F0" stroke-width="4.12" stroke-miterlimit="10"/>
<path d="M691 144C692.4 149 693.8 154.1 695.2 159.1C692.4 160.9 689.6 162.3 686.2 162.5C684.8 157.5 683.3 152.5 681.9 147.4C685.2 145.7 687.7 145.7 691 144Z" fill="#EAEEED"/>
<path d="M683.2 125.4C684.2 128 685.2 130.6 686.2 133.2" stroke="#EAEEED" stroke-width="4.12" stroke-miterlimit="10"/>
<path d="M676.1 127.2L677.4 131.7" stroke="#EAEEED" stroke-width="4.12" stroke-miterlimit="10"/>
<path d="M810.6 265.7C814.3 256.9 817.9 248.1 821.6 239.3C815.7 235.7 810.1 231.8 804.2 228.2" stroke="#F0F0F0" stroke-width="4.12" stroke-miterlimit="10"/>
<path d="M764.6 204.8C765.4 207.2 766.3 209.7 767.1 212.1C772.6 210.2 778 208.4 783.5 206.6C791.8 209.5 800.1 212.5 808.4 215.4C809.3 212.6 810.2 209.7 811.1 206.9C802.8 203.7 794.5 200.5 786.3 197.3C779 199.7 771.8 202.3 764.6 204.8Z" fill="#EAEEED"/>
<path d="M702.1 108.8C699.3 101 696.6 93.2004 693.8 85.4004" stroke="#F0F0F0" stroke-width="4.12" stroke-miterlimit="10"/>
<path d="M687.7 88.4004C675.6 89.4004 663.5 90.4004 651.4 91.4004C650.4 91.8004 647.6 93.2004 645.7 96.3004C643 101 644.7 105.8 644.9 106.5C646 113 647.2 119.6 648.3 126.1C651.8 125.2 655.3 124.3 658.9 123.5" stroke="#F0F0F0" stroke-width="4.12" stroke-miterlimit="10"/>
<path d="M661.7 141.3C657.7 140.9 653.6 140.5 649.6 140.2C649.7 142 649.5 144.7 648.5 147.8C647.1 152 644.6 154.7 643.2 156.1C643.7 158.2 647 172.5 661 179.9C671.9 185.7 682.3 183.6 685.2 182.9C696.5 178.5 707.9 174 719.3 169.6C717.6 163.8 716 158.1 714.3 152.3" stroke="#F0F0F0" stroke-width="4.12" stroke-miterlimit="10"/>
<path d="M739.9 93.3004C745.3 110.1 750.7 126.8 756.1 143.5C763.8 141 771.5 138.5 779.1 135.9C773.8 119.4 768.5 102.9 763.2 86.4004C755.5 88.8004 747.7 91.1004 739.9 93.3004Z" fill="#F0F0F0" stroke="#F0F0F0" stroke-width="1.03" stroke-miterlimit="10"/>
<path d="M826.4 114.1C822.1 115.7 817.8 117.4 813.6 119C810.6 107.9 807.6 96.8 804.5 85.8C810.7 83.5 816.8 81.3 823 79" stroke="#F0F0F0" stroke-width="4.12" stroke-miterlimit="10"/>
<path d="M820 171.5V181.1C817.2 180.6 814.5 180 811.7 179.4C812.1 176.8 812.5 174.1 812.8 171.5H820Z" fill="#F0F0F0"/>
<path d="M803.7 277.7C800 281.3 796.4 285 792.7 288.7C776.7 276.6 760.7 264.5 744.7 252.4C748.2 247.7 751.7 243.1 755.3 238.4" stroke="#F0F0F0" stroke-width="4.12" stroke-miterlimit="10"/>
<path d="M653 35.9002C653 36.1002 652.4 38.7002 650 39.7002C648 40.5002 645.5 40.0002 644 38.2002C637.2 32.7002 630.4 27.1002 623.6 21.6002C629.9 14.8002 636.2 8.0002 642.5 1.2002" stroke="#F0F0F0" stroke-width="4.12" stroke-miterlimit="10"/>
<path d="M708.1 35.9004C706.6 38.0004 704.4 38.4004 703.9 38.5004C693.9 40.8004 684 43.0004 674.1 45.3004C672.1 45.7004 670.2 45.2004 669.2 43.8004C668.6 43.0004 668.4 42.0004 668.4 41.5004C668.3 27.6004 668.1 13.8004 668 -0.0996094H704C705.6 9.90039 707.2 19.8004 708.7 29.7004C709 30.1004 710 33.2004 708.1 35.9004Z" fill="#F0F0F0"/>
<path d="M762.2 23.4004C760.1 26.0004 756.9 26.0004 756.5 26.0004C748.2 28.6004 739.9 31.3004 731.5 33.9004C729.7 35.1004 727.3 34.9004 725.8 33.5004C724.6 32.4004 724.2 30.6004 724.6 29.0004C723.3 19.3004 722 9.60039 720.8 -0.0996094H757.4C759.2 5.20039 761 10.5004 762.8 15.8004C764.1 18.4004 763.8 21.3004 762.2 23.4004Z" fill="#F0F0F0"/>
<path d="M818.5 0C808.3 5.5 798.1 11.1 787.9 16.6C787.2 16.8 785.6 17.2 783.7 16.6C780.3 15.5 779.3 12 779.2 11.7L774.6 0H818.5Z" fill="#F0F0F0"/>
<path d="M629.9 58.6C633.6 58.2 637.2 57.8 640.9 57.5" stroke="#F0F0F0" stroke-width="4.12" stroke-miterlimit="10"/>
<path d="M657.5 13.2002C657.6 15.6002 657.7 18.0002 657.9 20.4002" stroke="#F0F0F0" stroke-width="4.12" stroke-miterlimit="10"/>
<path d="M507.1 118.6C506.6 126.3 506.1 134 505.6 141.7C493.2 140.6 480.9 139.4 468.6 138.3" stroke="#F0F0F0" stroke-width="4.12" stroke-miterlimit="10"/>
<path d="M473.5 116C473.9 108.6 474.3 101.1 474.6 93.7002C486.8 94.3002 499 94.9002 511.3 95.6002" stroke="#F0F0F0" stroke-width="4.12" stroke-miterlimit="10"/>
<path d="M456.5 88.4001C445.5 84.6001 434.6 80.8001 423.6 77.1001C421.3 82.5001 419.1 87.9001 416.8 93.3001" stroke="#F0F0F0" stroke-width="4.12" stroke-miterlimit="10"/>
<path d="M451.2 113C447.2 118.5 443.1 124.1 439.1 129.6C431.8 124.9 424.5 120.3 417.2 115.6" stroke="#F0F0F0" stroke-width="4.12" stroke-miterlimit="10"/>
<path d="M399.8 86.9002C397 90.3002 394.3 93.7002 391.5 97.1002C381.8 89.8002 372.1 82.5002 362.4 75.2002" stroke="#F0F0F0" stroke-width="4.12" stroke-miterlimit="10"/>
<path d="M409.6 68.4003C397.5 59.7003 385.4 51.0003 373.3 42.3003C369.1 47.8003 365 53.4003 360.8 58.9003" stroke="#F0F0F0" stroke-width="4.12" stroke-miterlimit="10"/>
<path d="M484.8 109.8C488.4 110.3 492.1 110.7 495.7 111.2" stroke="#EAEEED" stroke-width="4.12" stroke-miterlimit="10"/>
<path d="M503.4 108.5C506.4 108.7 509.4 109 512.5 109.2" stroke="#F0F0F0" stroke-width="4.12" stroke-miterlimit="10"/>
<path d="M551.3 108.4C553.1 108.6 554.8 108.9 556.6 109.2" stroke="#F0F0F0" stroke-width="4.12" stroke-miterlimit="10"/>
<path d="M453.9 104.5C455.9 104.9 457.9 105.3 459.9 105.7" stroke="#F0F0F0" stroke-width="4.12" stroke-miterlimit="10"/>
<path d="M403.2 82L407 85" stroke="#F0F0F0" stroke-width="4.12" stroke-miterlimit="10"/>
<path d="M391.1 75.2002L393 72.2002" stroke="#F0F0F0" stroke-width="4.12" stroke-miterlimit="10"/>
<path d="M533.9 22.3003C533.8 31.2003 533.8 40.2003 533.7 49.1003" stroke="#F0F0F0" stroke-width="4.12" stroke-miterlimit="10"/>
<path d="M533.8 43.5003C526.7 44.4003 517 45.0003 505.6 44.3003C501.8 44.0003 485 42.7003 463.7 35.2003C436.8 25.7003 416.2 11.2003 402.5 -0.699707" stroke="#F0F0F0" stroke-width="4.12" stroke-miterlimit="10"/>
<path d="M400.9 6.4002C403.9 4.0002 406.9 1.6002 410 -0.799805" stroke="#F0F0F0" stroke-width="4.12" stroke-miterlimit="10"/>
<path d="M439.1 30.6004C443.1 23.0004 447.2 15.5004 451.2 7.90039" stroke="#F0F0F0" stroke-width="4.12" stroke-miterlimit="10"/>
<path d="M489.4 48.4001C490.5 38.9001 491.7 29.5001 492.8 20.1001" stroke="#F0F0F0" stroke-width="4.12" stroke-miterlimit="10"/>
<path d="M538.9 0C538.8 2.8 538.6 5.5 538.5 8.3C531.3 7.9 524.1 7.5 517 7.2C517.1 4.8 517.2 2.4 517.2 0L538.9 0Z" fill="#F0F0F0"/>
<path d="M518.1 33.9004L521.1 34.3004" stroke="#EAEEED" stroke-width="4.12" stroke-miterlimit="10"/>
<path d="M518.1 24.6001C519.7 24.0001 521.4 24.0001 523 24.5001" stroke="#EAEEED" stroke-width="4.12" stroke-miterlimit="10"/>
<path d="M504.1 21.5V25.3" stroke="#EAEEED" stroke-width="4.12" stroke-miterlimit="10"/>
<path d="M490.8 5.30029C492.3 6.60029 493.8 7.80029 495.3 9.10029C494.8 6.30029 494.7 3.10029 494.2 0.300293C494 2.50029 493 4.80029 490.8 5.30029Z" fill="#EAEEED"/>
<path d="M489.3 7.2002L493.1 11.0002C489.9 11.4002 486.6 11.3002 483.7 9.8002C485.7 9.4002 488 8.8002 489.3 7.2002Z" fill="#EAEEED"/>
<path d="M473.6 18.5C473.8 22 474.1 25.5 474.3 29.1C474 27.7 476.8 26.1 477.8 27C478.8 27.9 477.9 30 476.5 29.9C476.7 30.4 477 31.5 477.2 32C478.5 31.8 479.7 31.6 481 31.4C481.1 29.1 480.9 27.2 481 25C477.6 25.7 473.2 22.1 473.6 18.5Z" fill="#EAEEED"/>
<path d="M471.3 23.8003C471 25.3003 470.8 26.8003 470.5 28.3003C469.6 26.3003 467.3 25.3003 465.1 25.3003V21.8003C467.1 22.4003 469.4 23.3003 471.3 23.8003Z" fill="#EAEEED"/>
<path d="M479.9 3.40039C478.8 5.20039 477.6 6.90039 476.5 8.70039C474.4 8.30039 472.4 7.20039 470.9 5.70039C474.4 6.30039 477.3 5.80039 479.9 3.40039Z" fill="#EAEEED"/>
<path d="M470.5 0.400195C469.4 1.8002 468.2 3.2002 467.1 4.6002C464.8 3.6002 462.8 1.8002 461.4 -0.299805C464.6 0.700195 467.1 1.1002 470.5 0.400195Z" fill="#EAEEED"/>
<path d="M434.3 0.000390626C436 2.50039 438.2 4.40039 440.9 6.00039C441 3.40039 442.8 1.00039 445.2 -0.0996094C445.2 0.000390626 434.3 0.000390626 434.3 0.000390626Z" fill="#EAEEED"/>
</g>
<mask id="mask2_71_937" style="mask-type:luminance" maskUnits="userSpaceOnUse" x="0" y="0" width="820" height="491">
<path d="M820 0H0V490.1H820V0Z" fill="white"/>
</mask>
<g mask="url(#mask2_71_937)">
<path d="M249.4 492.4C219.7 469.9 190 447.3 160.2 424.8C177.1 400.9 194 376.9 210.8 353C247.9 378.9 285.1 404.9 322.3 430.8C308.3 451.2 294.3 471.6 280.4 492" stroke="white" stroke-width="0.52" stroke-miterlimit="10"/>
<path d="M239.6 490.1C159.2 429.4 78.9 368.7 -1.5 308" stroke="white" stroke-width="0.52" stroke-miterlimit="10"/>
<path d="M159.1 316.3C175.1 327.5 191.1 338.7 207.1 349.9C190.5 374.1 173.9 398.3 157.2 422.4C106.7 384.4 56.1998 346.3 5.6998 308.3C18.3998 289 31.0998 269.8 43.8998 250.5C44.5998 248.5 45.3998 245.8 45.3998 242.6C45.4998 234.8 41.6998 229.2 40.0998 227.1C25.9998 217.4 11.8998 207.7 -2.2002 198.1" stroke="white" stroke-width="0.52" stroke-miterlimit="10"/>
<path d="M-2.6001 302.3C-1.2001 303.3 0.199902 304.3 1.5999 305.3C14.3999 286.4 27.2999 267.5 40.0999 248.6C40.6999 247 41.8999 243.2 40.9999 238.4C39.9999 232.8 36.6999 229.4 35.4999 228.2C23.2999 219.8 11.0999 211.3 -1.2001 202.9" stroke="white" stroke-width="0.52" stroke-miterlimit="10"/>
<path d="M278.9 136.4C236.3 106 193.8 75.6998 151.2 45.2998C148.1 47.2998 144.4 49.3998 140.2 51.2998C133.2 54.5998 126.7 56.4998 121.3 57.6998C114.3 59.1998 107.2 60.6998 100.1 62.1998C66.1999 69.5998 32.3999 76.4998 -1.1001 83.0998" stroke="white" stroke-width="0.52" stroke-miterlimit="10"/>
<path d="M280.5 133.1C238.3 102.8 196 72.5998 153.8 42.2998C157.6 38.2998 161.6 33.8998 165.5 29.0998C168.7 25.1998 171 22.1998 172.3 20.3998C178.1 12.6998 184.9 3.5998 193.1 -7.2002" stroke="white" stroke-width="0.52" stroke-miterlimit="10"/>
<path d="M-1.5 79.3999C26.4 74.4999 55 68.9999 84.3 62.6999C99 59.4999 113.5 56.2999 127.8 52.8999C131.2 51.9999 135.1 50.6999 139.3 48.6999C142.6 47.0999 145.4 45.4999 147.8 43.8999" stroke="white" stroke-width="0.52" stroke-miterlimit="10"/>
<path d="M150 40.8C153.7 36.8 157.5 32.5 161.3 27.9C169.8 17.6 177.1 7.6 183.2 -2" stroke="white" stroke-width="0.52" stroke-miterlimit="10"/>
<path d="M179.5 -1.5C170.8 9.6 162.1 20.7 153.4 31.7C151.7 33.9 149.5 36.4 146.6 38.9C140.2 44.3 133.5 46.8 129.2 48C110.6 52.9 91.2998 57.6 71.3998 62C46.3998 67.5 22.1998 72.3 -1.2002 76.4" stroke="white" stroke-width="0.52" stroke-miterlimit="10"/>
<path d="M310.6 97.0996C365.8 135.8 421 174.5 476.1 213.1" stroke="white" stroke-width="0.52" stroke-miterlimit="10"/>
<path d="M478 210.4C423.3 171.7 368.5 133.1 313.8 94.3999" stroke="white" stroke-width="0.52" stroke-miterlimit="10"/>
<path d="M515.8 80.8999C517.2 81.6999 520.7 84.1999 522.6 88.7999C523.6 91.3999 523.8 93.6999 523.7 95.1999C523.9 104.7 523.2 117.2 519.9 131.5C516.7 145.4 512 156.7 507.8 165.1C500.7 176.1 493.5 187 486.3 198C433.4 278 379.4 354.6 324.6 427.7C269.8 389.3 215 350.9 160.2 312.5" stroke="white" stroke-width="0.52" stroke-miterlimit="10"/>
<path d="M284.9 492.7C301.3 469.5 322.7 439.4 338 417.6C413.2 311.5 453.3 255.2 504.8 176.4C507.6 172.1 509.8 168.6 511.2 166.6C515.8 157.7 520.9 145.7 524.5 131.1C528.5 114.7 529.2 100.2 528.8 89.1999C528.7 86.5999 530 84.1999 532.2 82.8999C535 81.3999 537.7 81.4999 538.7 81.6999" stroke="white" stroke-width="0.52" stroke-miterlimit="10"/>
<path d="M504.5 80.4998C503.2 81.4998 500.8 83.0998 497.3 83.8998C493.5 84.7998 490.3 84.2998 488.6 83.8998C478.5 82.4998 466.9 80.0998 454.5 76.0998C430.4 68.3998 411.6 57.4998 398.3 48.0998C397.5 47.5998 395.7 46.2998 394.5 44.0998C393.4 42.0998 393.3 40.2998 393.2 39.2998" stroke="white" stroke-width="0.52" stroke-miterlimit="10"/>
<path d="M389.7 37C389.7 38.6 389.9 41.4 391.5 44.6C392.6 46.8 394 48.4 395 49.4C404.6 56.5 417 64.4 432.3 71.3C454.4 81.3 474.6 85.5 489.5 87.4C491.9 87.6 495.7 87.5 500.1 86.2C503.5 85.1 506.1 83.6 507.9 82.4" stroke="white" stroke-width="0.52" stroke-miterlimit="10"/>
<path d="M507.9 72.4996C507.1 71.9996 505.9 71.1996 504.4 70.4996C500.2 68.4996 496.5 68.0996 495.6 67.9996C491.2 67.4996 468.2 63.8996 455.3 59.6996C455.3 59.6996 439.1 54.4996 406.4 34.6996C405.7 34.2996 403.4 32.8996 400.4 32.6996C399 32.5996 397.9 32.7996 397.1 32.8996" stroke="white" stroke-width="0.52" stroke-miterlimit="10"/>
<path d="M512.4 72.2997C510.7 70.8997 508.2 68.9997 504.9 67.4997C501.4 65.8997 498.3 65.2997 496.1 64.9997C484.9 63.7997 471.2 61.2997 456.1 56.1997C434.6 48.8997 418.1 38.8997 406.7 30.7997C405.4 30.2997 403.4 29.6997 400.9 29.4997C398.1 29.2997 395.8 29.8997 394.3 30.2997" stroke="white" stroke-width="0.52" stroke-miterlimit="10"/>
<path d="M363.3 16.3998C354.7 10.4998 346.2 4.5998 337.6 -1.2002" stroke="white" stroke-width="0.52" stroke-miterlimit="10"/>
<path d="M345.6 -1.30029C352.1 3.39971 358.7 8.09971 365.2 12.7997" stroke="white" stroke-width="0.52" stroke-miterlimit="10"/>
<path d="M370.6 12.7997C364 8.09971 357.3 3.39971 350.7 -1.30029" stroke="white" stroke-width="0.52" stroke-miterlimit="10"/>
<path d="M362.3 19.0997C352.8 12.7997 343.3 6.49971 333.8 0.199707" stroke="white" stroke-width="0.52" stroke-miterlimit="10"/>
<path d="M548.9 71.7998C549.1 71.5998 549.4 71.3998 549.6 71.1998C552.2 68.9998 553.6 65.7998 553.6 62.4998C553.5 41.7998 553.4 20.9998 553.4 0.299805" stroke="white" stroke-width="0.52" stroke-miterlimit="10"/>
<path d="M562 71.7998C561.8 71.5998 561.5 71.3998 561.3 71.1998C558.7 68.9998 557.3 65.7998 557.3 62.4998C557.4 41.7998 557.5 20.9998 557.5 0.299805" stroke="white" stroke-width="0.52" stroke-miterlimit="10"/>
<path d="M823 326.2C794 304.6 770.7 286.8 754.2 274.1C737.9 261.5 720.7 248 692.2 226.2C681.2 217.8 672.2 211 666 206.3C666.1 205.4 666.3 203.6 665.5 201.5C664.7 199.2 663.2 197.8 662.5 197.2C657 193.9 648.3 187.8 641.1 177.3C638.7 173.8 633.5 166.2 631 155.1C627.5 139.2 629.2 114.6 628.5 105.7C628.4 104.6 628.2 102.3 626.7 99.8996C625.6 98.1996 624.3 96.9996 623.4 96.3996C623.2 87.3996 622.9 78.3996 622.6 69.3996C622.4 68.2996 621.9 66.8996 621.1 65.3996C620.4 64.1996 619.7 63.2996 619.1 62.5996C617.4 41.0996 615.8 19.5996 614.1 -1.90039" stroke="white" stroke-width="0.52" stroke-miterlimit="10"/>
<path d="M822 321.7C815.7 317.1 809.4 312.5 803.1 307.8C770.6 283.8 739 259.7 708.1 235.5C706.6 234.3 704.8 233.6 702.9 233.5C702.5 233.5 702.1 233.5 701.7 233.4" stroke="white" stroke-width="0.52" stroke-miterlimit="10"/>
<path d="M821 317.4C791.2 295.9 761.1 273.3 730.8 249.6C723.7 244 716.6 238.5 709.6 232.9C707.5 231.2 704.9 230.1 702.1 230C702 230 701.9 230 701.8 230C700.1 229.9 698.6 230 697.4 230.2" stroke="white" stroke-width="0.52" stroke-miterlimit="10"/>
<path d="M821 328C801.5 313.2 782 298.5 762.6 283.7C730.1 259.1 697.8 234.4 665.4 209.6C663.7 208.3 658.2 204.9 651.8 199.3C649.5 197.3 640.5 189.4 634.4 180.7C625.4 167.7 624.1 154.7 621.8 132.6C621 124.4 620.2 112.8 620.8 98.7998C621.6 99.3998 623.3 100.8 624.3 103.3C625.3 105.7 625.3 107.9 625.1 108.9C624.9 112.7 624.7 118.2 624.9 124.8C625.2 134.8 625.4 142.9 627.8 152.8C629.6 160.6 632.7 173.4 641.6 183.4C643.8 185.8 648.1 190.2 653 194.4C656 197 658.7 199 660.5 200.4C660.8 200.6 663.2 202.1 663.6 205C663.8 206.4 663.4 207.5 663.1 208.3" stroke="white" stroke-width="0.52" stroke-miterlimit="10"/>
<path d="M821.2 331.8C768.5 290.2 738 267.7 719.4 254.7C699.4 240.7 680.5 225.1 660.7 210.8C659.1 209.6 654 205.9 647.8 200.3C641.8 194.9 637.5 189.9 634.7 186.7C634.7 186.7 630.8 181.8 627.7 176.6C616.7 158.6 617.1 118.8 616.6 79.9C616.5 73 616.4 67.5 616.4 64.5C616 60.9 615.6 57.3 615.2 53.7C614.5 46.9 612.9 32.3 611.1 -1" stroke="white" stroke-width="0.52" stroke-miterlimit="10"/>
<path d="M620.6 101.3C620.3 91.3998 620 81.4998 619.7 71.5998C619.5 70.0998 619 68.1998 617.9 66.0998C617.4 64.9998 616.8 64.0998 616.2 63.2998" stroke="white" stroke-width="0.52" stroke-miterlimit="10"/>
<path d="M728.3 57.1999C728.8 56.2999 729.5 55.1999 730.6 54.1999C732.4 52.3999 734.4 51.3999 735.6 50.8999C745.1 48.2999 755.1 45.1999 765.3 41.5999C786.7 34.0999 805.7 25.4999 822.2 16.8999" stroke="white" stroke-width="0.52" stroke-miterlimit="10"/>
<path d="M822.3 13.2998C810.4 19.5998 797.1 25.9998 782.5 31.9998C764.3 39.3998 747.1 44.9998 731.6 49.0998C730.2 49.6998 728 50.7998 725.8 52.8998C723.5 55.0998 722.2 57.4998 721.5 58.8998" stroke="white" stroke-width="0.52" stroke-miterlimit="10"/>
<path d="M761.8 55.9C763.3 56.7 766.1 57.9 769.9 57.7C771.5 57.6 772.9 57.3 774 56.9C783.1 53.9 792.7 50.3 802.7 46.1C809.7 43.1 816.4 40.1 822.6 37" stroke="white" stroke-width="0.52" stroke-miterlimit="10"/>
<path d="M822.5 33.6997C815.7 37.3997 808 41.1997 799.6 44.7997C789.6 48.9997 780.2 52.2997 771.6 54.8997C770.5 54.8997 769.3 54.8997 768.1 54.8997C766.9 54.8997 765.7 54.7997 764.6 54.6997" stroke="white" stroke-width="0.52" stroke-miterlimit="10"/>
<path d="M80.8998 422.4C63.9998 446 47.0998 469.5 30.2998 493" stroke="white" stroke-width="0.52" stroke-miterlimit="10"/>
<path d="M26 493.5C43.5 469.1 61.1 444.8 78.6 420.4" stroke="white" stroke-width="0.52" stroke-miterlimit="10"/>
<path d="M-2 437.6C16.4 429.2 34.8 420.8 53.2 412.4C54.5 411.9 56.2 411.4 58.2 411.1C61.3 410.7 63.9 411 65.8 411.3" stroke="white" stroke-width="0.52" stroke-miterlimit="10"/>
<path d="M-2 441.9C28 427.4 50.2 417.1 54.7 415.4C57.2 414.5 59.7 414.1 59.7 414.1C61.3 413.9 63.3 413.7 65.6 414C67 414.1 68.2 414.3 69.2 414.6" stroke="white" stroke-width="0.52" stroke-miterlimit="10"/>
<path d="M519.5 81.0996C520.3 81.3996 521.5 81.9996 522.8 83.0996C524.2 84.3996 525 85.7996 525.3 86.5996C525.9 85.5996 527 84.2996 528.6 83.0996C530.8 81.4996 532.9 80.8996 534.1 80.5996" stroke="white" stroke-width="0.52" stroke-miterlimit="10"/>
</g>
<mask id="mask3_71_937" style="mask-type:luminance" maskUnits="userSpaceOnUse" x="0" y="0" width="820" height="491">
<path d="M820 0H0V490.1H820V0Z" fill="white"/>
</mask>
<g mask="url(#mask3_71_937)">
<path d="M80.8999 422.4C176.3 286.1 271.7 149.8 367.1 13.3999" stroke="white" stroke-width="6.18" stroke-miterlimit="10"/>
<path d="M362.4 20.0996C380.1 32.8996 395.8 42.2996 407.5 48.6996C429.9 60.8996 452.7 73.0996 484.7 78.5996C494.9 80.3996 503.5 80.9996 509.2 81.2996C550 81.1996 596 79.7996 645.3 75.9996C685.7 72.8996 721.3 68.7996 764 54.4996C765.3 54.0996 766.4 53.6996 767.2 53.3996C794 44.1996 813.5 34.5996 826.3 27.6996" stroke="white" stroke-width="4.12" stroke-miterlimit="10"/>
<path d="M327.6 69.6998C340.7 50.5998 353.7 31.3998 366.8 12.2998C379.3 21.8998 398.8 35.8998 422.5 48.7998C422.5 48.7998 450.2 63.8998 473.1 69.1998C473.7 69.2998 474.2 69.3998 474.6 69.4998C478.7 70.3998 482.5 71.0998 486.1 71.5998C498.5 73.3998 511.6 73.2998 511.6 73.2998C609 72.8998 652.2 67.5998 652.2 67.5998C692.7 62.6998 716.9 59.6998 750.1 49.7998C775.1 42.2998 796.3 33.5998 813.4 25.3998C820.6 21.8998 826.6 18.7998 831 16.4998" stroke="white" stroke-width="4.12" stroke-miterlimit="10"/>
<path d="M184.1 498.4C120.7 450.4 57.4 402.4 -6 354.4" stroke="white" stroke-width="6.18" stroke-miterlimit="10"/>
</g>
<mask id="mask4_71_937" style="mask-type:luminance" maskUnits="userSpaceOnUse" x="0" y="0" width="820" height="491">
<path d="M820 0H0V490.1H820V0Z" fill="white"/>
</mask>
<g mask="url(#mask4_71_937)">
<path d="M73.1997 402.1C72.4997 396.3 73.7997 392.7 75.1997 390.4C76.2997 388.5 77.4997 387.4 77.5997 385.4C77.5997 384.1 77.1997 382.6 74.0997 378.7C71.0997 375 69.6997 373.2 66.8997 371.2C62.9997 368.3 60.0997 366.1 55.8997 366.3C55.0997 366.3 50.6997 366.7 47.5997 370.5C43.9997 375 45.4997 380.4 45.5997 381" stroke="#C8D2D3" stroke-width="1.03" stroke-miterlimit="10"/>
<path d="M73.1999 403.4C73.9179 403.4 74.4999 402.818 74.4999 402.1C74.4999 401.382 73.9179 400.8 73.1999 400.8C72.4819 400.8 71.8999 401.382 71.8999 402.1C71.8999 402.818 72.4819 403.4 73.1999 403.4Z" fill="#C8D2D3"/>
<path d="M62.6999 396.1C63.4179 396.1 63.9999 395.518 63.9999 394.8C63.9999 394.082 63.4179 393.5 62.6999 393.5C61.9819 393.5 61.3999 394.082 61.3999 394.8C61.3999 395.518 61.9819 396.1 62.6999 396.1Z" fill="#C8D2D3"/>
<path d="M52.0998 387.9C52.8178 387.9 53.3998 387.318 53.3998 386.6C53.3998 385.882 52.8178 385.3 52.0998 385.3C51.3818 385.3 50.7998 385.882 50.7998 386.6C50.7998 387.318 51.3818 387.9 52.0998 387.9Z" fill="#C8D2D3"/>
<path d="M45.6999 382.1C46.4179 382.1 46.9999 381.518 46.9999 380.8C46.9999 380.082 46.4179 379.5 45.6999 379.5C44.9819 379.5 44.3999 380.082 44.3999 380.8C44.3999 381.518 44.9819 382.1 45.6999 382.1Z" fill="#C8D2D3"/>
<path d="M49.4997 370C50.2177 370 50.7997 369.418 50.7997 368.7C50.7997 367.982 50.2177 367.4 49.4997 367.4C48.7817 367.4 48.1997 367.982 48.1997 368.7C48.1997 369.418 48.7817 370 49.4997 370Z" fill="#C8D2D3"/>
<path d="M61.3996 369.1C62.1176 369.1 62.6996 368.518 62.6996 367.8C62.6996 367.082 62.1176 366.5 61.3996 366.5C60.6816 366.5 60.0996 367.082 60.0996 367.8C60.0996 368.518 60.6816 369.1 61.3996 369.1Z" fill="#C8D2D3"/>
<path d="M71.9997 376.9C72.7177 376.9 73.2997 376.318 73.2997 375.6C73.2997 374.882 72.7177 374.3 71.9997 374.3C71.2817 374.3 70.6997 374.882 70.6997 375.6C70.6997 376.318 71.2817 376.9 71.9997 376.9Z" fill="#C8D2D3"/>
<path d="M77.5998 387.9C78.3178 387.9 78.8998 387.318 78.8998 386.6C78.8998 385.882 78.3178 385.3 77.5998 385.3C76.8818 385.3 76.2998 385.882 76.2998 386.6C76.2998 387.318 76.8818 387.9 77.5998 387.9Z" fill="#C8D2D3"/>
<path d="M82.3996 410.3C83.1176 410.3 83.6996 409.718 83.6996 409C83.6996 408.282 83.1176 407.7 82.3996 407.7C81.6816 407.7 81.0996 408.282 81.0996 409C81.0996 409.718 81.6816 410.3 82.3996 410.3Z" fill="#C8D2D3"/>
<path d="M25.1999 367.4C25.9179 367.4 26.4999 366.818 26.4999 366.1C26.4999 365.382 25.9179 364.8 25.1999 364.8C24.4819 364.8 23.8999 365.382 23.8999 366.1C23.8999 366.818 24.4819 367.4 25.1999 367.4Z" fill="#C8D2D3"/>
<path d="M14.5998 360.1C15.3178 360.1 15.8998 359.518 15.8998 358.8C15.8998 358.082 15.3178 357.5 14.5998 357.5C13.8818 357.5 13.2998 358.082 13.2998 358.8C13.2998 359.518 13.8818 360.1 14.5998 360.1Z" fill="#C8D2D3"/>
<path d="M3.99971 351.9C4.71768 351.9 5.29971 351.318 5.29971 350.6C5.29971 349.882 4.71768 349.3 3.99971 349.3C3.28174 349.3 2.69971 349.882 2.69971 350.6C2.69971 351.318 3.28174 351.9 3.99971 351.9Z" fill="#C8D2D3"/>
<path d="M34.3996 374.4C35.1176 374.4 35.6996 373.818 35.6996 373.1C35.6996 372.382 35.1176 371.8 34.3996 371.8C33.6816 371.8 33.0996 372.382 33.0996 373.1C33.0996 373.818 33.6816 374.4 34.3996 374.4Z" fill="#C8D2D3"/>
<path d="M123.8 441.7C124.517 441.7 125.1 441.118 125.1 440.4C125.1 439.682 124.517 439.1 123.8 439.1C123.082 439.1 122.5 439.682 122.5 440.4C122.5 441.118 123.082 441.7 123.8 441.7Z" fill="#C8D2D3"/>
<path d="M113.2 434.4C113.918 434.4 114.5 433.818 114.5 433.1C114.5 432.382 113.918 431.8 113.2 431.8C112.482 431.8 111.9 432.382 111.9 433.1C111.9 433.818 112.482 434.4 113.2 434.4Z" fill="#C8D2D3"/>
<path d="M102.7 426.2C103.418 426.2 104 425.618 104 424.9C104 424.182 103.418 423.6 102.7 423.6C101.982 423.6 101.4 424.182 101.4 424.9C101.4 425.618 101.982 426.2 102.7 426.2Z" fill="#C8D2D3"/>
<path d="M92.2995 417.9C93.0175 417.9 93.5995 417.318 93.5995 416.6C93.5995 415.882 93.0175 415.3 92.2995 415.3C91.5815 415.3 90.9995 415.882 90.9995 416.6C90.9995 417.318 91.5815 417.9 92.2995 417.9Z" fill="#C8D2D3"/>
<path d="M134.3 449.9C135.017 449.9 135.6 449.318 135.6 448.6C135.6 447.882 135.017 447.3 134.3 447.3C133.582 447.3 133 447.882 133 448.6C133 449.318 133.582 449.9 134.3 449.9Z" fill="#C8D2D3"/>
<path d="M144.5 458.7C145.218 458.7 145.8 458.118 145.8 457.4C145.8 456.682 145.218 456.1 144.5 456.1C143.782 456.1 143.2 456.682 143.2 457.4C143.2 458.118 143.782 458.7 144.5 458.7Z" fill="#C8D2D3"/>
<path d="M-1.2002 345.9C62.4998 394.7 126.1 443.5 189.7 492.3" stroke="#C8D2D3" stroke-width="1.03" stroke-miterlimit="10"/>
</g>
<mask id="mask5_71_937" style="mask-type:luminance" maskUnits="userSpaceOnUse" x="0" y="0" width="820" height="491">
<path d="M820 0H0V490.1H820V0Z" fill="white"/>
</mask>
<g mask="url(#mask5_71_937)">
<path d="M-1.1001 117.9C2.1999 120 5.3999 122.2 8.6999 124.3C13.8999 116.6 18.9999 108.9 24.1999 101.2C32.3999 106.7 40.5999 112.3 48.7999 117.8C54.2999 110.1 59.8999 102.4 65.3999 94.7998C73.1999 100.6 80.9999 106.4 88.7999 112.2C83.4999 120.1 78.1999 128.1 72.8999 136C69.5999 133.7 66.3999 131.5 63.0999 129.2" stroke="#F0F0F0" stroke-width="4.12" stroke-miterlimit="10"/>
</g>
<mask id="mask6_71_937" style="mask-type:luminance" maskUnits="userSpaceOnUse" x="0" y="0" width="820" height="491">
<path d="M820 0H0V490.1H820V0Z" fill="white"/>
</mask>
<g mask="url(#mask6_71_937)">
<path d="M36.7999 247.4C27.1999 261.1 17.4999 274.8 7.7999 288.5C7.6999 288.7 6.7999 290.2 4.9999 290.5C3.5999 290.7 2.0999 290.2 1.1999 289C-0.600097 287.7 -2.3001 286.5 -4.1001 285.2" stroke="#C8D2D3" stroke-width="0.52" stroke-miterlimit="10"/>
</g>
<mask id="mask7_71_937" style="mask-type:luminance" maskUnits="userSpaceOnUse" x="86" y="154" width="91" height="43">
<path d="M176.6 154.5H86.8999V196.7H176.6V154.5Z" fill="white"/>
</mask>
<g mask="url(#mask7_71_937)">
<path d="M126.6 156.8C124.1 157.2 122.2 159.4 122 161.9C121.9 164.5 122.9 166.9 123.7 168.6C124.8 170.9 126.3 173.4 127.9 176C128.3 176.6 128.6 177.2 129 177.8C128.1 178.2 127.3 178.5 126.3 178.5C123.9 178.5 121 177.3 117.7 174.7C114.2 171.9 113.8 171.6 113.2 171.1C113 170.9 112.8 170.7 112.4 170.4L109.4 173.9C109.7 174.2 109.9 174.4 110.1 174.5C110.7 175.1 111.2 175.5 114.8 178.3C118.9 181.6 122.8 183.2 126.3 183.1C128.1 183.1 129.7 182.6 131.2 181.8C131.6 182.6 132.1 183.4 132.4 184.2C135.1 189.7 135 192.3 135 192.4V192.3L139.6 192.7C139.6 192.3 139.8 188.8 136.5 182.1C135.9 180.9 135.3 179.7 134.6 178.6C135.4 177.4 136 175.5 136.1 172.9C136.2 170 135.7 166.8 134.7 163.8C132.4 156.6 127.9 156.6 126.6 156.8ZM130.7 165.6C131.8 168.5 132 171.3 131.8 173.5C130.3 171.1 128.9 168.8 127.9 166.7C127.2 165.3 126.6 163.8 126.6 162.2C126.6 162 126.7 161.8 126.9 161.6C127 161.5 127.1 161.5 127.3 161.4C127.6 161.3 128.1 161.5 128.5 161.9C129.1 162.4 129.9 163.5 130.7 165.6Z" fill="#B4CC04"/>
<path d="M128 165.3C127.9 165.7 128.1 166.2 128.4 166.4C128.7 166.6 129.2 166.6 129.6 166.4C129.9 166.2 130.1 165.7 130 165.3" stroke="#1A1A1A" stroke-width="0.26" stroke-miterlimit="10"/>
<path d="M132.8 164.7C132.8 165.2 133.4 165.6 134.1 165.6C134.8 165.6 135.4 165.2 135.4 164.7C135.4 164.2 134.8 163.8 134.1 163.8C133.4 163.8 132.8 164.3 132.8 164.7Z" fill="#F39655"/>
<path d="M122.2 164.7C122.2 165.2 122.8 165.6 123.5 165.6C124.2 165.6 124.8 165.2 124.8 164.7C124.8 164.2 124.2 163.8 123.5 163.8C122.8 163.8 122.2 164.3 122.2 164.7Z" fill="#F39655"/>
<path d="M122.8 162.2C123.2 162.8 124 163.3 124.9 163.3C125.8 163.3 126.6 162.9 127 162.4" stroke="#1A1A1A" stroke-width="0.26" stroke-miterlimit="10"/>
<path d="M130.4 162.2C130.8 162.8 131.6 163.3 132.5 163.3C133.4 163.3 134.2 162.9 134.6 162.4" stroke="#1A1A1A" stroke-width="0.26" stroke-miterlimit="10"/>
<path d="M136.5 171.3C138.6 171.5 140.8 170.9 142.4 169.5C143.5 168.6 144.4 167.3 144.9 165.9C145.3 164.6 145.1 163 146.1 161.9" stroke="#1A1A1A" stroke-width="0.26" stroke-miterlimit="10"/>
<path d="M126.1 172.8C124 173 121.8 172.4 120.2 171C119.1 170.1 118.2 168.8 117.7 167.4C117.3 166.1 117.5 164.5 116.5 163.4" stroke="#1A1A1A" stroke-width="0.26" stroke-miterlimit="10"/>
<path d="M143.2 193C143.1 192.9 142.9 192.7 142.8 192.7C142.5 192.6 142.3 192.6 142 192.6C141.7 192.6 141.4 192.6 141.1 192.5C141 192.5 140.9 192.4 140.7 192.4C140.6 192.3 140.6 192.3 140.6 192.2C140.6 192.1 140.5 192.1 140.5 192.1H140.1C140.3 192.1 140.5 192 140.5 191.7V191.3C140.5 191.1 140.4 190.9 140.1 190.9H135.4C135.2 190.9 135 191 135 191.3V191.7C135 191.9 135.1 192.1 135.4 192.1C135.2 192.1 135 192.2 135 192.5V194.3C135 194.5 135.1 194.7 135.4 194.7H143.1C143.3 194.7 143.5 194.6 143.5 194.3V193.6C143.3 193.2 143.3 193.1 143.2 193Z" stroke="#1A1A1A" stroke-width="0.26" stroke-miterlimit="10"/>
<path d="M107.1 176.1C107.3 176.1 107.5 176.1 107.6 176C107.8 175.9 108.1 175.7 108.3 175.5C108.5 175.3 108.7 175.1 108.9 174.9C109 174.8 109.1 174.8 109.2 174.7C109.3 174.7 109.4 174.7 109.4 174.7C109.5 174.7 109.5 174.7 109.6 174.7L109.9 174.4C109.8 174.5 109.8 174.8 109.9 174.9L110.2 175.2C110.3 175.3 110.6 175.3 110.7 175.2L113.9 171.7C114 171.6 114 171.3 113.9 171.2L113.6 170.9C113.5 170.8 113.2 170.8 113.1 170.9C113.2 170.8 113.2 170.5 113.1 170.4L111.8 169.2C111.7 169.1 111.4 169.1 111.3 169.2L106.1 174.9C106 175 106 175.3 106.1 175.4C106.3 175.6 106.5 175.7 106.6 175.9C106.8 176 106.9 176.1 107.1 176.1Z" stroke="#1A1A1A" stroke-width="0.26" stroke-miterlimit="10"/>
</g>
</g>
</g>
<defs>
<clipPath id="clip0_71_937">
<rect width="820" height="461" fill="white"/>
</clipPath>
</defs>
</svg>
