<?xml version="1.0" encoding="UTF-8"?>
<svg id="_Слой_1" data-name="Слой 1" xmlns="http://www.w3.org/2000/svg" xmlns:xlink="http://www.w3.org/1999/xlink" viewBox="0 0 529.44 320.39">
  <defs>
    <style>
      .cls-1, .cls-2, .cls-3, .cls-4, .cls-5, .cls-6, .cls-7, .cls-8, .cls-9, .cls-10, .cls-11, .cls-12, .cls-13, .cls-14 {
        fill: none;
      }

      .cls-1, .cls-2, .cls-4, .cls-5, .cls-15, .cls-6, .cls-7, .cls-8, .cls-9, .cls-10, .cls-11, .cls-12, .cls-13, .cls-14 {
        stroke-miterlimit: 10;
      }

      .cls-1, .cls-5 {
        stroke-width: .32px;
      }

      .cls-1, .cls-7, .cls-14 {
        stroke: #c8d2d3;
      }

      .cls-2, .cls-4 {
        stroke-width: 1.3px;
      }

      .cls-2, .cls-13 {
        stroke: #eaeeed;
      }

      .cls-16 {
        clip-path: url(#clippath);
      }

      .cls-3, .cls-17, .cls-18, .cls-19, .cls-20, .cls-21, .cls-22 {
        stroke-width: 0px;
      }

      .cls-4, .cls-9 {
        stroke: #f6f5f3;
      }

      .cls-17 {
        fill: #c8d2d3;
      }

      .cls-5, .cls-8, .cls-12 {
        stroke: #fff;
      }

      .cls-23 {
        clip-path: url(#clippath-1);
      }

      .cls-24 {
        clip-path: url(#clippath-4);
      }

      .cls-25 {
        clip-path: url(#clippath-3);
      }

      .cls-26 {
        clip-path: url(#clippath-2);
      }

      .cls-27 {
        clip-path: url(#clippath-7);
      }

      .cls-28 {
        clip-path: url(#clippath-6);
      }

      .cls-29 {
        clip-path: url(#clippath-5);
      }

      .cls-15, .cls-18 {
        fill: #f0f0f0;
      }

      .cls-15, .cls-6, .cls-10 {
        stroke: #f0f0f0;
      }

      .cls-15, .cls-6, .cls-14 {
        stroke-width: .65px;
      }

      .cls-19 {
        fill: #f6f5f3;
      }

      .cls-20 {
        fill: #f39655;
      }

      .cls-21 {
        fill: #b4cc04;
      }

      .cls-7, .cls-9 {
        stroke-width: 1.94px;
      }

      .cls-8, .cls-10, .cls-13 {
        stroke-width: 2.59px;
      }

      .cls-22 {
        fill: #eaeeed;
      }

      .cls-11 {
        stroke: #1a1a1a;
        stroke-width: .16px;
      }

      .cls-12 {
        stroke-width: 3.89px;
      }
    </style>
    <clipPath id="clippath">
      <rect class="cls-3" x="4.97" y="4.63" width="390" height="309"/>
    </clipPath>
    <clipPath id="clippath-1">
      <rect class="cls-3" x="4.99" y="4.64" width="516.92" height="308.99"/>
    </clipPath>
    <clipPath id="clippath-2">
      <rect class="cls-3" x="4.99" y="4.64" width="516.92" height="308.99"/>
    </clipPath>
    <clipPath id="clippath-3">
      <rect class="cls-3" x="4.99" y="4.64" width="516.92" height="308.99"/>
    </clipPath>
    <clipPath id="clippath-4">
      <rect class="cls-3" x="4.99" y="4.64" width="516.92" height="308.99"/>
    </clipPath>
    <clipPath id="clippath-5">
      <rect class="cls-3" x="4.99" y="4.64" width="516.92" height="308.99"/>
    </clipPath>
    <clipPath id="clippath-6">
      <rect class="cls-3" x="4.99" y="4.64" width="516.92" height="308.99"/>
    </clipPath>
    <clipPath id="clippath-7">
      <rect class="cls-3" x="59.74" y="102.01" width="56.53" height="26.6"/>
    </clipPath>
  </defs>
  <g class="cls-16">
    <g>
      <g id="_карта" data-name=" карта">
        <rect class="cls-17" x="4.99" y="4.64" width="516.92" height="308.99"/>
        <path class="cls-22" d="M521.92,220.94v92.68H244.95c4.21-5.64,9.15-12.16,14.77-19.33,4.07-5.19,37.4-41.41,51.14-63.84,5.24-8.57,12.39-15.93,17.15-24.77.23-.43.98-1.87,2.54-3.18,2.13-1.77,4.6-2.35,6.36-2.54,2.57-3.27,6.38-8.29,10.8-14.62,6.05-8.65,6.84-10.65,10.48-14.29,4.8-4.79,10.23-10.2,17.79-10.8,6.27-.49,9.37,2.68,17.47.95,2.48-.53,4.7-1.43,6.39-2.1,3.22-1.27,5.82-2.74,10.92-5.62,6.58-3.73,9.1-5.56,10.52-6.65,1.32-1,2.37-1.88,3.1-2.51,32.52,25.53,65.03,51.07,97.55,76.6h0,0Z"/>
        <path class="cls-22" d="M114.11,313.63H4.99v-83.23c36.38,27.74,72.75,55.49,109.12,83.23Z"/>
        <path class="cls-19" d="M358.98,95.79c-1.48,2.5-3.33,4.14-4.61,5.08-5.77,3.07-11.54,6.14-17.32,9.21-1.14.51-2.95,1.15-5.24,1.27-1.42.07-2.64-.08-3.59-.28-.08,0-.15-.03-.22-.04-1.46-.83-2.92-1.66-4.38-2.5-2.61-1.49-5.23-2.99-7.85-4.48-5.23.87-15.18,1.79-26.52-2.07-6.82-2.31-11.96-5.61-15.4-8.26-19.86-14.24-39.72-28.47-59.57-42.73-2.35-1.68-4.71-3.37-7.06-5.06-2.88-2.07-5.76-4.13-8.65-6.2,3.45-5.24,6.88-10.48,10.32-15.73-8.06-5.76-16.1-11.54-24.14-17.3-37.32,53.3-74.64,106.61-111.96,159.91-.29-.24-.58-.48-.87-.71-1.27,1.68-2.54,3.34-3.81,5.01,1.99,1.35,3.96,2.7,5.95,4.05,1.2-1.37,2.4-2.73,3.61-4.1-.57-.46-1.13-.92-1.7-1.39,31.77-44.79,63.52-89.57,95.29-134.36,9.8,6.94,19.6,13.88,29.4,20.83,2.44,1.74,4.87,3.46,7.32,5.19,33.37,23.65,66.75,47.28,100.13,70.93,1.48,1.05,2.95,2.09,4.42,3.14,6.27,4.44,12.53,8.87,18.8,13.31,1,1.34,3.67,5.26,3.81,10.96.12,5.24-1.96,9.02-2.86,10.48-33.82,47.9-67.63,95.79-101.44,143.68h-117.72c-36.03-26.75-72.08-53.51-108.12-80.28V4.64h354.64c.3,13.85.6,27.72.89,41.57.08,3.88.17,7.78.26,11.65.2,9.09.39,18.19.58,27.29.15,1.76.28,6.18-2.37,10.64h-.01Z"/>
        <path class="cls-19" d="M521.92,4.64v218.74c-14.37-10.91-28.75-21.8-43.12-32.71.22-1.02.44-2.04.66-3.07-31.59-23.58-54.83-41.82-66.17-50.29,0,0-14.08-10.5-19.3-22.86-1.85-4.36-2.83-8.44-3.33-11.92-.61-15.04-1.22-30.08-1.83-45.13-.16-3.94-.32-7.89-.48-11.83-.55-13.65-1.11-27.29-1.66-40.94h135.24-.02,0Z"/>
        <path class="cls-22" d="M420.52,147.33c-1.74,1.72-3.97,3.65-6.76,5.48-4.37,2.85-8.53,4.45-11.67,5.36,6.14-3.61,12.29-7.23,18.44-10.83h0Z"/>
        <path class="cls-19" d="M355.17,46.32c14.14-.32,28.27-.63,42.4-.96-.24,3.97-.48,7.94-.71,11.91-14.53.24-29.06.47-43.59.72.64-3.9,1.27-7.78,1.91-11.67h-.01Z"/>
        <path class="cls-19" d="M196.51,62.28c4.52-6.9,9.05-13.81,13.57-20.72,2.46,1.43,4.93,2.85,7.38,4.29-4.29,6.9-8.57,13.81-12.87,20.72-2.7-1.43-5.4-2.85-8.1-4.29h0Z"/>
        <path class="cls-19" d="M303.71,138.75c7.07-10.72,14.14-21.44,21.2-32.15,1.51.87,3.02,1.75,4.52,2.62-7.07,10.87-14.14,21.75-21.2,32.64-1.51-1.03-3.02-2.07-4.52-3.1h0Z"/>
        <path class="cls-22" d="M113.85,4.64c-4.79,6.42-9.58,12.84-14.38,19.26-1.31,1.19-2.85,2.42-4.61,3.61-6.31,4.23-12.35,5.49-14.93,6.03-9.11,1.94-36.98,8.04-74.96,15.81V4.64h108.88Z"/>
        <path class="cls-19" d="M45.28,4.64c-.99,2.22-3.01,5.84-6.95,8.57-1.42.99-2.83,1.68-4.05,2.14-5.03-3.57-10.06-7.15-15.1-10.71h26.1Z"/>
        <path class="cls-17" d="M93.52,247.97c-.15.07-.32.13-.49.12-.32-.02-.55-.31-.71-.59-.76-1.4-.54-3.24.41-4.52s2.57-2.01,4.16-2.04c.76-.01,1.6.15,2.09.74,3.18,3.81-3.37,5.41-5.46,6.29h-.01Z"/>
        <path class="cls-18" d="M181.85,4.64c-5.38,7.89-10.76,15.77-16.15,23.66-5.6-3.7-11.2-7.4-16.79-11.09.68-1.17,1.35-2.35,2.02-3.53-5.27-3.02-10.54-6.03-15.82-9.06h46.74Z"/>
        <path class="cls-18" d="M63.11,158.52c12.87,9.54,25.76,19.06,38.63,28.6-10.02,13.73-20.04,27.46-30.06,41.21-17.84-12.3-35.68-24.62-53.52-36.92,10.8-15.35,21.6-30.71,32.39-46.05,4.76,3.23,9.53,6.46,14.29,9.69-.58,1.16-1.16,2.33-1.74,3.49h0Z"/>
        <path class="cls-10" d="M66.45,65.37c4.21-5.08,8.42-10.17,12.62-15.24,4.61,3.42,9.21,6.83,13.82,10.24-3.81,5.32-7.62,10.65-11.43,15.96"/>
        <path class="cls-10" d="M19.99,90.39c2.31,1.43,4.61,2.86,6.91,4.29,1.11-1.82,2.23-3.65,3.33-5.47"/>
        <path class="cls-18" d="M65.02,125.41c7.78-10.65,15.57-21.28,23.35-31.93,4.93,3.97,9.85,7.94,14.77,11.91-7.14,10.4-14.29,20.8-21.44,31.21-5.56-3.73-11.11-7.46-16.67-11.19h0Z"/>
        <path class="cls-18" d="M129.25,70.31c-1.01-1.7-1.65-3.85-1.43-5.83.08-.72.28-1.41.65-2.02-3.7-3.05-7.4-6.1-11.1-9.15-7.96,10.5-15.93,21.01-23.9,31.51,5.21,3.58,10.43,7.16,15.64,10.74,6.75-8.36,13.49-16.74,20.24-25.11-.03-.05-.07-.11-.1-.15h0Z"/>
        <path class="cls-10" d="M95.51,104.2c3.26-4.93,6.51-9.85,9.76-14.77"/>
        <path class="cls-10" d="M103.61,99.44c-4.13-2.94-8.25-5.87-12.39-8.82"/>
        <path class="cls-1" d="M34.97,151.94c1.83-2.7,3.65-5.4,5.47-8.1,2.62-.79,5.24-1.59,7.86-2.38,2.7-3.57,5.4-7.15,8.1-10.72.17-.27.83-1.3,2.14-1.67,1.33-.37,2.81.1,3.81,1.2,5.48,3.97,10.95,7.95,16.44,11.91"/>
        <path class="cls-18" d="M83.13,90.87c-12.15,16.36-24.3,32.72-36.44,49.08-1.51.23-4.14.82-6.9,2.62-2.79,1.8-4.42,3.97-5.24,5.24-9.85-5.82-19.69-11.63-29.54-17.46v-22.83c26.04-5.55,52.1-11.09,78.13-16.65h0Z"/>
        <path class="cls-22" d="M62.16,97.54c-3.26,4.44-6.51,8.89-9.76,13.35,1.59.87,3.17,1.75,4.76,2.62,3.1-4.37,6.19-8.74,9.29-13.11-1.43-.96-2.85-1.91-4.29-2.86h0Z"/>
        <path class="cls-22" d="M40.07,109.28c-1.48-1.16-2.96-2.32-4.44-3.49l-2.38,2.7c1.6,1.22,3.19,2.46,4.79,3.68.65-.99,1.33-1.96,2.03-2.9h0Z"/>
        <path class="cls-22" d="M41.38,110.31c-.42.58-.83,1.15-1.24,1.74-.26.37-.53.76-.78,1.15,1.88,1.46,3.76,2.9,5.65,4.36.58-1,1.16-2.01,1.74-3.02-1.79-1.41-3.58-2.82-5.37-4.22h.01Z"/>
        <path class="cls-22" d="M48.02,135.17c-.48,0-1.96.05-3.33,1.11-1.74,1.34-2.02,3.27-2.06,3.65-3.02-.15-6.03-.32-9.06-.48,5.26-7.66,10.53-15.33,15.78-23,2.57,2,5.15,4,7.72,6-3.02,4.24-6.03,8.47-9.06,12.71h0Z"/>
        <path class="cls-18" d="M15.62,122.15c1.48-2.17,2.96-4.34,4.45-6.51,4.45,3.16,8.91,6.32,13.35,9.48,1.31-2,2.64-3.99,3.96-5.99-5.45-4.24-10.9-8.47-16.35-12.71-3.92,5.72-7.83,11.43-11.75,17.15,5.4,3.97,10.8,7.94,16.2,11.91,1.11-1.3,2.22-2.6,3.33-3.9-4.39-3.15-8.78-6.3-13.17-9.45h0,0Z"/>
        <path class="cls-22" d="M5.94,113.89c.59-.74,1.17-1.48,1.75-2.22.95.85,1.89,1.7,2.84,2.54-.59.68-1.16,1.36-1.74,2.04-.95-.79-1.89-1.58-2.85-2.37h0Z"/>
        <path class="cls-18" d="M14.68,172.02c.53.58,1.06,1.17,1.59,1.74-2.23,2.96-4.44,5.93-6.67,8.89-1.53-1.06-3.07-2.12-4.61-3.18v-41.58c7.51,5.35,15.03,10.69,22.54,16.04-4.28,6.04-8.58,12.07-12.85,18.1h0Z"/>
        <path class="cls-22" d="M66.92,82.13c2.43,1.69,4.86,3.39,7.31,5.08.85-1.32,1.69-2.65,2.54-3.97-2.38-1.69-4.76-3.39-7.14-5.08-.9,1.32-1.8,2.65-2.7,3.97h-.01Z"/>
        <path class="cls-22" d="M19.97,80.66c1.66,1.15,3.32,2.31,4.98,3.46.58-.9,1.16-1.81,1.74-2.71l-4.86-3.46c-.61.9-1.23,1.81-1.83,2.71h-.02Z"/>
        <path class="cls-22" d="M71.05,68.63c1,.69,2.01,1.37,3.02,2.07.32-.53.64-1.06.96-1.59-.87-.65-1.75-1.3-2.62-1.94-.45.49-.9.98-1.35,1.46h0Z"/>
        <path class="cls-22" d="M102.5,46.56c.64-1.06,1.27-2.12,1.91-3.17-1.07-.65-2.14-1.29-3.2-1.94-.19.04-.39.08-.58.12-.86.19-1.75.42-2.64.33-.82,1.19-1.65,2.37-2.48,3.56,1.54.9,3.07,1.8,4.61,2.7-.74,1.11-1.48,2.22-2.22,3.33l4.76,3.02c1.11-1.85,2.22-3.7,3.33-5.56-1.16-.79-2.33-1.59-3.49-2.38h0s-.01-.02-.01-.02Z"/>
        <path class="cls-22" d="M105.67,53.23c.47.32.96.63,1.43.96.61-1.33,1.26-2.4,2.25-3.47-.42-.26-1.01-.58-1.44-.83-.64,1.06-1.61,2.29-2.24,3.35h0Z"/>
        <path class="cls-22" d="M85.95,47.73c1.75-.4,3.5-.78,5.26-1.18-.21-.63-.58-1.74-.79-2.37-1.69.26-3.39.67-5.08.94.21,1.01.41,1.61.61,2.62h0Z"/>
        <path class="cls-22" d="M44.84,162c-4.86,7.21-9.73,14.4-14.6,21.61,14.92,10.54,29.85,21.07,44.78,31.6,4.98-6.88,9.95-13.76,14.93-20.65-5.35-3.97-10.69-7.95-16.04-11.91-1.24.05-5.42.08-9.37-2.85-3.35-2.5-4.65-5.74-5.08-6.99-4.87-3.6-9.76-7.21-14.63-10.81h.01Z"/>
        <path class="cls-18" d="M102.65,153.92c.69-1.11,1.37-2.22,2.07-3.34-.4-.68-.96-1.48-1.74-1.62,6.82-9.94,13.65-19.88,20.48-29.82,5.51,3.6,11.01,7.19,16.51,10.8-7.84,11.65-15.68,23.31-23.5,34.96-2.65-1.7-5.29-3.4-7.93-5.1.32-.69.64-1.37.96-2.07-2.28-1.27-4.55-2.54-6.82-3.81h-.01Z"/>
        <path class="cls-10" d="M128.7,124.37c3.02-4.29,6.04-8.57,9.06-12.86"/>
        <path class="cls-10" d="M130.77,117.23c4.07,2.7,8.15,5.4,12.23,8.1"/>
        <path class="cls-18" d="M129.18,110.87c6.86-9.33,13.72-18.67,20.59-28,.71.28,1.41.55,2.13.82.9-1.32,1.8-2.64,2.7-3.94,4.66,3.02,9.32,6.03,13.98,9.06-7.78,11.17-15.57,22.34-23.35,33.51-5.35-3.81-10.69-7.62-16.04-11.43h0Z"/>
        <path class="cls-18" d="M173.48,71.65c4.82-6.4,9.63-12.81,14.46-19.21-3.92-2.75-7.84-5.51-11.76-8.26-4.66,6.72-9.32,13.44-13.98,20.17,3.76,2.43,7.51,4.86,11.27,7.31h0Z"/>
        <path class="cls-18" d="M136.64,30.68c-1.32,2.17-2.65,4.34-3.97,6.51,2.33,1.59,4.66,3.17,6.99,4.76,3.1-3.92,6.2-7.85,9.3-11.76-2.3-1.85-4.62-3.7-6.92-5.55.96-1.37,1.91-2.75,2.85-4.13,3.55,2.7,7.1,5.4,10.65,8.1-3.76,5.45-7.51,10.91-11.27,16.36.03.08.66,1.72-.32,3.02-.85,1.12-2.52,1.51-3.97.79-4.71-3.6-9.43-7.19-14.14-10.8,2.33-3.44,4.66-6.88,6.99-10.33,1.27,1,2.54,2.01,3.81,3.02h0s0,0,0,0Z"/>
        <polygon class="cls-22" points="122.19 23.63 117.81 29.5 122.62 33.09 121.31 34.83 113.04 28.65 120.04 19.27 128.31 25.45 126.99 27.21 122.19 23.63"/>
        <path class="cls-22" d="M153.31,17.81c1.11-1.69,2.23-3.39,3.34-5.08,3.44,2.43,6.88,4.86,10.32,7.31-1.01,1.59-2.01,3.17-3.02,4.76-3.55-2.33-7.1-4.66-10.65-6.99h0Z"/>
        <path class="cls-18" d="M195.32,145.42c1.27-2.3,2.54-4.61,3.81-6.9-2.07-1.91-4.13-3.81-6.19-5.72.37-.6.74-1.21,1.11-1.81-5.45-4.08-10.9-8.17-16.35-12.25-5.99,8.5-11.99,16.99-17.99,25.49,5.12,3.65,10.24,7.31,15.37,10.96.08.52.15,1.03.24,1.55,2.02,1.46,4.05,2.94,6.07,4.4.76-.2,1.51-.4,2.26-.6,5.68,4.29,11.35,8.57,17.03,12.87,1.81-2.26,3.7-4.83,5.56-7.73,2.01-3.11,3.66-6.09,5.04-8.84-5.32-3.81-10.65-7.62-15.96-11.43h0,0Z"/>
        <path class="cls-18" d="M179.84,171.26c-.4-.63-.79-1.27-1.2-1.91-3.02-1.87-6.04-3.74-9.06-5.6-.93-.18-1.87-.35-2.81-.52-4.31-3.38-8.62-6.76-12.93-10.13-4.8,6.93-9.61,13.85-14.41,20.76,10.57,8.18,21.54,15.82,32.15,23.93,3.09,2.37,6.16,4.76,9.24,7.15,2.05-2.87,4.1-5.79,6.15-8.79,3.14-4.6,6.12-9.12,8.96-13.6-5.37-3.76-10.74-7.54-16.11-11.3h0s.02.01.02.01Z"/>
        <path class="cls-18" d="M164.89,206.32c-10.46-7.96-21.23-15.52-31.65-23.54l-16.06,23.13c14.14,8.88,28.28,17.76,42.42,26.64,4.85-5.88,9.82-12.19,14.82-18.87-3.18-2.46-6.35-4.94-9.54-7.37h0Z"/>
        <path class="cls-18" d="M107.94,254.2c.96.9,2.35,1.46,3.6,1.09,1.28-.38,2.14-1.66,2.39-2.97s0-2.66-.29-3.97c-.69-3.01-1.69-6.06-3.79-8.32-1.93-2.07-4.72-3.32-7.56-3.37-.89-.02-1.86.12-2.44.79-.94,1.07-.41,2.9-1.32,3.97-.5.6-1.33.82-1.89,1.37-.81.83-.77,2.22-.24,3.24s1.49,1.76,2.4,2.48c1.86,1.45,3.57,2.37,5.84,2.98,1.87.49,1.9,1.4,3.29,2.73h0Z"/>
        <path class="cls-6" d="M125.52,232.68l2.07,1.27"/>
        <path class="cls-6" d="M123,236.15c.64.37,1.26.74,1.9,1.12"/>
        <path class="cls-18" d="M193.97,287c.16.42.32.85.48,1.27-1.41,1.86-2.82,3.73-4.22,5.58-1.89-1.35-3.79-2.68-5.68-4.04.74-1.02,1.46-2.05,2.2-3.08-1.77-1.14-3.54-2.26-5.32-3.39-.63.8-1.27,1.59-1.91,2.39.48.69.96,1.37,1.43,2.05-.74,1.17-1.49,2.33-2.23,3.5-.95.16-1.91.32-2.85.48-.96,1.32-1.91,2.65-2.85,3.96,1.68,1.17,3.39,2.33,5.07,3.5,1.02-1.2,2.05-2.4,3.07-3.61,1.68,1.17,3.38,2.36,5.07,3.53-3.65,4.82-7.29,9.65-10.94,14.48h-2.93l-61.13-41.87c3.93-5.73,7.84-11.43,11.76-17.15,1.37,1.22,2.75,2.44,4.13,3.64-.69,1.01-1.37,2.02-2.06,3.02,1.85,1.33,3.7,2.65,5.56,3.97.96-1.17,1.93-2.33,2.9-3.48-.12-.74-.24-1.48-.37-2.23l1.76-2.57,3.16.35c.69-1.11,1.37-2.23,2.07-3.34-3.97-3.18-7.95-6.35-11.91-9.52,3.16-4.49,6.35-9,9.52-13.5,6.35,4.18,12.71,8.36,19.06,12.54-.08.24-.51,1.71.32,3.18.68,1.19,1.74,1.63,2.07,1.74,13.87,9.63,27.73,19.27,41.6,28.9-2.28,3.23-4.55,6.46-6.84,9.69h-.01,0Z"/>
        <path class="cls-19" d="M191.11,250.15c14.13-19.8,28.27-39.6,42.4-59.4-5.62-9.85-11.22-19.69-16.84-29.54-16.94,24.4-33.87,48.81-50.82,73.21,8.41,5.24,16.83,10.48,25.25,15.73h0Z"/>
        <path class="cls-10" d="M263.45,159.47c3.97,2.78,7.95,5.55,11.91,8.34-7.14,10.8-14.29,21.6-21.44,32.4-3.97-2.7-7.95-5.4-11.91-8.1"/>
        <path class="cls-10" d="M264.88,183.29c-3.81-2.62-7.62-5.24-11.43-7.86"/>
        <path class="cls-22" d="M235.58,185.92c-.96-2.38-1.91-4.76-2.85-7.15,1.67,1.11,3.34,2.23,5.01,3.34-.71,1.27-1.43,2.54-2.14,3.81h-.01Z"/>
        <path class="cls-18" d="M229.15,149.94c-2.54,3.49-5.08,6.99-7.62,10.48,2.23,4.21,4.45,8.41,6.67,12.62,3.72,2.34,7.45,4.68,11.16,7.01,3.66-5.04,7.32-10.08,10.99-15.12-7.07-5.01-14.13-10.01-21.2-15.01h0Z"/>
        <path class="cls-10" d="M195.32,255.23c4.45,2.78,8.89,5.56,13.35,8.34,11.27-16.35,22.55-32.71,33.82-49.07-3.81-2.78-7.62-5.55-11.43-8.34"/>
        <path class="cls-10" d="M219.65,247.64c-4.05-2.87-8.12-5.73-12.18-8.6"/>
        <path class="cls-10" d="M230.44,231.28c-4.05-2.87-8.12-5.73-12.18-8.6"/>
        <path class="cls-22" d="M191.43,240.63c1.32-1.7,2.65-3.39,3.97-5.08-4.49-3.29-9-6.56-13.5-9.85-1.32,1.64-2.65,3.29-3.97,4.93,4.49,3.34,9,6.67,13.5,10.01h0Z"/>
        <path class="cls-22" d="M203.66,225.69c1.27-1.74,2.54-3.49,3.81-5.24-1.85-1.27-3.71-2.54-5.55-3.81-1.22,1.59-2.43,3.18-3.65,4.76,1.8,1.43,3.6,2.85,5.4,4.29Z"/>
        <path class="cls-13" d="M202.23,219.18c1.48-2.07,2.96-4.13,4.45-6.19"/>
        <path class="cls-22" d="M197.94,215.69c3.29.1,6.56.21,9.85.32,3.49-4.82,6.99-9.63,10.48-14.46-5.93-3.97-11.85-7.95-17.79-11.91-4.29,6.19-8.57,12.39-12.87,18.58,3.44,2.49,6.88,4.98,10.32,7.46h0Z"/>
        <path class="cls-19" d="M193.34,206.79c1.43-1.85,2.85-3.71,4.29-5.55,2.23,1.59,4.45,3.18,6.67,4.76-1.32,2.01-2.65,4.02-3.97,6.04-2.33-1.74-4.66-3.49-6.99-5.24h0Z"/>
        <path class="cls-22" d="M186.48,211.97c-.84-.62-1.68-1.23-2.52-1.85-1.27,1.74-2.54,3.49-3.81,5.24.69.58,1.37,1.16,2.07,1.74,1.37-1.75,2.87-3.4,4.26-5.14h0Z"/>
        <path class="cls-22" d="M187.83,212.96c-1.41,1.76-2.95,3.44-4.33,5.23.9.76,1.8,1.51,2.7,2.27,1.43-1.85,2.85-3.71,4.29-5.55-.88-.65-1.76-1.29-2.65-1.94h0Z"/>
        <path class="cls-22" d="M196.35,228.24c.59-.9,1.16-1.8,1.74-2.7-1.22-1.06-2.43-2.12-3.65-3.18-.69.9-1.37,1.8-2.07,2.7,1.32,1.06,2.65,2.12,3.97,3.18h0Z"/>
        <path class="cls-22" d="M210.17,180.28c3.18-2.01,6.35-4.02,9.52-6.04,2.91,4.49,5.82,9,8.74,13.5-3.23,1.96-6.46,3.92-9.69,5.87-2.85-4.45-5.72-8.89-8.57-13.35h0Z"/>
        <path class="cls-22" d="M208.26,173.92c.53.9,1.06,1.8,1.59,2.7,1.54-.85,3.07-1.7,4.61-2.54l-1.24-2.49c-1.65.77-3.3,1.55-4.95,2.32h0Z"/>
        <path class="cls-22" d="M213.82,168.37c.8,1.62,1.62,3.23,2.42,4.85.65-.35,1.3-.7,1.95-1.04-.82-1.57-1.64-3.12-2.46-4.68-.63.29-1.27.59-1.91.87h0Z"/>
        <path class="cls-22" d="M281,145.02c.85-1.27,1.7-2.54,2.55-3.81,1.33,1.01,2.65,2.01,3.97,3.02-.85,1.16-1.7,2.33-2.55,3.49-1.33-.9-2.65-1.8-3.97-2.7h0Z"/>
        <path class="cls-22" d="M238.19,107.92c-.08-.07-.15-.13-.24-.19-.04-.03-.07-.06-.11-.08-.01,0-.02-.02-.03-.03-.32-.25-.65-.5-.99-.74-.52-.37-1.05-.74-1.57-1.09-.26.39-.52.79-.79,1.18,1.32.9,2.65,1.8,3.97,2.7.09-.11.18-.24.26-.36-.2-.42-.32-.87-.41-1.33-.03-.03-.06-.05-.09-.07h0,0Z"/>
        <path class="cls-22" d="M237.01,103.17c-.27.41-.54.82-.82,1.22,1.07.72,2.11,1.46,3.1,2.26.06-.02.12-.04.18-.06.24-.05.48-.07.72-.07.17,0,.31.06.43.14.12-.16.24-.33.35-.5-1.32-1-2.65-2.01-3.97-3.02h0Z"/>
        <path class="cls-10" d="M275.28,148.83c3.49,2.23,6.99,4.45,10.48,6.67,3.86-5.82,7.73-11.65,11.59-17.47-6.88-4.98-13.77-9.95-20.64-14.93-4.02,5.93-8.05,11.85-12.07,17.79"/>
        <path class="cls-10" d="M245.27,124.06c4.4,3.44,8.79,6.88,13.18,10.33,3.49-5.55,6.99-11.11,10.48-16.67-4.92-3.76-9.85-7.51-14.77-11.28-1.54,1.96-3.07,3.92-4.61,5.87"/>
        <path class="cls-10" d="M241.78,112.15c2.07-2.96,4.13-5.93,6.19-8.89-3.76-2.75-7.51-5.5-11.27-8.25-1.91,2.65-3.81,5.29-5.72,7.94"/>
        <path class="cls-19" d="M216.21,152.01c-8.15-13.35-16.3-26.68-24.46-40.03,1.91-2.75,3.81-5.5,5.72-8.25l34.3,25.41c-5.18,7.62-10.37,15.24-15.57,22.87h0,0Z"/>
        <path class="cls-10" d="M229.39,110.08c3.86,2.96,7.73,5.93,11.59,8.89"/>
        <path class="cls-10" d="M207.79,92.93c3.97,2.6,7.95,5.18,11.91,7.78,2.43-4.18,4.87-8.36,7.31-12.54-3.39-2.38-6.77-4.76-10.16-7.14l-3.34,5.56"/>
        <path class="cls-10" d="M212.71,77.37c-1.91-1.43-3.81-2.86-5.72-4.29-3.07,4.18-6.14,8.36-9.21,12.54"/>
        <path class="cls-13" d="M193.81,94.68c-2.91,4.24-5.82,8.47-8.74,12.71"/>
        <path class="cls-18" d="M246.18,208.78c.83.68,1.67,1.35,2.5,2.02.4-.63.79-1.27,1.2-1.91-.85-.65-1.7-1.3-2.54-1.95-.38.61-.76,1.22-1.15,1.82h0Z"/>
        <path class="cls-18" d="M224.74,215.91c.83.68,1.67,1.35,2.5,2.02.4-.63.79-1.27,1.2-1.91-.85-.65-1.7-1.3-2.54-1.95-.38.61-.76,1.22-1.15,1.82h0Z"/>
        <path class="cls-18" d="M202.45,248.13c.83.68,1.67,1.35,2.5,2.02.4-.63.79-1.27,1.2-1.91-.85-.65-1.7-1.3-2.54-1.95-.38.61-.76,1.22-1.15,1.82h0Z"/>
        <path class="cls-22" d="M171.64,243.77c.83.68,1.67,1.35,2.5,2.02.4-.63.79-1.27,1.2-1.91-.85-.65-1.7-1.3-2.54-1.95-.38.61-.76,1.22-1.15,1.82h0Z"/>
        <path class="cls-18" d="M213.56,232.47c.83.68,1.67,1.35,2.5,2.02.4-.63.79-1.27,1.2-1.91-.85-.65-1.7-1.3-2.54-1.95-.38.61-.76,1.22-1.15,1.82h0Z"/>
        <path class="cls-18" d="M183.65,252.14c.83.68,1.67,1.35,2.5,2.02.4-.63.79-1.27,1.2-1.91-.85-.65-1.7-1.3-2.54-1.95-.38.61-.76,1.22-1.15,1.82h0Z"/>
        <path class="cls-10" d="M307.2,188.38c-6.08-4.18-12.17-8.37-18.26-12.54"/>
        <path class="cls-10" d="M299.58,198.22c.79-1.11,1.59-2.23,2.38-3.34"/>
        <path class="cls-10" d="M292.75,207.43c.9-1.11,1.8-2.23,2.7-3.34"/>
        <path class="cls-18" d="M275.76,199.97c-1.16-.85-2.33-1.7-3.49-2.54,4.39-6.19,8.79-12.39,13.18-18.58,1.22.79,2.43,1.59,3.65,2.38-1.27,1.85-2.55,3.71-3.81,5.55-1.99-.15-3.39.34-3.49.96-.09.53.77,1.24,1.91,1.74,3.02,2.01,6.04,4.02,9.05,6.04-.74,1.27-1.48,2.54-2.23,3.81-2.96-1.7-5.93-3.39-8.89-5.08-.98-1.81-2.04-3.04-2.55-2.85-.52.19-.52,1.9,0,4.13-1.11,1.48-2.23,2.96-3.33,4.45h-.01Z"/>
        <path class="cls-10" d="M288.3,215.21c-5.98-4.29-11.96-8.57-17.95-12.87"/>
        <path class="cls-18" d="M258.29,216.65c2.11,1.37,4.24,2.75,6.36,4.13,1.33-1.74,2.65-3.49,3.97-5.24-1.74-1.8-3.49-3.6-5.24-5.4-1.7,2.17-3.39,4.34-5.08,6.51h0Z"/>
        <path class="cls-10" d="M261.3,252.22c-5.51-4.02-11.01-8.04-16.51-12.07"/>
        <path class="cls-19" d="M161.5,278.58c2.62-3.49,5.24-6.99,7.86-10.48-3.9-2.78-7.78-5.55-11.68-8.34-2.62,3.81-5.24,7.62-7.86,11.43,3.9,2.46,7.78,4.92,11.68,7.39Z"/>
        <path class="cls-2" d="M166.5,277.39c.9.77,1.8,1.54,2.7,2.3"/>
        <path class="cls-9" d="M148.49,274.31c-1.26-.85-2.5-1.7-3.75-2.55"/>
        <path class="cls-4" d="M163.16,284.3c-1.4-.95-2.79-1.9-4.18-2.85"/>
        <path class="cls-10" d="M270.14,235.23c1.78-2.92,3.55-5.84,5.33-8.76-2.11-2.28-4.64-5.05-7.33-6.59"/>
        <path class="cls-13" d="M265.8,224.75c.26.9.89,1.68,1.7,2.12"/>
        <path class="cls-13" d="M263,228.99l2.37,1.68"/>
        <path class="cls-13" d="M259.36,232.41c.55.48,1.11.96,1.66,1.43"/>
        <path class="cls-10" d="M246.94,272.1c1.1-1.44,2.2-2.87,3.29-4.32"/>
        <path class="cls-10" d="M253.44,262.36c1.1-1.44,2.2-2.87,3.3-4.32"/>
        <path class="cls-10" d="M228.61,298.79c1.1-1.44,2.2-2.87,3.29-4.32"/>
        <path class="cls-10" d="M235.12,289.06c1.1-1.44,2.2-2.87,3.29-4.32"/>
        <path class="cls-10" d="M232.72,271.91c3.66,3.08,7.34,6.17,10.99,9.25"/>
        <path class="cls-10" d="M235.65,253.72c3.29,2.68,6.56,5.37,9.85,8.05"/>
        <path class="cls-10" d="M213.25,298.53c3.38,3.27,7.06,6.26,10.98,8.88"/>
        <path class="cls-10" d="M217.3,280.88c2.9,2.35,5.8,4.69,8.71,7.04"/>
        <path class="cls-13" d="M227.48,278.58c1.67,1.35,3.34,2.7,5.01,4.05"/>
        <path class="cls-13" d="M237.49,265.48c1.27.95,2.54,1.91,3.81,2.86"/>
        <path class="cls-10" d="M238.67,250.47c1.24-1.71,2.49-3.41,3.74-5.12"/>
        <path class="cls-10" d="M228.11,264.92c1.24-1.7,2.49-3.42,3.74-5.12"/>
        <path class="cls-10" d="M219.65,275.59c1.24-1.7,2.49-3.42,3.74-5.12"/>
        <path class="cls-10" d="M209.88,290.49c1.24-1.7,2.49-3.42,3.74-5.12"/>
        <g class="cls-23">
          <g>
            <path class="cls-19" d="M478.24,115.64c9.7-2.81,19.39-5.61,29.08-8.42,2.8,11.17,5.6,22.34,8.4,33.51-8.36,1.22-16.73,2.43-25.09,3.65-.76-1.1-1.55-2.21-2.38-3.34-1.33-1.8-2.65-3.49-3.97-5.08-2.01-6.77-4.02-13.55-6.04-20.32h0Z"/>
            <path class="cls-7" d="M341.11,313.62c-.08-2.05-.33-4.98-1.2-8.36-.61-2.44-1.55-6.04-4.05-10.01-.39-.61-2.38-3.71-5.96-6.9-3.77-3.37-5.23-3.22-6.43-5.48-1.45-2.72-.61-5.35.07-9.21.89-5.04.5-10.22.89-15.32.44-5.99-1.51-15.52-12.15-30.97"/>
            <path class="cls-7" d="M338.49,300.53c1.65-.72,4.23-2.07,6.67-4.56,3.46-3.53,4.8-7.45,5.48-9.52,1.62-4.95.4-5.78,1.91-8.82.45-.9,1.96-3.84,9.3-7.62,4.89-2.52,12.51-6.45,22.6-6.05,6.2.24,7.16,1.87,15.52,2,6.29.09,5.96-.83,10.48-.48,7.82.61,9.27,3.4,17.62,4.05,4.4.33,7.84.56,10.01-1.67.52-.52,1.13-1.42,2.14-9.52.58-4.65.86-6.99.48-8.1-1.67-4.73-6.82-4.6-7.14-8.1-.05-.57.06-.87,4.05-8.1,1.56-2.82,1.89-3.45,1.91-4.52.02-2.48-1.93-4.01-4.05-6.43-1.68-1.93-3.83-4.84-5.72-9.05"/>
            <path class="cls-17" d="M442.14,304.75c-.73.45-1.53.81-2.14,1.42-1.41,1.41-1.52,3.95-3.27,4.9-1.46.8-3.25.03-4.92-.04-1.32-.06-2.61.33-3.93.35-1.48,0-2.9-.48-4.3-.96-1.36-.46-2.86-1.04-3.55-2.3-1.02-1.88.4-4.35,2.37-5.18s4.23-.5,6.33-.09c2.11.42,4.3.89,6.36.3,1.27-.36,2.4-1.11,3.64-1.61,2.86-1.15,7.6.62,3.42,3.24h0Z"/>
            <path class="cls-17" d="M521.92,265.25v4.56c-1.09-.22-2.13-.63-3.05-1.23-.94-.61-1.84-1.85-1.2-2.76.42-.61,1.28-.69,2.01-.6.73.09,1.48.29,2.18.05.02,0,.04-.02.06-.02h0Z"/>
            <path class="cls-17" d="M482.04,230.87c1.24,2.46,2.93,5.3,1.68,7.76-.76,1.49-2.38,2.3-3.98,2.78-5.12,1.51-10.62.41-15.73-1.12-3.12-.94-6.32-2.12-8.55-4.49-4.08-4.34-3.7-11.23-1.92-16.91,1.35-4.31,3.4-8.53,6.77-11.54,3.36-3.01,8.2-4.63,12.52-3.34,4.76,1.42,6.96,5.85,6.88,10.54-.11,5.85-.42,10.9,2.32,16.34h0Z"/>
            <path class="cls-7" d="M428.09,207.74c-12.52-2.94-20.89-1.14-26.24,1.04-6.23,2.55-8.05,5.53-15.73,7.38-8.8,2.13-16.02.54-16.44,2.38-.33,1.49,4.43,2.37,7.75,7.71.69,1.11,3.45,5.55,1.78,9.21-.46,1.01-1.36,2.18-4.05,3.57-6.71,3.48-10.8,1.23-15.96,3.34-4.77,1.96-5.45,5.6-9.06,9.67-3.92,4.42-11.17,9.22-25.89,10.12"/>
            <path class="cls-10" d="M469.03,151.37c-1.43-1.24-2.86-2.49-4.3-3.73-1.14-.99-1.96-2.28-2.4-3.72-1.42-4.77-2.85-9.54-4.27-14.31-.08-.3-.43-1.83.48-3.33.69-1.13,1.7-1.6,2.07-1.75,4.71-1.37,9.42-2.75,14.14-4.13"/>
            <path class="cls-10" d="M485.99,153.66c5.25-1.66,10.5-3.32,15.75-4.99"/>
            <path class="cls-13" d="M497.29,166.05c2.17.3,4.34.62,6.52.92"/>
            <path class="cls-22" d="M490.48,122.78c.35,2.18.98,4.33,1.87,6.36,5.92-1.4,11.43-2.81,16.99-5.31-.73-2.02-1.02-4.11-1.75-6.12-5.78,1.71-11.33,3.36-17.11,5.07h0Z"/>
            <path class="cls-18" d="M447.11,128.5c2.54,6.34,5.64,12.45,9.23,18.25-.77.91-1.7,1.72-2.88,1.93-7.55-2.55-14.11-7.07-19.39-13.04,2.07-.96,4.29-1.92,6.36-2.88-.08.76.85,1.89,1.61,1.91s1.48-.61,1.58-1.37-.33-1.54-1.02-1.87c1.64-1.02,2.88-1.92,4.52-2.94h0Z"/>
            <path class="cls-10" d="M463.77,66.89c-1.02-3.12-2.05-6.25-3.08-9.37,10.08-3.26,20.17-6.51,30.26-9.76,2.23,6.43,4.45,12.87,6.67,19.3-1.27.39-2.55.79-3.81,1.19"/>
            <path class="cls-10" d="M470.78,88.22c-1.48-4.5-2.95-9-4.43-13.5"/>
            <path class="cls-10" d="M497.12,79.15c1.27-.41,2.53-.82,3.8-1.22,1.83,6.32,3.9,12.74,6.05,18.96-10.11,3.07-20.22,6.16-30.33,9.24-.98-3-1.98-6.01-2.96-9.02"/>
            <path class="cls-22" d="M440.58,95.42c.89,3.18,1.77,6.35,2.65,9.52-1.78,1.13-3.55,2.02-5.65,2.11-.89-3.18-1.83-6.32-2.72-9.5,2.09-1.07,3.64-1.07,5.73-2.15h0Z"/>
            <path class="cls-13" d="M435.68,83.72c.64,1.64,1.27,3.29,1.91,4.93"/>
            <path class="cls-13" d="M431.22,84.84l.8,2.86"/>
            <path class="cls-10" d="M516,172.11c2.31-5.55,4.62-11.11,6.93-16.66-3.71-2.26-7.28-4.72-10.99-6.98"/>
            <path class="cls-22" d="M487,133.74c.52,1.54,1.04,3.07,1.56,4.62,3.45-1.16,6.89-2.33,10.33-3.49,5.23,1.85,10.48,3.7,15.72,5.55.57-1.79,1.12-3.59,1.68-5.38-5.23-2.02-10.44-4.04-15.67-6.05-4.55,1.59-9.08,3.18-13.64,4.76h0Z"/>
            <path class="cls-10" d="M447.59,73.24c-1.74-4.93-3.49-9.85-5.24-14.77"/>
            <path class="cls-10" d="M438.54,60.38c-7.62.63-15.24,1.27-22.87,1.91-.65.28-2.42,1.11-3.58,3.09-1.71,2.96-.64,6-.48,6.43.71,4.13,1.43,8.25,2.14,12.39,2.23-.56,4.45-1.11,6.67-1.67"/>
            <path class="cls-10" d="M422.1,93.72c-2.55-.24-5.08-.47-7.62-.71.04,1.11-.05,2.83-.71,4.76-.91,2.64-2.44,4.37-3.33,5.25.29,1.32,2.38,10.35,11.2,15,6.86,3.63,13.46,2.32,15.24,1.91,7.16-2.79,14.32-5.59,21.48-8.38-1.05-3.64-2.09-7.28-3.14-10.92"/>
            <path class="cls-15" d="M471.41,63.47c3.42,10.56,6.83,21.12,10.24,31.68,4.84-1.59,9.69-3.18,14.53-4.76-3.33-10.4-6.67-20.8-10.01-31.21-4.92,1.43-9.85,2.85-14.77,4.29h0Z"/>
            <path class="cls-10" d="M525.96,76.58c-2.7,1.03-5.4,2.07-8.1,3.1-1.91-6.99-3.81-13.97-5.72-20.96,3.9-1.43,7.78-2.85,11.67-4.29"/>
            <path class="cls-18" d="M521.92,112.78v6.05c-1.74-.35-3.5-.69-5.24-1.05.23-1.66.48-3.33.72-5h4.53,0Z"/>
            <path class="cls-10" d="M511.67,179.72c-2.3,2.3-4.61,4.61-6.9,6.9-10.08-7.62-20.17-15.24-30.26-22.87,2.23-2.94,4.45-5.87,6.67-8.82"/>
            <path class="cls-10" d="M416.62,27.26c-.03.16-.4,1.75-1.91,2.38-1.27.54-2.82.16-3.81-.95-4.29-3.49-8.58-6.99-12.86-10.48,3.97-4.29,7.95-8.57,11.91-12.86"/>
            <path class="cls-18" d="M451.4,27.27c-.92,1.31-2.31,1.6-2.62,1.66-6.27,1.43-12.54,2.85-18.82,4.28-1.24.28-2.45-.08-3.1-.95-.39-.53-.48-1.1-.48-1.43-.08-8.73-.16-17.47-.23-26.2h22.72c1,6.27,1.99,12.54,2.99,18.82.07.19.71,2.11-.48,3.82h0Z"/>
            <path class="cls-18" d="M485.47,19.4c-1.31,1.66-3.32,1.67-3.57,1.67-5.24,1.66-10.49,3.34-15.73,5-1.16.76-2.65.64-3.57-.24-.74-.72-1.02-1.83-.72-2.85-.8-6.12-1.61-12.23-2.42-18.34h23.09c1.14,3.33,2.26,6.67,3.39,10,.76,1.59.57,3.44-.48,4.76h0Z"/>
            <path class="cls-18" d="M520.97,4.64c-6.44,3.5-12.86,6.99-19.32,10.48-.43.14-1.45.39-2.61,0-2.13-.69-2.8-2.87-2.87-3.1l-2.85-7.39h27.65Z"/>
            <path class="cls-10" d="M402.09,41.56c2.3-.24,4.61-.47,6.9-.72"/>
            <path class="cls-10" d="M419.48,12.97c.08,1.51.15,3.02.24,4.52"/>
            <path class="cls-10" d="M324.67,79.43c-.32,4.84-.64,9.69-.95,14.53-7.78-.71-15.57-1.43-23.35-2.14"/>
            <path class="cls-10" d="M303.47,77.76c.24-4.68.48-9.37.71-14.06,7.7.39,15.4.79,23.11,1.19"/>
            <path class="cls-10" d="M292.75,60.38c-6.9-2.38-13.82-4.76-20.72-7.15-1.43,3.42-2.86,6.83-4.29,10.24"/>
            <path class="cls-10" d="M289.42,75.86c-2.55,3.49-5.08,6.99-7.62,10.48-4.61-2.94-9.21-5.87-13.82-8.82"/>
            <path class="cls-10" d="M257.02,59.42c-1.74,2.14-3.49,4.29-5.24,6.43-6.12-4.61-12.23-9.21-18.34-13.81"/>
            <path class="cls-10" d="M263.21,47.75c-7.62-5.47-15.24-10.95-22.87-16.44-2.62,3.49-5.24,6.99-7.86,10.48"/>
            <path class="cls-13" d="M310.63,73.88c2.3.29,4.6.57,6.89.86"/>
            <path class="cls-10" d="M322.3,73.05c1.9.14,3.8.29,5.7.43"/>
            <path class="cls-10" d="M352.54,72.99c1.11.15,2.23.32,3.33.47"/>
            <path class="cls-10" d="M291.1,70.53c1.27.26,2.53.52,3.8.78"/>
            <path class="cls-10" d="M259.16,56.33l2.38,1.91"/>
            <path class="cls-10" d="M251.5,52.02l1.19-1.91"/>
            <path class="cls-10" d="M341.58,18.69c-.04,5.64-.08,11.28-.11,16.92"/>
            <path class="cls-10" d="M341.49,32.03c-4.48.54-10.58.97-17.77.47-2.37-.16-12.98-.98-26.44-5.72-16.97-5.97-29.92-15.15-38.59-22.63"/>
            <path class="cls-10" d="M257.73,8.68c1.91-1.51,3.81-3.02,5.72-4.53"/>
            <path class="cls-10" d="M281.79,23.93c2.55-4.76,5.08-9.52,7.62-14.29"/>
            <path class="cls-10" d="M313.47,35.13c.71-5.96,1.43-11.91,2.14-17.86"/>
            <path class="cls-18" d="M344.72,4.64c-.08,1.74-.17,3.5-.27,5.24-4.53-.24-9.05-.48-13.58-.72.05-1.51.09-3.01.14-4.53h13.71Z"/>
            <path class="cls-13" d="M331.58,26.03l1.91.24"/>
            <path class="cls-13" d="M331.58,20.13c.98-.37,2.11-.39,3.1-.05"/>
            <path class="cls-13" d="M322.77,18.21v2.38"/>
            <path class="cls-22" d="M314.41,7.99c.95.8,1.9,1.6,2.85,2.4-.32-1.74-.36-3.77-.68-5.51-.17,1.37-.83,2.78-2.16,3.12h-.01Z"/>
            <path class="cls-22" d="M313.46,9.18l2.37,2.39c-2.02.27-4.1.18-5.92-.76,1.29-.24,2.7-.64,3.55-1.62h0Z"/>
            <path class="cls-22" d="M303.53,16.3c.15,2.23.3,4.44.45,6.67-.2-.85,1.57-1.9,2.22-1.31s.07,1.91-.8,1.83c.15.28.29,1.02.43,1.31.8-.13,1.61-.26,2.4-.39.09-1.43-.09-2.62,0-4.05-2.2.49-4.92-1.81-4.71-4.06,0,0,0,0,0,0Z"/>
            <path class="cls-22" d="M302.1,19.65c-.16.95-.33,1.9-.48,2.85-.56-1.27-1.99-1.91-3.38-1.88v-2.17c1.2.32,2.68.89,3.87,1.2h-.01Z"/>
            <path class="cls-22" d="M307.5,6.76c-.71,1.11-1.43,2.22-2.14,3.33-1.35-.27-2.59-.92-3.55-1.9,2.2.41,4.07.1,5.69-1.44,0,0,0,0,0,0Z"/>
            <path class="cls-22" d="M301.57,4.87c-.71.87-1.43,1.74-2.14,2.62-1.45-.66-2.71-1.75-3.6-3.08,2.07.68,3.61.91,5.74.46h0Z"/>
            <path class="cls-22" d="M278.79,4.64c1.08,1.56,2.48,2.81,4.14,3.81.08-1.65,1.2-3.18,2.73-3.81h-6.87Z"/>
          </g>
        </g>
        <g class="cls-26">
          <g>
            <path class="cls-5" d="M162.21,315.03c-18.74-14.21-37.48-28.42-56.22-42.64,10.65-15.09,21.28-30.17,31.93-45.26,23.42,16.35,46.85,32.72,70.27,49.07-8.82,12.86-17.62,25.73-26.44,38.59"/>
            <path class="cls-5" d="M156.01,313.62c-50.66-38.29-101.32-76.56-151.98-114.84"/>
            <path class="cls-5" d="M105.27,204.02c10.08,7.07,20.17,14.13,30.25,21.2-10.48,15.24-20.96,30.49-31.44,45.74-31.84-23.98-63.69-47.96-95.53-71.94,8.02-12.15,16.04-24.3,24.06-36.45.46-1.24.92-2.95.96-5.01.08-4.9-2.33-8.46-3.33-9.76-8.89-6.1-17.77-12.19-26.67-18.29"/>
            <path class="cls-5" d="M3.32,195.2c.87.63,1.74,1.27,2.62,1.91,8.1-11.91,16.2-23.82,24.3-35.74.39-1.03,1.15-3.43.59-6.43-.65-3.51-2.68-5.68-3.45-6.43-7.7-5.32-15.4-10.65-23.1-15.96"/>
            <path class="cls-5" d="M180.79,90.63c-26.84-19.14-53.68-38.27-80.52-57.41-1.99,1.28-4.28,2.59-6.9,3.81-4.4,2.05-8.5,3.28-11.91,4.05-4.44.96-8.89,1.91-13.35,2.85-21.4,4.56-42.69,8.92-63.84,13.1"/>
            <path class="cls-5" d="M181.81,88.55c-26.62-19.08-53.24-38.16-79.87-57.24,2.42-2.53,4.9-5.31,7.39-8.34,2.03-2.47,3.44-4.35,4.29-5.48,3.64-4.85,7.95-10.56,13.11-17.4"/>
            <path class="cls-5" d="M4.03,54.66c17.57-3.03,35.61-6.51,54.07-10.48,9.28-2,18.42-4.06,27.4-6.19,2.11-.57,4.6-1.42,7.25-2.67,2.07-.99,3.86-2.04,5.37-3.04"/>
            <path class="cls-5" d="M99.56,30.36c2.36-2.53,4.75-5.23,7.14-8.1,5.39-6.47,9.95-12.81,13.82-18.82"/>
            <path class="cls-5" d="M118.14,3.68c-5.47,6.99-10.96,13.98-16.44,20.96-1.07,1.41-2.46,2.99-4.29,4.52-4.05,3.41-8.24,4.97-10.96,5.72-11.72,3.07-23.87,6.03-36.44,8.81-15.74,3.5-31.01,6.49-45.74,9.06"/>
            <path class="cls-5" d="M200.8,65.86c34.79,24.38,69.57,48.77,104.37,73.16"/>
            <path class="cls-5" d="M306.31,137.31c-34.52-24.37-69.02-48.75-103.53-73.12"/>
            <path class="cls-5" d="M330.15,55.61c.87.53,3.11,2.06,4.29,5.01.65,1.63.74,3.1.71,4.05.11,6-.32,13.89-2.38,22.87-2.01,8.77-4.97,15.92-7.62,21.2-4.48,6.9-9.01,13.81-13.58,20.72-33.34,50.44-67.41,98.69-101.96,144.84-34.54-24.22-69.09-48.44-103.62-72.65"/>
            <path class="cls-5" d="M184.6,315.27c10.36-14.64,23.8-33.62,33.51-47.33,47.42-66.92,72.71-102.35,105.14-152.07,1.76-2.7,3.18-4.89,4.02-6.18,2.92-5.64,6.14-13.18,8.36-22.4,2.49-10.33,2.95-19.47,2.73-26.44-.05-1.62.74-3.17,2.15-3.95.02,0,.02-.01.03-.02,1.77-.96,3.46-.87,4.13-.79"/>
            <path class="cls-5" d="M323,55.37c-.83.63-2.36,1.63-4.52,2.14-2.42.57-4.43.24-5.48,0-6.4-.9-13.68-2.42-21.52-4.92-15.18-4.86-27.01-11.74-35.42-17.62-.52-.33-1.62-1.1-2.38-2.54-.67-1.25-.78-2.41-.79-3.02"/>
            <path class="cls-5" d="M250.67,27.98c0,1,.15,2.81,1.11,4.76.7,1.42,1.59,2.41,2.23,3.02,6.04,4.49,13.86,9.47,23.51,13.81,13.92,6.28,26.64,8.96,36.05,10.17,1.54.1,3.92.06,6.67-.79,2.14-.67,3.8-1.61,4.92-2.38"/>
            <path class="cls-5" d="M325.15,50.37c-.48-.33-1.24-.81-2.23-1.27-2.65-1.26-4.95-1.51-5.56-1.58-2.74-.33-17.28-2.62-25.41-5.24,0,0-10.2-3.31-30.8-15.73-.45-.26-1.86-1.14-3.82-1.26-.86-.05-1.57.05-2.07.16"/>
            <path class="cls-5" d="M328.01,50.21c-1.07-.92-2.65-2.06-4.77-3.02-2.17-.98-4.14-1.4-5.55-1.59-7.05-.76-15.72-2.33-25.25-5.56-13.55-4.59-23.95-10.87-31.12-16.04-.83-.33-2.09-.7-3.65-.79-1.79-.09-3.24.24-4.16.52"/>
            <path class="cls-5" d="M233.99,14.96c-5.4-3.7-10.8-7.41-16.2-11.11"/>
            <path class="cls-5" d="M222.88,3.84c4.13,2.97,8.26,5.93,12.39,8.89"/>
            <path class="cls-5" d="M238.6,12.73c-4.18-2.97-8.37-5.93-12.54-8.89"/>
            <path class="cls-5" d="M233.36,16.7c-5.99-3.97-11.96-7.94-17.94-11.91"/>
            <path class="cls-5" d="M351.03,49.9c.15-.13.3-.26.46-.39,1.62-1.37,2.55-3.38,2.55-5.49-.05-13.07-.1-26.15-.15-39.22"/>
            <path class="cls-5" d="M359.28,49.9c-.15-.13-.3-.26-.46-.39-1.62-1.37-2.55-3.38-2.55-5.49.05-13.07.1-26.15.15-39.22"/>
            <path class="cls-5" d="M523.82,210.29c-18.3-13.6-33-24.85-43.35-32.87-10.26-7.93-21.11-16.46-39.07-30.17-6.9-5.27-12.63-9.6-16.51-12.54.08-.57.16-1.71-.32-3.02-.53-1.46-1.46-2.34-1.91-2.7-3.45-2.07-8.92-5.94-13.5-12.54-1.52-2.2-4.8-7.01-6.36-13.97-2.24-10.01-1.16-25.53-1.59-31.12-.05-.68-.2-2.15-1.11-3.65-.67-1.1-1.5-1.81-2.07-2.22-.15-5.67-.32-11.33-.48-16.99-.14-.66-.41-1.57-.95-2.54-.42-.74-.87-1.33-1.27-1.74-1.06-13.55-2.11-27.1-3.17-40.65"/>
            <path class="cls-5" d="M523.18,207.43c-3.97-2.9-7.93-5.8-11.91-8.74-20.47-15.1-40.42-30.3-59.87-45.57-.93-.74-2.07-1.16-3.26-1.24-.24-.01-.48-.02-.72-.04"/>
            <path class="cls-5" d="M522.55,204.73c-18.82-13.59-37.79-27.82-56.85-42.72-4.49-3.51-8.95-7.03-13.38-10.55-1.35-1.07-2.98-1.74-4.7-1.83-.07,0-.12,0-.19,0-1.05-.04-1.98.02-2.76.12"/>
            <path class="cls-5" d="M522.55,211.4c-12.29-9.3-24.57-18.62-36.85-27.95-20.45-15.54-40.89-31.1-61.3-46.69-1.08-.82-4.52-2.96-8.58-6.51-1.43-1.24-7.11-6.21-10.95-11.75-5.68-8.18-6.52-16.4-7.95-30.33-.52-5.19-.99-12.47-.64-21.28.5.39,1.55,1.29,2.22,2.85.65,1.53.6,2.88.52,3.5-.12,2.42-.23,5.86-.11,10,.18,6.28.33,11.39,1.81,17.64,1.17,4.89,3.09,12.99,8.69,19.29,1.37,1.54,4.1,4.25,7.19,6.91,1.9,1.63,3.57,2.92,4.77,3.81.21.13,1.72,1.07,1.93,2.88.11.85-.14,1.59-.35,2.05"/>
            <path class="cls-5" d="M522.71,213.78c-33.23-26.24-52.46-40.4-64.16-48.6-12.62-8.84-24.53-18.65-37-27.7-1.03-.74-4.23-3.07-8.11-6.6-3.75-3.42-6.52-6.52-8.26-8.57,0,0-2.45-3.07-4.45-6.36-6.92-11.36-6.67-36.44-6.99-60.98-.06-4.34-.12-7.81-.15-9.69-.26-2.26-.51-4.53-.74-6.81-.44-4.28-1.48-13.46-2.6-34.48"/>
            <path class="cls-5" d="M396.24,68.48c-.2-6.25-.39-12.49-.58-18.75-.15-.95-.46-2.17-1.11-3.49-.33-.67-.7-1.26-1.04-1.74"/>
            <path class="cls-5" d="M464.1,40.68c.3-.55.77-1.24,1.43-1.91,1.15-1.17,2.39-1.76,3.17-2.06,6.01-1.65,12.27-3.6,18.74-5.87,13.48-4.75,25.44-10.14,35.89-15.56"/>
            <path class="cls-5" d="M523.34,13.05c-7.47,3.97-15.83,7.98-25.09,11.75-11.49,4.68-22.3,8.17-32.08,10.8-.91.38-2.29,1.09-3.65,2.38-1.48,1.41-2.29,2.88-2.7,3.81"/>
            <path class="cls-5" d="M485.23,39.89c.92.47,2.74,1.24,5.08,1.11,1.03-.06,1.91-.28,2.58-.51,5.73-1.9,11.77-4.13,18.07-6.79,4.42-1.86,8.6-3.78,12.54-5.72"/>
            <path class="cls-5" d="M523.5,25.91c-4.32,2.35-9.14,4.73-14.45,6.99-6.27,2.67-12.2,4.74-17.62,6.35-.7.03-1.44.03-2.23,0s-1.53-.08-2.23-.15"/>
            <path class="cls-5" d="M55.97,270.96c-10.65,14.83-21.28,29.64-31.92,44.47"/>
            <path class="cls-5" d="M21.34,315.74c11.06-15.35,22.13-30.7,33.19-46.05"/>
            <path class="cls-5" d="M18.64,315.27c-5.14-5.67-10.27-11.33-15.4-16.99"/>
            <path class="cls-5" d="M15.94,314.95c-4.03-4.29-8.04-8.58-12.07-12.86"/>
            <path class="cls-5" d="M3.72,280.49c11.59-5.3,23.19-10.58,34.78-15.88.85-.31,1.92-.63,3.17-.79,1.96-.26,3.62-.07,4.76.15"/>
            <path class="cls-5" d="M3.72,283.19c18.94-9.14,32.91-15.64,35.74-16.67,1.59-.58,3.17-.79,3.17-.79,1.01-.14,2.26-.22,3.69-.1.85.07,1.62.21,2.29.37"/>
            <path class="cls-5" d="M332.45,55.77c.51.19,1.29.56,2.07,1.27.89.82,1.36,1.7,1.59,2.22.39-.6,1.05-1.46,2.07-2.22,1.36-1.03,2.71-1.42,3.49-1.59"/>
          </g>
        </g>
        <g class="cls-25">
          <g>
            <path class="cls-12" d="M55.97,270.96C116.11,185.01,176.25,99.07,236.38,13.13"/>
            <path class="cls-8" d="M233.46,17.31c11.13,8.1,21.04,13.96,28.47,18.01,14.09,7.67,28.52,15.37,48.67,18.86,6.45,1.12,11.83,1.51,15.44,1.67,25.75-.07,54.71-.97,85.81-3.35,25.46-1.94,47.95-4.55,74.8-13.55.83-.28,1.52-.51,1.99-.67,16.92-5.82,29.22-11.82,37.26-16.18"/>
            <path class="cls-8" d="M211.5,48.55c8.24-12.07,16.46-24.14,24.7-36.21,7.86,6.03,20.21,14.88,35.11,23.03,0,0,17.46,9.51,31.91,12.88.39.09.7.16.96.22,2.57.56,4.99.99,7.26,1.31,7.8,1.12,16.08,1.07,16.08,1.07,61.42-.28,88.62-3.58,88.62-3.58,25.54-3.1,40.8-4.95,61.7-11.19,15.74-4.7,29.14-10.24,39.88-15.36,4.56-2.17,8.34-4.14,11.1-5.6"/>
            <path class="cls-12" d="M121,318.83c-39.94-30.26-79.89-60.51-119.82-90.76"/>
          </g>
        </g>
        <g class="cls-24">
          <g>
            <path class="cls-14" d="M51.14,258.1c-.41-3.66.39-5.95,1.26-7.39.69-1.17,1.48-1.85,1.52-3.18.03-.85-.26-1.76-2.24-4.21-1.87-2.31-2.79-3.46-4.53-4.76-2.42-1.82-4.29-3.23-6.9-3.1-.49.02-3.31.22-5.24,2.62-2.26,2.82-1.35,6.25-1.26,6.6"/>
            <g>
              <circle class="cls-17" cx="51.14" cy="258.1" r=".8"/>
              <circle class="cls-17" cx="44.47" cy="253.5" r=".8"/>
              <circle class="cls-17" cx="37.8" cy="248.34" r=".8"/>
              <circle class="cls-17" cx="33.75" cy="244.68" r=".8"/>
              <circle class="cls-17" cx="36.19" cy="237.06" r=".8"/>
              <circle class="cls-17" cx="43.67" cy="236.5" r=".8"/>
              <circle class="cls-17" cx="50.34" cy="241.43" r=".8"/>
              <circle class="cls-17" cx="53.91" cy="248.34" r=".8"/>
              <circle class="cls-17" cx="56.93" cy="262.47" r=".8"/>
              <circle class="cls-17" cx="20.86" cy="235.45" r=".8"/>
              <circle class="cls-17" cx="14.19" cy="230.85" r=".8"/>
              <circle class="cls-17" cx="7.52" cy="225.68" r=".8"/>
              <circle class="cls-17" cx="26.64" cy="239.82" r=".8"/>
              <circle class="cls-17" cx="83.03" cy="282.27" r=".8"/>
              <circle class="cls-17" cx="76.36" cy="277.66" r=".8"/>
              <circle class="cls-17" cx="69.69" cy="272.5" r=".8"/>
              <circle class="cls-17" cx="63.14" cy="267.25" r=".8"/>
              <circle class="cls-17" cx="89.62" cy="287.44" r=".8"/>
              <circle class="cls-17" cx="122.44" cy="313.23" r=".8"/>
              <circle class="cls-17" cx="115.63" cy="307.64" r=".8"/>
              <circle class="cls-17" cx="102.74" cy="297.61" r=".8"/>
              <circle class="cls-17" cx="96.07" cy="293" r=".8"/>
              <circle class="cls-17" cx="108.52" cy="301.97" r=".8"/>
            </g>
            <path class="cls-14" d="M4.2,222.68c40.12,30.76,80.25,61.51,120.38,92.27"/>
          </g>
        </g>
        <g class="cls-29">
          <g>
            <path class="cls-10" d="M4.27,78.96c2.07,1.35,4.13,2.7,6.19,4.05,3.26-4.84,6.51-9.69,9.77-14.53,5.16,3.49,10.32,6.99,15.48,10.48,3.49-4.84,6.99-9.69,10.48-14.53,4.92,3.65,9.85,7.31,14.77,10.96-3.33,5-6.67,10-10.01,15-2.06-1.43-4.13-2.86-6.19-4.29"/>
            <path class="cls-10" d="M208.66,313.62c-3.65-1.99-7.31-3.99-10.96-5.98"/>
            <path class="cls-10" d="M191.99,313.62c4.27-5.7,8.56-11.4,12.83-17.11"/>
          </g>
        </g>
        <g class="cls-28">
          <path class="cls-1" d="M28.18,160.59c-6.08,8.63-12.18,17.26-18.26,25.89-.06.12-.61,1.07-1.74,1.27-.89.15-1.81-.21-2.38-.96-1.11-.79-2.22-1.59-3.33-2.38"/>
        </g>
      </g>
      <g id="_Йеппи" data-name=" Йеппи">
        <g class="cls-27">
          <g>
            <path class="cls-21" d="M84.78,103.51c-1.6.25-2.81,1.61-2.87,3.25-.07,1.64.54,3.13,1.09,4.25.71,1.46,1.65,3.01,2.66,4.68.22.37.46.76.69,1.14-.53.28-1.08.42-1.68.43-1.53.03-3.34-.79-5.4-2.42-2.19-1.74-2.46-1.96-2.81-2.29-.13-.11-.28-.25-.51-.46l-1.92,2.22c.21.18.33.3.46.41.4.36.69.63,2.96,2.42,2.61,2.06,5.06,3.08,7.28,3.04,1.11-.02,2.14-.29,3.11-.82.28.5.54,1.01.79,1.51,1.68,3.44,1.65,5.14,1.64,5.16v-.03l2.93.24c.02-.24.12-2.44-1.94-6.65-.36-.74-.76-1.48-1.18-2.22.47-.78.89-1.93.96-3.61.1-1.83-.22-3.87-.9-5.72-1.71-4.68-4.53-4.62-5.35-4.5M87.37,109.01c.66,1.82.82,3.61.69,4.96-.93-1.53-1.8-2.98-2.43-4.26-.42-.85-.83-1.85-.79-2.82,0-.15.07-.28.16-.36.07-.06.14-.1.22-.11.21-.03.47.08.75.31.36.31.9.95,1.39,2.29"/>
            <path class="cls-11" d="M85.69,108.82c-.06.25.05.54.28.68s.53.14.74-.01c.21-.15.31-.44.24-.69"/>
            <path class="cls-20" d="M88.68,108.49c0,.3.36.54.79.54s.79-.25.79-.54-.36-.54-.79-.54-.79.25-.79.54"/>
            <path class="cls-20" d="M82.02,108.49c0,.3.36.54.79.54s.79-.25.79-.54-.36-.54-.79-.54-.79.25-.79.54"/>
            <path class="cls-11" d="M82.4,106.88c.24.39.75.66,1.29.68.54.02,1.08-.22,1.36-.59"/>
            <path class="cls-11" d="M87.19,106.88c.24.39.75.66,1.29.68s1.08-.22,1.36-.59"/>
            <path class="cls-11" d="M91.02,112.6c1.32.15,2.69-.26,3.72-1.11.71-.58,1.25-1.38,1.55-2.25.28-.82.11-1.83.75-2.5"/>
            <path class="cls-11" d="M84.44,113.55c-1.32.15-2.69-.26-3.72-1.11-.71-.58-1.25-1.38-1.55-2.25-.28-.82-.11-1.83-.75-2.5"/>
            <path class="cls-11" d="M95.22,126.29c-.07-.1-.17-.16-.28-.21-.16-.07-.35-.09-.53-.1s-.36,0-.53-.04c-.08-.01-.15-.04-.22-.08-.04-.03-.08-.08-.1-.13h0c-.01-.06-.05-.08-.09-.08h-.28c.12,0,.22-.1.22-.22v-.26c0-.12-.1-.22-.22-.22h-2.99c-.12,0-.22.1-.22.22v.26c0,.12.1.22.22.22-.12,0-.22.1-.22.22v1.15c0,.12.1.22.22.22h4.86c.12,0,.22-.1.22-.22v-.46c0-.11,0-.18-.07-.28h-.01Z"/>
            <path class="cls-11" d="M72.48,115.66c.11.02.24-.02.33-.07.16-.07.3-.19.43-.32s.25-.26.39-.36c.07-.04.14-.09.21-.11.05-.01.11,0,.16.01h.01s.08,0,.11-.02l.18-.2c-.08.09-.08.24.01.31l.19.18c.09.08.24.08.31-.01l2.03-2.2c.08-.09.08-.24-.01-.31l-.19-.18c-.09-.08-.24-.08-.31.01.08-.09.08-.24-.01-.31l-.85-.79c-.09-.08-.24-.08-.31.01l-3.31,3.57c-.08.09-.08.24.01.32.11.11.22.21.33.31.08.08.14.12.25.14h.01Z"/>
          </g>
        </g>
      </g>
    </g>
  </g>
</svg>