<svg width="390" height="309" viewBox="0 0 390 309" fill="none" xmlns="http://www.w3.org/2000/svg">
<g clip-path="url(#clip0_71_1897)">
<path d="M390 0H0V309H390V0Z" fill="white"/>
<mask id="mask0_71_1897" style="mask-type:luminance" maskUnits="userSpaceOnUse" x="0" y="0" width="390" height="309">
<path d="M390 0H0V309H390V0Z" fill="white"/>
</mask>
<g mask="url(#mask0_71_1897)">
<path d="M516.9 0H0V309H516.9V0Z" fill="#C8D2D3"/>
<path d="M517 216.3V309H240C244.2 303.4 249.1 296.8 254.8 289.7C258.9 284.5 292.2 248.3 305.9 225.9C311.1 217.3 318.3 210 323 201.1C323.2 200.7 324 199.2 325.5 197.9C327.6 196.1 330.1 195.5 331.9 195.4C334.5 192.1 338.3 187.1 342.7 180.8C348.7 172.2 349.5 170.2 353.2 166.5C358 161.7 363.4 156.3 371 155.7C377.3 155.2 380.4 158.4 388.5 156.6C391 156.1 393.2 155.2 394.9 154.5C398.1 153.2 400.7 151.8 405.8 148.9C412.4 145.2 414.9 143.3 416.3 142.3C417.6 141.3 418.7 140.4 419.4 139.8C451.9 165.2 484.4 190.8 517 216.3Z" fill="#EAEEED"/>
<path d="M109.1 309H0V225.8C36.4 253.5 72.8 281.3 109.1 309Z" fill="#EAEEED"/>
<path d="M354 91.2C352.5 93.7 350.7 95.3 349.4 96.3C343.6 99.4 337.9 102.4 332.1 105.5C331 106 329.1 106.7 326.9 106.8C325.5 106.9 324.3 106.7 323.3 106.5C323.2 106.5 323.2 106.5 323.1 106.5C321.6 105.7 320.2 104.8 318.7 104C316.1 102.5 313.5 101 310.8 99.5C305.6 100.4 295.6 101.3 284.3 97.4C277.5 95.1 272.3 91.8 268.9 89.1C249 74.9 229.2 60.6 209.3 46.4C206.9 44.7 204.6 43 202.2 41.3C199.3 39.2 196.4 37.2 193.6 35.1C197 29.9 200.5 24.6 203.9 19.4C195.8 13.6 187.8 7.9 179.8 2.1C142.5 55.4 105.2 108.7 67.8001 162C67.5001 161.8 67.2001 161.5 66.9001 161.3C65.6001 163 64.4001 164.6 63.1001 166.3C65.1001 167.7 67.1001 169 69.0001 170.4C70.2001 169 71.4001 167.7 72.6001 166.3C72.0001 165.8 71.5001 165.4 70.9001 164.9C102.7 120.1 134.4 75.3 166.2 30.5C176 37.4 185.8 44.4 195.6 51.3C198 53 200.5 54.8 202.9 56.5C236.3 80.1 269.7 103.8 303 127.4C304.5 128.5 306 129.5 307.4 130.5C313.7 134.9 319.9 139.4 326.2 143.8C327.2 145.1 329.9 149.1 330 154.8C330.1 160 328 163.8 327.1 165.3C293.3 213.2 259.5 261.1 225.7 309H108.2C72.2001 282.2 36.1001 255.5 0.100098 228.7V0H354.7C355 13.8 355.3 27.7 355.6 41.6C355.7 45.5 355.8 49.4 355.9 53.3C356.1 62.4 356.3 71.5 356.5 80.6C356.6 82.3 356.7 86.7 354 91.2Z" fill="#F6F5F3"/>
<path d="M517 0V218.7C502.6 207.8 488.2 196.9 473.9 186C474.1 185 474.3 184 474.6 182.9C443 159.3 419.8 141.1 408.4 132.6C408.4 132.6 394.3 122.1 389.1 109.7C387.2 105.3 386.3 101.3 385.8 97.8C385.2 82.8 384.6 67.7 384 52.7C383.8 48.8 383.7 44.8 383.5 40.9C383 27.2 382.4 13.6 381.8 0L517 0Z" fill="#F6F5F3"/>
<path d="M350.2 41.7002C364.3 41.4002 378.5 41.1002 392.6 40.7002C392.4 44.7002 392.1 48.6002 391.9 52.6002C377.4 52.8002 362.8 53.1002 348.3 53.3002C348.9 49.5002 349.6 45.6002 350.2 41.7002Z" fill="#F6F5F3"/>
<path d="M191.5 57.5999C196 50.6999 200.6 43.7999 205.1 36.8999C207.6 38.2999 210 39.6999 212.5 41.1999C208.2 48.0999 203.9 54.9999 199.6 61.8999C196.9 60.4999 194.2 59.0999 191.5 57.5999Z" fill="#F6F5F3"/>
<path d="M298.7 134.1C305.8 123.4 312.8 112.7 319.9 101.9C321.4 102.8 322.9 103.7 324.4 104.5C317.3 115.4 310.3 126.3 303.2 137.1C301.7 136.2 300.2 135.2 298.7 134.1Z" fill="#F6F5F3"/>
<path d="M108.9 0C104.1 6.4 99.3 12.8 94.5 19.3C93.2 20.5 91.7 21.7 89.9 22.9C83.6 27.1 77.6 28.4 75 28.9C65.9 30.8 38 36.9 0 44.7V0H108.9Z" fill="#EAEEED"/>
<path d="M40.3002 0C39.3002 2.2 37.3002 5.8 33.3002 8.6C31.9002 9.6 30.5002 10.3 29.3002 10.7C24.3002 7.1 19.2002 3.6 14.2002 0H40.3002Z" fill="#F6F5F3"/>
<path d="M88.4999 243.3C88.2999 243.4 88.1999 243.4 87.9999 243.4C87.6999 243.4 87.3999 243.1 87.2999 242.8C86.4999 241.4 86.7999 239.6 87.6999 238.3C88.5999 237 90.2999 236.3 91.8999 236.3C92.6999 236.3 93.4999 236.4 93.9999 237C97.1999 240.9 90.5999 242.5 88.4999 243.3Z" fill="#C8D2D3"/>
<path d="M176.9 0C171.5 7.9 166.1 15.8 160.8 23.7C155.2 20 149.6 16.3 144 12.6C144.7 11.4 145.4 10.2 146 9.1C140.7 6.1 135.5 3.1 130.2 0H176.9Z" fill="#F0F0F0"/>
<path d="M58.1001 153.9C71.0001 163.4 83.9001 173 96.7001 182.5C86.7001 196.2 76.7001 210 66.6001 223.7C48.8001 211.4 30.9001 199.1 13.1001 186.8C23.9001 171.4 34.7001 156.1 45.5001 140.7C50.3001 143.9 55.0001 147.2 59.8001 150.4C59.3001 151.6 58.7001 152.8 58.1001 153.9Z" fill="#F0F0F0"/>
<path d="M61.5 60.7C65.7 55.6 69.9 50.5 74.1 45.5C78.7 48.9 83.3 52.3 87.9 55.7C84.1 61 80.3 66.3 76.5 71.7" stroke="#F0F0F0" stroke-width="2.59" stroke-miterlimit="10"/>
<path d="M15 85.8001C17.3 87.2001 19.6 88.7001 21.9 90.1001C23 88.3001 24.1 86.4001 25.2 84.6001" stroke="#F0F0F0" stroke-width="2.59" stroke-miterlimit="10"/>
<path d="M60 120.8C67.8 110.1 75.6 99.4999 83.3 88.8999C88.2 92.8999 93.1 96.7999 98.1 100.8C91 111.2 83.9 121.6 76.7 132C71.2 128.2 65.6 124.5 60 120.8Z" fill="#F0F0F0"/>
<path d="M124.3 65.6998C123.3 63.9998 122.6 61.8998 122.9 59.8998C123 59.1998 123.2 58.4998 123.6 57.8998C119.9 54.8998 116.2 51.7998 112.5 48.7998C104.5 59.2998 96.6001 69.7998 88.6001 80.2998C93.8001 83.8998 99.0001 87.4998 104.2 90.9998C111 82.5998 117.7 74.2998 124.4 65.8998C124.4 65.7998 124.3 65.6998 124.3 65.6998Z" fill="#F0F0F0"/>
<path d="M90.5 99.5998C93.8 94.6998 97 89.7998 100.3 84.7998" stroke="#F0F0F0" stroke-width="2.59" stroke-miterlimit="10"/>
<path d="M98.6002 94.8C94.5002 91.9 90.4002 88.9 86.2002 86" stroke="#F0F0F0" stroke-width="2.59" stroke-miterlimit="10"/>
<path d="M30 147.3C31.8 144.6 33.7 141.9 35.5 139.2C38.1 138.4 40.7 137.6 43.4 136.8C46.1 133.2 48.8 129.7 51.5 126.1C51.7 125.8 52.3 124.8 53.6 124.4C54.9 124 56.4 124.5 57.4 125.6C62.9 129.6 68.4 133.5 73.8 137.5" stroke="#C8D2D3" stroke-width="0.32" stroke-miterlimit="10"/>
<path d="M78.2001 86.2002C66.0001 102.6 53.9001 119 41.7001 135.3C40.2001 135.5 37.6001 136.1 34.8001 137.9C32.0001 139.7 30.4001 141.9 29.6001 143.1C19.7001 137.3 9.9001 131.5 0.100098 125.6V102.8C26.1001 97.3002 52.1001 91.8002 78.2001 86.2002Z" fill="#F0F0F0"/>
<path d="M57.1999 92.8999C53.8999 97.2999 50.6999 101.8 47.3999 106.2C48.9999 107.1 50.5999 108 52.1999 108.8C55.2999 104.4 58.3999 100.1 61.4999 95.6999C60.0999 94.7999 58.5999 93.8999 57.1999 92.8999Z" fill="#EAEEED"/>
<path d="M35.0998 104.6C33.5998 103.4 32.0998 102.3 30.6998 101.1L28.2998 103.8C29.8998 105 31.4998 106.3 33.0998 107.5C33.6998 106.5 34.3998 105.6 35.0998 104.6Z" fill="#EAEEED"/>
<path d="M36.3999 105.7C35.9999 106.3 35.5999 106.9 35.1999 107.4C34.8999 107.8 34.6999 108.2 34.3999 108.6C36.2999 110.1 38.1999 111.5 40.0999 113C40.6999 112 41.2999 111 41.7999 110C39.9999 108.5 38.1999 107.1 36.3999 105.7Z" fill="#EAEEED"/>
<path d="M43 130.5C42.5 130.5 41 130.6 39.7 131.6C38 132.9 37.7 134.9 37.6 135.2C34.6 135.1 31.6 134.9 28.5 134.7C33.8 127 39 119.4 44.3 111.7C46.9 113.7 49.5 115.7 52 117.7C49.1 122.1 46.1 126.3 43 130.5Z" fill="#EAEEED"/>
<path d="M10.6002 117.5C12.1002 115.3 13.6002 113.2 15.0002 111C19.4002 114.2 23.9002 117.3 28.3002 120.5C29.6002 118.5 30.9002 116.5 32.3002 114.5C26.8002 110.3 21.4002 106 15.9002 101.8C12.0002 107.5 8.1002 113.2 4.2002 119C9.6002 123 15.0002 126.9 20.4002 130.9C21.5002 129.6 22.6002 128.3 23.7002 127C19.4002 123.8 15.1002 120.6 10.6002 117.5Z" fill="#F0F0F0"/>
<path d="M1 109.3C1.6 108.6 2.2 107.8 2.8 107.1C3.8 107.9 4.7 108.8 5.6 109.6C5 110.3 4.4 111 3.9 111.6C2.9 110.8 1.9 110 1 109.3Z" fill="#EAEEED"/>
<path d="M9.7 167.4C10.2 168 10.8 168.6 11.3 169.1C9.1 172.1 6.9 175 4.6 178C3.1 176.9 1.5 175.9 0 174.8V133.2C7.5 138.6 15 143.9 22.5 149.2C18.3 155.3 14 161.4 9.7 167.4Z" fill="#F0F0F0"/>
<path d="M61.8999 77.5C64.2999 79.2 66.7999 80.9 69.1999 82.6C69.9999 81.3 70.8999 79.9 71.6999 78.6C69.2999 76.9 66.8999 75.2 64.5999 73.5C63.7999 74.8 62.8999 76.2 61.8999 77.5Z" fill="#EAEEED"/>
<path d="M15 75.9998C16.7 77.1998 18.3 78.2998 20 79.4998C20.6 78.5998 21.2 77.6998 21.7 76.7998L16.8 73.2998C16.2 74.1998 15.6 75.0998 15 75.9998Z" fill="#EAEEED"/>
<path d="M66.1001 64.0001C67.1001 64.7001 68.1001 65.4001 69.1001 66.1001C69.4001 65.6001 69.7001 65.0001 70.1001 64.5001C69.2001 63.9001 68.3001 63.2001 67.5001 62.6001C67.0001 63.0001 66.5001 63.5001 66.1001 64.0001Z" fill="#EAEEED"/>
<path d="M97.5 41.8998C98.1 40.7998 98.8 39.7998 99.4 38.6998C98.3 37.9998 97.3 37.3998 96.2 36.7998C96 36.7998 95.8 36.8998 95.6 36.8998C94.7 37.0998 93.8 37.2998 93 37.1998C92.2 38.3998 91.3 39.5998 90.5 40.7998C92 41.6998 93.6 42.5998 95.1 43.4998C94.4 44.5998 93.6 45.6998 92.9 46.7998L97.7 49.7998C98.8 47.9998 99.9 46.0998 101 44.1998C99.9 43.4998 98.7 42.6998 97.5 41.8998Z" fill="#EAEEED"/>
<path d="M100.7 48.5998C101.2 48.8998 101.7 49.1998 102.1 49.5998C102.7 48.2998 103.4 47.1998 104.3 46.0998C103.9 45.7998 103.3 45.4998 102.9 45.2998C102.3 46.2998 101.3 47.4998 100.7 48.5998Z" fill="#EAEEED"/>
<path d="M80.9999 43.1C82.7999 42.7 84.4999 42.3 86.2999 41.9C86.0999 41.3 85.6999 40.2 85.4999 39.5C83.7999 39.8 82.0999 40.2 80.3999 40.4C80.5999 41.5 80.7999 42.1 80.9999 43.1Z" fill="#EAEEED"/>
<path d="M39.8998 157.4C34.9998 164.6 30.1998 171.8 25.2998 179C40.1998 189.5 55.0998 200 69.9998 210.6C74.9998 203.7 79.8998 196.8 84.8998 190C79.5998 186 74.1998 182.1 68.8998 178.1C67.6998 178.2 63.4998 178.2 59.4998 175.2C56.1998 172.7 54.7998 169.5 54.3998 168.2C49.5998 164.6 44.6998 161 39.8998 157.4Z" fill="#EAEEED"/>
<path d="M97.7002 149.3C98.4002 148.2 99.1002 147.1 99.8002 146C99.4002 145.3 98.8002 144.5 98.1002 144.4C104.9 134.5 111.8 124.5 118.6 114.6C124.1 118.2 129.6 121.8 135.1 125.4C127.3 137 119.4 148.7 111.6 160.4C108.9 158.7 106.3 157 103.7 155.3C104 154.6 104.3 153.9 104.7 153.2C102.2 151.8 100 150.6 97.7002 149.3Z" fill="#F0F0F0"/>
<path d="M123.7 119.7C126.7 115.4 129.7 111.1 132.8 106.8" stroke="#F0F0F0" stroke-width="2.59" stroke-miterlimit="10"/>
<path d="M125.8 112.6C129.9 115.3 133.9 118 138 120.7" stroke="#F0F0F0" stroke-width="2.59" stroke-miterlimit="10"/>
<path d="M124.2 106.2C131.1 96.9001 137.9 87.5001 144.8 78.2001C145.5 78.5001 146.2 78.8001 146.9 79.0001C147.8 77.7001 148.7 76.4001 149.6 75.1001C154.3 78.1001 158.9 81.1001 163.6 84.2001C155.8 95.4001 148 106.5 140.2 117.7C134.9 113.9 129.6 110.1 124.2 106.2Z" fill="#F0F0F0"/>
<path d="M168.5 67C173.3 60.6 178.1 54.2 183 47.8C179.1 45 175.2 42.3 171.2 39.5C166.5 46.2 161.9 52.9 157.2 59.7C161 62.1 164.7 64.6 168.5 67Z" fill="#F0F0F0"/>
<path d="M131.7 25.9998C130.4 28.1998 129.1 30.2998 127.7 32.4998C130 34.0998 132.4 35.6998 134.7 37.2998C137.8 33.3998 140.9 29.3998 144 25.4998C141.7 23.5998 139.4 21.7998 137.1 19.8998C138.1 18.4998 139 17.0998 140 15.7998C143.6 18.4998 147.1 21.1998 150.6 23.8998C146.8 29.2998 143.1 34.7998 139.3 40.2998C139.3 40.3998 140 41.9998 139 43.2998C138.1 44.3998 136.5 44.7998 135 44.0998C130.3 40.4998 125.6 36.8998 120.9 33.2998C123.2 29.8998 125.6 26.3998 127.9 22.9998C129.1 23.9998 130.4 24.9998 131.7 25.9998Z" fill="#F0F0F0"/>
<path d="M117.2 19.0001L112.8 24.9001L117.7 28.5001L116.3 30.2001L108.1 24.0001L115.1 14.6001L123.3 20.8001L122 22.6001L117.2 19.0001Z" fill="#EAEEED"/>
<path d="M148.3 13.2001C149.4 11.5001 150.5 9.8001 151.6 8.1001C155 10.5001 158.5 13.0001 161.9 15.4001C160.9 17.0001 159.9 18.6001 158.9 20.2001C155.4 17.8001 151.9 15.5001 148.3 13.2001Z" fill="#EAEEED"/>
<path d="M190.4 140.8C191.7 138.5 192.9 136.2 194.2 133.9C192.1 132 190.1 130.1 188 128.2C188.4 127.6 188.7 127 189.1 126.4C183.7 122.3 178.2 118.2 172.7 114.2C166.7 122.7 160.7 131.2 154.7 139.7C159.8 143.3 164.9 147 170.1 150.7C170.2 151.2 170.2 151.7 170.3 152.3C172.3 153.8 174.4 155.2 176.4 156.7C177.2 156.5 177.9 156.3 178.7 156.1C184.4 160.4 190.1 164.7 195.7 169C197.5 166.7 199.4 164.2 201.3 161.3C203.3 158.2 205 155.2 206.3 152.5C201 148.4 195.7 144.6 190.4 140.8Z" fill="#F0F0F0"/>
<path d="M174.9 166.6C174.5 166 174.1 165.3 173.7 164.7C170.7 162.8 167.7 161 164.6 159.1C163.7 158.9 162.7 158.7 161.8 158.6C157.5 155.2 153.2 151.8 148.9 148.5C144.1 155.4 139.3 162.4 134.5 169.3C145.1 177.5 156 185.1 166.6 193.2C169.7 195.6 172.8 198 175.8 200.3C177.9 197.4 179.9 194.5 181.9 191.5C185 186.9 188 182.4 190.9 177.9C185.6 174.2 180.2 170.4 174.9 166.6Z" fill="#F0F0F0"/>
<path d="M159.9 201.7C149.4 193.7 138.7 186.2 128.3 178.2L112.2 201.3C126.3 210.2 140.5 219.1 154.6 227.9C159.5 222 164.4 215.7 169.4 209C166.3 206.6 163.1 204.1 159.9 201.7Z" fill="#F0F0F0"/>
<path d="M103 249.6C104 250.5 105.3 251.1 106.6 250.7C107.9 250.3 108.7 249 109 247.7C109.3 246.4 109 245 108.7 243.7C108 240.7 107 237.6 104.9 235.4C103 233.3 100.2 232.1 97.3 232C96.4 232 95.4 232.1 94.9 232.8C94 233.9 94.5 235.7 93.6 236.8C93.1 237.4 92.3 237.6 91.7 238.2C90.9 239 90.9 240.4 91.5 241.4C92.1 242.4 93 243.2 93.9 243.9C95.8 245.3 97.5 246.3 99.7 246.9C101.5 247.3 101.6 248.3 103 249.6Z" fill="#F0F0F0"/>
<path d="M120.5 228L122.6 229.3" stroke="#F0F0F0" stroke-width="0.65" stroke-miterlimit="10"/>
<path d="M118 231.5C118.6 231.9 119.3 232.2 119.9 232.6" stroke="#F0F0F0" stroke-width="0.65" stroke-miterlimit="10"/>
<path d="M189 282.4C189.2 282.8 189.3 283.3 189.5 283.7C188.1 285.6 186.7 287.4 185.3 289.3C183.4 287.9 181.5 286.6 179.6 285.3C180.3 284.3 181.1 283.3 181.8 282.2C180 281.1 178.3 279.9 176.5 278.8C175.9 279.6 175.2 280.4 174.6 281.2C175.1 281.9 175.6 282.6 176 283.2C175.3 284.4 174.5 285.5 173.8 286.7C172.9 286.9 171.9 287 170.9 287.2C169.9 288.5 169 289.8 168 291.2C169.7 292.4 171.4 293.5 173.1 294.7C174.1 293.5 175.2 292.3 176.2 291.1C177.9 292.3 179.6 293.5 181.3 294.6C177.7 299.4 174 304.2 170.4 309.1H167.5L106.4 267.2C110.3 261.5 114.2 255.8 118.2 250.1C119.6 251.3 121 252.5 122.3 253.7C121.6 254.7 120.9 255.7 120.2 256.7C122 258 123.9 259.3 125.8 260.7C126.8 259.5 127.7 258.4 128.7 257.2C128.6 256.5 128.5 255.7 128.3 255L130.1 252.4L133.3 252.8C134 251.7 134.7 250.6 135.4 249.5C131.4 246.3 127.5 243.1 123.5 240C126.7 235.5 129.9 231 133 226.5C139.4 230.7 145.7 234.9 152.1 239C152 239.2 151.6 240.7 152.4 242.2C153.1 243.4 154.1 243.8 154.5 243.9C168.4 253.5 182.2 263.2 196.1 272.8C193.6 275.9 191.3 279.1 189 282.4Z" fill="#F0F0F0"/>
<path d="M186.1 245.5C200.2 225.7 214.4 205.9 228.5 186.1C222.9 176.2 217.3 166.4 211.7 156.6C194.8 181 177.8 205.4 160.9 229.8C169.3 235 177.7 240.3 186.1 245.5Z" fill="#F6F5F3"/>
<path d="M258.5 154.8C262.5 157.6 266.5 160.4 270.4 163.1C263.3 173.9 256.1 184.7 249 195.5C245 192.8 241.1 190.1 237.1 187.4" stroke="#F0F0F0" stroke-width="2.59" stroke-miterlimit="10"/>
<path d="M259.9 178.7C256.1 176.1 252.3 173.5 248.5 170.8" stroke="#F0F0F0" stroke-width="2.59" stroke-miterlimit="10"/>
<path d="M230.6 181.3C229.6 178.9 228.7 176.5 227.7 174.2C229.4 175.3 231 176.4 232.7 177.5C232.1 178.8 231.3 180 230.6 181.3Z" fill="#EAEEED"/>
<path d="M224.2 145.3C221.7 148.8 219.1 152.3 216.6 155.8C218.8 160 221 164.2 223.3 168.4C227 170.7 230.7 173.1 234.5 175.4C238.2 170.4 241.8 165.3 245.5 160.3C238.3 155.3 231.2 150.3 224.2 145.3Z" fill="#F0F0F0"/>
<path d="M190.4 250.6C194.8 253.4 199.3 256.2 203.8 258.9C215.1 242.5 226.4 226.2 237.6 209.8C233.8 207 230 204.2 226.2 201.5" stroke="#F0F0F0" stroke-width="2.59" stroke-miterlimit="10"/>
<path d="M214.7 243C210.6 240.1 206.6 237.3 202.5 234.4" stroke="#F0F0F0" stroke-width="2.59" stroke-miterlimit="10"/>
<path d="M225.5 226.6C221.4 223.7 217.4 220.9 213.3 218" stroke="#F0F0F0" stroke-width="2.59" stroke-miterlimit="10"/>
<path d="M186.5 236C187.8 234.3 189.1 232.6 190.5 230.9C186 227.6 181.5 224.3 177 221C175.7 222.6 174.4 224.3 173 225.9C177.4 229.3 182 232.7 186.5 236Z" fill="#EAEEED"/>
<path d="M198.7 221.1C200 219.4 201.2 217.6 202.5 215.9C200.6 214.6 198.8 213.4 196.9 212.1C195.7 213.7 194.5 215.3 193.3 216.9C195.1 218.2 196.9 219.6 198.7 221.1Z" fill="#EAEEED"/>
<path d="M197.3 214.5C198.8 212.4 200.3 210.4 201.7 208.3" stroke="#EAEEED" stroke-width="2.59" stroke-miterlimit="10"/>
<path d="M193 211.1C196.3 211.2 199.6 211.3 202.9 211.4C206.4 206.6 209.9 201.8 213.4 196.9C207.5 192.9 201.5 189 195.6 185C191.3 191.2 187 197.4 182.7 203.6C186.1 206.1 189.5 208.6 193 211.1Z" fill="#EAEEED"/>
<path d="M188.4 202.2C189.8 200.3 191.3 198.5 192.7 196.6C194.9 198.2 197.1 199.8 199.4 201.4C198.1 203.4 196.8 205.4 195.4 207.4C193 205.7 190.7 203.9 188.4 202.2Z" fill="#F6F5F3"/>
<path d="M181.5 207.3C180.7 206.7 179.8 206.1 179 205.4C177.7 207.1 176.5 208.9 175.2 210.6C175.9 211.2 176.6 211.8 177.3 212.3C178.6 210.7 180.1 209.1 181.5 207.3Z" fill="#EAEEED"/>
<path d="M182.9 208.3C181.5 210.1 180 211.7 178.6 213.5C179.5 214.3 180.4 215 181.3 215.8C182.7 213.9 184.2 212.1 185.6 210.2C184.6 209.6 183.8 209 182.9 208.3Z" fill="#EAEEED"/>
<path d="M191.4 223.6C192 222.7 192.6 221.8 193.1 220.9C191.9 219.8 190.7 218.8 189.5 217.7C188.8 218.6 188.1 219.5 187.4 220.4C188.7 221.5 190.1 222.6 191.4 223.6Z" fill="#EAEEED"/>
<path d="M205.2 175.6C208.4 173.6 211.6 171.6 214.7 169.6C217.6 174.1 220.5 178.6 223.4 183.1C220.2 185.1 216.9 187 213.7 189C210.9 184.5 208.1 180.1 205.2 175.6Z" fill="#EAEEED"/>
<path d="M203.3 169.3C203.8 170.2 204.4 171.1 204.9 172C206.4 171.1 208 170.3 209.5 169.5L208.3 167C206.6 167.7 204.9 168.5 203.3 169.3Z" fill="#EAEEED"/>
<path d="M208.9 163.7C209.7 165.3 210.5 166.9 211.3 168.6C211.9 168.2 212.6 167.9 213.2 167.6C212.4 166 211.6 164.5 210.7 162.9C210.1 163.2 209.5 163.5 208.9 163.7Z" fill="#EAEEED"/>
<path d="M276 140.4C276.9 139.1 277.7 137.9 278.5 136.6C279.8 137.6 281.1 138.6 282.5 139.6C281.6 140.8 280.8 141.9 280 143.1C278.7 142.2 277.4 141.3 276 140.4Z" fill="#EAEEED"/>
<path d="M233.2 103.3C233.1 103.2 233.1 103.2 233 103.1L232.9 103C232.6 102.8 232.3 102.5 231.9 102.3C231.4 101.9 230.8 101.6 230.3 101.2C230 101.6 229.8 102 229.5 102.4C230.8 103.3 232.1 104.2 233.5 105.1C233.6 105 233.7 104.9 233.8 104.7C233.5 104.3 233.4 103.8 233.2 103.3Z" fill="#EAEEED"/>
<path d="M232 98.5C231.7 98.9 231.5 99.3 231.2 99.7C232.3 100.4 233.3 101.2 234.3 102C234.4 102 234.4 102 234.5 101.9C234.7 101.8 235 101.8 235.2 101.8C235.4 101.8 235.5 101.9 235.6 101.9C235.7 101.7 235.8 101.6 236 101.4C234.7 100.5 233.3 99.5 232 98.5Z" fill="#EAEEED"/>
<path d="M270.3 144.2C273.8 146.4 277.3 148.6 280.8 150.9C284.7 145.1 288.5 139.3 292.4 133.4C285.5 128.4 278.6 123.5 271.8 118.5C267.8 124.4 263.8 130.3 259.7 136.3" stroke="#F0F0F0" stroke-width="2.59" stroke-miterlimit="10"/>
<path d="M240.3 119.4C244.7 122.8 249.1 126.3 253.5 129.7C257 124.1 260.5 118.6 264 113C259.1 109.2 254.1 105.5 249.2 101.7C247.7 103.7 246.1 105.6 244.6 107.6" stroke="#F0F0F0" stroke-width="2.59" stroke-miterlimit="10"/>
<path d="M236.8 107.5C238.9 104.5 240.9 101.6 243 98.5999C239.2 95.7999 235.5 93.0999 231.7 90.3999C229.8 93.0999 227.9 95.6999 226 98.2999" stroke="#F0F0F0" stroke-width="2.59" stroke-miterlimit="10"/>
<path d="M211.2 147.4C203.1 134 194.9 120.7 186.7 107.4C188.6 104.6 190.5 101.9 192.4 99.2002L226.7 124.6C221.6 132.1 216.4 139.8 211.2 147.4Z" fill="#F6F5F3"/>
<path d="M224.4 105.4C228.3 108.4 232.1 111.3 236 114.3" stroke="#F0F0F0" stroke-width="2.59" stroke-miterlimit="10"/>
<path d="M202.8 88.3C206.8 90.9 210.7 93.5 214.7 96.1C217.1 91.9 219.6 87.7 222 83.6C218.6 81.2 215.2 78.8 211.8 76.5L208.5 82.1" stroke="#F0F0F0" stroke-width="2.59" stroke-miterlimit="10"/>
<path d="M207.7 72.6999C205.8 71.2999 203.9 69.7999 202 68.3999C198.9 72.5999 195.9 76.7999 192.8 80.8999" stroke="#F0F0F0" stroke-width="2.59" stroke-miterlimit="10"/>
<path d="M188.8 90C185.9 94.2 183 98.5 180.1 102.7" stroke="#EAEEED" stroke-width="2.59" stroke-miterlimit="10"/>
<path d="M241.2 204.1C242 204.8 242.9 205.5 243.7 206.1C244.1 205.5 244.5 204.8 244.9 204.2C244 203.6 243.2 202.9 242.4 202.3C242 202.9 241.6 203.5 241.2 204.1Z" fill="#F0F0F0"/>
<path d="M219.8 211.3C220.6 212 221.5 212.7 222.3 213.3C222.7 212.7 223.1 212 223.5 211.4C222.6 210.8 221.8 210.1 221 209.5C220.6 210.1 220.2 210.7 219.8 211.3Z" fill="#F0F0F0"/>
<path d="M197.5 243.5C198.3 244.2 199.2 244.9 200 245.5C200.4 244.9 200.8 244.2 201.2 243.6C200.3 243 199.5 242.3 198.7 241.7C198.3 242.3 197.9 242.9 197.5 243.5Z" fill="#F0F0F0"/>
<path d="M166.7 239.1C167.5 239.8 168.4 240.5 169.2 241.1C169.6 240.5 170 239.8 170.4 239.2C169.5 238.6 168.7 237.9 167.9 237.3C167.4 237.9 167.1 238.5 166.7 239.1Z" fill="#EAEEED"/>
<path d="M208.6 227.8C209.4 228.5 210.3 229.2 211.1 229.8C211.5 229.2 211.9 228.5 212.3 227.9C211.4 227.3 210.6 226.6 209.8 226C209.4 226.6 209 227.2 208.6 227.8Z" fill="#F0F0F0"/>
<path d="M178.7 247.5C179.5 248.2 180.4 248.9 181.2 249.5C181.6 248.9 182 248.2 182.4 247.6C181.5 247 180.7 246.3 179.9 245.7C179.5 246.3 179.1 246.9 178.7 247.5Z" fill="#F0F0F0"/>
<path d="M302.2 183.8C296.1 179.6 290 175.4 283.9 171.3" stroke="#F0F0F0" stroke-width="2.59" stroke-miterlimit="10"/>
<path d="M294.6 193.6C295.4 192.5 296.2 191.4 297 190.3" stroke="#F0F0F0" stroke-width="2.59" stroke-miterlimit="10"/>
<path d="M287.8 202.8C288.7 201.7 289.6 200.6 290.5 199.5" stroke="#F0F0F0" stroke-width="2.59" stroke-miterlimit="10"/>
<path d="M270.8 195.3C269.6 194.4 268.5 193.6 267.3 192.8C271.7 186.6 276.1 180.4 280.5 174.2C281.7 175 282.9 175.8 284.1 176.6C282.8 178.5 281.6 180.3 280.3 182.2C278.3 182.1 276.9 182.5 276.8 183.2C276.7 183.7 277.6 184.4 278.7 184.9C281.7 186.9 284.7 188.9 287.7 190.9C287 192.2 286.2 193.4 285.5 194.7C282.5 193 279.6 191.3 276.6 189.6C275.6 187.8 274.6 186.6 274.1 186.7C273.6 186.9 273.6 188.6 274.1 190.8C273 192.4 271.9 193.9 270.8 195.3Z" fill="#F0F0F0"/>
<path d="M283.3 210.6C277.3 206.3 271.3 202 265.3 197.7" stroke="#F0F0F0" stroke-width="2.59" stroke-miterlimit="10"/>
<path d="M253.3 212C255.4 213.4 257.5 214.8 259.7 216.1C261 214.4 262.3 212.6 263.7 210.9C262 209.1 260.2 207.3 258.5 205.5C256.7 207.7 255 209.8 253.3 212Z" fill="#F0F0F0"/>
<path d="M256.3 247.6C250.8 243.6 245.3 239.6 239.8 235.5" stroke="#F0F0F0" stroke-width="2.59" stroke-miterlimit="10"/>
<path d="M156.5 273.9C159.1 270.4 161.7 266.9 164.4 263.4C160.5 260.6 156.6 257.9 152.7 255.1C150.1 258.9 147.5 262.7 144.8 266.5C148.7 269 152.6 271.5 156.5 273.9Z" fill="#F6F5F3"/>
<path d="M161.5 272.8C162.4 273.6 163.3 274.3 164.2 275.1" stroke="#EAEEED" stroke-width="1.3" stroke-miterlimit="10"/>
<path d="M143.5 269.7C142.2 268.8 141 268 139.7 267.2" stroke="#F6F5F3" stroke-width="1.94" stroke-miterlimit="10"/>
<path d="M158.2 279.7C156.8 278.7 155.4 277.8 154 276.8" stroke="#F6F5F3" stroke-width="1.3" stroke-miterlimit="10"/>
<path d="M265.2 230.6C267 227.7 268.7 224.8 270.5 221.8C268.4 219.5 265.9 216.7 263.2 215.2" stroke="#F0F0F0" stroke-width="2.59" stroke-miterlimit="10"/>
<path d="M260.8 220.1C261.1 221 261.7 221.8 262.5 222.2" stroke="#EAEEED" stroke-width="2.59" stroke-miterlimit="10"/>
<path d="M258 224.4L260.4 226.1" stroke="#EAEEED" stroke-width="2.59" stroke-miterlimit="10"/>
<path d="M254.4 227.8C254.9 228.3 255.5 228.8 256.1 229.2" stroke="#EAEEED" stroke-width="2.59" stroke-miterlimit="10"/>
<path d="M242 267.5C243.1 266.1 244.2 264.6 245.3 263.2" stroke="#F0F0F0" stroke-width="2.59" stroke-miterlimit="10"/>
<path d="M248.5 257.7C249.6 256.3 250.7 254.8 251.8 253.4" stroke="#F0F0F0" stroke-width="2.59" stroke-miterlimit="10"/>
<path d="M223.6 294.2C224.7 292.8 225.8 291.3 226.9 289.9" stroke="#F0F0F0" stroke-width="2.59" stroke-miterlimit="10"/>
<path d="M230.1 284.4C231.2 283 232.3 281.5 233.4 280.1" stroke="#F0F0F0" stroke-width="2.59" stroke-miterlimit="10"/>
<path d="M227.8 267.3C231.5 270.4 235.1 273.5 238.8 276.5" stroke="#F0F0F0" stroke-width="2.59" stroke-miterlimit="10"/>
<path d="M230.7 249.1C234 251.8 237.3 254.5 240.6 257.1" stroke="#F0F0F0" stroke-width="2.59" stroke-miterlimit="10"/>
<path d="M208.3 293.9C211.7 297.2 215.4 300.2 219.3 302.8" stroke="#F0F0F0" stroke-width="2.59" stroke-miterlimit="10"/>
<path d="M212.3 276.2C215.2 278.6 218.1 280.9 221 283.2" stroke="#F0F0F0" stroke-width="2.59" stroke-miterlimit="10"/>
<path d="M222.5 273.9C224.2 275.3 225.8 276.6 227.5 277.9" stroke="#EAEEED" stroke-width="2.59" stroke-miterlimit="10"/>
<path d="M232.5 260.9C233.8 261.9 235 262.8 236.3 263.8" stroke="#EAEEED" stroke-width="2.59" stroke-miterlimit="10"/>
<path d="M233.7 245.8C234.9 244.1 236.2 242.4 237.4 240.7" stroke="#F0F0F0" stroke-width="2.59" stroke-miterlimit="10"/>
<path d="M223.1 260.3C224.3 258.6 225.6 256.9 226.8 255.2" stroke="#F0F0F0" stroke-width="2.59" stroke-miterlimit="10"/>
<path d="M214.7 271C215.9 269.3 217.2 267.6 218.4 265.9" stroke="#F0F0F0" stroke-width="2.59" stroke-miterlimit="10"/>
<path d="M204.9 285.9C206.1 284.2 207.4 282.5 208.6 280.8" stroke="#F0F0F0" stroke-width="2.59" stroke-miterlimit="10"/>
<mask id="mask1_71_1897" style="mask-type:luminance" maskUnits="userSpaceOnUse" x="0" y="0" width="517" height="309">
<path d="M516.9 0H0V309H516.9V0Z" fill="white"/>
</mask>
<g mask="url(#mask1_71_1897)">
<path d="M336.1 309C336 307 335.8 304 334.9 300.6C334.3 298.2 333.4 294.6 330.9 290.6C330.5 290 328.5 286.9 324.9 283.7C321.1 280.3 319.7 280.5 318.5 278.2C317 275.5 317.9 272.8 318.6 269C319.5 264 319.1 258.8 319.5 253.7C319.9 247.7 318 238.2 307.4 222.7" stroke="#C8D2D3" stroke-width="1.94" stroke-miterlimit="10"/>
<path d="M333.5 295.9C335.1 295.2 337.7 293.8 340.2 291.3C343.7 287.8 345 283.8 345.7 281.8C347.3 276.8 346.1 276 347.6 273C348.1 272.1 349.6 269.2 356.9 265.4C361.8 262.9 369.4 258.9 379.5 259.4C385.7 259.6 386.7 261.3 395 261.4C401.3 261.5 401 260.6 405.5 260.9C413.3 261.5 414.8 264.3 423.1 264.9C427.5 265.2 430.9 265.5 433.1 263.2C433.6 262.7 434.2 261.8 435.2 253.7C435.8 249.1 436.1 246.7 435.7 245.6C434 240.9 428.9 241 428.6 237.5C428.6 236.9 428.7 236.6 432.6 229.4C434.2 226.6 434.5 226 434.5 224.9C434.5 222.4 432.6 220.9 430.5 218.5C428.8 216.6 426.7 213.7 424.8 209.4" stroke="#C8D2D3" stroke-width="1.94" stroke-miterlimit="10"/>
<path d="M423.1 203.1C410.6 200.2 402.2 202 396.9 204.1C390.7 206.7 388.9 209.6 381.2 211.5C372.4 213.6 365.2 212 364.8 213.9C364.5 215.4 369.2 216.3 372.6 221.6C373.3 222.7 376.1 227.2 374.4 230.8C373.9 231.8 373 233 370.4 234.4C363.7 237.9 359.6 235.6 354.4 237.7C349.6 239.7 348.9 243.3 345.3 247.4C341.4 251.8 334.1 256.6 319.4 257.5" stroke="#C8D2D3" stroke-width="1.94" stroke-miterlimit="10"/>
<path d="M319.7 74.7998C319.4 79.5998 319.1 84.4998 318.7 89.2998C310.9 88.5998 303.1 87.8998 295.3 87.1998" stroke="#F0F0F0" stroke-width="2.59" stroke-miterlimit="10"/>
<path d="M298.5 73.1C298.7 68.4 299 63.7 299.2 59C306.9 59.4 314.6 59.8 322.3 60.2" stroke="#F0F0F0" stroke-width="2.59" stroke-miterlimit="10"/>
<path d="M287.8 55.8001C280.9 53.4001 274 51.0001 267.1 48.6001C265.7 52.0001 264.2 55.4001 262.8 58.8001" stroke="#F0F0F0" stroke-width="2.59" stroke-miterlimit="10"/>
<path d="M284.5 71.2002C282 74.7002 279.4 78.2002 276.9 81.7002C272.3 78.8002 267.7 75.8002 263.1 72.9002" stroke="#F0F0F0" stroke-width="2.59" stroke-miterlimit="10"/>
<path d="M252 54.7999C250.3 56.8999 248.5 59.0999 246.8 61.1999C240.7 56.5999 234.6 51.9999 228.5 47.3999" stroke="#F0F0F0" stroke-width="2.59" stroke-miterlimit="10"/>
<path d="M258.2 43.1002C250.6 37.6002 243 32.1002 235.3 26.7002C232.7 30.2002 230.1 33.7002 227.4 37.2002" stroke="#F0F0F0" stroke-width="2.59" stroke-miterlimit="10"/>
<path d="M305.7 69.2002C308 69.5002 310.3 69.8002 312.6 70.1002" stroke="#EAEEED" stroke-width="2.59" stroke-miterlimit="10"/>
<path d="M317.3 68.3999C319.2 68.4999 321.1 68.6999 323 68.7999" stroke="#F0F0F0" stroke-width="2.59" stroke-miterlimit="10"/>
<path d="M347.6 68.3999C348.7 68.5999 349.8 68.6999 350.9 68.8999" stroke="#F0F0F0" stroke-width="2.59" stroke-miterlimit="10"/>
<path d="M286.1 65.8999C287.4 66.1999 288.6 66.3999 289.9 66.6999" stroke="#F0F0F0" stroke-width="2.59" stroke-miterlimit="10"/>
<path d="M254.2 51.7002L256.6 53.6002" stroke="#F0F0F0" stroke-width="2.59" stroke-miterlimit="10"/>
<path d="M246.5 47.4L247.7 45.5" stroke="#F0F0F0" stroke-width="2.59" stroke-miterlimit="10"/>
<path d="M336.6 14.1001C336.6 19.7001 336.5 25.4001 336.5 31.0001" stroke="#F0F0F0" stroke-width="2.59" stroke-miterlimit="10"/>
<path d="M336.5 27.4001C332 27.9001 325.9 28.4001 318.7 27.9001C316.3 27.7001 305.7 26.9001 292.3 22.2001C275.3 16.2001 262.4 7.1001 253.7 -0.399902" stroke="#F0F0F0" stroke-width="2.59" stroke-miterlimit="10"/>
<path d="M252.8 4C254.7 2.5 256.6 1 258.5 -0.5" stroke="#F0F0F0" stroke-width="2.59" stroke-miterlimit="10"/>
<path d="M276.8 19.3C279.3 14.5 281.9 9.8 284.4 5" stroke="#F0F0F0" stroke-width="2.59" stroke-miterlimit="10"/>
<path d="M308.5 30.5001C309.2 24.5001 309.9 18.6001 310.6 12.6001" stroke="#F0F0F0" stroke-width="2.59" stroke-miterlimit="10"/>
<path d="M339.8 0C339.7 1.7 339.6 3.5 339.5 5.2C335 5 330.5 4.7 325.9 4.5C325.9 3 326 1.5 326 0H339.8Z" fill="#F0F0F0"/>
<path d="M326.6 21.3999L328.5 21.5999" stroke="#EAEEED" stroke-width="2.59" stroke-miterlimit="10"/>
<path d="M326.6 15.5002C327.6 15.1002 328.7 15.1002 329.7 15.5002" stroke="#EAEEED" stroke-width="2.59" stroke-miterlimit="10"/>
<path d="M317.8 13.6001V16.0001" stroke="#EAEEED" stroke-width="2.59" stroke-miterlimit="10"/>
<path d="M309.4 3.4002C310.4 4.2002 311.3 5.0002 312.3 5.8002C312 4.0002 311.9 2.0002 311.6 0.200195C311.4 1.6002 310.8 3.0002 309.4 3.4002Z" fill="#EAEEED"/>
<path d="M308.5 4.5L310.9 6.9C308.9 7.2 306.8 7.1 305 6.1C306.2 5.9 307.6 5.5 308.5 4.5Z" fill="#EAEEED"/>
<path d="M298.6 11.7002C298.7 13.9002 298.9 16.1002 299.1 18.4002C298.9 17.5002 300.7 16.5002 301.3 17.1002C301.9 17.7002 301.4 19.0002 300.5 18.9002C300.6 19.2002 300.8 19.9002 300.9 20.2002C301.7 20.1002 302.5 19.9002 303.3 19.8002C303.4 18.4002 303.2 17.2002 303.3 15.8002C301.1 16.2002 298.3 13.9002 298.6 11.7002Z" fill="#EAEEED"/>
<path d="M297.1 14.9998C296.9 15.9998 296.8 16.8998 296.6 17.8998C296 16.5998 294.6 15.9998 293.2 15.9998V13.7998C294.5 14.0998 295.9 14.6998 297.1 14.9998Z" fill="#EAEEED"/>
<path d="M302.5 2.1001C301.8 3.2001 301.1 4.3001 300.4 5.4001C299 5.1001 297.8 4.5001 296.9 3.5001C299 4.0001 300.9 3.7001 302.5 2.1001Z" fill="#EAEEED"/>
<path d="M296.6 0.200195C295.9 1.1002 295.2 1.9002 294.5 2.8002C293 2.1002 291.8 1.0002 290.9 -0.299805C292.9 0.500195 294.5 0.700195 296.6 0.200195Z" fill="#EAEEED"/>
<path d="M273.8 0C274.9 1.6 276.3 2.8 277.9 3.8C278 2.1 279.1 0.6 280.6 0H273.8Z" fill="#EAEEED"/>
</g>
<mask id="mask2_71_1897" style="mask-type:luminance" maskUnits="userSpaceOnUse" x="0" y="0" width="517" height="309">
<path d="M516.9 0H0V309H516.9V0Z" fill="white"/>
</mask>
<g mask="url(#mask2_71_1897)">
<path d="M157.2 310.4C138.5 296.2 119.7 282 101 267.8C111.7 252.7 122.3 237.6 132.9 222.5C156.3 238.9 179.8 255.2 203.2 271.6C194.4 284.5 185.6 297.3 176.8 310.2" stroke="white" stroke-width="0.32" stroke-miterlimit="10"/>
<path d="M151 309C100.3 270.7 49.7 232.4 -1 194.2" stroke="white" stroke-width="0.32" stroke-miterlimit="10"/>
<path d="M100.3 199.4C110.4 206.5 120.5 213.5 130.5 220.6C120 235.8 109.5 251.1 99.0997 266.3C67.2997 242.3 35.3997 218.3 3.59971 194.4C11.5997 182.3 19.5997 170.1 27.6997 158C28.1997 156.8 28.5997 155.1 28.6997 153C28.7997 148.1 26.3997 144.5 25.3997 143.2C16.4997 137.1 7.59971 131 -1.30029 124.9" stroke="white" stroke-width="0.32" stroke-miterlimit="10"/>
<path d="M-1.7002 190.6C-0.800195 191.2 -0.000195384 191.9 0.899805 192.5C8.9998 180.6 17.0998 168.7 25.1998 156.8C25.5998 155.8 26.2998 153.4 25.7998 150.4C25.1998 146.9 23.0998 144.7 22.2998 144C14.5998 138.7 6.8998 133.4 -0.800195 128" stroke="white" stroke-width="0.32" stroke-miterlimit="10"/>
<path d="M175.8 86.0001C149 66.9001 122.1 47.7001 95.2999 28.6001C93.2999 29.9001 90.9999 31.2001 88.3999 32.4001C83.9999 34.4001 79.8999 35.7001 76.4999 36.4001C72.0999 37.4001 67.5999 38.3001 63.1999 39.2001C41.7999 43.8001 20.4999 48.1001 -0.600098 52.3001" stroke="white" stroke-width="0.32" stroke-miterlimit="10"/>
<path d="M176.8 83.9C150.2 64.8 123.6 45.8 97 26.7C99.4 24.2 101.9 21.4 104.4 18.4C106.4 15.9 107.8 14 108.7 12.9C112.3 8 116.6 2.3 121.8 -4.5" stroke="white" stroke-width="0.32" stroke-miterlimit="10"/>
<path d="M-0.900391 50.0001C16.6996 47.0001 34.6996 43.5001 53.1996 39.5001C62.4996 37.5001 71.5996 35.4001 80.5996 33.3001C82.6996 32.7001 85.1996 31.9001 87.7996 30.6001C89.8996 29.6001 91.6996 28.6001 93.1996 27.6001" stroke="white" stroke-width="0.32" stroke-miterlimit="10"/>
<path d="M94.5996 25.6998C96.9996 23.1998 99.3996 20.4998 101.7 17.5998C107.1 11.0998 111.6 4.7998 115.5 -1.2002" stroke="white" stroke-width="0.32" stroke-miterlimit="10"/>
<path d="M113.2 -1C107.7 6 102.2 13 96.7999 20C95.6999 21.4 94.2999 23 92.4999 24.5C88.3999 27.9 84.2999 29.5 81.4999 30.2C69.7999 33.3 57.5999 36.2 45.0999 39C29.3999 42.5 14.0999 45.5 -0.600098 48.1" stroke="white" stroke-width="0.32" stroke-miterlimit="10"/>
<path d="M195.8 61.2002C230.6 85.6002 265.4 110 300.2 134.4" stroke="white" stroke-width="0.32" stroke-miterlimit="10"/>
<path d="M301.3 132.7C266.8 108.3 232.3 83.9001 197.8 59.6001" stroke="white" stroke-width="0.32" stroke-miterlimit="10"/>
<path d="M325.2 51C326.1 51.5 328.3 53.1 329.5 56C330.1 57.6 330.2 59.1 330.2 60.1C330.3 66.1 329.9 74 327.8 83C325.8 91.8 322.8 98.9 320.2 104.2C315.7 111.1 311.2 118 306.6 124.9C273.3 175.3 239.2 223.6 204.6 269.7C170.1 245.5 135.5 221.3 101 197.1" stroke="white" stroke-width="0.32" stroke-miterlimit="10"/>
<path d="M179.6 310.6C190 296 203.4 277 213.1 263.3C260.5 196.4 285.8 160.9 318.2 111.2C320 108.5 321.4 106.3 322.2 105C325.1 99.4001 328.3 91.8001 330.6 82.6001C333.1 72.3001 333.6 63.1001 333.3 56.2001C333.3 54.6001 334 53.0001 335.4 52.2001C337.2 51.2001 338.9 51.3001 339.5 51.4001" stroke="white" stroke-width="0.32" stroke-miterlimit="10"/>
<path d="M318 50.6998C317.2 51.2998 315.6 52.2998 313.5 52.7998C311.1 53.3998 309.1 52.9998 308 52.7998C301.6 51.8998 294.3 50.3998 286.5 47.8998C271.3 42.9998 259.5 36.1998 251.1 30.2998C250.6 29.9998 249.5 29.1998 248.7 27.7998C248 26.5998 247.9 25.3998 247.9 24.7998" stroke="white" stroke-width="0.32" stroke-miterlimit="10"/>
<path d="M245.7 23.2998C245.7 24.2998 245.8 26.0998 246.8 28.0998C247.5 29.4998 248.4 30.4998 249 31.0998C255 35.5998 262.9 40.5998 272.5 44.8998C286.4 51.1998 299.1 53.8998 308.5 55.0998C310 55.1998 312.4 55.1998 315.2 54.2998C317.3 53.5998 319 52.6998 320.1 51.8998" stroke="white" stroke-width="0.32" stroke-miterlimit="10"/>
<path d="M320.2 45.7001C319.7 45.4001 319 44.9001 318 44.4001C315.4 43.1001 313 42.9001 312.4 42.8001C309.7 42.5001 295.1 40.2001 287 37.6001C287 37.6001 276.8 34.3001 256.2 21.9001C255.7 21.6001 254.3 20.8001 252.4 20.6001C251.5 20.6001 250.8 20.6001 250.3 20.8001" stroke="white" stroke-width="0.32" stroke-miterlimit="10"/>
<path d="M323 45.6002C321.9 44.7002 320.4 43.5002 318.2 42.6002C316 41.6002 314.1 41.2002 312.7 41.0002C305.7 40.2002 297 38.7002 287.5 35.4002C274 30.8002 263.5 24.5002 256.4 19.4002C255.6 19.1002 254.3 18.7002 252.8 18.6002C251 18.5002 249.6 18.8002 248.6 19.1002" stroke="white" stroke-width="0.32" stroke-miterlimit="10"/>
<path d="M229 10.3002C223.6 6.6002 218.2 2.9002 212.8 -0.799805" stroke="white" stroke-width="0.32" stroke-miterlimit="10"/>
<path d="M217.9 -0.799805C222 2.2002 226.2 5.1002 230.3 8.1002" stroke="white" stroke-width="0.32" stroke-miterlimit="10"/>
<path d="M233.6 8.1002C229.4 5.1002 225.2 2.2002 221.1 -0.799805" stroke="white" stroke-width="0.32" stroke-miterlimit="10"/>
<path d="M228.4 12.1002C222.4 8.1002 216.4 4.2002 210.5 0.200195" stroke="white" stroke-width="0.32" stroke-miterlimit="10"/>
<path d="M346.1 45.3002C346.2 45.2002 346.4 45.0002 346.6 44.9002C348.2 43.5002 349.1 41.5002 349.1 39.4002C349.1 26.3002 349 13.2002 349 0.200195" stroke="white" stroke-width="0.32" stroke-miterlimit="10"/>
<path d="M354.3 45.3002C354.2 45.2002 354 45.0002 353.8 44.9002C352.2 43.5002 351.3 41.5002 351.3 39.4002C351.3 26.3002 351.4 13.2002 351.4 0.200195" stroke="white" stroke-width="0.32" stroke-miterlimit="10"/>
<path d="M518.9 205.7C500.6 192.1 485.9 180.8 475.5 172.8C465.2 164.9 454.4 156.3 436.4 142.6C429.5 137.3 423.8 133 419.9 130.1C420 129.5 420.1 128.4 419.6 127.1C419.1 125.6 418.1 124.8 417.7 124.4C414.2 122.3 408.8 118.5 404.2 111.9C402.7 109.7 399.4 104.9 397.8 97.9001C395.6 87.9001 396.6 72.4001 396.2 66.8001C396.2 66.1001 396 64.6001 395.1 63.2001C394.4 62.1001 393.6 61.4001 393 61.0001C392.9 55.3001 392.7 49.7001 392.5 44.0001C392.4 43.3001 392.1 42.4001 391.5 41.5001C391.1 40.8001 390.6 40.2001 390.2 39.8001C389.1 26.2001 388.1 12.7001 387 -0.899902" stroke="white" stroke-width="0.32" stroke-miterlimit="10"/>
<path d="M517.7 209.1C484.5 182.9 465.2 168.7 453.5 160.5C440.9 151.7 429 141.9 416.5 132.8C415.5 132.1 412.3 129.7 408.4 126.2C404.6 122.8 401.9 119.7 400.1 117.6C400.1 117.6 397.6 114.5 395.6 111.2C388.7 99.8002 388.9 74.8002 388.6 50.2002C388.5 45.9002 388.5 42.4002 388.5 40.5002C388.2 38.2002 388 36.0002 387.8 33.7002C387.4 29.4002 386.3 20.2002 385.2 -0.799805" stroke="white" stroke-width="0.32" stroke-miterlimit="10"/>
<path d="M391.3 63.8999C391.1 57.6999 390.9 51.3999 390.7 45.0999C390.6 44.0999 390.2 42.8999 389.6 41.5999C389.3 40.8999 388.9 40.2999 388.6 39.8999" stroke="white" stroke-width="0.32" stroke-miterlimit="10"/>
<path d="M50.9996 266.3C40.2996 281.1 29.6996 295.9 19.0996 310.8" stroke="white" stroke-width="0.32" stroke-miterlimit="10"/>
<path d="M16.3999 311.1C27.4999 295.7 38.4999 280.4 49.5999 265.1" stroke="white" stroke-width="0.32" stroke-miterlimit="10"/>
<path d="M13.6998 310.6C8.5998 304.9 3.3998 299.3 -1.7002 293.6" stroke="white" stroke-width="0.32" stroke-miterlimit="10"/>
<path d="M10.9999 310.3C6.9999 306 2.9999 301.7 -1.1001 297.4" stroke="white" stroke-width="0.32" stroke-miterlimit="10"/>
<path d="M-1.30029 275.9C10.2997 270.6 21.8997 265.3 33.4997 260C34.2997 259.7 35.3997 259.4 36.6997 259.2C38.6997 258.9 40.2997 259.1 41.4997 259.3" stroke="white" stroke-width="0.32" stroke-miterlimit="10"/>
<path d="M-1.30029 278.6C17.5997 269.5 31.5997 263 34.3997 261.9C35.9997 261.3 37.5997 261.1 37.5997 261.1C38.5997 261 39.8997 260.9 41.2997 261C42.0997 261.1 42.8997 261.2 43.5997 261.4" stroke="white" stroke-width="0.32" stroke-miterlimit="10"/>
<path d="M327.5 51.0998C328 51.2998 328.8 51.6998 329.6 52.3998C330.5 53.1998 331 54.0998 331.2 54.5998C331.6 53.9998 332.2 53.0998 333.3 52.3998C334.7 51.3998 336 50.9998 336.8 50.7998" stroke="white" stroke-width="0.32" stroke-miterlimit="10"/>
</g>
<mask id="mask3_71_1897" style="mask-type:luminance" maskUnits="userSpaceOnUse" x="0" y="0" width="517" height="309">
<path d="M516.9 0H0V309H516.9V0Z" fill="white"/>
</mask>
<g mask="url(#mask3_71_1897)">
<path d="M51 266.3C111.1 180.4 171.3 94.4 231.4 8.5" stroke="white" stroke-width="3.89" stroke-miterlimit="10"/>
<path d="M228.5 12.7002C239.6 20.8002 249.5 26.7002 257 30.7002C271.1 38.4002 285.5 46.1002 305.7 49.6002C312.2 50.7002 317.5 51.1002 321.1 51.3002C346.9 51.2002 375.8 50.3002 406.9 48.0002C432.4 46.1002 454.9 43.5002 481.7 34.5002C482.5 34.2002 483.2 34.0002 483.7 33.8002C500.6 28.0002 512.9 22.0002 521 17.6002" stroke="white" stroke-width="2.59" stroke-miterlimit="10"/>
<path d="M206.5 43.9002C214.7 31.8002 223 19.8002 231.2 7.7002C239.1 13.7002 251.4 22.6002 266.3 30.7002C266.3 30.7002 283.8 40.2002 298.2 43.6002C298.6 43.7002 298.9 43.8002 299.2 43.8002C301.8 44.4002 304.2 44.8002 306.5 45.1002C314.3 46.2002 322.6 46.2002 322.6 46.2002C384 45.9002 411.2 42.6002 411.2 42.6002C436.7 39.5002 452 37.6002 472.9 31.4002C488.6 26.7002 502 21.2002 512.8 16.0002C517.4 13.8002 521.1 11.9002 523.9 10.4002" stroke="white" stroke-width="2.59" stroke-miterlimit="10"/>
<path d="M116 314.2C76.1002 283.9 36.1002 253.7 -3.7998 223.4" stroke="white" stroke-width="3.89" stroke-miterlimit="10"/>
</g>
<mask id="mask4_71_1897" style="mask-type:luminance" maskUnits="userSpaceOnUse" x="0" y="0" width="517" height="309">
<path d="M516.9 0H0V309H516.9V0Z" fill="white"/>
</mask>
<g mask="url(#mask4_71_1897)">
<path d="M46.2004 253.5C45.8004 249.8 46.6004 247.6 47.5004 246.1C48.2004 244.9 49.0004 244.2 49.0004 242.9C49.0004 242 48.7004 241.1 46.8004 238.7C44.9004 236.4 44.0004 235.2 42.3004 233.9C39.9004 232.1 38.0004 230.7 35.4004 230.8C34.9004 230.8 32.1004 231 30.2004 233.4C27.9004 236.2 28.9004 239.6 28.9004 240" stroke="#C8D2D3" stroke-width="0.65" stroke-miterlimit="10"/>
<path d="M46.2004 254.3C46.6422 254.3 47.0004 253.942 47.0004 253.5C47.0004 253.058 46.6422 252.7 46.2004 252.7C45.7586 252.7 45.4004 253.058 45.4004 253.5C45.4004 253.942 45.7586 254.3 46.2004 254.3Z" fill="#C8D2D3"/>
<path d="M39.5002 249.7C39.942 249.7 40.3002 249.342 40.3002 248.9C40.3002 248.458 39.942 248.1 39.5002 248.1C39.0584 248.1 38.7002 248.458 38.7002 248.9C38.7002 249.342 39.0584 249.7 39.5002 249.7Z" fill="#C8D2D3"/>
<path d="M32.8 244.5C33.2418 244.5 33.6 244.142 33.6 243.7C33.6 243.259 33.2418 242.9 32.8 242.9C32.3582 242.9 32 243.259 32 243.7C32 244.142 32.3582 244.5 32.8 244.5Z" fill="#C8D2D3"/>
<path d="M28.8 240.8C29.2418 240.8 29.6 240.442 29.6 240C29.6 239.558 29.2418 239.2 28.8 239.2C28.3582 239.2 28 239.558 28 240C28 240.442 28.3582 240.8 28.8 240.8Z" fill="#C8D2D3"/>
<path d="M31.2004 233.2C31.6422 233.2 32.0004 232.842 32.0004 232.4C32.0004 231.958 31.6422 231.6 31.2004 231.6C30.7586 231.6 30.4004 231.958 30.4004 232.4C30.4004 232.842 30.7586 233.2 31.2004 233.2Z" fill="#C8D2D3"/>
<path d="M38.7004 232.7C39.1422 232.7 39.5004 232.342 39.5004 231.9C39.5004 231.458 39.1422 231.1 38.7004 231.1C38.2586 231.1 37.9004 231.458 37.9004 231.9C37.9004 232.342 38.2586 232.7 38.7004 232.7Z" fill="#C8D2D3"/>
<path d="M45.4001 237.6C45.8419 237.6 46.2001 237.242 46.2001 236.8C46.2001 236.358 45.8419 236 45.4001 236C44.9583 236 44.6001 236.358 44.6001 236.8C44.6001 237.242 44.9583 237.6 45.4001 237.6Z" fill="#C8D2D3"/>
<path d="M48.9001 244.5C49.3419 244.5 49.7001 244.142 49.7001 243.7C49.7001 243.259 49.3419 242.9 48.9001 242.9C48.4583 242.9 48.1001 243.259 48.1001 243.7C48.1001 244.142 48.4583 244.5 48.9001 244.5Z" fill="#C8D2D3"/>
<path d="M52.0002 258.6C52.442 258.6 52.8002 258.242 52.8002 257.8C52.8002 257.358 52.442 257 52.0002 257C51.5584 257 51.2002 257.358 51.2002 257.8C51.2002 258.242 51.5584 258.6 52.0002 258.6Z" fill="#C8D2D3"/>
<path d="M15.9001 231.6C16.3419 231.6 16.7001 231.242 16.7001 230.8C16.7001 230.358 16.3419 230 15.9001 230C15.4583 230 15.1001 230.358 15.1001 230.8C15.1001 231.242 15.4583 231.6 15.9001 231.6Z" fill="#C8D2D3"/>
<path d="M9.20039 227C9.64222 227 10.0004 226.642 10.0004 226.2C10.0004 225.759 9.64222 225.4 9.20039 225.4C8.75856 225.4 8.40039 225.759 8.40039 226.2C8.40039 226.642 8.75856 227 9.20039 227Z" fill="#C8D2D3"/>
<path d="M2.5002 221.8C2.94202 221.8 3.3002 221.442 3.3002 221C3.3002 220.558 2.94202 220.2 2.5002 220.2C2.05837 220.2 1.7002 220.558 1.7002 221C1.7002 221.442 2.05837 221.8 2.5002 221.8Z" fill="#C8D2D3"/>
<path d="M21.7004 236C22.1422 236 22.5004 235.642 22.5004 235.2C22.5004 234.759 22.1422 234.4 21.7004 234.4C21.2586 234.4 20.9004 234.759 20.9004 235.2C20.9004 235.642 21.2586 236 21.7004 236Z" fill="#C8D2D3"/>
<path d="M78.1003 278.4C78.5421 278.4 78.9003 278.042 78.9003 277.6C78.9003 277.158 78.5421 276.8 78.1003 276.8C77.6585 276.8 77.3003 277.158 77.3003 277.6C77.3003 278.042 77.6585 278.4 78.1003 278.4Z" fill="#C8D2D3"/>
<path d="M71.4001 273.8C71.8419 273.8 72.2001 273.442 72.2001 273C72.2001 272.558 71.8419 272.2 71.4001 272.2C70.9583 272.2 70.6001 272.558 70.6001 273C70.6001 273.442 70.9583 273.8 71.4001 273.8Z" fill="#C8D2D3"/>
<path d="M64.7004 268.7C65.1422 268.7 65.5004 268.342 65.5004 267.9C65.5004 267.458 65.1422 267.1 64.7004 267.1C64.2586 267.1 63.9004 267.458 63.9004 267.9C63.9004 268.342 64.2586 268.7 64.7004 268.7Z" fill="#C8D2D3"/>
<path d="M58.2004 263.4C58.6422 263.4 59.0004 263.042 59.0004 262.6C59.0004 262.158 58.6422 261.8 58.2004 261.8C57.7586 261.8 57.4004 262.158 57.4004 262.6C57.4004 263.042 57.7586 263.4 58.2004 263.4Z" fill="#C8D2D3"/>
<path d="M84.7004 283.6C85.1422 283.6 85.5004 283.242 85.5004 282.8C85.5004 282.358 85.1422 282 84.7004 282C84.2586 282 83.9004 282.358 83.9004 282.8C83.9004 283.242 84.2586 283.6 84.7004 283.6Z" fill="#C8D2D3"/>
<path d="M117.5 309.4C117.942 309.4 118.3 309.042 118.3 308.6C118.3 308.158 117.942 307.8 117.5 307.8C117.058 307.8 116.7 308.158 116.7 308.6C116.7 309.042 117.058 309.4 117.5 309.4Z" fill="#C8D2D3"/>
<path d="M110.7 303.8C111.142 303.8 111.5 303.442 111.5 303C111.5 302.558 111.142 302.2 110.7 302.2C110.259 302.2 109.9 302.558 109.9 303C109.9 303.442 110.259 303.8 110.7 303.8Z" fill="#C8D2D3"/>
<path d="M97.8 293.8C98.2418 293.8 98.6 293.442 98.6 293C98.6 292.558 98.2418 292.2 97.8 292.2C97.3582 292.2 97 292.558 97 293C97 293.442 97.3582 293.8 97.8 293.8Z" fill="#C8D2D3"/>
<path d="M91.1003 289.2C91.5421 289.2 91.9003 288.842 91.9003 288.4C91.9003 287.958 91.5421 287.6 91.1003 287.6C90.6585 287.6 90.3003 287.958 90.3003 288.4C90.3003 288.842 90.6585 289.2 91.1003 289.2Z" fill="#C8D2D3"/>
<path d="M103.5 298.1C103.942 298.1 104.3 297.742 104.3 297.3C104.3 296.858 103.942 296.5 103.5 296.5C103.058 296.5 102.7 296.858 102.7 297.3C102.7 297.742 103.058 298.1 103.5 298.1Z" fill="#C8D2D3"/>
<path d="M-0.799805 218C39.3002 248.8 79.4002 279.5 119.6 310.3" stroke="#C8D2D3" stroke-width="0.65" stroke-miterlimit="10"/>
</g>
<mask id="mask5_71_1897" style="mask-type:luminance" maskUnits="userSpaceOnUse" x="0" y="0" width="517" height="309">
<path d="M516.9 0H0V309H516.9V0Z" fill="white"/>
</mask>
<g mask="url(#mask5_71_1897)">
<path d="M-0.700195 74.2999C1.3998 75.5999 3.3998 76.9999 5.4998 78.3999C8.7998 73.5999 11.9998 68.6999 15.2998 63.8999C20.4998 67.3999 25.5998 70.8999 30.7998 74.3999C34.2998 69.5999 37.7998 64.6999 41.2998 59.8999C46.1998 63.5999 51.1998 67.1999 56.0998 70.8999C52.7998 75.8999 49.3998 80.8999 46.0998 85.8999C43.9998 84.4999 41.9998 82.9999 39.8998 81.5999" stroke="#F0F0F0" stroke-width="2.59" stroke-miterlimit="10"/>
<path d="M203.7 309C200.1 307 196.4 305 192.7 303" stroke="#F0F0F0" stroke-width="2.59" stroke-miterlimit="10"/>
<path d="M187 309C191.3 303.3 195.6 297.6 199.8 291.9" stroke="#F0F0F0" stroke-width="2.59" stroke-miterlimit="10"/>
</g>
<mask id="mask6_71_1897" style="mask-type:luminance" maskUnits="userSpaceOnUse" x="0" y="0" width="517" height="309">
<path d="M516.9 0H0V309H516.9V0Z" fill="white"/>
</mask>
<g mask="url(#mask6_71_1897)">
<path d="M23.2 156C17.1 164.6 11 173.3 4.9 181.9C4.8 182 4.3 183 3.2 183.2C2.3 183.3 1.4 183 0.8 182.2C-0.3 181.4 -1.4 180.6 -2.5 179.8" stroke="#C8D2D3" stroke-width="0.32" stroke-miterlimit="10"/>
</g>
<mask id="mask7_71_1897" style="mask-type:luminance" maskUnits="userSpaceOnUse" x="54" y="97" width="58" height="27">
<path d="M111.3 97.3999H54.7998V124H111.3V97.3999Z" fill="white"/>
</mask>
<g mask="url(#mask7_71_1897)">
<path d="M79.7996 98.9001C78.1996 99.1001 76.9996 100.5 76.8996 102.1C76.7996 103.7 77.3996 105.2 77.9996 106.3C78.6996 107.8 79.6996 109.3 80.6996 111C80.8996 111.4 81.1996 111.8 81.3996 112.1C80.8996 112.4 80.2996 112.5 79.6996 112.5C78.1996 112.5 76.3996 111.7 74.2996 110.1C72.0996 108.4 71.7996 108.1 71.4996 107.8C71.3996 107.7 71.1996 107.6 70.9996 107.3L69.0996 109.5C69.2996 109.7 69.3996 109.8 69.5996 109.9C69.9996 110.3 70.2996 110.5 72.5996 112.3C75.1996 114.4 77.6996 115.4 79.8996 115.3C80.9996 115.3 81.9996 115 82.9996 114.5C83.2996 115 83.4996 115.5 83.7996 116C85.4996 119.4 85.4996 121.1 85.3996 121.2L88.2996 121.4C88.2996 121.2 88.3996 119 86.3996 114.7C85.9996 114 85.5996 113.2 85.1996 112.5C85.6996 111.7 86.0996 110.6 86.1996 108.9C86.2996 107.1 85.9996 105 85.2996 103.2C83.4996 98.7001 80.5996 98.8001 79.7996 98.9001ZM82.3996 104.4C83.0996 106.2 83.1996 108 83.0996 109.4C82.1996 107.9 81.2996 106.4 80.6996 105.1C80.2996 104.3 79.8996 103.3 79.8996 102.3C79.8996 102.1 79.9996 102 80.0996 101.9C80.1996 101.8 80.1996 101.8 80.2996 101.8C80.4996 101.8 80.7996 101.9 81.0996 102.1C81.3996 102.4 81.8996 103 82.3996 104.4Z" fill="#B4CC04"/>
<path d="M80.6999 104.2C80.5999 104.4 80.7999 104.7 80.9999 104.9C81.1999 105.1 81.4999 105 81.6999 104.9C81.8999 104.8 81.9999 104.5 81.8999 104.2" stroke="#1A1A1A" stroke-width="0.16" stroke-miterlimit="10"/>
<path d="M83.6997 103.9C83.6997 104.2 84.0997 104.4 84.4997 104.4C84.8997 104.4 85.2997 104.2 85.2997 103.9C85.2997 103.6 84.8997 103.4 84.4997 103.4C84.0997 103.4 83.6997 103.6 83.6997 103.9Z" fill="#F39655"/>
<path d="M76.9995 103.9C76.9995 104.2 77.3995 104.4 77.7995 104.4C78.1995 104.4 78.5995 104.2 78.5995 103.9C78.5995 103.6 78.1995 103.4 77.7995 103.4C77.3995 103.4 76.9995 103.6 76.9995 103.9Z" fill="#F39655"/>
<path d="M77.3999 102.2C77.5999 102.6 78.1999 102.9 78.6999 102.9C79.1999 102.9 79.7999 102.7 80.0999 102.3" stroke="#1A1A1A" stroke-width="0.16" stroke-miterlimit="10"/>
<path d="M82.1997 102.2C82.3997 102.6 82.9997 102.9 83.4997 102.9C83.9997 102.9 84.5997 102.7 84.8997 102.3" stroke="#1A1A1A" stroke-width="0.16" stroke-miterlimit="10"/>
<path d="M85.9995 108C87.2995 108.2 88.6995 107.7 89.6995 106.9C90.3995 106.3 90.8995 105.5 91.2995 104.7C91.5995 103.9 91.3995 102.9 92.0995 102.2" stroke="#1A1A1A" stroke-width="0.16" stroke-miterlimit="10"/>
<path d="M79.4999 108.9C78.1999 109.1 76.7999 108.6 75.7999 107.8C75.0999 107.2 74.5999 106.4 74.1999 105.6C73.8999 104.8 74.0999 103.8 73.3999 103.1" stroke="#1A1A1A" stroke-width="0.16" stroke-miterlimit="10"/>
<path d="M90.1995 121.7C90.0995 121.6 89.9995 121.5 89.8995 121.5C89.6995 121.4 89.5995 121.4 89.3995 121.4C89.1995 121.4 88.9995 121.4 88.8995 121.4C88.7995 121.4 88.6995 121.4 88.6995 121.3L88.5995 121.2C88.5995 121.1 88.4995 121.1 88.4995 121.1H88.1995C88.2995 121.1 88.3995 121 88.3995 120.9V120.6C88.3995 120.5 88.2995 120.4 88.1995 120.4H85.1995C85.0995 120.4 84.9995 120.5 84.9995 120.6V120.9C84.9995 121 85.0995 121.1 85.1995 121.1C85.0995 121.1 84.9995 121.2 84.9995 121.3V122.5C84.9995 122.6 85.0995 122.7 85.1995 122.7H90.0995C90.1995 122.7 90.2995 122.6 90.2995 122.5V122C90.2995 121.8 90.2995 121.8 90.1995 121.7Z" stroke="#1A1A1A" stroke-width="0.16" stroke-miterlimit="10"/>
<path d="M67.4997 111C67.5997 111 67.6997 111 67.7997 110.9C67.9997 110.8 68.0997 110.7 68.1997 110.6C68.2997 110.5 68.3997 110.3 68.5997 110.2C68.6997 110.2 68.6997 110.1 68.7997 110.1C68.8997 110.1 68.8997 110.1 68.9997 110.1H69.0997L69.2997 109.9C69.1997 110 69.1997 110.1 69.2997 110.2L69.4997 110.4C69.5997 110.5 69.6997 110.5 69.7997 110.4L71.7997 108.2C71.8997 108.1 71.8997 108 71.7997 107.9L71.5997 107.7C71.4997 107.6 71.3997 107.6 71.2997 107.7C71.3997 107.6 71.3997 107.5 71.2997 107.4L70.4997 106.6C70.3997 106.5 70.2997 106.5 70.1997 106.6L66.8997 110.2C66.7997 110.3 66.7997 110.4 66.8997 110.5C66.9997 110.6 67.0997 110.7 67.1997 110.8C67.2997 111 67.3997 111 67.4997 111Z" stroke="#1A1A1A" stroke-width="0.16" stroke-miterlimit="10"/>
</g>
</g>
</g>
<defs>
<clipPath id="clip0_71_1897">
<rect width="390" height="309" fill="white"/>
</clipPath>
</defs>
</svg>
