<svg width="35" height="20" viewBox="0 0 35 20" fill="none" xmlns="http://www.w3.org/2000/svg">
<path d="M33.1223 2H1.45821C0.652724 2 0 1.55238 0 1C0 0.447619 0.652724 0 1.45821 0H33.1223C33.9278 0 34.5805 0.447619 34.5805 1C34.5805 1.55238 33.9278 2 33.1223 2Z" fill="#FBBC33"/>
<path d="M33.1223 11H1.45821C0.652724 11 0 10.5524 0 10C0 9.44762 0.652724 9 1.45821 9H33.1223C33.9278 9 34.5805 9.44762 34.5805 10C34.5805 10.5524 33.9278 11 33.1223 11Z" fill="#FBBC33"/>
<path d="M33.1223 20H1.45821C0.652724 20 0 19.5524 0 19C0 18.4476 0.652724 18 1.45821 18H33.1223C33.9278 18 34.5805 18.4476 34.5805 19C34.5805 19.5524 33.9278 20 33.1223 20Z" fill="#FBBC33"/>
</svg>
