<svg width="35" height="20" viewBox="0 0 35 20" fill="none" xmlns="http://www.w3.org/2000/svg">
<path d="M33.1219 2H1.4582C0.652716 2 0 1.55238 0 1C0 0.447619 0.652716 0 1.4582 0H33.1219C33.9274 0 34.5801 0.447619 34.5801 1C34.5801 1.55238 33.9274 2 33.1219 2Z" fill="#FBBC33"/>
<path d="M33.1219 11H1.4582C0.652716 11 0 10.5524 0 10C0 9.44762 0.652716 9 1.4582 9H33.1219C33.9274 9 34.5801 9.44762 34.5801 10C34.5801 10.5524 33.9274 11 33.1219 11Z" fill="#FBBC33"/>
<path d="M33.1219 20H1.4582C0.652716 20 0 19.5524 0 19C0 18.4476 0.652716 18 1.4582 18H33.1219C33.9274 18 34.5801 18.4476 34.5801 19C34.5801 19.5524 33.9274 20 33.1219 20Z" fill="#FBBC33"/>
</svg>
