<svg width="160" height="111" viewBox="0 0 160 111" fill="none" xmlns="http://www.w3.org/2000/svg">
<path d="M156.844 65.0431L91.5086 30.5536L20.5642 9.93542L5.3393 47.5862L70.1403 83.3967L141.619 102.694L156.844 65.0431Z" fill="#8B8B8B"/>
<path d="M154.844 62.0431L89.5086 27.5536L18.5642 6.93542L3.33929 44.5862L68.1403 80.3967L139.619 99.6938L154.844 62.0431Z" fill="#FED376"/>
<path d="M42.3064 34.0213C38.9189 32.6515 37.8799 30.3286 39.087 27.3434C40.2207 24.5399 42.368 23.1883 46.2214 24.4143L48.818 25.2378C49.4049 25.4298 49.8022 25.5301 50.2648 25.5812L49.9128 27.2359C49.3724 27.1533 48.7386 27.0027 48.157 26.7978L45.7371 25.9853C43.5354 25.2309 42.2214 25.5302 41.2944 27.2997C42.4115 26.8152 43.8566 26.9012 45.518 27.573C47.958 28.5597 49.261 30.491 48.4213 32.5676C47.5868 34.6313 45.1358 35.1654 42.3064 34.0213ZM40.7195 29.4683C40.2734 30.5716 41.1244 31.716 42.8765 32.4246C44.6677 33.1488 46.0361 32.9018 46.4822 31.7986C46.9283 30.6954 46.1239 29.5849 44.3718 28.8763C42.5807 28.1521 41.1656 28.3651 40.7195 29.4683ZM51.1319 37.5901C49.198 36.8081 48.2849 35.5931 48.8045 34.3082C49.2349 33.2439 50.3514 32.9102 52.7876 33.5329L56.4679 34.4774C56.4989 33.8406 56.0019 33.2772 54.6391 32.7261C53.1725 32.1331 52.2236 32.1269 51.6549 32.6369L49.7893 31.6862C50.7477 30.5485 52.688 30.3062 55.2059 31.3244C57.7498 32.3531 58.9239 34.0057 58.2153 35.7579L56.6408 39.6516L54.9017 38.9483L55.2751 37.8006C54.124 38.3319 52.5726 38.1726 51.1319 37.5901ZM50.7411 35.046C50.5522 35.5133 50.899 35.9253 51.8595 36.3137C53.5597 37.0013 55.5668 36.9672 56.0497 35.7731L56.0707 35.7212L52.4111 34.8001C51.3487 34.5518 50.9091 34.6307 50.7411 35.046ZM58.4268 40.3738L61.0614 33.8583L62.9304 34.6141L61.9962 36.9243L66.7076 38.8295L67.6418 36.5192L69.5108 37.275L66.8761 43.7905L65.0071 43.0347L66.062 40.4259L61.3507 38.5208L60.2957 41.1295L58.4268 40.3738ZM68.8201 44.5766L71.4548 38.0611L73.3238 38.8169L72.3896 41.1271L77.1009 43.0323L78.0352 40.722L79.9041 41.4778L77.2695 47.9932L75.4005 47.2375L76.4554 44.6287L71.744 42.7235L70.6891 45.3323L68.8201 44.5766ZM83.3102 50.6021C80.3251 49.395 79.0983 47.2377 79.8803 45.3039C80.6833 43.3181 83.231 42.6569 86.0474 43.7958C88.7341 44.8822 90.1536 46.9362 89.3926 48.8181C89.3086 49.0258 89.149 49.3086 88.9686 49.5679L81.5706 46.5763C81.4705 47.608 82.2911 48.5288 83.8876 49.1744C85.3412 49.7622 86.3315 49.8153 86.9676 49.3628L88.6142 50.4816C87.5288 51.5227 85.5426 51.5048 83.3102 50.6021ZM82.1733 45.3099L87.6374 47.5194C87.8145 46.7454 86.9966 45.7804 85.4911 45.1716C84.0634 44.5943 82.8803 44.6444 82.1733 45.3099ZM88.1353 55.7094L91.9246 46.3385L93.7028 47.0575L93.4213 47.9404C94.4053 47.5983 95.6814 47.6915 97.0701 48.2531C99.7698 49.3448 101.049 51.4476 100.225 53.4853C99.406 55.51 97.0196 56.1458 94.32 55.0541C92.9442 54.4978 91.9932 53.6753 91.5001 52.7661L90.0043 56.4651L88.1353 55.7094ZM92.4763 50.352C92.0197 51.4812 92.8784 52.6439 94.6436 53.3577C96.4347 54.082 97.8343 53.8324 98.2909 52.7033C98.7475 51.5741 97.9147 50.4219 96.1236 49.6976C94.3584 48.9838 92.9329 49.2228 92.4763 50.352ZM102.689 58.272L112.141 50.7683L114.477 51.713L116.109 63.6988L113.876 62.7961L113.481 59.5553L107.354 57.0781L104.817 59.1327L102.689 58.272ZM108.984 55.7739L113.228 57.4901L112.666 52.7929L108.984 55.7739ZM121.277 65.9549C118.798 64.9525 117.281 63.4779 117.231 61.3589L119.446 61.5596C119.461 62.9402 120.469 63.7707 121.923 64.3585C123.727 65.088 125.08 64.8045 125.51 63.7403C125.962 62.6241 125.191 61.5423 123.374 60.8075C121.92 60.2197 120.881 60.1768 120.003 60.5166L118.518 59.3724L121.832 54.6871L129.606 57.8308L128.95 59.4532L122.591 56.8815L121.14 58.8623C122.147 58.7257 123.264 58.9509 124.38 59.4022C127.197 60.5411 128.307 62.5757 127.514 64.5355C126.738 66.4564 124.418 67.225 121.277 65.9549ZM24.6055 46.1134L27.2402 39.5979L33.0418 41.9439C34.4954 42.5317 35.0973 43.5453 34.688 44.5577C34.3941 45.2845 33.7663 45.6045 33.0177 45.5887C33.7773 46.1375 34.076 46.8925 33.7454 47.7102C33.3045 48.8005 32.0554 49.1259 30.3811 48.4489L24.6055 46.1134ZM26.9471 45.6256L30.6202 47.1109C31.2302 47.3576 31.709 47.219 31.8927 46.7647C32.0712 46.3234 31.818 45.9039 31.208 45.6573L27.5349 44.172L26.9471 45.6256ZM28.0283 42.9519L31.5715 44.3847C32.1426 44.6157 32.572 44.4873 32.7452 44.059C32.9184 43.6307 32.6989 43.2399 32.1278 43.009L28.5846 41.5762L28.0283 42.9519ZM37.9521 51.5103L40.5867 44.9949L48.9063 48.3591L46.2716 54.8745L44.4026 54.1188L46.397 49.1868L41.8154 47.3341L39.821 52.2661L37.9521 51.5103ZM52.3674 57.5056C49.4601 56.33 48.0878 54.1592 48.9013 52.1475C49.72 50.1227 52.2102 49.529 55.1175 50.7046C58.0378 51.8855 59.4153 54.0433 58.5966 56.068C57.7831 58.0797 55.2876 58.6865 52.3674 57.5056ZM50.8351 52.9295C50.3838 54.0457 51.2113 55.2109 53.0024 55.9351C54.8065 56.6647 56.2113 56.4022 56.6627 55.286C57.1141 54.1698 56.2865 53.0046 54.4824 52.2751C52.6913 51.5508 51.2865 51.8133 50.8351 52.9295ZM69.7733 56.7971L67.7789 61.7291L69.1807 62.2959L67.7584 65.8133L65.9413 65.0785L66.7233 63.1446L59.5589 60.2475L58.7769 62.1814L56.9598 61.4466L58.3821 57.9293L59.3166 58.3072C60.3296 57.8561 60.9281 57.0108 61.5941 55.5132L62.3753 53.8055L69.7733 56.7971ZM61.1986 59.0682L65.9359 60.9839L67.3057 57.5963L63.4639 56.0428L63.2463 56.5438C62.7557 57.7196 62.1492 58.622 61.1986 59.0682ZM73.7733 66.1616C70.9439 65.0174 69.5716 62.8467 70.3851 60.8349C71.2038 58.8102 73.694 58.2164 76.5234 59.3606C78.9246 60.3315 80.1354 61.8933 80.0046 63.4865L77.903 63.0444C77.9009 62.2281 77.1993 61.4611 75.8884 60.931C74.1232 60.2172 72.7703 60.5007 72.3189 61.6169C71.8728 62.7201 72.6432 63.8773 74.4084 64.5911C75.8101 65.1579 76.8606 65.0995 77.3879 64.5425L79.2063 65.6101C78.3437 66.8469 76.2263 67.1535 73.7733 66.1616ZM81.8548 69.2634L83.8492 64.3313L80.5914 63.014L81.2317 61.4306L89.6162 64.821L88.9759 66.4044L85.7182 65.0871L83.7238 70.0191L81.8548 69.2634ZM90.6091 72.9695C88.6752 72.1875 87.7621 70.9726 88.2817 69.6876C88.7121 68.6234 89.8286 68.2896 92.2648 68.9123L95.9451 69.8569C95.9761 69.22 95.4791 68.6566 94.1163 68.1055C92.6497 67.5125 91.7008 67.5063 91.1321 68.0163L89.2665 67.0656C90.2249 65.9279 92.1652 65.6856 94.6831 66.7038C97.227 67.7325 98.4011 69.3851 97.6925 71.1373L96.118 75.031L94.3788 74.3277L94.7523 73.1801C93.6012 73.7113 92.0498 73.552 90.6091 72.9695ZM90.2183 70.4255C90.0294 70.8927 90.3762 71.3048 91.3367 71.6931C93.0369 72.3807 95.044 72.3466 95.5269 71.1526L95.5479 71.1006L91.8883 70.1796C90.8259 69.9312 90.3863 70.0101 90.2183 70.4255ZM97.904 75.7532L100.539 69.2377L106.34 71.5837C107.794 72.1716 108.396 73.1851 107.986 74.1975C107.693 74.9243 107.065 75.2443 106.316 75.2285C107.076 75.7773 107.375 76.5324 107.044 77.35C106.603 78.4403 105.354 78.7657 103.68 78.0887L97.904 75.7532ZM100.246 75.2655L103.919 76.7507C104.529 76.9974 105.008 76.8588 105.191 76.4046C105.37 75.9633 105.116 75.5438 104.506 75.2971L100.833 73.8118L100.246 75.2655ZM101.327 72.5918L104.87 74.0246C105.441 74.2555 105.871 74.1271 106.044 73.6988C106.217 73.2705 105.997 72.8797 105.426 72.6488L101.883 71.216L101.327 72.5918ZM114.046 82.2805L112.048 78.4826L110.711 77.942L109.672 80.5118L107.803 79.7561L110.438 73.2406L112.307 73.9964L111.362 76.3326L112.712 76.8784L116.59 75.7283L119.186 76.778L113.952 78.2558L116.668 83.3407L114.046 82.2805ZM121.228 85.3511C118.243 84.1439 117.017 81.9867 117.799 80.0529C118.602 78.0671 121.149 77.4059 123.966 78.5448C126.652 79.6312 128.072 81.6852 127.311 83.5671C127.227 83.7748 127.067 84.0576 126.887 84.3169L119.489 81.3253C119.389 82.357 120.209 83.2778 121.806 83.9234C123.259 84.5112 124.25 84.5643 124.886 84.1117L126.532 85.2306C125.447 86.2717 123.461 86.2538 121.228 85.3511ZM120.091 80.0589L125.556 82.2684C125.733 81.4944 124.915 80.5294 123.409 79.9206C121.982 79.3433 120.799 79.3934 120.091 80.0589Z" fill="#1A1A1A"/>
</svg>
