<svg width="158" height="109" viewBox="0 0 158 109" fill="none" xmlns="http://www.w3.org/2000/svg">
<g filter="url(#filter0_d_18_1425)">
<path d="M154.844 62.1802L89.5086 27.7378L18.5642 7.14786L3.33929 44.7472L68.1403 80.5088L139.619 99.7795L154.844 62.1802Z" fill="#FED376"/>
</g>
<path d="M42.2926 34.2091C38.9044 32.8408 37.8659 30.5191 39.0745 27.5345C40.2094 24.7315 42.3579 23.3797 46.2122 24.6039L48.8094 25.4263C49.3963 25.618 49.7938 25.7181 50.2565 25.7691L49.9039 27.4234C49.3633 27.341 48.7293 27.1906 48.1476 26.9859L45.7272 26.1746C43.525 25.4212 42.2104 25.7208 41.2826 27.49C42.4002 27.0053 43.8458 27.0908 45.5074 27.7618C47.948 28.7473 49.2507 30.6776 48.41 32.7538C47.5745 34.8171 45.1226 35.3518 42.2926 34.2091ZM40.7067 29.6582C40.2601 30.7612 41.111 31.905 42.8635 32.6127C44.6549 33.3361 46.0239 33.0887 46.4705 31.9857C46.9171 30.8827 46.1129 29.7728 44.3604 29.0651C42.569 28.3417 41.1534 28.5552 40.7067 29.6582ZM51.1198 37.7737C49.1856 36.9926 48.2726 35.7784 48.7928 34.4937C49.2236 33.4296 50.3407 33.0956 52.7775 33.7172L56.4587 34.6602C56.4899 34.0236 55.9929 33.4606 54.6298 32.9101C53.1629 32.3178 52.2137 32.3119 51.6447 32.822L49.7788 31.8722C50.7378 30.7345 52.6789 30.4917 55.1973 31.5087C57.7417 32.5361 58.9156 34.1878 58.2062 35.9397L56.6299 39.8326L54.8903 39.1302L55.2643 37.9827C54.1127 38.5142 52.5608 38.3555 51.1198 37.7737ZM50.7298 35.2306C50.5406 35.6978 50.8874 36.1096 51.848 36.4975C53.5486 37.1842 55.5564 37.1495 56.0398 35.9557L56.0609 35.9038L52.4004 34.9842C51.3378 34.7363 50.8979 34.8154 50.7298 35.2306ZM58.4161 40.554L61.0539 34.0397L62.9232 34.7946L61.9879 37.1044L66.7002 39.0074L67.6355 36.6975L69.5049 37.4524L66.8671 43.9666L64.9978 43.2117L66.0539 40.6035L61.3416 38.7006L60.2855 41.3088L58.4161 40.554ZM68.8115 44.7518L71.4493 38.2376L73.3186 38.9925L72.3833 41.3023L77.0956 43.2052L78.0309 40.8954L79.9002 41.6503L77.2624 48.1645L75.3931 47.4096L76.4493 44.8013L71.737 42.8984L70.6808 45.5067L68.8115 44.7518ZM83.3043 50.7704C80.3186 49.5647 79.0922 47.4086 79.8751 45.4751C80.679 43.4897 83.2277 42.8279 86.0447 43.9654C88.7319 45.0506 90.1512 47.1034 89.3893 48.9849C89.3052 49.1926 89.1454 49.4753 88.9649 49.7346L81.5654 46.7465C81.465 47.778 82.2856 48.6982 83.8823 49.343C85.3363 49.9301 86.3269 49.9829 86.9633 49.5302L88.6101 50.6482C87.5239 51.6892 85.5372 51.672 83.3043 50.7704ZM82.1688 45.4803L87.634 47.6873C87.8114 46.9134 86.9936 45.949 85.4877 45.3409C84.0598 44.7643 82.8763 44.8148 82.1688 45.4803ZM88.1293 55.8743L91.923 46.5053L93.7015 47.2235L93.4196 48.1061C94.404 47.7638 95.6805 47.8566 97.0696 48.4175C99.7697 49.5079 101.048 51.6095 100.223 53.6469C99.4037 55.6712 97.0164 56.3076 94.3162 55.2172C92.9402 54.6615 91.9891 53.8396 91.4961 52.9309L89.9986 56.6292L88.1293 55.8743ZM92.4735 50.5173C92.0163 51.6462 92.875 52.8083 94.6404 53.5212C96.4319 54.2446 97.832 53.9947 98.2892 52.8658C98.7463 51.7368 97.9137 50.5853 96.1222 49.8618C94.3567 49.1489 92.9306 49.3883 92.4735 50.5173ZM102.686 58.4312L112.144 50.9267L114.481 51.8703L116.109 63.8516L113.876 62.9499L113.481 59.7103L107.354 57.236L104.815 59.2909L102.686 58.4312ZM108.985 55.9318L113.23 57.646L112.669 52.9504L108.985 55.9318ZM121.279 66.1052C118.799 65.1039 117.281 63.6304 117.233 61.5121L119.448 61.712C119.463 63.0921 120.471 63.922 121.925 64.5091C123.73 65.2377 125.083 64.9539 125.514 63.8898C125.966 62.7738 125.195 61.6927 123.378 60.9588C121.924 60.3716 120.884 60.3291 120.006 60.6691L118.521 59.5257L121.837 54.8409L129.613 57.981L128.956 59.603L122.596 57.0343L121.144 59.0149C122.151 58.878 123.268 59.1028 124.385 59.5536C127.202 60.6912 128.312 62.7247 127.518 64.6841C126.741 66.6047 124.42 67.3738 121.279 66.1052ZM24.5817 46.3032L27.2195 39.789L33.0222 42.1322C34.4762 42.7194 35.0779 43.7324 34.6681 44.7446C34.3738 45.4712 33.7458 45.7914 32.9969 45.7758C33.7566 46.3242 34.0552 47.0789 33.7241 47.8964C33.2827 48.9864 32.0331 49.3122 30.3585 48.636L24.5817 46.3032ZM26.9243 45.8148L30.598 47.2984C31.2082 47.5447 31.6873 47.406 31.8712 46.9519C32.0498 46.5107 31.7967 46.0914 31.1865 45.845L27.5128 44.3614L26.9243 45.8148ZM28.0067 43.1417L31.5507 44.5728C32.1218 44.8034 32.5515 44.6749 32.7249 44.2467C32.8983 43.8185 32.6788 43.4279 32.1076 43.1973L28.5637 41.7661L28.0067 43.1417ZM37.9309 51.6938L40.5686 45.1796L48.8898 48.5399L46.252 55.0541L44.3827 54.2992L46.3794 49.3681L41.7969 47.5176L39.8002 52.4487L37.9309 51.6938ZM52.3489 57.6822C49.441 56.5079 48.069 54.3384 48.8835 52.327C49.7032 50.3027 52.1944 49.7082 55.1022 50.8825C58.0231 52.062 59.4003 54.2186 58.5806 56.2429C57.7662 58.2543 55.2697 58.8617 52.3489 57.6822ZM50.8177 53.1081C50.3658 54.2241 51.1932 55.3886 52.9847 56.112C54.7891 56.8407 56.1945 56.5778 56.6464 55.4618C57.0983 54.3458 56.2709 53.1813 54.4664 52.4526C52.675 51.7292 51.2696 51.9921 50.8177 53.1081ZM69.7608 56.968L67.7641 61.8991L69.1661 62.4652L67.7421 65.9819L65.9247 65.2479L66.7076 63.3144L59.5418 60.4208L58.7589 62.3543L56.9415 61.6204L58.3655 58.1037L59.3001 58.4812C60.3136 58.0298 60.9126 57.1846 61.5793 55.6873L62.3613 53.9799L69.7608 56.968ZM61.1825 59.2413L65.9207 61.1547L67.2921 57.7678L63.4496 56.2161L63.2317 56.717C62.7406 57.8926 62.1335 58.7949 61.1825 59.2413ZM73.7589 66.328C70.929 65.1852 69.5569 63.0156 70.3714 61.0042C71.1911 58.9799 73.6823 58.3855 76.5123 59.5283C78.9139 60.4981 80.1245 62.059 79.9932 63.6516L77.8911 63.2104C77.8892 62.3944 77.1876 61.6279 75.8765 61.0984C74.111 60.3855 72.7575 60.6694 72.3056 61.7853C71.859 62.8883 72.6292 64.0449 74.3947 64.7578C75.7967 65.324 76.8476 65.2652 77.3752 64.7082L79.1939 65.7748C78.3306 67.0115 76.2124 67.3188 73.7589 66.328ZM81.842 69.426L83.8387 64.4949L80.5804 63.1791L81.2214 61.596L89.6075 64.9825L88.9664 66.5656L85.7081 65.2498L83.7114 70.1809L81.842 69.426ZM90.598 73.1279C88.6637 72.3468 87.7507 71.1326 88.2709 69.8479C88.7018 68.7839 89.8188 68.4498 92.2556 69.0715L95.9368 70.0145C95.968 69.3779 95.471 68.8148 94.108 68.2644C92.641 67.672 91.6918 67.6662 91.1228 68.1762L89.2569 67.2264C90.216 66.0888 92.157 65.8459 94.6754 66.8629C97.2198 67.8904 98.3937 69.5421 97.6844 71.2939L96.108 75.1869L94.3685 74.4844L94.7425 73.337C93.5908 73.8684 92.0389 73.7098 90.598 73.1279ZM90.2079 70.5849C90.0188 71.052 90.3655 71.4638 91.3262 71.8517C93.0268 72.5385 95.0346 72.5037 95.518 71.3099L95.539 71.258L91.8785 70.3385C90.8159 70.0905 90.3761 70.1696 90.2079 70.5849ZM97.8943 75.9082L100.532 69.394L106.335 71.7373C107.789 72.3244 108.39 73.3374 107.981 74.3496C107.686 75.0763 107.058 75.3964 106.309 75.3808C107.069 75.9292 107.368 76.6839 107.037 77.5014C106.595 78.5914 105.346 78.9172 103.671 78.241L97.8943 75.9082ZM100.237 75.4198L103.911 76.9034C104.521 77.1498 105 77.0111 105.184 76.5569C105.362 76.1157 105.109 75.6964 104.499 75.45L100.825 73.9665L100.237 75.4198ZM101.319 72.7467L104.863 74.1778C105.434 74.4084 105.864 74.28 106.037 73.8517C106.211 73.4235 105.991 73.0329 105.42 72.8023L101.876 71.3712L101.319 72.7467ZM114.039 82.4279L112.042 78.6319L110.705 78.0919L109.665 80.6613L107.795 79.9064L110.433 73.3922L112.302 74.1471L111.356 76.4828L112.707 77.028L116.586 75.877L119.183 76.9254L113.947 78.4045L116.662 83.4868L114.039 82.4279ZM121.223 85.495C118.237 84.2893 117.011 82.1332 117.794 80.1997C118.598 78.2143 121.147 77.5525 123.964 78.69C126.651 79.7751 128.07 81.8279 127.308 83.7095C127.224 83.9172 127.064 84.1999 126.884 84.4592L119.484 81.4711C119.384 82.5025 120.204 83.4227 121.801 84.0675C123.255 84.6547 124.246 84.7074 124.882 84.2548L126.529 85.3728C125.443 86.4138 123.456 86.3966 121.223 85.495ZM120.088 80.2049L125.553 82.4119C125.73 81.638 124.912 80.6736 123.407 80.0655C121.979 79.4889 120.795 79.5394 120.088 80.2049Z" fill="#1A1A1A"/>
<defs>
<filter id="filter0_d_18_1425" x="3.33936" y="7.14783" width="154.504" height="95.6317" filterUnits="userSpaceOnUse" color-interpolation-filters="sRGB">
<feFlood flood-opacity="0" result="BackgroundImageFix"/>
<feColorMatrix in="SourceAlpha" type="matrix" values="0 0 0 0 0 0 0 0 0 0 0 0 0 0 0 0 0 0 127 0" result="hardAlpha"/>
<feOffset dx="3" dy="3"/>
<feComposite in2="hardAlpha" operator="out"/>
<feColorMatrix type="matrix" values="0 0 0 0 0 0 0 0 0 0 0 0 0 0 0 0 0 0 0.4 0"/>
<feBlend mode="normal" in2="BackgroundImageFix" result="effect1_dropShadow_18_1425"/>
<feBlend mode="normal" in="SourceGraphic" in2="effect1_dropShadow_18_1425" result="shape"/>
</filter>
</defs>
</svg>
