<svg width="150" height="60" viewBox="0 0 150 60" fill="none" xmlns="http://www.w3.org/2000/svg">
<g filter="url(#filter0_d_18_1339)">
<path d="M0 7.48125L73.5 0L147 7.48125V48.0938L73.5 57L0 48.0938V7.48125Z" fill="#FED376"/>
</g>
<path d="M31.8223 22V14.47H33.9073L37.7623 18.265L41.5123 14.47H43.5973V22H41.4823V17.095L37.9423 20.62H37.4923L33.9373 17.185V22H31.8223ZM50.7022 22.165C47.3422 22.165 45.1072 20.56 45.1072 18.235C45.1072 15.895 47.3422 14.305 50.7022 14.305C54.0772 14.305 56.3122 15.895 56.3122 18.235C56.3122 20.56 54.0772 22.165 50.7022 22.165ZM47.3422 18.235C47.3422 19.525 48.6322 20.35 50.7022 20.35C52.7872 20.35 54.0772 19.525 54.0772 18.235C54.0772 16.945 52.7872 16.12 50.7022 16.12C48.6322 16.12 47.3422 16.945 47.3422 18.235ZM57.75 22.165C57.39 22.165 57 22.105 56.715 22L56.97 20.305C57.09 20.32 57.225 20.335 57.345 20.335C57.75 20.335 58.08 20.2 58.335 19.78C58.62 19.33 58.71 18.49 58.8 17.005L58.935 14.47H67.485V22H65.325V16.3H60.96L60.885 17.5C60.78 19.21 60.585 20.32 60.075 21.055C59.52 21.865 58.68 22.165 57.75 22.165ZM74.5938 22.165C71.2338 22.165 68.9988 20.56 68.9988 18.235C68.9988 15.895 71.2338 14.305 74.5938 14.305C77.9688 14.305 80.2038 15.895 80.2038 18.235C80.2038 20.56 77.9688 22.165 74.5938 22.165ZM71.2338 18.235C71.2338 19.525 72.5238 20.35 74.5938 20.35C76.6788 20.35 77.9688 19.525 77.9688 18.235C77.9688 16.945 76.6788 16.12 74.5938 16.12C72.5238 16.12 71.2338 16.945 71.2338 18.235ZM91.5984 14.47V20.17H93.2184V24.235H91.1184V22H82.8384V24.235H80.7384V20.17H81.8184C82.6434 19.315 82.8984 18.235 82.9584 16.48L83.0484 14.47H91.5984ZM83.9934 20.17H89.4684V16.255H85.0284L85.0134 16.84C84.9984 18.205 84.7584 19.345 83.9934 20.17ZM97.6379 22.165C95.4029 22.165 94.0079 21.325 94.0079 19.84C94.0079 18.61 94.9829 17.83 97.6529 17.47L101.688 16.93C101.463 16.285 100.743 15.925 99.1679 15.925C97.4729 15.925 96.5279 16.3 96.1679 17.035L93.9329 16.84C94.4279 15.325 96.2579 14.305 99.1679 14.305C102.108 14.305 103.938 15.475 103.938 17.5V22H101.928L101.838 20.71C100.908 21.7 99.3029 22.165 97.6379 22.165ZM96.2279 19.795C96.2279 20.335 96.7379 20.605 97.8479 20.605C99.8129 20.605 101.793 19.765 101.793 18.385V18.325L97.7879 18.88C96.6329 19.06 96.2279 19.315 96.2279 19.795ZM113.052 22V19.525H110.157L107.697 22H105.087L107.862 19.33C106.467 19 105.717 18.19 105.717 17.005C105.717 15.49 107.022 14.47 109.122 14.47H115.182V22H113.052ZM107.937 17.005C107.937 17.59 108.402 17.965 109.197 17.965H113.052V16.045H109.197C108.402 16.045 107.937 16.39 107.937 17.005ZM25.6702 42.165C23.4352 42.165 22.0402 41.325 22.0402 39.84C22.0402 38.61 23.0152 37.83 25.6852 37.47L29.7202 36.93C29.4952 36.285 28.7752 35.925 27.2002 35.925C25.5052 35.925 24.5602 36.3 24.2002 37.035L21.9652 36.84C22.4602 35.325 24.2902 34.305 27.2002 34.305C30.1402 34.305 31.9702 35.475 31.9702 37.5V42H29.9602L29.8702 40.71C28.9402 41.7 27.3352 42.165 25.6702 42.165ZM24.2602 39.795C24.2602 40.335 24.7702 40.605 25.8802 40.605C27.8452 40.605 29.8252 39.765 29.8252 38.385V38.325L25.8202 38.88C24.6652 39.06 24.2602 39.315 24.2602 39.795ZM32.2643 34.47H34.8143L38.1893 39.825L41.1743 34.47H43.5893L37.3043 45.3H34.8593L36.9443 41.82L32.2643 34.47ZM53.7615 34.47V40.17H55.3815V44.235H53.2815V42H45.0015V44.235H42.9015V40.17H43.9815C44.8065 39.315 45.0615 38.235 45.1215 36.48L45.2115 34.47H53.7615ZM46.1565 40.17H51.6315V36.255H47.1915L47.1765 36.84C47.1615 38.205 46.9215 39.345 46.1565 40.17ZM56.666 42V34.47H58.826V39.63L64.466 34.47H66.536V42H64.376V36.825L58.721 42H56.666ZM71.5163 42V36.3H67.7513V34.47H77.4413V36.3H73.6763V42H71.5163ZM83.4122 42.165C80.0522 42.165 77.8172 40.56 77.8172 38.235C77.8172 35.895 80.0522 34.305 83.4122 34.305C86.7872 34.305 89.0222 35.895 89.0222 38.235C89.0222 40.56 86.7872 42.165 83.4122 42.165ZM80.0522 38.235C80.0522 39.525 81.3422 40.35 83.4122 40.35C85.4972 40.35 86.7872 39.525 86.7872 38.235C86.7872 36.945 85.4972 36.12 83.4122 36.12C81.3422 36.12 80.0522 36.945 80.0522 38.235ZM90.5332 45.3V34.47H92.5882L92.6632 35.46C93.5032 34.725 94.8082 34.305 96.4132 34.305C99.5332 34.305 101.648 35.88 101.648 38.235C101.648 40.575 99.5332 42.165 96.4132 42.165C94.8232 42.165 93.5482 41.73 92.6932 41.025V45.3H90.5332ZM92.6932 38.235C92.6932 39.54 94.0132 40.35 96.0532 40.35C98.1232 40.35 99.4132 39.54 99.4132 38.235C99.4132 36.93 98.1232 36.12 96.0532 36.12C94.0132 36.12 92.6932 36.93 92.6932 38.235ZM103.175 42V34.47H105.335V39.63L110.975 34.47H113.045V42H110.885V36.825L105.23 42H103.175ZM122.339 42V39.525H119.444L116.984 42H114.374L117.149 39.33C115.754 39 115.004 38.19 115.004 37.005C115.004 35.49 116.309 34.47 118.409 34.47H124.469V42H122.339ZM117.224 37.005C117.224 37.59 117.689 37.965 118.484 37.965H122.339V36.045H118.484C117.689 36.045 117.224 36.39 117.224 37.005Z" fill="#1A1A1A"/>
<defs>
<filter id="filter0_d_18_1339" x="0" y="0" width="150" height="60" filterUnits="userSpaceOnUse" color-interpolation-filters="sRGB">
<feFlood flood-opacity="0" result="BackgroundImageFix"/>
<feColorMatrix in="SourceAlpha" type="matrix" values="0 0 0 0 0 0 0 0 0 0 0 0 0 0 0 0 0 0 127 0" result="hardAlpha"/>
<feOffset dx="3" dy="3"/>
<feComposite in2="hardAlpha" operator="out"/>
<feColorMatrix type="matrix" values="0 0 0 0 0 0 0 0 0 0 0 0 0 0 0 0 0 0 0.4 0"/>
<feBlend mode="normal" in2="BackgroundImageFix" result="effect1_dropShadow_18_1339"/>
<feBlend mode="normal" in="SourceGraphic" in2="effect1_dropShadow_18_1339" result="shape"/>
</filter>
</defs>
</svg>
