<svg width="126" height="126" viewBox="0 0 126 126" fill="none" xmlns="http://www.w3.org/2000/svg">
<g filter="url(#filter0_d_18_1348)">
<circle cx="61.5" cy="61.5" r="54" stroke="#B0D0EF" stroke-width="15" shape-rendering="crispEdges"/>
</g>
<path d="M54.8611 113.438L54.0797 117.869L49.5771 117.075L49.7094 116.325L53.3138 116.961L53.4784 116.027L51.2981 115.643C50.199 115.449 49.6282 114.781 49.7731 113.96C49.92 113.127 50.6835 112.701 51.7826 112.895L54.8611 113.438ZM53.8316 114.024L51.6454 113.638C51.1313 113.548 50.7883 113.731 50.7185 114.127C50.6497 114.517 50.9035 114.805 51.4235 114.897L53.6097 115.282L53.8316 114.024Z" fill="#1A1A1A"/>
<path d="M48.706 112.1C49.569 112.333 50.0197 112.803 49.8645 113.377C49.7359 113.852 49.2779 114.051 48.2094 113.911L46.595 113.697C46.6145 113.97 46.8548 114.184 47.4629 114.349C48.1174 114.526 48.5214 114.48 48.7373 114.234L49.5798 114.543C49.2303 115.076 48.4171 115.279 47.2936 114.974C46.1584 114.667 45.5742 114.024 45.7859 113.242L46.2564 111.505L47.0324 111.715L46.9323 112.222C47.3949 111.937 48.0632 111.925 48.706 112.1ZM49.0027 113.162C49.0591 112.953 48.8904 112.796 48.4619 112.68C47.7032 112.474 46.8509 112.592 46.7066 113.125L46.7003 113.148L48.3047 113.352C48.7694 113.403 48.9525 113.347 49.0027 113.162Z" fill="#1A1A1A"/>
<path d="M45.5291 111.176C45.6642 111.226 45.8021 111.303 45.8945 111.382L45.5636 111.982C45.5206 111.96 45.4721 111.935 45.4271 111.919C45.2751 111.863 45.1326 111.867 44.9786 111.99C44.8093 112.119 44.6589 112.422 44.419 112.966L44.0165 113.898L40.809 112.712L41.8541 109.887L42.6645 110.187L41.8733 112.325L43.5109 112.931L43.7055 112.491C43.9823 111.864 44.2095 111.475 44.5028 111.27C44.8235 111.043 45.1802 111.047 45.5291 111.176Z" fill="#1A1A1A"/>
<path d="M40.0569 109.04L39.0769 111.099L40.4367 111.746L40.1221 112.407L36.6224 110.741L36.937 110.08L38.2968 110.728L39.2767 108.669L40.0569 109.04Z" fill="#1A1A1A"/>
<path d="M37.2502 107.668L35.7167 110.26L34.973 109.82L36.0239 108.044L33.0313 108.671L32.3187 108.25L33.8522 105.657L34.5958 106.097L33.5419 107.879L36.5427 107.249L37.2502 107.668Z" fill="#1A1A1A"/>
<path d="M33.2576 105.266L31.4975 107.71L30.7964 107.205L32.0025 105.53L28.9657 105.887L28.2937 105.403L30.0538 102.959L30.755 103.463L29.5453 105.143L32.5906 104.785L33.2576 105.266ZM30.2122 108.396L29.5695 107.933C29.6757 107.714 29.5692 107.482 29.3257 107.307C29.0871 107.135 28.8382 107.111 28.6541 107.274L28.0114 106.811C28.4181 106.431 29.041 106.429 29.6448 106.864C30.2485 107.298 30.4388 107.886 30.2122 108.396Z" fill="#1A1A1A"/>
<path d="M27.7309 100.906C28.7194 101.762 28.9746 102.833 28.3656 103.536C27.7526 104.243 26.6605 104.139 25.672 103.282C24.8331 102.555 24.5589 101.754 24.833 101.126L25.6238 101.597C25.5113 101.928 25.6894 102.336 26.1474 102.733C26.7641 103.268 27.352 103.34 27.6899 102.95C28.0239 102.565 27.8721 101.989 27.2554 101.455C26.7657 101.03 26.3316 100.908 26.0405 101.061L25.4513 100.376C25.9727 99.9938 26.8738 100.163 27.7309 100.906Z" fill="#1A1A1A"/>
<path d="M23.6775 97.0413L23.7962 98.8766L24.2251 99.3216L25.0805 98.4973L25.68 99.1194L23.5112 101.209L22.9116 100.587L23.6893 99.8379L23.2563 99.3886L21.5377 99.1615L20.7051 98.2975L23.0115 98.6329L22.8364 96.1686L23.6775 97.0413Z" fill="#1A1A1A"/>
<path d="M21.7712 94.7092C22.3312 95.406 22.4189 96.0515 21.9559 96.4236C21.5724 96.7318 21.0849 96.6232 20.3036 95.881L19.1242 94.7582C18.9794 94.99 19.0476 95.3047 19.4423 95.7957C19.867 96.3242 20.2207 96.5249 20.5401 96.453L21.0393 97.1987C20.4429 97.424 19.6663 97.109 18.9372 96.2017C18.2005 95.285 18.1067 94.4213 18.7381 93.9139L20.1411 92.7863L20.6448 93.413L20.2651 93.7643C20.8068 93.8062 21.354 94.1901 21.7712 94.7092ZM21.3856 95.7427C21.5539 95.6074 21.5103 95.3807 21.2322 95.0346C20.7398 94.422 19.9818 94.0151 19.5515 94.3609L19.5328 94.3759L20.7094 95.4856C21.0549 95.8006 21.2359 95.863 21.3856 95.7427Z" fill="#1A1A1A"/>
<path d="M18.0666 89.6909L17.2424 90.2392L17.8838 91.2034L19.2531 91.4742L19.8314 92.3434L18.3274 92.0109C18.5266 92.5486 18.423 92.9778 18.0284 93.2404C17.5238 93.576 16.895 93.3674 16.4297 92.6681L15.087 90.6499L17.5947 88.9815L18.0666 89.6909ZM17.5365 92.501C17.7313 92.3714 17.7532 92.1335 17.577 91.8687L16.7229 90.5849L16.0834 91.0103L16.9376 92.2941C17.1137 92.5589 17.3317 92.6373 17.5365 92.501Z" fill="#1A1A1A"/>
<path d="M15.9834 86.3836L12.9278 85.2382L11.83 88.1164L11.3761 87.0641L12.2751 84.7552L11.9899 84.0941L10.3922 84.7833L10.0286 83.9404L11.6263 83.2512L11.3412 82.5901L9.04716 81.665L8.5885 80.6017L11.4031 81.7792L12.6967 78.7643L13.1482 79.8111L12.0873 82.2748L12.3701 82.9304L14.1606 82.158L14.5242 83.0009L12.7337 83.7733L13.0117 84.4179L15.5437 85.3644L15.9834 86.3836Z" fill="#1A1A1A"/>
<path d="M12.7342 78.1526C13.1648 79.4637 12.798 80.462 11.9486 80.7409C11.0764 81.0274 10.1553 80.3763 9.74901 79.1393C9.36146 77.9593 9.64115 76.9265 10.4677 76.655C10.5589 76.625 10.6956 76.5991 10.8304 76.5864L11.8976 79.8356C12.263 79.583 12.3374 79.0597 12.1071 78.3585C11.8974 77.7201 11.6409 77.3812 11.3168 77.2982L11.2276 76.4496C11.8686 76.517 12.4121 77.1721 12.7342 78.1526ZM11.3163 79.9887L10.5281 77.5888C10.2257 77.7449 10.1361 78.2796 10.3533 78.9408C10.5592 79.5679 10.9029 79.9413 11.3163 79.9887Z" fill="#1A1A1A"/>
<path d="M11.8994 75.7313L8.96497 76.4104L8.77693 75.5979L9.90817 73.7533L8.09106 72.6342L7.90302 71.8217L10.8375 71.1426L11.0282 71.9668L9.11673 72.4091L10.8097 73.4708L10.8503 73.6461L9.83226 75.3413L11.7087 74.9071L11.8994 75.7313Z" fill="#1A1A1A"/>
<path d="M10.413 67.9012L9.35511 68.0476C9.51043 68.4259 9.62926 68.8031 9.69013 69.2429C9.83406 70.283 9.50621 70.9341 8.7514 71.0386L7.82424 71.1669L7.7058 70.311L8.44873 70.2082C8.8707 70.1498 9.02919 69.8069 8.94036 69.165C8.8869 68.7787 8.79741 68.4821 8.65973 68.1438L7.42946 68.3141L7.3102 67.4523L10.2938 67.0394L10.413 67.9012Z" fill="#1A1A1A"/>
<path d="M7.24385 66.6098L7.19532 65.5909L9.27066 64.1405L7.07427 63.0498L7.0283 62.0849L11.475 64.3899L11.5216 65.3668L10.0914 64.6L7.24385 66.6098Z" fill="#1A1A1A"/>
<path d="M10.0091 63.0119L8.50673 61.3328L7.00254 62.8185L7.04847 61.7335L8.18274 60.6165L8.20076 60.1909L7.11573 60.1449L7.15202 59.2877L8.23705 59.3336L8.25481 58.914L7.21902 57.7051L7.26521 56.6141L8.61497 58.2086L10.2773 56.6755L10.2306 57.7786L8.97442 58.9385L8.9564 59.3641L10.1613 59.4151L10.125 60.2723L8.92011 60.2213L8.9026 60.6349L10.0557 61.9089L10.0091 63.0119Z" fill="#1A1A1A"/>
<path d="M10.2941 57.155L7.30839 56.7579L7.4223 55.9015L9.46828 56.1736L7.71972 53.6652L7.82888 52.8444L10.8146 53.2415L10.7007 54.0979L8.64876 53.825L10.4025 56.3402L10.2941 57.155Z" fill="#1A1A1A"/>
<path d="M10.9401 52.5167L8.00215 51.8531L8.1925 51.0103L9.23426 51.2456L9.7141 49.1212L8.67234 48.8859L8.86269 48.0431L11.8007 48.7067L11.6103 49.5494L10.434 49.2837L9.95413 51.4082L11.1305 51.6739L10.9401 52.5167Z" fill="#1A1A1A"/>
<path d="M12.5744 46.4223C12.3 47.2731 11.8089 47.701 11.2436 47.5187C10.7753 47.3676 10.5981 46.9007 10.789 45.8401L11.0789 44.2377C10.8057 44.2441 10.5803 44.474 10.3869 45.0736C10.1787 45.7188 10.2054 46.1246 10.441 46.3519L10.0923 47.1788C9.57638 46.8043 9.41281 45.9824 9.77016 44.8747C10.1312 43.7554 10.8013 43.2025 11.5722 43.4511L13.2853 44.0038L13.0385 44.7689L12.5363 44.6448C12.799 45.1204 12.7789 45.7885 12.5744 46.4223ZM11.4991 46.668C11.7046 46.7344 11.8701 46.5734 12.0064 46.1508C12.2477 45.4028 12.171 44.5459 11.6457 44.3764L11.6229 44.369L11.3423 45.9618C11.269 46.4236 11.3163 46.6091 11.4991 46.668Z" fill="#1A1A1A"/>
<path d="M20.1568 31.292L16.6343 28.4916L19.4795 24.9128L20.076 25.387L17.7983 28.2519L18.5404 28.8419L19.9182 27.1088C20.6127 26.2352 21.4714 26.0518 22.1242 26.5708C22.7864 27.0973 22.7966 27.9715 22.1021 28.8451L20.1568 31.292ZM20.1326 30.1077L21.5141 28.3699C21.8389 27.9613 21.8415 27.5724 21.5268 27.3222C21.2168 27.0758 20.8423 27.1613 20.5137 27.5746L19.1322 29.3123L20.1326 30.1077Z" fill="#1A1A1A"/>
<path d="M24.2623 26.5159C23.6454 27.1629 23.0171 27.3349 22.5872 26.925C22.2312 26.5855 22.2745 26.0879 22.9073 25.2156L23.8647 23.8984C23.6159 23.7855 23.3129 23.8946 22.8782 24.3506C22.4103 24.8412 22.258 25.2183 22.3714 25.5254L21.698 26.1186C21.3961 25.5571 21.606 24.7458 22.4092 23.9034C23.2207 23.0523 24.0646 22.8455 24.6508 23.4044L25.9535 24.6466L25.3987 25.2284L25.0004 24.8984C25.0303 25.4409 24.7219 26.0339 24.2623 26.5159ZM23.187 26.2699C23.3433 26.419 23.5623 26.3459 23.8687 26.0245C24.4111 25.4557 24.7144 24.6506 24.3149 24.2697L24.2976 24.2531L23.3527 25.5657C23.086 25.9498 23.048 26.1374 23.187 26.2699Z" fill="#1A1A1A"/>
<path d="M26.5899 24.1659C26.4816 24.2608 26.3484 24.3455 26.235 24.389L25.865 23.8117C25.9051 23.7846 25.9497 23.7536 25.9858 23.7219C26.1077 23.6152 26.1714 23.4876 26.1374 23.294C26.1046 23.0835 25.9103 22.807 25.546 22.3365L24.9186 21.5381L27.4914 19.2848L29.4758 21.5507L28.8258 22.1199L27.3237 20.4047L26.0102 21.5551L26.3039 21.9359C26.7229 22.4782 26.9568 22.8636 26.997 23.2191C27.0435 23.6091 26.8698 23.9208 26.5899 24.1659Z" fill="#1A1A1A"/>
<path d="M31.0803 20.374L29.7382 18.5308L28.5208 19.4173L28.0899 18.8256L31.2232 16.544L31.6541 17.1357L30.4367 18.0222L31.7788 19.8654L31.0803 20.374Z" fill="#1A1A1A"/>
<path d="M33.6215 18.5612L32.0743 15.977L32.8156 15.5331L33.8758 17.304L34.7512 14.3743L35.4616 13.949L37.0088 16.5332L36.2675 16.977L35.2042 15.201L34.3268 18.139L33.6215 18.5612Z" fill="#1A1A1A"/>
<path d="M37.6451 16.1934L36.3362 13.4807L37.1143 13.1052L38.0113 14.9642L39.1462 12.1249L39.8919 11.7651L41.2008 14.4778L40.4227 14.8532L39.5231 12.9889L38.3854 15.8362L37.6451 16.1934ZM36.346 12.0237L37.0593 11.6795C37.2014 11.8774 37.4561 11.8944 37.7263 11.764C37.9911 11.6363 38.1309 11.4289 38.0752 11.1893L38.7885 10.8451C38.9285 11.3838 38.6337 11.9325 37.9636 12.2558C37.2935 12.5791 36.6859 12.4659 36.346 12.0237Z" fill="#1A1A1A"/>
<path d="M44.1066 13.4196C42.8823 13.88 41.8196 13.5937 41.4923 12.7232C41.1629 11.8471 41.7758 10.9371 43.0001 10.4768C44.0391 10.0861 44.8742 10.2272 45.2953 10.7676L44.5043 11.2381C44.2667 10.9813 43.8229 10.943 43.2557 11.1563C42.4919 11.4435 42.1475 11.9255 42.3291 12.4085C42.5086 12.8859 43.0873 13.0273 43.8511 12.7401C44.4577 12.512 44.772 12.1887 44.7766 11.8601L45.6599 11.669C45.7468 12.3093 45.1681 13.0205 44.1066 13.4196Z" fill="#1A1A1A"/>
<path d="M49.4359 11.6982L47.7661 10.9273L47.1704 11.0919L47.487 12.237L46.6542 12.4672L45.8516 9.56412L46.6843 9.33389L46.9721 10.3748L47.5736 10.2086L48.5928 8.80627L49.7494 8.4865L48.3545 10.3537L50.604 11.3752L49.4359 11.6982Z" fill="#1A1A1A"/>
<path d="M52.3956 11.1386C51.516 11.2985 50.9069 11.0677 50.8007 10.4832C50.7127 9.99918 51.0406 9.62246 52.0656 9.28977L53.615 8.78858C53.4803 8.55083 53.1712 8.46067 52.5513 8.57334C51.8843 8.69461 51.5392 8.9098 51.4501 9.22481L50.5566 9.30796C50.643 8.67632 51.2902 8.14398 52.4354 7.93579C53.5925 7.72546 54.3964 8.05499 54.5413 8.85193L54.8632 10.6229L54.0722 10.7667L53.9444 10.2655C53.6493 10.7216 53.0509 11.0194 52.3956 11.1386ZM51.6712 10.3067C51.7098 10.5192 51.9298 10.589 52.3667 10.5096C53.14 10.369 53.8591 9.89678 53.7604 9.35368L53.7561 9.33007L52.2196 9.83501C51.778 9.98848 51.6368 10.1178 51.6712 10.3067Z" fill="#1A1A1A"/>
<path d="M58.5704 10.2786L58.4815 9.29261L57.3282 9.39659L56.4371 10.4709L55.3973 10.5647L56.4069 9.40133C55.8393 9.31997 55.5114 9.02421 55.4689 8.55213C55.4144 7.94857 55.8977 7.49535 56.7343 7.41993L59.1485 7.20228L59.419 10.2021L58.5704 10.2786ZM56.3533 8.47239C56.3743 8.70545 56.573 8.83814 56.8897 8.80959L58.4255 8.67113L58.3565 7.90623L56.8208 8.04469C56.504 8.07324 56.3312 8.22739 56.3533 8.47239Z" fill="#1A1A1A"/>
<path d="M62.4715 10.0207L64.9355 7.88132L62.9293 5.54374L64.0707 5.64664L65.6713 7.538L66.3884 7.60265L66.5447 5.86968L67.459 5.95211L67.3027 7.68508L68.0198 7.74973L69.9269 6.17461L71.0803 6.27858L68.703 8.19085L70.736 10.7658L69.6006 10.6634L67.9411 8.55592L67.23 8.49181L67.0549 10.4339L66.1406 10.3515L66.3157 8.40938L65.6165 8.34635L63.577 10.1204L62.4715 10.0207Z" fill="#1A1A1A"/>
<path d="M71.256 11.0932C69.8982 10.8464 69.1957 10.0479 69.3556 9.16828C69.5198 8.26508 70.5314 7.76596 71.8124 7.99882C73.0343 8.22096 73.8088 8.95938 73.6532 9.81535C73.636 9.9098 73.5936 10.0424 73.5405 10.1669L70.1756 9.55518C70.2234 9.99685 70.6479 10.3118 71.374 10.4438C72.0352 10.564 72.4554 10.5002 72.6829 10.2549L73.4713 10.5812C73.1064 11.1125 72.2713 11.2778 71.256 11.0932ZM70.3184 8.97129L72.8036 9.42308C72.8106 9.08284 72.3834 8.74905 71.6986 8.62457C71.0493 8.50652 70.5572 8.63051 70.3184 8.97129Z" fill="#1A1A1A"/>
<path d="M73.7854 11.5108L74.5881 8.60766L75.3919 8.8299L76.4736 10.7039L78.3239 9.64052L79.1278 9.86275L78.3251 12.7658L77.5097 12.5404L78.0325 10.6494L76.292 11.631L76.1185 11.5831L75.1141 9.87983L74.6009 11.7362L73.7854 11.5108Z" fill="#1A1A1A"/>
<path d="M81.3694 13.943L81.7452 12.9434C81.3387 12.8995 80.9504 12.824 80.5348 12.6677C79.552 12.2982 79.1361 11.6995 79.4043 10.9863L79.7337 10.1101L80.5424 10.4142L80.2784 11.1162C80.1285 11.515 80.3544 11.8179 80.9609 12.0459C81.326 12.1832 81.6293 12.2459 81.9923 12.2863L82.4294 11.1237L83.2438 11.4299L82.1837 14.2492L81.3694 13.943Z" fill="#1A1A1A"/>
<path d="M84.0227 11.7688L84.9413 12.212L85.2263 14.7279L87.2325 13.3176L88.1026 13.7373L83.9558 16.5464L83.075 16.1214L84.431 15.2302L84.0227 11.7688Z" fill="#1A1A1A"/>
<path d="M85.8644 15.9184L88.0567 15.3987L87.4683 13.3681L88.4 13.9259L88.8409 15.4556L89.2064 15.6744L89.7642 14.7427L90.5004 15.1834L89.9425 16.1152L90.3029 16.3309L91.8594 15.9971L92.7963 16.558L90.7511 16.9839L91.3058 19.1761L90.3585 18.609L89.9382 16.9517L89.5727 16.7329L88.9532 17.7676L88.217 17.3269L88.8365 16.2922L88.4813 16.0795L86.8116 16.4855L85.8644 15.9184Z" fill="#1A1A1A"/>
<path d="M90.8794 18.9578L92.6523 16.5229L93.3508 17.0315L92.1358 18.7L95.1745 18.3595L95.8439 18.8469L94.0709 21.2818L93.3724 20.7732L94.5909 19.0998L91.5439 19.4417L90.8794 18.9578Z" fill="#1A1A1A"/>
<path d="M94.6443 21.7424L96.6287 19.4765L97.2787 20.0458L96.575 20.8492L98.2135 22.2842L98.9171 21.4808L99.5671 22.05L97.5826 24.3159L96.9327 23.7466L97.7272 22.8394L96.0888 21.4044L95.2942 22.3116L94.6443 21.7424Z" fill="#1A1A1A"/>
<path d="M99.2228 26.0824C98.6058 25.4354 98.4639 24.7997 98.8938 24.3897C99.2499 24.0502 99.7449 24.1172 100.586 24.7908L101.856 25.8098C101.981 25.5666 101.886 25.2588 101.452 24.8029C100.984 24.3122 100.614 24.1421 100.302 24.2408L99.7416 23.5399C100.317 23.2651 101.117 23.5133 101.921 24.3557C102.732 25.2068 102.898 26.0595 102.312 26.6185L101.01 27.8606L100.455 27.2788L100.803 26.8966C100.26 26.9007 99.6824 26.5644 99.2228 26.0824ZM99.5197 25.02C99.3633 25.1691 99.4259 25.3912 99.7323 25.7126C100.275 26.2814 101.064 26.6228 101.464 26.2418L101.481 26.2253L100.215 25.219C99.8442 24.9344 99.6586 24.8875 99.5197 25.02Z" fill="#1A1A1A"/>
<path d="M108.91 39.9588L113.051 38.1983L114.84 42.4059L114.138 42.704L112.707 39.3357L111.834 39.7066L112.7 41.7441C113.137 42.7712 112.889 43.6134 112.121 43.9397C111.342 44.2707 110.569 43.8627 110.133 42.8356L108.91 39.9588ZM109.962 40.5023L110.831 42.5454C111.035 43.0258 111.376 43.2135 111.745 43.0562C112.11 42.9013 112.213 42.5313 112.007 42.0454L111.138 40.0023L109.962 40.5023Z" fill="#1A1A1A"/>
<path d="M111.143 45.8522C110.869 45.0013 111.017 44.3671 111.583 44.1848C112.051 44.0337 112.468 44.3091 112.933 45.2813L113.634 46.7511C113.851 46.5862 113.9 46.2679 113.707 45.6683C113.499 45.0231 113.24 44.7094 112.916 44.6626L112.716 43.7878C113.353 43.7902 113.966 44.3616 114.323 45.4694C114.684 46.5886 114.464 47.4289 113.693 47.6776L111.98 48.2302L111.733 47.465L112.213 47.2724C111.722 47.0399 111.348 46.486 111.143 45.8522ZM111.872 45.0244C111.667 45.0907 111.627 45.318 111.763 45.7405C112.004 46.4886 112.567 47.1392 113.093 46.9697L113.115 46.9624L112.412 45.5059C112.202 45.0883 112.055 44.9654 111.872 45.0244Z" fill="#1A1A1A"/>
<path d="M112.098 49.0176C112.067 48.8771 112.056 48.7197 112.072 48.5992L112.755 48.5493C112.76 48.5975 112.766 48.6515 112.777 48.6983C112.812 48.8563 112.894 48.9732 113.081 49.0357C113.281 49.1072 113.617 49.0683 114.204 48.9726L115.205 48.8018L115.959 52.1378L113.021 52.8014L112.83 51.9586L115.054 51.4563L114.67 49.7532L114.195 49.8297C113.518 49.9394 113.068 49.9611 112.736 49.8269C112.371 49.6818 112.18 49.3805 112.098 49.0176Z" fill="#1A1A1A"/>
<path d="M113.295 54.7702L115.555 54.4696L115.357 52.9767L116.082 52.8802L116.593 56.7224L115.868 56.8189L115.669 55.326L113.409 55.6266L113.295 54.7702Z" fill="#1A1A1A"/>
<path d="M113.666 57.8713L116.676 57.7439L116.712 58.6071L114.65 58.6944L116.808 60.8611L116.843 61.6884L113.833 61.8158L113.797 60.9525L115.865 60.865L113.701 58.6926L113.666 57.8713Z" fill="#1A1A1A"/>
<path d="M113.841 62.5323L116.849 62.6756L116.808 63.5386L114.747 63.4404L116.701 65.7921L116.662 66.6191L113.653 66.4758L113.694 65.6128L115.762 65.7113L113.802 63.3533L113.841 62.5323ZM118.125 63.3791L118.088 64.1702C117.846 64.2007 117.71 64.4165 117.695 64.7162C117.681 65.0098 117.797 65.2316 118.034 65.2969L117.996 66.088C117.456 65.9542 117.115 65.4333 117.15 64.6902C117.185 63.947 117.575 63.467 118.125 63.3791Z" fill="#1A1A1A"/>
<path d="M113.189 69.5385C113.369 68.2428 114.127 67.4453 115.048 67.5727C115.976 67.701 116.483 68.6738 116.304 69.9694C116.152 71.069 115.629 71.7357 114.953 71.8481L114.917 70.9284C115.256 70.8421 115.501 70.4702 115.585 69.8699C115.696 69.0616 115.437 68.529 114.926 68.4583C114.421 68.3884 114.02 68.8297 113.909 69.638C113.82 70.2799 113.954 70.7103 114.241 70.8712L113.987 71.7386C113.383 71.5096 113.034 70.6618 113.189 69.5385Z" fill="#1A1A1A"/>
<path d="M112.165 75.045L113.639 73.945L113.778 73.3429L112.621 73.075L112.816 72.2333L115.75 72.9124L115.555 73.7541L114.503 73.5106L114.362 74.1185L115.109 75.6831L114.838 76.8522L113.862 74.7357L111.892 76.2257L112.165 75.045Z" fill="#1A1A1A"/>
<path d="M111.246 77.9101C111.525 77.0607 112.018 76.6354 112.582 76.8208C113.05 76.9743 113.225 77.4422 113.028 78.5018L112.73 80.1026C113.003 80.0976 113.23 79.8689 113.426 79.2703C113.638 78.6262 113.613 78.2203 113.379 77.9917L113.732 77.1667C114.246 77.5439 114.405 78.3667 114.042 79.4725C113.675 80.5898 113.002 81.1393 112.232 80.8865L110.522 80.3248L110.773 79.561L111.274 79.6878C111.014 79.2108 111.038 78.5428 111.246 77.9101ZM112.322 77.67C112.117 77.6026 111.951 77.7628 111.812 78.1846C111.567 78.9313 111.639 79.7886 112.164 79.9609L112.186 79.9684L112.475 78.3771C112.551 77.9157 112.505 77.7299 112.322 77.67Z" fill="#1A1A1A"/>
<path d="M109.054 83.7495L109.963 84.1417L110.421 83.0784L109.902 81.7827L110.316 80.8241L110.857 82.2663C111.199 81.8063 111.615 81.6591 112.05 81.8469C112.607 82.0869 112.775 82.7278 112.442 83.4991L111.482 85.7249L108.716 84.5319L109.054 83.7495ZM111.699 82.6622C111.484 82.5696 111.272 82.6809 111.146 82.9729L110.536 84.3888L111.241 84.693L111.852 83.2771C111.978 82.9851 111.925 82.7597 111.699 82.6622Z" fill="#1A1A1A"/>
<path d="M107.42 87.3021L108.125 90.4882L111.137 89.8397L110.502 90.7938L108.076 91.2986L107.677 91.8981L109.126 92.8619L108.617 93.6262L107.169 92.6624L106.77 93.2618L107.245 95.6893L106.603 96.6534L106.056 93.6519L102.824 94.2107L103.455 93.2616L106.099 92.8082L106.494 92.2137L104.871 91.1336L105.379 90.3693L107.003 91.4494L107.392 90.8649L106.805 88.2262L107.42 87.3021Z" fill="#1A1A1A"/>
<path d="M102.294 94.5111C103.158 93.4355 104.195 93.1988 104.892 93.7589C105.608 94.3339 105.564 95.4611 104.748 96.476C103.97 97.4441 102.952 97.7726 102.274 97.2276C102.199 97.1674 102.102 97.067 102.018 96.9609L104.161 94.2951C103.75 94.1264 103.27 94.3493 102.808 94.9246C102.387 95.4484 102.243 95.8482 102.35 96.1651L101.687 96.7025C101.394 96.1283 101.647 95.3155 102.294 94.5111ZM104.606 94.699L103.024 96.668C103.319 96.8364 103.816 96.6201 104.252 96.0776C104.666 95.5631 104.792 95.0714 104.606 94.699Z" fill="#1A1A1A"/>
<path d="M100.714 96.5336L102.882 98.6236L102.304 99.2242L100.141 99.2812L100.193 101.415L99.6142 102.015L97.4453 99.9252L98.0324 99.316L99.4452 100.677L99.4124 98.6794L99.5373 98.5498L101.513 98.4792L100.127 97.1428L100.714 96.5336Z" fill="#1A1A1A"/>
<path d="M94.9581 102.043L95.6575 102.851C95.89 102.514 96.1415 102.209 96.477 101.918C97.2706 101.231 97.9951 101.151 98.4941 101.726L99.1071 102.434L98.4541 103L97.963 102.433C97.684 102.111 97.3101 102.165 96.8204 102.589C96.5256 102.845 96.3258 103.081 96.1172 103.381L96.9305 104.32L96.273 104.89L94.3006 102.613L94.9581 102.043Z" fill="#1A1A1A"/>
<path d="M95.6117 105.409L94.784 106.005L92.4368 105.056L92.7195 107.492L91.9356 108.056L91.4443 103.072L92.2379 102.5L92.3746 104.117L95.6117 105.409Z" fill="#1A1A1A"/>
<path d="M91.0805 105.049L90.4917 107.224L92.5572 107.675L91.6225 108.228L90.0677 107.886L89.7011 108.103L90.254 109.037L89.5155 109.474L88.9626 108.539L88.6011 108.753L88.1522 110.281L87.2123 110.837L87.8134 108.836L85.622 108.278L86.5722 107.716L88.2294 108.137L88.596 107.92L87.982 106.882L88.7205 106.445L89.3345 107.483L89.6908 107.272L90.1303 105.611L91.0805 105.049Z" fill="#1A1A1A"/>
<path d="M86.0129 108.006L87.3074 110.725L86.5273 111.097L85.6402 109.233L84.4903 112.066L83.7427 112.422L82.4481 109.703L83.2282 109.331L84.1179 111.2L85.2707 108.359L86.0129 108.006Z" fill="#1A1A1A"/>
<path d="M81.7739 109.988L82.819 112.813L82.0087 113.113L81.6381 112.111L79.5954 112.867L79.966 113.869L79.1557 114.169L78.1105 111.344L78.9209 111.044L79.3393 112.175L81.382 111.419L80.9635 110.288L81.7739 109.988Z" fill="#1A1A1A"/>
<path d="M75.7757 111.943C76.6386 111.709 77.2651 111.888 77.4203 112.461C77.5489 112.936 77.254 113.339 76.2608 113.757L74.7593 114.388C74.9136 114.613 75.2293 114.677 75.8374 114.512C76.4918 114.335 76.8175 114.091 76.8796 113.77L77.7629 113.612C77.7302 114.248 77.1303 114.833 76.0067 115.138C74.8716 115.445 74.0427 115.185 73.831 114.403L73.3606 112.665L74.1366 112.455L74.3062 112.944C74.5618 112.464 75.1329 112.117 75.7757 111.943ZM76.5679 112.711C76.5114 112.502 76.2863 112.451 75.8577 112.567C75.0991 112.773 74.4224 113.304 74.5667 113.837L74.573 113.86L76.0612 113.227C76.4884 113.037 76.6181 112.896 76.5679 112.711Z" fill="#1A1A1A"/>
<defs>
<filter id="filter0_d_18_1348" x="0" y="0" width="126" height="126" filterUnits="userSpaceOnUse" color-interpolation-filters="sRGB">
<feFlood flood-opacity="0" result="BackgroundImageFix"/>
<feColorMatrix in="SourceAlpha" type="matrix" values="0 0 0 0 0 0 0 0 0 0 0 0 0 0 0 0 0 0 127 0" result="hardAlpha"/>
<feOffset dx="3" dy="3"/>
<feComposite in2="hardAlpha" operator="out"/>
<feColorMatrix type="matrix" values="0 0 0 0 0 0 0 0 0 0 0 0 0 0 0 0 0 0 0.4 0"/>
<feBlend mode="normal" in2="BackgroundImageFix" result="effect1_dropShadow_18_1348"/>
<feBlend mode="normal" in="SourceGraphic" in2="effect1_dropShadow_18_1348" result="shape"/>
</filter>
</defs>
</svg>
