<svg width="119" height="119" viewBox="0 0 119 119" fill="none" xmlns="http://www.w3.org/2000/svg">
<circle cx="58.5" cy="58.5" r="51" transform="matrix(-1 0 0 1 119 1.99976)" stroke="#8B8B8B" stroke-width="15"/>
<circle cx="58.5" cy="58.5" r="51" transform="matrix(-1 0 0 1 117 -0.000244141)" stroke="#B4CC04" stroke-width="15"/>
<path d="M39.433 104.421C40.5715 104.902 41.0589 105.799 40.7179 106.606C40.3793 107.407 39.3966 107.682 38.2581 107.201C37.1307 106.725 36.6321 105.824 36.9708 105.022C37.3118 104.215 38.3055 103.945 39.433 104.421ZM40.3477 106.449C40.6186 105.808 40.2205 105.132 39.2975 104.742C38.369 104.349 37.612 104.538 37.3411 105.179C37.0725 105.814 37.4651 106.488 38.3936 106.881C39.3166 107.271 40.0791 107.085 40.3477 106.449Z" fill="black"/>
<path d="M35.6789 101.197L35.0646 102.318C36.2322 102.971 36.7009 103.926 36.2741 104.705C35.8444 105.489 34.7931 105.597 33.614 104.964L32.8816 106.301L32.5553 106.122L33.2878 104.785C32.1174 104.137 31.6405 103.185 32.0702 102.401C32.497 101.622 33.5622 101.501 34.7384 102.139L35.3527 101.018L35.6789 101.197ZM35.9269 104.514C36.2672 103.894 35.8999 103.166 34.9031 102.612L33.7727 104.675C34.7752 105.217 35.5808 105.146 35.9269 104.514ZM34.5769 102.434C33.5691 101.888 32.7577 101.97 32.4174 102.591C32.0714 103.222 32.4444 103.94 33.4464 104.496L34.5769 102.434Z" fill="black"/>
<path d="M30.6073 99.5834C31.6253 100.284 31.922 101.261 31.4252 101.982C30.9319 102.699 29.9139 102.77 28.8959 102.069C27.8877 101.375 27.5812 100.392 28.0745 99.6754C28.5712 98.9539 29.5991 98.8893 30.6073 99.5834ZM31.0941 101.754C31.4888 101.181 31.2352 100.438 30.4099 99.8701C29.5797 99.2985 28.8003 99.3301 28.4056 99.9034C28.0144 100.472 28.2629 101.211 29.0932 101.783C29.9185 102.351 30.7028 102.323 31.0941 101.754Z" fill="black"/>
<path d="M28.6541 96.5799L25.8951 99.8258L25.6117 99.5849L26.0462 99.0644C25.5294 99.1999 24.8935 99.0217 24.2992 98.5165C23.4077 97.7588 23.1967 96.7841 23.7795 96.0983C24.3585 95.4172 25.3622 95.4592 26.2537 96.2169C26.848 96.7221 27.118 97.3217 27.0714 97.849L28.3615 96.3312L28.6541 96.5799ZM26.5546 98.457C27.0092 97.9221 26.8192 97.1543 26.0649 96.5132C25.3197 95.8798 24.5405 95.8238 24.0859 96.3587C23.6273 96.8981 23.8159 97.649 24.5611 98.2824C25.3154 98.9236 26.096 98.9965 26.5546 98.457Z" fill="black"/>
<path d="M24.3335 94.582L22.2122 96.6176L21.9463 96.3405L22.0476 93.8983L19.62 93.9161L19.3541 93.6391L21.4754 91.6035L21.7371 91.8762L19.9622 93.5795L22.3517 93.5566L22.4182 93.6259L22.3142 95.9959L24.0718 94.3093L24.3335 94.582Z" fill="black"/>
<path d="M20.8231 90.7734C20.8859 90.8538 20.9319 90.9321 20.9563 91.012L20.6529 91.15C20.6328 91.1048 20.6006 91.0538 20.5748 91.0207C20.464 90.8789 20.3149 90.805 20.1055 90.8392C19.8698 90.8786 19.5103 91.091 18.9255 91.5022L18.0743 92.0987L16.2569 89.7725L18.5737 87.9624L18.8101 88.265L16.7628 89.8645L18.1185 91.5997L18.7212 91.1821C19.3749 90.7324 19.7532 90.5053 20.0621 90.462C20.4245 90.3996 20.668 90.5748 20.8231 90.7734Z" fill="black"/>
<path d="M16.7031 85.0707C17.3742 86.1371 17.2545 87.1411 16.5131 87.6076C15.7818 88.0678 14.7975 87.7089 14.1488 86.6781C13.5735 85.764 13.6016 84.7609 14.2872 84.3295C14.343 84.2944 14.4275 84.2483 14.4948 84.2201L16.3834 87.2213C16.9082 86.8273 16.9428 86.0824 16.4187 85.2496C16.0065 84.5945 15.5496 84.3078 15.067 84.3634L14.9152 83.9981C15.5177 83.8742 16.1918 84.2582 16.7031 85.0707ZM16.1047 87.3755L14.4334 84.7196C13.9859 85.0224 13.9756 85.7946 14.423 86.5055C14.9151 87.2875 15.5514 87.589 16.1047 87.3755Z" fill="black"/>
<path d="M14.9996 82.2944L12.3654 83.5999L12.1949 83.2559L13.2808 82.7177L12.0951 80.3254L11.0092 80.8636L10.8387 80.5195L13.4729 79.214L13.6434 79.558L12.407 80.1708L13.5926 82.5631L14.8291 81.9503L14.9996 82.2944Z" fill="black"/>
<path d="M12.8315 77.734L10.0785 78.7658L9.94369 78.4062L12.2753 77.5324L9.00665 75.9061L8.87399 75.5521L11.627 74.5203L11.7618 74.8799L9.43013 75.7538L12.7009 77.3857L12.8315 77.734Z" fill="black"/>
<path d="M10.7272 71.2405C11.0475 72.4591 10.6322 73.3809 9.785 73.6036C8.94939 73.8233 8.11799 73.1857 7.80835 72.0077C7.53379 70.9632 7.86144 70.0147 8.64483 69.8088C8.70866 69.792 8.80304 69.7734 8.87572 69.7667L9.77718 73.1962C10.396 72.9778 10.6524 72.2776 10.4022 71.3259C10.2055 70.5773 9.85561 70.1668 9.37861 70.075L9.3433 69.681C9.95529 69.7435 10.4831 70.312 10.7272 71.2405ZM9.46505 73.2597L8.66731 70.2248C8.14963 70.3794 7.90816 71.1129 8.1217 71.9253C8.3566 72.819 8.87319 73.2974 9.46505 73.2597Z" fill="black"/>
<path d="M9.23308 63.0698L6.29736 63.2283L6.11359 59.8253L9.04932 59.6667L9.07002 60.0502L6.48179 60.1899L6.62414 62.8261L9.21237 62.6863L9.23308 63.0698Z" fill="black"/>
<path d="M9.16751 56.3282C9.1087 57.5628 8.43545 58.3296 7.56044 58.288C6.69143 58.2466 6.09412 57.4192 6.15293 56.1846C6.21117 54.962 6.88499 54.1832 7.75401 54.2246C8.62901 54.2663 9.22575 55.1056 9.16751 56.3282ZM7.57957 57.8864C8.27478 57.9195 8.77223 57.3125 8.81991 56.3117C8.86787 55.3048 8.43009 54.6592 7.73488 54.6261C7.04566 54.5933 6.5485 55.1943 6.50054 56.2012C6.45286 57.202 6.89035 57.8536 7.57957 57.8864Z" fill="black"/>
<path d="M9.37587 53.217C9.36072 53.3179 9.33548 53.4051 9.29422 53.4778L8.98541 53.3525C9.00441 53.3068 9.01926 53.2484 9.0255 53.2069C9.05224 53.0289 9.00333 52.8698 8.83455 52.7413C8.64382 52.5974 8.24244 52.4825 7.54172 52.3408L6.52327 52.1331L6.96192 49.2139L9.86928 49.6508L9.81222 50.0305L7.24306 49.6445L6.91586 51.822L7.63349 51.9723C8.40956 52.1375 8.83468 52.256 9.0785 52.4503C9.37305 52.6706 9.41332 52.9678 9.37587 53.217Z" fill="black"/>
<path d="M10.9844 44.9548L9.20828 46.3518L9.02074 47.0842L10.3518 47.4251L10.2565 47.7971L7.40843 47.0677L7.50369 46.6957L8.68361 46.9979L8.87414 46.2539L8.11693 44.301L8.25684 43.7546L9.11577 45.9875L11.1258 44.4026L10.9844 44.9548Z" fill="black"/>
<path d="M11.5292 43.1563L8.76973 42.142L8.90221 41.7816L11.2393 42.6406L9.82336 39.2755L9.95377 38.9207L12.7133 39.935L12.5808 40.2955L10.2437 39.4364L11.6576 42.8072L11.5292 43.1563Z" fill="black"/>
<path d="M26.3662 21.0662C25.4295 21.8727 24.4098 21.9113 23.8382 21.2475C23.2706 20.5882 23.4604 19.5855 24.397 18.7791C25.3246 17.9805 26.3534 17.934 26.9211 18.5933C27.4926 19.2571 27.2937 20.2676 26.3662 21.0662ZM24.1429 20.9852C24.597 21.5126 25.3798 21.4563 26.1391 20.8025C26.903 20.1448 27.0705 19.383 26.6164 18.8556C26.1662 18.3327 25.388 18.3851 24.6241 19.0428C23.8648 19.6966 23.6927 20.4623 24.1429 20.9852Z" fill="black"/>
<path d="M30.9207 19.1323L30.1894 18.0842C29.0853 18.8401 28.0216 18.8361 27.5134 18.1079C27.0018 17.3748 27.3719 16.3848 28.4623 15.6093L27.5901 14.3595L27.8952 14.1466L28.7673 15.3964C29.868 14.6356 30.9332 14.6313 31.4448 15.3644C31.953 16.0926 31.5883 17.1007 30.4944 17.8714L31.2258 18.9194L30.9207 19.1323ZM27.8381 17.8813C28.2433 18.4619 29.0588 18.4562 29.9971 17.8087L28.6511 15.8799C27.7197 16.5372 27.4261 17.2908 27.8381 17.8813ZM30.3022 17.5958C31.2385 16.9351 31.5252 16.1716 31.12 15.591C30.708 15.0006 29.8994 15.0161 28.9562 15.667L30.3022 17.5958Z" fill="black"/>
<path d="M34.62 15.3053C33.5399 15.9063 32.5333 15.7385 32.1074 14.973C31.6844 14.2127 32.0725 13.269 33.1526 12.6681C34.2222 12.073 35.2393 12.2349 35.6622 12.9951C36.0882 13.7606 35.6896 14.7102 34.62 15.3053ZM32.4587 14.7775C32.7971 15.3857 33.5752 15.4884 34.4508 15.0012C35.3316 14.5111 35.6494 13.7988 35.311 13.1906C34.9755 12.5876 34.2027 12.4821 33.3218 12.9722C32.4462 13.4593 32.1232 14.1746 32.4587 14.7775Z" fill="black"/>
<path d="M38.1786 14.8872L36.4954 10.9738L36.8372 10.8268L37.1106 11.4473C37.2186 10.924 37.6607 10.4334 38.3773 10.1252C39.4521 9.66296 40.4191 9.90672 40.7747 10.7335C41.1279 11.5548 40.6445 12.4354 39.5697 12.8977C38.8532 13.2059 38.1961 13.1815 37.7443 12.9055L38.5314 14.7355L38.1786 14.8872ZM37.429 12.1725C37.7064 12.8174 38.4787 12.9881 39.3881 12.597C40.2865 12.2105 40.6827 11.5372 40.4054 10.8923C40.1256 10.2419 39.3691 10.0775 38.4707 10.4639C37.5612 10.855 37.1493 11.5221 37.429 12.1725Z" fill="black"/>
<path d="M41.8855 11.9068L41.0036 9.10219L41.37 8.98701L43.5132 10.1623L44.5753 7.97918L44.9416 7.864L45.8234 10.6686L45.4628 10.782L44.725 8.43528L43.6843 10.5865L43.5927 10.6153L41.5154 9.46961L42.2461 11.7934L41.8855 11.9068Z" fill="black"/>
<path d="M46.8587 10.4508C46.7588 10.4714 46.6682 10.4778 46.5858 10.4641L46.5968 10.131C46.6463 10.1331 46.7063 10.1269 46.7474 10.1184C46.9237 10.0821 47.0561 9.98134 47.1185 9.77859C47.1878 9.54991 47.1572 9.13353 47.0484 8.42694L46.8919 7.39938L49.7833 6.80397L50.3763 9.68354L50.0001 9.761L49.4761 7.21639L47.3194 7.66053L47.4259 8.38596C47.5386 9.17136 47.5741 9.61125 47.4757 9.90717C47.3707 10.2596 47.1055 10.4 46.8587 10.4508Z" fill="black"/>
<path d="M53.7972 9.29029C52.5437 9.41802 51.6973 8.86498 51.6085 7.99349C51.5209 7.13394 52.2796 6.41131 53.4913 6.28784C54.5657 6.17836 55.452 6.64894 55.5341 7.45477C55.5408 7.52043 55.5446 7.61654 55.5399 7.68939L52.0122 8.04885C52.1322 8.69401 52.7842 9.05577 53.7632 8.95602C54.5332 8.87756 54.993 8.5955 55.1575 8.13847L55.5522 8.16459C55.3957 8.75952 54.7523 9.19298 53.7972 9.29029ZM51.9979 7.73066L55.1197 7.41256C55.0471 6.87717 54.3598 6.52502 53.5241 6.61017C52.6049 6.70384 52.0523 7.14011 51.9979 7.73066Z" fill="black"/>
<path d="M57.0429 9V6.06H57.4269V7.272L60.0969 7.272V6.06H60.4809V9H60.0969V7.62L57.4269 7.62V9H57.0429Z" fill="black"/>
<path d="M62.0879 9.08195L62.386 6.15709L62.768 6.19602L62.5156 8.67319L65.4242 6.46668L65.8003 6.505L65.5023 9.42986L65.1202 9.39093L65.3727 6.91376L62.458 9.11966L62.0879 9.08195Z" fill="black"/>
<path d="M68.8418 10.0771C67.6077 9.823 66.9661 9.04153 67.1428 8.18354C67.3171 7.33729 68.2576 6.8755 69.4505 7.12117C70.5083 7.339 71.2127 8.05375 71.0493 8.8471C71.036 8.91175 71.0107 9.00456 70.9845 9.07266L67.5113 8.35744C67.4323 9.00889 67.9458 9.54957 68.9096 9.74804C69.6677 9.90416 70.1909 9.77299 70.4849 9.38635L70.8536 9.52966C70.5258 10.0503 69.7821 10.2708 68.8418 10.0771ZM67.5931 8.0496L70.6666 8.68254C70.7579 8.15 70.2079 7.60793 69.3852 7.43851C68.4802 7.25214 67.8222 7.50256 67.5931 8.0496Z" fill="black"/>
<path d="M76.8271 12.3701L77.9887 9.66929L81.1194 11.0158L79.9578 13.7166L79.605 13.5649L80.6291 11.1838L78.2039 10.1407L77.1798 12.5218L76.8271 12.3701Z" fill="black"/>
<path d="M82.8944 15.3046C81.8144 14.7037 81.4263 13.7599 81.8522 12.9945C82.2752 12.2342 83.2817 12.0664 84.3618 12.6674C85.4314 13.2625 85.83 14.212 85.407 14.9723C84.9811 15.7378 83.964 15.8997 82.8944 15.3046ZM82.2034 13.1899C81.8651 13.7981 82.188 14.5134 83.0636 15.0005C83.9445 15.4906 84.7173 15.385 85.0557 14.7768C85.3912 14.1739 85.0734 13.4615 84.1926 12.9715C83.317 12.4843 82.5389 12.5869 82.2034 13.1899Z" fill="black"/>
<path d="M85.5918 16.8732C85.5082 16.8148 85.4412 16.7535 85.3944 16.6842L85.6438 16.4632C85.6763 16.5005 85.7221 16.5397 85.7565 16.5638C85.9041 16.6668 86.0683 16.6936 86.2584 16.5994C86.4721 16.4924 86.7533 16.1838 87.1914 15.6189L87.8297 14.7986L90.2506 16.4879L88.5681 18.8989L88.2532 18.6792L89.7399 16.5486L87.9342 15.2885L87.4808 15.8647C86.9882 16.4868 86.6933 16.815 86.4108 16.9472C86.0827 17.1133 85.7985 17.0174 85.5918 16.8732Z" fill="black"/>
<path d="M92.2814 21.9818L91.8184 19.77L91.2455 19.2767L90.349 20.318L90.058 20.0675L91.9762 17.8394L92.2672 18.09L91.4725 19.013L92.0545 19.5141L94.1406 19.7029L94.568 20.0709L92.1859 19.8489L92.7134 22.3537L92.2814 21.9818Z" fill="black"/>
<path d="M93.6505 23.269L95.7847 21.247L96.0489 21.5257L94.2413 23.2383L97.8852 23.4639L98.1452 23.7383L96.011 25.7604L95.7469 25.4816L97.5544 23.7691L93.9064 23.5391L93.6505 23.269Z" fill="black"/>
<path d="M105.361 41.5601C104.934 40.4 105.256 39.4315 106.078 39.1293C106.895 38.8292 107.767 39.3587 108.193 40.5189C108.616 41.6677 108.298 42.6474 107.482 42.9475C106.659 43.2498 105.783 42.7089 105.361 41.5601ZM106.217 39.5066C105.564 39.7467 105.342 40.4995 105.687 41.44C106.035 42.3861 106.69 42.8103 107.343 42.5702C107.991 42.3322 108.215 41.585 107.867 40.6389C107.521 39.6984 106.864 39.2686 106.217 39.5066Z" fill="black"/>
<path d="M105.571 46.5059L106.809 46.1888C106.488 44.8897 106.865 43.8951 107.726 43.6748C108.592 43.453 109.389 44.147 109.732 45.4401L111.209 45.0621L111.301 45.4225L109.825 45.8005C110.151 47.0982 109.781 48.0971 108.915 48.3189C108.055 48.5392 107.239 47.8439 106.901 46.5492L105.663 46.8663L105.571 46.5059ZM107.824 44.0584C107.138 44.234 106.857 44.9996 107.134 46.1055L109.413 45.522C109.124 44.4191 108.521 43.8798 107.824 44.0584ZM107.226 46.4659C107.517 47.5745 108.131 48.1109 108.817 47.9353C109.514 47.7567 109.783 46.9941 109.505 45.8824L107.226 46.4659Z" fill="black"/>
<path d="M107.854 51.3112C107.671 50.0889 108.181 49.2053 109.047 49.0751C109.908 48.9458 110.655 49.6404 110.839 50.8627C111.021 52.0731 110.512 52.9686 109.652 53.0979C108.786 53.2281 108.036 52.5216 107.854 51.3112ZM109.107 49.4726C108.419 49.576 108.05 50.2686 108.199 51.2595C108.348 52.2563 108.904 52.8038 109.592 52.7004C110.274 52.5979 110.645 51.9112 110.495 50.9144C110.346 49.9236 109.789 49.3701 109.107 49.4726Z" fill="black"/>
<path d="M106.996 54.7912L111.251 54.5885L111.269 54.9601L110.592 54.9983C111.044 55.2831 111.348 55.8693 111.385 56.6484C111.441 57.8171 110.873 58.6371 109.974 58.6799C109.081 58.7224 108.426 57.9607 108.371 56.792C108.334 56.0129 108.587 55.4062 109.004 55.08L107.014 55.1748L106.996 54.7912ZM109.801 55.042C109.1 55.0754 108.669 55.7387 108.716 56.7275C108.763 57.7044 109.254 58.3117 109.955 58.2783C110.662 58.2446 111.082 57.5939 111.035 56.6171C110.988 55.6282 110.508 55.0083 109.801 55.042Z" fill="black"/>
<path d="M108.487 59.308L111.423 59.4665L111.402 59.85L109.55 61.4444L111.221 63.2051L111.2 63.5885L108.265 63.43L108.285 63.0525L110.741 63.1852L109.092 61.4557L109.097 61.3599L110.899 59.8168L108.467 59.6854L108.487 59.308Z" fill="black"/>
<path d="M108.107 64.4753C108.123 64.3745 108.149 64.2875 108.191 64.2151L108.499 64.3423C108.479 64.3879 108.464 64.4462 108.458 64.4877C108.43 64.6655 108.478 64.8249 108.646 64.9544C108.835 65.0996 109.236 65.2171 109.936 65.3632L110.953 65.5773L110.496 68.4937L107.591 68.0384L107.651 67.659L110.217 68.0614L110.558 65.8859L109.842 65.7311C109.067 65.561 108.642 65.4398 108.4 65.2439C108.107 65.0218 108.068 64.7243 108.107 64.4753Z" fill="black"/>
<path d="M106.758 71.381C107.078 70.1624 107.893 69.5639 108.74 69.7866C109.576 70.0063 109.986 70.9703 109.677 72.1483C109.402 73.1928 108.65 73.8575 107.867 73.6516C107.803 73.6348 107.712 73.6046 107.645 73.5747L108.547 70.1452C107.9 70.0312 107.333 70.5148 107.083 71.4664C106.886 72.215 106.989 72.7445 107.359 73.059L107.196 73.4194C106.694 73.0641 106.514 72.3095 106.758 71.381ZM108.85 70.2435L108.052 73.2784C108.579 73.3982 109.15 72.8783 109.363 72.0659C109.598 71.1722 109.384 70.5017 108.85 70.2435Z" fill="black"/>
<path d="M105.892 74.5192L108.645 75.551L108.511 75.9105L107.376 75.4852L106.439 77.9854L107.574 78.4107L107.439 78.7703L104.686 77.7385L104.821 77.3789L106.113 77.8632L107.05 75.3631L105.758 74.8787L105.892 74.5192Z" fill="black"/>
<path d="M104.044 79.2182L106.678 80.5238L106.507 80.8678L104.276 79.7621L105.322 83.2601L105.154 83.5988L102.52 82.2933L102.69 81.9492L104.921 83.0549L103.879 79.5515L104.044 79.2182Z" fill="black"/>
<path d="M100.742 85.1934C101.413 84.1269 102.37 83.8004 103.111 84.267C103.843 84.7272 103.945 85.7699 103.296 86.8008C102.721 87.7148 101.805 88.1235 101.119 87.6921C101.063 87.6569 100.985 87.6007 100.931 87.5522L102.819 84.551C102.237 84.2484 101.55 84.5395 101.026 85.3723C100.614 86.0274 100.553 86.5634 100.812 86.9744L100.549 87.2693C100.176 86.7797 100.231 86.0059 100.742 85.1934ZM103.079 84.7356L101.407 87.3915C101.874 87.6639 102.575 87.3391 103.022 86.6282C103.514 85.8462 103.511 85.1421 103.079 84.7356Z" fill="black"/>
<path d="M95.79 91.864L97.9114 93.8996L95.5518 96.3586L93.4304 94.323L93.6963 94.046L95.5665 95.8406L97.3944 93.9357L95.5242 92.1411L95.79 91.864Z" fill="black"/>
<path d="M90.914 96.5178C91.8558 95.7173 92.8757 95.6851 93.4431 96.3526C94.0065 97.0155 93.8104 98.0169 92.8686 98.8174C91.936 99.6101 90.9069 99.65 90.3435 98.9872C89.7761 98.3197 89.9814 97.3105 90.914 96.5178ZM93.1368 96.6129C92.686 96.0826 91.9029 96.134 91.1394 96.7829C90.3714 97.4358 90.199 98.1965 90.6498 98.7268C91.0966 99.2525 91.8752 99.205 92.6432 98.5522C93.4067 97.9033 93.5836 97.1387 93.1368 96.6129Z" fill="black"/>
<path d="M88.4985 98.4907C88.5825 98.4329 88.6635 98.3917 88.7447 98.3722L88.8642 98.6833C88.8179 98.7006 88.765 98.7297 88.7304 98.7535C88.5822 98.8556 88.4995 99 88.5209 99.211C88.5461 99.4486 88.7364 99.8202 89.1116 100.429L89.6557 101.314L87.2242 102.988L85.5571 100.567L85.8734 100.349L87.3466 102.489L89.1603 101.24L88.7798 100.613C88.3703 99.9339 88.1664 99.5425 88.1418 99.2316C88.1014 98.8661 88.2909 98.6336 88.4985 98.4907Z" fill="black"/>
<path d="M81.3694 102.961L83.603 103.304L84.2659 102.941L83.6055 101.736L83.9423 101.551L85.3554 104.129L85.0186 104.314L84.4332 103.246L83.7597 103.615L82.8509 105.502L82.3563 105.773L83.4001 103.62L80.8696 103.235L81.3694 102.961Z" fill="black"/>
<path d="M79.6801 103.792L80.8245 106.5L80.4708 106.65L79.5015 104.356L78.0114 107.689L77.6632 107.836L76.5188 105.128L76.8725 104.978L77.8418 107.272L79.3374 103.937L79.6801 103.792Z" fill="black"/>
</svg>
