<?xml version="1.0" encoding="UTF-8"?>
<svg id="_Слой_1" data-name="Слой 1" xmlns="http://www.w3.org/2000/svg" viewBox="0 0 391 211">
  <defs>
    <style>

      .cls-2 {
        stroke: #1d1d1b;
      }

      .cls-2, .cls-3 {
        stroke-miterlimit: 10;
      }

      .cls-2 {
        stroke-width: .01px;
      }

      .cls-2, .cls-3 {
        fill: none;
      }

      .cls-4 {
        fill: #1d1d1b;
      }

      .cls-4, .cls-5, .cls-6 {
        stroke-width: 0px;
      }

      .cls-5 {
        fill: #000;
      }

      .cls-6 {
        fill: #c6c6c5;
      }

      .cls-3 {
        stroke: #000;
        stroke-width: .19px;
      }
    </style>
  </defs>
  <rect  x=".5" y=".5" width="390" height="210" fill="transparent"/>
  <g>
    <g id="_ст-2400" data-name="ст-2400">
      <g id="_ст_2400" data-name="ст_2400">
        <rect class="cls-4" x="137.93" y="8.37" width="1.29" height="193.97"/>
        <rect class="cls-4" x="185.13" y="8.37" width="1.29" height="193.97"/>
        <rect class="cls-4" x="137.93" y="199.11" width="48.49" height="3.23"/>
        <rect class="cls-4" x="137.93" y="180.52" width="48.49" height="2.02"/>
        <rect class="cls-4" x="137.93" y="148.6" width="48.49" height="2.02"/>
        <rect class="cls-4" x="137.93" y="100.91" width="48.49" height="2.02"/>
        <rect class="cls-4" x="137.93" y="8.37" width="48.49" height="2.02"/>
        <rect class="cls-4" x="137.93" y="123.95" width="48.49" height="2.02"/>
        <rect class="cls-4" x="137.93" y="79.49" width="48.49" height="2.02"/>
        <rect class="cls-6" x="137.93" y="182.54" width="24.25" height="16.57"/>
        <rect class="cls-6" x="162.17" y="182.54" width="24.25" height="16.57"/>
        <line class="cls-2" x1="162.17" y1="182.54" x2="162.17" y2="199.11"/>
      </g>
      <g>
        <line class="cls-3" x1="137.92" y1="202.25" x2="128.6" y2="202.25"/>
        <line class="cls-3" x1="137.92" y1="8.47" x2="128.6" y2="8.47"/>
        <g>
          <line class="cls-3" x1="128.6" y1="201.31" x2="128.6" y2="9.36"/>
          <path class="cls-5" d="M129.51,200.01s-.1-.01-.13.03l-.78,1.22-.78-1.22s-.09-.06-.13-.03c-.04.03-.06.09-.03.13l.86,1.35s.05.04.08.04.06-.02.08-.04l.86-1.35s.01-.03.01-.05c0-.03-.02-.06-.04-.08Z"/>
          <path class="cls-5" d="M129.51,10.66s-.1.02-.13-.03l-.78-1.22-.78,1.22s-.09.06-.13.03c-.04-.03-.06-.09-.03-.13l.86-1.35s.05-.04.08-.04.06.02.08.04l.86,1.35s.01.03.01.05c0,.03-.02.06-.04.08Z"/>
        </g>
      </g>
      <g>
        <g>
          <line class="cls-3" x1="162.17" y1="180.29" x2="162.17" y2="150.85"/>
          <path class="cls-5" d="M163.09,179s-.1-.02-.13.03l-.78,1.22-.78-1.22s-.09-.06-.13-.03c-.04.03-.06.09-.03.13l.86,1.35s.05.04.08.04.06-.02.08-.04l.86-1.35s.01-.03.01-.05c0-.03-.02-.06-.04-.08Z"/>
          <path class="cls-5" d="M163.09,152.14s-.1.01-.13-.03l-.78-1.22-.78,1.22s-.09.06-.13.03-.06-.09-.03-.13l.86-1.35s.05-.04.08-.04.06.02.08.04l.86,1.35s.01.03.01.05c0,.03-.02.06-.04.08Z"/>
        </g>
        <g>
          <line class="cls-3" x1="162.17" y1="148.37" x2="162.17" y2="126.11"/>
          <path class="cls-5" d="M163.09,147.07s-.1-.01-.13.03l-.78,1.22-.78-1.22s-.09-.06-.13-.03-.06.09-.03.13l.86,1.35s.05.04.08.04.06-.02.08-.04l.86-1.35s.01-.03.01-.05c0-.03-.02-.06-.04-.08Z"/>
          <path class="cls-5" d="M163.09,127.41s-.1.02-.13-.03l-.78-1.22-.78,1.22s-.09.06-.13.03c-.04-.03-.06-.09-.03-.13l.86-1.35s.05-.04.08-.04.06.02.08.04l.86,1.35s.01.03.01.05c0,.03-.02.06-.04.08Z"/>
        </g>
        <g>
          <line class="cls-3" x1="162.17" y1="123.72" x2="162.17" y2="103.16"/>
          <path class="cls-5" d="M163.09,122.42s-.1-.01-.13.03l-.78,1.22-.78-1.22s-.09-.06-.13-.03c-.04.03-.06.09-.03.13l.86,1.35s.05.04.08.04.06-.02.08-.04l.86-1.35s.01-.03.01-.05c0-.03-.02-.06-.04-.08Z"/>
          <path class="cls-5" d="M163.09,104.46s-.1.02-.13-.03l-.78-1.22-.78,1.22s-.09.06-.13.03c-.04-.03-.06-.09-.03-.13l.86-1.35s.05-.04.08-.04.06.02.08.04l.86,1.35s.01.03.01.05c0,.03-.02.06-.04.08Z"/>
        </g>
        <g>
          <line class="cls-3" x1="162.17" y1="100.68" x2="162.17" y2="81.74"/>
          <path class="cls-5" d="M163.09,99.39s-.1-.01-.13.03l-.78,1.22-.78-1.22s-.09-.06-.13-.03c-.04.03-.06.09-.03.13l.86,1.35s.05.04.08.04.06-.02.08-.04l.86-1.35s.01-.03.01-.05c0-.03-.02-.06-.04-.08Z"/>
          <path class="cls-5" d="M163.09,83.04s-.1.02-.13-.03l-.78-1.22-.78,1.22s-.09.06-.13.03c-.04-.03-.06-.09-.03-.13l.86-1.35s.05-.04.08-.04.06.02.08.04l.86,1.35s.01.03.01.05c0,.03-.02.06-.04.08Z"/>
        </g>
        <g>
          <line class="cls-3" x1="162.17" y1="79.27" x2="162.17" y2="10.62"/>
          <path class="cls-5" d="M163.09,77.97s-.1-.01-.13.03l-.78,1.22-.78-1.22s-.09-.06-.13-.03c-.04.03-.06.09-.03.13l.86,1.35s.05.04.08.04.06-.02.08-.04l.86-1.35s.01-.03.01-.05c0-.03-.02-.06-.04-.08Z"/>
          <path class="cls-5" d="M163.09,11.91s-.1.02-.13-.03l-.78-1.22-.78,1.22s-.09.06-.13.03-.06-.09-.03-.13l.86-1.35s.05-.04.08-.04.06.02.08.04l.86,1.35s.01.03.01.05c0,.03-.02.06-.04.08Z"/>
        </g>
      </g>
      <g>
        <path class="cls-5" d="M125.91,110.17v3.41h-.29l-1.24-1.87c-.46-.7-.74-1-1.2-1-.55,0-.9.48-.9,1.21s.32,1.25.93,1.39l-.07.36c-.74-.18-1.18-.83-1.18-1.74s.47-1.57,1.22-1.57c.55,0,.92.36,1.44,1.17l.98,1.49v-2.83h.31Z"/>
        <path class="cls-5" d="M124.95,107.14v2.87h-.31l-2.65-2.79v-.44h2.64v-.69h.32v.69h.96v.36h-.96ZM124.63,107.14h-2.27l2.27,2.4v-2.4Z"/>
        <path class="cls-5" d="M123.94,105.66c-1.16,0-1.98-.82-1.98-1.97s.82-1.97,1.98-1.97,2,.82,2,1.97-.83,1.97-2,1.97ZM125.62,103.69c0-.93-.7-1.61-1.69-1.61s-1.66.68-1.66,1.61.69,1.61,1.66,1.61,1.69-.67,1.69-1.61Z"/>
        <path class="cls-5" d="M123.94,101.11c-1.16,0-1.98-.82-1.98-1.97s.82-1.97,1.98-1.97,2,.82,2,1.97-.83,1.97-2,1.97ZM125.62,99.14c0-.93-.7-1.61-1.69-1.61s-1.66.68-1.66,1.61.69,1.61,1.66,1.61,1.69-.67,1.69-1.61Z"/>
      </g>
      <g>
        <path class="cls-5" d="M160,171.07l-.08-.32c.61-.21.8-.73.8-1.39,0-.73-.3-1.22-.77-1.22-.41,0-.68.3-.68,1.04v.69h-.29v-.68c0-.61-.23-.96-.62-.96s-.69.43-.69,1.12.24,1.14.76,1.31l-.06.32c-.65-.22-.98-.8-.98-1.63,0-.89.42-1.43.98-1.43.36,0,.62.24.75.65.12-.51.43-.76.84-.76.61,0,1.05.61,1.05,1.55,0,.89-.3,1.47-1.01,1.71Z"/>
        <path class="cls-5" d="M159.8,167.3c-.44,0-.76-.24-1.22-.73l-1.16-1.23v-.42l1.34,1.46c-.11-.27-.15-.55-.15-.83,0-.92.46-1.58,1.19-1.58s1.22.68,1.22,1.68-.47,1.66-1.21,1.66ZM160.72,165.65c0-.83-.38-1.35-.94-1.35s-.91.53-.91,1.32c0,.39.07.71.21.94.16.26.42.43.72.43.55,0,.92-.54.92-1.33Z"/>
        <path class="cls-5" d="M159.18,163.49c-1.06,0-1.8-.75-1.8-1.79s.75-1.79,1.8-1.79,1.82.75,1.82,1.79-.75,1.79-1.82,1.79ZM160.72,161.7c0-.85-.64-1.47-1.53-1.47s-1.51.62-1.51,1.47.63,1.46,1.51,1.46,1.53-.61,1.53-1.46Z"/>
      </g>
      <g>
        <path class="cls-5" d="M161,139.89v3.1h-.27l-1.12-1.7c-.42-.64-.67-.91-1.09-.91-.5,0-.82.44-.82,1.1s.29,1.14.85,1.26l-.06.32c-.67-.17-1.08-.76-1.08-1.58s.43-1.43,1.11-1.43c.5,0,.84.33,1.31,1.06l.89,1.36v-2.57h.28Z"/>
        <path class="cls-5" d="M157.74,136.97v2.7h-.29v-3.08h.25l3.31,2.17v.37l-3.27-2.16Z"/>
        <path class="cls-5" d="M159.22,136.29c-1.06,0-1.8-.75-1.8-1.79s.75-1.79,1.8-1.79,1.82.75,1.82,1.79-.75,1.79-1.82,1.79ZM160.75,134.5c0-.85-.64-1.47-1.53-1.47s-1.51.62-1.51,1.47.63,1.46,1.51,1.46,1.53-.61,1.53-1.46Z"/>
      </g>
      <g>
        <path class="cls-5" d="M160.97,115.97v3.1h-.27l-1.12-1.7c-.42-.64-.67-.91-1.09-.91-.5,0-.82.44-.82,1.1s.29,1.14.85,1.26l-.06.32c-.67-.17-1.08-.76-1.08-1.58s.43-1.43,1.11-1.43c.5,0,.84.33,1.31,1.06l.89,1.36v-2.57h.28Z"/>
        <path class="cls-5" d="M160.05,115.65l-.09-.33c.58-.21.76-.72.76-1.34,0-.78-.39-1.29-.91-1.29-.58,0-.93.49-.93,1.27,0,.59.16.98.41,1.23l-.05.26-1.83-.41v-2.51h.28v2.27l1.21.28c-.21-.31-.3-.75-.3-1.15,0-.97.47-1.57,1.21-1.57.69,0,1.19.66,1.19,1.61,0,.84-.3,1.42-.96,1.67Z"/>
        <path class="cls-5" d="M159.18,111.88c-1.06,0-1.8-.75-1.8-1.79s.75-1.79,1.8-1.79,1.82.75,1.82,1.79-.75,1.79-1.82,1.79ZM160.72,110.09c0-.85-.64-1.47-1.53-1.47s-1.51.62-1.51,1.47.63,1.46,1.51,1.46,1.53-.61,1.53-1.46Z"/>
      </g>
      <g>
        <path class="cls-5" d="M160.92,93.81v3.1h-.27l-1.12-1.7c-.42-.64-.67-.91-1.09-.91-.5,0-.82.44-.82,1.1s.29,1.14.85,1.26l-.06.32c-.67-.17-1.08-.76-1.08-1.58s.43-1.43,1.11-1.43c.5,0,.84.33,1.31,1.06l.89,1.36v-2.57h.28Z"/>
        <path class="cls-5" d="M159.95,93.49l-.08-.32c.61-.21.8-.73.8-1.39,0-.73-.3-1.22-.77-1.22-.41,0-.68.3-.68,1.04v.69h-.29v-.68c0-.61-.23-.96-.62-.96s-.69.43-.69,1.12.24,1.14.76,1.3l-.06.32c-.66-.22-.98-.8-.98-1.63,0-.89.42-1.43.98-1.43.36,0,.62.24.75.65.12-.51.43-.76.84-.76.61,0,1.05.61,1.05,1.55,0,.89-.3,1.47-1.01,1.71Z"/>
        <path class="cls-5" d="M159.13,89.54c-1.06,0-1.8-.75-1.8-1.79s.75-1.79,1.8-1.79,1.82.75,1.82,1.79-.75,1.79-1.82,1.79ZM160.66,87.75c0-.85-.64-1.47-1.53-1.47s-1.51.62-1.51,1.47.63,1.46,1.51,1.46,1.53-.61,1.53-1.46Z"/>
      </g>
      <g>
        <path class="cls-5" d="M159.92,51.64c-.46,0-.79-.44-.89-1-.1.43-.38.75-.79.75-.53,0-.92-.55-.92-1.47s.38-1.47.92-1.47c.4,0,.68.33.79.75.09-.56.42-1,.89-1,.61,0,1.03.61,1.03,1.72s-.42,1.72-1.03,1.72ZM158.91,49.92c0-.64-.24-1.15-.65-1.15-.38,0-.65.41-.65,1.15s.26,1.15.65,1.15c.41,0,.65-.52.65-1.15ZM160.67,49.92c0-.91-.31-1.39-.75-1.39-.48,0-.73.61-.73,1.39s.25,1.39.73,1.39c.44,0,.75-.47.75-1.39Z"/>
        <path class="cls-5" d="M160.05,45.22v2.61h-.28l-2.41-2.54v-.4h2.4v-.63h.29v.63h.87v.33h-.87ZM159.76,45.22h-2.06l2.06,2.18v-2.18Z"/>
        <path class="cls-5" d="M160,44.01l-.09-.33c.58-.21.76-.72.76-1.34,0-.78-.39-1.29-.91-1.29-.58,0-.93.49-.93,1.27,0,.59.16.98.41,1.23l-.05.26-1.83-.41v-2.51h.28v2.27l1.21.28c-.21-.31-.3-.75-.3-1.15,0-.97.47-1.57,1.21-1.57.69,0,1.19.65,1.19,1.61,0,.83-.3,1.42-.96,1.67Z"/>
      </g>
    </g>
    <g id="_ст-2100" data-name="ст-2100">
      <g id="_ст_2100" data-name="ст_2100">
        <rect class="cls-4" x="208.53" y="32.62" width="1.29" height="169.73"/>
        <rect class="cls-4" x="255.73" y="32.62" width="1.29" height="169.73"/>
        <rect class="cls-4" x="208.53" y="199.11" width="48.49" height="3.23"/>
        <rect class="cls-4" x="208.53" y="180.52" width="48.49" height="2.02"/>
        <rect class="cls-4" x="208.53" y="148.6" width="48.49" height="2.02"/>
        <rect class="cls-4" x="208.53" y="100.91" width="48.49" height="2.02"/>
        <rect class="cls-4" x="208.53" y="32.62" width="48.49" height="2.02"/>
        <rect class="cls-4" x="208.53" y="123.95" width="48.49" height="2.02"/>
        <rect class="cls-4" x="208.53" y="79.49" width="48.49" height="2.02"/>
        <rect class="cls-6" x="208.53" y="182.54" width="24.25" height="16.57"/>
        <rect class="cls-6" x="232.78" y="182.54" width="24.25" height="16.57"/>
        <line class="cls-2" x1="232.78" y1="182.54" x2="232.78" y2="199.11"/>
      </g>
      <g>
        <g>
          <line class="cls-3" x1="232.78" y1="180.29" x2="232.78" y2="150.85"/>
          <path class="cls-5" d="M233.69,179s-.1-.02-.13.03l-.78,1.22-.78-1.22s-.09-.06-.13-.03c-.04.03-.06.09-.03.13l.86,1.35s.05.04.08.04.06-.02.08-.04l.86-1.35s.01-.03.01-.05c0-.03-.02-.06-.04-.08Z"/>
          <path class="cls-5" d="M233.69,152.14s-.1.01-.13-.03l-.78-1.22-.78,1.22s-.09.06-.13.03c-.04-.03-.06-.09-.03-.13l.86-1.35s.05-.04.08-.04.06.02.08.04l.86,1.35s.01.03.01.05c0,.03-.02.06-.04.08Z"/>
        </g>
        <g>
          <line class="cls-3" x1="232.78" y1="148.37" x2="232.78" y2="126.11"/>
          <path class="cls-5" d="M233.69,147.07s-.1-.01-.13.03l-.78,1.22-.78-1.22s-.09-.06-.13-.03c-.04.03-.06.09-.03.13l.86,1.35s.05.04.08.04.06-.02.08-.04l.86-1.35s.01-.03.01-.05c0-.03-.02-.06-.04-.08Z"/>
          <path class="cls-5" d="M233.69,127.41s-.1.02-.13-.03l-.78-1.22-.78,1.22s-.09.06-.13.03c-.04-.03-.06-.09-.03-.13l.86-1.35s.05-.04.08-.04.06.02.08.04l.86,1.35s.01.03.01.05c0,.03-.02.06-.04.08Z"/>
        </g>
        <g>
          <line class="cls-3" x1="232.78" y1="123.72" x2="232.78" y2="103.16"/>
          <path class="cls-5" d="M233.69,122.42s-.1-.01-.13.03l-.78,1.22-.78-1.22s-.09-.06-.13-.03c-.04.03-.06.09-.03.13l.86,1.35s.05.04.08.04.06-.02.08-.04l.86-1.35s.01-.03.01-.05c0-.03-.02-.06-.04-.08Z"/>
          <path class="cls-5" d="M233.69,104.46s-.1.02-.13-.03l-.78-1.22-.78,1.22s-.09.06-.13.03c-.04-.03-.06-.09-.03-.13l.86-1.35s.05-.04.08-.04.06.02.08.04l.86,1.35s.01.03.01.05c0,.03-.02.06-.04.08Z"/>
        </g>
        <g>
          <line class="cls-3" x1="232.78" y1="100.68" x2="232.78" y2="81.74"/>
          <path class="cls-5" d="M233.69,99.39s-.1-.01-.13.03l-.78,1.22-.78-1.22s-.09-.06-.13-.03c-.04.03-.06.09-.03.13l.86,1.35s.05.04.08.04.06-.02.08-.04l.86-1.35s.01-.03.01-.05c0-.03-.02-.06-.04-.08Z"/>
          <path class="cls-5" d="M233.69,83.04s-.1.02-.13-.03l-.78-1.22-.78,1.22s-.09.06-.13.03c-.04-.03-.06-.09-.03-.13l.86-1.35s.05-.04.08-.04.06.02.08.04l.86,1.35s.01.03.01.05c0,.03-.02.06-.04.08Z"/>
        </g>
        <g>
          <line class="cls-3" x1="232.78" y1="79.27" x2="232.78" y2="34.87"/>
          <path class="cls-5" d="M233.69,77.97s-.1-.01-.13.03l-.78,1.22-.78-1.22s-.09-.06-.13-.03c-.04.03-.06.09-.03.13l.86,1.35s.05.04.08.04.06-.02.08-.04l.86-1.35s.01-.03.01-.05c0-.03-.02-.06-.04-.08Z"/>
          <path class="cls-5" d="M233.69,36.16s-.1.02-.13-.03l-.78-1.22-.78,1.22s-.09.06-.13.03c-.04-.03-.06-.09-.03-.13l.86-1.35s.05-.04.08-.04.06.02.08.04l.86,1.35s.01.03.01.05c0,.03-.02.06-.04.08Z"/>
        </g>
      </g>
      <g>
        <line class="cls-3" x1="208.53" y1="202.26" x2="200.36" y2="202.26"/>
        <line class="cls-3" x1="208.53" y1="32.7" x2="200.36" y2="32.7"/>
        <g>
          <line class="cls-3" x1="200.36" y1="201.41" x2="200.36" y2="33.51"/>
          <path class="cls-5" d="M201.28,200.11s-.1-.01-.13.03l-.78,1.22-.78-1.22s-.09-.06-.13-.03-.06.09-.03.13l.86,1.35s.05.04.08.04.06-.02.08-.04l.86-1.35s.01-.03.01-.05c0-.03-.02-.06-.04-.08Z"/>
          <path class="cls-5" d="M201.28,34.81s-.1.02-.13-.03l-.78-1.22-.78,1.22s-.09.06-.13.03-.06-.09-.03-.13l.86-1.35s.05-.04.08-.04.06.02.08.04l.86,1.35s.01.03.01.05c0,.03-.02.06-.04.08Z"/>
        </g>
      </g>
      <g>
        <path class="cls-5" d="M230.71,170.91l-.08-.32c.61-.21.8-.73.8-1.39,0-.73-.3-1.22-.77-1.22-.41,0-.68.3-.68,1.04v.69h-.29v-.68c0-.61-.23-.96-.62-.96s-.69.43-.69,1.12.24,1.14.76,1.31l-.06.32c-.65-.22-.98-.8-.98-1.63,0-.89.42-1.43.98-1.43.36,0,.62.24.75.65.12-.51.43-.76.84-.76.61,0,1.05.61,1.05,1.55,0,.89-.3,1.47-1.01,1.71Z"/>
        <path class="cls-5" d="M230.51,167.14c-.44,0-.76-.24-1.22-.73l-1.16-1.23v-.42l1.34,1.46c-.11-.27-.15-.55-.15-.83,0-.92.47-1.58,1.19-1.58s1.22.68,1.22,1.68-.47,1.66-1.21,1.66ZM231.43,165.48c0-.83-.38-1.35-.93-1.35s-.91.53-.91,1.32c0,.39.07.71.21.94.16.26.42.43.72.43.55,0,.92-.54.92-1.33Z"/>
        <path class="cls-5" d="M229.89,163.32c-1.06,0-1.8-.75-1.8-1.79s.75-1.79,1.8-1.79,1.82.75,1.82,1.79-.75,1.79-1.82,1.79ZM231.43,161.54c0-.85-.64-1.47-1.53-1.47s-1.51.62-1.51,1.47.63,1.46,1.51,1.46,1.53-.61,1.53-1.46Z"/>
      </g>
      <g>
        <path class="cls-5" d="M231.71,139.72v3.1h-.27l-1.12-1.7c-.42-.64-.67-.91-1.09-.91-.5,0-.82.44-.82,1.1s.29,1.14.85,1.26l-.06.32c-.67-.17-1.08-.76-1.08-1.58s.43-1.43,1.11-1.43c.5,0,.83.33,1.31,1.06l.89,1.36v-2.57h.29Z"/>
        <path class="cls-5" d="M228.45,136.8v2.7h-.29v-3.08h.25l3.31,2.17v.37l-3.26-2.16Z"/>
        <path class="cls-5" d="M229.93,136.12c-1.06,0-1.8-.75-1.8-1.79s.75-1.79,1.8-1.79,1.82.75,1.82,1.79-.75,1.79-1.82,1.79ZM231.46,134.33c0-.85-.64-1.47-1.53-1.47s-1.51.62-1.51,1.47.63,1.46,1.51,1.46,1.53-.61,1.53-1.46Z"/>
      </g>
      <g>
        <path class="cls-5" d="M231.68,115.8v3.1h-.27l-1.12-1.7c-.42-.64-.67-.91-1.09-.91-.5,0-.82.44-.82,1.1s.29,1.14.85,1.26l-.06.32c-.67-.17-1.08-.76-1.08-1.58s.43-1.43,1.11-1.43c.5,0,.83.33,1.31,1.06l.89,1.36v-2.57h.29Z"/>
        <path class="cls-5" d="M230.76,115.48l-.08-.33c.58-.21.76-.72.76-1.34,0-.78-.39-1.29-.91-1.29-.58,0-.92.49-.92,1.27,0,.59.16.98.41,1.23l-.05.26-1.83-.41v-2.51h.29v2.27l1.21.28c-.21-.31-.3-.75-.3-1.15,0-.97.47-1.57,1.21-1.57.69,0,1.19.66,1.19,1.61,0,.84-.3,1.42-.96,1.67Z"/>
        <path class="cls-5" d="M229.89,111.71c-1.06,0-1.8-.75-1.8-1.79s.75-1.79,1.8-1.79,1.82.75,1.82,1.79-.75,1.79-1.82,1.79ZM231.43,109.93c0-.85-.64-1.47-1.53-1.47s-1.51.62-1.51,1.47.63,1.46,1.51,1.46,1.53-.61,1.53-1.46Z"/>
      </g>
      <g>
        <path class="cls-5" d="M231.63,93.64v3.1h-.27l-1.12-1.7c-.42-.64-.67-.91-1.09-.91-.5,0-.82.44-.82,1.1s.29,1.14.85,1.26l-.06.32c-.67-.17-1.08-.76-1.08-1.58s.43-1.43,1.11-1.43c.5,0,.83.33,1.31,1.06l.89,1.36v-2.57h.29Z"/>
        <path class="cls-5" d="M230.66,93.32l-.08-.32c.61-.21.8-.73.8-1.39,0-.73-.3-1.22-.77-1.22-.41,0-.68.3-.68,1.04v.69h-.29v-.68c0-.61-.23-.96-.62-.96s-.69.43-.69,1.12.24,1.14.76,1.3l-.06.32c-.65-.22-.98-.8-.98-1.63,0-.89.42-1.43.98-1.43.36,0,.62.24.75.65.12-.51.43-.76.84-.76.61,0,1.05.61,1.05,1.55,0,.89-.3,1.47-1.01,1.71Z"/>
        <path class="cls-5" d="M229.84,89.37c-1.06,0-1.8-.75-1.8-1.79s.75-1.79,1.8-1.79,1.82.75,1.82,1.79-.75,1.79-1.82,1.79ZM231.38,87.58c0-.85-.64-1.47-1.53-1.47s-1.51.62-1.51,1.47.63,1.46,1.51,1.46,1.53-.61,1.53-1.46Z"/>
      </g>
      <g>
        <path class="cls-5" d="M230.82,63.3l-.08-.33c.58-.21.76-.72.76-1.34,0-.78-.39-1.29-.91-1.29-.58,0-.92.49-.92,1.27,0,.59.16.98.41,1.23l-.05.26-1.83-.41v-2.51h.29v2.27l1.21.28c-.21-.31-.3-.75-.3-1.15,0-.97.47-1.57,1.21-1.57.69,0,1.19.65,1.19,1.61,0,.83-.3,1.42-.96,1.67Z"/>
        <path class="cls-5" d="M230.88,57.04v2.61h-.28l-2.41-2.54v-.4h2.4v-.63h.29v.63h.87v.33h-.87ZM230.58,57.04h-2.06l2.06,2.18v-2.18Z"/>
        <path class="cls-5" d="M230.82,55.83l-.08-.33c.58-.21.76-.72.76-1.34,0-.78-.39-1.29-.91-1.29-.58,0-.92.49-.92,1.27,0,.59.16.98.41,1.23l-.05.26-1.83-.41v-2.51h.29v2.27l1.21.28c-.21-.31-.3-.75-.3-1.15,0-.97.47-1.57,1.21-1.57.69,0,1.19.65,1.19,1.61,0,.83-.3,1.42-.96,1.67Z"/>
      </g>
      <g>
        <path class="cls-5" d="M197.92,121.45v3.41h-.29l-1.24-1.87c-.46-.7-.74-1-1.2-1-.55,0-.9.48-.9,1.21s.32,1.25.93,1.39l-.07.36c-.74-.18-1.18-.83-1.18-1.74s.47-1.57,1.22-1.57c.55,0,.92.36,1.44,1.17l.98,1.49v-2.83h.31Z"/>
        <path class="cls-5" d="M194.9,120v1.04h-.27c0-.76-.17-1.02-.63-1.13v-.26h3.91v.36h-3.02Z"/>
        <path class="cls-5" d="M195.95,118.63c-1.16,0-1.98-.82-1.98-1.97s.82-1.97,1.98-1.97,2,.82,2,1.97-.83,1.97-2,1.97ZM197.64,116.66c0-.93-.7-1.61-1.69-1.61s-1.67.68-1.67,1.61.69,1.61,1.67,1.61,1.69-.67,1.69-1.61Z"/>
        <path class="cls-5" d="M195.95,114.08c-1.16,0-1.98-.82-1.98-1.97s.82-1.97,1.98-1.97,2,.82,2,1.97-.83,1.97-2,1.97ZM197.64,112.11c0-.93-.7-1.61-1.69-1.61s-1.67.68-1.67,1.61.69,1.61,1.67,1.61,1.69-.67,1.69-1.61Z"/>
      </g>
    </g>
  </g>
</svg>