<?xml version="1.0" encoding="UTF-8"?>
<svg id="_Слой_1" data-name="Слой 1" xmlns="http://www.w3.org/2000/svg" viewBox="0 0 390 210">
  <defs>
    <style>
      .cls-1 {
        fill: #1d1d1b;
      }

      .cls-1, .cls-2, .cls-3, .cls-4 {
        stroke-width: 0px;
      }

      .cls-2 {
        fill: #000;
      }

      .cls-5 {
        stroke: #000;
        stroke-width: .17px;
      }

      .cls-5, .cls-6 {
        fill: none;
        stroke-miterlimit: 10;
      }

      .cls-3 {
        fill: #c6c6c5;
      }

      .cls-4 {
        fill: transparent;
      }

      .cls-6 {
        stroke: #1d1d1b;
        stroke-width: .01px;
      }
    </style>
  </defs>
  <rect class="cls-4" width="390" height="210"/>
  <g>
    <g id="_ст-2400" data-name="ст-2400">
      <g id="_ст_2400" data-name="ст_2400">
        <rect class="cls-1" x="141.14" y="22.77" width="1.15" height="172.52"/>
        <rect class="cls-1" x="183.12" y="22.77" width="1.15" height="172.52"/>
        <rect class="cls-1" x="141.14" y="192.41" width="43.13" height="2.88"/>
        <rect class="cls-1" x="141.14" y="175.88" width="43.13" height="1.8"/>
        <rect class="cls-1" x="141.14" y="147.49" width="43.13" height="1.8"/>
        <rect class="cls-1" x="141.14" y="105.08" width="43.13" height="1.8"/>
        <rect class="cls-1" x="141.14" y="22.77" width="43.13" height="1.8"/>
        <rect class="cls-1" x="141.14" y="125.56" width="43.13" height="1.8"/>
        <rect class="cls-1" x="141.14" y="86.03" width="43.13" height="1.8"/>
        <rect class="cls-3" x="141.14" y="177.68" width="21.56" height="14.74"/>
        <rect class="cls-3" x="162.71" y="177.68" width="21.56" height="14.74"/>
        <line class="cls-6" x1="162.71" y1="177.68" x2="162.71" y2="192.41"/>
      </g>
      <g>
        <line class="cls-5" x1="141.14" y1="195.2" x2="132.84" y2="195.2"/>
        <line class="cls-5" x1="141.14" y1="22.86" x2="132.84" y2="22.86"/>
        <g>
          <line class="cls-5" x1="132.84" y1="194.37" x2="132.84" y2="23.65"/>
          <path class="cls-2" d="M133.65,193.21s-.09-.01-.12.03l-.69,1.09-.69-1.09s-.08-.05-.12-.03c-.04.03-.05.08-.03.12l.76,1.2s.04.04.07.04.06-.01.07-.04l.76-1.2s.01-.03.01-.05c0-.03-.01-.06-.04-.07Z"/>
          <path class="cls-2" d="M133.65,24.81s-.09.01-.12-.03l-.69-1.09-.69,1.09s-.08.05-.12.03c-.04-.03-.05-.08-.03-.12l.76-1.2s.04-.04.07-.04.06.01.07.04l.76,1.2s.01.03.01.05c0,.03-.01.06-.04.07Z"/>
        </g>
      </g>
      <g>
        <g>
          <line class="cls-5" x1="162.71" y1="175.68" x2="162.71" y2="149.49"/>
          <path class="cls-2" d="M163.52,174.52s-.09-.01-.12.03l-.69,1.09-.69-1.09s-.08-.05-.12-.03c-.04.03-.05.08-.03.12l.76,1.2s.04.04.07.04.06-.01.07-.04l.76-1.2s.01-.03.01-.05c0-.03-.01-.06-.04-.07Z"/>
          <path class="cls-2" d="M163.52,150.64s-.09.01-.12-.03l-.69-1.09-.69,1.09s-.08.05-.12.03c-.04-.03-.05-.08-.03-.12l.76-1.2s.04-.04.07-.04.06.01.07.04l.76,1.2s.01.03.01.05c0,.03-.01.06-.04.07Z"/>
        </g>
        <g>
          <line class="cls-5" x1="162.71" y1="147.28" x2="162.71" y2="127.49"/>
          <path class="cls-2" d="M163.52,146.13s-.09-.01-.12.03l-.69,1.09-.69-1.09s-.08-.05-.12-.03c-.04.03-.05.08-.03.12l.76,1.2s.04.04.07.04.06-.01.07-.04l.76-1.2s.01-.03.01-.05c0-.03-.01-.06-.04-.07Z"/>
          <path class="cls-2" d="M163.52,128.64s-.09.01-.12-.03l-.69-1.09-.69,1.09s-.08.05-.12.03c-.04-.03-.05-.08-.03-.12l.76-1.2s.04-.04.07-.04.06.01.07.04l.76,1.2s.01.03.01.05c0,.03-.01.06-.04.07Z"/>
        </g>
        <g>
          <line class="cls-5" x1="162.71" y1="125.36" x2="162.71" y2="107.08"/>
          <path class="cls-2" d="M163.52,124.21s-.09-.01-.12.03l-.69,1.09-.69-1.09s-.08-.05-.12-.03c-.04.03-.05.08-.03.12l.76,1.2s.04.04.07.04.06-.01.07-.04l.76-1.2s.01-.03.01-.05c0-.03-.01-.06-.04-.07Z"/>
          <path class="cls-2" d="M163.52,108.23s-.09.01-.12-.03l-.69-1.09-.69,1.09s-.08.05-.12.03c-.04-.03-.05-.08-.03-.12l.76-1.2s.04-.04.07-.04.06.01.07.04l.76,1.2s.01.03.01.05c0,.03-.01.06-.04.07Z"/>
        </g>
        <g>
          <line class="cls-5" x1="162.71" y1="104.87" x2="162.71" y2="88.03"/>
          <path class="cls-2" d="M163.52,103.72s-.09-.01-.12.03l-.69,1.09-.69-1.09s-.08-.05-.12-.03c-.04.03-.05.08-.03.12l.76,1.2s.04.04.07.04.06-.01.07-.04l.76-1.2s.01-.03.01-.05c0-.03-.01-.06-.04-.07Z"/>
          <path class="cls-2" d="M163.52,89.18s-.09.01-.12-.03l-.69-1.09-.69,1.09s-.08.05-.12.03c-.04-.03-.05-.08-.03-.12l.76-1.2s.04-.04.07-.04.06.01.07.04l.76,1.2s.01.03.01.05c0,.03-.01.06-.04.07Z"/>
        </g>
        <g>
          <line class="cls-5" x1="162.71" y1="85.82" x2="162.71" y2="24.77"/>
          <path class="cls-2" d="M163.52,84.67s-.09-.01-.12.03l-.69,1.09-.69-1.09s-.08-.05-.12-.03c-.04.03-.05.08-.03.12l.76,1.2s.04.04.07.04.06-.01.07-.04l.76-1.2s.01-.03.01-.05c0-.03-.01-.06-.04-.07Z"/>
          <path class="cls-2" d="M163.52,25.92s-.09.01-.12-.03l-.69-1.09-.69,1.09s-.08.05-.12.03c-.04-.03-.05-.08-.03-.12l.76-1.2s.04-.04.07-.04.06.01.07.04l.76,1.2s.01.03.01.05c0,.03-.01.06-.04.07Z"/>
        </g>
      </g>
      <g>
        <path class="cls-2" d="M130.45,113.31v3.03h-.26l-1.1-1.66c-.41-.62-.65-.89-1.07-.89-.49,0-.8.43-.8,1.07s.28,1.11.83,1.23l-.06.32c-.66-.16-1.05-.74-1.05-1.55s.42-1.4,1.08-1.4c.49,0,.82.32,1.28,1.04l.87,1.33v-2.51h.28Z"/>
        <path class="cls-2" d="M129.6,110.62v2.55h-.27l-2.36-2.48v-.39h2.34v-.61h.29v.61h.85v.32h-.85ZM129.31,110.62h-2.02l2.02,2.13v-2.13Z"/>
        <path class="cls-2" d="M128.7,109.3c-1.03,0-1.76-.73-1.76-1.75s.73-1.75,1.76-1.75,1.78.73,1.78,1.75-.74,1.75-1.78,1.75ZM130.2,107.55c0-.83-.62-1.43-1.5-1.43s-1.48.6-1.48,1.43.62,1.43,1.48,1.43,1.5-.6,1.5-1.43Z"/>
        <path class="cls-2" d="M128.7,105.25c-1.03,0-1.76-.73-1.76-1.75s.73-1.75,1.76-1.75,1.78.73,1.78,1.75-.74,1.75-1.78,1.75ZM130.2,103.5c0-.83-.62-1.43-1.5-1.43s-1.48.6-1.48,1.43.62,1.43,1.48,1.43,1.5-.6,1.5-1.43Z"/>
      </g>
      <g>
        <path class="cls-2" d="M160.77,167.48l-.07-.29c.54-.19.71-.65.71-1.23,0-.65-.27-1.08-.69-1.08-.36,0-.61.27-.61.93v.62h-.26v-.6c0-.54-.2-.86-.55-.86s-.62.38-.62.99.22,1.01.68,1.16l-.05.28c-.58-.19-.87-.71-.87-1.45,0-.79.38-1.27.87-1.27.32,0,.55.21.67.58.11-.46.38-.68.75-.68.54,0,.94.54.94,1.38,0,.79-.27,1.3-.89,1.52Z"/>
        <path class="cls-2" d="M160.59,164.13c-.39,0-.68-.21-1.09-.65l-1.03-1.1v-.37l1.19,1.3c-.1-.24-.14-.49-.14-.74,0-.82.41-1.41,1.05-1.41s1.08.6,1.08,1.49-.42,1.47-1.07,1.47ZM161.41,162.65c0-.73-.34-1.2-.83-1.2s-.81.47-.81,1.17c0,.35.06.63.19.84.14.23.37.38.64.38.49,0,.82-.48.82-1.19Z"/>
        <path class="cls-2" d="M160.04,160.73c-.94,0-1.6-.66-1.6-1.59s.66-1.6,1.6-1.6,1.62.66,1.62,1.6-.67,1.59-1.62,1.59ZM161.41,159.14c0-.76-.57-1.3-1.36-1.3s-1.35.55-1.35,1.3.56,1.3,1.35,1.3,1.36-.54,1.36-1.3Z"/>
      </g>
      <g>
        <path class="cls-2" d="M161.67,139.75v2.76h-.24l-1-1.51c-.38-.57-.59-.81-.97-.81-.45,0-.73.39-.73.97s.26,1.01.76,1.12l-.05.29c-.6-.15-.96-.68-.96-1.41s.38-1.27.98-1.27c.45,0,.74.29,1.16.95l.79,1.21v-2.29h.25Z"/>
        <path class="cls-2" d="M158.76,137.14v2.4h-.26v-2.74h.22l2.94,1.93v.33l-2.9-1.92Z"/>
        <path class="cls-2" d="M160.07,136.54c-.94,0-1.6-.66-1.6-1.59s.66-1.6,1.6-1.6,1.62.66,1.62,1.6-.67,1.59-1.62,1.59ZM161.44,134.95c0-.76-.57-1.3-1.36-1.3s-1.35.55-1.35,1.3.56,1.3,1.35,1.3,1.36-.54,1.36-1.3Z"/>
      </g>
      <g>
        <path class="cls-2" d="M161.64,118.47v2.76h-.24l-1-1.51c-.38-.57-.59-.81-.97-.81-.45,0-.73.39-.73.97s.26,1.01.76,1.12l-.05.29c-.6-.15-.96-.68-.96-1.41s.38-1.27.98-1.27c.45,0,.74.29,1.16.95l.79,1.21v-2.29h.25Z"/>
        <path class="cls-2" d="M160.81,118.18l-.08-.29c.51-.19.68-.64.68-1.19,0-.7-.35-1.14-.81-1.14-.51,0-.82.43-.82,1.13,0,.52.14.87.36,1.1l-.05.23-1.63-.36v-2.23h.25v2.02l1.08.24c-.19-.27-.27-.67-.27-1.02,0-.86.42-1.4,1.08-1.4.62,0,1.06.58,1.06,1.43,0,.74-.27,1.27-.85,1.48Z"/>
        <path class="cls-2" d="M160.04,114.83c-.94,0-1.6-.66-1.6-1.59s.66-1.6,1.6-1.6,1.62.66,1.62,1.6-.67,1.59-1.62,1.59ZM161.41,113.24c0-.76-.57-1.3-1.36-1.3s-1.35.55-1.35,1.3.56,1.3,1.35,1.3,1.36-.54,1.36-1.3Z"/>
      </g>
      <g>
        <path class="cls-2" d="M161.59,98.76v2.76h-.24l-1-1.51c-.38-.57-.59-.81-.97-.81-.45,0-.73.39-.73.97s.26,1.01.76,1.12l-.05.29c-.6-.15-.96-.68-.96-1.41s.38-1.27.98-1.27c.45,0,.74.29,1.16.95l.79,1.21v-2.29h.25Z"/>
        <path class="cls-2" d="M160.73,98.47l-.07-.29c.54-.19.71-.65.71-1.23,0-.65-.27-1.08-.69-1.08-.36,0-.61.27-.61.93v.62h-.26v-.6c0-.54-.2-.86-.55-.86s-.62.38-.62.99.22,1.01.68,1.16l-.05.28c-.58-.19-.87-.71-.87-1.45,0-.79.38-1.27.87-1.27.32,0,.55.21.67.58.11-.46.38-.68.75-.68.54,0,.94.54.94,1.38,0,.79-.27,1.3-.89,1.52Z"/>
        <path class="cls-2" d="M160,94.96c-.94,0-1.6-.66-1.6-1.59s.66-1.59,1.6-1.59,1.62.66,1.62,1.59-.67,1.59-1.62,1.59ZM161.36,93.37c0-.76-.57-1.3-1.36-1.3s-1.35.55-1.35,1.3.56,1.3,1.35,1.3,1.36-.54,1.36-1.3Z"/>
      </g>
      <g>
        <path class="cls-2" d="M160.7,61.26c-.41,0-.7-.39-.79-.89-.09.38-.34.67-.7.67-.47,0-.81-.49-.81-1.31s.34-1.31.81-1.31c.36,0,.61.29.7.67.08-.5.38-.89.79-.89.54,0,.92.54.92,1.53s-.38,1.53-.92,1.53ZM159.8,59.73c0-.57-.22-1.02-.58-1.02-.34,0-.57.37-.57,1.02s.23,1.02.57,1.02c.37,0,.58-.46.58-1.02ZM161.37,59.73c0-.81-.28-1.23-.67-1.23-.43,0-.65.54-.65,1.23s.22,1.23.65,1.23c.39,0,.67-.42.67-1.23Z"/>
        <path class="cls-2" d="M160.82,55.55v2.32h-.25l-2.14-2.26v-.35h2.13v-.56h.26v.56h.77v.29h-.77ZM160.56,55.55h-1.84l1.84,1.94v-1.94Z"/>
        <path class="cls-2" d="M160.77,54.47l-.08-.29c.51-.19.68-.64.68-1.19,0-.7-.35-1.14-.81-1.14-.51,0-.82.43-.82,1.13,0,.52.14.87.36,1.1l-.05.23-1.63-.36v-2.23h.25v2.02l1.08.24c-.19-.27-.27-.67-.27-1.02,0-.86.42-1.4,1.08-1.4.62,0,1.06.58,1.06,1.43,0,.74-.27,1.27-.85,1.48Z"/>
      </g>
    </g>
    <g id="_ст-2100" data-name="ст-2100">
      <g id="_ст_2100" data-name="ст_2100">
        <rect class="cls-1" x="203.93" y="44.34" width="1.15" height="150.95"/>
        <rect class="cls-1" x="245.91" y="44.34" width="1.15" height="150.95"/>
        <rect class="cls-1" x="203.93" y="192.41" width="43.13" height="2.88"/>
        <rect class="cls-1" x="203.93" y="175.88" width="43.13" height="1.8"/>
        <rect class="cls-1" x="203.93" y="147.49" width="43.13" height="1.8"/>
        <rect class="cls-1" x="203.93" y="105.08" width="43.13" height="1.8"/>
        <rect class="cls-1" x="203.93" y="44.34" width="43.13" height="1.8"/>
        <rect class="cls-1" x="203.93" y="125.56" width="43.13" height="1.8"/>
        <rect class="cls-1" x="203.93" y="86.03" width="43.13" height="1.8"/>
        <rect class="cls-3" x="203.93" y="177.68" width="21.56" height="14.74"/>
        <rect class="cls-3" x="225.5" y="177.68" width="21.56" height="14.74"/>
        <line class="cls-6" x1="225.5" y1="177.68" x2="225.5" y2="192.41"/>
      </g>
      <g>
        <g>
          <line class="cls-5" x1="225.5" y1="175.68" x2="225.5" y2="149.49"/>
          <path class="cls-2" d="M226.31,174.52s-.09-.01-.12.03l-.69,1.09-.69-1.09s-.08-.05-.12-.03c-.04.03-.05.08-.03.12l.76,1.2s.04.04.07.04.06-.01.07-.04l.76-1.2s.01-.03.01-.05c0-.03-.01-.06-.04-.07Z"/>
          <path class="cls-2" d="M226.31,150.64s-.09.01-.12-.03l-.69-1.09-.69,1.09s-.08.05-.12.03c-.04-.03-.05-.08-.03-.12l.76-1.2s.04-.04.07-.04.06.01.07.04l.76,1.2s.01.03.01.05c0,.03-.01.06-.04.07Z"/>
        </g>
        <g>
          <line class="cls-5" x1="225.5" y1="147.28" x2="225.5" y2="127.49"/>
          <path class="cls-2" d="M226.31,146.13s-.09-.01-.12.03l-.69,1.09-.69-1.09s-.08-.05-.12-.03c-.04.03-.05.08-.03.12l.76,1.2s.04.04.07.04.06-.01.07-.04l.76-1.2s.01-.03.01-.05c0-.03-.01-.06-.04-.07Z"/>
          <path class="cls-2" d="M226.31,128.64s-.09.01-.12-.03l-.69-1.09-.69,1.09s-.08.05-.12.03c-.04-.03-.05-.08-.03-.12l.76-1.2s.04-.04.07-.04.06.01.07.04l.76,1.2s.01.03.01.05c0,.03-.01.06-.04.07Z"/>
        </g>
        <g>
          <line class="cls-5" x1="225.5" y1="125.36" x2="225.5" y2="107.08"/>
          <path class="cls-2" d="M226.31,124.21s-.09-.01-.12.03l-.69,1.09-.69-1.09s-.08-.05-.12-.03c-.04.03-.05.08-.03.12l.76,1.2s.04.04.07.04.06-.01.07-.04l.76-1.2s.01-.03.01-.05c0-.03-.01-.06-.04-.07Z"/>
          <path class="cls-2" d="M226.31,108.23s-.09.01-.12-.03l-.69-1.09-.69,1.09s-.08.05-.12.03c-.04-.03-.05-.08-.03-.12l.76-1.2s.04-.04.07-.04.06.01.07.04l.76,1.2s.01.03.01.05c0,.03-.01.06-.04.07Z"/>
        </g>
        <g>
          <line class="cls-5" x1="225.5" y1="104.87" x2="225.5" y2="88.03"/>
          <path class="cls-2" d="M226.31,103.72s-.09-.01-.12.03l-.69,1.09-.69-1.09s-.08-.05-.12-.03c-.04.03-.05.08-.03.12l.76,1.2s.04.04.07.04.06-.01.07-.04l.76-1.2s.01-.03.01-.05c0-.03-.01-.06-.04-.07Z"/>
          <path class="cls-2" d="M226.31,89.18s-.09.01-.12-.03l-.69-1.09-.69,1.09s-.08.05-.12.03c-.04-.03-.05-.08-.03-.12l.76-1.2s.04-.04.07-.04.06.01.07.04l.76,1.2s.01.03.01.05c0,.03-.01.06-.04.07Z"/>
        </g>
        <g>
          <line class="cls-5" x1="225.5" y1="85.82" x2="225.5" y2="46.34"/>
          <path class="cls-2" d="M226.31,84.67s-.09-.01-.12.03l-.69,1.09-.69-1.09s-.08-.05-.12-.03c-.04.03-.05.08-.03.12l.76,1.2s.04.04.07.04.06-.01.07-.04l.76-1.2s.01-.03.01-.05c0-.03-.01-.06-.04-.07Z"/>
          <path class="cls-2" d="M226.31,47.49s-.09.01-.12-.03l-.69-1.09-.69,1.09s-.08.05-.12.03c-.04-.03-.05-.08-.03-.12l.76-1.2s.04-.04.07-.04.06.01.07.04l.76,1.2s.01.03.01.05c0,.03-.01.06-.04.07Z"/>
        </g>
      </g>
      <g>
        <line class="cls-5" x1="203.93" y1="195.21" x2="196.67" y2="195.21"/>
        <line class="cls-5" x1="203.93" y1="44.41" x2="196.67" y2="44.41"/>
        <g>
          <line class="cls-5" x1="196.67" y1="194.46" x2="196.67" y2="45.13"/>
          <path class="cls-2" d="M197.48,193.3s-.09-.01-.12.03l-.69,1.09-.69-1.09s-.08-.05-.12-.03c-.04.03-.05.08-.03.12l.76,1.2s.04.04.07.04.06-.01.07-.04l.76-1.2s.01-.03.01-.05c0-.03-.01-.06-.04-.07Z"/>
          <path class="cls-2" d="M197.48,46.28s-.09.01-.12-.03l-.69-1.09-.69,1.09s-.08.05-.12.03c-.04-.03-.05-.08-.03-.12l.76-1.2s.04-.04.07-.04.06.01.07.04l.76,1.2s.01.03.01.05c0,.03-.01.06-.04.07Z"/>
        </g>
      </g>
      <g>
        <path class="cls-2" d="M223.66,167.33l-.07-.29c.54-.19.71-.65.71-1.23,0-.65-.27-1.08-.69-1.08-.36,0-.61.27-.61.93v.62h-.26v-.6c0-.54-.2-.86-.55-.86s-.62.38-.62.99.22,1.01.67,1.16l-.05.28c-.58-.19-.87-.71-.87-1.45,0-.79.38-1.27.87-1.27.32,0,.55.21.67.58.11-.46.38-.68.75-.68.54,0,.94.54.94,1.38,0,.79-.27,1.3-.89,1.52Z"/>
        <path class="cls-2" d="M223.48,163.98c-.39,0-.68-.21-1.09-.65l-1.03-1.1v-.37l1.19,1.3c-.1-.24-.13-.49-.13-.74,0-.82.41-1.41,1.05-1.41s1.08.6,1.08,1.49-.42,1.47-1.07,1.47ZM224.3,162.5c0-.73-.34-1.2-.83-1.2s-.81.47-.81,1.17c0,.35.06.63.19.84.14.23.37.38.64.38.48,0,.82-.48.82-1.19Z"/>
        <path class="cls-2" d="M222.93,160.59c-.94,0-1.6-.66-1.6-1.59s.66-1.6,1.6-1.6,1.62.66,1.62,1.6-.67,1.59-1.62,1.59ZM224.3,158.99c0-.76-.57-1.3-1.36-1.3s-1.35.55-1.35,1.3.56,1.3,1.35,1.3,1.36-.54,1.36-1.3Z"/>
      </g>
      <g>
        <path class="cls-2" d="M224.55,139.6v2.76h-.24l-1-1.51c-.38-.57-.6-.81-.97-.81-.45,0-.73.39-.73.97s.26,1.01.76,1.12l-.05.29c-.6-.15-.96-.68-.96-1.41s.38-1.27.98-1.27c.45,0,.74.29,1.16.95l.79,1.21v-2.29h.25Z"/>
        <path class="cls-2" d="M221.65,136.99v2.4h-.26v-2.74h.22l2.94,1.93v.33l-2.9-1.92Z"/>
        <path class="cls-2" d="M222.96,136.39c-.94,0-1.6-.66-1.6-1.59s.66-1.6,1.6-1.6,1.62.66,1.62,1.6-.67,1.59-1.62,1.59ZM224.33,134.8c0-.76-.57-1.3-1.36-1.3s-1.35.55-1.35,1.3.56,1.3,1.35,1.3,1.36-.54,1.36-1.3Z"/>
      </g>
      <g>
        <path class="cls-2" d="M224.52,118.32v2.76h-.24l-1-1.51c-.38-.57-.6-.81-.97-.81-.45,0-.73.39-.73.97s.26,1.01.76,1.12l-.05.29c-.6-.15-.96-.68-.96-1.41s.38-1.27.98-1.27c.45,0,.74.29,1.16.95l.79,1.21v-2.29h.25Z"/>
        <path class="cls-2" d="M223.7,118.03l-.08-.29c.51-.19.67-.64.67-1.19,0-.7-.35-1.14-.81-1.14-.51,0-.82.43-.82,1.13,0,.52.14.87.36,1.1l-.05.23-1.63-.36v-2.23h.25v2.02l1.08.24c-.19-.27-.27-.67-.27-1.02,0-.86.42-1.4,1.08-1.4.62,0,1.06.58,1.06,1.43,0,.74-.27,1.27-.85,1.48Z"/>
        <path class="cls-2" d="M222.93,114.68c-.94,0-1.6-.66-1.6-1.59s.66-1.6,1.6-1.6,1.62.66,1.62,1.6-.67,1.59-1.62,1.59ZM224.3,113.09c0-.76-.57-1.3-1.36-1.3s-1.35.55-1.35,1.3.56,1.3,1.35,1.3,1.36-.54,1.36-1.3Z"/>
      </g>
      <g>
        <path class="cls-2" d="M224.48,98.61v2.76h-.24l-1-1.51c-.38-.57-.6-.81-.97-.81-.45,0-.73.39-.73.97s.26,1.01.76,1.12l-.05.29c-.6-.15-.96-.68-.96-1.41s.38-1.27.98-1.27c.45,0,.74.29,1.16.95l.79,1.21v-2.29h.25Z"/>
        <path class="cls-2" d="M223.61,98.32l-.07-.29c.54-.19.71-.65.71-1.23,0-.65-.27-1.08-.69-1.08-.36,0-.61.27-.61.93v.62h-.26v-.6c0-.54-.2-.86-.55-.86s-.62.38-.62.99.22,1.01.67,1.16l-.05.28c-.58-.19-.87-.71-.87-1.45,0-.79.38-1.27.87-1.27.32,0,.55.21.67.58.11-.46.38-.68.75-.68.54,0,.94.54.94,1.38,0,.79-.27,1.3-.89,1.52Z"/>
        <path class="cls-2" d="M222.89,94.81c-.94,0-1.6-.66-1.6-1.59s.66-1.59,1.6-1.59,1.62.66,1.62,1.59-.67,1.59-1.62,1.59ZM224.25,93.22c0-.76-.57-1.3-1.36-1.3s-1.35.55-1.35,1.3.56,1.3,1.35,1.3,1.36-.54,1.36-1.3Z"/>
      </g>
      <g>
        <path class="cls-2" d="M223.76,71.63l-.08-.29c.51-.19.67-.64.67-1.19,0-.7-.35-1.14-.81-1.14-.51,0-.82.43-.82,1.13,0,.52.14.87.36,1.1l-.05.23-1.63-.36v-2.23h.25v2.02l1.08.24c-.19-.27-.27-.67-.27-1.02,0-.86.42-1.4,1.08-1.4.62,0,1.06.58,1.06,1.43,0,.74-.27,1.27-.85,1.48Z"/>
        <path class="cls-2" d="M223.81,66.06v2.32h-.25l-2.14-2.26v-.35h2.13v-.56h.26v.56h.77v.29h-.77ZM223.55,66.06h-1.84l1.84,1.94v-1.94Z"/>
        <path class="cls-2" d="M223.76,64.98l-.08-.29c.51-.19.67-.64.67-1.19,0-.7-.35-1.14-.81-1.14-.51,0-.82.43-.82,1.13,0,.52.14.87.36,1.1l-.05.23-1.63-.36v-2.23h.25v2.02l1.08.24c-.19-.27-.27-.67-.27-1.02,0-.86.42-1.4,1.08-1.4.62,0,1.06.58,1.06,1.43,0,.74-.27,1.27-.85,1.48Z"/>
      </g>
      <g>
        <path class="cls-2" d="M194.5,123.34v3.03h-.26l-1.1-1.66c-.41-.62-.65-.89-1.07-.89-.49,0-.8.43-.8,1.07s.28,1.11.83,1.23l-.06.32c-.66-.16-1.05-.74-1.05-1.55s.42-1.4,1.08-1.4c.49,0,.82.32,1.28,1.04l.87,1.33v-2.51h.28Z"/>
        <path class="cls-2" d="M191.82,122.06v.92h-.24c0-.67-.15-.91-.56-1.01v-.23h3.48v.32h-2.68Z"/>
        <path class="cls-2" d="M192.75,120.84c-1.03,0-1.76-.73-1.76-1.75s.73-1.75,1.76-1.75,1.78.73,1.78,1.75-.74,1.75-1.78,1.75ZM194.25,119.09c0-.83-.62-1.43-1.5-1.43s-1.48.6-1.48,1.43.62,1.43,1.48,1.43,1.5-.6,1.5-1.43Z"/>
        <path class="cls-2" d="M192.75,116.79c-1.03,0-1.76-.73-1.76-1.75s.73-1.75,1.76-1.75,1.78.73,1.78,1.75-.74,1.75-1.78,1.75ZM194.25,115.04c0-.83-.62-1.43-1.5-1.43s-1.48.6-1.48,1.43.62,1.43,1.48,1.43,1.5-.6,1.5-1.43Z"/>
      </g>
    </g>
    <g>
      <line class="cls-5" x1="142.29" y1="22.77" x2="142.29" y2="17.48"/>
      <line class="cls-5" x1="183.12" y1="22.77" x2="183.12" y2="17.48"/>
      <g>
        <line class="cls-5" x1="142.64" y1="17.48" x2="182.78" y2="17.48"/>
        <path class="cls-2" d="M143.8,18.29s.01-.09-.03-.12l-1.09-.69,1.09-.69s.05-.08.03-.12-.08-.05-.12-.03l-1.2.76s-.04.04-.04.07.01.06.04.07l1.2.76s.03.01.05.01c.03,0,.06-.01.07-.04Z"/>
        <path class="cls-2" d="M181.62,18.29s-.01-.09.03-.12l1.09-.69-1.09-.69s-.05-.08-.03-.12.08-.05.12-.03l1.2.76s.04.04.04.07-.01.06-.04.07l-1.2.76s-.03.01-.05.01c-.03,0-.06-.01-.07-.04Z"/>
      </g>
    </g>
    <g>
      <path class="cls-2" d="M156.67,15.32l.32-.08c.21.57.7.74,1.31.74.77,0,1.26-.38,1.26-.89,0-.57-.48-.9-1.24-.9-.58,0-.96.15-1.21.4l-.26-.05.4-1.79h2.45v.28h-2.22l-.27,1.18c.3-.21.73-.3,1.12-.3.95,0,1.54.46,1.54,1.18,0,.68-.64,1.16-1.58,1.16-.82,0-1.39-.29-1.63-.94Z"/>
      <path class="cls-2" d="M160.26,15.08c0-.43.23-.75.71-1.2l1.21-1.14h.41l-1.43,1.31c.26-.11.54-.15.82-.15.9,0,1.55.45,1.55,1.16s-.66,1.19-1.64,1.19-1.62-.46-1.62-1.18ZM161.88,15.98c.81,0,1.32-.37,1.32-.91s-.51-.89-1.28-.89c-.38,0-.69.07-.92.2-.25.16-.42.41-.42.7,0,.53.53.9,1.3.9Z"/>
      <path class="cls-2" d="M163.99,14.47c0-1.03.73-1.76,1.75-1.76s1.75.73,1.75,1.76-.73,1.78-1.75,1.78-1.75-.74-1.75-1.78ZM165.74,15.97c.83,0,1.43-.62,1.43-1.5s-.6-1.48-1.43-1.48-1.43.62-1.43,1.48.6,1.5,1.43,1.5Z"/>
    </g>
    <g>
      <line class="cls-5" x1="205.08" y1="44.37" x2="205.08" y2="39.08"/>
      <line class="cls-5" x1="245.91" y1="44.37" x2="245.91" y2="39.08"/>
      <g>
        <line class="cls-5" x1="205.43" y1="39.08" x2="245.57" y2="39.08"/>
        <path class="cls-2" d="M206.59,39.89s.01-.09-.03-.12l-1.09-.69,1.09-.69s.05-.08.03-.12c-.03-.04-.08-.05-.12-.03l-1.2.76s-.04.04-.04.07.01.06.04.07l1.2.76s.03.01.05.01c.03,0,.06-.01.07-.04Z"/>
        <path class="cls-2" d="M244.41,39.89s-.01-.09.03-.12l1.09-.69-1.09-.69s-.05-.08-.03-.12c.03-.04.08-.05.12-.03l1.2.76s.04.04.04.07-.01.06-.04.07l-1.2.76s-.03.01-.05.01c-.03,0-.06-.01-.07-.04Z"/>
      </g>
    </g>
    <g>
      <path class="cls-2" d="M219.46,36.92l.32-.08c.21.57.7.74,1.31.74.77,0,1.26-.38,1.26-.89,0-.57-.48-.9-1.24-.9-.58,0-.96.15-1.21.4l-.26-.05.4-1.79h2.45v.28h-2.22l-.27,1.18c.3-.21.73-.3,1.12-.3.95,0,1.54.46,1.54,1.18,0,.68-.64,1.16-1.58,1.16-.82,0-1.39-.29-1.63-.94Z"/>
      <path class="cls-2" d="M223.05,36.67c0-.43.23-.75.71-1.2l1.21-1.14h.41l-1.43,1.31c.26-.11.54-.15.82-.15.9,0,1.55.45,1.55,1.16s-.66,1.19-1.64,1.19-1.62-.46-1.62-1.18ZM224.67,37.57c.81,0,1.32-.37,1.32-.91s-.51-.89-1.28-.89c-.38,0-.69.07-.92.2-.26.16-.42.41-.42.7,0,.53.53.9,1.3.9Z"/>
      <path class="cls-2" d="M226.78,36.07c0-1.03.73-1.76,1.75-1.76s1.75.73,1.75,1.76-.73,1.78-1.75,1.78-1.75-.74-1.75-1.78ZM228.53,37.57c.83,0,1.43-.62,1.43-1.5s-.6-1.48-1.43-1.48-1.43.62-1.43,1.48.6,1.5,1.43,1.5Z"/>
    </g>
  </g>
</svg>