<?xml version="1.0" encoding="UTF-8"?>
<svg id="_Слой_1" data-name="Слой 1" xmlns="http://www.w3.org/2000/svg" viewBox="0 0 572.81 900.81">
  <defs>
    <style>
      .cls-1 {
        stroke: #000;
        stroke-width: .64px;
      }

      .cls-1, .cls-2, .cls-3 {
        stroke-miterlimit: 10;
      }

      .cls-1, .cls-3 {
        fill: none;
      }

      .cls-4 {
        fill: #1d1d1b;
      }

      .cls-4, .cls-5, .cls-6 {
        stroke-width: 0px;
      }

      .cls-5 {
        fill: #000;
      }

      .cls-2 {
        fill: transparent;
        stroke-width: 0;
      }

      .cls-2, .cls-3 {
        stroke: #1d1d1b;
      }

      .cls-6 {
        fill: #c6c6c5;
      }

      .cls-3 {
        stroke-width: .05px;
      }
    </style>
  </defs>
  <rect class="cls-2" x=".4" y=".4" width="572" height="900"/>
  <g>
    <g id="_ст-2400" data-name="ст-2400">
      <g id="_ст_2400" data-name="ст_2400">
        <rect class="cls-4" x="105.2" y="139.53" width="4.39" height="657.92"/>
        <rect class="cls-4" x="265.3" y="139.53" width="4.39" height="657.92"/>
        <rect class="cls-4" x="105.2" y="786.48" width="164.48" height="10.97"/>
        <rect class="cls-4" x="105.2" y="723.43" width="164.48" height="6.85"/>
        <rect class="cls-4" x="105.2" y="615.15" width="164.48" height="6.85"/>
        <rect class="cls-4" x="105.2" y="453.41" width="164.48" height="6.85"/>
        <rect class="cls-4" x="105.2" y="139.53" width="164.48" height="6.85"/>
        <rect class="cls-4" x="105.2" y="531.54" width="164.48" height="6.85"/>
        <rect class="cls-4" x="105.2" y="380.77" width="164.48" height="6.85"/>
        <rect class="cls-6" x="105.2" y="730.28" width="82.24" height="56.2"/>
        <rect class="cls-6" x="187.44" y="730.28" width="82.24" height="56.2"/>
        <line class="cls-3" x1="187.44" y1="730.28" x2="187.44" y2="786.48"/>
      </g>
      <g>
        <line class="cls-1" x1="105.19" y1="797.12" x2="73.55" y2="797.12"/>
        <line class="cls-1" x1="105.19" y1="139.86" x2="73.55" y2="139.86"/>
        <g>
          <line class="cls-1" x1="73.55" y1="793.93" x2="73.55" y2="142.89"/>
          <path class="cls-5" d="M76.64,789.53c-.15-.1-.35-.05-.44.1l-2.64,4.15-2.64-4.15c-.1-.15-.29-.19-.44-.1-.15.1-.19.3-.1.44l2.92,4.58c.06.09.16.15.27.15s.21-.06.27-.15l2.92-4.58c.03-.05.05-.11.05-.17,0-.11-.05-.21-.15-.27Z"/>
          <path class="cls-5" d="M76.64,147.29c-.15.1-.35.05-.44-.1l-2.64-4.15-2.64,4.15c-.1.15-.29.19-.44.1-.15-.1-.19-.3-.1-.44l2.92-4.58c.06-.09.16-.15.27-.15s.21.06.27.15l2.92,4.58c.03.05.05.11.05.17,0,.11-.05.21-.15.27Z"/>
        </g>
      </g>
      <g>
        <g>
          <line class="cls-1" x1="187.44" y1="722.66" x2="187.44" y2="622.78"/>
          <path class="cls-5" d="M190.53,718.26c-.15-.1-.35-.05-.44.1l-2.64,4.15-2.64-4.15c-.1-.15-.29-.19-.44-.1-.15.1-.19.3-.1.44l2.92,4.58c.06.09.16.15.27.15s.21-.06.27-.15l2.92-4.58c.03-.05.05-.11.05-.17,0-.11-.05-.21-.15-.27Z"/>
          <path class="cls-5" d="M190.53,627.17c-.15.1-.35.05-.44-.1l-2.64-4.15-2.64,4.15c-.1.15-.29.19-.44.1-.15-.1-.19-.3-.1-.44l2.92-4.58c.06-.09.16-.15.27-.15s.21.06.27.15l2.92,4.58c.03.05.05.11.05.17,0,.11-.05.21-.15.27Z"/>
        </g>
        <g>
          <line class="cls-1" x1="187.44" y1="614.38" x2="187.44" y2="538.89"/>
          <path class="cls-5" d="M190.53,609.98c-.15-.1-.35-.05-.44.1l-2.64,4.15-2.64-4.15c-.1-.15-.29-.19-.44-.1-.15.1-.19.3-.1.44l2.92,4.58c.06.09.16.15.27.15s.21-.06.27-.15l2.92-4.58c.03-.05.05-.11.05-.17,0-.11-.05-.21-.15-.27Z"/>
          <path class="cls-5" d="M190.53,543.29c-.15.1-.35.05-.44-.1l-2.64-4.15-2.64,4.15c-.1.15-.29.19-.44.1-.15-.1-.19-.3-.1-.44l2.92-4.58c.06-.09.16-.15.27-.15s.21.06.27.15l2.92,4.58c.03.05.05.11.05.17,0,.11-.05.21-.15.27Z"/>
        </g>
        <g>
          <line class="cls-1" x1="187.44" y1="530.77" x2="187.44" y2="461.04"/>
          <path class="cls-5" d="M190.53,526.37c-.15-.1-.35-.05-.44.1l-2.64,4.15-2.64-4.15c-.1-.15-.29-.19-.44-.1-.15.1-.19.3-.1.44l2.92,4.58c.06.09.16.15.27.15s.21-.06.27-.15l2.92-4.58c.03-.05.05-.11.05-.17,0-.11-.05-.21-.15-.27Z"/>
          <path class="cls-5" d="M190.53,465.44c-.15.1-.35.05-.44-.1l-2.64-4.15-2.64,4.15c-.1.15-.29.19-.44.1-.15-.1-.19-.3-.1-.44l2.92-4.58c.06-.09.16-.15.27-.15s.21.06.27.15l2.92,4.58c.03.05.05.11.05.17,0,.11-.05.21-.15.27Z"/>
        </g>
        <g>
          <line class="cls-1" x1="187.44" y1="452.64" x2="187.44" y2="388.39"/>
          <path class="cls-5" d="M190.53,448.24c-.15-.1-.35-.05-.44.1l-2.64,4.15-2.64-4.15c-.1-.15-.29-.19-.44-.1-.15.1-.19.3-.1.44l2.92,4.58c.06.09.16.15.27.15s.21-.06.27-.15l2.92-4.58c.03-.05.05-.11.05-.17,0-.11-.05-.21-.15-.27Z"/>
          <path class="cls-5" d="M190.53,392.79c-.15.1-.35.05-.44-.1l-2.64-4.15-2.64,4.15c-.1.15-.29.19-.44.1-.15-.1-.19-.3-.1-.44l2.92-4.58c.06-.09.16-.15.27-.15s.21.06.27.15l2.92,4.58c.03.05.05.11.05.17,0,.11-.05.21-.15.27Z"/>
        </g>
        <g>
          <line class="cls-1" x1="187.44" y1="379.99" x2="187.44" y2="147.16"/>
          <path class="cls-5" d="M190.53,375.6c-.15-.1-.35-.05-.44.1l-2.64,4.15-2.64-4.15c-.1-.15-.29-.19-.44-.1-.15.1-.19.3-.1.44l2.92,4.58c.06.09.16.15.27.15s.21-.06.27-.15l2.92-4.58c.03-.05.05-.11.05-.17,0-.11-.05-.21-.15-.27Z"/>
          <path class="cls-5" d="M190.53,151.55c-.15.1-.35.05-.44-.1l-2.64-4.15-2.64,4.15c-.1.15-.29.19-.44.1-.15-.1-.19-.3-.1-.44l2.92-4.58c.06-.09.16-.15.27-.15s.21.06.27.15l2.92,4.58c.03.05.05.11.05.17,0,.11-.05.21-.15.27Z"/>
        </g>
      </g>
      <g>
        <path class="cls-5" d="M64.43,484.81v11.55h-.99l-4.19-6.35c-1.57-2.37-2.49-3.4-4.07-3.4-1.88,0-3.06,1.63-3.06,4.08s1.08,4.24,3.17,4.7l-.23,1.2c-2.51-.62-4.01-2.83-4.01-5.91s1.61-5.32,4.12-5.32c1.88,0,3.11,1.22,4.88,3.96l3.32,5.06v-9.58h1.06Z"/>
        <path class="cls-5" d="M61.2,474.55v9.73h-1.04l-8.98-9.46v-1.49h8.93v-2.33h1.1v2.33h3.24v1.22h-3.24ZM60.1,474.55h-7.69l7.69,8.13v-8.13Z"/>
        <path class="cls-5" d="M57.77,469.52c-3.94,0-6.72-2.78-6.72-6.67s2.78-6.68,6.72-6.68,6.79,2.78,6.79,6.68-2.81,6.67-6.79,6.67ZM63.48,462.86c0-3.17-2.37-5.46-5.71-5.46s-5.64,2.3-5.64,5.46,2.35,5.45,5.64,5.45,5.71-2.28,5.71-5.45Z"/>
        <path class="cls-5" d="M57.77,454.08c-3.94,0-6.72-2.78-6.72-6.67s2.78-6.68,6.72-6.68,6.79,2.78,6.79,6.68-2.81,6.67-6.79,6.67ZM63.48,447.41c0-3.17-2.37-5.46-5.71-5.46s-5.64,2.3-5.64,5.46,2.35,5.45,5.64,5.45,5.71-2.28,5.71-5.45Z"/>
      </g>
      <g>
        <path class="cls-5" d="M180.07,691.39l-.27-1.09c2.06-.72,2.72-2.46,2.72-4.7,0-2.48-1.01-4.13-2.62-4.13-1.38,0-2.32,1.03-2.32,3.54v2.35h-.98v-2.3c0-2.06-.77-3.26-2.09-3.26s-2.35,1.46-2.35,3.78.82,3.86,2.57,4.42l-.21,1.08c-2.22-.74-3.33-2.7-3.33-5.52,0-3.02,1.43-4.86,3.31-4.86,1.22,0,2.11.8,2.54,2.22.4-1.74,1.45-2.57,2.86-2.57,2.07,0,3.57,2.06,3.57,5.26,0,3.01-1.03,4.97-3.41,5.79Z"/>
        <path class="cls-5" d="M179.39,678.6c-1.5,0-2.59-.8-4.15-2.46l-3.94-4.18v-1.42l4.54,4.95c-.39-.92-.51-1.87-.51-2.83,0-3.12,1.58-5.37,4.02-5.37s4.13,2.3,4.13,5.69-1.61,5.61-4.09,5.61ZM182.51,672.99c0-2.8-1.29-4.58-3.17-4.58s-3.09,1.79-3.09,4.46c0,1.33.23,2.4.71,3.2.55.88,1.42,1.45,2.43,1.45,1.85,0,3.12-1.83,3.12-4.52Z"/>
        <path class="cls-5" d="M177.3,665.67c-3.59,0-6.11-2.52-6.11-6.06s2.53-6.08,6.11-6.08,6.18,2.53,6.18,6.08-2.56,6.06-6.18,6.06ZM182.49,659.61c0-2.88-2.15-4.97-5.19-4.97s-5.13,2.09-5.13,4.97,2.14,4.95,5.13,4.95,5.19-2.07,5.19-4.95Z"/>
      </g>
      <g>
        <path class="cls-5" d="M183.48,585.63v10.5h-.9l-3.81-5.77c-1.43-2.16-2.27-3.09-3.7-3.09-1.71,0-2.78,1.48-2.78,3.71s.98,3.86,2.88,4.28l-.21,1.09c-2.28-.56-3.65-2.57-3.65-5.37s1.46-4.84,3.75-4.84c1.7,0,2.83,1.11,4.44,3.6l3.02,4.6v-8.72h.96Z"/>
        <path class="cls-5" d="M172.41,575.71v9.13h-1v-10.45h.85l11.21,7.37v1.25l-11.06-7.3Z"/>
        <path class="cls-5" d="M177.41,573.41c-3.59,0-6.11-2.52-6.11-6.06s2.52-6.08,6.11-6.08,6.18,2.53,6.18,6.08-2.56,6.06-6.18,6.06ZM182.61,567.34c0-2.88-2.15-4.97-5.19-4.97s-5.13,2.09-5.13,4.97,2.14,4.95,5.13,4.95,5.19-2.07,5.19-4.95Z"/>
      </g>
      <g>
        <path class="cls-5" d="M183.36,504.51v10.5h-.9l-3.81-5.77c-1.43-2.16-2.27-3.09-3.7-3.09-1.71,0-2.78,1.48-2.78,3.71s.98,3.86,2.88,4.28l-.21,1.09c-2.28-.56-3.65-2.57-3.65-5.37s1.46-4.84,3.75-4.84c1.7,0,2.83,1.11,4.44,3.6l3.02,4.6v-8.72h.96Z"/>
        <path class="cls-5" d="M180.23,503.4l-.29-1.11c1.96-.72,2.57-2.44,2.57-4.54,0-2.65-1.33-4.36-3.07-4.36-1.96,0-3.14,1.66-3.14,4.29,0,1.99.53,3.33,1.38,4.18l-.18.88-6.21-1.38v-8.51h.96v7.7l4.1.93c-.72-1.04-1.03-2.54-1.03-3.89,0-3.3,1.59-5.32,4.1-5.32,2.35,0,4.04,2.22,4.04,5.47,0,2.83-1.01,4.83-3.25,5.65Z"/>
        <path class="cls-5" d="M177.3,490.62c-3.59,0-6.11-2.52-6.11-6.06s2.53-6.08,6.11-6.08,6.18,2.53,6.18,6.08-2.56,6.06-6.18,6.06ZM182.49,484.56c0-2.88-2.15-4.97-5.19-4.97s-5.13,2.09-5.13,4.97,2.14,4.95,5.13,4.95,5.19-2.07,5.19-4.95Z"/>
      </g>
      <g>
        <path class="cls-5" d="M183.19,429.34v10.5h-.9l-3.81-5.77c-1.43-2.16-2.27-3.09-3.7-3.09-1.71,0-2.78,1.48-2.78,3.71s.98,3.86,2.88,4.28l-.21,1.09c-2.28-.56-3.65-2.57-3.65-5.37s1.46-4.84,3.75-4.84c1.7,0,2.83,1.11,4.44,3.6l3.02,4.6v-8.72h.96Z"/>
        <path class="cls-5" d="M179.89,428.23l-.27-1.09c2.06-.72,2.72-2.46,2.72-4.7,0-2.48-1.01-4.13-2.62-4.13-1.38,0-2.32,1.03-2.32,3.54v2.35h-.98v-2.3c0-2.06-.77-3.26-2.09-3.26s-2.35,1.46-2.35,3.78.82,3.86,2.57,4.42l-.21,1.08c-2.22-.74-3.33-2.7-3.33-5.52,0-3.02,1.43-4.86,3.31-4.86,1.22,0,2.11.8,2.54,2.22.4-1.74,1.45-2.57,2.86-2.57,2.07,0,3.57,2.06,3.57,5.26,0,3.01-1.03,4.97-3.41,5.79Z"/>
        <path class="cls-5" d="M177.13,414.83c-3.59,0-6.11-2.52-6.11-6.06s2.53-6.08,6.11-6.08,6.18,2.52,6.18,6.08-2.56,6.06-6.18,6.06ZM182.32,408.77c0-2.88-2.15-4.97-5.19-4.97s-5.13,2.09-5.13,4.97,2.14,4.95,5.13,4.95,5.19-2.07,5.19-4.95Z"/>
      </g>
      <g>
        <path class="cls-5" d="M179.8,286.3c-1.58,0-2.69-1.48-3.01-3.39-.34,1.45-1.29,2.56-2.67,2.56-1.8,0-3.1-1.87-3.1-4.99s1.3-4.99,3.1-4.99c1.37,0,2.32,1.11,2.67,2.54.32-1.9,1.43-3.38,3.01-3.38,2.07,0,3.51,2.07,3.51,5.82s-1.43,5.82-3.51,5.82ZM176.37,280.48c0-2.15-.82-3.89-2.22-3.89-1.3,0-2.19,1.4-2.19,3.89s.88,3.89,2.19,3.89c1.4,0,2.22-1.75,2.22-3.89ZM182.34,280.48c0-3.09-1.06-4.7-2.56-4.7-1.62,0-2.46,2.07-2.46,4.7s.84,4.7,2.46,4.7c1.5,0,2.56-1.61,2.56-4.7Z"/>
        <path class="cls-5" d="M180.25,264.54v8.85h-.95l-8.17-8.6v-1.35h8.12v-2.12h1v2.12h2.94v1.11h-2.94ZM179.25,264.54h-7l7,7.4v-7.4Z"/>
        <path class="cls-5" d="M180.05,260.42l-.29-1.11c1.96-.72,2.57-2.44,2.57-4.54,0-2.65-1.33-4.36-3.07-4.36-1.96,0-3.14,1.66-3.14,4.29,0,1.99.53,3.33,1.38,4.18l-.18.88-6.21-1.38v-8.51h.96v7.7l4.1.93c-.72-1.05-1.03-2.54-1.03-3.89,0-3.3,1.59-5.32,4.1-5.32,2.35,0,4.04,2.22,4.04,5.47,0,2.83-1.01,4.82-3.25,5.65Z"/>
      </g>
    </g>
    <g id="_ст-2100" data-name="ст-2100">
      <g id="_ст_2100" data-name="ст_2100">
        <rect class="cls-4" x="344.66" y="221.77" width="4.39" height="575.68"/>
        <rect class="cls-4" x="504.76" y="221.77" width="4.39" height="575.68"/>
        <rect class="cls-4" x="344.66" y="786.48" width="164.48" height="10.97"/>
        <rect class="cls-4" x="344.66" y="723.43" width="164.48" height="6.85"/>
        <rect class="cls-4" x="344.66" y="615.15" width="164.48" height="6.85"/>
        <rect class="cls-4" x="344.66" y="453.41" width="164.48" height="6.85"/>
        <rect class="cls-4" x="344.66" y="221.77" width="164.48" height="6.85"/>
        <rect class="cls-4" x="344.66" y="531.54" width="164.48" height="6.85"/>
        <rect class="cls-4" x="344.66" y="380.77" width="164.48" height="6.85"/>
        <rect class="cls-6" x="344.66" y="730.28" width="82.24" height="56.2"/>
        <rect class="cls-6" x="426.9" y="730.28" width="82.24" height="56.2"/>
        <line class="cls-3" x1="426.9" y1="730.28" x2="426.9" y2="786.48"/>
      </g>
      <g>
        <g>
          <line class="cls-1" x1="426.9" y1="722.66" x2="426.9" y2="622.78"/>
          <path class="cls-5" d="M429.99,718.26c-.15-.1-.35-.05-.44.1l-2.64,4.15-2.64-4.15c-.1-.15-.29-.19-.44-.1-.15.1-.19.3-.1.44l2.92,4.58c.06.09.16.15.27.15s.21-.06.27-.15l2.92-4.58c.03-.05.05-.11.05-.17,0-.11-.05-.21-.15-.27Z"/>
          <path class="cls-5" d="M429.99,627.17c-.15.1-.35.05-.44-.1l-2.64-4.15-2.64,4.15c-.1.15-.29.19-.44.1-.15-.1-.19-.3-.1-.44l2.92-4.58c.06-.09.16-.15.27-.15s.21.06.27.15l2.92,4.58c.03.05.05.11.05.17,0,.11-.05.21-.15.27Z"/>
        </g>
        <g>
          <line class="cls-1" x1="426.9" y1="614.38" x2="426.9" y2="538.89"/>
          <path class="cls-5" d="M429.99,609.98c-.15-.1-.35-.05-.44.1l-2.64,4.15-2.64-4.15c-.1-.15-.29-.19-.44-.1-.15.1-.19.3-.1.44l2.92,4.58c.06.09.16.15.27.15s.21-.06.27-.15l2.92-4.58c.03-.05.05-.11.05-.17,0-.11-.05-.21-.15-.27Z"/>
          <path class="cls-5" d="M429.99,543.29c-.15.1-.35.05-.44-.1l-2.64-4.15-2.64,4.15c-.1.15-.29.19-.44.1-.15-.1-.19-.3-.1-.44l2.92-4.58c.06-.09.16-.15.27-.15s.21.06.27.15l2.92,4.58c.03.05.05.11.05.17,0,.11-.05.21-.15.27Z"/>
        </g>
        <g>
          <line class="cls-1" x1="426.9" y1="530.77" x2="426.9" y2="461.04"/>
          <path class="cls-5" d="M429.99,526.37c-.15-.1-.35-.05-.44.1l-2.64,4.15-2.64-4.15c-.1-.15-.29-.19-.44-.1-.15.1-.19.3-.1.44l2.92,4.58c.06.09.16.15.27.15s.21-.06.27-.15l2.92-4.58c.03-.05.05-.11.05-.17,0-.11-.05-.21-.15-.27Z"/>
          <path class="cls-5" d="M429.99,465.44c-.15.1-.35.05-.44-.1l-2.64-4.15-2.64,4.15c-.1.15-.29.19-.44.1-.15-.1-.19-.3-.1-.44l2.92-4.58c.06-.09.16-.15.27-.15s.21.06.27.15l2.92,4.58c.03.05.05.11.05.17,0,.11-.05.21-.15.27Z"/>
        </g>
        <g>
          <line class="cls-1" x1="426.9" y1="452.64" x2="426.9" y2="388.39"/>
          <path class="cls-5" d="M429.99,448.24c-.15-.1-.35-.05-.44.1l-2.64,4.15-2.64-4.15c-.1-.15-.29-.19-.44-.1s-.19.3-.1.44l2.92,4.58c.06.09.16.15.27.15s.21-.06.27-.15l2.92-4.58c.03-.05.05-.11.05-.17,0-.11-.05-.21-.15-.27Z"/>
          <path class="cls-5" d="M429.99,392.79c-.15.1-.35.05-.44-.1l-2.64-4.15-2.64,4.15c-.1.15-.29.19-.44.1s-.19-.3-.1-.44l2.92-4.58c.06-.09.16-.15.27-.15s.21.06.27.15l2.92,4.58c.03.05.05.11.05.17,0,.11-.05.21-.15.27Z"/>
        </g>
        <g>
          <line class="cls-1" x1="426.9" y1="379.99" x2="426.9" y2="229.4"/>
          <path class="cls-5" d="M429.99,375.6c-.15-.1-.35-.05-.44.1l-2.64,4.15-2.64-4.15c-.1-.15-.29-.19-.44-.1-.15.1-.19.3-.1.44l2.92,4.58c.06.09.16.15.27.15s.21-.06.27-.15l2.92-4.58c.03-.05.05-.11.05-.17,0-.11-.05-.21-.15-.27Z"/>
          <path class="cls-5" d="M429.99,233.79c-.15.1-.35.05-.44-.1l-2.64-4.15-2.64,4.15c-.1.15-.29.19-.44.1-.15-.1-.19-.3-.1-.44l2.92-4.58c.06-.09.16-.15.27-.15s.21.06.27.15l2.92,4.58c.03.05.05.11.05.17,0,.11-.05.21-.15.27Z"/>
        </g>
      </g>
      <g>
        <line class="cls-1" x1="344.66" y1="797.17" x2="316.98" y2="797.17"/>
        <line class="cls-1" x1="344.66" y1="222.05" x2="316.98" y2="222.05"/>
        <g>
          <line class="cls-1" x1="316.98" y1="794.28" x2="316.98" y2="224.8"/>
          <path class="cls-5" d="M320.06,789.88c-.15-.1-.35-.05-.44.1l-2.64,4.15-2.64-4.15c-.1-.15-.29-.19-.44-.1-.15.1-.19.3-.1.44l2.92,4.58c.06.09.16.15.27.15s.21-.06.27-.15l2.92-4.58c.03-.05.05-.11.05-.17,0-.11-.05-.21-.15-.27Z"/>
          <path class="cls-5" d="M320.06,229.2c-.15.1-.35.05-.44-.1l-2.64-4.15-2.64,4.15c-.1.15-.29.19-.44.1s-.19-.3-.1-.44l2.92-4.58c.06-.09.16-.15.27-.15s.21.06.27.15l2.92,4.58c.03.05.05.11.05.17,0,.11-.05.21-.15.27Z"/>
        </g>
      </g>
      <g>
        <path class="cls-5" d="M419.9,690.82l-.27-1.09c2.06-.72,2.72-2.46,2.72-4.7,0-2.48-1.01-4.13-2.62-4.13-1.38,0-2.32,1.03-2.32,3.54v2.35h-.98v-2.3c0-2.06-.77-3.26-2.09-3.26s-2.35,1.46-2.35,3.78.82,3.86,2.57,4.42l-.21,1.08c-2.22-.74-3.33-2.7-3.33-5.52,0-3.02,1.43-4.86,3.31-4.86,1.22,0,2.11.8,2.54,2.22.4-1.74,1.45-2.57,2.86-2.57,2.08,0,3.57,2.06,3.57,5.26,0,3.01-1.03,4.97-3.41,5.79Z"/>
        <path class="cls-5" d="M419.22,678.03c-1.5,0-2.59-.8-4.15-2.46l-3.94-4.18v-1.42l4.54,4.95c-.39-.92-.51-1.87-.51-2.83,0-3.12,1.58-5.37,4.02-5.37s4.13,2.3,4.13,5.69-1.61,5.61-4.08,5.61ZM422.34,672.42c0-2.8-1.29-4.58-3.17-4.58s-3.09,1.79-3.09,4.46c0,1.33.22,2.4.71,3.2.55.88,1.42,1.45,2.43,1.45,1.85,0,3.12-1.83,3.12-4.52Z"/>
        <path class="cls-5" d="M417.13,665.1c-3.59,0-6.11-2.52-6.11-6.06s2.53-6.08,6.11-6.08,6.18,2.53,6.18,6.08-2.56,6.06-6.18,6.06ZM422.33,659.04c0-2.88-2.16-4.97-5.2-4.97s-5.13,2.09-5.13,4.97,2.14,4.95,5.13,4.95,5.2-2.07,5.2-4.95Z"/>
      </g>
      <g>
        <path class="cls-5" d="M423.31,585.06v10.5h-.9l-3.81-5.77c-1.43-2.16-2.27-3.09-3.7-3.09-1.71,0-2.78,1.48-2.78,3.71s.98,3.86,2.88,4.28l-.21,1.09c-2.28-.56-3.65-2.57-3.65-5.37s1.46-4.84,3.75-4.84c1.71,0,2.83,1.11,4.44,3.6l3.02,4.6v-8.72h.96Z"/>
        <path class="cls-5" d="M412.24,575.14v9.13h-1v-10.45h.85l11.21,7.37v1.25l-11.06-7.3Z"/>
        <path class="cls-5" d="M417.25,572.84c-3.59,0-6.11-2.52-6.11-6.06s2.53-6.08,6.11-6.08,6.18,2.53,6.18,6.08-2.56,6.06-6.18,6.06ZM422.44,566.78c0-2.88-2.16-4.97-5.2-4.97s-5.13,2.09-5.13,4.97,2.14,4.95,5.13,4.95,5.2-2.07,5.2-4.95Z"/>
      </g>
      <g>
        <path class="cls-5" d="M423.2,503.94v10.5h-.9l-3.81-5.77c-1.43-2.16-2.27-3.09-3.7-3.09-1.71,0-2.78,1.48-2.78,3.71s.98,3.86,2.88,4.28l-.21,1.09c-2.28-.56-3.65-2.57-3.65-5.37s1.46-4.84,3.75-4.84c1.71,0,2.83,1.11,4.44,3.6l3.02,4.6v-8.72h.96Z"/>
        <path class="cls-5" d="M420.06,502.82l-.29-1.11c1.96-.72,2.57-2.44,2.57-4.54,0-2.65-1.33-4.36-3.07-4.36-1.96,0-3.14,1.66-3.14,4.29,0,1.99.53,3.33,1.38,4.18l-.18.88-6.21-1.38v-8.51h.97v7.7l4.1.93c-.72-1.04-1.03-2.54-1.03-3.89,0-3.3,1.59-5.32,4.1-5.32,2.35,0,4.04,2.22,4.04,5.47,0,2.83-1.01,4.83-3.25,5.65Z"/>
        <path class="cls-5" d="M417.13,490.05c-3.59,0-6.11-2.52-6.11-6.06s2.53-6.08,6.11-6.08,6.18,2.53,6.18,6.08-2.56,6.06-6.18,6.06ZM422.33,483.99c0-2.88-2.16-4.97-5.2-4.97s-5.13,2.09-5.13,4.97,2.14,4.95,5.13,4.95,5.2-2.07,5.2-4.95Z"/>
      </g>
      <g>
        <path class="cls-5" d="M423.02,428.77v10.5h-.9l-3.81-5.77c-1.43-2.16-2.27-3.09-3.7-3.09-1.71,0-2.78,1.48-2.78,3.71s.98,3.86,2.88,4.28l-.21,1.09c-2.28-.56-3.65-2.57-3.65-5.37s1.46-4.84,3.75-4.84c1.71,0,2.83,1.11,4.44,3.6l3.02,4.6v-8.72h.96Z"/>
        <path class="cls-5" d="M419.73,427.66l-.27-1.09c2.06-.72,2.72-2.46,2.72-4.7,0-2.48-1.01-4.13-2.62-4.13-1.38,0-2.32,1.03-2.32,3.54v2.35h-.98v-2.3c0-2.06-.77-3.26-2.09-3.26s-2.35,1.46-2.35,3.78.82,3.86,2.57,4.42l-.21,1.08c-2.22-.74-3.33-2.7-3.33-5.52,0-3.02,1.43-4.86,3.31-4.86,1.22,0,2.11.8,2.54,2.22.4-1.74,1.45-2.57,2.86-2.57,2.08,0,3.57,2.06,3.57,5.26,0,3.01-1.03,4.97-3.41,5.79Z"/>
        <path class="cls-5" d="M416.96,414.26c-3.59,0-6.11-2.52-6.11-6.06s2.53-6.08,6.11-6.08,6.18,2.52,6.18,6.08-2.56,6.06-6.18,6.06ZM422.15,408.2c0-2.88-2.16-4.97-5.2-4.97s-5.13,2.09-5.13,4.97,2.14,4.95,5.13,4.95,5.2-2.07,5.2-4.95Z"/>
      </g>
      <g>
        <path class="cls-5" d="M420.29,325.86l-.29-1.11c1.96-.72,2.57-2.44,2.57-4.54,0-2.65-1.33-4.36-3.07-4.36-1.96,0-3.14,1.66-3.14,4.29,0,1.99.53,3.33,1.38,4.18l-.18.88-6.21-1.38v-8.51h.97v7.7l4.1.93c-.72-1.05-1.03-2.54-1.03-3.89,0-3.3,1.59-5.32,4.1-5.32,2.35,0,4.04,2.22,4.04,5.47,0,2.83-1.01,4.82-3.25,5.65Z"/>
        <path class="cls-5" d="M420.48,304.63v8.85h-.95l-8.17-8.6v-1.35h8.12v-2.12h1v2.12h2.94v1.11h-2.94ZM419.48,304.63h-7l7,7.4v-7.4Z"/>
        <path class="cls-5" d="M420.29,300.51l-.29-1.11c1.96-.72,2.57-2.44,2.57-4.54,0-2.65-1.33-4.36-3.07-4.36-1.96,0-3.14,1.66-3.14,4.29,0,1.99.53,3.33,1.38,4.18l-.18.88-6.21-1.38v-8.51h.97v7.7l4.1.93c-.72-1.05-1.03-2.54-1.03-3.89,0-3.3,1.59-5.32,4.1-5.32,2.35,0,4.04,2.22,4.04,5.47,0,2.83-1.01,4.82-3.25,5.65Z"/>
      </g>
      <g>
        <path class="cls-5" d="M308.69,523.07v11.55h-.99l-4.19-6.35c-1.57-2.37-2.49-3.4-4.07-3.4-1.88,0-3.06,1.63-3.06,4.08s1.08,4.24,3.17,4.7l-.23,1.2c-2.51-.62-4.01-2.83-4.01-5.91s1.61-5.32,4.12-5.32c1.87,0,3.11,1.22,4.88,3.96l3.32,5.06v-9.58h1.06Z"/>
        <path class="cls-5" d="M298.47,518.16v3.52h-.9c-.02-2.56-.58-3.47-2.14-3.84v-.88h13.26v1.2h-10.22Z"/>
        <path class="cls-5" d="M302.02,513.51c-3.94,0-6.72-2.78-6.72-6.67s2.78-6.68,6.72-6.68,6.79,2.78,6.79,6.68-2.81,6.67-6.79,6.67ZM307.73,506.84c0-3.17-2.37-5.46-5.71-5.46s-5.64,2.3-5.64,5.46,2.35,5.45,5.64,5.45,5.71-2.28,5.71-5.45Z"/>
        <path class="cls-5" d="M302.02,498.07c-3.94,0-6.72-2.78-6.72-6.67s2.78-6.68,6.72-6.68,6.79,2.78,6.79,6.68-2.81,6.67-6.79,6.67ZM307.73,491.4c0-3.17-2.37-5.46-5.71-5.46s-5.64,2.3-5.64,5.46,2.35,5.45,5.64,5.45,5.71-2.28,5.71-5.45Z"/>
      </g>
    </g>
  </g>
</svg>