<?xml version="1.0" encoding="utf-8"?>
<!-- Generator: Adobe Illustrator 28.3.0, SVG Export Plug-In . SVG Version: 6.00 Build 0)  -->
<svg version="1.1" id="_Слой_1" xmlns="http://www.w3.org/2000/svg" xmlns:xlink="http://www.w3.org/1999/xlink" x="0px"
	 y="0px" viewBox="0 0 844 900" style="enable-background:new 0 0 844 900;" xml:space="preserve">
<style type="text/css">
	.st0{fill:transparent;}
	.st1{fill:none;stroke:#F39655;stroke-width:1.11;stroke-miterlimit:10;}
	.st2{fill:none;stroke:#F39655;stroke-width:1.65;stroke-miterlimit:10;}
	.st3{fill:none;stroke:#9ECD00;stroke-width:1.57;stroke-miterlimit:10;}
	.st4{fill:#B3CA07;}
	.st5{fill:none;stroke:#6D6D6D;stroke-width:1.06;stroke-miterlimit:10;}
	.st6{fill:none;stroke:#000000;stroke-width:2.47;stroke-miterlimit:10;}
	.st7{fill:none;stroke:#9ECD00;stroke-width:1.06;stroke-miterlimit:10;}
	.st8{fill:none;stroke:#9ECD00;stroke-width:1.13;stroke-miterlimit:10;}
	.st9{enable-background:new    ;}
	.st10{fill:#F2E9D3;}
	.st11{fill:#1A1A1A;}
	.st12{fill:none;stroke:#545454;stroke-width:2.47;stroke-miterlimit:10;}
	.st13{fill:#545454;}
	.st14{fill:#FBBC33;}
</style>
<rect class="st0" width="844" height="900"/>
<g>
	<rect x="593.9" y="177.2" class="st1" width="36.5" height="23.3"/>
	<rect x="593.9" y="200.4" class="st1" width="36.5" height="23.3"/>
	<rect x="593.9" y="223.7" class="st1" width="36.5" height="23.3"/>
	<rect x="593.9" y="247" class="st1" width="36.5" height="23.3"/>
	<rect x="593.9" y="270.2" class="st1" width="36.5" height="23.3"/>
	<rect x="593.9" y="293.5" class="st1" width="36.5" height="23.3"/>
	<rect x="593.9" y="316.8" class="st1" width="36.5" height="23.3"/>
	<rect x="593.9" y="340" class="st1" width="36.5" height="23.3"/>
	<rect x="593.9" y="363.3" class="st1" width="36.5" height="23.3"/>
	<rect x="593.9" y="386.5" class="st1" width="36.5" height="23.3"/>
	<rect x="593.9" y="409.8" class="st1" width="36.5" height="23.3"/>
	<rect x="593.9" y="433" class="st1" width="36.5" height="23.3"/>
	<rect x="593.9" y="456.3" class="st1" width="36.5" height="23.3"/>
	<rect x="630.4" y="177.2" class="st1" width="36.5" height="23.3"/>
	<rect x="630.4" y="200.4" class="st1" width="36.5" height="23.3"/>
	<rect x="630.4" y="223.7" class="st1" width="36.5" height="23.3"/>
	<rect x="630.4" y="247" class="st1" width="36.5" height="23.3"/>
	<rect x="630.4" y="270.2" class="st1" width="36.5" height="23.3"/>
	<rect x="630.4" y="293.5" class="st1" width="36.5" height="23.3"/>
	<rect x="630.4" y="316.8" class="st1" width="36.5" height="23.3"/>
	<rect x="630.4" y="340" class="st1" width="36.5" height="23.3"/>
	<rect x="630.4" y="363.3" class="st1" width="36.5" height="23.3"/>
	<rect x="630.4" y="386.5" class="st1" width="36.5" height="23.3"/>
	<rect x="630.4" y="409.8" class="st1" width="36.5" height="23.3"/>
	<rect x="630.4" y="433" class="st1" width="36.5" height="23.3"/>
	<rect x="630.4" y="456.3" class="st1" width="36.5" height="23.3"/>
	<rect x="593.9" y="479.6" class="st1" width="36.5" height="23.3"/>
	<rect x="630.4" y="479.6" class="st1" width="36.5" height="23.3"/>
	<rect x="593.9" y="502.8" class="st1" width="36.5" height="23.3"/>
	<rect x="630.4" y="502.8" class="st1" width="36.5" height="23.3"/>
	<rect x="593.9" y="526.1" class="st1" width="36.5" height="23.3"/>
	<rect x="630.4" y="526.1" class="st1" width="36.5" height="23.3"/>
	<rect x="593.9" y="549.3" class="st1" width="36.5" height="23.3"/>
	<rect x="630.4" y="549.3" class="st1" width="36.5" height="23.3"/>
	<rect x="72.8" y="254.3" class="st2" width="54.3" height="34.6"/>
	<rect x="72.8" y="208.3" class="st3" width="54.3" height="34.6"/>
	<rect x="506" y="628.1" class="st4" width="54.6" height="123"/>
	<polyline class="st5" points="578.5,792.2 476.4,792.2 476.4,876.4 301.1,876.4 301.1,572.5 474.7,572.6 474.7,319.3 423.3,319.3 
		423.3,130.5 555,130.4 555,47 785.5,47 785.5,283.8 753.7,283.8 753.7,317 785.5,317 785.5,792.2 621.9,792.2 594.3,807.5 	"/>
	<line class="st5" x1="476.4" y1="628.1" x2="476.4" y2="792.2"/>
	<line class="st6" x1="765.6" y1="457.6" x2="765.6" y2="612.5"/>
	<rect x="423.3" y="153.8" class="st7" width="20.6" height="23.4"/>
	<rect x="423.3" y="130.3" class="st7" width="20.6" height="23.4"/>
	<rect x="423.3" y="177.2" class="st7" width="20.6" height="23.4"/>
	<rect x="301.1" y="626.3" class="st7" width="20.6" height="31.6"/>
	<rect x="301.1" y="594.7" class="st7" width="20.6" height="31.6"/>
	<rect x="301.1" y="781.7" class="st7" width="20.6" height="52.8"/>
	<rect x="301.1" y="750.1" class="st7" width="20.6" height="31.6"/>
	<rect x="455.8" y="781.7" class="st7" width="20.6" height="52.8"/>
	<rect x="455.8" y="750.1" class="st7" width="20.6" height="31.6"/>
	<rect x="301.1" y="658" class="st7" width="20.6" height="31.6"/>
	<rect x="423.3" y="200.6" class="st7" width="20.6" height="23.4"/>
	<rect x="423.3" y="224.1" class="st7" width="20.6" height="23.4"/>
	<rect x="423.3" y="247.5" class="st7" width="20.6" height="23.4"/>
	<rect x="732.9" y="47" class="st8" width="31.9" height="20.6"/>
	<rect x="701.1" y="47" class="st8" width="31.9" height="20.6"/>
	<rect x="764.9" y="91.7" class="st7" width="20.6" height="24.1"/>
	<rect x="764.9" y="115.8" class="st7" width="20.6" height="24.1"/>
	<rect x="764.9" y="139.9" class="st7" width="20.6" height="24.1"/>
	<rect x="764.9" y="164" class="st7" width="20.6" height="24.1"/>
	<rect x="764.9" y="188.1" class="st7" width="20.6" height="24.1"/>
	<rect x="764.9" y="212.2" class="st7" width="20.6" height="24.1"/>
	<rect x="764.9" y="67.6" class="st7" width="20.6" height="24.1"/>
	<rect x="474.7" y="435.4" class="st7" width="20.6" height="22.9"/>
	<rect x="474.7" y="412.3" class="st7" width="20.6" height="22.9"/>
	<rect x="474.7" y="389.3" class="st7" width="20.6" height="22.9"/>
	<rect x="474.7" y="366.3" class="st7" width="20.6" height="22.9"/>
	<rect x="474.7" y="343.2" class="st7" width="20.6" height="22.9"/>
	<rect x="474.7" y="320.2" class="st7" width="20.6" height="22.9"/>
	<rect x="474.7" y="458.2" class="st7" width="20.6" height="22.9"/>
	<rect x="474.7" y="481.1" class="st7" width="20.6" height="22.9"/>
	<rect x="474.7" y="504" class="st7" width="20.6" height="22.9"/>
	<rect x="474.7" y="526.9" class="st7" width="20.6" height="22.9"/>
	<rect x="474.7" y="549.7" class="st7" width="20.6" height="22.9"/>
	<rect x="764.9" y="345.1" class="st7" width="20.6" height="28.1"/>
	<rect x="764.9" y="317" class="st7" width="20.6" height="28.1"/>
	<rect x="764.9" y="373.2" class="st7" width="20.6" height="28.1"/>
	<rect x="764.9" y="401.4" class="st7" width="20.6" height="28.1"/>
	<rect x="764.9" y="429.5" class="st7" width="20.6" height="28.1"/>
	<rect x="764.9" y="641.1" class="st7" width="20.6" height="28.1"/>
	<rect x="764.9" y="613" class="st7" width="20.6" height="28.1"/>
	<rect x="764.9" y="669.2" class="st7" width="20.6" height="28.1"/>
	<rect x="764.9" y="697.4" class="st7" width="20.6" height="28.1"/>
	<rect x="764.9" y="725.5" class="st7" width="20.6" height="53.5"/>
	<g class="st9">
		<path class="st10" d="M536.7,732.7v2.8h6.2v4h-15.7v-4h5.6v-2.9l-5.6-6.2V721l7.4,8.4l8.2-8.7v5.6L536.7,732.7z"/>
	</g>
	<g class="st9">
		<path class="st10" d="M538.4,720.2c-2.6,0-4.2-1.8-4.9-6.7l-1.1-7.4c-1.3,0.4-2.1,1.7-2.1,4.6c0,3.1,0.8,4.8,2.3,5.5l-0.4,4.1
			c-3.2-0.9-5.3-4.3-5.3-9.6c0-5.4,2.4-8.7,6.7-8.7h9.4v3.7l-2.7,0.2c2.1,1.7,3,4.6,3,7.7C543.2,717.7,541.5,720.2,538.4,720.2z
			 M540,713.2c0-3.6-1.7-7.2-4.6-7.2h-0.1l1.2,7.3c0.4,2.1,0.9,2.9,1.9,2.9C539.4,716.2,540,715.2,540,713.2z"/>
		<path class="st10" d="M535,699.5c-4.9,0-8.2-4.1-8.2-10.1c0-5.1,2.2-8.4,5.6-9.4l0.8,4.2c-1.7,0.6-2.7,2.4-2.7,5.2
			c0,3.7,1.7,6,4.4,6c2.7,0,4.4-2.3,4.4-6c0-3-1-4.8-2.6-5.4l0.7-4.1c3.3,0.7,5.7,4.3,5.7,9.5C543.2,695.4,539.9,699.5,535,699.5z"
			/>
	</g>
	<g class="st9">
		<path class="st10" d="M535,678.8c-4.9,0-8.2-4.1-8.2-10.1c0-5.1,2.2-8.4,5.6-9.4l0.8,4.2c-1.7,0.6-2.7,2.4-2.7,5.2
			c0,3.7,1.7,6,4.4,6c2.7,0,4.4-2.3,4.4-6c0-3-1-4.8-2.6-5.4l0.7-4.1c3.3,0.7,5.7,4.3,5.7,9.5C543.2,674.7,539.9,678.8,535,678.8z"
			/>
		<path class="st10" d="M538.4,657.6c-2.6,0-4.2-1.8-4.9-6.7l-1.1-7.4c-1.3,0.4-2.1,1.7-2.1,4.6c0,3.1,0.8,4.8,2.3,5.5l-0.4,4.1
			c-3.2-0.9-5.3-4.3-5.3-9.6c0-5.4,2.4-8.7,6.7-8.7h9.4v3.7l-2.7,0.2c2.1,1.7,3,4.6,3,7.7C543.2,655.1,541.5,657.6,538.4,657.6z
			 M540,650.6c0-3.6-1.7-7.2-4.6-7.2h-0.1l1.2,7.3c0.4,2.1,0.9,2.9,1.9,2.9C539.4,653.6,540,652.6,540,650.6z"/>
	</g>
	<g class="st9">
		<path class="st11" d="M76,68.5h-4.4v-2.1c2.9-0.1,4.3-0.8,4.9-2.8h2.4v14.7H76V68.5z"/>
		<path class="st11" d="M87.3,71.4h8.7v2.4h-8.7V71.4z"/>
	</g>
	<g class="st9">
		<path class="st11" d="M113.3,66.3h-10.6v-2.6h13.9V66l-8.3,12.4H105L113.3,66.3z"/>
	</g>
	<g class="st9">
		<path class="st11" d="M116.4,73.5c0-1.6,0.7-2.8,2.6-4.5l5.6-5.3h3.8l-5.6,5.1c0.6-0.1,1.3-0.2,1.9-0.2c4.5,0,7.1,1.9,7.1,4.9
			c0,3.1-2.9,5.1-7.7,5.1C119.1,78.6,116.4,76.6,116.4,73.5z M124,76.2c2.9,0,4.7-1.1,4.7-2.7s-1.7-2.7-4.6-2.7
			c-1.4,0-2.4,0.2-3.2,0.6c-1,0.5-1.5,1.2-1.5,2.1C119.4,75.2,121.1,76.2,124,76.2z"/>
	</g>
	<g class="st9">
		<path class="st11" d="M138.6,72h8.2v1.2h-8.2V72z"/>
	</g>
	<g class="st9">
		<path class="st11" d="M154.2,73.6c0-2.9,2.7-4.9,6.6-4.9c3.2,0,5.4,1.3,6,3.3l-1.3,0.3c-0.5-1.5-2.2-2.4-4.7-2.4
			c-3.2,0-5.3,1.5-5.3,3.8c0,2.3,2.1,3.8,5.3,3.8c2.7,0,4.3-1,4.8-2.6l1.3,0.2c-0.5,2-2.8,3.5-6.1,3.5
			C156.8,78.5,154.2,76.5,154.2,73.6z"/>
	</g>
	<g class="st9">
		<path class="st11" d="M172.7,69.9h-5.2v-1.1h11.6v1.1H174v8.5h-1.3V69.9z"/>
	</g>
	<g class="st9">
		<path class="st11" d="M179.7,73.6c0-2.8,2.7-4.9,6.7-4.9c3.5,0,6.2,1.8,6.2,4.5c0,0.2,0,0.5-0.1,0.8H181c0.2,2.1,2.2,3.5,5.4,3.5
			c2.5,0,4.1-0.8,4.8-2.2l1.3,0.2c-0.7,1.9-2.9,3.1-6.1,3.1C182.3,78.5,179.7,76.4,179.7,73.6z M191.3,72.8
			c-0.1-1.8-2.2-3.1-4.9-3.1c-3,0-5,1.2-5.3,3.1H191.3z"/>
	</g>
	<g class="st9">
		<path class="st11" d="M193.5,78.4l0.3-1.1c0.2,0,0.4,0.1,0.5,0.1c0.6,0,1.1-0.2,1.4-0.8c0.4-0.7,0.5-2,0.7-4.4l0.2-3.4h9.6v9.6
			h-1.3v-8.5h-7.2l-0.1,2.4c-0.2,2.6-0.3,4-0.8,4.9c-0.6,1.1-1.5,1.3-2.3,1.3C194.1,78.5,193.8,78.5,193.5,78.4z"/>
	</g>
	<g class="st9">
		<path class="st11" d="M208.2,78.4l0.3-1.1c0.2,0,0.4,0.1,0.5,0.1c0.6,0,1.1-0.2,1.4-0.8c0.4-0.7,0.5-2,0.7-4.4l0.2-3.4h9.6v9.6
			h-1.3v-8.5h-7.2l-0.1,2.4c-0.2,2.6-0.3,4-0.8,4.9c-0.6,1.1-1.5,1.3-2.3,1.3C208.7,78.5,208.4,78.5,208.2,78.4z"/>
	</g>
	<g class="st9">
		<path class="st11" d="M223.6,75.8c0-1.6,1.3-2.4,3.9-2.8l6.4-0.9c-0.4-1.5-1.7-2.3-4.2-2.3c-2.6,0-4.3,0.7-4.8,2.1l-1.3-0.2
			c0.6-1.8,2.7-3,6.1-3c3.6,0,5.5,1.7,5.5,4v5.8H234l0-2.6c-1.2,1.8-3.5,2.7-6,2.7C225.2,78.5,223.6,77.5,223.6,75.8z M228,77.4
			c3.2,0,5.9-1.7,5.9-4.3V73l-6.3,0.9c-2,0.3-2.7,0.9-2.7,1.8C224.9,76.8,226,77.4,228,77.4z"/>
		<path class="st11" d="M242.5,73.3l-5.2-4.5h1.7l4.6,4h1.8v-4h1.3v4h1.8l4.6-4h1.7l-5.2,4.5l5.5,5.1h-1.7l-4.9-4.5h-1.8v4.5h-1.3
			v-4.5h-1.8l-4.9,4.5H237L242.5,73.3z"/>
	</g>
	<g class="st9">
		<path class="st11" d="M257.1,68.8h1.3v8.1l8.7-8.1h1.2v9.6H267v-8.1l-8.7,8.1h-1.2V68.8z"/>
	</g>
	<g class="st9">
		<path class="st11" d="M139.9,225.2h7.1v1h-7.1V225.2z"/>
	</g>
	<g class="st9">
		<path class="st11" d="M153.4,226.6c0-2.5,2.3-4.3,5.7-4.3c2.8,0,4.6,1.1,5.2,2.9l-1.2,0.2c-0.5-1.3-1.9-2.1-4.1-2.1
			c-2.8,0-4.6,1.3-4.6,3.3c0,2,1.8,3.3,4.6,3.3c2.3,0,3.7-0.9,4.1-2.2l1.1,0.2c-0.5,1.8-2.4,3-5.3,3
			C155.7,230.8,153.4,229.1,153.4,226.6z"/>
	</g>
	<g class="st9">
		<path class="st11" d="M169.5,223.4H165v-1H175v1h-4.5v7.3h-1.1V223.4z"/>
	</g>
	<g class="st9">
		<path class="st11" d="M175.5,226.6c0-2.4,2.3-4.3,5.8-4.3c3,0,5.4,1.6,5.4,3.9c0,0.2,0,0.5-0.1,0.7h-10c0.2,1.8,1.9,3,4.7,3
			c2.2,0,3.6-0.7,4.1-1.9l1.1,0.2c-0.6,1.6-2.5,2.7-5.3,2.7C177.7,230.8,175.5,229,175.5,226.6z M185.6,225.9
			c-0.1-1.5-1.9-2.7-4.3-2.7c-2.6,0-4.3,1.1-4.6,2.7H185.6z"/>
	</g>
	<g class="st9">
		<path class="st11" d="M187.5,230.7l0.2-0.9c0.1,0,0.3,0.1,0.4,0.1c0.5,0,0.9-0.2,1.2-0.7c0.3-0.6,0.5-1.8,0.6-3.8l0.2-2.9h8.3v8.3
			h-1.1v-7.3h-6.2l-0.1,2.1c-0.1,2.2-0.3,3.5-0.7,4.2c-0.5,0.9-1.3,1.2-2,1.2C187.9,230.8,187.7,230.8,187.5,230.7z"/>
	</g>
	<g class="st9">
		<path class="st11" d="M200.1,230.7l0.2-0.9c0.1,0,0.3,0.1,0.4,0.1c0.5,0,0.9-0.2,1.2-0.7c0.3-0.6,0.5-1.8,0.6-3.8l0.2-2.9h8.3v8.3
			H210v-7.3h-6.2l-0.1,2.1c-0.1,2.2-0.3,3.5-0.7,4.2c-0.5,0.9-1.3,1.2-2,1.2C200.6,230.8,200.4,230.8,200.1,230.7z"/>
	</g>
	<g class="st9">
		<path class="st11" d="M213.5,228.5c0-1.4,1.1-2.1,3.4-2.4l5.5-0.8c-0.4-1.3-1.5-2-3.6-2c-2.3,0-3.7,0.6-4.2,1.8l-1.1-0.2
			c0.5-1.6,2.4-2.6,5.3-2.6c3.1,0,4.7,1.5,4.7,3.4v5h-1l0-2.2c-1,1.6-3.1,2.4-5.2,2.4C214.8,230.8,213.5,229.9,213.5,228.5z
			 M217.3,229.9c2.8,0,5.1-1.5,5.1-3.7v-0.1l-5.5,0.8c-1.7,0.3-2.3,0.8-2.3,1.6C214.6,229.4,215.5,229.9,217.3,229.9z"/>
	</g>
	<g class="st9">
		<path class="st11" d="M229.9,226.3l-4.5-3.9h1.4l3.9,3.4h1.6v-3.4h1.1v3.4h1.6l4-3.4h1.4l-4.5,3.9l4.7,4.4h-1.5l-4.2-3.9h-1.6v3.9
			h-1.1v-3.9h-1.6l-4.2,3.9h-1.4L229.9,226.3z"/>
	</g>
	<g class="st9">
		<path class="st11" d="M257.4,230.7h-11.1v-0.9l6.1-4c2.3-1.5,3.3-2.4,3.3-3.9c0-1.8-1.6-2.9-3.9-2.9c-2.2,0-4.1,1-4.5,3l-1.2-0.2
			c0.6-2.4,2.7-3.8,5.7-3.8c3,0,5.1,1.5,5.1,3.9c0,1.8-1.2,3-3.8,4.7l-4.8,3.2h9.2V230.7z"/>
	</g>
	<g class="st9">
		<path class="st11" d="M259.2,233.2l1-3.9h1.4l-1.5,3.9H259.2z"/>
	</g>
	<g class="st9">
		<path class="st11" d="M272.4,227.6h-9.3v-1l9.1-8.6h1.4v8.6h2.2v1h-2.2v3.1h-1.2V227.6z M272.4,226.6v-7.4l-7.8,7.4H272.4z"/>
		<path class="st11" d="M282.4,222.4h1.1l4.8,5l4.7-5h1.1v8.3h-1.1v-6.9l-4.6,4.9h-0.3l-4.6-4.8v6.9h-1.1V222.4z"/>
	</g>
	<g class="st9">
		<path class="st11" d="M140.9,271.2h7.1v1h-7.1V271.2z"/>
	</g>
	<g class="st9">
		<path class="st11" d="M154.4,272.5c0-2.5,2.3-4.3,5.7-4.3c2.8,0,4.6,1.1,5.2,2.9l-1.2,0.2c-0.5-1.3-1.9-2.1-4.1-2.1
			c-2.8,0-4.6,1.3-4.6,3.3c0,2,1.8,3.3,4.6,3.3c2.3,0,3.7-0.9,4.1-2.2l1.1,0.2c-0.5,1.8-2.4,3-5.3,3
			C156.7,276.8,154.4,275.1,154.4,272.5z"/>
	</g>
	<g class="st9">
		<path class="st11" d="M170.5,269.4H166v-1h10.1v1h-4.5v7.3h-1.1V269.4z"/>
	</g>
	<g class="st9">
		<path class="st11" d="M176.5,272.5c0-2.4,2.3-4.3,5.8-4.3c3,0,5.4,1.6,5.4,3.9c0,0.2,0,0.5-0.1,0.7h-10c0.2,1.8,1.9,3,4.7,3
			c2.2,0,3.6-0.7,4.1-1.9l1.1,0.2c-0.6,1.6-2.5,2.7-5.3,2.7C178.8,276.8,176.5,275,176.5,272.5z M186.6,271.9
			c-0.1-1.5-1.9-2.7-4.3-2.7c-2.6,0-4.3,1.1-4.6,2.7H186.6z"/>
	</g>
	<g class="st9">
		<path class="st11" d="M188.5,276.7l0.2-0.9c0.1,0,0.3,0.1,0.4,0.1c0.5,0,0.9-0.2,1.2-0.7c0.3-0.6,0.5-1.8,0.6-3.8l0.2-2.9h8.3v8.3
			h-1.1v-7.3h-6.2l-0.1,2.1c-0.1,2.2-0.3,3.5-0.7,4.2c-0.5,0.9-1.3,1.2-2,1.2C188.9,276.8,188.7,276.8,188.5,276.7z"/>
	</g>
	<g class="st9">
		<path class="st11" d="M201.1,276.7l0.2-0.9c0.1,0,0.3,0.1,0.4,0.1c0.5,0,0.9-0.2,1.2-0.7c0.3-0.6,0.5-1.8,0.6-3.8l0.2-2.9h8.3v8.3
			H211v-7.3h-6.2l-0.1,2.1c-0.1,2.2-0.3,3.5-0.7,4.2c-0.5,0.9-1.3,1.2-2,1.2C201.6,276.8,201.4,276.8,201.1,276.7z"/>
	</g>
	<g class="st9">
		<path class="st11" d="M214.5,274.4c0-1.4,1.1-2.1,3.4-2.4l5.5-0.8c-0.4-1.3-1.5-2-3.6-2c-2.3,0-3.7,0.6-4.2,1.8l-1.1-0.2
			c0.5-1.6,2.4-2.6,5.3-2.6c3.1,0,4.7,1.5,4.7,3.4v5h-1l0-2.2c-1,1.6-3.1,2.4-5.2,2.4C215.9,276.8,214.5,275.9,214.5,274.4z
			 M218.3,275.9c2.8,0,5.1-1.5,5.1-3.7v-0.1l-5.5,0.8c-1.7,0.3-2.3,0.8-2.3,1.6C215.6,275.3,216.5,275.9,218.3,275.9z"/>
	</g>
	<g class="st9">
		<path class="st11" d="M230.9,272.3l-4.5-3.9h1.4l3.9,3.4h1.6v-3.4h1.1v3.4h1.6l4-3.4h1.4l-4.5,3.9l4.7,4.4h-1.5l-4.2-3.9h-1.6v3.9
			h-1.1v-3.9h-1.6l-4.2,3.9h-1.4L230.9,272.3z"/>
	</g>
	<g class="st9">
		<path class="st11" d="M258.4,276.7h-11.1v-0.9l6.1-4c2.3-1.5,3.3-2.4,3.3-3.9c0-1.8-1.6-2.9-3.9-2.9c-2.2,0-4.1,1-4.5,3l-1.2-0.2
			c0.6-2.4,2.7-3.8,5.7-3.8c3,0,5.1,1.5,5.1,3.9c0,1.8-1.2,3-3.8,4.7l-4.8,3.2h9.2V276.7z"/>
	</g>
	<g class="st9">
		<path class="st11" d="M261.3,279.1l1-3.9h1.4l-1.5,3.9H261.3z"/>
	</g>
	<g class="st9">
		<path class="st11" d="M268.9,266.9h-3.4V266c2.5,0,3.3-0.6,3.7-2h0.8v12.7h-1.2V266.9z"/>
	</g>
	<g class="st9">
		<path class="st11" d="M279.5,268.4h1.1l4.8,5l4.7-5h1.1v8.3h-1.1v-6.9l-4.6,4.9h-0.3l-4.6-4.8v6.9h-1.1V268.4z"/>
	</g>
	<g class="st9">
		<path class="st11" d="M71.9,101.5h3.1l3.6,11.6l5.6-8.7h0.7l5.7,8.6l3.5-11.5h3.1l-4.5,14.7h-3.2l-4.9-7.3l-4.8,7.3h-3.2
			L71.9,101.5z"/>
	</g>
	<g class="st9">
		<path class="st11" d="M102.3,106.4h-4.4v-2.1c2.9-0.1,4.3-0.8,4.9-2.8h2.4v14.7h-2.9V106.4z"/>
		<path class="st11" d="M113.6,109.2h8.7v2.4h-8.7V109.2z"/>
		<path class="st11" d="M128.9,101.5h3.1l3.6,11.6l5.6-8.7h0.7l5.7,8.6l3.5-11.5h3.1l-4.5,14.7h-3.2l-4.9-7.3l-4.8,7.3h-3.2
			L128.9,101.5z"/>
		<path class="st11" d="M170.3,106.4c0,1.6-0.7,2.8-2.6,4.5l-5.6,5.3h-3.8l5.6-5.1c-0.6,0.1-1.3,0.2-1.9,0.2c-4.5,0-7.1-1.9-7.1-4.9
			c0-3.1,2.9-5.1,7.7-5.1C167.6,101.3,170.3,103.3,170.3,106.4z M162.6,109c1.4,0,2.4-0.2,3.2-0.6c1-0.5,1.5-1.2,1.5-2.1
			c0-1.7-1.8-2.7-4.7-2.7c-2.9,0-4.7,1.1-4.7,2.7C158,108,159.8,109,162.6,109z"/>
	</g>
	<g class="st9">
		<path class="st11" d="M177.4,109.8h8.2v1.2h-8.2V109.8z"/>
	</g>
	<g class="st9">
		<path class="st11" d="M197.5,111.7h-2.5v4.5h-1.3v-9.6h1.3v4h2.5l5.6-4h1.8l-6.4,4.5l6.6,5.1h-1.9L197.5,111.7z"/>
	</g>
	<g class="st9">
		<path class="st11" d="M207.2,106.6h1.2l0,2.2c1-1.4,3-2.3,5.5-2.3c3.8,0,6.4,2,6.4,4.9c0,2.9-2.6,4.9-6.4,4.9
			c-2.5,0-4.5-0.9-5.5-2.3v6.5h-1.3V106.6z M213.8,115.2c3.2,0,5.2-1.5,5.2-3.8c0-2.3-2.1-3.8-5.2-3.8c-3.2,0-5.3,1.5-5.3,3.8
			C208.4,113.7,210.5,115.2,213.8,115.2z"/>
	</g>
	<g class="st9">
		<path class="st11" d="M222.3,111.4c0-2.8,2.6-4.9,6.6-4.9c4,0,6.6,2.1,6.6,4.9c0,2.9-2.6,4.9-6.6,4.9
			C224.9,116.3,222.3,114.3,222.3,111.4z M228.9,115.2c3.3,0,5.3-1.5,5.3-3.8c0-2.3-2-3.8-5.3-3.8c-3.3,0-5.3,1.5-5.3,3.8
			C223.6,113.7,225.7,115.2,228.9,115.2z"/>
		<path class="st11" d="M237.5,111.4c0-2.9,2.7-4.9,6.6-4.9c3.2,0,5.4,1.3,6,3.3l-1.3,0.3c-0.5-1.5-2.2-2.4-4.7-2.4
			c-3.2,0-5.3,1.5-5.3,3.8c0,2.3,2.1,3.8,5.3,3.8c2.7,0,4.3-1,4.8-2.6l1.3,0.2c-0.5,2-2.8,3.5-6.1,3.5
			C240.2,116.3,237.5,114.3,237.5,111.4z"/>
	</g>
	<g class="st9">
		<path class="st11" d="M251.8,111.4c0-2.9,2.7-4.9,6.6-4.9c3.2,0,5.4,1.3,6,3.3l-1.3,0.3c-0.5-1.5-2.2-2.4-4.7-2.4
			c-3.2,0-5.3,1.5-5.3,3.8c0,2.3,2.1,3.8,5.3,3.8c2.7,0,4.3-1,4.8-2.6l1.3,0.2c-0.5,2-2.8,3.5-6.1,3.5
			C254.5,116.3,251.8,114.3,251.8,111.4z"/>
	</g>
	<g class="st9">
		<path class="st11" d="M267.9,109.8h8.2v1.2h-8.2V109.8z"/>
	</g>
	<g class="st9">
		<path class="st11" d="M279.6,106.6h11.1v9.6h-1.3v-8.5h-8.6v8.5h-1.3V106.6z"/>
	</g>
	<g class="st9">
		<path class="st11" d="M293.6,113.6c0-1.6,1.3-2.4,3.9-2.8l6.4-0.9c-0.4-1.5-1.7-2.3-4.2-2.3c-2.6,0-4.3,0.7-4.8,2.1l-1.3-0.2
			c0.6-1.8,2.7-3,6.1-3c3.6,0,5.5,1.7,5.5,4v5.8h-1.2l0-2.6c-1.2,1.8-3.5,2.7-6,2.7C295.1,116.3,293.6,115.3,293.6,113.6z
			 M298,115.3c3.2,0,5.9-1.7,5.9-4.3v-0.1l-6.3,0.9c-2,0.3-2.7,0.9-2.7,1.8C294.9,114.6,295.9,115.3,298,115.3z"/>
	</g>
	<g class="st9">
		<path class="st11" d="M308.6,106.6h1.3v4h8.7v-4h1.3v9.6h-1.3v-4.5h-8.7v4.5h-1.3V106.6z"/>
	</g>
	<g class="st9">
		<path class="st11" d="M322.5,111.4c0-2.8,2.7-4.9,6.7-4.9c3.5,0,6.2,1.8,6.2,4.5c0,0.2,0,0.5-0.1,0.8h-11.6
			c0.2,2.1,2.2,3.5,5.4,3.5c2.5,0,4.1-0.8,4.8-2.2l1.3,0.2c-0.7,1.9-2.9,3.1-6.1,3.1C325,116.3,322.5,114.3,322.5,111.4z
			 M334.1,110.7c-0.1-1.8-2.2-3.1-4.9-3.1c-3,0-5,1.2-5.3,3.1H334.1z"/>
	</g>
	<g class="st9">
		<path class="st11" d="M336.3,116.2l0.3-1.1c0.2,0,0.4,0.1,0.5,0.1c0.6,0,1.1-0.2,1.4-0.8c0.4-0.7,0.5-2,0.7-4.4l0.2-3.4h9.6v9.6
			h-1.3v-8.5h-7.2l-0.1,2.4c-0.2,2.6-0.3,4-0.8,4.9c-0.6,1.1-1.5,1.3-2.3,1.3C336.8,116.3,336.5,116.3,336.3,116.2z"/>
		<path class="st11" d="M352.6,106.6h1.3v8.1l8.7-8.1h1.2v9.6h-1.3v-8.1l-8.7,8.1h-1.2V106.6z"/>
	</g>
	<g class="st9">
		<path class="st11" d="M74.3,138.4h10.6c3.3,0,5.6,1.7,5.6,4.6c0,2.2-1.6,3.7-4.2,4.2l6.1,5.9h-3.9l-5.7-5.5h-5.5v5.5h-3V138.4z
			 M84.8,145c1.5,0,2.5-0.8,2.5-2s-1-2-2.6-2h-7.6v4.1H84.8z"/>
	</g>
	<g class="st9">
		<path class="st11" d="M96.7,143.2h-4.4v-2.1c2.9-0.1,4.3-0.8,4.9-2.8h2.4V153h-2.9V143.2z"/>
	</g>
	<g class="st9">
		<path class="st11" d="M108.2,146.7h8.2v1.2h-8.2V146.7z"/>
	</g>
	<g class="st9">
		<path class="st11" d="M124.6,143.4h1.2l0,2.2c1-1.4,3-2.3,5.5-2.3c3.8,0,6.4,2,6.4,4.9c0,2.9-2.6,4.9-6.4,4.9
			c-2.5,0-4.5-0.9-5.5-2.3v6.5h-1.3V143.4z M131.2,152c3.2,0,5.2-1.5,5.2-3.8c0-2.3-2.1-3.8-5.2-3.8c-3.2,0-5.3,1.5-5.3,3.8
			C125.9,150.5,128,152,131.2,152z"/>
	</g>
	<g class="st9">
		<path class="st11" d="M139.7,148.2c0-2.8,2.7-4.9,6.7-4.9c3.5,0,6.2,1.8,6.2,4.5c0,0.2,0,0.5-0.1,0.8H141c0.2,2.1,2.2,3.5,5.4,3.5
			c2.5,0,4.1-0.8,4.8-2.2l1.3,0.2c-0.7,1.9-2.9,3.1-6.1,3.1C142.3,153.2,139.7,151.1,139.7,148.2z M151.3,147.5
			c-0.1-1.8-2.2-3.1-4.9-3.1c-3,0-5,1.2-5.3,3.1H151.3z"/>
	</g>
	<g class="st9">
		<path class="st11" d="M155.2,143.4h1.3v8.1l8.7-8.1h1.2v9.6h-1.3v-8.1l-8.7,8.1h-1.2V143.4z M158.4,139.1c0.2,1.1,1.2,1.7,2.4,1.7
			s2.3-0.6,2.4-1.7h1.2c-0.3,1.7-1.7,2.7-3.6,2.7s-3.4-1-3.7-2.7H158.4z"/>
		<path class="st11" d="M168.5,153l0.3-1.1c0.2,0,0.4,0.1,0.5,0.1c0.6,0,1.1-0.2,1.4-0.8c0.4-0.7,0.5-2,0.7-4.4l0.2-3.4h9.6v9.6
			h-1.3v-8.5h-7.2l-0.1,2.4c-0.2,2.6-0.3,4-0.8,4.9c-0.6,1.1-1.5,1.3-2.3,1.3C169,153.2,168.7,153.1,168.5,153z"/>
	</g>
	<g class="st9">
		<path class="st11" d="M775.6,706.8h-3.4V706c2.5,0,3.3-0.6,3.7-2h0.8v12.7h-1.2V706.8z"/>
	</g>
	<g class="st9">
		<path class="st11" d="M780.6,688.2h-10.4v-0.9l5.7-3.8c2.1-1.4,3-2.2,3-3.7c0-1.7-1.5-2.7-3.7-2.7c-2.1,0-3.8,1-4.2,2.8l-1.1-0.2
			c0.6-2.3,2.5-3.6,5.3-3.6c2.8,0,4.8,1.4,4.8,3.7c0,1.7-1.1,2.8-3.6,4.4l-4.5,3h8.6V688.2z"/>
	</g>
	<g class="st9">
		<path class="st11" d="M769.7,657.9l1.1-0.3c0.7,2,2.4,2.7,4.6,2.7c2.4,0,4.1-1,4.1-2.6c0-1.4-1-2.3-3.5-2.3h-2.3v-1h2.3
			c2,0,3.2-0.8,3.2-2.1c0-1.3-1.4-2.3-3.7-2.3c-2.2,0-3.8,0.8-4.4,2.5l-1.1-0.2c0.7-2.2,2.7-3.3,5.4-3.3c3,0,4.8,1.4,4.8,3.3
			c0,1.2-0.8,2.1-2.2,2.5c1.7,0.4,2.5,1.4,2.5,2.8c0,2-2,3.5-5.2,3.5C772.4,661.2,770.5,660.2,769.7,657.9z"/>
	</g>
	<g class="st9">
		<path class="st11" d="M778.1,630.1h-8.7v-0.9l8.5-8.1h1.3v8h2.1v1h-2.1v2.9h-1.1V630.1z M778.1,629.1v-6.9l-7.3,6.9H778.1z"/>
	</g>
	<g class="st9">
		<path class="st11" d="M769.5,446.7l1.1-0.3c0.7,1.9,2.4,2.5,4.5,2.5c2.6,0,4.3-1.3,4.3-3c0-1.9-1.6-3.1-4.2-3.1
			c-2,0-3.3,0.5-4.1,1.4l-0.9-0.2l1.4-6.1h8.4v1h-7.6l-0.9,4c1-0.7,2.5-1,3.8-1c3.3,0,5.3,1.6,5.3,4.1c0,2.3-2.2,4-5.4,4
			C772.2,449.9,770.3,448.9,769.5,446.7z"/>
	</g>
	<g class="st9">
		<path class="st11" d="M769.5,416.4c0-1.5,0.8-2.6,2.4-4.1l4.1-3.9h1.4l-4.9,4.5c0.9-0.4,1.8-0.5,2.8-0.5c3.1,0,5.3,1.6,5.3,4
			c0,2.4-2.3,4.1-5.6,4.1C771.7,420.4,769.5,418.8,769.5,416.4z M775.1,419.4c2.8,0,4.5-1.3,4.5-3.1c0-1.8-1.8-3-4.4-3
			c-1.3,0-2.4,0.2-3.2,0.7c-0.9,0.5-1.4,1.4-1.4,2.4C770.6,418.2,772.4,419.4,775.1,419.4z"/>
	</g>
	<g class="st9">
		<path class="st11" d="M779.3,382.3h-9v-1h10.3v0.8l-7.3,11.1h-1.2L779.3,382.3z"/>
	</g>
	<g class="st9">
		<path class="st11" d="M769.2,361.4c0-1.6,1.5-2.7,3.4-3c-1.4-0.3-2.5-1.3-2.5-2.6c0-1.8,1.8-3.1,4.9-3.1c3.1,0,4.9,1.3,4.9,3.1
			c0,1.4-1.1,2.3-2.5,2.6c1.9,0.3,3.3,1.4,3.3,3c0,2-2,3.5-5.8,3.5S769.2,363.5,769.2,361.4z M774.9,363.9c3,0,4.6-1,4.6-2.5
			c0-1.6-2-2.4-4.6-2.4s-4.6,0.8-4.6,2.4C770.3,362.9,771.9,363.9,774.9,363.9z M774.9,358c2.1,0,3.8-0.8,3.8-2.2
			c0-1.3-1.4-2.2-3.8-2.2c-2.4,0-3.8,0.9-3.8,2.2C771.1,357.2,772.8,358,774.9,358z"/>
	</g>
	<g class="st9">
		<path class="st11" d="M780.5,329c0,1.5-0.8,2.6-2.4,4.1L774,337h-1.4l4.9-4.5c-0.9,0.4-1.8,0.5-2.8,0.5c-3.1,0-5.3-1.6-5.3-4
			c0-2.4,2.3-4.1,5.6-4.1C778.3,325,780.5,326.6,780.5,329z M774.9,332.1c1.3,0,2.4-0.2,3.2-0.7c0.9-0.5,1.4-1.4,1.4-2.4
			c0-1.8-1.8-3.1-4.5-3.1c-2.8,0-4.5,1.3-4.5,3.1C770.5,330.9,772.2,332.1,774.9,332.1z"/>
	</g>
	<g class="st9">
		<path class="st11" d="M770.2,221.3h-2.5v-0.6c1.8,0,2.4-0.4,2.7-1.5h0.6v9.3h-0.8V221.3z"/>
	</g>
	<g class="st9">
		<path class="st11" d="M773.5,223.8c0-2.8,1.9-4.7,4.7-4.7c2.7,0,4.7,1.9,4.7,4.7c0,2.8-1.9,4.7-4.7,4.7
			C775.4,228.5,773.5,226.5,773.5,223.8z M778.1,227.8c2.2,0,3.8-1.7,3.8-4c0-2.3-1.6-3.9-3.8-3.9c-2.2,0-3.8,1.6-3.8,3.9
			C774.3,226.1,775.9,227.8,778.1,227.8z"/>
	</g>
	<g class="st9">
		<path class="st11" d="M770.9,197.5h-2.5v-0.6c1.8,0,2.4-0.4,2.7-1.5h0.6v9.3h-0.8V197.5z"/>
		<path class="st11" d="M779.6,197.5h-2.5v-0.6c1.8,0,2.4-0.4,2.7-1.5h0.6v9.3h-0.8V197.5z"/>
	</g>
	<g class="st9">
		<path class="st11" d="M770.7,173.4h-2.5v-0.6c1.8,0,2.4-0.4,2.7-1.5h0.6v9.3h-0.8V173.4z"/>
	</g>
	<g class="st9">
		<path class="st11" d="M781.7,180.6h-8.1v-0.7l4.4-2.9c1.7-1.1,2.4-1.7,2.4-2.8c0-1.3-1.1-2.1-2.9-2.1c-1.6,0-3,0.8-3.3,2.2
			l-0.8-0.2c0.4-1.8,2-2.8,4.1-2.8c2.2,0,3.7,1.1,3.7,2.9c0,1.3-0.9,2.2-2.8,3.4l-3.5,2.3h6.7V180.6z"/>
	</g>
	<g class="st9">
		<path class="st11" d="M770.7,149.3h-2.5v-0.6c1.8,0,2.4-0.4,2.7-1.5h0.6v9.3h-0.8V149.3z"/>
	</g>
	<g class="st9">
		<path class="st11" d="M773.2,153.9l0.8-0.2c0.6,1.6,1.9,2.1,3.6,2.1c1.9,0,3.2-0.8,3.2-2c0-1.1-0.8-1.8-2.7-1.8h-1.8v-0.8h1.8
			c1.6,0,2.5-0.6,2.5-1.6c0-1-1.1-1.8-2.9-1.8c-1.7,0-3,0.6-3.4,2l-0.8-0.2c0.6-1.7,2.1-2.6,4.2-2.6c2.3,0,3.7,1.1,3.7,2.5
			c0,0.9-0.6,1.6-1.7,2c1.3,0.3,2,1.1,2,2.2c0,1.6-1.6,2.7-4,2.7C775.4,156.6,773.9,155.8,773.2,153.9z"/>
	</g>
	<g class="st9">
		<path class="st11" d="M770.5,125.2H768v-0.6c1.8,0,2.4-0.4,2.7-1.5h0.6v9.3h-0.8V125.2z"/>
	</g>
	<g class="st9">
		<path class="st11" d="M779.7,130.1h-6.8v-0.7l6.6-6.3h1v6.2h1.6v0.8h-1.6v2.3h-0.9V130.1z M779.7,129.3V124l-5.7,5.4H779.7z"/>
	</g>
	<g class="st9">
		<path class="st11" d="M770.5,101.1h-2.5v-0.6c1.8,0,2.4-0.4,2.7-1.5h0.6v9.3h-0.8V101.1z"/>
		<path class="st11" d="M773.4,105.9l0.9-0.2c0.6,1.5,1.9,2,3.5,2c2,0,3.3-1,3.3-2.4c0-1.5-1.3-2.4-3.3-2.4c-1.5,0-2.6,0.4-3.2,1.1
			l-0.7-0.1L775,99h6.5v0.7h-5.9l-0.7,3.1c0.8-0.6,2-0.8,3-0.8c2.5,0,4.1,1.2,4.1,3.1c0,1.8-1.7,3.1-4.2,3.1
			C775.6,108.4,774,107.6,773.4,105.9z"/>
	</g>
	<g class="st9">
		<path class="st11" d="M770.6,77.4h-2.5v-0.6c1.8,0,2.4-0.4,2.7-1.5h0.6v9.3h-0.8V77.4z"/>
	</g>
	<g class="st9">
		<path class="st11" d="M773.3,81.5c0-1.1,0.6-2,1.9-3.2l3.2-3h1.1l-3.8,3.5c0.7-0.3,1.4-0.4,2.2-0.4c2.4,0,4.1,1.2,4.1,3.1
			c0,1.9-1.8,3.2-4.4,3.2C775,84.6,773.3,83.4,773.3,81.5z M777.6,83.9c2.1,0,3.5-1,3.5-2.4c0-1.4-1.4-2.4-3.4-2.4
			c-1,0-1.8,0.2-2.5,0.5c-0.7,0.4-1.1,1.1-1.1,1.9C774.2,82.9,775.6,83.9,777.6,83.9z"/>
	</g>
	<g class="st9">
		<path class="st11" d="M745.6,54.7h-2.5v-0.6c1.8,0,2.4-0.4,2.7-1.5h0.6v9.3h-0.8V54.7z"/>
	</g>
	<g class="st9">
		<path class="st11" d="M755,53.3h-7v-0.8h8v0.7l-5.7,8.6h-1L755,53.3z"/>
	</g>
	<g class="st9">
		<path class="st11" d="M712.4,54.3h-2.5v-0.6c1.8,0,2.4-0.4,2.7-1.5h0.6v9.3h-0.8V54.3z"/>
	</g>
	<g class="st9">
		<path class="st11" d="M715.4,58.9c0-1.2,1.1-2.1,2.6-2.3c-1.1-0.3-2-1-2-2c0-1.4,1.4-2.4,3.8-2.4c2.4,0,3.8,1,3.8,2.4
			c0,1-0.9,1.8-2,2c1.5,0.2,2.6,1.1,2.6,2.3c0,1.6-1.6,2.7-4.5,2.7C717,61.6,715.4,60.5,715.4,58.9z M719.9,60.8
			c2.4,0,3.6-0.8,3.6-2c0-1.2-1.6-1.9-3.6-1.9c-2,0-3.6,0.6-3.6,1.9C716.3,60,717.5,60.8,719.9,60.8z M719.9,56.2c1.7,0,3-0.6,3-1.7
			c0-1-1.1-1.7-3-1.7c-1.9,0-3,0.7-3,1.7C716.9,55.6,718.3,56.2,719.9,56.2z"/>
	</g>
	<g class="st9">
		<path class="st11" d="M429,139.8h-2.5v-0.6c1.8,0,2.4-0.4,2.7-1.5h0.6v9.3H429V139.8z"/>
	</g>
	<g class="st9">
		<path class="st11" d="M440.3,140.7c0,1.1-0.6,2-1.9,3.2l-3.2,3h-1.1l3.8-3.5c-0.7,0.3-1.4,0.4-2.2,0.4c-2.4,0-4.1-1.2-4.1-3.1
			c0-1.9,1.8-3.2,4.4-3.2C438.6,137.6,440.3,138.8,440.3,140.7z M435.9,143.1c1,0,1.8-0.2,2.5-0.5c0.7-0.4,1.1-1.1,1.1-1.9
			c0-1.4-1.4-2.4-3.5-2.4c-2.1,0-3.5,1-3.5,2.4C432.5,142.1,433.8,143.1,435.9,143.1z"/>
	</g>
	<g class="st9">
		<path class="st11" d="M434.8,193.4h-8.1v-0.7l4.4-2.9c1.7-1.1,2.4-1.7,2.4-2.8c0-1.3-1.1-2.1-2.9-2.1c-1.6,0-3,0.8-3.3,2.2
			l-0.8-0.2c0.4-1.8,2-2.8,4.1-2.8c2.2,0,3.7,1.1,3.7,2.9c0,1.3-0.9,2.2-2.8,3.4l-3.5,2.3h6.7V193.4z"/>
	</g>
	<g class="st9">
		<path class="st11" d="M438.3,186.3h-2.5v-0.6c1.8,0,2.4-0.4,2.7-1.5h0.6v9.3h-0.8V186.3z"/>
	</g>
	<g class="st9">
		<path class="st11" d="M432.4,169.4h-6.9v-0.6l3.8-2.5c1.4-0.9,2-1.5,2-2.4c0-1.1-1-1.8-2.4-1.8c-1.4,0-2.5,0.6-2.8,1.9l-0.7-0.1
			c0.4-1.5,1.7-2.4,3.5-2.4c1.9,0,3.2,1,3.2,2.5c0,1.1-0.7,1.9-2.4,2.9l-3,2h5.7V169.4z"/>
	</g>
	<g class="st9">
		<path class="st11" d="M433.5,165.4c0-2.4,1.7-4,4-4c2.3,0,4,1.7,4,4c0,2.4-1.7,4.1-4,4.1C435.2,169.5,433.5,167.8,433.5,165.4z
			 M437.5,168.9c1.9,0,3.3-1.4,3.3-3.4c0-2-1.4-3.4-3.3-3.4c-1.9,0-3.3,1.4-3.3,3.4C434.2,167.4,435.6,168.9,437.5,168.9z"/>
	</g>
	<g class="st9">
		<path class="st11" d="M433.1,216.3h-6.9v-0.6l3.8-2.5c1.4-0.9,2-1.5,2-2.4c0-1.1-1-1.8-2.4-1.8c-1.4,0-2.5,0.6-2.8,1.9l-0.7-0.1
			c0.4-1.5,1.7-2.4,3.5-2.4c1.9,0,3.2,1,3.2,2.5c0,1.1-0.7,1.9-2.4,2.9l-3,2h5.7V216.3z"/>
	</g>
	<g class="st9">
		<path class="st11" d="M441,216.3h-6.9v-0.6l3.8-2.5c1.4-0.9,2-1.5,2-2.4c0-1.1-1-1.8-2.4-1.8c-1.4,0-2.5,0.6-2.8,1.9l-0.7-0.1
			c0.4-1.5,1.7-2.4,3.5-2.4c1.9,0,3.2,1,3.2,2.5c0,1.1-0.7,1.9-2.4,2.9l-3,2h5.7V216.3z"/>
	</g>
	<g class="st9">
		<path class="st11" d="M433,239.7h-6.9v-0.6l3.8-2.5c1.4-0.9,2-1.5,2-2.4c0-1.1-1-1.8-2.4-1.8c-1.4,0-2.5,0.6-2.8,1.9l-0.7-0.1
			c0.4-1.5,1.7-2.4,3.5-2.4c1.9,0,3.2,1,3.2,2.5c0,1.1-0.7,1.9-2.4,2.9l-3,2h5.7V239.7z"/>
		<path class="st11" d="M433.7,237.6l0.7-0.2c0.5,1.4,1.6,1.8,3.1,1.8c1.6,0,2.7-0.7,2.7-1.7c0-0.9-0.7-1.5-2.3-1.5h-1.5v-0.6h1.5
			c1.4,0,2.1-0.5,2.1-1.4c0-0.9-1-1.5-2.5-1.5c-1.5,0-2.5,0.5-2.9,1.7l-0.7-0.1c0.5-1.5,1.8-2.2,3.6-2.2c2,0,3.2,0.9,3.2,2.2
			c0,0.8-0.5,1.4-1.5,1.7c1.1,0.3,1.7,1,1.7,1.9c0,1.4-1.4,2.3-3.5,2.3C435.6,239.8,434.3,239.1,433.7,237.6z"/>
	</g>
	<g class="st9">
		<path class="st11" d="M432.9,262.8H426v-0.6l3.8-2.5c1.4-0.9,2-1.5,2-2.4c0-1.1-1-1.8-2.4-1.8c-1.4,0-2.5,0.6-2.8,1.9l-0.7-0.1
			c0.4-1.5,1.7-2.4,3.5-2.4c1.9,0,3.2,1,3.2,2.5c0,1.1-0.7,1.9-2.4,2.9l-3,2h5.7V262.8z"/>
	</g>
	<g class="st9">
		<path class="st11" d="M439.1,260.9h-5.8v-0.6l5.7-5.4h0.9v5.3h1.4v0.7h-1.4v1.9h-0.7V260.9z M439.1,260.2v-4.6l-4.9,4.6H439.1z"/>
	</g>
	<g class="st9">
		<path class="st11" d="M484.4,335.6h-6.9V335l3.8-2.5c1.4-0.9,2-1.5,2-2.4c0-1.1-1-1.8-2.4-1.8c-1.4,0-2.5,0.6-2.8,1.9l-0.7-0.1
			c0.4-1.5,1.7-2.4,3.5-2.4c1.9,0,3.2,1,3.2,2.5c0,1.1-0.7,1.9-2.4,2.9l-3,2h5.7V335.6z"/>
	</g>
	<g class="st9">
		<path class="st11" d="M485.2,333.6l0.7-0.2c0.5,1.3,1.6,1.7,3,1.7c1.7,0,2.9-0.9,2.9-2c0-1.3-1.1-2.1-2.8-2.1
			c-1.3,0-2.2,0.3-2.8,0.9l-0.6-0.1l0.9-4.1h5.6v0.6H487l-0.6,2.7c0.7-0.5,1.7-0.7,2.6-0.7c2.2,0,3.5,1,3.5,2.7
			c0,1.5-1.5,2.7-3.6,2.7C487,335.7,485.7,335,485.2,333.6z"/>
	</g>
	<g class="st9">
		<path class="st11" d="M484.4,358.6h-6.9v-0.6l3.8-2.5c1.4-0.9,2-1.5,2-2.4c0-1.1-1-1.8-2.4-1.8c-1.4,0-2.5,0.6-2.8,1.9l-0.7-0.1
			c0.4-1.5,1.7-2.4,3.5-2.4c1.9,0,3.2,1,3.2,2.5c0,1.1-0.7,1.9-2.4,2.9l-3,2h5.7V358.6z"/>
	</g>
	<g class="st9">
		<path class="st11" d="M485.2,356c0-1,0.5-1.7,1.6-2.7l2.8-2.6h0.9l-3.3,3c0.6-0.3,1.2-0.3,1.9-0.3c2.1,0,3.5,1,3.5,2.6
			s-1.5,2.7-3.7,2.7C486.7,358.7,485.2,357.7,485.2,356z M488.9,358.1c1.8,0,3-0.8,3-2.1c0-1.2-1.2-2-2.9-2c-0.9,0-1.6,0.1-2.1,0.5
			c-0.6,0.4-1,0.9-1,1.6C485.9,357.3,487.2,358.1,488.9,358.1z"/>
	</g>
	<g class="st9">
		<path class="st11" d="M484.9,381.7H478v-0.6l3.8-2.5c1.4-0.9,2-1.5,2-2.4c0-1.1-1-1.8-2.4-1.8c-1.4,0-2.5,0.6-2.8,1.9l-0.7-0.1
			c0.4-1.5,1.7-2.4,3.5-2.4c1.9,0,3.2,1,3.2,2.5c0,1.1-0.7,1.9-2.4,2.9l-3,2h5.7V381.7z"/>
	</g>
	<g class="st9">
		<path class="st11" d="M491.5,374.4h-6v-0.7h6.9v0.6l-4.8,7.4h-0.8L491.5,374.4z"/>
	</g>
	<g class="st9">
		<path class="st11" d="M484.2,405.1h-6.9v-0.6l3.8-2.5c1.4-0.9,2-1.5,2-2.4c0-1.1-1-1.8-2.4-1.8c-1.4,0-2.5,0.6-2.8,1.9l-0.7-0.1
			c0.4-1.5,1.7-2.4,3.5-2.4c1.9,0,3.2,1,3.2,2.5c0,1.1-0.7,1.9-2.4,2.9l-3,2h5.7V405.1z"/>
	</g>
	<g class="st9">
		<path class="st11" d="M485.1,402.8c0-1,1-1.8,2.2-2c-1-0.2-1.7-0.8-1.7-1.8c0-1.2,1.2-2,3.3-2c2.1,0,3.3,0.9,3.3,2
			c0,0.9-0.7,1.5-1.7,1.8c1.2,0.2,2.2,0.9,2.2,2c0,1.4-1.4,2.3-3.8,2.3S485.1,404.2,485.1,402.8z M488.9,404.5c2,0,3.1-0.7,3.1-1.7
			c0-1.1-1.4-1.6-3.1-1.6s-3.1,0.5-3.1,1.6C485.8,403.8,486.9,404.5,488.9,404.5z M488.9,400.6c1.4,0,2.6-0.5,2.6-1.5
			c0-0.9-0.9-1.4-2.6-1.4c-1.6,0-2.6,0.6-2.6,1.4C486.4,400,487.5,400.6,488.9,400.6z"/>
	</g>
	<g class="st9">
		<path class="st11" d="M484.4,427.7h-6.9v-0.6l3.8-2.5c1.4-0.9,2-1.5,2-2.4c0-1.1-1-1.8-2.4-1.8c-1.4,0-2.5,0.6-2.8,1.9l-0.7-0.1
			c0.4-1.5,1.7-2.4,3.5-2.4c1.9,0,3.2,1,3.2,2.5c0,1.1-0.7,1.9-2.4,2.9l-3,2h5.7V427.7z"/>
	</g>
	<g class="st9">
		<path class="st11" d="M492.7,422.4c0,1-0.5,1.7-1.6,2.7l-2.7,2.6h-0.9l3.3-3c-0.6,0.3-1.2,0.3-1.9,0.3c-2.1,0-3.5-1-3.5-2.6
			s1.5-2.7,3.7-2.7C491.2,419.7,492.7,420.8,492.7,422.4z M488.9,424.5c0.9,0,1.6-0.1,2.1-0.5c0.6-0.4,1-0.9,1-1.6
			c0-1.2-1.2-2.1-3-2.1c-1.8,0-3,0.8-3,2.1C486,423.7,487.1,424.5,488.9,424.5z"/>
	</g>
	<g class="st9">
		<path class="st11" d="M476.5,448.2l0.7-0.2c0.5,1.4,1.6,1.8,3.1,1.8c1.6,0,2.7-0.7,2.7-1.7c0-0.9-0.7-1.5-2.3-1.5h-1.5V446h1.5
			c1.4,0,2.1-0.5,2.1-1.4c0-0.9-1-1.5-2.5-1.5c-1.5,0-2.5,0.5-2.9,1.7l-0.7-0.1c0.5-1.5,1.8-2.2,3.6-2.2c2,0,3.2,0.9,3.2,2.2
			c0,0.8-0.5,1.4-1.5,1.7c1.1,0.3,1.7,1,1.7,1.9c0,1.4-1.4,2.3-3.5,2.3C478.3,450.5,477,449.8,476.5,448.2z"/>
	</g>
	<g class="st9">
		<path class="st11" d="M485.3,446.4c0-2.4,1.7-4,4-4c2.3,0,4,1.7,4,4c0,2.4-1.7,4.1-4,4.1C487,450.5,485.3,448.8,485.3,446.4z
			 M489.3,449.8c1.9,0,3.3-1.4,3.3-3.4c0-2-1.4-3.4-3.3-3.4s-3.3,1.4-3.3,3.4C486,448.4,487.4,449.8,489.3,449.8z"/>
	</g>
	<g class="st9">
		<path class="st11" d="M477.7,471.8l0.7-0.2c0.5,1.4,1.6,1.8,3.1,1.8c1.6,0,2.7-0.7,2.7-1.7c0-0.9-0.7-1.5-2.3-1.5h-1.5v-0.6h1.5
			c1.4,0,2.1-0.5,2.1-1.4c0-0.9-1-1.5-2.5-1.5c-1.5,0-2.5,0.5-2.9,1.7l-0.7-0.1c0.5-1.5,1.8-2.2,3.6-2.2c2,0,3.2,0.9,3.2,2.2
			c0,0.8-0.5,1.4-1.5,1.7c1.1,0.3,1.7,1,1.7,1.9c0,1.4-1.4,2.3-3.5,2.3C479.6,474.1,478.3,473.4,477.7,471.8z"/>
	</g>
	<g class="st9">
		<path class="st11" d="M489.1,467.9H487v-0.5c1.5,0,2.1-0.3,2.3-1.3h0.5v7.9h-0.7V467.9z"/>
	</g>
	<g class="st9">
		<path class="st11" d="M477.3,494.7l0.7-0.2c0.5,1.4,1.6,1.8,3.1,1.8c1.6,0,2.7-0.7,2.7-1.7c0-0.9-0.7-1.5-2.3-1.5h-1.5v-0.6h1.5
			c1.4,0,2.1-0.5,2.1-1.4c0-0.9-1-1.5-2.5-1.5c-1.5,0-2.5,0.5-2.9,1.7l-0.7-0.1c0.5-1.5,1.8-2.2,3.6-2.2c2,0,3.2,0.9,3.2,2.2
			c0,0.8-0.5,1.4-1.5,1.7c1.1,0.3,1.7,1,1.7,1.9c0,1.4-1.4,2.3-3.5,2.3C479.1,496.9,477.8,496.3,477.3,494.7z"/>
	</g>
	<g class="st9">
		<path class="st11" d="M492.6,496.9h-6.9v-0.6l3.8-2.5c1.4-0.9,2-1.5,2-2.4c0-1.1-1-1.8-2.4-1.8c-1.4,0-2.5,0.6-2.8,1.9l-0.7-0.1
			c0.4-1.5,1.7-2.4,3.5-2.4c1.9,0,3.2,1,3.2,2.5c0,1.1-0.7,1.9-2.4,2.9l-3,2h5.7V496.9z"/>
	</g>
	<g class="st9">
		<path class="st11" d="M477.1,517.2l0.7-0.2c0.5,1.4,1.6,1.8,3.1,1.8c1.6,0,2.7-0.7,2.7-1.7c0-0.9-0.7-1.5-2.3-1.5h-1.5v-0.6h1.5
			c1.4,0,2.1-0.5,2.1-1.4c0-0.9-1-1.5-2.5-1.5c-1.5,0-2.5,0.5-2.9,1.7l-0.7-0.1c0.5-1.5,1.8-2.2,3.6-2.2c2,0,3.2,0.9,3.2,2.2
			c0,0.8-0.5,1.4-1.5,1.7c1.1,0.3,1.7,1,1.7,1.9c0,1.4-1.4,2.3-3.5,2.3C479,519.5,477.7,518.8,477.1,517.2z"/>
	</g>
	<g class="st9">
		<path class="st11" d="M485.5,517.2l0.7-0.2c0.5,1.4,1.6,1.8,3.1,1.8c1.6,0,2.7-0.7,2.7-1.7c0-0.9-0.7-1.5-2.3-1.5h-1.5v-0.6h1.5
			c1.4,0,2.1-0.5,2.1-1.4c0-0.9-1-1.5-2.5-1.5c-1.5,0-2.5,0.5-2.9,1.7l-0.7-0.1c0.5-1.5,1.8-2.2,3.6-2.2c2,0,3.2,0.9,3.2,2.2
			c0,0.8-0.5,1.4-1.5,1.7c1.1,0.3,1.7,1,1.7,1.9c0,1.4-1.4,2.3-3.5,2.3C487.3,519.5,486,518.8,485.5,517.2z"/>
	</g>
	<g class="st9">
		<path class="st11" d="M477,540.1l0.7-0.2c0.5,1.4,1.6,1.8,3.1,1.8c1.6,0,2.7-0.7,2.7-1.7c0-0.9-0.7-1.5-2.3-1.5h-1.5v-0.6h1.5
			c1.4,0,2.1-0.5,2.1-1.4c0-0.9-1-1.5-2.5-1.5c-1.5,0-2.5,0.5-2.9,1.7l-0.7-0.1c0.5-1.5,1.8-2.2,3.6-2.2c2,0,3.2,0.9,3.2,2.2
			c0,0.8-0.5,1.4-1.5,1.7c1.1,0.3,1.7,1,1.7,1.9c0,1.4-1.4,2.3-3.5,2.3C478.8,542.3,477.5,541.7,477,540.1z"/>
	</g>
	<g class="st9">
		<path class="st11" d="M491,540.3h-5.8v-0.6l5.7-5.4h0.9v5.3h1.4v0.7h-1.4v1.9H491V540.3z M491,539.7v-4.6l-4.9,4.6H491z"/>
	</g>
	<g class="st9">
		<path class="st11" d="M476.7,563l0.7-0.2c0.5,1.4,1.6,1.8,3.1,1.8c1.6,0,2.7-0.7,2.7-1.7c0-0.9-0.7-1.5-2.3-1.5h-1.5v-0.6h1.5
			c1.4,0,2.1-0.5,2.1-1.4c0-0.9-1-1.5-2.5-1.5c-1.5,0-2.5,0.5-2.9,1.7l-0.7-0.1c0.5-1.5,1.8-2.2,3.6-2.2c2,0,3.2,0.9,3.2,2.2
			c0,0.8-0.5,1.4-1.5,1.7c1.1,0.3,1.7,1,1.7,1.9c0,1.4-1.4,2.3-3.5,2.3C478.6,565.2,477.3,564.5,476.7,563z"/>
	</g>
	<g class="st9">
		<path class="st11" d="M485.2,563.1l0.7-0.2c0.5,1.3,1.6,1.7,3,1.7c1.7,0,2.9-0.9,2.9-2c0-1.3-1.1-2.1-2.8-2.1
			c-1.3,0-2.2,0.3-2.8,0.9l-0.6-0.1l0.9-4.1h5.6v0.6h-5.1l-0.6,2.7c0.7-0.5,1.7-0.7,2.6-0.7c2.2,0,3.5,1,3.5,2.7
			c0,1.5-1.5,2.7-3.6,2.7C487,565.2,485.7,564.5,485.2,563.1z"/>
	</g>
	<g class="st9">
		<path class="st11" d="M308.8,607.2h-6v-0.7h6.9v0.6l-4.8,7.4H304L308.8,607.2z"/>
	</g>
	<g class="st9">
		<path class="st11" d="M310.4,610.5c0-2.4,1.7-4,4-4c2.3,0,4,1.7,4,4c0,2.4-1.7,4.1-4,4.1C312,614.6,310.4,612.9,310.4,610.5z
			 M314.3,613.9c1.9,0,3.3-1.4,3.3-3.4c0-2-1.4-3.4-3.3-3.4c-1.9,0-3.3,1.4-3.3,3.4C311.1,612.5,312.4,613.9,314.3,613.9z"/>
	</g>
	<g class="st9">
		<path class="st11" d="M309.4,670.4h-6v-0.7h6.9v0.6l-4.8,7.4h-0.8L309.4,670.4z"/>
	</g>
	<g class="st9">
		<path class="st11" d="M317.9,677.7H311v-0.6l3.8-2.5c1.4-0.9,2-1.5,2-2.4c0-1.1-1-1.8-2.4-1.8c-1.4,0-2.5,0.6-2.8,1.9l-0.7-0.1
			c0.4-1.5,1.7-2.4,3.5-2.4c1.9,0,3.2,1,3.2,2.5c0,1.1-0.7,1.9-2.4,2.9l-3,2h5.7V677.7z"/>
	</g>
	<g class="st9">
		<path class="st11" d="M309.4,762.6h-6v-0.7h6.9v0.6l-4.8,7.4h-0.8L309.4,762.6z"/>
	</g>
	<g class="st9">
		<path class="st11" d="M310.6,767.7l0.7-0.2c0.5,1.4,1.6,1.8,3.1,1.8c1.6,0,2.7-0.7,2.7-1.7c0-0.9-0.7-1.5-2.3-1.5h-1.5v-0.6h1.5
			c1.4,0,2.1-0.5,2.1-1.4c0-0.9-1-1.5-2.5-1.5c-1.5,0-2.5,0.5-2.9,1.7l-0.7-0.1c0.5-1.5,1.8-2.2,3.6-2.2c2,0,3.2,0.9,3.2,2.2
			c0,0.8-0.5,1.4-1.5,1.7c1.1,0.3,1.7,1,1.7,1.9c0,1.4-1.4,2.3-3.5,2.3C312.4,769.9,311.1,769.3,310.6,767.7z"/>
	</g>
	<g class="st9">
		<path class="st11" d="M464.1,762.6h-6v-0.7h6.9v0.6l-4.8,7.4h-0.8L464.1,762.6z"/>
	</g>
	<g class="st9">
		<path class="st11" d="M465.3,767.8l0.7-0.2c0.5,1.3,1.6,1.7,3,1.7c1.7,0,2.9-0.9,2.9-2c0-1.3-1.1-2.1-2.8-2.1
			c-1.3,0-2.2,0.3-2.7,0.9l-0.6-0.1l0.9-4.1h5.6v0.6h-5.1l-0.6,2.7c0.7-0.5,1.7-0.7,2.6-0.7c2.2,0,3.5,1,3.5,2.7
			c0,1.5-1.5,2.7-3.6,2.7C467.2,769.9,465.9,769.3,465.3,767.8z"/>
	</g>
	<g class="st9">
		<path class="st11" d="M741.1,604.5h1.7l1.9,6.3l3-4.7h0.4l3.1,4.6l1.9-6.2h1.7l-2.5,7.9h-1.7l-2.6-4l-2.6,4h-1.8L741.1,604.5z"/>
	</g>
	<g class="st9">
		<path class="st11" d="M757.5,607.2h-2.4v-1.1c1.6,0,2.3-0.4,2.6-1.5h1.3v7.9h-1.6V607.2z"/>
	</g>
	<g class="st9">
		<path class="st11" d="M726.9,309.1h1.7l1.9,6.3l3-4.7h0.4l3.1,4.6l1.9-6.2h1.7l-2.5,7.9h-1.7l-2.6-4l-2.6,4h-1.8L726.9,309.1z"/>
		<path class="st11" d="M749.1,317h-7.8v-1.2l4-2.2c1.4-0.8,1.9-1.2,1.9-1.9c0-0.8-0.8-1.4-2.1-1.4c-1.3,0-2.2,0.5-2.5,1.5l-1.6-0.3
			c0.5-1.7,2-2.5,4.1-2.5c2.3,0,3.7,1.1,3.7,2.7c0,1.3-1.1,2.1-2.7,2.9l-2.1,1.1h5V317z"/>
	</g>
	<g class="st9">
		<path class="st11" d="M739,240.3h1.7l1.9,6.3l3-4.7h0.4l3.1,4.6l1.9-6.2h1.7l-2.5,7.9h-1.7l-2.6-4l-2.6,4h-1.8L739,240.3z"/>
	</g>
	<g class="st9">
		<path class="st11" d="M752.9,246.2l1.6-0.4c0.3,0.9,1.2,1.3,2.6,1.3c1.6,0,2.3-0.5,2.3-1.2c0-0.6-0.5-1-1.7-1H756v-1.3h1.7
			c1.1,0,1.7-0.4,1.7-1c0-0.6-0.7-1.1-2.1-1.1c-1.4,0-2.2,0.4-2.5,1.3l-1.6-0.3c0.5-1.5,2.1-2.3,4.1-2.3c2.3,0,3.7,1,3.7,2.3
			c0,0.7-0.5,1.3-1.3,1.6c1.1,0.3,1.5,1,1.5,1.8c0,1.5-1.6,2.5-4,2.5C754.9,248.4,753.4,247.7,752.9,246.2z"/>
	</g>
	<g class="st9">
		<path class="st11" d="M561,122.4h1.7l1.9,6.3l3-4.7h0.4l3.1,4.6l1.9-6.2h1.7l-2.5,7.9h-1.7l-2.6-4l-2.6,4h-1.8L561,122.4z"/>
	</g>
	<g class="st9">
		<path class="st11" d="M574.8,127.7c0-0.9,0.4-1.5,1.4-2.5l3-2.9h2l-3,2.8c0.3-0.1,0.7-0.1,1-0.1c2.4,0,3.8,1,3.8,2.6
			c0,1.7-1.6,2.7-4.2,2.7C576.3,130.4,574.8,129.4,574.8,127.7z M578.9,129.2c1.6,0,2.5-0.6,2.5-1.5c0-0.9-0.9-1.4-2.5-1.4
			c-0.7,0-1.3,0.1-1.7,0.3c-0.5,0.2-0.8,0.6-0.8,1.1C576.4,128.6,577.3,129.2,578.9,129.2z"/>
	</g>
	<g class="st9">
		<path class="st11" d="M651.8,76.6h1.7l1.9,6.3l3-4.7h0.4l3.1,4.6l1.9-6.2h1.7l-2.5,7.9h-1.7l-2.6-4l-2.6,4h-1.8L651.8,76.6z"/>
	</g>
	<g class="st9">
		<path class="st11" d="M671,82.8h-5.7v-1.2l5.4-5.1h1.9v4.9h1.5v1.3h-1.5v1.7H671V82.8z M671,81.5v-3.4l-3.7,3.4H671z"/>
	</g>
	<g class="st9">
		<path class="st11" d="M583.2,76.6h1.7l1.9,6.3l3-4.7h0.4l3.1,4.6l1.9-6.2h1.7l-2.5,7.9h-1.7l-2.6-4l-2.6,4h-1.8L583.2,76.6z"/>
		<path class="st11" d="M597.3,82.6l1.6-0.5c0.4,1,1.3,1.3,2.5,1.3c1.5,0,2.3-0.6,2.3-1.4c0-0.9-0.8-1.4-2.3-1.4
			c-1.2,0-1.9,0.3-2.4,0.8l-1.4-0.4l1-4.2h6.3v1.3h-5.2l-0.5,1.8c0.7-0.4,1.5-0.5,2.4-0.5c2.3,0,3.6,1.1,3.6,2.7
			c0,1.6-1.4,2.8-4,2.8C599.5,84.6,598,84,597.3,82.6z"/>
	</g>
	<g class="st9">
		<path class="st11" d="M455.9,302.1h1.7l1.9,6.3l3-4.7h0.4l3.1,4.6l1.9-6.2h1.7l-2.5,7.9h-1.7l-2.6-4l-2.6,4h-1.8L455.9,302.1z"/>
		<path class="st11" d="M470.2,307.8c0-0.9,0.7-1.6,1.9-1.9c-0.8-0.3-1.3-0.9-1.3-1.7c0-1.2,1.3-2.2,3.7-2.2s3.7,0.9,3.7,2.2
			c0,0.8-0.5,1.4-1.3,1.7c1.2,0.3,1.8,1,1.8,1.9c0,1.4-1.4,2.4-4.2,2.4S470.2,309.2,470.2,307.8z M474.4,308.9
			c1.7,0,2.6-0.5,2.6-1.2c0-0.8-1-1.2-2.6-1.2c-1.6,0-2.6,0.4-2.6,1.2C471.8,308.4,472.7,308.9,474.4,308.9z M474.4,305.3
			c1.3,0,2.1-0.4,2.1-1c0-0.6-0.7-1-2.1-1s-2.1,0.4-2.1,1C472.3,304.9,473.1,305.3,474.4,305.3z"/>
	</g>
	<g class="st9">
		<path class="st11" d="M593.5,157.5h1.7l1.9,6.3l3-4.7h0.4l3.1,4.6l1.9-6.2h1.7l-2.5,7.9H603l-2.6-4l-2.6,4H596L593.5,157.5z"/>
		<path class="st11" d="M613.3,158.9h-5.7v-1.4h7.5v1.2l-4.5,6.7h-1.8L613.3,158.9z"/>
	</g>
	<g class="st9">
		<path class="st11" d="M449,586.8h1.7l1.9,6.3l3-4.7h0.4l3.1,4.6l1.9-6.2h1.7l-2.5,7.9h-1.7l-2.6-4l-2.6,4h-1.8L449,586.8z"/>
		<path class="st11" d="M471.4,589.4c0,0.9-0.4,1.5-1.4,2.5l-3,2.9h-2l3-2.8c-0.3,0.1-0.7,0.1-1,0.1c-2.4,0-3.8-1-3.8-2.6
			c0-1.7,1.6-2.7,4.2-2.7C469.9,586.7,471.4,587.8,471.4,589.4z M467.2,590.9c0.7,0,1.3-0.1,1.7-0.3c0.5-0.2,0.8-0.6,0.8-1.1
			c0-0.9-1-1.5-2.5-1.5c-1.6,0-2.5,0.6-2.5,1.5C464.7,590.3,465.6,590.9,467.2,590.9z"/>
	</g>
	<g class="st9">
		<path class="st11" d="M464.3,804.1h-6v-0.7h6.9v0.6l-4.8,7.4h-0.8L464.3,804.1z"/>
	</g>
	<g class="st9">
		<path class="st11" d="M465.2,808.7c0-1,0.5-1.7,1.6-2.7l2.7-2.6h0.9l-3.3,3c0.6-0.3,1.2-0.3,1.9-0.3c2.1,0,3.5,1,3.5,2.6
			s-1.5,2.7-3.7,2.7C466.7,811.4,465.2,810.4,465.2,808.7z M468.9,810.8c1.8,0,3-0.8,3-2.1c0-1.2-1.2-2-2.9-2
			c-0.9,0-1.6,0.1-2.1,0.5c-0.6,0.4-1,0.9-1,1.6C465.9,810,467.1,810.8,468.9,810.8z"/>
	</g>
	<g class="st9">
		<path class="st11" d="M309.6,804.1h-6v-0.7h6.9v0.6l-4.8,7.4h-0.8L309.6,804.1z"/>
	</g>
	<g class="st9">
		<path class="st11" d="M315.9,809.4h-5.8v-0.6l5.7-5.4h0.9v5.3h1.4v0.7h-1.4v1.9h-0.7V809.4z M315.9,808.8v-4.6l-4.9,4.6H315.9z"/>
	</g>
	<g class="st9">
		<path class="st11" d="M310.6,638.8h-6v-0.7h6.9v0.6l-4.8,7.4h-0.8L310.6,638.8z"/>
	</g>
	<g class="st9">
		<path class="st11" d="M315,640h-2.1v-0.5c1.5,0,2.1-0.3,2.3-1.3h0.5v7.9H315V640z"/>
	</g>
	<g class="st9">
		<path class="st11" d="M639.3,562.6l0.9-0.2c0.6,1.6,1.9,2.1,3.7,2.1c2,0,3.3-0.8,3.3-2.1c0-1.1-0.8-1.8-2.8-1.8h-1.9v-0.8h1.8
			c1.6,0,2.6-0.6,2.6-1.7c0-1.1-1.2-1.9-3-1.9c-1.8,0-3,0.6-3.5,2l-0.9-0.2c0.6-1.8,2.1-2.6,4.4-2.6c2.4,0,3.8,1.1,3.8,2.6
			c0,1-0.6,1.7-1.8,2c1.4,0.3,2,1.1,2,2.3c0,1.6-1.6,2.8-4.2,2.8C641.5,565.3,640,564.5,639.3,562.6z"/>
	</g>
	<g class="st9">
		<path class="st11" d="M649.4,562.1c0-1.2,0.6-2,1.9-3.3l3.3-3.1h1.1l-3.9,3.6c0.7-0.3,1.5-0.4,2.2-0.4c2.5,0,4.2,1.2,4.2,3.2
			s-1.8,3.3-4.5,3.3C651.2,565.3,649.4,564.1,649.4,562.1z M653.9,564.6c2.2,0,3.6-1,3.6-2.5c0-1.5-1.4-2.4-3.5-2.4
			c-1.1,0-1.9,0.2-2.5,0.6c-0.7,0.4-1.1,1.1-1.1,1.9C650.3,563.6,651.7,564.6,653.9,564.6z"/>
	</g>
	<g class="st9">
		<path class="st11" d="M640,539.7l0.9-0.2c0.6,1.6,1.9,2.1,3.7,2.1c2,0,3.3-0.8,3.3-2.1c0-1.1-0.8-1.8-2.8-1.8h-1.9V537h1.8
			c1.6,0,2.6-0.6,2.6-1.7c0-1.1-1.2-1.9-3-1.9c-1.8,0-3,0.6-3.5,2l-0.9-0.2c0.6-1.8,2.1-2.6,4.4-2.6c2.4,0,3.8,1.1,3.8,2.6
			c0,1-0.6,1.7-1.8,2c1.4,0.3,2,1.1,2,2.3c0,1.6-1.6,2.8-4.2,2.8C642.2,542.4,640.6,541.6,640,539.7z"/>
	</g>
	<g class="st9">
		<path class="st11" d="M656.7,533.6h-7.2v-0.8h8.3v0.7l-5.8,8.8h-1L656.7,533.6z"/>
	</g>
	<g class="st9">
		<path class="st11" d="M638.9,516.8l0.9-0.2c0.6,1.6,1.9,2.1,3.7,2.1c2,0,3.3-0.8,3.3-2.1c0-1.1-0.8-1.8-2.8-1.8h-1.9v-0.8h1.8
			c1.6,0,2.6-0.6,2.6-1.7c0-1.1-1.2-1.9-3-1.9c-1.8,0-3,0.6-3.5,2l-0.9-0.2c0.6-1.8,2.1-2.6,4.4-2.6c2.4,0,3.8,1.1,3.8,2.6
			c0,1-0.6,1.7-1.8,2c1.4,0.3,2,1.1,2,2.3c0,1.6-1.6,2.8-4.2,2.8C641.1,519.5,639.6,518.7,638.9,516.8z"/>
	</g>
	<g class="st9">
		<path class="st11" d="M649.4,516.7c0-1.2,1.2-2.1,2.7-2.4c-1.1-0.3-2-1-2-2.1c0-1.4,1.5-2.5,3.9-2.5c2.5,0,3.9,1,3.9,2.5
			c0,1.1-0.9,1.8-2,2.1c1.5,0.3,2.7,1.1,2.7,2.4c0,1.6-1.6,2.8-4.6,2.8S649.4,518.4,649.4,516.7z M654,518.7c2.4,0,3.7-0.8,3.7-2
			c0-1.3-1.6-1.9-3.7-1.9s-3.7,0.7-3.7,1.9C650.3,517.9,651.6,518.7,654,518.7z M654,514c1.7,0,3.1-0.6,3.1-1.8c0-1-1.1-1.7-3.1-1.7
			c-2,0-3.1,0.7-3.1,1.7C651,513.4,652.4,514,654,514z"/>
	</g>
	<g class="st9">
		<path class="st11" d="M639.7,493.2l0.9-0.2c0.6,1.6,1.9,2.1,3.7,2.1c2,0,3.3-0.8,3.3-2.1c0-1.1-0.8-1.8-2.8-1.8h-1.9v-0.8h1.8
			c1.6,0,2.6-0.6,2.6-1.7c0-1.1-1.2-1.9-3-1.9c-1.8,0-3,0.6-3.5,2l-0.9-0.2c0.6-1.8,2.1-2.6,4.4-2.6c2.4,0,3.8,1.1,3.8,2.6
			c0,1-0.6,1.7-1.8,2c1.4,0.3,2,1.1,2,2.3c0,1.6-1.6,2.8-4.2,2.8C641.9,495.9,640.3,495.1,639.7,493.2z"/>
	</g>
	<g class="st9">
		<path class="st11" d="M658.5,489.4c0,1.2-0.6,2-1.9,3.3l-3.3,3.1h-1.1l3.9-3.6c-0.7,0.3-1.5,0.4-2.2,0.4c-2.5,0-4.2-1.2-4.2-3.2
			s1.8-3.3,4.5-3.3C656.7,486.2,658.5,487.5,658.5,489.4z M653.9,491.9c1.1,0,1.9-0.2,2.5-0.6c0.7-0.4,1.1-1.1,1.1-1.9
			c0-1.5-1.4-2.5-3.6-2.5c-2.2,0-3.6,1-3.6,2.5C650.4,490.9,651.8,491.9,653.9,491.9z"/>
	</g>
	<g class="st9">
		<path class="st11" d="M645.5,470.2h-7v-0.7l6.8-6.4h1.1v6.4h1.7v0.8h-1.7v2.3h-0.9V470.2z M645.5,469.4v-5.5l-5.8,5.5H645.5z"/>
	</g>
	<g class="st9">
		<path class="st11" d="M649.1,467.8c0-2.8,2-4.8,4.8-4.8c2.8,0,4.8,2,4.8,4.8c0,2.9-2,4.9-4.8,4.9
			C651.1,472.6,649.1,470.6,649.1,467.8z M653.9,471.9c2.3,0,3.9-1.7,3.9-4.1c0-2.4-1.7-4-3.9-4s-3.9,1.7-3.9,4
			C650,470.2,651.6,471.9,653.9,471.9z"/>
	</g>
	<g class="st9">
		<path class="st11" d="M646.9,447.3h-7v-0.7l6.8-6.4h1.1v6.4h1.7v0.8h-1.7v2.3h-0.9V447.3z M646.9,446.5V441l-5.8,5.5H646.9z"/>
	</g>
	<g class="st9">
		<path class="st11" d="M654.2,442.3h-2.5v-0.6c1.8,0,2.5-0.4,2.8-1.5h0.6v9.5h-0.9V442.3z"/>
	</g>
	<g class="st9">
		<path class="st11" d="M646,423.7h-7V423l6.8-6.4h1.1v6.4h1.7v0.8h-1.7v2.3H646V423.7z M646,422.9v-5.5l-5.8,5.5H646z"/>
	</g>
	<g class="st9">
		<path class="st11" d="M657.6,426h-8.3v-0.7l4.6-3c1.7-1.1,2.4-1.8,2.4-2.9c0-1.3-1.2-2.2-2.9-2.2c-1.7,0-3,0.8-3.4,2.3l-0.9-0.2
			c0.4-1.8,2-2.9,4.2-2.9c2.2,0,3.8,1.2,3.8,3c0,1.3-0.9,2.2-2.8,3.5l-3.6,2.4h6.9V426z"/>
	</g>
	<g class="st9">
		<path class="st11" d="M645.8,401.1h-7v-0.7l6.8-6.4h1.1v6.4h1.7v0.8h-1.7v2.3h-0.9V401.1z M645.8,400.4v-5.5l-5.8,5.5H645.8z"/>
	</g>
	<g class="st9">
		<path class="st11" d="M649.1,400.9l0.9-0.2c0.6,1.6,1.9,2.1,3.7,2.1c2,0,3.3-0.8,3.3-2.1c0-1.1-0.8-1.8-2.8-1.8h-1.9v-0.8h1.8
			c1.6,0,2.6-0.6,2.6-1.7c0-1.1-1.2-1.9-3-1.9c-1.8,0-3,0.6-3.5,2l-0.9-0.2c0.6-1.8,2.1-2.6,4.4-2.6c2.4,0,3.8,1.1,3.8,2.6
			c0,1-0.6,1.7-1.8,2c1.4,0.3,2,1.1,2,2.3c0,1.6-1.6,2.8-4.2,2.8C651.3,403.6,649.7,402.7,649.1,400.9z"/>
	</g>
	<g class="st9">
		<path class="st11" d="M645.5,377.5h-7v-0.7l6.8-6.4h1.1v6.4h1.7v0.8h-1.7v2.3h-0.9V377.5z M645.5,376.7v-5.5l-5.8,5.5H645.5z"/>
	</g>
	<g class="st9">
		<path class="st11" d="M655.8,377.5h-7v-0.7l6.8-6.4h1.1v6.4h1.7v0.8h-1.7v2.3h-0.9V377.5z M655.8,376.7v-5.5l-5.8,5.5H655.8z"/>
	</g>
	<g class="st9">
		<path class="st11" d="M645.8,354.3h-7v-0.7l6.8-6.4h1.1v6.4h1.7v0.8h-1.7v2.3h-0.9V354.3z M645.8,353.5V348l-5.8,5.5H645.8z"/>
		<path class="st11" d="M649.1,354.1l0.9-0.2c0.6,1.5,1.9,2,3.6,2c2.1,0,3.4-1.1,3.4-2.4c0-1.5-1.3-2.5-3.4-2.5
			c-1.6,0-2.6,0.4-3.3,1.1l-0.7-0.1l1.1-4.9h6.7v0.8h-6.1l-0.7,3.2c0.8-0.6,2-0.8,3.1-0.8c2.6,0,4.2,1.3,4.2,3.2
			c0,1.9-1.8,3.2-4.3,3.2C651.3,356.7,649.7,355.9,649.1,354.1z"/>
	</g>
	<g class="st9">
		<path class="st11" d="M645.7,331h-7v-0.7l6.8-6.4h1.1v6.4h1.7v0.8h-1.7v2.3h-0.9V331z M645.7,330.2v-5.5l-5.8,5.5H645.7z"/>
	</g>
	<g class="st9">
		<path class="st11" d="M649.3,330.2c0-1.2,0.6-2,1.9-3.3l3.3-3.1h1.1l-3.9,3.6c0.7-0.3,1.5-0.4,2.2-0.4c2.5,0,4.2,1.2,4.2,3.2
			s-1.8,3.3-4.5,3.3C651,333.4,649.3,332.2,649.3,330.2z M653.7,332.7c2.2,0,3.6-1,3.6-2.5c0-1.5-1.4-2.4-3.5-2.4
			c-1.1,0-1.9,0.2-2.5,0.6c-0.7,0.4-1.1,1.1-1.1,1.9C650.1,331.7,651.6,332.7,653.7,332.7z"/>
	</g>
	<g class="st9">
		<path class="st11" d="M646.6,307.8h-7V307l6.8-6.4h1.1v6.4h1.7v0.8h-1.7v2.3h-0.9V307.8z M646.6,307v-5.5l-5.8,5.5H646.6z"/>
	</g>
	<g class="st9">
		<path class="st11" d="M656.5,301.3h-7.2v-0.8h8.3v0.7l-5.8,8.8h-1L656.5,301.3z"/>
	</g>
	<g class="st9">
		<path class="st11" d="M645.5,284.6h-7v-0.7l6.8-6.4h1.1v6.4h1.7v0.8h-1.7v2.3h-0.9V284.6z M645.5,283.8v-5.5l-5.8,5.5H645.5z"/>
	</g>
	<g class="st9">
		<path class="st11" d="M649.1,284.3c0-1.2,1.2-2.1,2.7-2.4c-1.1-0.3-2-1-2-2.1c0-1.4,1.5-2.5,3.9-2.5c2.5,0,3.9,1,3.9,2.5
			c0,1.1-0.9,1.8-2,2.1c1.5,0.3,2.7,1.1,2.7,2.4c0,1.6-1.6,2.8-4.6,2.8S649.1,285.9,649.1,284.3z M653.7,286.3c2.4,0,3.7-0.8,3.7-2
			c0-1.3-1.6-1.9-3.7-1.9s-3.7,0.7-3.7,1.9C650,285.4,651.2,286.3,653.7,286.3z M653.7,281.6c1.7,0,3.1-0.6,3.1-1.8
			c0-1-1.1-1.7-3.1-1.7c-2,0-3.1,0.7-3.1,1.7C650.6,280.9,652,281.6,653.7,281.6z"/>
	</g>
	<g class="st9">
		<path class="st11" d="M645.9,261.2h-7v-0.7l6.8-6.4h1.1v6.4h1.7v0.8h-1.7v2.3h-0.9V261.2z M645.9,260.4v-5.5l-5.8,5.5H645.9z"/>
	</g>
	<g class="st9">
		<path class="st11" d="M657.9,257.2c0,1.2-0.6,2-1.9,3.3l-3.3,3.1h-1.1l3.9-3.6c-0.7,0.3-1.5,0.4-2.2,0.4c-2.5,0-4.2-1.2-4.2-3.2
			s1.8-3.3,4.5-3.3C656.2,253.9,657.9,255.2,657.9,257.2z M653.4,259.6c1.1,0,1.9-0.2,2.5-0.6c0.7-0.4,1.1-1.1,1.1-1.9
			c0-1.5-1.4-2.5-3.6-2.5c-2.2,0-3.6,1-3.6,2.5C649.9,258.7,651.3,259.6,653.4,259.6z"/>
	</g>
	<g class="st9">
		<path class="st11" d="M638.5,237.8l0.9-0.2c0.6,1.5,1.9,2,3.6,2c2.1,0,3.4-1.1,3.4-2.4c0-1.5-1.3-2.5-3.4-2.5
			c-1.6,0-2.6,0.4-3.3,1.1l-0.7-0.1l1.1-4.9h6.7v0.8h-6.1l-0.7,3.2c0.8-0.6,2-0.8,3.1-0.8c2.6,0,4.2,1.3,4.2,3.2
			c0,1.9-1.8,3.2-4.3,3.2C640.7,240.4,639.1,239.6,638.5,237.8z"/>
	</g>
	<g class="st9">
		<path class="st11" d="M648.6,235.5c0-2.8,2-4.8,4.8-4.8c2.8,0,4.8,2,4.8,4.8c0,2.9-2,4.9-4.8,4.9
			C650.6,240.4,648.6,238.4,648.6,235.5z M653.4,239.6c2.3,0,3.9-1.7,3.9-4.1c0-2.4-1.7-4-3.9-4s-3.9,1.7-3.9,4
			C649.5,237.9,651.1,239.6,653.4,239.6z"/>
	</g>
	<g class="st9">
		<path class="st11" d="M640.4,214.6l0.9-0.2c0.6,1.5,1.9,2,3.6,2c2.1,0,3.4-1.1,3.4-2.4c0-1.5-1.3-2.5-3.4-2.5
			c-1.6,0-2.6,0.4-3.3,1.1l-0.7-0.1l1.1-4.9h6.7v0.8h-6.1l-0.7,3.2c0.8-0.6,2-0.8,3.1-0.8c2.6,0,4.2,1.3,4.2,3.2
			c0,1.9-1.8,3.2-4.3,3.2C642.6,217.1,641.1,216.3,640.4,214.6z"/>
	</g>
	<g class="st9">
		<path class="st11" d="M654.4,209.7h-2.5v-0.6c1.8,0,2.5-0.4,2.8-1.5h0.6v9.5h-0.9V209.7z"/>
	</g>
	<g class="st9">
		<path class="st11" d="M639.4,191.3l0.9-0.2c0.6,1.5,1.9,2,3.6,2c2.1,0,3.4-1.1,3.4-2.4c0-1.5-1.3-2.5-3.4-2.5
			c-1.6,0-2.6,0.4-3.3,1.1l-0.7-0.1l1.1-4.9h6.7v0.8h-6.1l-0.7,3.2c0.8-0.6,2-0.8,3.1-0.8c2.6,0,4.2,1.3,4.2,3.2
			c0,1.9-1.8,3.2-4.3,3.2C641.6,193.9,640,193.1,639.4,191.3z"/>
	</g>
	<g class="st9">
		<path class="st11" d="M657.4,193.8h-8.3v-0.7l4.6-3c1.7-1.1,2.4-1.8,2.4-2.9c0-1.3-1.2-2.2-2.9-2.2c-1.7,0-3,0.8-3.4,2.3l-0.9-0.2
			c0.4-1.8,2-2.9,4.2-2.9c2.2,0,3.8,1.2,3.8,3c0,1.3-0.9,2.2-2.8,3.5l-3.6,2.4h6.9V193.8z"/>
	</g>
	<g class="st9">
		<path class="st11" d="M602.7,191.3l0.9-0.2c0.6,1.5,1.9,2,3.6,2c2.1,0,3.4-1.1,3.4-2.4c0-1.5-1.3-2.5-3.4-2.5
			c-1.6,0-2.6,0.4-3.3,1.1l-0.7-0.1l1.1-4.9h6.7v0.8h-6.1l-0.7,3.2c0.8-0.6,2-0.8,3.1-0.8c2.6,0,4.2,1.3,4.2,3.2
			c0,1.9-1.8,3.2-4.3,3.2C604.9,193.9,603.4,193.1,602.7,191.3z"/>
	</g>
	<g class="st9">
		<path class="st11" d="M612.4,191.2l0.9-0.2c0.6,1.6,1.9,2.1,3.7,2.1c2,0,3.3-0.8,3.3-2.1c0-1.1-0.8-1.8-2.8-1.8h-1.9v-0.8h1.8
			c1.6,0,2.6-0.6,2.6-1.7c0-1.1-1.2-1.9-3-1.9c-1.8,0-3,0.6-3.5,2l-0.9-0.2c0.6-1.8,2.1-2.6,4.4-2.6c2.4,0,3.8,1.1,3.8,2.6
			c0,1-0.6,1.7-1.8,2c1.4,0.3,2,1.1,2,2.3c0,1.6-1.6,2.8-4.2,2.8C614.6,193.9,613.1,193.1,612.4,191.2z"/>
	</g>
	<g class="st9">
		<path class="st11" d="M602.4,214.6l0.9-0.2c0.6,1.5,1.9,2,3.6,2c2.1,0,3.4-1.1,3.4-2.4c0-1.5-1.3-2.5-3.4-2.5
			c-1.6,0-2.6,0.4-3.3,1.1l-0.7-0.1l1.1-4.9h6.7v0.8h-6.1l-0.7,3.2c0.8-0.6,2-0.8,3.1-0.8c2.6,0,4.2,1.3,4.2,3.2
			c0,1.9-1.8,3.2-4.3,3.2C604.7,217.1,603.1,216.3,602.4,214.6z"/>
	</g>
	<g class="st9">
		<path class="st11" d="M619.2,214.7h-7V214l6.8-6.4h1.1v6.4h1.7v0.8h-1.7v2.3h-0.9V214.7z M619.2,213.9v-5.5l-5.8,5.5H619.2z"/>
	</g>
	<g class="st9">
		<path class="st11" d="M602.6,237.8l0.9-0.2c0.6,1.5,1.9,2,3.6,2c2.1,0,3.4-1.1,3.4-2.4c0-1.5-1.3-2.5-3.4-2.5
			c-1.6,0-2.6,0.4-3.3,1.1l-0.7-0.1l1.1-4.9h6.7v0.8h-6.1l-0.7,3.2c0.8-0.6,2-0.8,3.1-0.8c2.6,0,4.2,1.3,4.2,3.2
			c0,1.9-1.8,3.2-4.3,3.2C604.8,240.4,603.3,239.6,602.6,237.8z"/>
	</g>
	<g class="st9">
		<path class="st11" d="M612.7,237.8l0.9-0.2c0.6,1.5,1.9,2,3.6,2c2.1,0,3.4-1.1,3.4-2.4c0-1.5-1.3-2.5-3.4-2.5
			c-1.6,0-2.6,0.4-3.3,1.1l-0.7-0.1l1.1-4.9h6.7v0.8h-6.1l-0.7,3.2c0.8-0.6,2-0.8,3.1-0.8c2.6,0,4.2,1.3,4.2,3.2
			c0,1.9-1.8,3.2-4.3,3.2C614.9,240.4,613.3,239.6,612.7,237.8z"/>
	</g>
	<g class="st9">
		<path class="st11" d="M602.6,261.1l0.9-0.2c0.6,1.5,1.9,2,3.6,2c2.1,0,3.4-1.1,3.4-2.4c0-1.5-1.3-2.5-3.4-2.5
			c-1.6,0-2.6,0.4-3.3,1.1l-0.7-0.1l1.1-4.9h6.7v0.8h-6.1l-0.7,3.2c0.8-0.6,2-0.8,3.1-0.8c2.6,0,4.2,1.3,4.2,3.2
			c0,1.9-1.8,3.2-4.3,3.2C604.8,263.6,603.3,262.8,602.6,261.1z"/>
		<path class="st11" d="M612.5,260.4c0-1.2,0.6-2,1.9-3.3l3.3-3.1h1.1l-3.9,3.6c0.7-0.3,1.5-0.4,2.2-0.4c2.5,0,4.2,1.2,4.2,3.2
			s-1.8,3.3-4.5,3.3C614.2,263.6,612.5,262.4,612.5,260.4z M616.9,262.9c2.2,0,3.6-1,3.6-2.5c0-1.5-1.4-2.4-3.5-2.4
			c-1.1,0-1.9,0.2-2.5,0.6c-0.7,0.4-1.1,1.1-1.1,1.9C613.3,261.9,614.8,262.9,616.9,262.9z"/>
	</g>
	<g class="st9">
		<path class="st11" d="M603.2,284.3l0.9-0.2c0.6,1.5,1.9,2,3.6,2c2.1,0,3.4-1.1,3.4-2.4c0-1.5-1.3-2.5-3.4-2.5
			c-1.6,0-2.6,0.4-3.3,1.1l-0.7-0.1l1.1-4.9h6.7v0.8h-6.1l-0.7,3.2c0.8-0.6,2-0.8,3.1-0.8c2.6,0,4.2,1.3,4.2,3.2
			c0,1.9-1.8,3.2-4.3,3.2C605.4,286.9,603.9,286.1,603.2,284.3z"/>
	</g>
	<g class="st9">
		<path class="st11" d="M619.9,278.1h-7.2v-0.8h8.3v0.7l-5.8,8.8h-1L619.9,278.1z"/>
	</g>
	<g class="st9">
		<path class="st11" d="M602.3,307.6l0.9-0.2c0.6,1.5,1.9,2,3.6,2c2.1,0,3.4-1.1,3.4-2.4c0-1.5-1.3-2.5-3.4-2.5
			c-1.6,0-2.6,0.4-3.3,1.1l-0.7-0.1l1.1-4.9h6.7v0.8h-6.1l-0.7,3.2c0.8-0.6,2-0.8,3.1-0.8c2.6,0,4.2,1.3,4.2,3.2
			c0,1.9-1.8,3.2-4.3,3.2C604.5,310.2,602.9,309.4,602.3,307.6z"/>
	</g>
	<g class="st9">
		<path class="st11" d="M612.4,307.4c0-1.2,1.2-2.1,2.7-2.4c-1.1-0.3-2-1-2-2.1c0-1.4,1.5-2.5,3.9-2.5c2.5,0,3.9,1,3.9,2.5
			c0,1.1-0.9,1.8-2,2.1c1.5,0.3,2.7,1.1,2.7,2.4c0,1.6-1.6,2.8-4.6,2.8S612.4,309,612.4,307.4z M617,309.4c2.4,0,3.7-0.8,3.7-2
			c0-1.3-1.6-1.9-3.7-1.9s-3.7,0.7-3.7,1.9C613.3,308.6,614.6,309.4,617,309.4z M617,304.7c1.7,0,3.1-0.6,3.1-1.8
			c0-1-1.1-1.7-3.1-1.7c-2,0-3.1,0.7-3.1,1.7C614,304,615.4,304.7,617,304.7z"/>
	</g>
	<g class="st9">
		<path class="st11" d="M602.7,330.9l0.9-0.2c0.6,1.5,1.9,2,3.6,2c2.1,0,3.4-1.1,3.4-2.4c0-1.5-1.3-2.5-3.4-2.5
			c-1.6,0-2.6,0.4-3.3,1.1l-0.7-0.1l1.1-4.9h6.7v0.8h-6.1l-0.7,3.2c0.8-0.6,2-0.8,3.1-0.8c2.6,0,4.2,1.3,4.2,3.2
			c0,1.9-1.8,3.2-4.3,3.2C604.9,333.4,603.3,332.6,602.7,330.9z"/>
	</g>
	<g class="st9">
		<path class="st11" d="M621.2,327c0,1.2-0.6,2-1.9,3.3l-3.3,3.1h-1.1l3.9-3.6c-0.7,0.3-1.5,0.4-2.2,0.4c-2.5,0-4.2-1.2-4.2-3.2
			s1.8-3.3,4.5-3.3C619.5,323.7,621.2,325,621.2,327z M616.7,329.4c1.1,0,1.9-0.2,2.5-0.6c0.7-0.4,1.1-1.1,1.1-1.9
			c0-1.5-1.4-2.5-3.6-2.5c-2.2,0-3.6,1-3.6,2.5C613.2,328.5,614.6,329.4,616.7,329.4z"/>
	</g>
	<g class="st9">
		<path class="st11" d="M602.1,353.5c0-1.2,0.6-2,1.9-3.3l3.3-3.1h1.1l-3.9,3.6c0.7-0.3,1.5-0.4,2.2-0.4c2.5,0,4.2,1.2,4.2,3.2
			s-1.8,3.3-4.5,3.3C603.8,356.7,602.1,355.4,602.1,353.5z M606.5,355.9c2.2,0,3.6-1,3.6-2.5c0-1.5-1.4-2.4-3.5-2.4
			c-1.1,0-1.9,0.2-2.5,0.6c-0.7,0.4-1.1,1.1-1.1,1.9C602.9,354.9,604.4,355.9,606.5,355.9z"/>
	</g>
	<g class="st9">
		<path class="st11" d="M612.3,351.8c0-2.8,2-4.8,4.8-4.8c2.8,0,4.8,2,4.8,4.8c0,2.9-2,4.9-4.8,4.9
			C614.3,356.7,612.3,354.7,612.3,351.8z M617.1,355.9c2.3,0,3.9-1.7,3.9-4.1c0-2.4-1.7-4-3.9-4c-2.3,0-3.9,1.7-3.9,4
			C613.1,354.2,614.8,355.9,617.1,355.9z"/>
	</g>
	<g class="st9">
		<path class="st11" d="M604.2,377.1c0-1.2,0.6-2,1.9-3.3l3.3-3.1h1.1l-3.9,3.6c0.7-0.3,1.5-0.4,2.2-0.4c2.5,0,4.2,1.2,4.2,3.2
			s-1.8,3.3-4.5,3.3C605.9,380.3,604.2,379,604.2,377.1z M608.6,379.5c2.2,0,3.6-1,3.6-2.5c0-1.5-1.4-2.4-3.5-2.4
			c-1.1,0-1.9,0.2-2.5,0.6c-0.7,0.4-1.1,1.1-1.1,1.9C605,378.5,606.5,379.5,608.6,379.5z"/>
	</g>
	<g class="st9">
		<path class="st11" d="M617.8,372.9h-2.5v-0.6c1.8,0,2.5-0.4,2.8-1.5h0.6v9.5h-0.9V372.9z"/>
	</g>
	<g class="st9">
		<path class="st11" d="M602.6,399.6c0-1.2,0.6-2,1.9-3.3l3.3-3.1h1.1l-3.9,3.6c0.7-0.3,1.5-0.4,2.2-0.4c2.5,0,4.2,1.2,4.2,3.2
			s-1.8,3.3-4.5,3.3C604.4,402.9,602.6,401.6,602.6,399.6z M607.1,402.1c2.2,0,3.6-1,3.6-2.5c0-1.5-1.4-2.4-3.5-2.4
			c-1.1,0-1.9,0.2-2.5,0.6c-0.7,0.4-1.1,1.1-1.1,1.9C603.5,401.1,604.9,402.1,607.1,402.1z"/>
	</g>
	<g class="st9">
		<path class="st11" d="M620.7,402.8h-8.3v-0.7l4.6-3c1.7-1.1,2.4-1.8,2.4-2.9c0-1.3-1.2-2.2-2.9-2.2c-1.7,0-3,0.8-3.4,2.3l-0.9-0.2
			c0.4-1.8,2-2.9,4.2-2.9c2.2,0,3.8,1.2,3.8,3c0,1.3-0.9,2.2-2.8,3.5l-3.6,2.4h6.9V402.8z"/>
	</g>
	<g class="st9">
		<path class="st11" d="M602.4,423.2c0-1.2,0.6-2,1.9-3.3l3.3-3.1h1.1l-3.9,3.6c0.7-0.3,1.5-0.4,2.2-0.4c2.5,0,4.2,1.2,4.2,3.2
			s-1.8,3.3-4.5,3.3C604.2,426.5,602.4,425.2,602.4,423.2z M606.8,425.7c2.2,0,3.6-1,3.6-2.5c0-1.5-1.4-2.4-3.5-2.4
			c-1.1,0-1.9,0.2-2.5,0.6c-0.7,0.4-1.1,1.1-1.1,1.9C603.3,424.7,604.7,425.7,606.8,425.7z"/>
	</g>
	<g class="st9">
		<path class="st11" d="M612.2,423.8l0.9-0.2c0.6,1.6,1.9,2.1,3.7,2.1c2,0,3.3-0.8,3.3-2.1c0-1.1-0.8-1.8-2.8-1.8h-1.9V421h1.8
			c1.6,0,2.6-0.6,2.6-1.7c0-1.1-1.2-1.9-3-1.9c-1.8,0-3,0.6-3.5,2l-0.9-0.2c0.6-1.8,2.1-2.6,4.4-2.6c2.4,0,3.8,1.1,3.8,2.6
			c0,1-0.6,1.7-1.8,2c1.4,0.3,2,1.1,2,2.3c0,1.6-1.6,2.8-4.2,2.8C614.4,426.5,612.9,425.7,612.2,423.8z"/>
	</g>
	<g class="st9">
		<path class="st11" d="M602.1,446.5c0-1.2,0.6-2,1.9-3.3l3.3-3.1h1.1l-3.9,3.6c0.7-0.3,1.5-0.4,2.2-0.4c2.5,0,4.2,1.2,4.2,3.2
			s-1.8,3.3-4.5,3.3C603.8,449.7,602.1,448.5,602.1,446.5z M606.5,449c2.2,0,3.6-1,3.6-2.5c0-1.5-1.4-2.4-3.5-2.4
			c-1.1,0-1.9,0.2-2.5,0.6c-0.7,0.4-1.1,1.1-1.1,1.9C602.9,448,604.4,449,606.5,449z"/>
	</g>
	<g class="st9">
		<path class="st11" d="M619,447.3h-7v-0.7l6.8-6.4h1.1v6.4h1.7v0.8h-1.7v2.3H619V447.3z M619,446.5V441l-5.8,5.5H619z"/>
	</g>
	<g class="st9">
		<path class="st11" d="M602.4,469.4c0-1.2,0.6-2,1.9-3.3l3.3-3.1h1.1l-3.9,3.6c0.7-0.3,1.5-0.4,2.2-0.4c2.5,0,4.2,1.2,4.2,3.2
			s-1.8,3.3-4.5,3.3C604.1,472.6,602.4,471.4,602.4,469.4z M606.8,471.9c2.2,0,3.6-1,3.6-2.5c0-1.5-1.4-2.4-3.5-2.4
			c-1.1,0-1.9,0.2-2.5,0.6c-0.7,0.4-1.1,1.1-1.1,1.9C603.2,470.9,604.7,471.9,606.8,471.9z"/>
	</g>
	<g class="st9">
		<path class="st11" d="M612.4,470.1l0.9-0.2c0.6,1.5,1.9,2,3.6,2c2.1,0,3.4-1.1,3.4-2.4c0-1.5-1.3-2.5-3.4-2.5
			c-1.6,0-2.6,0.4-3.3,1.1l-0.7-0.1l1.1-4.9h6.7v0.8h-6.1l-0.7,3.2c0.8-0.6,2-0.8,3.1-0.8c2.6,0,4.2,1.3,4.2,3.2
			c0,1.9-1.8,3.2-4.3,3.2C614.6,472.6,613,471.8,612.4,470.1z"/>
	</g>
	<g class="st9">
		<path class="st11" d="M602.2,492.7c0-1.2,0.6-2,1.9-3.3l3.3-3.1h1.1l-3.9,3.6c0.7-0.3,1.5-0.4,2.2-0.4c2.5,0,4.2,1.2,4.2,3.2
			s-1.8,3.3-4.5,3.3C604,495.9,602.2,494.6,602.2,492.7z M606.7,495.1c2.2,0,3.6-1,3.6-2.5c0-1.5-1.4-2.4-3.5-2.4
			c-1.1,0-1.9,0.2-2.5,0.6c-0.7,0.4-1.1,1.1-1.1,1.9C603.1,494.1,604.5,495.1,606.7,495.1z"/>
	</g>
	<g class="st9">
		<path class="st11" d="M612.5,492.7c0-1.2,0.6-2,1.9-3.3l3.3-3.1h1.1l-3.9,3.6c0.7-0.3,1.5-0.4,2.2-0.4c2.5,0,4.2,1.2,4.2,3.2
			s-1.8,3.3-4.5,3.3C614.3,495.9,612.5,494.6,612.5,492.7z M616.9,495.1c2.2,0,3.6-1,3.6-2.5c0-1.5-1.4-2.4-3.5-2.4
			c-1.1,0-1.9,0.2-2.5,0.6c-0.7,0.4-1.1,1.1-1.1,1.9C613.4,494.1,614.8,495.1,616.9,495.1z"/>
	</g>
	<g class="st9">
		<path class="st11" d="M603.4,516.6c0-1.2,0.6-2,1.9-3.3l3.3-3.1h1.1l-3.9,3.6c0.7-0.3,1.5-0.4,2.2-0.4c2.5,0,4.2,1.2,4.2,3.2
			s-1.8,3.3-4.5,3.3C605.2,519.9,603.4,518.6,603.4,516.6z M607.8,519.1c2.2,0,3.6-1,3.6-2.5c0-1.5-1.4-2.4-3.5-2.4
			c-1.1,0-1.9,0.2-2.5,0.6c-0.7,0.4-1.1,1.1-1.1,1.9C604.3,518.1,605.7,519.1,607.8,519.1z"/>
	</g>
	<g class="st9">
		<path class="st11" d="M619.5,511h-7.2v-0.8h8.3v0.7l-5.8,8.8h-1L619.5,511z"/>
	</g>
	<g class="st9">
		<path class="st11" d="M602,539.2c0-1.2,0.6-2,1.9-3.3l3.3-3.1h1.1l-3.9,3.6c0.7-0.3,1.5-0.4,2.2-0.4c2.5,0,4.2,1.2,4.2,3.2
			s-1.8,3.3-4.5,3.3C603.8,542.4,602,541.1,602,539.2z M606.4,541.7c2.2,0,3.6-1,3.6-2.5c0-1.5-1.4-2.4-3.5-2.4
			c-1.1,0-1.9,0.2-2.5,0.6c-0.7,0.4-1.1,1.1-1.1,1.9C602.9,540.7,604.3,541.7,606.4,541.7z"/>
	</g>
	<g class="st9">
		<path class="st11" d="M612.3,539.7c0-1.2,1.2-2.1,2.7-2.4c-1.1-0.3-2-1-2-2.1c0-1.4,1.5-2.5,3.9-2.5c2.5,0,3.9,1,3.9,2.5
			c0,1.1-0.9,1.8-2,2.1c1.5,0.3,2.7,1.1,2.7,2.4c0,1.6-1.6,2.8-4.6,2.8S612.3,541.3,612.3,539.7z M616.9,541.7c2.4,0,3.7-0.8,3.7-2
			c0-1.3-1.6-1.9-3.7-1.9s-3.7,0.7-3.7,1.9C613.2,540.8,614.4,541.7,616.9,541.7z M616.9,536.9c1.7,0,3.1-0.6,3.1-1.8
			c0-1-1.1-1.7-3.1-1.7c-2,0-3.1,0.7-3.1,1.7C613.8,536.3,615.2,536.9,616.9,536.9z"/>
	</g>
	<g class="st9">
		<path class="st11" d="M602.5,562.1c0-1.2,0.6-2,1.9-3.3l3.3-3.1h1.1l-3.9,3.6c0.7-0.3,1.5-0.4,2.2-0.4c2.5,0,4.2,1.2,4.2,3.2
			s-1.8,3.3-4.5,3.3C604.2,565.3,602.5,564.1,602.5,562.1z M606.9,564.6c2.2,0,3.6-1,3.6-2.5c0-1.5-1.4-2.4-3.5-2.4
			c-1.1,0-1.9,0.2-2.5,0.6c-0.7,0.4-1.1,1.1-1.1,1.9C603.3,563.6,604.8,564.6,606.9,564.6z"/>
	</g>
	<g class="st9">
		<path class="st11" d="M621,558.9c0,1.2-0.6,2-1.9,3.3l-3.3,3.1h-1.1l3.9-3.6c-0.7,0.3-1.5,0.4-2.2,0.4c-2.5,0-4.2-1.2-4.2-3.2
			s1.8-3.3,4.5-3.3C619.2,555.6,621,556.9,621,558.9z M616.4,561.3c1.1,0,1.9-0.2,2.5-0.6c0.7-0.4,1.1-1.1,1.1-1.9
			c0-1.5-1.4-2.5-3.6-2.5c-2.2,0-3.6,1-3.6,2.5C612.9,560.4,614.3,561.3,616.4,561.3z"/>
	</g>
	<g>
		<path class="st12" d="M555,130.9c0,0,0-55.3,0-63.9c0.1,0,145.5,0,145.5,0"/>
		<rect x="553.8" y="46.5" class="st13" width="146.7" height="20.4"/>
	</g>
	<g>
		<path class="st12" d="M495.9,318.5h-52.7c0-7.5,0-47,0-47"/>
		<rect x="422.8" y="271.4" class="st13" width="21.1" height="48.3"/>
	</g>
	<g>
		<path class="st12" d="M753.7,317.5c0,0,0-29.4,0-34.5c3.9,0,8,0,11.9,0c0-7.4,0-46.2,0-46.2"/>
		<rect x="764.9" y="236.8" class="st13" width="21.1" height="47.5"/>
	</g>
	<rect x="301.1" y="572.6" class="st13" width="173" height="8"/>
	<rect x="593.3" y="172.6" class="st13" width="74.1" height="4"/>
	<rect x="300.6" y="692.2" class="st14" width="21.6" height="54.2"/>
	<rect x="764.9" y="458.1" class="st13" width="21.1" height="154.4"/>
	<g class="st9">
		<path class="st11" d="M304.6,714.7h5.7c1.8,0,3,0.9,3,2.5c0,1.2-0.9,2-2.3,2.3l3.3,3.2h-2.1l-3.1-3h-3v3h-1.6V714.7z M310.2,718.2
			c0.8,0,1.4-0.4,1.4-1.1s-0.5-1.1-1.4-1.1h-4.1v2.2H310.2z"/>
	</g>
	<g class="st9">
		<path class="st11" d="M316.7,717.3h-2.4v-1.1c1.6,0,2.3-0.4,2.6-1.5h1.3v7.9h-1.6V717.3z"/>
	</g>
</g>
</svg>
