<?xml version="1.0" encoding="UTF-8"?>
<svg id="_Слой_1" data-name="Слой 1" xmlns="http://www.w3.org/2000/svg" viewBox="0 0 492.56 707.43">
  <defs>
    <style>
      .cls-1 {
        fill: #1d1d1b;
      }

      .cls-1, .cls-2, .cls-3 {
        stroke-width: 0px;
      }

      .cls-2 {
        fill: #000;
      }

      .cls-3 {
        fill: #c6c6c5;
      }

      .cls-4 {
        stroke: #1d1d1b;
        stroke-width: .05px;
      }

      .cls-4, .cls-5 {
        fill: none;
        stroke-miterlimit: 10;
      }

      .cls-5 {
        stroke: #000;
        stroke-width: .69px;
      }
    </style>
  </defs>
  <g id="_ст-2400" data-name="ст-2400">
    <g id="_ст_2400" data-name="ст_2400">
      <rect class="cls-1" x="58.24" width="4.72" height="707.39"/>
      <rect class="cls-1" x="230.37" width="4.72" height="707.39"/>
      <rect class="cls-1" x="58.24" y="695.6" width="176.85" height="11.79"/>
      <rect class="cls-1" x="58.24" y="627.81" width="176.85" height="7.37"/>
      <rect class="cls-1" x="58.24" y="511.38" width="176.85" height="7.37"/>
      <rect class="cls-1" x="58.24" y="337.48" width="176.85" height="7.37"/>
      <rect class="cls-1" x="58.24" width="176.85" height="7.37"/>
      <rect class="cls-1" x="58.24" y="421.49" width="176.85" height="7.37"/>
      <rect class="cls-1" x="58.24" y="259.38" width="176.85" height="7.37"/>
      <rect class="cls-3" x="58.24" y="635.18" width="88.42" height="60.42"/>
      <rect class="cls-3" x="146.66" y="635.18" width="88.42" height="60.42"/>
      <line class="cls-4" x1="146.66" y1="635.18" x2="146.66" y2="695.6"/>
    </g>
    <g>
      <line class="cls-5" x1="58.23" y1="707.04" x2="24.2" y2="707.04"/>
      <line class="cls-5" x1="58.23" y1=".36" x2="24.2" y2=".36"/>
      <g>
        <line class="cls-5" x1="24.2" y1="703.61" x2="24.2" y2="3.61"/>
        <path class="cls-2" d="M27.52,698.88c-.16-.1-.37-.05-.48.11l-2.84,4.46-2.84-4.46c-.1-.16-.32-.21-.48-.11-.16.1-.21.32-.11.48l3.13,4.92c.06.1.17.16.29.16s.23-.06.29-.16l3.13-4.92c.04-.06.05-.12.05-.19,0-.11-.06-.23-.16-.29Z"/>
        <path class="cls-2" d="M27.52,8.34c-.16.1-.37.05-.48-.11l-2.84-4.46-2.84,4.46c-.1.16-.32.21-.48.11-.16-.1-.21-.32-.11-.48l3.13-4.92c.06-.1.17-.16.29-.16s.23.06.29.16l3.13,4.92c.04.06.05.12.05.19,0,.11-.06.23-.16.29Z"/>
      </g>
    </g>
    <g>
      <g>
        <line class="cls-5" x1="146.66" y1="626.98" x2="146.66" y2="519.58"/>
        <path class="cls-2" d="M149.98,622.25c-.16-.1-.37-.05-.48.11l-2.84,4.46-2.84-4.46c-.1-.16-.32-.21-.48-.11-.16.1-.21.32-.11.48l3.13,4.92c.06.1.17.16.29.16s.23-.06.29-.16l3.13-4.92c.04-.06.05-.12.05-.19,0-.11-.06-.23-.16-.29Z"/>
        <path class="cls-2" d="M149.98,524.31c-.16.1-.37.05-.48-.11l-2.84-4.46-2.84,4.46c-.1.16-.32.21-.48.11-.16-.1-.21-.32-.11-.48l3.13-4.92c.06-.1.17-.16.29-.16s.23.06.29.16l3.13,4.92c.04.06.05.12.05.19,0,.11-.06.23-.16.29Z"/>
      </g>
      <g>
        <line class="cls-5" x1="146.66" y1="510.55" x2="146.66" y2="429.39"/>
        <path class="cls-2" d="M149.98,505.82c-.16-.1-.37-.05-.48.11l-2.84,4.46-2.84-4.46c-.1-.16-.32-.21-.48-.11-.16.1-.21.32-.11.48l3.13,4.92c.06.1.17.16.29.16s.23-.06.29-.16l3.13-4.92c.04-.06.05-.12.05-.19,0-.11-.06-.23-.16-.29Z"/>
        <path class="cls-2" d="M149.98,434.12c-.16.1-.37.05-.48-.11l-2.84-4.46-2.84,4.46c-.1.16-.32.21-.48.11-.16-.1-.21-.32-.11-.48l3.13-4.92c.06-.1.17-.16.29-.16s.23.06.29.16l3.13,4.92c.04.06.05.12.05.19,0,.11-.06.23-.16.29Z"/>
      </g>
      <g>
        <line class="cls-5" x1="146.66" y1="420.65" x2="146.66" y2="345.68"/>
        <path class="cls-2" d="M149.98,415.93c-.16-.1-.37-.05-.48.11l-2.84,4.46-2.84-4.46c-.1-.16-.32-.21-.48-.11-.16.1-.21.32-.11.48l3.13,4.92c.06.1.17.16.29.16s.23-.06.29-.16l3.13-4.92c.04-.06.05-.12.05-.19,0-.11-.06-.23-.16-.29Z"/>
        <path class="cls-2" d="M149.98,350.41c-.16.1-.37.05-.48-.11l-2.84-4.46-2.84,4.46c-.1.16-.32.21-.48.11-.16-.1-.21-.32-.11-.48l3.13-4.92c.06-.1.17-.16.29-.16s.23.06.29.16l3.13,4.92c.04.06.05.12.05.19,0,.11-.06.23-.16.29Z"/>
      </g>
      <g>
        <line class="cls-5" x1="146.66" y1="336.65" x2="146.66" y2="267.58"/>
        <path class="cls-2" d="M149.98,331.92c-.16-.1-.37-.05-.48.11l-2.84,4.46-2.84-4.46c-.1-.16-.32-.21-.48-.11-.16.1-.21.32-.11.48l3.13,4.92c.06.1.17.16.29.16s.23-.06.29-.16l3.13-4.92c.04-.06.05-.12.05-.19,0-.11-.06-.23-.16-.29Z"/>
        <path class="cls-2" d="M149.98,272.3c-.16.1-.37.05-.48-.11l-2.84-4.46-2.84,4.46c-.1.16-.32.21-.48.11-.16-.1-.21-.32-.11-.48l3.13-4.92c.06-.1.17-.16.29-.16s.23.06.29.16l3.13,4.92c.04.06.05.12.05.19,0,.11-.06.23-.16.29Z"/>
      </g>
      <g>
        <line class="cls-5" x1="146.66" y1="258.54" x2="146.66" y2="8.2"/>
        <path class="cls-2" d="M149.98,253.82c-.16-.1-.37-.05-.48.11l-2.84,4.46-2.84-4.46c-.1-.16-.32-.21-.48-.11-.16.1-.21.32-.11.48l3.13,4.92c.06.1.17.16.29.16s.23-.06.29-.16l3.13-4.92c.04-.06.05-.12.05-.19,0-.11-.06-.23-.16-.29Z"/>
        <path class="cls-2" d="M149.98,12.93c-.16.1-.37.05-.48-.11l-2.84-4.46-2.84,4.46c-.1.16-.32.21-.48.11-.16-.1-.21-.32-.11-.48l3.13-4.92c.06-.1.17-.16.29-.16s.23.06.29.16l3.13,4.92c.04.06.05.12.05.19,0,.11-.06.23-.16.29Z"/>
      </g>
    </g>
    <g>
      <path class="cls-2" d="M14.4,371.24v12.42h-1.07l-4.51-6.83c-1.69-2.55-2.68-3.65-4.38-3.65-2.02,0-3.29,1.75-3.29,4.4s1.16,4.57,3.41,5.06l-.25,1.29c-2.7-.67-4.32-3.04-4.32-6.36s1.73-5.73,4.43-5.73c2.02,0,3.35,1.31,5.25,4.26l3.58,5.44v-10.31h1.14Z"/>
      <path class="cls-2" d="M10.92,360.21v10.47h-1.12L.13,360.49v-1.6h9.61v-2.51h1.18v2.51h3.48v1.31h-3.48ZM9.74,360.21H1.46l8.28,8.75v-8.75Z"/>
      <path class="cls-2" d="M7.23,354.81c-4.24,0-7.23-2.99-7.23-7.17s2.99-7.19,7.23-7.19,7.31,2.99,7.31,7.19-3.03,7.17-7.31,7.17ZM13.38,347.63c0-3.41-2.55-5.88-6.15-5.88s-6.07,2.47-6.07,5.88,2.53,5.86,6.07,5.86,6.15-2.45,6.15-5.86Z"/>
      <path class="cls-2" d="M7.23,338.2c-4.24,0-7.23-2.99-7.23-7.17s2.99-7.19,7.23-7.19,7.31,2.99,7.31,7.19-3.03,7.17-7.31,7.17ZM13.38,331.03c0-3.41-2.55-5.88-6.15-5.88s-6.07,2.47-6.07,5.88,2.53,5.86,6.07,5.86,6.15-2.45,6.15-5.86Z"/>
    </g>
    <g>
      <path class="cls-2" d="M138.73,593.36l-.29-1.18c2.21-.78,2.92-2.64,2.92-5.05,0-2.66-1.09-4.44-2.82-4.44-1.49,0-2.49,1.11-2.49,3.8v2.52h-1.05v-2.47c0-2.21-.83-3.51-2.25-3.51s-2.52,1.57-2.52,4.06.88,4.15,2.77,4.75l-.22,1.16c-2.39-.79-3.58-2.9-3.58-5.93,0-3.25,1.54-5.22,3.56-5.22,1.31,0,2.26.86,2.73,2.39.43-1.87,1.56-2.77,3.08-2.77,2.23,0,3.84,2.21,3.84,5.65,0,3.23-1.11,5.34-3.67,6.22Z"/>
      <path class="cls-2" d="M130.38,570.6v9.82h-1.07v-11.24h.92l12.05,7.92v1.35l-11.89-7.85Z"/>
      <path class="cls-2" d="M135.76,568.13c-3.86,0-6.57-2.71-6.57-6.52s2.71-6.53,6.57-6.53,6.64,2.71,6.64,6.53-2.75,6.52-6.64,6.52ZM141.34,561.61c0-3.09-2.32-5.34-5.58-5.34s-5.52,2.25-5.52,5.34,2.3,5.33,5.52,5.33,5.58-2.23,5.58-5.33Z"/>
    </g>
    <g>
      <path class="cls-2" d="M142.4,479.65v11.29h-.97l-4.1-6.21c-1.54-2.32-2.44-3.32-3.98-3.32-1.83,0-2.99,1.59-2.99,3.99s1.05,4.15,3.09,4.6l-.22,1.18c-2.46-.61-3.92-2.77-3.92-5.77s1.57-5.2,4.03-5.2c1.83,0,3.04,1.19,4.77,3.87l3.25,4.94v-9.37h1.04Z"/>
      <path class="cls-2" d="M138.75,478.13c-1.69,0-2.89-1.59-3.23-3.65-.36,1.56-1.38,2.75-2.87,2.75-1.94,0-3.34-2.01-3.34-5.36s1.4-5.36,3.34-5.36c1.47,0,2.49,1.19,2.87,2.73.35-2.04,1.54-3.63,3.23-3.63,2.23,0,3.77,2.23,3.77,6.26s-1.54,6.26-3.77,6.26ZM135.07,471.87c0-2.32-.88-4.18-2.39-4.18-1.4,0-2.35,1.5-2.35,4.18s.95,4.18,2.35,4.18c1.5,0,2.39-1.88,2.39-4.18ZM141.48,471.87c0-3.32-1.14-5.05-2.75-5.05-1.75,0-2.65,2.23-2.65,5.05s.9,5.05,2.65,5.05c1.61,0,2.75-1.73,2.75-5.05Z"/>
      <path class="cls-2" d="M135.88,463.29c-3.86,0-6.57-2.71-6.57-6.52s2.71-6.53,6.57-6.53,6.64,2.71,6.64,6.53-2.75,6.52-6.64,6.52ZM141.46,456.77c0-3.09-2.32-5.34-5.58-5.34s-5.52,2.25-5.52,5.34,2.3,5.33,5.52,5.33,5.58-2.23,5.58-5.33Z"/>
    </g>
    <g>
      <path class="cls-2" d="M142.28,392.42v11.29h-.97l-4.1-6.21c-1.54-2.32-2.44-3.32-3.98-3.32-1.83,0-2.99,1.59-2.99,3.99s1.05,4.15,3.09,4.6l-.22,1.18c-2.46-.61-3.92-2.77-3.92-5.77s1.57-5.2,4.03-5.2c1.83,0,3.04,1.19,4.77,3.87l3.25,4.94v-9.37h1.04Z"/>
      <path class="cls-2" d="M138.01,391.14c-1.61,0-2.78-.86-4.46-2.64l-4.24-4.5v-1.52l4.88,5.33c-.42-.99-.55-2.01-.55-3.04,0-3.35,1.69-5.77,4.32-5.77s4.44,2.47,4.44,6.12-1.73,6.03-4.39,6.03ZM141.36,385.11c0-3.01-1.38-4.93-3.41-4.93s-3.32,1.92-3.32,4.79c0,1.44.24,2.58.76,3.44.59.95,1.52,1.56,2.61,1.56,1.99,0,3.35-1.97,3.35-4.86Z"/>
      <path class="cls-2" d="M135.76,377.24c-3.86,0-6.57-2.71-6.57-6.52s2.71-6.53,6.57-6.53,6.64,2.71,6.64,6.53-2.75,6.52-6.64,6.52ZM141.34,370.72c0-3.09-2.32-5.34-5.58-5.34s-5.52,2.25-5.52,5.34,2.3,5.33,5.52,5.33,5.58-2.23,5.58-5.33Z"/>
    </g>
    <g>
      <path class="cls-2" d="M142.09,311.6v11.29h-.97l-4.1-6.21c-1.54-2.32-2.44-3.32-3.98-3.32-1.83,0-2.99,1.59-2.99,3.99s1.05,4.15,3.09,4.6l-.22,1.18c-2.46-.6-3.92-2.77-3.92-5.77s1.57-5.2,4.03-5.2c1.83,0,3.04,1.19,4.77,3.87l3.25,4.94v-9.37h1.04Z"/>
      <path class="cls-2" d="M138.93,301.57v9.51h-1.02l-8.78-9.25v-1.45h8.73v-2.28h1.07v2.28h3.16v1.19h-3.16ZM137.85,301.57h-7.52l7.52,7.95v-7.95Z"/>
      <path class="cls-2" d="M135.57,296.66c-3.86,0-6.57-2.71-6.57-6.52s2.71-6.54,6.57-6.54,6.64,2.71,6.64,6.54-2.75,6.52-6.64,6.52ZM141.16,290.14c0-3.09-2.32-5.34-5.58-5.34s-5.52,2.25-5.52,5.34,2.3,5.32,5.52,5.32,5.58-2.23,5.58-5.32Z"/>
    </g>
    <g>
      <path class="cls-2" d="M138.44,157.8c-1.69,0-2.89-1.59-3.23-3.65-.36,1.56-1.38,2.75-2.87,2.75-1.94,0-3.34-2.01-3.34-5.36s1.4-5.36,3.34-5.36c1.47,0,2.49,1.19,2.87,2.73.35-2.04,1.54-3.63,3.23-3.63,2.23,0,3.77,2.23,3.77,6.26s-1.54,6.26-3.77,6.26ZM134.76,151.55c0-2.32-.88-4.18-2.39-4.18-1.4,0-2.35,1.5-2.35,4.18s.95,4.18,2.35,4.18c1.5,0,2.39-1.88,2.39-4.18ZM141.17,151.55c0-3.32-1.14-5.05-2.75-5.05-1.75,0-2.65,2.23-2.65,5.05s.9,5.05,2.65,5.05c1.61,0,2.75-1.73,2.75-5.05Z"/>
      <path class="cls-2" d="M138.72,143.56l-.31-1.19c2.11-.78,2.77-2.63,2.77-4.88,0-2.85-1.43-4.69-3.3-4.69-2.11,0-3.37,1.78-3.37,4.62,0,2.14.57,3.58,1.49,4.49l-.19.95-6.67-1.49v-9.15h1.04v8.28l4.41,1c-.78-1.12-1.11-2.73-1.11-4.18,0-3.54,1.71-5.72,4.41-5.72,2.52,0,4.34,2.39,4.34,5.88,0,3.04-1.09,5.19-3.49,6.07Z"/>
      <path class="cls-2" d="M138.72,129.86l-.31-1.19c2.11-.78,2.77-2.63,2.77-4.88,0-2.85-1.43-4.69-3.3-4.69-2.11,0-3.37,1.78-3.37,4.62,0,2.14.57,3.58,1.49,4.49l-.19.95-6.67-1.49v-9.15h1.04v8.28l4.41,1c-.78-1.12-1.11-2.73-1.11-4.18,0-3.54,1.71-5.72,4.41-5.72,2.52,0,4.34,2.39,4.34,5.88,0,3.04-1.09,5.19-3.49,6.07Z"/>
    </g>
  </g>
  <g id="_ст-2100" data-name="ст-2100">
    <g id="_ст_2100" data-name="ст_2100">
      <rect class="cls-1" x="315.71" y="88.42" width="4.72" height="618.97"/>
      <rect class="cls-1" x="487.84" y="88.42" width="4.72" height="618.97"/>
      <rect class="cls-1" x="315.71" y="695.6" width="176.85" height="11.79"/>
      <rect class="cls-1" x="315.71" y="627.81" width="176.85" height="7.37"/>
      <rect class="cls-1" x="315.71" y="511.38" width="176.85" height="7.37"/>
      <rect class="cls-1" x="315.71" y="337.48" width="176.85" height="7.37"/>
      <rect class="cls-1" x="315.71" y="88.42" width="176.85" height="7.37"/>
      <rect class="cls-1" x="315.71" y="421.49" width="176.85" height="7.37"/>
      <rect class="cls-1" x="315.71" y="259.38" width="176.85" height="7.37"/>
      <rect class="cls-3" x="315.71" y="635.18" width="88.42" height="60.42"/>
      <rect class="cls-3" x="404.13" y="635.18" width="88.42" height="60.42"/>
      <line class="cls-4" x1="404.13" y1="635.18" x2="404.13" y2="695.6"/>
    </g>
    <g>
      <g>
        <line class="cls-5" x1="404.13" y1="626.98" x2="404.13" y2="519.58"/>
        <path class="cls-2" d="M407.45,622.25c-.16-.1-.37-.05-.48.11l-2.84,4.46-2.84-4.46c-.1-.16-.32-.21-.48-.11-.16.1-.21.32-.11.48l3.13,4.92c.06.1.17.16.29.16s.23-.06.29-.16l3.13-4.92c.04-.06.05-.12.05-.19,0-.11-.06-.23-.16-.29Z"/>
        <path class="cls-2" d="M407.45,524.31c-.16.1-.37.05-.48-.11l-2.84-4.46-2.84,4.46c-.1.16-.32.21-.48.11-.16-.1-.21-.32-.11-.48l3.13-4.92c.06-.1.17-.16.29-.16s.23.06.29.16l3.13,4.92c.04.06.05.12.05.19,0,.11-.06.23-.16.29Z"/>
      </g>
      <g>
        <line class="cls-5" x1="404.13" y1="510.55" x2="404.13" y2="429.39"/>
        <path class="cls-2" d="M407.45,505.82c-.16-.1-.37-.05-.48.11l-2.84,4.46-2.84-4.46c-.1-.16-.32-.21-.48-.11-.16.1-.21.32-.11.48l3.13,4.92c.06.1.17.16.29.16s.23-.06.29-.16l3.13-4.92c.04-.06.05-.12.05-.19,0-.11-.06-.23-.16-.29Z"/>
        <path class="cls-2" d="M407.45,434.12c-.16.1-.37.05-.48-.11l-2.84-4.46-2.84,4.46c-.1.16-.32.21-.48.11-.16-.1-.21-.32-.11-.48l3.13-4.92c.06-.1.17-.16.29-.16s.23.06.29.16l3.13,4.92c.04.06.05.12.05.19,0,.11-.06.23-.16.29Z"/>
      </g>
      <g>
        <line class="cls-5" x1="404.13" y1="420.65" x2="404.13" y2="345.68"/>
        <path class="cls-2" d="M407.45,415.93c-.16-.1-.37-.05-.48.11l-2.84,4.46-2.84-4.46c-.1-.16-.32-.21-.48-.11-.16.1-.21.32-.11.48l3.13,4.92c.06.1.17.16.29.16s.23-.06.29-.16l3.13-4.92c.04-.06.05-.12.05-.19,0-.11-.06-.23-.16-.29Z"/>
        <path class="cls-2" d="M407.45,350.41c-.16.1-.37.05-.48-.11l-2.84-4.46-2.84,4.46c-.1.16-.32.21-.48.11-.16-.1-.21-.32-.11-.48l3.13-4.92c.06-.1.17-.16.29-.16s.23.06.29.16l3.13,4.92c.04.06.05.12.05.19,0,.11-.06.23-.16.29Z"/>
      </g>
      <g>
        <line class="cls-5" x1="404.13" y1="336.65" x2="404.13" y2="267.58"/>
        <path class="cls-2" d="M407.45,331.92c-.16-.1-.37-.05-.48.11l-2.84,4.46-2.84-4.46c-.1-.16-.32-.21-.48-.11-.16.1-.21.32-.11.48l3.13,4.92c.06.1.17.16.29.16s.23-.06.29-.16l3.13-4.92c.04-.06.05-.12.05-.19,0-.11-.06-.23-.16-.29Z"/>
        <path class="cls-2" d="M407.45,272.3c-.16.1-.37.05-.48-.11l-2.84-4.46-2.84,4.46c-.1.16-.32.21-.48.11-.16-.1-.21-.32-.11-.48l3.13-4.92c.06-.1.17-.16.29-.16s.23.06.29.16l3.13,4.92c.04.06.05.12.05.19,0,.11-.06.23-.16.29Z"/>
      </g>
      <g>
        <line class="cls-5" x1="404.13" y1="258.54" x2="404.13" y2="96.62"/>
        <path class="cls-2" d="M407.45,253.82c-.16-.1-.37-.05-.48.11l-2.84,4.46-2.84-4.46c-.1-.16-.32-.21-.48-.11-.16.1-.21.32-.11.48l3.13,4.92c.06.1.17.16.29.16s.23-.06.29-.16l3.13-4.92c.04-.06.05-.12.05-.19,0-.11-.06-.23-.16-.29Z"/>
        <path class="cls-2" d="M407.45,101.35c-.16.1-.37.05-.48-.11l-2.84-4.46-2.84,4.46c-.1.16-.32.21-.48.11-.16-.1-.21-.32-.11-.48l3.13-4.92c.06-.1.17-.16.29-.16s.23.06.29.16l3.13,4.92c.04.06.05.12.05.19,0,.11-.06.23-.16.29Z"/>
      </g>
    </g>
    <g>
      <line class="cls-5" x1="315.71" y1="707.09" x2="285.94" y2="707.09"/>
      <line class="cls-5" x1="315.71" y1="88.72" x2="285.94" y2="88.72"/>
      <g>
        <line class="cls-5" x1="285.94" y1="703.98" x2="285.94" y2="91.68"/>
        <path class="cls-2" d="M289.26,699.25c-.16-.1-.37-.05-.48.11l-2.84,4.46-2.84-4.46c-.1-.16-.32-.21-.48-.11-.16.1-.21.32-.11.48l3.13,4.92c.06.1.17.16.29.16s.23-.06.29-.16l3.13-4.92c.04-.06.05-.12.05-.19,0-.11-.06-.23-.16-.29Z"/>
        <path class="cls-2" d="M289.26,96.41c-.16.1-.37.05-.48-.11l-2.84-4.46-2.84,4.46c-.1.16-.32.21-.48.11-.16-.1-.21-.32-.11-.48l3.13-4.92c.06-.1.17-.16.29-.16s.23.06.29.16l3.13,4.92c.04.06.05.12.05.19,0,.11-.06.23-.16.29Z"/>
      </g>
    </g>
    <g>
      <path class="cls-2" d="M396.6,592.74l-.29-1.18c2.21-.78,2.92-2.64,2.92-5.05,0-2.66-1.09-4.44-2.82-4.44-1.49,0-2.49,1.11-2.49,3.8v2.52h-1.05v-2.47c0-2.21-.83-3.51-2.25-3.51s-2.52,1.57-2.52,4.06.88,4.15,2.77,4.75l-.22,1.16c-2.39-.79-3.58-2.9-3.58-5.93,0-3.25,1.54-5.22,3.56-5.22,1.31,0,2.26.86,2.73,2.39.43-1.87,1.56-2.77,3.08-2.77,2.23,0,3.84,2.21,3.84,5.65,0,3.23-1.11,5.34-3.67,6.22Z"/>
      <path class="cls-2" d="M388.25,569.99v9.82h-1.07v-11.24h.92l12.05,7.92v1.35l-11.89-7.85Z"/>
      <path class="cls-2" d="M393.63,567.51c-3.86,0-6.57-2.71-6.57-6.52s2.71-6.53,6.57-6.53,6.64,2.71,6.64,6.53-2.75,6.52-6.64,6.52ZM399.21,560.99c0-3.09-2.32-5.34-5.58-5.34s-5.51,2.25-5.51,5.34,2.3,5.33,5.51,5.33,5.58-2.23,5.58-5.33Z"/>
    </g>
    <g>
      <path class="cls-2" d="M400.27,479.04v11.29h-.97l-4.1-6.21c-1.54-2.32-2.44-3.32-3.98-3.32-1.83,0-2.99,1.59-2.99,3.99s1.05,4.15,3.09,4.6l-.22,1.18c-2.45-.61-3.92-2.77-3.92-5.77s1.57-5.2,4.03-5.2c1.83,0,3.04,1.19,4.77,3.87l3.25,4.94v-9.37h1.04Z"/>
      <path class="cls-2" d="M396.62,477.51c-1.69,0-2.89-1.59-3.23-3.65-.36,1.56-1.38,2.75-2.87,2.75-1.94,0-3.34-2.01-3.34-5.36s1.4-5.36,3.34-5.36c1.47,0,2.49,1.19,2.87,2.73.35-2.04,1.54-3.63,3.23-3.63,2.23,0,3.77,2.23,3.77,6.26s-1.54,6.26-3.77,6.26ZM392.94,471.26c0-2.32-.88-4.18-2.39-4.18-1.4,0-2.35,1.5-2.35,4.18s.95,4.18,2.35,4.18c1.5,0,2.39-1.88,2.39-4.18ZM399.35,471.26c0-3.32-1.14-5.05-2.75-5.05-1.75,0-2.65,2.23-2.65,5.05s.9,5.05,2.65,5.05c1.61,0,2.75-1.73,2.75-5.05Z"/>
      <path class="cls-2" d="M393.75,462.68c-3.86,0-6.57-2.71-6.57-6.52s2.71-6.53,6.57-6.53,6.64,2.71,6.64,6.53-2.75,6.52-6.64,6.52ZM399.33,456.16c0-3.09-2.32-5.34-5.58-5.34s-5.51,2.25-5.51,5.34,2.3,5.33,5.51,5.33,5.58-2.23,5.58-5.33Z"/>
    </g>
    <g>
      <path class="cls-2" d="M400.15,391.81v11.29h-.97l-4.1-6.21c-1.54-2.32-2.44-3.32-3.98-3.32-1.83,0-2.99,1.59-2.99,3.99s1.05,4.15,3.09,4.6l-.22,1.18c-2.45-.61-3.92-2.77-3.92-5.77s1.57-5.2,4.03-5.2c1.83,0,3.04,1.19,4.77,3.87l3.25,4.94v-9.37h1.04Z"/>
      <path class="cls-2" d="M395.88,390.53c-1.61,0-2.78-.86-4.46-2.64l-4.24-4.5v-1.52l4.88,5.33c-.42-.99-.55-2.01-.55-3.04,0-3.35,1.69-5.77,4.32-5.77s4.44,2.47,4.44,6.12-1.73,6.03-4.39,6.03ZM399.23,384.49c0-3.01-1.38-4.93-3.41-4.93s-3.32,1.92-3.32,4.79c0,1.44.24,2.58.76,3.44.59.95,1.52,1.56,2.61,1.56,1.99,0,3.35-1.97,3.35-4.86Z"/>
      <path class="cls-2" d="M393.63,376.62c-3.86,0-6.57-2.71-6.57-6.52s2.71-6.53,6.57-6.53,6.64,2.71,6.64,6.53-2.75,6.52-6.64,6.52ZM399.21,370.11c0-3.09-2.32-5.34-5.58-5.34s-5.51,2.25-5.51,5.34,2.3,5.33,5.51,5.33,5.58-2.23,5.58-5.33Z"/>
    </g>
    <g>
      <path class="cls-2" d="M399.96,310.99v11.29h-.97l-4.1-6.21c-1.54-2.32-2.44-3.32-3.98-3.32-1.83,0-2.99,1.59-2.99,3.99s1.05,4.15,3.09,4.6l-.22,1.18c-2.45-.6-3.92-2.77-3.92-5.77s1.57-5.2,4.03-5.2c1.83,0,3.04,1.19,4.77,3.87l3.25,4.94v-9.37h1.04Z"/>
      <path class="cls-2" d="M396.79,300.96v9.51h-1.02l-8.78-9.25v-1.45h8.73v-2.28h1.07v2.28h3.16v1.19h-3.16ZM395.72,300.96h-7.52l7.52,7.95v-7.95Z"/>
      <path class="cls-2" d="M393.44,296.05c-3.86,0-6.57-2.71-6.57-6.52s2.71-6.54,6.57-6.54,6.64,2.71,6.64,6.54-2.75,6.52-6.64,6.52ZM399.02,289.53c0-3.09-2.32-5.34-5.58-5.34s-5.51,2.25-5.51,5.34,2.3,5.32,5.51,5.32,5.58-2.23,5.58-5.32Z"/>
    </g>
    <g>
      <path class="cls-2" d="M397.02,200.34l-.31-1.19c2.11-.78,2.77-2.63,2.77-4.88,0-2.85-1.44-4.69-3.3-4.69-2.11,0-3.37,1.78-3.37,4.62,0,2.14.57,3.58,1.49,4.49l-.19.95-6.67-1.49v-9.15h1.04v8.28l4.41,1c-.78-1.12-1.11-2.73-1.11-4.18,0-3.54,1.71-5.72,4.41-5.72,2.52,0,4.34,2.39,4.34,5.88,0,3.04-1.09,5.19-3.49,6.07Z"/>
      <path class="cls-2" d="M397.02,186.64l-.31-1.19c2.11-.78,2.77-2.63,2.77-4.88,0-2.85-1.44-4.69-3.3-4.69-2.11,0-3.37,1.78-3.37,4.62,0,2.14.57,3.58,1.49,4.49l-.19.95-6.67-1.49v-9.15h1.04v8.28l4.41,1c-.78-1.12-1.11-2.73-1.11-4.18,0-3.54,1.71-5.72,4.41-5.72,2.52,0,4.34,2.39,4.34,5.88,0,3.04-1.09,5.19-3.49,6.07Z"/>
      <path class="cls-2" d="M397.02,172.94l-.31-1.19c2.11-.78,2.77-2.63,2.77-4.88,0-2.85-1.44-4.69-3.3-4.69-2.11,0-3.37,1.78-3.37,4.62,0,2.14.57,3.58,1.49,4.49l-.19.95-6.67-1.49v-9.15h1.04v8.28l4.41,1c-.78-1.12-1.11-2.73-1.11-4.18,0-3.54,1.71-5.72,4.41-5.72,2.52,0,4.34,2.39,4.34,5.88,0,3.04-1.09,5.19-3.49,6.07Z"/>
    </g>
    <g>
      <path class="cls-2" d="M277.02,412.37v12.42h-1.07l-4.51-6.83c-1.69-2.55-2.68-3.65-4.38-3.65-2.02,0-3.29,1.75-3.29,4.4s1.16,4.57,3.41,5.06l-.25,1.29c-2.7-.67-4.32-3.04-4.32-6.36s1.73-5.73,4.43-5.73c2.02,0,3.35,1.31,5.25,4.26l3.58,5.44v-10.31h1.14Z"/>
      <path class="cls-2" d="M266.03,407.1v3.79h-.97c-.02-2.76-.63-3.73-2.3-4.13v-.95h14.27v1.29h-11Z"/>
      <path class="cls-2" d="M269.85,402.1c-4.24,0-7.23-2.99-7.23-7.17s2.99-7.19,7.23-7.19,7.31,2.99,7.31,7.19-3.03,7.17-7.31,7.17ZM276,394.93c0-3.41-2.55-5.88-6.15-5.88s-6.07,2.47-6.07,5.88,2.53,5.86,6.07,5.86,6.15-2.45,6.15-5.86Z"/>
      <path class="cls-2" d="M269.85,385.49c-4.24,0-7.23-2.99-7.23-7.17s2.99-7.19,7.23-7.19,7.31,2.99,7.31,7.19-3.03,7.17-7.31,7.17ZM276,378.32c0-3.41-2.55-5.88-6.15-5.88s-6.07,2.47-6.07,5.88,2.53,5.86,6.07,5.86,6.15-2.45,6.15-5.86Z"/>
    </g>
  </g>
</svg>