<?xml version="1.0" encoding="UTF-8"?>
<svg id="_Слой_1" data-name="Слой 1" xmlns="http://www.w3.org/2000/svg" viewBox="0 0 680.59 791.17">
  <defs>
    <style>
      .cls-1 {
        fill: #545454;
      }

      .cls-1, .cls-2, .cls-3, .cls-4, .cls-5 {
        stroke-width: 0px;
      }

      .cls-2 {
        fill: #1a1a1a;
      }

      .cls-6 {
        stroke-width: 1.5px;
      }

      .cls-6, .cls-7, .cls-8, .cls-9, .cls-10, .cls-11, .cls-12, .cls-13, .cls-14, .cls-15, .cls-16 {
        fill: none;
        stroke-miterlimit: 10;
      }

      .cls-6, .cls-12, .cls-13, .cls-14 {
        stroke: #9ecd00;
      }

      .cls-3 {
        fill: #fbbc33;
      }

      .cls-7, .cls-8 {
        stroke: #6d6d6d;
      }

      .cls-7, .cls-14 {
        stroke-width: 1.01px;
      }

      .cls-8, .cls-13 {
        stroke-width: 1.01px;
      }

      .cls-9 {
        stroke: #000;
      }

      .cls-9, .cls-16 {
        stroke-width: 2.35px;
      }

      .cls-10 {
        stroke-width: 1.06px;
      }

      .cls-10, .cls-15 {
        stroke: #f39655;
      }

      .cls-4 {
        fill: #b3ca07;
      }

      .cls-11 {
        stroke-width: 2.35px;
      }

      .cls-11, .cls-16 {
        stroke: #545454;
      }

      .cls-12 {
        stroke-width: 1.07px;
      }

      .cls-5 {
        fill: #f2e9d3;
      }

      .cls-15 {
        stroke-width: 1.57px;
      }
    </style>
  </defs>
  <rect class="cls-10" x="497.57" y="124.54" width="34.77" height="22.16"/>
  <rect class="cls-10" x="497.57" y="146.7" width="34.77" height="22.16"/>
  <rect class="cls-10" x="497.57" y="168.86" width="34.77" height="22.16"/>
  <rect class="cls-10" x="497.57" y="191.02" width="34.77" height="22.16"/>
  <rect class="cls-10" x="497.57" y="213.18" width="34.77" height="22.16"/>
  <rect class="cls-10" x="497.57" y="235.34" width="34.77" height="22.16"/>
  <rect class="cls-10" x="497.57" y="257.5" width="34.77" height="22.16"/>
  <rect class="cls-10" x="497.57" y="279.66" width="34.77" height="22.16"/>
  <rect class="cls-10" x="497.57" y="301.82" width="34.77" height="22.16"/>
  <rect class="cls-10" x="497.57" y="323.98" width="34.77" height="22.16"/>
  <rect class="cls-10" x="497.57" y="346.14" width="34.77" height="22.16"/>
  <rect class="cls-10" x="497.57" y="368.3" width="34.77" height="22.16"/>
  <rect class="cls-10" x="497.57" y="390.46" width="34.77" height="22.16"/>
  <rect class="cls-10" x="532.34" y="124.54" width="34.77" height="22.16"/>
  <rect class="cls-10" x="532.34" y="146.7" width="34.77" height="22.16"/>
  <rect class="cls-10" x="532.34" y="168.86" width="34.77" height="22.16"/>
  <rect class="cls-10" x="532.34" y="191.02" width="34.77" height="22.16"/>
  <rect class="cls-10" x="532.34" y="213.18" width="34.77" height="22.16"/>
  <rect class="cls-10" x="532.34" y="235.34" width="34.77" height="22.16"/>
  <rect class="cls-10" x="532.34" y="257.5" width="34.77" height="22.16"/>
  <rect class="cls-10" x="532.34" y="279.66" width="34.77" height="22.16"/>
  <rect class="cls-10" x="532.34" y="301.82" width="34.77" height="22.16"/>
  <rect class="cls-10" x="532.34" y="323.98" width="34.77" height="22.16"/>
  <rect class="cls-10" x="532.34" y="346.14" width="34.77" height="22.16"/>
  <rect class="cls-10" x="532.34" y="368.3" width="34.77" height="22.16"/>
  <rect class="cls-10" x="532.34" y="390.46" width="34.77" height="22.16"/>
  <rect class="cls-10" x="497.57" y="412.62" width="34.77" height="22.16"/>
  <rect class="cls-10" x="532.34" y="412.62" width="34.77" height="22.16"/>
  <rect class="cls-10" x="497.57" y="434.78" width="34.77" height="22.16"/>
  <rect class="cls-10" x="532.34" y="434.78" width="34.77" height="22.16"/>
  <rect class="cls-10" x="497.57" y="456.94" width="34.77" height="22.16"/>
  <rect class="cls-10" x="532.34" y="456.94" width="34.77" height="22.16"/>
  <rect class="cls-10" x="497.57" y="479.1" width="34.77" height="22.16"/>
  <rect class="cls-10" x="532.34" y="479.1" width="34.77" height="22.16"/>
  <rect class="cls-15" x="1.17" y="197.99" width="51.69" height="32.95"/>
  <rect class="cls-6" x="1.17" y="154.19" width="51.69" height="32.95"/>
  <rect class="cls-4" x="413.8" y="554.09" width="52.01" height="117.19"/>
  <polyline class="cls-8" points="482.88 710.49 385.65 710.49 385.65 790.66 218.68 790.66 218.68 501.11 384.05 501.26 384.05 259.94 335.05 259.94 335.05 80.07 460.54 79.92 460.54 .54 680.09 .54 680.09 226.08 649.8 226.08 649.8 257.75 680.09 257.75 680.09 710.49 524.29 710.49 498.01 725.09"/>
  <line class="cls-7" x1="385.65" y1="554.09" x2="385.65" y2="710.49"/>
  <line class="cls-9" x1="661.18" y1="391.68" x2="661.18" y2="539.24"/>
  <rect class="cls-13" x="335.05" y="102.22" width="19.62" height="22.32"/>
  <rect class="cls-13" x="335.05" y="79.9" width="19.62" height="22.32"/>
  <rect class="cls-13" x="335.05" y="124.54" width="19.62" height="22.32"/>
  <rect class="cls-13" x="218.68" y="552.46" width="19.62" height="30.11"/>
  <rect class="cls-13" x="218.68" y="522.35" width="19.62" height="30.11"/>
  <rect class="cls-13" x="218.68" y="700.47" width="19.62" height="50.28"/>
  <rect class="cls-13" x="218.68" y="670.36" width="19.62" height="30.11"/>
  <rect class="cls-13" x="366.03" y="700.47" width="19.62" height="50.28"/>
  <rect class="cls-13" x="366.03" y="670.36" width="19.62" height="30.11"/>
  <rect class="cls-13" x="218.68" y="582.57" width="19.62" height="30.11"/>
  <rect class="cls-13" x="335.05" y="146.86" width="19.62" height="22.32"/>
  <rect class="cls-13" x="335.05" y="169.19" width="19.62" height="22.32"/>
  <rect class="cls-13" x="335.05" y="191.51" width="19.62" height="22.32"/>
  <rect class="cls-12" x="635.46" y="-4.85" width="19.62" height="30.4" transform="translate(655.62 -634.92) rotate(90)"/>
  <rect class="cls-12" x="605.06" y="-4.85" width="19.62" height="30.4" transform="translate(625.22 -604.53) rotate(90)"/>
  <rect class="cls-13" x="660.47" y="43.12" width="19.62" height="22.96"/>
  <rect class="cls-13" x="660.47" y="66.08" width="19.62" height="22.96"/>
  <rect class="cls-13" x="660.47" y="89.04" width="19.62" height="22.96"/>
  <rect class="cls-13" x="660.47" y="112" width="19.62" height="22.96"/>
  <rect class="cls-13" x="660.47" y="134.96" width="19.62" height="22.96"/>
  <rect class="cls-13" x="660.47" y="157.92" width="19.62" height="22.96"/>
  <rect class="cls-13" x="660.47" y="20.16" width="19.62" height="22.96"/>
  <rect class="cls-13" x="384.05" y="370.51" width="19.62" height="21.79"/>
  <rect class="cls-13" x="384.05" y="348.57" width="19.62" height="21.79"/>
  <rect class="cls-13" x="384.05" y="326.63" width="19.62" height="21.79"/>
  <rect class="cls-13" x="384.05" y="304.69" width="19.62" height="21.79"/>
  <rect class="cls-13" x="384.05" y="282.75" width="19.62" height="21.79"/>
  <rect class="cls-13" x="384.05" y="260.82" width="19.62" height="21.79"/>
  <rect class="cls-13" x="384.05" y="392.3" width="19.62" height="21.79"/>
  <rect class="cls-13" x="384.05" y="414.09" width="19.62" height="21.79"/>
  <rect class="cls-13" x="384.05" y="435.89" width="19.62" height="21.79"/>
  <rect class="cls-13" x="384.05" y="457.68" width="19.62" height="21.79"/>
  <rect class="cls-13" x="384.05" y="479.47" width="19.62" height="21.79"/>
  <rect class="cls-14" x="660.47" y="284.53" width="19.62" height="26.79"/>
  <rect class="cls-14" x="660.47" y="257.75" width="19.62" height="26.79"/>
  <rect class="cls-14" x="660.47" y="311.32" width="19.62" height="26.79"/>
  <rect class="cls-14" x="660.47" y="338.11" width="19.62" height="26.79"/>
  <rect class="cls-14" x="660.47" y="364.89" width="19.62" height="26.79"/>
  <rect class="cls-14" x="660.47" y="566.54" width="19.62" height="26.79"/>
  <rect class="cls-14" x="660.47" y="539.75" width="19.62" height="26.79"/>
  <rect class="cls-14" x="660.47" y="593.32" width="19.62" height="26.79"/>
  <rect class="cls-14" x="660.47" y="620.11" width="19.62" height="26.79"/>
  <rect class="cls-13" x="660.47" y="646.9" width="19.62" height="51"/>
  <g>
    <path class="cls-5" d="M443.07,653.78v2.7h5.89v3.78h-14.94v-3.78h5.36v-2.73l-5.36-5.93v-5.25l7.08,8.05,7.86-8.29v5.3l-5.89,6.14Z"/>
    <path class="cls-5" d="M444.67,641.87c-2.44,0-3.99-1.71-4.7-6.37l-1.07-7.06c-1.28.39-1.99,1.65-1.99,4.41,0,2.96.74,4.62,2.2,5.25l-.39,3.91c-3.01-.87-5.03-4.07-5.03-9.15s2.32-8.34,6.34-8.34h8.93v3.51l-2.56.16c1.96,1.63,2.89,4.43,2.89,7.34,0,3.91-1.67,6.35-4.61,6.35ZM446.19,635.16c0-3.44-1.67-6.9-4.4-6.9h-.12l1.1,7c.36,2.02.86,2.73,1.82,2.73,1.07,0,1.61-.89,1.61-2.83Z"/>
    <path class="cls-5" d="M441.49,622.13c-4.64,0-7.79-3.91-7.79-9.63,0-4.85,2.11-8.05,5.36-8.94l.8,3.96c-1.61.58-2.56,2.33-2.56,4.98,0,3.57,1.64,5.72,4.2,5.72s4.2-2.15,4.2-5.72c0-2.83-.95-4.62-2.47-5.14l.65-3.91c3.12.63,5.42,4.09,5.42,9.05,0,5.72-3.18,9.63-7.8,9.63Z"/>
    <path class="cls-5" d="M441.49,602.33c-4.64,0-7.79-3.91-7.79-9.63,0-4.85,2.11-8.05,5.36-8.94l.8,3.96c-1.61.58-2.56,2.33-2.56,4.98,0,3.57,1.64,5.72,4.2,5.72s4.2-2.15,4.2-5.72c0-2.83-.95-4.62-2.47-5.14l.65-3.91c3.12.63,5.42,4.09,5.42,9.05,0,5.72-3.18,9.63-7.8,9.63Z"/>
    <path class="cls-5" d="M444.67,582.16c-2.44,0-3.99-1.71-4.7-6.37l-1.07-7.06c-1.28.39-1.99,1.65-1.99,4.41,0,2.96.74,4.62,2.2,5.25l-.39,3.91c-3.01-.87-5.03-4.07-5.03-9.15s2.32-8.34,6.34-8.34h8.93v3.51l-2.56.16c1.96,1.63,2.89,4.43,2.89,7.34,0,3.91-1.67,6.35-4.61,6.35ZM446.19,575.44c0-3.44-1.67-6.9-4.4-6.9h-.12l1.1,7c.36,2.02.86,2.73,1.82,2.73,1.07,0,1.61-.89,1.61-2.83Z"/>
  </g>
  <g>
    <path class="cls-2" d="M4.16,21.04H0v-1.96c2.74-.06,4.08-.78,4.66-2.67h2.27v13.98h-2.78v-9.36Z"/>
    <path class="cls-2" d="M14.97,23.78h8.32v2.29h-8.32v-2.29Z"/>
    <path class="cls-2" d="M39.71,18.86h-10.07v-2.44h13.28v2.2l-7.94,11.78h-3.17l7.91-11.54Z"/>
    <path class="cls-2" d="M42.65,25.78c0-1.51.69-2.63,2.48-4.33l5.3-5.03h3.58l-5.35,4.89c.6-.13,1.21-.21,1.85-.21,4.31,0,6.75,1.81,6.75,4.66s-2.78,4.85-7.33,4.85-7.27-1.9-7.27-4.83ZM49.92,28.35c2.8,0,4.48-1.01,4.48-2.59s-1.66-2.54-4.4-2.54c-1.29,0-2.33.19-3.08.56-.91.43-1.44,1.12-1.44,2,0,1.58,1.7,2.57,4.44,2.57Z"/>
    <path class="cls-2" d="M63.82,24.36h7.78v1.12h-7.78v-1.12Z"/>
    <path class="cls-2" d="M78.66,25.84c0-2.8,2.54-4.68,6.27-4.68,3.08,0,5.11,1.23,5.74,3.17l-1.27.24c-.5-1.42-2.07-2.33-4.48-2.33-3.06,0-5.02,1.4-5.02,3.6s1.96,3.62,5.02,3.62c2.54,0,4.1-.97,4.57-2.44l1.25.19c-.5,1.94-2.67,3.34-5.82,3.34-3.73,0-6.27-1.92-6.27-4.7Z"/>
    <path class="cls-2" d="M96.35,22.35h-4.94v-1.08h11.08v1.08h-4.94v8.06h-1.19v-8.06Z"/>
    <path class="cls-2" d="M103.02,25.84c0-2.69,2.57-4.68,6.36-4.68,3.36,0,5.95,1.73,5.95,4.25,0,.21-.02.5-.06.73h-11.02c.17,2.03,2.07,3.36,5.13,3.36,2.41,0,3.92-.73,4.57-2.09l1.21.21c-.67,1.79-2.8,2.93-5.78,2.93-3.92,0-6.36-1.98-6.36-4.7ZM114.06,25.15c-.06-1.68-2.07-2.98-4.68-2.98-2.87,0-4.72,1.17-5.07,2.98h9.75Z"/>
    <path class="cls-2" d="M116.17,30.4l.24-1.01c.15.04.34.06.47.06.56,0,1.03-.22,1.34-.8.35-.65.52-1.94.63-4.16l.17-3.23h9.17v9.14h-1.19v-8.07h-6.84l-.13,2.27c-.15,2.46-.32,3.82-.8,4.66-.54,1.01-1.44,1.27-2.22,1.27-.32,0-.6-.04-.84-.13Z"/>
    <path class="cls-2" d="M130.11,30.4l.24-1.01c.15.04.34.06.47.06.56,0,1.03-.22,1.34-.8.35-.65.52-1.94.63-4.16l.17-3.23h9.17v9.14h-1.19v-8.07h-6.84l-.13,2.27c-.15,2.46-.32,3.82-.8,4.66-.54,1.01-1.44,1.27-2.22,1.27-.32,0-.6-.04-.84-.13Z"/>
    <path class="cls-2" d="M144.82,27.92c0-1.49,1.23-2.31,3.69-2.67l6.1-.88c-.39-1.42-1.66-2.2-3.99-2.2-2.48,0-4.08.67-4.59,2.01l-1.21-.17c.54-1.72,2.61-2.87,5.8-2.87,3.39,0,5.22,1.6,5.22,3.77v5.48h-1.14l-.04-2.46c-1.16,1.73-3.38,2.59-5.76,2.59-2.61,0-4.08-1.01-4.08-2.61ZM149.03,29.51c3.04,0,5.65-1.6,5.65-4.08v-.09l-6.04.86c-1.92.28-2.57.84-2.57,1.72,0,1.01.99,1.6,2.96,1.6Z"/>
    <path class="cls-2" d="M162.84,25.59l-4.96-4.33h1.58l4.34,3.79h1.75v-3.79h1.19v3.79h1.75l4.38-3.79h1.58l-4.96,4.31,5.2,4.83h-1.6l-4.62-4.31h-1.73v4.31h-1.19v-4.31h-1.72l-4.66,4.31h-1.58l5.24-4.81Z"/>
    <path class="cls-2" d="M176.69,21.27h1.19v7.74l8.3-7.74h1.17v9.14h-1.19v-7.74l-8.32,7.74h-1.16v-9.14Z"/>
  </g>
  <g>
    <path class="cls-2" d="M65.07,170.32h6.73v.97h-6.73v-.97Z"/>
    <path class="cls-2" d="M77.92,171.6c0-2.42,2.19-4.05,5.42-4.05,2.66,0,4.42,1.06,4.97,2.74l-1.1.21c-.44-1.23-1.79-2.02-3.87-2.02-2.65,0-4.34,1.21-4.34,3.11s1.69,3.13,4.34,3.13c2.19,0,3.55-.84,3.95-2.11l1.08.16c-.44,1.68-2.31,2.89-5.03,2.89-3.23,0-5.42-1.66-5.42-4.06Z"/>
    <path class="cls-2" d="M93.23,168.58h-4.27v-.94h9.58v.94h-4.27v6.97h-1.03v-6.97Z"/>
    <path class="cls-2" d="M99,171.6c0-2.32,2.23-4.05,5.5-4.05,2.9,0,5.15,1.5,5.15,3.68,0,.18-.02.44-.05.63h-9.53c.15,1.76,1.79,2.9,4.44,2.9,2.08,0,3.39-.63,3.95-1.81l1.05.18c-.58,1.55-2.42,2.53-5,2.53-3.39,0-5.5-1.71-5.5-4.06ZM108.55,171c-.05-1.45-1.79-2.58-4.05-2.58-2.48,0-4.08,1.02-4.39,2.58h8.44Z"/>
    <path class="cls-2" d="M110.38,175.55l.21-.87c.13.03.29.05.4.05.48,0,.89-.19,1.16-.69.31-.56.45-1.68.55-3.6l.15-2.79h7.94v7.9h-1.03v-6.98h-5.92l-.11,1.97c-.13,2.13-.27,3.31-.69,4.03-.47.87-1.24,1.1-1.92,1.1-.27,0-.52-.03-.73-.11Z"/>
    <path class="cls-2" d="M122.45,175.55l.21-.87c.13.03.29.05.4.05.48,0,.89-.19,1.16-.69.31-.56.45-1.68.55-3.6l.15-2.79h7.94v7.9h-1.03v-6.98h-5.92l-.11,1.97c-.13,2.13-.27,3.31-.69,4.03-.47.87-1.24,1.1-1.92,1.1-.27,0-.52-.03-.73-.11Z"/>
    <path class="cls-2" d="M135.18,173.4c0-1.29,1.06-2,3.19-2.31l5.27-.76c-.34-1.23-1.44-1.9-3.45-1.9-2.15,0-3.53.58-3.97,1.74l-1.05-.15c.47-1.48,2.26-2.48,5.02-2.48,2.94,0,4.52,1.39,4.52,3.26v4.74h-.98l-.03-2.13c-1,1.5-2.92,2.24-4.98,2.24-2.26,0-3.53-.87-3.53-2.26ZM138.82,174.77c2.63,0,4.89-1.39,4.89-3.53v-.08l-5.23.74c-1.66.24-2.23.73-2.23,1.48,0,.87.85,1.39,2.56,1.39Z"/>
    <path class="cls-2" d="M150.78,171.39l-4.29-3.74h1.37l3.76,3.27h1.52v-3.27h1.03v3.27h1.52l3.79-3.27h1.37l-4.29,3.73,4.5,4.18h-1.39l-4-3.73h-1.5v3.73h-1.03v-3.73h-1.48l-4.03,3.73h-1.37l4.53-4.16Z"/>
    <path class="cls-2" d="M176.98,175.55h-10.53v-.9l5.79-3.82c2.16-1.44,3.1-2.27,3.1-3.71,0-1.71-1.48-2.79-3.73-2.79s-3.87.98-4.29,2.89l-1.1-.21c.56-2.29,2.58-3.66,5.39-3.66s4.85,1.47,4.85,3.76c0,1.71-1.11,2.84-3.61,4.45l-4.61,3.03h8.74v.97Z"/>
    <path class="cls-2" d="M178.69,177.89l.92-3.73h1.34l-1.4,3.73h-.85Z"/>
    <path class="cls-2" d="M191.34,172.6h-8.87v-.95l8.63-8.19h1.35v8.14h2.13v1h-2.13v2.95h-1.11v-2.95ZM191.34,171.6v-7.02l-7.42,7.02h7.42Z"/>
    <path class="cls-2" d="M200.78,167.64h1.03l4.55,4.74,4.48-4.74h1.03v7.9h-1.02v-6.61l-4.4,4.68h-.26l-4.4-4.61v6.55h-1.02v-7.9Z"/>
  </g>
  <g>
    <path class="cls-2" d="M66.04,214.11h6.73v.97h-6.73v-.97Z"/>
    <path class="cls-2" d="M78.88,215.39c0-2.42,2.19-4.05,5.42-4.05,2.66,0,4.42,1.06,4.97,2.74l-1.1.21c-.44-1.23-1.79-2.02-3.87-2.02-2.65,0-4.34,1.21-4.34,3.11s1.69,3.13,4.34,3.13c2.19,0,3.55-.84,3.95-2.11l1.08.16c-.44,1.68-2.31,2.89-5.03,2.89-3.23,0-5.42-1.66-5.42-4.06Z"/>
    <path class="cls-2" d="M94.19,212.37h-4.27v-.94h9.58v.94h-4.27v6.97h-1.03v-6.97Z"/>
    <path class="cls-2" d="M99.97,215.39c0-2.32,2.23-4.05,5.5-4.05,2.9,0,5.15,1.5,5.15,3.68,0,.18-.02.44-.05.63h-9.53c.15,1.76,1.79,2.9,4.44,2.9,2.08,0,3.39-.63,3.95-1.81l1.05.18c-.58,1.55-2.42,2.53-5,2.53-3.39,0-5.5-1.71-5.5-4.06ZM109.52,214.79c-.05-1.45-1.79-2.58-4.05-2.58-2.48,0-4.08,1.02-4.39,2.58h8.44Z"/>
    <path class="cls-2" d="M111.34,219.34l.21-.87c.13.03.29.05.4.05.48,0,.89-.19,1.16-.69.31-.56.45-1.68.55-3.6l.15-2.79h7.94v7.9h-1.03v-6.98h-5.92l-.11,1.97c-.13,2.13-.27,3.31-.69,4.03-.47.87-1.24,1.1-1.92,1.1-.27,0-.52-.03-.73-.11Z"/>
    <path class="cls-2" d="M123.41,219.34l.21-.87c.13.03.29.05.4.05.48,0,.89-.19,1.16-.69.31-.56.45-1.68.55-3.6l.15-2.79h7.94v7.9h-1.03v-6.98h-5.92l-.11,1.97c-.13,2.13-.27,3.31-.69,4.03-.47.87-1.24,1.1-1.92,1.1-.27,0-.52-.03-.73-.11Z"/>
    <path class="cls-2" d="M136.14,217.19c0-1.29,1.06-2,3.19-2.31l5.27-.76c-.34-1.23-1.44-1.9-3.45-1.9-2.15,0-3.53.58-3.97,1.74l-1.05-.15c.47-1.48,2.26-2.48,5.02-2.48,2.94,0,4.52,1.39,4.52,3.26v4.74h-.98l-.03-2.13c-1,1.5-2.92,2.24-4.98,2.24-2.26,0-3.53-.87-3.53-2.26ZM139.79,218.57c2.63,0,4.89-1.39,4.89-3.53v-.08l-5.23.74c-1.66.24-2.23.73-2.23,1.48,0,.87.85,1.39,2.56,1.39Z"/>
    <path class="cls-2" d="M151.74,215.18l-4.29-3.74h1.37l3.76,3.27h1.52v-3.27h1.03v3.27h1.52l3.79-3.27h1.37l-4.29,3.73,4.5,4.18h-1.39l-4-3.73h-1.5v3.73h-1.03v-3.73h-1.48l-4.03,3.73h-1.37l4.53-4.16Z"/>
    <path class="cls-2" d="M177.94,219.34h-10.53v-.9l5.79-3.82c2.16-1.44,3.1-2.27,3.1-3.71,0-1.71-1.48-2.79-3.73-2.79s-3.87.98-4.29,2.89l-1.1-.21c.56-2.29,2.58-3.66,5.39-3.66s4.85,1.47,4.85,3.76c0,1.71-1.11,2.84-3.61,4.45l-4.61,3.03h8.74v.97Z"/>
    <path class="cls-2" d="M180.71,221.68l.92-3.73h1.34l-1.4,3.73h-.85Z"/>
    <path class="cls-2" d="M187.93,210.02h-3.21v-.82c2.34-.02,3.16-.53,3.5-1.95h.81v12.1h-1.1v-9.32Z"/>
    <path class="cls-2" d="M198.03,211.44h1.03l4.55,4.74,4.48-4.74h1.03v7.9h-1.02v-6.61l-4.4,4.68h-.26l-4.4-4.61v6.55h-1.02v-7.9Z"/>
  </g>
  <g>
    <path class="cls-2" d="M.32,52.45h2.98l3.43,11.09,5.33-8.26h.63l5.43,8.17,3.3-11h2.95l-4.33,13.98h-3.08l-4.62-6.97-4.53,6.97h-3.1L.32,52.45Z"/>
    <path class="cls-2" d="M29.19,57.07h-4.16v-1.96c2.74-.06,4.08-.78,4.66-2.67h2.27v13.98h-2.78v-9.36Z"/>
    <path class="cls-2" d="M40,59.81h8.32v2.29h-8.32v-2.29Z"/>
    <path class="cls-2" d="M54.58,52.45h2.98l3.43,11.09,5.33-8.26h.63l5.43,8.17,3.3-11h2.95l-4.33,13.98h-3.08l-4.62-6.97-4.53,6.97h-3.1l-4.4-13.98Z"/>
    <path class="cls-2" d="M94.04,57.07c0,1.51-.69,2.63-2.48,4.33l-5.3,5.03h-3.58l5.35-4.89c-.6.13-1.21.21-1.85.21-4.31,0-6.75-1.81-6.75-4.66s2.78-4.85,7.33-4.85,7.27,1.9,7.27,4.83ZM86.7,59.63c1.29,0,2.33-.19,3.08-.56.91-.43,1.44-1.12,1.44-2,0-1.58-1.7-2.57-4.44-2.57s-4.48,1.01-4.48,2.59,1.66,2.54,4.4,2.54Z"/>
    <path class="cls-2" d="M100.75,60.39h7.78v1.12h-7.78v-1.12Z"/>
    <path class="cls-2" d="M119.97,62.16h-2.35v4.27h-1.19v-9.14h1.19v3.79h2.39l5.3-3.79h1.75l-6.06,4.31,6.32,4.83h-1.77l-5.58-4.27Z"/>
    <path class="cls-2" d="M129.16,57.3h1.16l.02,2.11c.95-1.36,2.82-2.22,5.24-2.22,3.64,0,6.1,1.88,6.1,4.68s-2.46,4.7-6.1,4.7c-2.42,0-4.27-.88-5.22-2.22v6.19h-1.19v-13.24ZM135.42,65.48c3.04,0,5-1.44,5-3.62s-1.96-3.6-5-3.6-5.07,1.4-5.07,3.6,2,3.62,5.07,3.62Z"/>
    <path class="cls-2" d="M143.55,61.86c0-2.7,2.48-4.68,6.32-4.68s6.32,1.98,6.32,4.68-2.52,4.7-6.32,4.7-6.32-1.98-6.32-4.7ZM149.87,65.48c3.13,0,5.07-1.45,5.07-3.62s-1.94-3.6-5.07-3.6-5.07,1.45-5.07,3.6,1.96,3.62,5.07,3.62Z"/>
    <path class="cls-2" d="M158.05,61.86c0-2.8,2.54-4.68,6.27-4.68,3.08,0,5.11,1.23,5.74,3.17l-1.27.24c-.5-1.42-2.07-2.33-4.48-2.33-3.06,0-5.02,1.4-5.02,3.6s1.96,3.62,5.02,3.62c2.54,0,4.1-.97,4.57-2.44l1.25.19c-.5,1.94-2.67,3.34-5.82,3.34-3.73,0-6.27-1.92-6.27-4.7Z"/>
    <path class="cls-2" d="M171.71,61.86c0-2.8,2.54-4.68,6.27-4.68,3.08,0,5.11,1.23,5.74,3.17l-1.27.24c-.5-1.42-2.07-2.33-4.48-2.33-3.06,0-5.02,1.4-5.02,3.6s1.96,3.62,5.02,3.62c2.54,0,4.1-.97,4.57-2.44l1.25.19c-.5,1.94-2.67,3.34-5.82,3.34-3.73,0-6.27-1.92-6.27-4.7Z"/>
    <path class="cls-2" d="M187,60.39h7.78v1.12h-7.78v-1.12Z"/>
    <path class="cls-2" d="M198.18,57.3h10.59v9.14h-1.19v-8.06h-8.2v8.06h-1.19v-9.14Z"/>
    <path class="cls-2" d="M211.46,63.95c0-1.49,1.23-2.31,3.69-2.67l6.1-.88c-.39-1.42-1.66-2.2-3.99-2.2-2.48,0-4.08.67-4.59,2.01l-1.21-.17c.54-1.72,2.61-2.87,5.8-2.87,3.39,0,5.22,1.6,5.22,3.77v5.48h-1.14l-.04-2.46c-1.16,1.73-3.38,2.59-5.76,2.59-2.61,0-4.08-1.01-4.08-2.61ZM215.67,65.54c3.04,0,5.65-1.6,5.65-4.08v-.09l-6.04.86c-1.92.28-2.57.84-2.57,1.72,0,1.01.99,1.6,2.96,1.6Z"/>
    <path class="cls-2" d="M225.81,57.3h1.19v3.77h8.3v-3.77h1.19v9.14h-1.19v-4.29h-8.3v4.29h-1.19v-9.14Z"/>
    <path class="cls-2" d="M239.01,61.86c0-2.69,2.57-4.68,6.36-4.68,3.36,0,5.95,1.73,5.95,4.25,0,.21-.02.5-.06.73h-11.02c.17,2.03,2.07,3.36,5.13,3.36,2.41,0,3.92-.73,4.57-2.09l1.21.21c-.67,1.79-2.8,2.93-5.78,2.93-3.92,0-6.36-1.98-6.36-4.7ZM250.04,61.17c-.06-1.68-2.07-2.98-4.68-2.98-2.87,0-4.72,1.17-5.07,2.98h9.75Z"/>
    <path class="cls-2" d="M252.15,66.43l.24-1.01c.15.04.34.06.47.06.56,0,1.03-.22,1.34-.8.35-.65.52-1.94.63-4.16l.17-3.23h9.17v9.14h-1.19v-8.07h-6.84l-.13,2.27c-.15,2.46-.32,3.82-.8,4.66-.54,1.01-1.44,1.27-2.22,1.27-.32,0-.6-.04-.84-.13Z"/>
    <path class="cls-2" d="M267.71,57.3h1.19v7.74l8.3-7.74h1.17v9.14h-1.19v-7.74l-8.32,7.74h-1.16v-9.14Z"/>
  </g>
  <g>
    <path class="cls-2" d="M2.52,87.55h10.09c3.19,0,5.35,1.66,5.35,4.34,0,2.11-1.51,3.56-3.99,4.01l5.78,5.63h-3.69l-5.46-5.28h-5.26v5.28h-2.82v-13.98ZM12.55,93.83c1.45,0,2.42-.73,2.42-1.94s-.93-1.92-2.44-1.92h-7.2v3.86h7.22Z"/>
    <path class="cls-2" d="M23.88,92.17h-4.16v-1.96c2.74-.06,4.08-.78,4.66-2.67h2.27v13.98h-2.78v-9.36Z"/>
    <path class="cls-2" d="M34.82,95.49h7.78v1.12h-7.78v-1.12Z"/>
    <path class="cls-2" d="M50.5,92.4h1.16l.02,2.11c.95-1.36,2.82-2.22,5.24-2.22,3.64,0,6.1,1.88,6.1,4.68s-2.46,4.7-6.1,4.7c-2.42,0-4.27-.88-5.22-2.22v6.19h-1.19v-13.24ZM56.76,100.58c3.04,0,5-1.44,5-3.62s-1.96-3.6-5-3.6-5.07,1.4-5.07,3.6,2,3.62,5.07,3.62Z"/>
    <path class="cls-2" d="M64.89,96.97c0-2.69,2.57-4.68,6.36-4.68,3.36,0,5.95,1.73,5.95,4.25,0,.21-.02.5-.06.73h-11.02c.17,2.03,2.07,3.36,5.13,3.36,2.41,0,3.92-.73,4.57-2.09l1.21.21c-.67,1.79-2.8,2.93-5.78,2.93-3.92,0-6.36-1.98-6.36-4.7ZM75.92,96.28c-.06-1.68-2.07-2.98-4.68-2.98-2.87,0-4.72,1.17-5.07,2.98h9.75Z"/>
    <path class="cls-2" d="M79.69,92.4h1.19v7.74l8.3-7.74h1.17v9.14h-1.19v-7.74l-8.32,7.74h-1.16v-9.14ZM82.71,88.26c.15,1.06,1.17,1.66,2.33,1.66s2.16-.6,2.31-1.66h1.16c-.24,1.62-1.64,2.57-3.47,2.57s-3.21-.95-3.49-2.57h1.16Z"/>
    <path class="cls-2" d="M92.27,101.54l.24-1.01c.15.04.34.06.47.06.56,0,1.03-.22,1.34-.8.35-.65.52-1.94.63-4.16l.17-3.23h9.17v9.14h-1.19v-8.07h-6.84l-.13,2.27c-.15,2.46-.32,3.82-.8,4.66-.54,1.01-1.44,1.27-2.22,1.27-.32,0-.6-.04-.84-.13Z"/>
  </g>
  <path class="cls-2" d="M670.72,629.15h-3.21v-.82c2.34-.02,3.16-.53,3.5-1.95h.81v12.1h-1.1v-9.32Z"/>
  <path class="cls-2" d="M675.47,611.37h-9.87v-.85l5.43-3.58c2.03-1.35,2.9-2.13,2.9-3.48,0-1.6-1.39-2.62-3.49-2.62s-3.63.92-4.02,2.71l-1.03-.2c.53-2.15,2.42-3.43,5.05-3.43s4.55,1.38,4.55,3.52c0,1.6-1.04,2.66-3.39,4.17l-4.33,2.84h8.2v.91Z"/>
  <path class="cls-2" d="M665.08,582.49l1.03-.26c.68,1.94,2.31,2.56,4.42,2.56,2.33,0,3.89-.95,3.89-2.46,0-1.3-.97-2.18-3.33-2.18h-2.21v-.92h2.16c1.94,0,3.07-.73,3.07-1.97s-1.38-2.21-3.55-2.21-3.63.77-4.16,2.42l-1.01-.2c.7-2.09,2.54-3.13,5.19-3.13,2.84,0,4.57,1.35,4.57,3.12,0,1.15-.76,1.98-2.09,2.39,1.63.38,2.42,1.36,2.42,2.69,0,1.95-1.94,3.36-4.94,3.36-2.83,0-4.67-.97-5.44-3.21Z"/>
  <path class="cls-2" d="M673.11,556.04h-8.32v-.89l8.09-7.68h1.27v7.64h2v.94h-2v2.77h-1.04v-2.77ZM673.11,555.1v-6.58l-6.96,6.58h6.96Z"/>
  <path class="cls-2" d="M664.84,381.33l1.04-.27c.68,1.84,2.3,2.42,4.26,2.42,2.5,0,4.1-1.26,4.1-2.89,0-1.85-1.56-2.95-4.04-2.95-1.88,0-3.13.5-3.93,1.3l-.83-.17,1.3-5.84h8v.91h-7.24l-.88,3.86c.98-.68,2.39-.97,3.66-.97,3.1,0,5.01,1.5,5.01,3.86,0,2.21-2.09,3.8-5.14,3.8-2.66,0-4.54-.95-5.31-3.05Z"/>
  <path class="cls-2" d="M664.91,352.42c0-1.41.76-2.43,2.31-3.9l3.93-3.71h1.33l-4.66,4.26c.86-.36,1.75-.48,2.66-.48,2.93,0,5.05,1.48,5.05,3.78s-2.16,3.89-5.35,3.89-5.28-1.51-5.28-3.84ZM670.19,355.35c2.63,0,4.31-1.21,4.31-2.98s-1.68-2.9-4.19-2.9c-1.25,0-2.25.21-3.01.67-.83.51-1.36,1.33-1.36,2.28,0,1.74,1.72,2.93,4.25,2.93Z"/>
  <path class="cls-2" d="M674.18,319.97h-8.59v-.94h9.83v.8l-6.93,10.54h-1.18l6.87-10.4Z"/>
  <path class="cls-2" d="M664.55,300.06c0-1.48,1.39-2.53,3.19-2.83-1.36-.32-2.4-1.21-2.4-2.51,0-1.69,1.75-2.92,4.69-2.92s4.69,1.22,4.69,2.92c0,1.29-1.04,2.18-2.39,2.51,1.78.3,3.18,1.35,3.18,2.83,0,1.95-1.95,3.3-5.47,3.3s-5.47-1.35-5.47-3.3ZM670.03,302.45c2.9,0,4.42-1,4.42-2.4,0-1.53-1.95-2.31-4.42-2.31s-4.42.79-4.42,2.31c0,1.41,1.51,2.4,4.42,2.4ZM670.03,296.84c2.03,0,3.66-.77,3.66-2.09,0-1.23-1.32-2.06-3.66-2.06s-3.66.83-3.66,2.06c0,1.32,1.65,2.09,3.66,2.09Z"/>
  <path class="cls-2" d="M675.38,269.19c0,1.41-.76,2.43-2.31,3.9l-3.93,3.7h-1.33l4.66-4.26c-.86.36-1.75.48-2.66.48-2.93,0-5.05-1.48-5.05-3.78s2.16-3.89,5.35-3.89,5.28,1.51,5.28,3.84ZM669.98,272.14c1.25,0,2.25-.21,3.01-.67.83-.51,1.36-1.33,1.36-2.28,0-1.74-1.72-2.93-4.25-2.93s-4.31,1.21-4.31,2.98,1.68,2.9,4.19,2.9Z"/>
  <g>
    <path class="cls-2" d="M665.59,166.55h-2.34v-.6c1.71-.01,2.31-.39,2.55-1.42h.59v8.82h-.8v-6.8Z"/>
    <path class="cls-2" d="M668.68,168.92c0-2.62,1.85-4.47,4.43-4.47s4.45,1.85,4.45,4.47-1.85,4.52-4.45,4.52-4.43-1.87-4.43-4.52ZM673.12,172.72c2.11,0,3.64-1.58,3.64-3.8s-1.53-3.75-3.64-3.75-3.62,1.56-3.62,3.75,1.52,3.8,3.62,3.8Z"/>
  </g>
  <g>
    <path class="cls-2" d="M666.23,143.93h-2.34v-.6c1.71-.01,2.31-.39,2.55-1.42h.59v8.82h-.8v-6.8Z"/>
    <path class="cls-2" d="M674.53,143.93h-2.34v-.6c1.71-.01,2.31-.39,2.55-1.42h.59v8.82h-.8v-6.8Z"/>
  </g>
  <g>
    <path class="cls-2" d="M666.06,120.97h-2.34v-.6c1.71-.01,2.31-.39,2.55-1.42h.59v8.82h-.8v-6.8Z"/>
    <path class="cls-2" d="M676.49,127.77h-7.68v-.66l4.22-2.79c1.58-1.05,2.26-1.66,2.26-2.71,0-1.25-1.08-2.04-2.72-2.04s-2.82.72-3.13,2.11l-.8-.15c.41-1.67,1.88-2.67,3.93-2.67s3.54,1.07,3.54,2.74c0,1.25-.81,2.07-2.64,3.25l-3.36,2.21h6.38v.71Z"/>
  </g>
  <g>
    <path class="cls-2" d="M665.98,98.01h-2.34v-.6c1.71-.01,2.31-.39,2.55-1.42h.59v8.82h-.8v-6.8Z"/>
    <path class="cls-2" d="M668.44,102.4l.8-.2c.53,1.51,1.8,1.99,3.44,1.99,1.81,0,3.02-.74,3.02-1.92,0-1.01-.75-1.69-2.59-1.69h-1.72v-.72h1.68c1.51,0,2.39-.56,2.39-1.53s-1.07-1.72-2.76-1.72-2.82.6-3.24,1.88l-.79-.15c.54-1.62,1.98-2.44,4.04-2.44,2.21,0,3.55,1.05,3.55,2.42,0,.89-.59,1.54-1.62,1.86,1.27.29,1.88,1.06,1.88,2.09,0,1.52-1.51,2.61-3.85,2.61-2.2,0-3.63-.75-4.24-2.49Z"/>
  </g>
  <g>
    <path class="cls-2" d="M665.79,75.05h-2.34v-.6c1.71-.01,2.31-.39,2.55-1.42h.59v8.82h-.8v-6.8Z"/>
    <path class="cls-2" d="M674.61,79.7h-6.47v-.69l6.29-5.98h.99v5.94h1.55v.73h-1.55v2.15h-.81v-2.15ZM674.61,78.97v-5.12l-5.41,5.12h5.41Z"/>
  </g>
  <g>
    <path class="cls-2" d="M665.88,52.09h-2.34v-.6c1.71-.01,2.31-.39,2.55-1.42h.59v8.82h-.8v-6.8Z"/>
    <path class="cls-2" d="M668.61,56.59l.81-.21c.53,1.44,1.79,1.88,3.32,1.88,1.94,0,3.19-.98,3.19-2.25,0-1.44-1.21-2.29-3.14-2.29-1.46,0-2.43.39-3.06,1.01l-.65-.13,1.01-4.54h6.22v.71h-5.63l-.68,3c.76-.53,1.86-.75,2.85-.75,2.41,0,3.89,1.16,3.89,3,0,1.72-1.62,2.95-4,2.95-2.07,0-3.53-.74-4.13-2.38Z"/>
  </g>
  <g>
    <path class="cls-2" d="M665.89,29.46h-2.34v-.6c1.71-.01,2.31-.39,2.55-1.42h.59v8.82h-.8v-6.8Z"/>
    <path class="cls-2" d="M668.53,33.36c0-1.09.59-1.89,1.8-3.04l3.06-2.88h1.04l-3.62,3.32c.67-.28,1.37-.38,2.07-.38,2.28,0,3.93,1.15,3.93,2.94s-1.68,3.02-4.17,3.02-4.11-1.18-4.11-2.99ZM672.64,35.64c2.05,0,3.35-.94,3.35-2.32s-1.31-2.26-3.26-2.26c-.98,0-1.75.16-2.34.52-.65.4-1.06,1.04-1.06,1.78,0,1.35,1.34,2.28,3.31,2.28Z"/>
  </g>
  <g>
    <path class="cls-2" d="M642.07,7.84h-2.34v-.6c1.71-.01,2.31-.39,2.55-1.42h.59v8.82h-.8v-6.8Z"/>
    <path class="cls-2" d="M651.11,6.54h-6.68v-.73h7.65v.62l-5.39,8.2h-.92l5.34-8.09Z"/>
  </g>
  <g>
    <path class="cls-2" d="M610.49,7.5h-2.34v-.6c1.71-.01,2.31-.39,2.55-1.42h.59v8.82h-.8v-6.8Z"/>
    <path class="cls-2" d="M613.37,11.82c0-1.15,1.08-1.96,2.48-2.2-1.06-.25-1.87-.94-1.87-1.95,0-1.32,1.37-2.27,3.65-2.27s3.65.95,3.65,2.27c0,1-.81,1.69-1.86,1.95,1.39.24,2.47,1.05,2.47,2.2,0,1.52-1.52,2.56-4.26,2.56s-4.26-1.05-4.26-2.56ZM617.63,13.68c2.26,0,3.44-.78,3.44-1.87,0-1.19-1.52-1.8-3.44-1.8s-3.44.61-3.44,1.8c0,1.09,1.18,1.87,3.44,1.87ZM617.63,9.31c1.58,0,2.85-.6,2.85-1.62,0-.95-1.02-1.6-2.85-1.6s-2.85.65-2.85,1.6c0,1.02,1.28,1.62,2.85,1.62Z"/>
  </g>
  <g>
    <path class="cls-2" d="M340.44,88.89h-2.34v-.6c1.71-.01,2.31-.39,2.55-1.42h.59v8.82h-.8v-6.8Z"/>
    <path class="cls-2" d="M351.25,89.77c0,1.09-.59,1.89-1.8,3.04l-3.06,2.88h-1.04l3.62-3.32c-.67.28-1.36.38-2.07.38-2.28,0-3.93-1.15-3.93-2.94s1.68-3.02,4.16-3.02,4.11,1.18,4.11,2.99ZM347.05,92.06c.98,0,1.75-.16,2.34-.52.65-.4,1.06-1.04,1.06-1.78,0-1.35-1.34-2.28-3.31-2.28s-3.35.94-3.35,2.32,1.31,2.26,3.26,2.26Z"/>
  </g>
  <g>
    <path class="cls-2" d="M346.06,139.99h-7.68v-.66l4.22-2.79c1.58-1.05,2.26-1.66,2.26-2.71,0-1.25-1.08-2.04-2.72-2.04s-2.82.72-3.13,2.11l-.8-.15c.41-1.67,1.88-2.67,3.93-2.67s3.54,1.07,3.54,2.74c0,1.25-.81,2.07-2.64,3.25l-3.36,2.21h6.38v.71Z"/>
    <path class="cls-2" d="M349.32,133.19h-2.34v-.6c1.71-.01,2.31-.39,2.55-1.42h.59v8.82h-.8v-6.8Z"/>
  </g>
  <g>
    <path class="cls-2" d="M343.76,117.16h-6.59v-.56l3.62-2.39c1.35-.9,1.94-1.42,1.94-2.32,0-1.07-.93-1.75-2.33-1.75s-2.42.62-2.68,1.81l-.69-.13c.35-1.43,1.61-2.29,3.37-2.29s3.04.92,3.04,2.35c0,1.07-.7,1.78-2.26,2.78l-2.88,1.9h5.47v.6Z"/>
    <path class="cls-2" d="M344.78,113.35c0-2.25,1.58-3.83,3.8-3.83s3.81,1.58,3.81,3.83-1.58,3.87-3.81,3.87-3.8-1.6-3.8-3.87ZM348.58,116.61c1.81,0,3.12-1.35,3.12-3.26s-1.31-3.22-3.12-3.22-3.11,1.34-3.11,3.22,1.3,3.26,3.11,3.26Z"/>
  </g>
  <g>
    <path class="cls-2" d="M344.39,161.8h-6.59v-.56l3.62-2.39c1.35-.9,1.94-1.42,1.94-2.32,0-1.07-.93-1.75-2.33-1.75s-2.42.62-2.68,1.81l-.69-.13c.35-1.43,1.61-2.29,3.37-2.29s3.04.92,3.04,2.35c0,1.07-.7,1.78-2.26,2.78l-2.88,1.9h5.47v.6Z"/>
    <path class="cls-2" d="M351.97,161.8h-6.59v-.56l3.62-2.39c1.35-.9,1.94-1.42,1.94-2.32,0-1.07-.93-1.75-2.33-1.75s-2.42.62-2.68,1.81l-.69-.13c.35-1.43,1.61-2.29,3.37-2.29s3.04.92,3.04,2.35c0,1.07-.7,1.78-2.26,2.78l-2.88,1.9h5.47v.6Z"/>
  </g>
  <g>
    <path class="cls-2" d="M344.32,184.12h-6.59v-.56l3.62-2.39c1.35-.9,1.94-1.42,1.94-2.32,0-1.07-.93-1.75-2.33-1.75s-2.42.62-2.68,1.81l-.69-.13c.35-1.43,1.61-2.29,3.37-2.29s3.04.92,3.04,2.35c0,1.07-.7,1.78-2.26,2.78l-2.88,1.9h5.47v.6Z"/>
    <path class="cls-2" d="M345.01,182.05l.69-.17c.45,1.29,1.54,1.7,2.95,1.7,1.55,0,2.59-.64,2.59-1.64,0-.87-.65-1.45-2.22-1.45h-1.47v-.62h1.44c1.29,0,2.05-.48,2.05-1.31s-.92-1.47-2.37-1.47-2.42.51-2.77,1.61l-.68-.13c.46-1.39,1.7-2.09,3.46-2.09,1.9,0,3.05.9,3.05,2.08,0,.77-.5,1.32-1.39,1.59,1.09.25,1.61.91,1.61,1.8,0,1.3-1.29,2.24-3.3,2.24-1.89,0-3.12-.65-3.63-2.14Z"/>
  </g>
  <g>
    <path class="cls-2" d="M344.25,206.11h-6.59v-.56l3.62-2.39c1.35-.9,1.94-1.42,1.94-2.32,0-1.07-.93-1.75-2.33-1.75s-2.42.62-2.68,1.81l-.69-.13c.35-1.43,1.61-2.29,3.37-2.29s3.04.92,3.04,2.35c0,1.07-.7,1.78-2.26,2.78l-2.88,1.9h5.47v.6Z"/>
    <path class="cls-2" d="M350.1,204.26h-5.55v-.6l5.4-5.12h.85v5.09h1.33v.63h-1.33v1.85h-.7v-1.85ZM350.1,203.64v-4.39l-4.64,4.39h4.64Z"/>
  </g>
  <g>
    <path class="cls-2" d="M393.3,275.49h-6.59v-.56l3.62-2.39c1.35-.9,1.94-1.42,1.94-2.32,0-1.07-.93-1.75-2.33-1.75s-2.42.62-2.68,1.81l-.69-.13c.35-1.43,1.61-2.29,3.37-2.29s3.04.92,3.04,2.35c0,1.07-.7,1.78-2.26,2.78l-2.88,1.9h5.47v.6Z"/>
    <path class="cls-2" d="M393.99,273.52l.7-.18c.45,1.23,1.53,1.61,2.84,1.61,1.66,0,2.73-.84,2.73-1.93,0-1.23-1.04-1.97-2.69-1.97-1.25,0-2.09.33-2.62.87l-.55-.11.87-3.89h5.33v.6h-4.83l-.58,2.57c.66-.45,1.59-.65,2.44-.65,2.07,0,3.34,1,3.34,2.57,0,1.47-1.39,2.53-3.43,2.53-1.78,0-3.03-.64-3.54-2.04Z"/>
  </g>
  <g>
    <path class="cls-2" d="M393.31,297.42h-6.59v-.56l3.62-2.39c1.35-.9,1.94-1.42,1.94-2.32,0-1.07-.93-1.75-2.33-1.75s-2.42.62-2.68,1.81l-.69-.13c.35-1.43,1.61-2.29,3.37-2.29s3.04.92,3.04,2.35c0,1.07-.7,1.78-2.26,2.78l-2.88,1.9h5.47v.6Z"/>
    <path class="cls-2" d="M394.06,294.93c0-.94.5-1.62,1.54-2.6l2.62-2.47h.89l-3.11,2.84c.58-.24,1.17-.32,1.78-.32,1.96,0,3.37.99,3.37,2.52s-1.44,2.59-3.57,2.59-3.52-1.01-3.52-2.56ZM397.58,296.89c1.75,0,2.88-.81,2.88-1.99s-1.12-1.94-2.79-1.94c-.84,0-1.5.14-2.01.44-.55.34-.91.89-.91,1.52,0,1.16,1.15,1.96,2.83,1.96Z"/>
  </g>
  <g>
    <path class="cls-2" d="M393.78,319.36h-6.59v-.56l3.62-2.39c1.35-.9,1.94-1.42,1.94-2.32,0-1.07-.93-1.75-2.33-1.75s-2.42.62-2.68,1.81l-.69-.13c.35-1.43,1.61-2.29,3.37-2.29s3.04.92,3.04,2.35c0,1.07-.7,1.78-2.26,2.78l-2.88,1.9h5.47v.6Z"/>
    <path class="cls-2" d="M400,312.42h-5.73v-.62h6.56v.53l-4.62,7.03h-.79l4.58-6.94Z"/>
  </g>
  <g>
    <path class="cls-2" d="M393.04,341.64h-6.59v-.56l3.62-2.39c1.35-.9,1.94-1.42,1.94-2.32,0-1.07-.93-1.75-2.33-1.75s-2.42.62-2.68,1.81l-.69-.13c.35-1.43,1.61-2.29,3.37-2.29s3.04.92,3.04,2.35c0,1.07-.7,1.78-2.26,2.78l-2.88,1.9h5.47v.6Z"/>
    <path class="cls-2" d="M393.93,339.51c0-.99.93-1.68,2.13-1.89-.91-.21-1.6-.81-1.6-1.67,0-1.13,1.17-1.95,3.13-1.95s3.13.82,3.13,1.95c0,.86-.7,1.45-1.59,1.67,1.19.2,2.12.9,2.12,1.89,0,1.3-1.3,2.2-3.65,2.2s-3.65-.9-3.65-2.2ZM397.58,341.1c1.94,0,2.94-.67,2.94-1.6,0-1.02-1.3-1.54-2.94-1.54s-2.95.52-2.95,1.54c0,.94,1.01,1.6,2.95,1.6ZM397.58,337.36c1.35,0,2.44-.51,2.44-1.39,0-.82-.88-1.37-2.44-1.37s-2.44.55-2.44,1.37c0,.88,1.1,1.39,2.44,1.39Z"/>
  </g>
  <g>
    <path class="cls-2" d="M393.27,363.24h-6.59v-.56l3.62-2.39c1.35-.9,1.94-1.42,1.94-2.32,0-1.07-.93-1.75-2.33-1.75s-2.42.62-2.68,1.81l-.69-.13c.35-1.43,1.61-2.29,3.37-2.29s3.04.92,3.04,2.35c0,1.07-.7,1.78-2.26,2.78l-2.88,1.9h5.47v.6Z"/>
    <path class="cls-2" d="M401.16,358.17c0,.94-.5,1.62-1.54,2.6l-2.62,2.47h-.89l3.11-2.84c-.58.24-1.17.32-1.78.32-1.96,0-3.37-.99-3.37-2.52s1.44-2.59,3.57-2.59,3.52,1.01,3.52,2.56ZM397.56,360.14c.84,0,1.5-.14,2.01-.44.55-.34.91-.89.91-1.52,0-1.16-1.15-1.96-2.83-1.96s-2.87.81-2.87,1.99,1.12,1.94,2.79,1.94Z"/>
  </g>
  <g>
    <path class="cls-2" d="M385.74,382.78l.69-.17c.45,1.29,1.54,1.7,2.95,1.7,1.55,0,2.59-.64,2.59-1.64,0-.87-.65-1.45-2.22-1.45h-1.47v-.62h1.44c1.29,0,2.05-.48,2.05-1.31s-.92-1.47-2.37-1.47-2.42.51-2.77,1.61l-.68-.13c.46-1.39,1.7-2.09,3.46-2.09,1.9,0,3.05.9,3.05,2.08,0,.77-.5,1.32-1.39,1.59,1.09.25,1.61.91,1.61,1.8,0,1.3-1.29,2.24-3.3,2.24-1.89,0-3.12-.65-3.63-2.14Z"/>
    <path class="cls-2" d="M394.14,381.04c0-2.25,1.58-3.83,3.8-3.83s3.81,1.58,3.81,3.83-1.58,3.87-3.81,3.87-3.8-1.6-3.8-3.87ZM397.94,384.3c1.81,0,3.12-1.35,3.12-3.26s-1.31-3.22-3.12-3.22-3.11,1.34-3.11,3.22,1.3,3.26,3.11,3.26Z"/>
  </g>
  <g>
    <path class="cls-2" d="M386.9,405.24l.69-.17c.45,1.29,1.54,1.71,2.95,1.71,1.55,0,2.59-.64,2.59-1.64,0-.87-.65-1.45-2.22-1.45h-1.47v-.62h1.44c1.29,0,2.05-.48,2.05-1.31s-.92-1.47-2.37-1.47-2.42.51-2.77,1.61l-.68-.13c.46-1.39,1.7-2.09,3.46-2.09,1.9,0,3.05.9,3.05,2.08,0,.77-.5,1.32-1.39,1.59,1.09.25,1.61.91,1.61,1.79,0,1.3-1.29,2.24-3.3,2.24-1.89,0-3.12-.65-3.63-2.14Z"/>
    <path class="cls-2" d="M397.72,401.48h-2.01v-.51c1.46-.01,1.98-.33,2.19-1.22h.5v7.56h-.69v-5.83Z"/>
  </g>
  <g>
    <path class="cls-2" d="M386.5,427.03l.69-.17c.45,1.29,1.54,1.71,2.95,1.71,1.55,0,2.59-.64,2.59-1.64,0-.87-.65-1.45-2.22-1.45h-1.47v-.62h1.44c1.29,0,2.05-.48,2.05-1.31s-.92-1.47-2.37-1.47-2.42.51-2.77,1.61l-.68-.13c.46-1.39,1.7-2.09,3.46-2.09,1.9,0,3.05.9,3.05,2.08,0,.77-.5,1.32-1.39,1.59,1.09.25,1.61.91,1.61,1.79,0,1.3-1.29,2.24-3.3,2.24-1.89,0-3.12-.65-3.63-2.14Z"/>
    <path class="cls-2" d="M401.07,429.1h-6.59v-.56l3.62-2.39c1.35-.9,1.94-1.42,1.94-2.32,0-1.07-.93-1.74-2.33-1.74s-2.42.62-2.68,1.8l-.69-.13c.35-1.43,1.61-2.29,3.37-2.29s3.04.92,3.04,2.35c0,1.07-.7,1.78-2.26,2.78l-2.88,1.9h5.47v.61Z"/>
  </g>
  <g>
    <path class="cls-2" d="M386.34,448.49l.69-.17c.45,1.29,1.54,1.71,2.95,1.71,1.55,0,2.59-.64,2.59-1.64,0-.87-.65-1.45-2.22-1.45h-1.47v-.62h1.44c1.29,0,2.05-.48,2.05-1.31s-.92-1.47-2.37-1.47-2.42.51-2.77,1.61l-.68-.13c.46-1.39,1.7-2.09,3.46-2.09,1.9,0,3.05.9,3.05,2.08,0,.77-.5,1.32-1.39,1.59,1.09.25,1.61.91,1.61,1.79,0,1.3-1.29,2.24-3.3,2.24-1.89,0-3.12-.65-3.63-2.14Z"/>
    <path class="cls-2" d="M394.3,448.49l.69-.17c.45,1.29,1.54,1.71,2.95,1.71,1.55,0,2.59-.64,2.59-1.64,0-.87-.65-1.45-2.22-1.45h-1.47v-.62h1.44c1.29,0,2.05-.48,2.05-1.31s-.92-1.47-2.37-1.47-2.42.51-2.77,1.61l-.68-.13c.46-1.39,1.7-2.09,3.46-2.09,1.9,0,3.05.9,3.05,2.08,0,.77-.5,1.32-1.39,1.59,1.09.25,1.61.91,1.61,1.79,0,1.3-1.29,2.24-3.3,2.24-1.89,0-3.12-.65-3.63-2.14Z"/>
  </g>
  <g>
    <path class="cls-2" d="M386.19,470.28l.69-.17c.45,1.29,1.54,1.71,2.95,1.71,1.55,0,2.59-.64,2.59-1.64,0-.87-.65-1.45-2.22-1.45h-1.47v-.62h1.44c1.29,0,2.05-.48,2.05-1.31s-.92-1.47-2.37-1.47-2.42.51-2.77,1.61l-.68-.13c.46-1.39,1.7-2.09,3.46-2.09,1.9,0,3.05.9,3.05,2.08,0,.77-.5,1.32-1.39,1.59,1.09.25,1.61.91,1.61,1.79,0,1.3-1.29,2.24-3.3,2.24-1.89,0-3.12-.65-3.63-2.14Z"/>
    <path class="cls-2" d="M399.52,470.5h-5.55v-.59l5.4-5.12h.85v5.09h1.33v.62h-1.33v1.85h-.7v-1.85ZM399.52,469.88v-4.39l-4.64,4.39h4.64Z"/>
  </g>
  <g>
    <path class="cls-2" d="M385.97,492.07l.69-.17c.45,1.29,1.54,1.71,2.95,1.71,1.55,0,2.59-.64,2.59-1.64,0-.87-.65-1.45-2.22-1.45h-1.47v-.62h1.44c1.29,0,2.05-.48,2.05-1.31s-.92-1.47-2.37-1.47-2.42.51-2.77,1.61l-.68-.13c.46-1.39,1.7-2.09,3.46-2.09,1.9,0,3.05.9,3.05,2.08,0,.77-.5,1.32-1.39,1.59,1.09.25,1.61.91,1.61,1.79,0,1.3-1.29,2.24-3.3,2.24-1.89,0-3.12-.65-3.63-2.14Z"/>
    <path class="cls-2" d="M394.02,492.17l.7-.18c.45,1.23,1.53,1.61,2.84,1.61,1.66,0,2.73-.84,2.73-1.93,0-1.23-1.04-1.97-2.69-1.97-1.25,0-2.09.33-2.62.87l-.55-.11.87-3.89h5.33v.61h-4.83l-.58,2.57c.66-.45,1.59-.65,2.44-.65,2.07,0,3.34,1,3.34,2.57,0,1.47-1.39,2.53-3.43,2.53-1.78,0-3.03-.63-3.54-2.04Z"/>
  </g>
  <g>
    <path class="cls-2" d="M226.01,534.24h-5.73v-.62h6.56v.53l-4.62,7.03h-.79l4.58-6.94Z"/>
    <path class="cls-2" d="M227.45,537.38c0-2.25,1.58-3.83,3.8-3.83s3.81,1.58,3.81,3.83-1.58,3.87-3.81,3.87-3.8-1.6-3.8-3.87ZM231.25,540.63c1.81,0,3.12-1.35,3.12-3.26s-1.31-3.22-3.12-3.22-3.11,1.34-3.11,3.22,1.3,3.26,3.11,3.26Z"/>
  </g>
  <g>
    <path class="cls-2" d="M226.55,594.46h-5.73v-.62h6.56v.53l-4.62,7.03h-.79l4.58-6.94Z"/>
    <path class="cls-2" d="M234.66,601.4h-6.59v-.56l3.62-2.39c1.35-.9,1.94-1.42,1.94-2.32,0-1.07-.93-1.74-2.33-1.74s-2.42.62-2.68,1.8l-.69-.13c.35-1.43,1.61-2.29,3.37-2.29s3.04.92,3.04,2.35c0,1.07-.7,1.78-2.26,2.78l-2.88,1.9h5.47v.61Z"/>
  </g>
  <g>
    <path class="cls-2" d="M226.51,682.25h-5.73v-.62h6.56v.53l-4.62,7.03h-.79l4.58-6.94Z"/>
    <path class="cls-2" d="M227.69,687.12l.69-.17c.45,1.29,1.54,1.71,2.95,1.71,1.55,0,2.59-.64,2.59-1.64,0-.87-.65-1.45-2.22-1.45h-1.47v-.62h1.44c1.29,0,2.05-.48,2.05-1.31s-.92-1.47-2.37-1.47-2.42.51-2.77,1.61l-.68-.13c.46-1.39,1.69-2.09,3.46-2.09,1.9,0,3.05.9,3.05,2.08,0,.77-.5,1.32-1.39,1.59,1.09.25,1.61.91,1.61,1.79,0,1.3-1.29,2.24-3.3,2.24-1.89,0-3.12-.65-3.63-2.14Z"/>
  </g>
  <g>
    <path class="cls-2" d="M373.89,682.25h-5.73v-.62h6.56v.53l-4.62,7.03h-.79l4.58-6.94Z"/>
    <path class="cls-2" d="M375.11,687.22l.7-.18c.45,1.23,1.53,1.61,2.84,1.61,1.66,0,2.73-.84,2.73-1.93,0-1.23-1.04-1.97-2.69-1.97-1.25,0-2.09.33-2.62.87l-.55-.11.87-3.89h5.33v.61h-4.83l-.58,2.57c.66-.45,1.59-.65,2.44-.65,2.07,0,3.34,1,3.34,2.57,0,1.47-1.39,2.53-3.43,2.53-1.78,0-3.03-.63-3.54-2.04Z"/>
  </g>
  <g>
    <path class="cls-2" d="M637.84,531.68h1.61l1.86,6,2.88-4.47h.34l2.94,4.42,1.79-5.95h1.59l-2.34,7.56h-1.66l-2.5-3.77-2.45,3.77h-1.67l-2.38-7.56Z"/>
    <path class="cls-2" d="M653.46,534.18h-2.25v-1.06c1.48-.03,2.21-.42,2.52-1.44h1.23v7.56h-1.5v-5.06Z"/>
  </g>
  <g>
    <path class="cls-2" d="M624.33,250.18h1.61l1.86,6,2.88-4.47h.34l2.94,4.42,1.79-5.95h1.59l-2.34,7.56h-1.66l-2.5-3.77-2.45,3.77h-1.67l-2.38-7.56Z"/>
    <path class="cls-2" d="M645.42,257.75h-7.39v-1.11l3.79-2.09c1.35-.75,1.81-1.16,1.81-1.85,0-.8-.72-1.36-1.97-1.36s-2.11.46-2.4,1.46l-1.52-.31c.46-1.59,1.92-2.42,3.92-2.42,2.16,0,3.52,1.08,3.52,2.59,0,1.28-1.06,2.03-2.53,2.8l-1.99,1.06h4.76v1.22Z"/>
  </g>
  <g>
    <path class="cls-2" d="M635.84,184.68h1.61l1.86,6,2.88-4.47h.34l2.94,4.42,1.79-5.95h1.59l-2.34,7.56h-1.66l-2.5-3.77-2.45,3.77h-1.67l-2.38-7.56Z"/>
    <path class="cls-2" d="M649.09,190.27l1.5-.39c.32.87,1.18,1.24,2.52,1.24,1.56,0,2.21-.48,2.21-1.14,0-.59-.47-.97-1.6-.97h-1.73v-1.24h1.6c1.02,0,1.59-.34,1.59-.91,0-.6-.68-1.05-2.02-1.05s-2.14.42-2.43,1.24l-1.48-.33c.49-1.39,1.97-2.15,3.92-2.15,2.21,0,3.52.95,3.52,2.2,0,.68-.44,1.25-1.26,1.56,1.04.27,1.46.94,1.46,1.68,0,1.42-1.51,2.34-3.79,2.34-2.09,0-3.61-.68-4.02-2.09Z"/>
  </g>
  <g>
    <path class="cls-2" d="M466.21,72.33h1.61l1.86,6,2.88-4.47h.34l2.94,4.42,1.79-5.95h1.59l-2.34,7.56h-1.66l-2.5-3.77-2.45,3.77h-1.67l-2.38-7.56Z"/>
    <path class="cls-2" d="M479.35,77.4c0-.82.37-1.42,1.34-2.34l2.86-2.72h1.94l-2.89,2.64c.32-.07.66-.11,1-.11,2.33,0,3.65.98,3.65,2.52s-1.5,2.62-3.96,2.62-3.93-1.03-3.93-2.61ZM483.28,78.79c1.51,0,2.42-.54,2.42-1.4s-.9-1.37-2.38-1.37c-.7,0-1.26.1-1.66.3-.49.23-.78.6-.78,1.08,0,.86.92,1.39,2.4,1.39Z"/>
  </g>
  <g>
    <path class="cls-2" d="M552.72,28.7h1.61l1.86,6,2.88-4.47h.34l2.94,4.42,1.79-5.95h1.59l-2.34,7.56h-1.66l-2.5-3.77-2.45,3.77h-1.67l-2.38-7.56Z"/>
    <path class="cls-2" d="M571.03,34.67h-5.44v-1.11l5.1-4.86h1.81v4.71h1.46v1.26h-1.46v1.59h-1.47v-1.59ZM571.03,33.41v-3.28l-3.49,3.28h3.49Z"/>
  </g>
  <g>
    <path class="cls-2" d="M487.42,28.7h1.61l1.86,6,2.88-4.47h.34l2.94,4.42,1.79-5.95h1.59l-2.34,7.56h-1.66l-2.5-3.77-2.45,3.77h-1.67l-2.38-7.56Z"/>
    <path class="cls-2" d="M500.88,34.4l1.53-.46c.38.92,1.28,1.2,2.41,1.2,1.4,0,2.23-.56,2.23-1.38,0-.87-.81-1.38-2.22-1.38-1.13,0-1.84.25-2.33.72l-1.3-.36.95-4.02h6.04v1.26h-4.94l-.43,1.71c.64-.36,1.44-.51,2.31-.51,2.19,0,3.48,1.06,3.48,2.58s-1.34,2.63-3.78,2.63c-1.93,0-3.34-.57-3.94-1.98Z"/>
  </g>
  <g>
    <path class="cls-2" d="M366.12,243.59h1.61l1.86,6,2.88-4.47h.34l2.94,4.42,1.79-5.95h1.59l-2.34,7.56h-1.66l-2.5-3.77-2.45,3.77h-1.67l-2.38-7.56Z"/>
    <path class="cls-2" d="M379.73,248.96c0-.88.66-1.53,1.79-1.83-.78-.29-1.28-.85-1.28-1.6,0-1.18,1.26-2.06,3.53-2.06s3.52.88,3.52,2.06c0,.75-.49,1.3-1.25,1.6,1.12.29,1.75.95,1.75,1.83,0,1.37-1.34,2.3-4.02,2.3s-4.03-.93-4.03-2.3ZM383.77,250.03c1.65,0,2.46-.44,2.46-1.13,0-.73-.91-1.12-2.46-1.12s-2.45.39-2.45,1.12c0,.69.8,1.13,2.45,1.13ZM383.77,246.62c1.27,0,2.03-.37,2.03-1s-.69-1-2.03-1-2.04.39-2.04,1,.77,1,2.04,1Z"/>
  </g>
  <g>
    <path class="cls-2" d="M497.22,105.82h1.61l1.86,6,2.88-4.47h.34l2.94,4.42,1.79-5.95h1.59l-2.34,7.56h-1.66l-2.5-3.77-2.45,3.77h-1.67l-2.38-7.56Z"/>
    <path class="cls-2" d="M516.06,107.14h-5.45v-1.32h7.18v1.19l-4.3,6.37h-1.71l4.28-6.24Z"/>
  </g>
  <g>
    <path class="cls-2" d="M359.5,514.79h1.61l1.86,6,2.88-4.47h.34l2.94,4.42,1.79-5.95h1.59l-2.34,7.56h-1.66l-2.5-3.77-2.45,3.77h-1.67l-2.38-7.56Z"/>
    <path class="cls-2" d="M380.85,517.29c0,.82-.37,1.42-1.34,2.34l-2.86,2.72h-1.94l2.89-2.64c-.32.07-.66.11-1,.11-2.33,0-3.65-.98-3.65-2.52s1.5-2.62,3.96-2.62,3.93,1.03,3.93,2.61ZM376.88,518.67c.7,0,1.26-.1,1.66-.3.49-.23.78-.6.78-1.08,0-.86-.92-1.39-2.4-1.39s-2.42.54-2.42,1.4.9,1.37,2.38,1.37Z"/>
  </g>
  <g>
    <path class="cls-2" d="M374.11,721.77h-5.73v-.62h6.56v.53l-4.62,7.03h-.79l4.58-6.94Z"/>
    <path class="cls-2" d="M374.99,726.22c0-.94.5-1.62,1.54-2.6l2.62-2.47h.89l-3.11,2.84c.58-.24,1.17-.32,1.78-.32,1.96,0,3.37.99,3.37,2.52s-1.44,2.59-3.57,2.59-3.52-1.01-3.52-2.56ZM378.51,728.18c1.75,0,2.88-.81,2.88-1.99s-1.12-1.94-2.79-1.94c-.84,0-1.5.14-2.01.44-.55.34-.91.89-.91,1.52,0,1.16,1.15,1.96,2.83,1.96Z"/>
  </g>
  <g>
    <path class="cls-2" d="M226.72,721.77h-5.73v-.62h6.56v.53l-4.62,7.03h-.79l4.58-6.94Z"/>
    <path class="cls-2" d="M232.73,726.87h-5.55v-.59l5.4-5.12h.85v5.09h1.33v.62h-1.33v1.85h-.7v-1.85ZM232.73,726.24v-4.39l-4.64,4.39h4.64Z"/>
  </g>
  <g>
    <path class="cls-2" d="M227.69,564.35h-5.73v-.62h6.56v.53l-4.62,7.03h-.79l4.58-6.94Z"/>
    <path class="cls-2" d="M231.89,565.46h-2.01v-.51c1.46-.01,1.98-.33,2.19-1.22h.5v7.56h-.69v-5.83Z"/>
  </g>
  <g>
    <path class="cls-2" d="M540.86,491.76l.82-.21c.54,1.55,1.85,2.04,3.53,2.04,1.86,0,3.11-.76,3.11-1.97,0-1.04-.77-1.74-2.66-1.74h-1.77v-.74h1.73c1.55,0,2.46-.58,2.46-1.57s-1.1-1.77-2.84-1.77-2.9.62-3.33,1.94l-.81-.16c.56-1.67,2.03-2.5,4.15-2.5,2.28,0,3.65,1.08,3.65,2.49,0,.92-.6,1.58-1.67,1.91,1.31.3,1.94,1.09,1.94,2.15,0,1.56-1.55,2.69-3.96,2.69-2.26,0-3.74-.77-4.36-2.57Z"/>
    <path class="cls-2" d="M550.48,491.25c0-1.13.6-1.95,1.85-3.12l3.15-2.96h1.06l-3.73,3.41c.69-.29,1.4-.39,2.13-.39,2.35,0,4.04,1.19,4.04,3.02s-1.73,3.11-4.28,3.11-4.22-1.21-4.22-3.07ZM554.7,493.6c2.11,0,3.45-.97,3.45-2.38s-1.34-2.32-3.35-2.32c-1,0-1.8.17-2.41.53-.67.41-1.09,1.06-1.09,1.83,0,1.39,1.38,2.35,3.4,2.35Z"/>
  </g>
  <g>
    <path class="cls-2" d="M541.49,469.93l.82-.21c.54,1.55,1.85,2.04,3.53,2.04,1.86,0,3.11-.76,3.11-1.97,0-1.04-.77-1.74-2.66-1.74h-1.77v-.74h1.73c1.55,0,2.46-.58,2.46-1.57s-1.1-1.77-2.84-1.77-2.9.62-3.33,1.94l-.81-.16c.56-1.67,2.03-2.5,4.15-2.5,2.28,0,3.65,1.08,3.65,2.49,0,.92-.6,1.58-1.67,1.91,1.31.3,1.94,1.09,1.94,2.15,0,1.56-1.55,2.69-3.96,2.69-2.26,0-3.74-.77-4.36-2.57Z"/>
    <path class="cls-2" d="M557.42,464.09h-6.87v-.75h7.87v.64l-5.54,8.43h-.94l5.49-8.33Z"/>
  </g>
  <g>
    <path class="cls-2" d="M540.46,448.11l.82-.21c.54,1.55,1.85,2.04,3.53,2.04,1.86,0,3.11-.76,3.11-1.97,0-1.04-.77-1.74-2.66-1.74h-1.77v-.74h1.73c1.55,0,2.46-.58,2.46-1.57s-1.1-1.77-2.84-1.77-2.9.62-3.33,1.94l-.81-.16c.56-1.67,2.03-2.5,4.15-2.5,2.28,0,3.65,1.08,3.65,2.49,0,.92-.6,1.58-1.67,1.91,1.31.3,1.94,1.09,1.94,2.15,0,1.56-1.55,2.69-3.96,2.69-2.26,0-3.74-.77-4.36-2.57Z"/>
    <path class="cls-2" d="M550.5,448.04c0-1.19,1.11-2.02,2.55-2.26-1.09-.25-1.92-.97-1.92-2.01,0-1.36,1.4-2.34,3.75-2.34s3.75.98,3.75,2.34c0,1.03-.83,1.74-1.91,2.01,1.43.24,2.54,1.08,2.54,2.26,0,1.56-1.56,2.64-4.38,2.64s-4.38-1.08-4.38-2.64ZM554.88,449.95c2.32,0,3.53-.8,3.53-1.92,0-1.22-1.56-1.85-3.53-1.85s-3.53.63-3.53,1.85c0,1.13,1.21,1.92,3.53,1.92ZM554.88,445.46c1.62,0,2.93-.62,2.93-1.67,0-.98-1.05-1.65-2.93-1.65s-2.93.67-2.93,1.65c0,1.05,1.32,1.67,2.93,1.67Z"/>
  </g>
  <g>
    <path class="cls-2" d="M541.19,425.61l.82-.21c.54,1.55,1.85,2.04,3.53,2.04,1.86,0,3.11-.76,3.11-1.97,0-1.04-.77-1.74-2.66-1.74h-1.77v-.74h1.73c1.55,0,2.46-.58,2.46-1.57s-1.1-1.77-2.84-1.77-2.9.62-3.33,1.94l-.81-.16c.56-1.67,2.03-2.5,4.15-2.5,2.28,0,3.65,1.08,3.65,2.49,0,.92-.6,1.58-1.67,1.91,1.31.3,1.94,1.09,1.94,2.15,0,1.56-1.55,2.69-3.96,2.69-2.26,0-3.74-.77-4.36-2.57Z"/>
    <path class="cls-2" d="M559.12,422.01c0,1.12-.61,1.95-1.85,3.12l-3.15,2.96h-1.07l3.73-3.41c-.69.29-1.4.39-2.13.39-2.35,0-4.04-1.19-4.04-3.02s1.73-3.11,4.28-3.11,4.22,1.21,4.22,3.07ZM554.8,424.37c1,0,1.8-.17,2.41-.53.67-.41,1.09-1.07,1.09-1.83,0-1.39-1.38-2.35-3.4-2.35s-3.45.97-3.45,2.38,1.34,2.32,3.35,2.32Z"/>
  </g>
  <g>
    <path class="cls-2" d="M546.76,403.72h-6.66v-.71l6.47-6.15h1.02v6.11h1.6v.75h-1.6v2.21h-.83v-2.21ZM546.76,402.97v-5.26l-5.57,5.26h5.57Z"/>
    <path class="cls-2" d="M550.19,401.37c0-2.7,1.9-4.6,4.56-4.6s4.57,1.9,4.57,4.6-1.9,4.65-4.57,4.65-4.56-1.92-4.56-4.65ZM554.76,405.28c2.17,0,3.74-1.62,3.74-3.91s-1.57-3.86-3.74-3.86-3.73,1.61-3.73,3.86,1.56,3.91,3.73,3.91Z"/>
  </g>
  <g>
    <path class="cls-2" d="M548.11,381.9h-6.66v-.71l6.47-6.15h1.02v6.11h1.6v.75h-1.6v2.21h-.83v-2.21ZM548.11,381.15v-5.26l-5.57,5.26h5.57Z"/>
    <path class="cls-2" d="M555.03,377.12h-2.41v-.62c1.75-.01,2.37-.4,2.62-1.46h.61v9.08h-.82v-6.99Z"/>
  </g>
  <g>
    <path class="cls-2" d="M547.25,359.4h-6.66v-.71l6.47-6.15h1.02v6.11h1.6v.75h-1.6v2.21h-.83v-2.21ZM547.25,358.65v-5.26l-5.57,5.26h5.57Z"/>
    <path class="cls-2" d="M558.24,361.62h-7.9v-.68l4.34-2.87c1.62-1.08,2.32-1.71,2.32-2.78,0-1.28-1.11-2.09-2.79-2.09s-2.9.74-3.22,2.17l-.82-.16c.42-1.72,1.94-2.75,4.04-2.75s3.64,1.1,3.64,2.82c0,1.28-.83,2.13-2.71,3.34l-3.46,2.27h6.56v.73Z"/>
  </g>
  <g>
    <path class="cls-2" d="M547.06,337.91h-6.66v-.71l6.47-6.15h1.02v6.11h1.6v.75h-1.6v2.21h-.83v-2.21ZM547.06,337.16v-5.26l-5.57,5.26h5.57Z"/>
    <path class="cls-2" d="M550.15,337.65l.82-.21c.54,1.55,1.85,2.04,3.53,2.04,1.86,0,3.11-.76,3.11-1.97,0-1.04-.77-1.74-2.66-1.74h-1.77v-.74h1.73c1.55,0,2.46-.58,2.46-1.57s-1.1-1.77-2.84-1.77-2.9.62-3.33,1.94l-.81-.16c.56-1.67,2.03-2.5,4.15-2.5,2.28,0,3.65,1.08,3.65,2.49,0,.92-.6,1.58-1.67,1.91,1.31.3,1.94,1.09,1.94,2.15,0,1.56-1.55,2.69-3.96,2.69-2.26,0-3.74-.77-4.36-2.56Z"/>
  </g>
  <g>
    <path class="cls-2" d="M546.74,315.42h-6.66v-.71l6.47-6.15h1.02v6.11h1.6v.75h-1.6v2.21h-.83v-2.21ZM546.74,314.67v-5.26l-5.57,5.26h5.57Z"/>
    <path class="cls-2" d="M556.55,315.42h-6.66v-.71l6.47-6.15h1.02v6.11h1.6v.75h-1.6v2.21h-.83v-2.21ZM556.55,314.67v-5.26l-5.57,5.26h5.57Z"/>
  </g>
  <g>
    <path class="cls-2" d="M547.08,293.26h-6.66v-.71l6.47-6.15h1.02v6.11h1.6v.75h-1.6v2.21h-.83v-2.21ZM547.08,292.51v-5.26l-5.57,5.26h5.57Z"/>
    <path class="cls-2" d="M550.17,293.11l.83-.22c.54,1.48,1.84,1.94,3.41,1.94,2,0,3.28-1,3.28-2.31,0-1.48-1.25-2.36-3.23-2.36-1.5,0-2.5.4-3.15,1.04l-.67-.13,1.04-4.67h6.4v.73h-5.8l-.7,3.09c.79-.54,1.91-.77,2.93-.77,2.48,0,4.01,1.2,4.01,3.09,0,1.77-1.67,3.04-4.11,3.04-2.13,0-3.63-.76-4.25-2.44Z"/>
  </g>
  <g>
    <path class="cls-2" d="M546.91,271.1h-6.66v-.71l6.47-6.15h1.02v6.11h1.6v.75h-1.6v2.21h-.83v-2.21ZM546.91,270.35v-5.26l-5.57,5.26h5.57Z"/>
    <path class="cls-2" d="M550.34,270.32c0-1.13.6-1.95,1.85-3.12l3.15-2.96h1.06l-3.73,3.41c.69-.29,1.4-.39,2.13-.39,2.35,0,4.04,1.19,4.04,3.03s-1.73,3.11-4.28,3.11-4.22-1.21-4.22-3.07ZM554.56,272.67c2.11,0,3.45-.97,3.45-2.38s-1.34-2.32-3.35-2.32c-1,0-1.8.17-2.41.53-.67.41-1.09,1.06-1.09,1.83,0,1.39,1.38,2.35,3.4,2.35Z"/>
  </g>
  <g>
    <path class="cls-2" d="M547.79,248.94h-6.66v-.71l6.47-6.15h1.02v6.11h1.6v.75h-1.6v2.21h-.83v-2.21ZM547.79,248.19v-5.26l-5.57,5.26h5.57Z"/>
    <path class="cls-2" d="M557.23,242.83h-6.87v-.75h7.87v.64l-5.54,8.43h-.94l5.49-8.33Z"/>
  </g>
  <g>
    <path class="cls-2" d="M546.71,226.89h-6.66v-.71l6.47-6.15h1.02v6.11h1.6v.75h-1.6v2.21h-.83v-2.21ZM546.71,226.14v-5.26l-5.57,5.26h5.57Z"/>
    <path class="cls-2" d="M550.16,226.55c0-1.19,1.11-2.02,2.55-2.26-1.09-.25-1.92-.97-1.92-2.01,0-1.35,1.4-2.33,3.75-2.33s3.75.98,3.75,2.33c0,1.03-.83,1.74-1.91,2.01,1.43.24,2.54,1.08,2.54,2.26,0,1.56-1.56,2.64-4.38,2.64s-4.38-1.08-4.38-2.64ZM554.54,228.46c2.32,0,3.53-.8,3.53-1.92,0-1.22-1.56-1.85-3.53-1.85s-3.53.63-3.53,1.85c0,1.13,1.21,1.92,3.53,1.92ZM554.54,223.97c1.62,0,2.93-.62,2.93-1.67,0-.98-1.05-1.65-2.93-1.65s-2.93.67-2.93,1.65c0,1.05,1.32,1.67,2.93,1.67Z"/>
  </g>
  <g>
    <path class="cls-2" d="M547.15,204.62h-6.66v-.71l6.47-6.15h1.02v6.11h1.6v.75h-1.6v2.21h-.83v-2.21ZM547.15,203.87v-5.26l-5.57,5.26h5.57Z"/>
    <path class="cls-2" d="M558.59,200.75c0,1.13-.61,1.95-1.85,3.12l-3.15,2.96h-1.07l3.73-3.41c-.69.29-1.4.39-2.13.39-2.35,0-4.04-1.19-4.04-3.03s1.73-3.11,4.28-3.11,4.22,1.21,4.22,3.07ZM554.27,203.1c1,0,1.8-.17,2.41-.53.67-.41,1.09-1.06,1.09-1.83,0-1.39-1.38-2.35-3.4-2.35s-3.45.97-3.45,2.38,1.34,2.32,3.35,2.32Z"/>
  </g>
  <g>
    <path class="cls-2" d="M540.08,182.31l.83-.22c.54,1.48,1.84,1.94,3.41,1.94,2,0,3.28-1,3.28-2.31,0-1.48-1.25-2.36-3.23-2.36-1.5,0-2.5.4-3.15,1.04l-.67-.13,1.04-4.67h6.4v.73h-5.8l-.7,3.09c.79-.54,1.91-.77,2.93-.77,2.48,0,4.01,1.2,4.01,3.09,0,1.77-1.67,3.04-4.11,3.04-2.13,0-3.63-.76-4.25-2.44Z"/>
    <path class="cls-2" d="M549.68,180.11c0-2.7,1.9-4.6,4.56-4.6s4.57,1.9,4.57,4.6-1.9,4.65-4.57,4.65-4.56-1.92-4.56-4.65ZM554.24,184.02c2.17,0,3.74-1.62,3.74-3.91s-1.57-3.86-3.74-3.86-3.73,1.61-3.73,3.86,1.56,3.91,3.73,3.91Z"/>
  </g>
  <g>
    <path class="cls-2" d="M541.92,160.15l.83-.22c.54,1.48,1.84,1.94,3.41,1.94,2,0,3.28-1,3.28-2.31,0-1.48-1.25-2.36-3.23-2.36-1.5,0-2.5.4-3.15,1.04l-.67-.13,1.04-4.67h6.4v.73h-5.8l-.7,3.09c.79-.54,1.91-.77,2.93-.77,2.48,0,4.01,1.2,4.01,3.09,0,1.77-1.67,3.04-4.11,3.04-2.13,0-3.63-.76-4.25-2.44Z"/>
    <path class="cls-2" d="M555.25,155.52h-2.41v-.62c1.75-.01,2.37-.4,2.62-1.46h.61v9.08h-.82v-6.99Z"/>
  </g>
  <g>
    <path class="cls-2" d="M540.92,137.99l.83-.22c.54,1.48,1.84,1.94,3.41,1.94,2,0,3.28-1,3.28-2.31,0-1.48-1.25-2.36-3.23-2.36-1.5,0-2.5.4-3.15,1.04l-.67-.13,1.04-4.67h6.4v.73h-5.8l-.7,3.09c.79-.54,1.91-.77,2.93-.77,2.48,0,4.01,1.2,4.01,3.09,0,1.77-1.67,3.04-4.11,3.04-2.13,0-3.63-.76-4.25-2.44Z"/>
    <path class="cls-2" d="M558.07,140.35h-7.9v-.68l4.34-2.87c1.62-1.08,2.32-1.71,2.32-2.78,0-1.28-1.11-2.09-2.79-2.09s-2.9.74-3.22,2.17l-.82-.16c.42-1.72,1.94-2.75,4.04-2.75s3.64,1.1,3.64,2.82c0,1.28-.83,2.13-2.71,3.34l-3.46,2.27h6.56v.73Z"/>
  </g>
  <g>
    <path class="cls-2" d="M505.99,137.99l.83-.22c.54,1.48,1.84,1.94,3.41,1.94,2,0,3.28-1,3.28-2.31,0-1.48-1.25-2.36-3.23-2.36-1.5,0-2.5.4-3.15,1.04l-.67-.13,1.04-4.67h6.4v.73h-5.8l-.7,3.09c.79-.54,1.91-.77,2.93-.77,2.48,0,4.01,1.2,4.01,3.09,0,1.77-1.67,3.04-4.11,3.04-2.13,0-3.63-.76-4.25-2.44Z"/>
    <path class="cls-2" d="M515.25,137.87l.82-.21c.54,1.55,1.85,2.04,3.53,2.04,1.86,0,3.11-.76,3.11-1.97,0-1.04-.77-1.74-2.66-1.74h-1.77v-.74h1.73c1.55,0,2.46-.58,2.46-1.57s-1.1-1.77-2.84-1.77-2.9.62-3.33,1.94l-.81-.16c.56-1.67,2.03-2.5,4.15-2.5,2.28,0,3.65,1.08,3.65,2.49,0,.92-.6,1.58-1.67,1.91,1.31.3,1.94,1.09,1.94,2.15,0,1.56-1.55,2.69-3.96,2.69-2.26,0-3.74-.77-4.36-2.56Z"/>
  </g>
  <g>
    <path class="cls-2" d="M505.72,160.15l.83-.22c.54,1.48,1.84,1.94,3.41,1.94,2,0,3.28-1,3.28-2.31,0-1.48-1.25-2.36-3.23-2.36-1.5,0-2.5.4-3.15,1.04l-.67-.13,1.04-4.67h6.4v.73h-5.8l-.7,3.09c.79-.54,1.91-.77,2.93-.77,2.48,0,4.01,1.2,4.01,3.09,0,1.77-1.67,3.04-4.11,3.04-2.13,0-3.63-.76-4.25-2.44Z"/>
    <path class="cls-2" d="M521.7,160.3h-6.66v-.71l6.47-6.15h1.02v6.11h1.6v.75h-1.6v2.21h-.83v-2.21ZM521.7,159.55v-5.26l-5.57,5.26h5.57Z"/>
  </g>
  <g>
    <path class="cls-2" d="M505.9,182.31l.83-.22c.54,1.48,1.84,1.94,3.41,1.94,2,0,3.28-1,3.28-2.31,0-1.48-1.25-2.36-3.23-2.36-1.5,0-2.5.4-3.15,1.04l-.67-.13,1.04-4.67h6.4v.73h-5.8l-.7,3.09c.79-.54,1.91-.77,2.93-.77,2.48,0,4.01,1.2,4.01,3.09,0,1.77-1.67,3.04-4.11,3.04-2.13,0-3.63-.76-4.25-2.44Z"/>
    <path class="cls-2" d="M515.48,182.31l.83-.22c.54,1.48,1.84,1.94,3.41,1.94,2,0,3.28-1,3.28-2.31,0-1.48-1.25-2.36-3.23-2.36-1.5,0-2.5.4-3.15,1.04l-.67-.13,1.04-4.67h6.4v.73h-5.8l-.7,3.09c.79-.54,1.91-.77,2.93-.77,2.48,0,4.01,1.2,4.01,3.09,0,1.77-1.67,3.04-4.11,3.04-2.13,0-3.63-.76-4.25-2.44Z"/>
  </g>
  <g>
    <path class="cls-2" d="M505.9,204.47l.83-.22c.54,1.48,1.84,1.94,3.41,1.94,2,0,3.28-1,3.28-2.31,0-1.48-1.25-2.36-3.23-2.36-1.5,0-2.5.4-3.15,1.04l-.67-.13,1.04-4.67h6.4v.73h-5.8l-.7,3.09c.79-.54,1.91-.77,2.93-.77,2.48,0,4.01,1.2,4.01,3.09,0,1.77-1.67,3.04-4.11,3.04-2.13,0-3.63-.76-4.25-2.44Z"/>
    <path class="cls-2" d="M515.28,203.84c0-1.13.6-1.95,1.85-3.12l3.15-2.96h1.06l-3.73,3.41c.69-.29,1.4-.39,2.13-.39,2.35,0,4.04,1.19,4.04,3.03s-1.73,3.11-4.28,3.11-4.22-1.21-4.22-3.07ZM519.5,206.19c2.11,0,3.45-.97,3.45-2.38s-1.34-2.32-3.35-2.32c-1,0-1.8.17-2.41.53-.67.41-1.09,1.06-1.09,1.83,0,1.39,1.38,2.35,3.4,2.35Z"/>
  </g>
  <g>
    <path class="cls-2" d="M506.47,226.63l.83-.22c.54,1.48,1.84,1.94,3.41,1.94,2,0,3.28-1,3.28-2.31,0-1.48-1.25-2.36-3.23-2.36-1.5,0-2.5.4-3.15,1.04l-.67-.13,1.04-4.67h6.4v.73h-5.8l-.7,3.09c.79-.54,1.91-.77,2.93-.77,2.48,0,4.01,1.2,4.01,3.09,0,1.77-1.67,3.04-4.11,3.04-2.13,0-3.63-.76-4.25-2.44Z"/>
    <path class="cls-2" d="M522.41,220.67h-6.87v-.75h7.87v.64l-5.54,8.43h-.94l5.49-8.33Z"/>
  </g>
  <g>
    <path class="cls-2" d="M505.58,248.79l.83-.22c.54,1.48,1.84,1.94,3.41,1.94,2,0,3.28-1,3.28-2.31,0-1.48-1.25-2.36-3.23-2.36-1.5,0-2.5.4-3.15,1.04l-.67-.13,1.04-4.67h6.4v.73h-5.8l-.7,3.09c.79-.54,1.91-.77,2.93-.77,2.48,0,4.01,1.2,4.01,3.09,0,1.77-1.67,3.04-4.11,3.04-2.13,0-3.63-.76-4.25-2.44Z"/>
    <path class="cls-2" d="M515.26,248.6c0-1.19,1.11-2.02,2.55-2.26-1.09-.25-1.92-.97-1.92-2.01,0-1.35,1.4-2.33,3.75-2.33s3.75.98,3.75,2.33c0,1.03-.83,1.74-1.91,2.01,1.43.24,2.54,1.08,2.54,2.26,0,1.56-1.56,2.64-4.38,2.64s-4.38-1.08-4.38-2.64ZM519.64,250.51c2.32,0,3.53-.8,3.53-1.92,0-1.22-1.56-1.85-3.53-1.85s-3.53.63-3.53,1.85c0,1.13,1.21,1.92,3.53,1.92ZM519.64,246.02c1.62,0,2.93-.62,2.93-1.67,0-.98-1.05-1.65-2.93-1.65s-2.93.67-2.93,1.65c0,1.05,1.32,1.67,2.93,1.67Z"/>
  </g>
  <g>
    <path class="cls-2" d="M505.94,270.95l.83-.22c.54,1.48,1.84,1.94,3.41,1.94,2,0,3.28-1,3.28-2.31,0-1.48-1.25-2.36-3.23-2.36-1.5,0-2.5.4-3.15,1.04l-.67-.13,1.04-4.67h6.4v.73h-5.8l-.7,3.09c.79-.54,1.91-.77,2.93-.77,2.48,0,4.01,1.2,4.01,3.09,0,1.77-1.67,3.04-4.11,3.04-2.13,0-3.63-.76-4.25-2.44Z"/>
    <path class="cls-2" d="M523.63,267.23c0,1.13-.61,1.95-1.85,3.12l-3.15,2.96h-1.07l3.73-3.41c-.69.29-1.4.39-2.13.39-2.35,0-4.04-1.19-4.04-3.03s1.73-3.11,4.28-3.11,4.22,1.21,4.22,3.07ZM519.31,269.58c1,0,1.8-.17,2.41-.53.67-.41,1.09-1.06,1.09-1.83,0-1.39-1.38-2.35-3.4-2.35s-3.45.97-3.45,2.38,1.34,2.32,3.35,2.32Z"/>
  </g>
  <g>
    <path class="cls-2" d="M505.36,292.48c0-1.13.6-1.95,1.85-3.12l3.15-2.96h1.06l-3.73,3.41c.69-.29,1.4-.39,2.13-.39,2.35,0,4.04,1.19,4.04,3.03s-1.73,3.11-4.28,3.11-4.22-1.21-4.22-3.07ZM509.58,294.83c2.11,0,3.45-.97,3.45-2.38s-1.34-2.32-3.35-2.32c-1,0-1.8.17-2.41.53-.67.41-1.09,1.06-1.09,1.83,0,1.39,1.38,2.35,3.4,2.35Z"/>
    <path class="cls-2" d="M515.09,290.91c0-2.7,1.9-4.6,4.56-4.6s4.57,1.9,4.57,4.6-1.9,4.65-4.57,4.65-4.56-1.92-4.56-4.65ZM519.65,294.82c2.17,0,3.74-1.62,3.74-3.91s-1.57-3.86-3.74-3.86-3.73,1.61-3.73,3.86,1.56,3.91,3.73,3.91Z"/>
  </g>
  <g>
    <path class="cls-2" d="M507.35,314.98c0-1.13.6-1.95,1.85-3.12l3.15-2.96h1.06l-3.73,3.41c.69-.29,1.4-.39,2.13-.39,2.35,0,4.04,1.19,4.04,3.03s-1.73,3.11-4.28,3.11-4.22-1.21-4.22-3.07ZM511.57,317.33c2.11,0,3.45-.97,3.45-2.38s-1.34-2.32-3.35-2.32c-1,0-1.8.17-2.41.53-.67.41-1.09,1.06-1.09,1.83,0,1.39,1.38,2.35,3.4,2.35Z"/>
    <path class="cls-2" d="M520.35,310.97h-2.41v-.62c1.75-.01,2.37-.4,2.62-1.46h.61v9.08h-.82v-6.99Z"/>
  </g>
  <g>
    <path class="cls-2" d="M505.9,336.47c0-1.13.6-1.95,1.85-3.12l3.15-2.96h1.06l-3.73,3.41c.69-.29,1.4-.39,2.13-.39,2.35,0,4.04,1.19,4.04,3.03s-1.73,3.11-4.28,3.11-4.22-1.21-4.22-3.07ZM510.12,338.81c2.11,0,3.45-.97,3.45-2.38s-1.34-2.32-3.35-2.32c-1,0-1.8.17-2.41.53-.67.41-1.09,1.06-1.09,1.83,0,1.39,1.38,2.35,3.4,2.35Z"/>
    <path class="cls-2" d="M523.14,339.46h-7.9v-.68l4.34-2.87c1.62-1.08,2.32-1.71,2.32-2.78,0-1.28-1.11-2.09-2.79-2.09s-2.9.74-3.22,2.17l-.82-.16c.42-1.72,1.94-2.75,4.04-2.75s3.64,1.1,3.64,2.82c0,1.28-.83,2.13-2.71,3.34l-3.46,2.27h6.56v.73Z"/>
  </g>
  <g>
    <path class="cls-2" d="M505.69,358.96c0-1.13.6-1.95,1.85-3.12l3.15-2.96h1.06l-3.73,3.41c.69-.29,1.4-.39,2.13-.39,2.35,0,4.04,1.19,4.04,3.03s-1.73,3.11-4.28,3.11-4.22-1.21-4.22-3.07ZM509.91,361.31c2.11,0,3.45-.97,3.45-2.38s-1.34-2.32-3.35-2.32c-1,0-1.8.17-2.41.53-.67.41-1.09,1.06-1.09,1.83,0,1.39,1.38,2.35,3.4,2.35Z"/>
    <path class="cls-2" d="M515.03,359.47l.82-.21c.54,1.55,1.85,2.04,3.53,2.04,1.86,0,3.11-.76,3.11-1.97,0-1.04-.77-1.74-2.66-1.74h-1.77v-.74h1.73c1.55,0,2.46-.58,2.46-1.57s-1.1-1.77-2.84-1.77-2.9.62-3.33,1.94l-.81-.16c.56-1.67,2.03-2.5,4.15-2.5,2.28,0,3.65,1.08,3.65,2.49,0,.92-.6,1.58-1.67,1.91,1.31.3,1.94,1.09,1.94,2.15,0,1.56-1.55,2.69-3.96,2.69-2.26,0-3.74-.77-4.36-2.56Z"/>
  </g>
  <g>
    <path class="cls-2" d="M505.38,381.12c0-1.13.6-1.95,1.85-3.12l3.15-2.96h1.06l-3.73,3.41c.69-.29,1.4-.39,2.13-.39,2.35,0,4.04,1.19,4.04,3.03s-1.73,3.11-4.28,3.11-4.22-1.21-4.22-3.07ZM509.6,383.47c2.11,0,3.45-.97,3.45-2.38s-1.34-2.32-3.35-2.32c-1,0-1.8.17-2.41.53-.67.41-1.09,1.06-1.09,1.83,0,1.39,1.38,2.35,3.4,2.35Z"/>
    <path class="cls-2" d="M521.47,381.9h-6.66v-.71l6.47-6.15h1.02v6.11h1.6v.75h-1.6v2.21h-.83v-2.21ZM521.47,381.15v-5.26l-5.57,5.26h5.57Z"/>
  </g>
  <g>
    <path class="cls-2" d="M505.65,402.95c0-1.13.6-1.95,1.85-3.12l3.15-2.96h1.06l-3.73,3.41c.69-.29,1.4-.39,2.13-.39,2.35,0,4.04,1.19,4.04,3.02s-1.73,3.11-4.28,3.11-4.22-1.21-4.22-3.07ZM509.87,405.29c2.11,0,3.45-.97,3.45-2.38s-1.34-2.32-3.35-2.32c-1,0-1.8.17-2.41.53-.67.41-1.09,1.06-1.09,1.83,0,1.39,1.38,2.35,3.4,2.35Z"/>
    <path class="cls-2" d="M515.18,403.58l.83-.22c.54,1.48,1.84,1.94,3.41,1.94,2,0,3.28-1,3.28-2.31,0-1.48-1.25-2.36-3.23-2.36-1.5,0-2.5.4-3.15,1.04l-.67-.13,1.04-4.67h6.4v.73h-5.8l-.7,3.09c.79-.54,1.91-.77,2.93-.77,2.48,0,4.01,1.2,4.01,3.09,0,1.77-1.67,3.04-4.11,3.04-2.13,0-3.63-.76-4.25-2.44Z"/>
  </g>
  <g>
    <path class="cls-2" d="M505.52,425.11c0-1.13.6-1.95,1.85-3.12l3.15-2.96h1.06l-3.73,3.41c.69-.29,1.4-.39,2.13-.39,2.35,0,4.04,1.19,4.04,3.02s-1.73,3.11-4.28,3.11-4.22-1.21-4.22-3.07ZM509.74,427.45c2.11,0,3.45-.97,3.45-2.38s-1.34-2.32-3.35-2.32c-1,0-1.8.17-2.41.53-.67.41-1.09,1.06-1.09,1.83,0,1.39,1.38,2.35,3.4,2.35Z"/>
    <path class="cls-2" d="M515.32,425.11c0-1.13.6-1.95,1.85-3.12l3.15-2.96h1.06l-3.73,3.41c.69-.29,1.4-.39,2.13-.39,2.35,0,4.04,1.19,4.04,3.02s-1.73,3.11-4.28,3.11-4.22-1.21-4.22-3.07ZM519.54,427.45c2.11,0,3.45-.97,3.45-2.38s-1.34-2.32-3.35-2.32c-1,0-1.8.17-2.41.53-.67.41-1.09,1.06-1.09,1.83,0,1.39,1.38,2.35,3.4,2.35Z"/>
  </g>
  <g>
    <path class="cls-2" d="M506.63,447.94c0-1.13.6-1.95,1.85-3.12l3.15-2.96h1.06l-3.73,3.41c.69-.29,1.4-.39,2.13-.39,2.35,0,4.04,1.19,4.04,3.02s-1.73,3.11-4.28,3.11-4.22-1.21-4.22-3.07ZM510.85,450.28c2.11,0,3.45-.97,3.45-2.38s-1.34-2.32-3.35-2.32c-1,0-1.8.17-2.41.53-.67.41-1.09,1.06-1.09,1.83,0,1.39,1.38,2.35,3.4,2.35Z"/>
    <path class="cls-2" d="M521.95,442.6h-6.87v-.75h7.87v.64l-5.54,8.43h-.94l5.49-8.33Z"/>
  </g>
  <g>
    <path class="cls-2" d="M505.3,469.43c0-1.13.6-1.95,1.85-3.12l3.15-2.96h1.06l-3.73,3.41c.69-.29,1.4-.39,2.13-.39,2.35,0,4.04,1.19,4.04,3.02s-1.73,3.11-4.28,3.11-4.22-1.21-4.22-3.07ZM509.53,471.77c2.11,0,3.45-.97,3.45-2.38s-1.34-2.32-3.35-2.32c-1,0-1.8.17-2.41.53-.67.41-1.09,1.06-1.09,1.83,0,1.39,1.38,2.35,3.4,2.35Z"/>
    <path class="cls-2" d="M515.09,469.86c0-1.19,1.11-2.02,2.55-2.26-1.09-.25-1.92-.97-1.92-2.01,0-1.36,1.4-2.34,3.75-2.34s3.75.98,3.75,2.34c0,1.03-.83,1.74-1.91,2.01,1.43.24,2.54,1.08,2.54,2.26,0,1.56-1.56,2.64-4.38,2.64s-4.38-1.08-4.38-2.64ZM519.47,471.77c2.32,0,3.53-.8,3.53-1.92,0-1.22-1.56-1.85-3.53-1.85s-3.53.63-3.53,1.85c0,1.13,1.21,1.92,3.53,1.92ZM519.47,467.28c1.62,0,2.93-.62,2.93-1.67,0-.98-1.05-1.65-2.93-1.65s-2.93.67-2.93,1.65c0,1.05,1.32,1.67,2.93,1.67Z"/>
  </g>
  <g>
    <path class="cls-2" d="M505.73,491.25c0-1.13.6-1.95,1.85-3.12l3.15-2.96h1.06l-3.73,3.41c.69-.29,1.4-.39,2.13-.39,2.35,0,4.04,1.19,4.04,3.02s-1.73,3.11-4.28,3.11-4.22-1.21-4.22-3.07ZM509.95,493.6c2.11,0,3.45-.97,3.45-2.38s-1.34-2.32-3.35-2.32c-1,0-1.8.17-2.41.53-.67.41-1.09,1.06-1.09,1.83,0,1.39,1.38,2.35,3.4,2.35Z"/>
    <path class="cls-2" d="M523.37,488.15c0,1.12-.61,1.95-1.85,3.12l-3.15,2.96h-1.07l3.73-3.41c-.69.29-1.4.39-2.13.39-2.35,0-4.04-1.19-4.04-3.02s1.73-3.11,4.28-3.11,4.22,1.21,4.22,3.07ZM519.05,490.51c1,0,1.8-.17,2.41-.53.67-.41,1.09-1.06,1.09-1.83,0-1.39-1.38-2.35-3.4-2.35s-3.45.97-3.45,2.38,1.34,2.32,3.35,2.32Z"/>
  </g>
  <g>
    <path class="cls-11" d="M460.54,80.4s0-52.71,0-60.91c.14,0,138.62,0,138.62,0"/>
    <rect class="cls-1" x="459.37" y=".05" width="139.79" height="19.43"/>
  </g>
  <g>
    <path class="cls-16" d="M404.18,259.16h-50.18c0-7.19,0-44.82,0-44.82"/>
    <rect class="cls-1" x="334.55" y="214.34" width="20.11" height="46.05"/>
  </g>
  <g>
    <path class="cls-16" d="M649.82,258.26s0-27.99,0-32.84c3.73,0,7.59,0,11.33,0,0-7.07,0-44.06,0-44.06"/>
    <rect class="cls-1" x="660.47" y="181.36" width="20.11" height="45.22"/>
  </g>
  <rect class="cls-1" x="297.29" y="422.64" width="7.6" height="164.83" transform="translate(806.16 203.97) rotate(90)"/>
  <rect class="cls-1" x="530.44" y="86.8" width="3.8" height="70.58" transform="translate(654.43 -410.25) rotate(90)"/>
  <rect class="cls-3" x="202.63" y="630.78" width="51.66" height="20.56" transform="translate(869.52 412.6) rotate(90)"/>
  <rect class="cls-1" x="660.47" y="392.15" width="20.11" height="147.09"/>
  <g>
    <path class="cls-2" d="M221.93,636.59h5.46c1.72,0,2.89.9,2.89,2.35,0,1.14-.82,1.93-2.16,2.17l3.13,3.05h-2l-2.96-2.85h-2.84v2.85h-1.52v-7.56ZM227.36,639.99c.79,0,1.31-.39,1.31-1.05s-.5-1.04-1.32-1.04h-3.89v2.09h3.9Z"/>
    <path class="cls-2" d="M233.49,639.1h-2.25v-1.06c1.48-.03,2.21-.42,2.52-1.44h1.23v7.56h-1.5v-5.06Z"/>
  </g>
</svg>