<?xml version="1.0" encoding="UTF-8"?>
<svg id="_Слой_1" data-name="Слой 1" xmlns="http://www.w3.org/2000/svg" viewBox="0 0 260.75 374.51">
  <defs>
    <style>
      .cls-1 {
        stroke: #000;
        stroke-width: .37px;
      }

      .cls-1, .cls-2 {
        fill: none;
        stroke-miterlimit: 10;
      }

      .cls-3 {
        fill: #1d1d1b;
      }

      .cls-3, .cls-4, .cls-5 {
        stroke-width: 0px;
      }

      .cls-4 {
        fill: #000;
      }

      .cls-5 {
        fill: #c6c6c5;
      }

      .cls-2 {
        stroke: #1d1d1b;
        stroke-width: .03px;
      }
    </style>
  </defs>
  <g id="_ст-2400" data-name="ст-2400">
    <g id="_ст_2400" data-name="ст_2400">
      <rect class="cls-3" x="30.83" width="2.5" height="374.49"/>
      <rect class="cls-3" x="121.95" width="2.5" height="374.49"/>
      <rect class="cls-3" x="30.83" y="368.24" width="93.62" height="6.24"/>
      <rect class="cls-3" x="30.83" y="332.36" width="93.62" height="3.9"/>
      <rect class="cls-3" x="30.83" y="270.72" width="93.62" height="3.9"/>
      <rect class="cls-3" x="30.83" y="178.66" width="93.62" height="3.9"/>
      <rect class="cls-3" x="30.83" width="93.62" height="3.9"/>
      <rect class="cls-3" x="30.83" y="223.13" width="93.62" height="3.9"/>
      <rect class="cls-3" x="30.83" y="137.31" width="93.62" height="3.9"/>
      <rect class="cls-5" x="30.83" y="336.26" width="46.81" height="31.99"/>
      <rect class="cls-5" x="77.64" y="336.26" width="46.81" height="31.99"/>
      <line class="cls-2" x1="77.64" y1="336.26" x2="77.64" y2="368.24"/>
    </g>
    <g>
      <line class="cls-1" x1="30.82" y1="374.3" x2="12.81" y2="374.3"/>
      <line class="cls-1" x1="30.82" y1=".19" x2="12.81" y2=".19"/>
      <g>
        <line class="cls-1" x1="12.81" y1="372.48" x2="12.81" y2="1.91"/>
        <path class="cls-4" d="M14.57,369.98c-.09-.05-.2-.03-.25.06l-1.5,2.36-1.5-2.36c-.05-.09-.17-.11-.25-.06s-.11.17-.06.25l1.66,2.61c.03.05.09.08.15.08s.12-.03.15-.08l1.66-2.61s.03-.06.03-.1c0-.06-.03-.12-.08-.15Z"/>
        <path class="cls-4" d="M14.57,4.42c-.09.05-.2.03-.25-.06l-1.5-2.36-1.5,2.36c-.05.09-.17.11-.25.06s-.11-.17-.06-.25l1.66-2.61c.03-.05.09-.08.15-.08s.12.03.15.08l1.66,2.61s.03.06.03.1c0,.06-.03.12-.08.15Z"/>
      </g>
    </g>
    <g>
      <g>
        <line class="cls-1" x1="77.64" y1="331.92" x2="77.64" y2="275.06"/>
        <path class="cls-4" d="M79.4,329.41c-.09-.05-.2-.03-.25.06l-1.5,2.36-1.5-2.36c-.05-.09-.17-.11-.25-.06-.09.05-.11.17-.06.25l1.66,2.61c.03.05.09.08.15.08s.12-.03.15-.08l1.66-2.61s.03-.06.03-.1c0-.06-.03-.12-.08-.15Z"/>
        <path class="cls-4" d="M79.4,277.57c-.09.05-.2.03-.25-.06l-1.5-2.36-1.5,2.36c-.05.09-.17.11-.25.06-.09-.05-.11-.17-.06-.25l1.66-2.61c.03-.05.09-.08.15-.08s.12.03.15.08l1.66,2.61s.03.06.03.1c0,.06-.03.12-.08.15Z"/>
      </g>
      <g>
        <line class="cls-1" x1="77.64" y1="270.28" x2="77.64" y2="227.32"/>
        <path class="cls-4" d="M79.4,267.78c-.09-.05-.2-.03-.25.06l-1.5,2.36-1.5-2.36c-.05-.09-.17-.11-.25-.06-.09.05-.11.17-.06.25l1.66,2.61c.03.05.09.08.15.08s.12-.03.15-.08l1.66-2.61s.03-.06.03-.1c0-.06-.03-.12-.08-.15Z"/>
        <path class="cls-4" d="M79.4,229.82c-.09.05-.2.03-.25-.06l-1.5-2.36-1.5,2.36c-.05.09-.17.11-.25.06-.09-.05-.11-.17-.06-.25l1.66-2.61c.03-.05.09-.08.15-.08s.12.03.15.08l1.66,2.61s.03.06.03.1c0,.06-.03.12-.08.15Z"/>
      </g>
      <g>
        <line class="cls-1" x1="77.64" y1="222.69" x2="77.64" y2="183"/>
        <path class="cls-4" d="M79.4,220.19c-.09-.05-.2-.03-.25.06l-1.5,2.36-1.5-2.36c-.05-.09-.17-.11-.25-.06-.09.05-.11.17-.06.25l1.66,2.61c.03.05.09.08.15.08s.12-.03.15-.08l1.66-2.61s.03-.06.03-.1c0-.06-.03-.12-.08-.15Z"/>
        <path class="cls-4" d="M79.4,185.5c-.09.05-.2.03-.25-.06l-1.5-2.36-1.5,2.36c-.05.09-.17.11-.25.06-.09-.05-.11-.17-.06-.25l1.66-2.61c.03-.05.09-.08.15-.08s.12.03.15.08l1.66,2.61s.03.06.03.1c0,.06-.03.12-.08.15Z"/>
      </g>
      <g>
        <line class="cls-1" x1="77.64" y1="178.22" x2="77.64" y2="141.65"/>
        <path class="cls-4" d="M79.4,175.72c-.09-.05-.2-.03-.25.06l-1.5,2.36-1.5-2.36c-.05-.09-.17-.11-.25-.06-.09.05-.11.17-.06.25l1.66,2.61c.03.05.09.08.15.08s.12-.03.15-.08l1.66-2.61s.03-.06.03-.1c0-.06-.03-.12-.08-.15Z"/>
        <path class="cls-4" d="M79.4,144.16c-.09.05-.2.03-.25-.06l-1.5-2.36-1.5,2.36c-.05.09-.17.11-.25.06-.09-.05-.11-.17-.06-.25l1.66-2.61c.03-.05.09-.08.15-.08s.12.03.15.08l1.66,2.61s.03.06.03.1c0,.06-.03.12-.08.15Z"/>
      </g>
      <g>
        <line class="cls-1" x1="77.64" y1="136.87" x2="77.64" y2="4.34"/>
        <path class="cls-4" d="M79.4,134.37c-.09-.05-.2-.03-.25.06l-1.5,2.36-1.5-2.36c-.05-.09-.17-.11-.25-.06-.09.05-.11.17-.06.25l1.66,2.61c.03.05.09.08.15.08s.12-.03.15-.08l1.66-2.61s.03-.06.03-.1c0-.06-.03-.12-.08-.15Z"/>
        <path class="cls-4" d="M79.4,6.84c-.09.05-.2.03-.25-.06l-1.5-2.36-1.5,2.36c-.05.09-.17.11-.25.06-.09-.05-.11-.17-.06-.25l1.66-2.61c.03-.05.09-.08.15-.08s.12.03.15.08l1.66,2.61s.03.06.03.1c0,.06-.03.12-.08.15Z"/>
      </g>
    </g>
    <g>
      <path class="cls-4" d="M7.62,196.53v6.58h-.56l-2.39-3.62c-.9-1.35-1.42-1.93-2.32-1.93-1.07,0-1.74.93-1.74,2.33s.61,2.42,1.8,2.68l-.13.68c-1.43-.35-2.29-1.61-2.29-3.36s.92-3.03,2.35-3.03c1.07,0,1.77.7,2.78,2.26l1.89,2.88v-5.46h.6Z"/>
      <path class="cls-4" d="M5.78,190.69v5.54h-.59L.07,190.84v-.85h5.09v-1.33h.62v1.33h1.84v.69h-1.84ZM5.16,190.69H.78l4.38,4.63v-4.63Z"/>
      <path class="cls-4" d="M3.83,187.83c-2.25,0-3.83-1.58-3.83-3.8s1.58-3.81,3.83-3.81,3.87,1.58,3.87,3.81-1.6,3.8-3.87,3.8ZM7.08,184.04c0-1.8-1.35-3.11-3.25-3.11s-3.21,1.31-3.21,3.11,1.34,3.1,3.21,3.1,3.25-1.3,3.25-3.1Z"/>
      <path class="cls-4" d="M3.83,179.04c-2.25,0-3.83-1.58-3.83-3.8s1.58-3.81,3.83-3.81,3.87,1.58,3.87,3.81-1.6,3.8-3.87,3.8ZM7.08,175.24c0-1.8-1.35-3.11-3.25-3.11s-3.21,1.31-3.21,3.11,1.34,3.1,3.21,3.1,3.25-1.3,3.25-3.1Z"/>
    </g>
    <g>
      <path class="cls-4" d="M73.44,314.12l-.16-.62c1.17-.41,1.55-1.4,1.55-2.67,0-1.41-.58-2.35-1.49-2.35-.79,0-1.32.59-1.32,2.01v1.34h-.56v-1.31c0-1.17-.44-1.86-1.19-1.86s-1.34.83-1.34,2.15.47,2.2,1.46,2.52l-.12.61c-1.26-.42-1.9-1.54-1.9-3.14,0-1.72.81-2.76,1.89-2.76.7,0,1.2.46,1.45,1.26.23-.99.82-1.46,1.63-1.46,1.18,0,2.03,1.17,2.03,2.99,0,1.71-.59,2.83-1.94,3.3Z"/>
      <path class="cls-4" d="M69.02,302.07v5.2h-.57v-5.95h.49l6.38,4.19v.71l-6.3-4.16Z"/>
      <path class="cls-4" d="M71.87,300.76c-2.04,0-3.48-1.44-3.48-3.45s1.44-3.46,3.48-3.46,3.52,1.44,3.52,3.46-1.46,3.45-3.52,3.45ZM74.82,297.31c0-1.64-1.23-2.83-2.96-2.83s-2.92,1.19-2.92,2.83,1.22,2.82,2.92,2.82,2.96-1.18,2.96-2.82Z"/>
    </g>
    <g>
      <path class="cls-4" d="M75.38,253.92v5.98h-.51l-2.17-3.29c-.81-1.23-1.29-1.76-2.11-1.76-.97,0-1.58.84-1.58,2.11s.56,2.2,1.64,2.44l-.12.62c-1.3-.32-2.08-1.46-2.08-3.06s.83-2.76,2.13-2.76c.97,0,1.61.63,2.53,2.05l1.72,2.62v-4.96h.55Z"/>
      <path class="cls-4" d="M73.45,253.12c-.9,0-1.53-.84-1.71-1.93-.19.82-.73,1.46-1.52,1.46-1.03,0-1.77-1.06-1.77-2.84s.74-2.84,1.77-2.84c.78,0,1.32.63,1.52,1.45.18-1.08.81-1.92,1.71-1.92,1.18,0,2,1.18,2,3.31s-.81,3.31-2,3.31ZM71.5,249.8c0-1.23-.47-2.21-1.26-2.21-.74,0-1.25.8-1.25,2.21s.5,2.22,1.25,2.22c.8,0,1.26-1,1.26-2.22ZM74.9,249.8c0-1.76-.6-2.67-1.46-2.67-.92,0-1.4,1.18-1.4,2.67s.48,2.67,1.4,2.67c.85,0,1.46-.92,1.46-2.67Z"/>
      <path class="cls-4" d="M71.93,245.26c-2.04,0-3.48-1.44-3.48-3.45s1.44-3.46,3.48-3.46,3.52,1.44,3.52,3.46-1.46,3.45-3.52,3.45ZM74.89,241.81c0-1.64-1.23-2.83-2.96-2.83s-2.92,1.19-2.92,2.83,1.22,2.82,2.92,2.82,2.96-1.18,2.96-2.82Z"/>
    </g>
    <g>
      <path class="cls-4" d="M75.32,207.74v5.98h-.51l-2.17-3.29c-.81-1.23-1.29-1.76-2.11-1.76-.97,0-1.58.84-1.58,2.12s.56,2.2,1.64,2.44l-.12.62c-1.3-.32-2.08-1.46-2.08-3.06s.83-2.76,2.13-2.76c.97,0,1.61.63,2.53,2.05l1.72,2.62v-4.96h.55Z"/>
      <path class="cls-4" d="M73.06,207.07c-.85,0-1.47-.46-2.36-1.4l-2.24-2.38v-.81l2.58,2.82c-.22-.52-.29-1.06-.29-1.61,0-1.78.9-3.06,2.29-3.06s2.35,1.31,2.35,3.24-.92,3.2-2.33,3.2ZM74.83,203.87c0-1.59-.73-2.61-1.8-2.61s-1.76,1.02-1.76,2.54c0,.76.13,1.36.4,1.82.31.5.81.82,1.38.82,1.05,0,1.78-1.04,1.78-2.57Z"/>
      <path class="cls-4" d="M71.87,199.71c-2.04,0-3.48-1.44-3.48-3.45s1.44-3.46,3.48-3.46,3.52,1.44,3.52,3.46-1.46,3.45-3.52,3.45ZM74.82,196.25c0-1.64-1.23-2.83-2.96-2.83s-2.92,1.19-2.92,2.83,1.22,2.82,2.92,2.82,2.96-1.18,2.96-2.82Z"/>
    </g>
    <g>
      <path class="cls-4" d="M75.22,164.96v5.98h-.51l-2.17-3.29c-.81-1.23-1.29-1.76-2.11-1.76-.97,0-1.58.84-1.58,2.11s.56,2.2,1.64,2.44l-.12.62c-1.3-.32-2.08-1.46-2.08-3.06s.83-2.76,2.13-2.76c.97,0,1.61.63,2.53,2.05l1.72,2.62v-4.96h.55Z"/>
      <path class="cls-4" d="M73.54,159.65v5.04h-.54l-4.65-4.9v-.77h4.62v-1.21h.57v1.21h1.68v.63h-1.68ZM72.98,159.65h-3.98l3.98,4.21v-4.21Z"/>
      <path class="cls-4" d="M71.77,157.05c-2.04,0-3.48-1.44-3.48-3.45s1.44-3.46,3.48-3.46,3.52,1.44,3.52,3.46-1.46,3.45-3.52,3.45ZM74.73,153.6c0-1.64-1.23-2.83-2.96-2.83s-2.92,1.19-2.92,2.83,1.22,2.82,2.92,2.82,2.96-1.18,2.96-2.82Z"/>
    </g>
    <g>
      <path class="cls-4" d="M73.29,83.54c-.9,0-1.53-.84-1.71-1.93-.19.82-.73,1.46-1.52,1.46-1.03,0-1.77-1.06-1.77-2.84s.74-2.84,1.77-2.84c.78,0,1.32.63,1.52,1.45.18-1.08.81-1.92,1.71-1.92,1.18,0,2,1.18,2,3.31s-.81,3.31-2,3.31ZM71.34,80.23c0-1.23-.47-2.22-1.26-2.22-.74,0-1.25.8-1.25,2.22s.5,2.22,1.25,2.22c.8,0,1.26-1,1.26-2.22ZM74.73,80.23c0-1.76-.6-2.67-1.46-2.67-.92,0-1.4,1.18-1.4,2.67s.48,2.67,1.4,2.67c.85,0,1.46-.92,1.46-2.67Z"/>
      <path class="cls-4" d="M73.43,76l-.17-.63c1.12-.41,1.46-1.39,1.46-2.58,0-1.51-.76-2.48-1.75-2.48-1.12,0-1.79.94-1.79,2.44,0,1.13.3,1.9.79,2.38l-.1.5-3.53-.79v-4.84h.55v4.39l2.33.53c-.41-.6-.59-1.45-.59-2.22,0-1.88.91-3.03,2.33-3.03,1.34,0,2.3,1.26,2.3,3.11,0,1.61-.58,2.75-1.85,3.21Z"/>
      <path class="cls-4" d="M73.43,68.75l-.17-.63c1.12-.41,1.46-1.39,1.46-2.58,0-1.51-.76-2.48-1.75-2.48-1.12,0-1.79.94-1.79,2.44,0,1.13.3,1.9.79,2.38l-.1.5-3.53-.79v-4.84h.55v4.39l2.33.53c-.41-.6-.59-1.45-.59-2.22,0-1.88.91-3.03,2.33-3.03,1.34,0,2.3,1.26,2.3,3.11,0,1.61-.58,2.75-1.85,3.21Z"/>
    </g>
  </g>
  <g id="_ст-2100" data-name="ст-2100">
    <g id="_ст_2100" data-name="ст_2100">
      <rect class="cls-3" x="167.13" y="46.81" width="2.5" height="327.67"/>
      <rect class="cls-3" x="258.26" y="46.81" width="2.5" height="327.67"/>
      <rect class="cls-3" x="167.13" y="368.24" width="93.62" height="6.24"/>
      <rect class="cls-3" x="167.13" y="332.36" width="93.62" height="3.9"/>
      <rect class="cls-3" x="167.13" y="270.72" width="93.62" height="3.9"/>
      <rect class="cls-3" x="167.13" y="178.66" width="93.62" height="3.9"/>
      <rect class="cls-3" x="167.13" y="46.81" width="93.62" height="3.9"/>
      <rect class="cls-3" x="167.13" y="223.13" width="93.62" height="3.9"/>
      <rect class="cls-3" x="167.13" y="137.31" width="93.62" height="3.9"/>
      <rect class="cls-5" x="167.13" y="336.26" width="46.81" height="31.99"/>
      <rect class="cls-5" x="213.94" y="336.26" width="46.81" height="31.99"/>
      <line class="cls-2" x1="213.94" y1="336.26" x2="213.94" y2="368.24"/>
    </g>
    <g>
      <g>
        <line class="cls-1" x1="213.94" y1="331.92" x2="213.94" y2="275.06"/>
        <path class="cls-4" d="M215.7,329.41c-.09-.05-.2-.03-.25.06l-1.5,2.36-1.5-2.36c-.05-.09-.17-.11-.25-.06-.09.05-.11.17-.06.25l1.66,2.61c.03.05.09.08.15.08s.12-.03.15-.08l1.66-2.61s.03-.06.03-.1c0-.06-.03-.12-.08-.15Z"/>
        <path class="cls-4" d="M215.7,277.57c-.09.05-.2.03-.25-.06l-1.5-2.36-1.5,2.36c-.05.09-.17.11-.25.06-.09-.05-.11-.17-.06-.25l1.66-2.61c.03-.05.09-.08.15-.08s.12.03.15.08l1.66,2.61s.03.06.03.1c0,.06-.03.12-.08.15Z"/>
      </g>
      <g>
        <line class="cls-1" x1="213.94" y1="270.28" x2="213.94" y2="227.32"/>
        <path class="cls-4" d="M215.7,267.78c-.09-.05-.2-.03-.25.06l-1.5,2.36-1.5-2.36c-.05-.09-.17-.11-.25-.06-.09.05-.11.17-.06.25l1.66,2.61c.03.05.09.08.15.08s.12-.03.15-.08l1.66-2.61s.03-.06.03-.1c0-.06-.03-.12-.08-.15Z"/>
        <path class="cls-4" d="M215.7,229.82c-.09.05-.2.03-.25-.06l-1.5-2.36-1.5,2.36c-.05.09-.17.11-.25.06-.09-.05-.11-.17-.06-.25l1.66-2.61c.03-.05.09-.08.15-.08s.12.03.15.08l1.66,2.61s.03.06.03.1c0,.06-.03.12-.08.15Z"/>
      </g>
      <g>
        <line class="cls-1" x1="213.94" y1="222.69" x2="213.94" y2="183"/>
        <path class="cls-4" d="M215.7,220.19c-.09-.05-.2-.03-.25.06l-1.5,2.36-1.5-2.36c-.05-.09-.17-.11-.25-.06-.09.05-.11.17-.06.25l1.66,2.61c.03.05.09.08.15.08s.12-.03.15-.08l1.66-2.61s.03-.06.03-.1c0-.06-.03-.12-.08-.15Z"/>
        <path class="cls-4" d="M215.7,185.5c-.09.05-.2.03-.25-.06l-1.5-2.36-1.5,2.36c-.05.09-.17.11-.25.06-.09-.05-.11-.17-.06-.25l1.66-2.61c.03-.05.09-.08.15-.08s.12.03.15.08l1.66,2.61s.03.06.03.1c0,.06-.03.12-.08.15Z"/>
      </g>
      <g>
        <line class="cls-1" x1="213.94" y1="178.22" x2="213.94" y2="141.65"/>
        <path class="cls-4" d="M215.7,175.72c-.09-.05-.2-.03-.25.06l-1.5,2.36-1.5-2.36c-.05-.09-.17-.11-.25-.06-.09.05-.11.17-.06.25l1.66,2.61c.03.05.09.08.15.08s.12-.03.15-.08l1.66-2.61s.03-.06.03-.1c0-.06-.03-.12-.08-.15Z"/>
        <path class="cls-4" d="M215.7,144.16c-.09.05-.2.03-.25-.06l-1.5-2.36-1.5,2.36c-.05.09-.17.11-.25.06-.09-.05-.11-.17-.06-.25l1.66-2.61c.03-.05.09-.08.15-.08s.12.03.15.08l1.66,2.61s.03.06.03.1c0,.06-.03.12-.08.15Z"/>
      </g>
      <g>
        <line class="cls-1" x1="213.94" y1="136.87" x2="213.94" y2="51.15"/>
        <path class="cls-4" d="M215.7,134.37c-.09-.05-.2-.03-.25.06l-1.5,2.36-1.5-2.36c-.05-.09-.17-.11-.25-.06-.09.05-.11.17-.06.25l1.66,2.61c.03.05.09.08.15.08s.12-.03.15-.08l1.66-2.61s.03-.06.03-.1c0-.06-.03-.12-.08-.15Z"/>
        <path class="cls-4" d="M215.7,53.65c-.09.05-.2.03-.25-.06l-1.5-2.36-1.5,2.36c-.05.09-.17.11-.25.06-.09-.05-.11-.17-.06-.25l1.66-2.61c.03-.05.09-.08.15-.08s.12.03.15.08l1.66,2.61s.03.06.03.1c0,.06-.03.12-.08.15Z"/>
      </g>
    </g>
    <g>
      <line class="cls-1" x1="167.13" y1="374.33" x2="151.37" y2="374.33"/>
      <line class="cls-1" x1="167.13" y1="46.97" x2="151.37" y2="46.97"/>
      <g>
        <line class="cls-1" x1="151.37" y1="372.68" x2="151.37" y2="48.53"/>
        <path class="cls-4" d="M153.13,370.18c-.09-.05-.2-.03-.25.06l-1.5,2.36-1.5-2.36c-.05-.09-.17-.11-.25-.06s-.11.17-.06.25l1.66,2.61c.03.05.09.08.15.08s.12-.03.15-.08l1.66-2.61s.03-.06.03-.1c0-.06-.03-.12-.08-.15Z"/>
        <path class="cls-4" d="M153.13,51.04c-.09.05-.2.03-.25-.06l-1.5-2.36-1.5,2.36c-.05.09-.17.11-.25.06-.09-.05-.11-.17-.06-.25l1.66-2.61c.03-.05.09-.08.15-.08s.12.03.15.08l1.66,2.61s.03.06.03.1c0,.06-.03.12-.08.15Z"/>
      </g>
    </g>
    <g>
      <path class="cls-4" d="M209.96,313.79l-.16-.62c1.17-.41,1.55-1.4,1.55-2.67,0-1.41-.58-2.35-1.49-2.35-.79,0-1.32.59-1.32,2.01v1.34h-.56v-1.31c0-1.17-.44-1.86-1.19-1.86s-1.34.83-1.34,2.15.47,2.2,1.46,2.52l-.12.61c-1.26-.42-1.9-1.54-1.9-3.14,0-1.72.82-2.76,1.89-2.76.7,0,1.2.46,1.45,1.26.23-.99.82-1.46,1.63-1.46,1.18,0,2.03,1.17,2.03,2.99,0,1.71-.59,2.83-1.94,3.3Z"/>
      <path class="cls-4" d="M205.53,301.75v5.2h-.57v-5.95h.49l6.38,4.19v.71l-6.3-4.16Z"/>
      <path class="cls-4" d="M208.38,300.44c-2.04,0-3.48-1.44-3.48-3.45s1.44-3.46,3.48-3.46,3.52,1.44,3.52,3.46-1.46,3.45-3.52,3.45ZM211.34,296.99c0-1.64-1.23-2.83-2.96-2.83s-2.92,1.19-2.92,2.83,1.22,2.82,2.92,2.82,2.96-1.18,2.96-2.82Z"/>
    </g>
    <g>
      <path class="cls-4" d="M211.9,253.6v5.98h-.51l-2.17-3.29c-.81-1.23-1.29-1.76-2.11-1.76-.97,0-1.58.84-1.58,2.12s.56,2.2,1.64,2.44l-.12.62c-1.3-.32-2.08-1.46-2.08-3.06s.83-2.76,2.13-2.76c.97,0,1.61.63,2.53,2.05l1.72,2.62v-4.96h.55Z"/>
      <path class="cls-4" d="M209.96,252.79c-.9,0-1.53-.84-1.71-1.93-.19.82-.73,1.46-1.52,1.46-1.03,0-1.77-1.06-1.77-2.84s.74-2.84,1.77-2.84c.78,0,1.32.63,1.52,1.45.18-1.08.81-1.92,1.71-1.92,1.18,0,2,1.18,2,3.31s-.82,3.31-2,3.31ZM208.01,249.48c0-1.23-.47-2.22-1.26-2.22-.74,0-1.25.8-1.25,2.22s.5,2.21,1.25,2.21c.8,0,1.26-1,1.26-2.21ZM211.41,249.48c0-1.76-.6-2.67-1.46-2.67-.92,0-1.4,1.18-1.4,2.67s.48,2.67,1.4,2.67c.85,0,1.46-.92,1.46-2.67Z"/>
      <path class="cls-4" d="M208.45,244.94c-2.04,0-3.48-1.44-3.48-3.45s1.44-3.46,3.48-3.46,3.52,1.44,3.52,3.46-1.46,3.45-3.52,3.45ZM211.4,241.48c0-1.64-1.23-2.83-2.96-2.83s-2.92,1.19-2.92,2.83,1.22,2.82,2.92,2.82,2.96-1.18,2.96-2.82Z"/>
    </g>
    <g>
      <path class="cls-4" d="M211.83,207.42v5.98h-.51l-2.17-3.29c-.81-1.23-1.29-1.76-2.11-1.76-.97,0-1.58.84-1.58,2.11s.56,2.2,1.64,2.44l-.12.62c-1.3-.32-2.08-1.46-2.08-3.06s.83-2.76,2.13-2.76c.97,0,1.61.63,2.53,2.05l1.72,2.62v-4.96h.55Z"/>
      <path class="cls-4" d="M209.57,206.74c-.85,0-1.47-.46-2.36-1.4l-2.24-2.38v-.81l2.58,2.82c-.22-.52-.29-1.06-.29-1.61,0-1.78.9-3.06,2.29-3.06s2.35,1.31,2.35,3.24-.92,3.2-2.33,3.2ZM211.35,203.55c0-1.59-.73-2.61-1.8-2.61s-1.76,1.02-1.76,2.54c0,.76.13,1.36.4,1.82.31.5.81.82,1.38.82,1.05,0,1.78-1.04,1.78-2.57Z"/>
      <path class="cls-4" d="M208.38,199.38c-2.04,0-3.48-1.44-3.48-3.45s1.44-3.46,3.48-3.46,3.52,1.44,3.52,3.46-1.46,3.45-3.52,3.45ZM211.34,195.93c0-1.64-1.23-2.83-2.96-2.83s-2.92,1.19-2.92,2.83,1.22,2.82,2.92,2.82,2.96-1.18,2.96-2.82Z"/>
    </g>
    <g>
      <path class="cls-4" d="M211.73,164.63v5.98h-.51l-2.17-3.29c-.81-1.23-1.29-1.76-2.11-1.76-.97,0-1.58.84-1.58,2.11s.56,2.2,1.64,2.44l-.12.62c-1.3-.32-2.08-1.46-2.08-3.06s.83-2.76,2.13-2.76c.97,0,1.61.63,2.53,2.05l1.72,2.62v-4.96h.55Z"/>
      <path class="cls-4" d="M210.06,159.32v5.04h-.54l-4.65-4.9v-.77h4.62v-1.21h.57v1.21h1.68v.63h-1.68ZM209.49,159.32h-3.98l3.98,4.21v-4.21Z"/>
      <path class="cls-4" d="M208.28,156.72c-2.04,0-3.48-1.44-3.48-3.45s1.44-3.46,3.48-3.46,3.52,1.44,3.52,3.46-1.46,3.45-3.52,3.45ZM211.24,153.27c0-1.64-1.23-2.83-2.96-2.83s-2.92,1.19-2.92,2.83,1.22,2.82,2.92,2.82,2.96-1.18,2.96-2.82Z"/>
    </g>
    <g>
      <path class="cls-4" d="M210.17,106.06l-.17-.63c1.12-.41,1.46-1.39,1.46-2.58,0-1.51-.76-2.48-1.75-2.48-1.12,0-1.79.94-1.79,2.44,0,1.13.3,1.9.79,2.38l-.1.5-3.53-.79v-4.84h.55v4.39l2.33.53c-.41-.6-.59-1.45-.59-2.22,0-1.88.91-3.03,2.33-3.03,1.34,0,2.3,1.26,2.3,3.11,0,1.61-.58,2.75-1.85,3.21Z"/>
      <path class="cls-4" d="M210.17,98.81l-.17-.63c1.12-.41,1.46-1.39,1.46-2.58,0-1.51-.76-2.48-1.75-2.48-1.12,0-1.79.94-1.79,2.44,0,1.14.3,1.9.79,2.38l-.1.5-3.53-.79v-4.84h.55v4.39l2.33.53c-.41-.59-.59-1.45-.59-2.22,0-1.88.91-3.03,2.33-3.03,1.34,0,2.3,1.26,2.3,3.11,0,1.61-.58,2.75-1.85,3.21Z"/>
      <path class="cls-4" d="M210.17,91.55l-.17-.63c1.12-.41,1.46-1.39,1.46-2.58,0-1.51-.76-2.48-1.75-2.48-1.12,0-1.79.94-1.79,2.44,0,1.13.3,1.9.79,2.38l-.1.5-3.53-.79v-4.84h.55v4.39l2.33.53c-.41-.6-.59-1.45-.59-2.22,0-1.88.91-3.03,2.33-3.03,1.34,0,2.3,1.26,2.3,3.11,0,1.61-.58,2.75-1.85,3.21Z"/>
    </g>
    <g>
      <path class="cls-4" d="M146.65,218.31v6.58h-.56l-2.39-3.62c-.9-1.35-1.42-1.93-2.32-1.93-1.07,0-1.74.93-1.74,2.33s.62,2.42,1.8,2.68l-.13.68c-1.43-.35-2.29-1.61-2.29-3.36s.92-3.03,2.35-3.03c1.07,0,1.77.7,2.78,2.26l1.89,2.88v-5.46h.6Z"/>
      <path class="cls-4" d="M140.83,215.52v2h-.51c0-1.46-.33-1.97-1.22-2.19v-.5h7.55v.68h-5.82Z"/>
      <path class="cls-4" d="M142.86,212.87c-2.25,0-3.83-1.58-3.83-3.8s1.58-3.81,3.83-3.81,3.87,1.58,3.87,3.81-1.6,3.8-3.87,3.8ZM146.11,209.07c0-1.8-1.35-3.11-3.25-3.11s-3.21,1.31-3.21,3.11,1.34,3.1,3.21,3.1,3.25-1.3,3.25-3.1Z"/>
      <path class="cls-4" d="M142.86,204.08c-2.25,0-3.83-1.58-3.83-3.8s1.58-3.81,3.83-3.81,3.87,1.58,3.87,3.81-1.6,3.8-3.87,3.8ZM146.11,200.28c0-1.8-1.35-3.11-3.25-3.11s-3.21,1.31-3.21,3.11,1.34,3.1,3.21,3.1,3.25-1.3,3.25-3.1Z"/>
    </g>
  </g>
</svg>