<?xml version="1.0" encoding="UTF-8"?>
<svg id="_Слой_1" data-name="Слой 1" xmlns="http://www.w3.org/2000/svg" viewBox="0 0 572 900">
  <defs>
    <style>
      .cls-1 {
        stroke: #000;
        stroke-width: .64px;
      }

      .cls-1, .cls-2 {
        fill: none;
        stroke-miterlimit: 10;
      }

      .cls-3 {
        fill: #1d1d1b;
      }

      .cls-3, .cls-4, .cls-5, .cls-6 {
        stroke-width: 0px;
      }

      .cls-4 {
        fill: #000;
      }

      .cls-5 {
        fill: #c6c6c5;
      }

      .cls-2 {
        stroke: #1d1d1b;
        stroke-width: .05px;
      }

      .cls-6 {
        fill: transparent;
      }
    </style>
  </defs>
  <rect class="cls-6" width="572" height="900"/>
  <g>
    <g id="_ст-2400" data-name="ст-2400">
      <g id="_ст_2400" data-name="ст_2400">
        <rect class="cls-3" x="106.07" y="142.9" width="4.36" height="654.45"/>
        <rect class="cls-3" x="265.32" y="142.9" width="4.36" height="654.45"/>
        <rect class="cls-3" x="106.07" y="786.44" width="163.61" height="10.91"/>
        <rect class="cls-3" x="106.07" y="723.72" width="163.61" height="6.82"/>
        <rect class="cls-3" x="106.07" y="616.01" width="163.61" height="6.82"/>
        <rect class="cls-3" x="106.07" y="455.12" width="163.61" height="6.82"/>
        <rect class="cls-3" x="106.07" y="142.9" width="163.61" height="6.82"/>
        <rect class="cls-3" x="106.07" y="532.84" width="163.61" height="6.82"/>
        <rect class="cls-3" x="106.07" y="382.86" width="163.61" height="6.82"/>
        <rect class="cls-5" x="106.07" y="730.54" width="81.81" height="55.9"/>
        <rect class="cls-5" x="187.88" y="730.54" width="81.81" height="55.9"/>
        <line class="cls-2" x1="187.88" y1="730.54" x2="187.88" y2="786.44"/>
      </g>
      <g>
        <line class="cls-1" x1="106.06" y1="797.02" x2="74.58" y2="797.02"/>
        <line class="cls-1" x1="106.06" y1="143.22" x2="74.58" y2="143.22"/>
        <g>
          <line class="cls-1" x1="74.58" y1="793.85" x2="74.58" y2="146.24"/>
          <path class="cls-4" d="M77.65,789.47c-.15-.09-.35-.05-.44.1l-2.63,4.13-2.63-4.13c-.09-.15-.29-.19-.44-.1-.15.1-.19.29-.1.44l2.9,4.55c.06.09.16.15.27.15s.21-.06.27-.15l2.9-4.55c.03-.05.05-.11.05-.17,0-.11-.05-.21-.15-.27Z"/>
          <path class="cls-4" d="M77.65,150.61c-.15.1-.35.05-.44-.1l-2.63-4.13-2.63,4.13c-.09.15-.29.19-.44.1s-.19-.29-.1-.44l2.9-4.55c.06-.09.16-.15.27-.15s.21.06.27.15l2.9,4.55c.03.05.05.11.05.17,0,.11-.05.21-.15.27Z"/>
        </g>
      </g>
      <g>
        <g>
          <line class="cls-1" x1="187.88" y1="722.95" x2="187.88" y2="623.6"/>
          <path class="cls-4" d="M190.95,718.58c-.15-.1-.35-.05-.44.1l-2.63,4.13-2.63-4.13c-.09-.15-.29-.19-.44-.1-.15.09-.19.29-.1.44l2.9,4.55c.06.09.16.15.27.15s.21-.06.27-.15l2.9-4.55c.03-.05.05-.11.05-.17,0-.11-.05-.21-.15-.27Z"/>
          <path class="cls-4" d="M190.95,627.97c-.15.1-.35.05-.44-.1l-2.63-4.13-2.63,4.13c-.09.15-.29.19-.44.1-.15-.09-.19-.29-.1-.44l2.9-4.55c.06-.09.16-.15.27-.15s.21.06.27.15l2.9,4.55c.03.05.05.11.05.17,0,.11-.05.21-.15.27Z"/>
        </g>
        <g>
          <line class="cls-1" x1="187.88" y1="615.24" x2="187.88" y2="540.15"/>
          <path class="cls-4" d="M190.95,610.87c-.15-.09-.35-.05-.44.1l-2.63,4.13-2.63-4.13c-.09-.15-.29-.19-.44-.1s-.19.29-.1.44l2.9,4.55c.06.09.16.15.27.15s.21-.06.27-.15l2.9-4.55c.03-.05.05-.11.05-.17,0-.11-.05-.21-.15-.27Z"/>
          <path class="cls-4" d="M190.95,544.53c-.15.09-.35.05-.44-.1l-2.63-4.13-2.63,4.13c-.09.15-.29.19-.44.1-.15-.1-.19-.29-.1-.44l2.9-4.55c.06-.09.16-.15.27-.15s.21.06.27.15l2.9,4.55c.03.05.05.11.05.17,0,.11-.05.21-.15.27Z"/>
        </g>
        <g>
          <line class="cls-1" x1="187.88" y1="532.07" x2="187.88" y2="462.71"/>
          <path class="cls-4" d="M190.95,527.7c-.15-.1-.35-.05-.44.1l-2.63,4.13-2.63-4.13c-.09-.15-.29-.19-.44-.1-.15.09-.19.29-.1.44l2.9,4.55c.06.09.16.15.27.15s.21-.06.27-.15l2.9-4.55c.03-.05.05-.11.05-.17,0-.11-.05-.21-.15-.27Z"/>
          <path class="cls-4" d="M190.95,467.08c-.15.1-.35.05-.44-.1l-2.63-4.13-2.63,4.13c-.09.15-.29.19-.44.1-.15-.09-.19-.29-.1-.44l2.9-4.55c.06-.09.16-.15.27-.15s.21.06.27.15l2.9,4.55c.03.05.05.11.05.17,0,.11-.05.21-.15.27Z"/>
        </g>
        <g>
          <line class="cls-1" x1="187.88" y1="454.35" x2="187.88" y2="390.45"/>
          <path class="cls-4" d="M190.95,449.98c-.15-.1-.35-.05-.44.1l-2.63,4.13-2.63-4.13c-.09-.15-.29-.19-.44-.1s-.19.29-.1.44l2.9,4.55c.06.09.16.15.27.15s.21-.06.27-.15l2.9-4.55c.03-.05.05-.11.05-.17,0-.11-.05-.21-.15-.27Z"/>
          <path class="cls-4" d="M190.95,394.82c-.15.1-.35.05-.44-.1l-2.63-4.13-2.63,4.13c-.09.15-.29.19-.44.1s-.19-.29-.1-.44l2.9-4.55c.06-.09.16-.15.27-.15s.21.06.27.15l2.9,4.55c.03.05.05.11.05.17,0,.11-.05.21-.15.27Z"/>
        </g>
        <g>
          <line class="cls-1" x1="187.88" y1="382.09" x2="187.88" y2="150.48"/>
          <path class="cls-4" d="M190.95,377.72c-.15-.1-.35-.05-.44.1l-2.63,4.13-2.63-4.13c-.09-.15-.29-.19-.44-.1s-.19.29-.1.44l2.9,4.55c.06.09.16.15.27.15s.21-.06.27-.15l2.9-4.55c.03-.05.05-.11.05-.17,0-.11-.05-.21-.15-.27Z"/>
          <path class="cls-4" d="M190.95,154.86c-.15.09-.35.05-.44-.1l-2.63-4.13-2.63,4.13c-.09.15-.29.19-.44.1-.15-.1-.19-.29-.1-.44l2.9-4.55c.06-.09.16-.15.27-.15s.21.06.27.15l2.9,4.55c.03.05.05.11.05.17,0,.11-.05.21-.15.27Z"/>
        </g>
      </g>
      <g>
        <path class="cls-4" d="M65.52,486.36v11.49h-.99l-4.17-6.32c-1.57-2.36-2.48-3.38-4.05-3.38-1.87,0-3.04,1.62-3.04,4.06s1.07,4.22,3.15,4.68l-.23,1.2c-2.5-.62-3.99-2.81-3.99-5.88s1.6-5.3,4.1-5.3c1.86,0,3.1,1.21,4.86,3.94l3.31,5.03v-9.54h1.06Z"/>
        <path class="cls-4" d="M62.3,476.15v9.68h-1.04l-8.94-9.41v-1.48h8.88v-2.32h1.09v2.32h3.22v1.21h-3.22ZM61.2,476.15h-7.65l7.65,8.09v-8.09Z"/>
        <path class="cls-4" d="M58.88,471.15c-3.92,0-6.69-2.76-6.69-6.63s2.76-6.65,6.69-6.65,6.76,2.76,6.76,6.65-2.8,6.63-6.76,6.63ZM64.56,464.52c0-3.15-2.36-5.44-5.68-5.44s-5.61,2.29-5.61,5.44,2.34,5.42,5.61,5.42,5.68-2.27,5.68-5.42Z"/>
        <path class="cls-4" d="M58.88,455.79c-3.92,0-6.69-2.76-6.69-6.63s2.76-6.65,6.69-6.65,6.76,2.76,6.76,6.65-2.8,6.63-6.76,6.63ZM64.56,449.15c0-3.15-2.36-5.44-5.68-5.44s-5.61,2.29-5.61,5.44,2.34,5.42,5.61,5.42,5.68-2.27,5.68-5.42Z"/>
      </g>
      <g>
        <path class="cls-4" d="M180.54,691.85l-.27-1.09c2.05-.72,2.71-2.45,2.71-4.67,0-2.46-1.01-4.11-2.61-4.11-1.38,0-2.3,1.02-2.3,3.52v2.34h-.98v-2.29c0-2.05-.77-3.25-2.08-3.25s-2.34,1.46-2.34,3.76.82,3.84,2.56,4.4l-.21,1.07c-2.21-.74-3.31-2.69-3.31-5.49,0-3.01,1.42-4.83,3.3-4.83,1.22,0,2.1.8,2.53,2.21.4-1.73,1.44-2.56,2.85-2.56,2.06,0,3.55,2.05,3.55,5.23,0,2.99-1.02,4.95-3.39,5.76Z"/>
        <path class="cls-4" d="M179.87,679.13c-1.49,0-2.58-.8-4.13-2.45l-3.92-4.16v-1.41l4.51,4.93c-.38-.91-.51-1.86-.51-2.82,0-3.11,1.57-5.35,4-5.35s4.11,2.29,4.11,5.67-1.6,5.59-4.07,5.59ZM182.97,673.54c0-2.79-1.28-4.56-3.15-4.56s-3.07,1.78-3.07,4.43c0,1.33.22,2.38.7,3.19.54.88,1.41,1.44,2.42,1.44,1.84,0,3.11-1.83,3.11-4.5Z"/>
        <path class="cls-4" d="M177.78,666.26c-3.57,0-6.08-2.51-6.08-6.03s2.51-6.05,6.08-6.05,6.15,2.51,6.15,6.05-2.54,6.03-6.15,6.03ZM182.95,660.23c0-2.87-2.15-4.95-5.17-4.95s-5.11,2.08-5.11,4.95,2.13,4.93,5.11,4.93,5.17-2.06,5.17-4.93Z"/>
      </g>
      <g>
        <path class="cls-4" d="M183.93,586.64v10.45h-.9l-3.79-5.75c-1.42-2.14-2.26-3.07-3.68-3.07-1.7,0-2.77,1.47-2.77,3.7s.98,3.84,2.87,4.26l-.21,1.09c-2.27-.56-3.63-2.56-3.63-5.35s1.46-4.82,3.73-4.82c1.7,0,2.82,1.1,4.42,3.58l3.01,4.58v-8.68h.96Z"/>
        <path class="cls-4" d="M172.92,576.77v9.09h-.99v-10.4h.85l11.16,7.33v1.25l-11.01-7.27Z"/>
        <path class="cls-4" d="M177.9,574.49c-3.57,0-6.08-2.51-6.08-6.03s2.51-6.05,6.08-6.05,6.15,2.51,6.15,6.05-2.54,6.03-6.15,6.03ZM183.07,568.45c0-2.87-2.15-4.95-5.17-4.95s-5.11,2.08-5.11,4.95,2.13,4.93,5.11,4.93,5.17-2.06,5.17-4.93Z"/>
      </g>
      <g>
        <path class="cls-4" d="M183.82,505.94v10.45h-.9l-3.79-5.75c-1.42-2.14-2.26-3.07-3.68-3.07-1.7,0-2.77,1.47-2.77,3.7s.98,3.84,2.87,4.26l-.21,1.09c-2.27-.56-3.63-2.56-3.63-5.35s1.46-4.82,3.73-4.82c1.7,0,2.82,1.1,4.42,3.58l3.01,4.58v-8.68h.96Z"/>
        <path class="cls-4" d="M180.7,504.84l-.29-1.1c1.95-.72,2.56-2.43,2.56-4.51,0-2.64-1.33-4.34-3.06-4.34-1.95,0-3.12,1.65-3.12,4.27,0,1.98.53,3.31,1.38,4.16l-.18.88-6.18-1.38v-8.47h.96v7.67l4.08.93c-.72-1.04-1.02-2.53-1.02-3.87,0-3.28,1.58-5.3,4.08-5.3,2.34,0,4.02,2.21,4.02,5.44,0,2.82-1.01,4.8-3.23,5.62Z"/>
        <path class="cls-4" d="M177.78,492.14c-3.57,0-6.08-2.51-6.08-6.03s2.51-6.05,6.08-6.05,6.15,2.51,6.15,6.05-2.54,6.03-6.15,6.03ZM182.95,486.11c0-2.87-2.15-4.95-5.17-4.95s-5.11,2.08-5.11,4.95,2.13,4.93,5.11,4.93,5.17-2.06,5.17-4.93Z"/>
      </g>
      <g>
        <path class="cls-4" d="M183.65,431.17v10.45h-.9l-3.79-5.75c-1.42-2.15-2.26-3.07-3.68-3.07-1.7,0-2.77,1.47-2.77,3.7s.98,3.84,2.87,4.26l-.21,1.09c-2.27-.56-3.63-2.56-3.63-5.35s1.46-4.82,3.73-4.82c1.7,0,2.82,1.1,4.42,3.59l3.01,4.58v-8.68h.96Z"/>
        <path class="cls-4" d="M180.36,430.07l-.27-1.09c2.05-.72,2.71-2.45,2.71-4.67,0-2.46-1.01-4.11-2.61-4.11-1.38,0-2.3,1.02-2.3,3.52v2.34h-.98v-2.29c0-2.05-.77-3.25-2.08-3.25s-2.34,1.46-2.34,3.76.82,3.84,2.56,4.4l-.21,1.07c-2.21-.74-3.31-2.69-3.31-5.49,0-3.01,1.42-4.83,3.3-4.83,1.22,0,2.1.8,2.53,2.21.4-1.73,1.44-2.56,2.85-2.56,2.06,0,3.55,2.05,3.55,5.23,0,2.99-1.02,4.95-3.39,5.76Z"/>
        <path class="cls-4" d="M177.61,416.74c-3.57,0-6.08-2.51-6.08-6.03s2.51-6.05,6.08-6.05,6.15,2.51,6.15,6.05-2.54,6.03-6.15,6.03ZM182.78,410.71c0-2.86-2.15-4.95-5.17-4.95s-5.11,2.08-5.11,4.95,2.13,4.93,5.11,4.93,5.17-2.06,5.17-4.93Z"/>
      </g>
      <g>
        <path class="cls-4" d="M180.27,288.89c-1.57,0-2.67-1.47-2.99-3.38-.34,1.44-1.28,2.55-2.66,2.55-1.79,0-3.09-1.86-3.09-4.96s1.3-4.96,3.09-4.96c1.36,0,2.31,1.1,2.66,2.53.32-1.89,1.42-3.36,2.99-3.36,2.06,0,3.49,2.06,3.49,5.79s-1.42,5.79-3.49,5.79ZM176.86,283.1c0-2.14-.82-3.87-2.21-3.87-1.3,0-2.18,1.39-2.18,3.87s.88,3.87,2.18,3.87c1.39,0,2.21-1.74,2.21-3.87ZM182.8,283.1c0-3.07-1.06-4.67-2.55-4.67-1.62,0-2.45,2.06-2.45,4.67s.83,4.67,2.45,4.67c1.49,0,2.55-1.6,2.55-4.67Z"/>
        <path class="cls-4" d="M180.72,267.24v8.8h-.94l-8.13-8.56v-1.34h8.08v-2.11h.99v2.11h2.93v1.1h-2.93ZM179.72,267.24h-6.96l6.96,7.36v-7.36Z"/>
        <path class="cls-4" d="M180.52,263.15l-.29-1.1c1.95-.72,2.56-2.43,2.56-4.51,0-2.64-1.33-4.34-3.06-4.34-1.95,0-3.12,1.65-3.12,4.27,0,1.98.53,3.31,1.38,4.16l-.18.88-6.18-1.38v-8.47h.96v7.67l4.08.93c-.72-1.04-1.02-2.53-1.02-3.87,0-3.28,1.58-5.3,4.08-5.3,2.34,0,4.02,2.21,4.02,5.44,0,2.82-1.01,4.8-3.23,5.62Z"/>
      </g>
    </g>
    <g id="_ст-2100" data-name="ст-2100">
      <g id="_ст_2100" data-name="ст_2100">
        <rect class="cls-3" x="344.27" y="224.7" width="4.36" height="572.65"/>
        <rect class="cls-3" x="503.52" y="224.7" width="4.36" height="572.65"/>
        <rect class="cls-3" x="344.27" y="786.44" width="163.61" height="10.91"/>
        <rect class="cls-3" x="344.27" y="723.72" width="163.61" height="6.82"/>
        <rect class="cls-3" x="344.27" y="616.01" width="163.61" height="6.82"/>
        <rect class="cls-3" x="344.27" y="455.12" width="163.61" height="6.82"/>
        <rect class="cls-3" x="344.27" y="224.7" width="163.61" height="6.82"/>
        <rect class="cls-3" x="344.27" y="532.84" width="163.61" height="6.82"/>
        <rect class="cls-3" x="344.27" y="382.86" width="163.61" height="6.82"/>
        <rect class="cls-5" x="344.27" y="730.54" width="81.81" height="55.9"/>
        <rect class="cls-5" x="426.08" y="730.54" width="81.81" height="55.9"/>
        <line class="cls-2" x1="426.08" y1="730.54" x2="426.08" y2="786.44"/>
      </g>
      <g>
        <g>
          <line class="cls-1" x1="426.08" y1="722.95" x2="426.08" y2="623.6"/>
          <path class="cls-4" d="M429.15,718.58c-.15-.1-.35-.05-.44.1l-2.63,4.13-2.63-4.13c-.09-.15-.29-.19-.44-.1-.15.09-.19.29-.1.44l2.9,4.55c.06.09.16.15.27.15s.21-.06.27-.15l2.9-4.55c.03-.05.05-.11.05-.17,0-.11-.05-.21-.15-.27Z"/>
          <path class="cls-4" d="M429.15,627.97c-.15.1-.35.05-.44-.1l-2.63-4.13-2.63,4.13c-.09.15-.29.19-.44.1-.15-.09-.19-.29-.1-.44l2.9-4.55c.06-.09.16-.15.27-.15s.21.06.27.15l2.9,4.55c.03.05.05.11.05.17,0,.11-.05.21-.15.27Z"/>
        </g>
        <g>
          <line class="cls-1" x1="426.08" y1="615.24" x2="426.08" y2="540.15"/>
          <path class="cls-4" d="M429.15,610.87c-.15-.09-.35-.05-.44.1l-2.63,4.13-2.63-4.13c-.09-.15-.29-.19-.44-.1s-.19.29-.1.44l2.9,4.55c.06.09.16.15.27.15s.21-.06.27-.15l2.9-4.55c.03-.05.05-.11.05-.17,0-.11-.05-.21-.15-.27Z"/>
          <path class="cls-4" d="M429.15,544.53c-.15.09-.35.05-.44-.1l-2.63-4.13-2.63,4.13c-.09.15-.29.19-.44.1-.15-.1-.19-.29-.1-.44l2.9-4.55c.06-.09.16-.15.27-.15s.21.06.27.15l2.9,4.55c.03.05.05.11.05.17,0,.11-.05.21-.15.27Z"/>
        </g>
        <g>
          <line class="cls-1" x1="426.08" y1="532.07" x2="426.08" y2="462.71"/>
          <path class="cls-4" d="M429.15,527.7c-.15-.1-.35-.05-.44.1l-2.63,4.13-2.63-4.13c-.09-.15-.29-.19-.44-.1-.15.09-.19.29-.1.44l2.9,4.55c.06.09.16.15.27.15s.21-.06.27-.15l2.9-4.55c.03-.05.05-.11.05-.17,0-.11-.05-.21-.15-.27Z"/>
          <path class="cls-4" d="M429.15,467.08c-.15.1-.35.05-.44-.1l-2.63-4.13-2.63,4.13c-.09.15-.29.19-.44.1-.15-.09-.19-.29-.1-.44l2.9-4.55c.06-.09.16-.15.27-.15s.21.06.27.15l2.9,4.55c.03.05.05.11.05.17,0,.11-.05.21-.15.27Z"/>
        </g>
        <g>
          <line class="cls-1" x1="426.08" y1="454.35" x2="426.08" y2="390.45"/>
          <path class="cls-4" d="M429.15,449.98c-.15-.1-.35-.05-.44.1l-2.63,4.13-2.63-4.13c-.09-.15-.29-.19-.44-.1s-.19.29-.1.44l2.9,4.55c.06.09.16.15.27.15s.21-.06.27-.15l2.9-4.55c.03-.05.05-.11.05-.17,0-.11-.05-.21-.15-.27Z"/>
          <path class="cls-4" d="M429.15,394.82c-.15.1-.35.05-.44-.1l-2.63-4.13-2.63,4.13c-.09.15-.29.19-.44.1s-.19-.29-.1-.44l2.9-4.55c.06-.09.16-.15.27-.15s.21.06.27.15l2.9,4.55c.03.05.05.11.05.17,0,.11-.05.21-.15.27Z"/>
        </g>
        <g>
          <line class="cls-1" x1="426.08" y1="382.09" x2="426.08" y2="232.29"/>
          <path class="cls-4" d="M429.15,377.72c-.15-.1-.35-.05-.44.1l-2.63,4.13-2.63-4.13c-.09-.15-.29-.19-.44-.1s-.19.29-.1.44l2.9,4.55c.06.09.16.15.27.15s.21-.06.27-.15l2.9-4.55c.03-.05.05-.11.05-.17,0-.11-.05-.21-.15-.27Z"/>
          <path class="cls-4" d="M429.15,236.66c-.15.1-.35.05-.44-.1l-2.63-4.13-2.63,4.13c-.09.15-.29.19-.44.1-.15-.09-.19-.29-.1-.44l2.9-4.55c.06-.09.16-.15.27-.15s.21.06.27.15l2.9,4.55c.03.05.05.11.05.17,0,.11-.05.21-.15.27Z"/>
        </g>
      </g>
      <g>
        <line class="cls-1" x1="344.27" y1="797.07" x2="316.73" y2="797.07"/>
        <line class="cls-1" x1="344.27" y1="224.98" x2="316.73" y2="224.98"/>
        <g>
          <line class="cls-1" x1="316.73" y1="794.19" x2="316.73" y2="227.71"/>
          <path class="cls-4" d="M319.8,789.82c-.15-.1-.35-.05-.44.1l-2.63,4.13-2.63-4.13c-.1-.15-.29-.19-.44-.1-.15.09-.19.29-.1.44l2.9,4.55c.06.09.16.15.27.15s.21-.06.27-.15l2.9-4.55c.03-.05.05-.11.05-.17,0-.11-.05-.21-.15-.27Z"/>
          <path class="cls-4" d="M319.8,232.09c-.15.1-.35.05-.44-.1l-2.63-4.13-2.63,4.13c-.1.15-.29.19-.44.1-.15-.09-.19-.29-.1-.44l2.9-4.55c.06-.09.16-.15.27-.15s.21.06.27.15l2.9,4.55c.03.05.05.11.05.17,0,.11-.05.21-.15.27Z"/>
        </g>
      </g>
      <g>
        <path class="cls-4" d="M419.11,691.28l-.27-1.09c2.05-.72,2.71-2.45,2.71-4.67,0-2.46-1.01-4.11-2.61-4.11-1.38,0-2.31,1.02-2.31,3.52v2.34h-.98v-2.29c0-2.05-.77-3.25-2.08-3.25s-2.34,1.46-2.34,3.76.82,3.84,2.56,4.4l-.21,1.07c-2.21-.74-3.31-2.69-3.31-5.49,0-3.01,1.42-4.83,3.3-4.83,1.22,0,2.1.8,2.53,2.21.4-1.73,1.44-2.56,2.85-2.56,2.06,0,3.55,2.05,3.55,5.23,0,2.99-1.02,4.95-3.39,5.76Z"/>
        <path class="cls-4" d="M418.44,678.56c-1.49,0-2.58-.8-4.13-2.45l-3.92-4.16v-1.41l4.51,4.93c-.38-.91-.51-1.86-.51-2.82,0-3.1,1.57-5.35,4-5.35s4.11,2.29,4.11,5.67-1.6,5.59-4.07,5.59ZM421.54,672.98c0-2.79-1.28-4.56-3.15-4.56s-3.07,1.78-3.07,4.43c0,1.33.22,2.38.71,3.19.54.88,1.41,1.44,2.42,1.44,1.84,0,3.1-1.83,3.1-4.5Z"/>
        <path class="cls-4" d="M416.36,665.7c-3.57,0-6.08-2.51-6.08-6.03s2.51-6.05,6.08-6.05,6.15,2.51,6.15,6.05-2.54,6.03-6.15,6.03ZM421.53,659.67c0-2.87-2.14-4.95-5.17-4.95s-5.11,2.08-5.11,4.95,2.13,4.93,5.11,4.93,5.17-2.06,5.17-4.93Z"/>
      </g>
      <g>
        <path class="cls-4" d="M422.5,586.08v10.45h-.9l-3.79-5.75c-1.42-2.14-2.26-3.07-3.68-3.07-1.7,0-2.77,1.47-2.77,3.7s.98,3.84,2.87,4.26l-.21,1.09c-2.27-.56-3.63-2.56-3.63-5.35s1.46-4.82,3.73-4.82c1.7,0,2.82,1.1,4.42,3.58l3.01,4.58v-8.68h.96Z"/>
        <path class="cls-4" d="M411.49,576.2v9.09h-.99v-10.4h.85l11.16,7.33v1.25l-11.01-7.27Z"/>
        <path class="cls-4" d="M416.47,573.92c-3.57,0-6.08-2.51-6.08-6.03s2.51-6.05,6.08-6.05,6.15,2.51,6.15,6.05-2.54,6.03-6.15,6.03ZM421.64,567.89c0-2.87-2.14-4.95-5.17-4.95s-5.11,2.08-5.11,4.95,2.13,4.93,5.11,4.93,5.17-2.06,5.17-4.93Z"/>
      </g>
      <g>
        <path class="cls-4" d="M422.39,505.38v10.45h-.9l-3.79-5.75c-1.42-2.14-2.26-3.07-3.68-3.07-1.7,0-2.77,1.47-2.77,3.7s.98,3.84,2.87,4.26l-.21,1.09c-2.27-.56-3.63-2.56-3.63-5.35s1.46-4.82,3.73-4.82c1.7,0,2.82,1.1,4.42,3.58l3.01,4.58v-8.68h.96Z"/>
        <path class="cls-4" d="M419.27,504.28l-.29-1.1c1.95-.72,2.56-2.43,2.56-4.51,0-2.64-1.33-4.34-3.06-4.34-1.95,0-3.12,1.65-3.12,4.27,0,1.98.53,3.31,1.38,4.16l-.18.88-6.18-1.38v-8.47h.96v7.67l4.08.93c-.72-1.04-1.02-2.53-1.02-3.87,0-3.28,1.58-5.3,4.08-5.3,2.34,0,4.02,2.21,4.02,5.44,0,2.82-1.01,4.8-3.23,5.62Z"/>
        <path class="cls-4" d="M416.36,491.57c-3.57,0-6.08-2.51-6.08-6.03s2.51-6.05,6.08-6.05,6.15,2.51,6.15,6.05-2.54,6.03-6.15,6.03ZM421.53,485.54c0-2.87-2.14-4.95-5.17-4.95s-5.11,2.08-5.11,4.95,2.13,4.93,5.11,4.93,5.17-2.06,5.17-4.93Z"/>
      </g>
      <g>
        <path class="cls-4" d="M422.22,430.6v10.45h-.9l-3.79-5.75c-1.42-2.15-2.26-3.07-3.68-3.07-1.7,0-2.77,1.47-2.77,3.7s.98,3.84,2.87,4.26l-.21,1.09c-2.27-.56-3.63-2.56-3.63-5.35s1.46-4.82,3.73-4.82c1.7,0,2.82,1.1,4.42,3.59l3.01,4.58v-8.68h.96Z"/>
        <path class="cls-4" d="M418.94,429.51l-.27-1.09c2.05-.72,2.71-2.45,2.71-4.67,0-2.46-1.01-4.11-2.61-4.11-1.38,0-2.31,1.02-2.31,3.52v2.34h-.98v-2.29c0-2.05-.77-3.25-2.08-3.25s-2.34,1.46-2.34,3.76.82,3.84,2.56,4.4l-.21,1.07c-2.21-.74-3.31-2.69-3.31-5.49,0-3.01,1.42-4.83,3.3-4.83,1.22,0,2.1.8,2.53,2.21.4-1.73,1.44-2.56,2.85-2.56,2.06,0,3.55,2.05,3.55,5.23,0,2.99-1.02,4.95-3.39,5.76Z"/>
        <path class="cls-4" d="M416.18,416.18c-3.57,0-6.08-2.51-6.08-6.03s2.51-6.05,6.08-6.05,6.15,2.51,6.15,6.05-2.54,6.03-6.15,6.03ZM421.35,410.14c0-2.86-2.14-4.95-5.17-4.95s-5.11,2.08-5.11,4.95,2.13,4.93,5.11,4.93,5.17-2.06,5.17-4.93Z"/>
      </g>
      <g>
        <path class="cls-4" d="M419.49,328.24l-.29-1.1c1.95-.72,2.56-2.43,2.56-4.51,0-2.64-1.33-4.34-3.06-4.34-1.95,0-3.12,1.65-3.12,4.27,0,1.98.53,3.31,1.38,4.16l-.18.88-6.18-1.38v-8.47h.96v7.67l4.08.93c-.72-1.04-1.02-2.53-1.02-3.87,0-3.28,1.58-5.3,4.08-5.3,2.34,0,4.02,2.21,4.02,5.44,0,2.82-1.01,4.8-3.23,5.62Z"/>
        <path class="cls-4" d="M419.69,307.12v8.8h-.95l-8.13-8.56v-1.34h8.08v-2.11h.99v2.11h2.93v1.1h-2.93ZM418.69,307.12h-6.96l6.96,7.36v-7.36Z"/>
        <path class="cls-4" d="M419.49,303.02l-.29-1.1c1.95-.72,2.56-2.43,2.56-4.51,0-2.64-1.33-4.34-3.06-4.34-1.95,0-3.12,1.65-3.12,4.27,0,1.98.53,3.31,1.38,4.16l-.18.88-6.18-1.38v-8.47h.96v7.67l4.08.93c-.72-1.04-1.02-2.53-1.02-3.87,0-3.28,1.58-5.3,4.08-5.3,2.34,0,4.02,2.21,4.02,5.44,0,2.82-1.01,4.8-3.23,5.62Z"/>
      </g>
      <g>
        <path class="cls-4" d="M308.48,524.41v11.49h-.99l-4.17-6.32c-1.57-2.36-2.48-3.38-4.05-3.38-1.87,0-3.04,1.62-3.04,4.06s1.07,4.22,3.15,4.68l-.23,1.2c-2.5-.62-3.99-2.81-3.99-5.88s1.6-5.3,4.1-5.3c1.86,0,3.1,1.21,4.86,3.94l3.31,5.03v-9.54h1.06Z"/>
        <path class="cls-4" d="M298.31,519.53v3.5h-.9c-.02-2.55-.58-3.45-2.13-3.82v-.88h13.2v1.2h-10.17Z"/>
        <path class="cls-4" d="M301.85,514.91c-3.92,0-6.69-2.76-6.69-6.63s2.76-6.65,6.69-6.65,6.76,2.76,6.76,6.65-2.8,6.63-6.76,6.63ZM307.53,508.27c0-3.15-2.36-5.44-5.68-5.44s-5.61,2.29-5.61,5.44,2.34,5.42,5.61,5.42,5.68-2.27,5.68-5.42Z"/>
        <path class="cls-4" d="M301.85,499.54c-3.92,0-6.69-2.76-6.69-6.63s2.76-6.65,6.69-6.65,6.76,2.76,6.76,6.65-2.8,6.63-6.76,6.63ZM307.53,492.91c0-3.15-2.36-5.44-5.68-5.44s-5.61,2.29-5.61,5.44,2.34,5.42,5.61,5.42,5.68-2.27,5.68-5.42Z"/>
      </g>
    </g>
    <g>
      <line class="cls-1" x1="110.43" y1="142.9" x2="110.43" y2="122.83"/>
      <line class="cls-1" x1="265.32" y1="142.9" x2="265.32" y2="122.83"/>
      <g>
        <line class="cls-1" x1="111.77" y1="122.83" x2="264.02" y2="122.83"/>
        <path class="cls-4" d="M116.15,125.9c.09-.15.05-.35-.1-.44l-4.13-2.63,4.13-2.63c.15-.09.19-.29.1-.44-.1-.15-.29-.19-.44-.1l-4.55,2.9c-.09.06-.15.16-.15.27s.06.21.15.27l4.55,2.9c.05.03.11.05.17.05.11,0,.21-.05.27-.15Z"/>
        <path class="cls-4" d="M259.65,125.9c-.1-.15-.05-.35.1-.44l4.13-2.63-4.13-2.63c-.15-.09-.19-.29-.1-.44s.29-.19.44-.1l4.55,2.9c.09.06.15.16.15.27s-.06.21-.15.27l-4.55,2.9c-.05.03-.11.05-.17.05-.11,0-.21-.05-.27-.15Z"/>
      </g>
    </g>
    <g>
      <path class="cls-4" d="M164.97,114.62l1.21-.32c.79,2.15,2.67,2.81,4.96,2.81,2.9,0,4.77-1.46,4.77-3.36,0-2.15-1.81-3.43-4.7-3.43-2.18,0-3.64.58-4.57,1.51l-.97-.19,1.51-6.79h9.31v1.06h-8.43l-1.02,4.49c1.14-.79,2.78-1.13,4.26-1.13,3.61,0,5.82,1.74,5.82,4.49,0,2.57-2.43,4.42-5.98,4.42-3.1,0-5.28-1.11-6.18-3.55Z"/>
      <path class="cls-4" d="M178.61,113.71c0-1.64.88-2.83,2.69-4.54l4.57-4.31h1.55l-5.42,4.96c1-.42,2.04-.56,3.1-.56,3.41,0,5.88,1.72,5.88,4.4s-2.52,4.52-6.23,4.52-6.14-1.76-6.14-4.47ZM184.75,117.12c3.06,0,5.01-1.41,5.01-3.47s-1.95-3.38-4.87-3.38c-1.46,0-2.62.25-3.5.77-.97.6-1.58,1.55-1.58,2.66,0,2.02,2.01,3.41,4.94,3.41Z"/>
      <path class="cls-4" d="M192.76,111.42c0-3.92,2.76-6.69,6.63-6.69s6.65,2.76,6.65,6.69-2.76,6.76-6.65,6.76-6.63-2.8-6.63-6.76ZM199.39,117.1c3.15,0,5.44-2.36,5.44-5.68s-2.29-5.61-5.44-5.61-5.42,2.34-5.42,5.61,2.27,5.68,5.42,5.68Z"/>
    </g>
    <g>
      <line class="cls-1" x1="348.63" y1="224.82" x2="348.63" y2="204.75"/>
      <line class="cls-1" x1="503.52" y1="224.82" x2="503.52" y2="204.75"/>
      <g>
        <line class="cls-1" x1="349.97" y1="204.75" x2="502.22" y2="204.75"/>
        <path class="cls-4" d="M354.35,207.83c.1-.15.05-.35-.1-.44l-4.13-2.63,4.13-2.63c.15-.1.19-.29.1-.44s-.29-.19-.44-.1l-4.55,2.9c-.09.06-.15.16-.15.27s.06.21.15.27l4.55,2.9c.05.03.11.05.17.05.11,0,.21-.05.27-.15Z"/>
        <path class="cls-4" d="M497.85,207.83c-.1-.15-.05-.35.1-.44l4.13-2.63-4.13-2.63c-.15-.1-.19-.29-.1-.44s.29-.19.44-.1l4.55,2.9c.09.06.15.16.15.27s-.06.21-.15.27l-4.55,2.9c-.05.03-.11.05-.17.05-.11,0-.21-.05-.27-.15Z"/>
      </g>
    </g>
    <g>
      <path class="cls-4" d="M403.17,196.55l1.21-.32c.79,2.15,2.67,2.81,4.96,2.81,2.9,0,4.77-1.46,4.77-3.36,0-2.15-1.81-3.43-4.7-3.43-2.18,0-3.64.58-4.57,1.51l-.97-.19,1.51-6.79h9.31v1.06h-8.43l-1.02,4.49c1.14-.79,2.78-1.13,4.26-1.13,3.61,0,5.82,1.74,5.82,4.49,0,2.57-2.43,4.42-5.98,4.42-3.1,0-5.28-1.11-6.17-3.55Z"/>
      <path class="cls-4" d="M416.81,195.64c0-1.64.88-2.83,2.69-4.54l4.57-4.31h1.55l-5.42,4.96c1-.42,2.04-.56,3.1-.56,3.41,0,5.88,1.72,5.88,4.4s-2.52,4.52-6.23,4.52-6.14-1.76-6.14-4.47ZM422.95,199.05c3.06,0,5.01-1.41,5.01-3.47s-1.95-3.38-4.87-3.38c-1.46,0-2.62.25-3.5.77-.97.6-1.58,1.55-1.58,2.66,0,2.02,2.01,3.41,4.94,3.41Z"/>
      <path class="cls-4" d="M430.96,193.35c0-3.92,2.76-6.69,6.63-6.69s6.65,2.76,6.65,6.69-2.76,6.76-6.65,6.76-6.63-2.8-6.63-6.76ZM437.59,199.03c3.15,0,5.44-2.36,5.44-5.68s-2.29-5.61-5.44-5.61-5.42,2.34-5.42,5.61,2.27,5.68,5.42,5.68Z"/>
    </g>
  </g>
</svg>