<?xml version="1.0" encoding="UTF-8"?>
<svg id="_Слой_1" data-name="Слой 1" xmlns="http://www.w3.org/2000/svg" viewBox="0 0 720.88 838">
  <defs>
    <style>
      .cls-1 {
        stroke: #000;
      }

      .cls-1, .cls-2, .cls-3, .cls-4, .cls-5, .cls-6, .cls-7, .cls-8, .cls-9, .cls-10, .cls-11 {
        fill: none;
        stroke-miterlimit: 10;
      }

      .cls-1, .cls-6 {
        stroke-width: 2.49px;
      }

      .cls-12 {
        fill: #545454;
      }

      .cls-12, .cls-13, .cls-14, .cls-15, .cls-16 {
        stroke-width: 0px;
      }

      .cls-2 {
        stroke-width: 1.67px;
      }

      .cls-2, .cls-8 {
        stroke: #f39655;
      }

      .cls-13 {
        fill: #1a1a1a;
      }

      .cls-3 {
        stroke-width: 1.59px;
      }

      .cls-3, .cls-9, .cls-10, .cls-11 {
        stroke: #9ecd00;
      }

      .cls-14 {
        fill: #fbbc33;
      }

      .cls-15 {
        fill: #b3ca07;
      }

      .cls-4, .cls-5 {
        stroke: #6d6d6d;
      }

      .cls-4, .cls-10 {
        stroke-width: 1.07px;
      }

      .cls-5, .cls-9 {
        stroke-width: 1.07px;
      }

      .cls-6, .cls-7 {
        stroke: #545454;
      }

      .cls-7 {
        stroke-width: 2.49px;
      }

      .cls-8 {
        stroke-width: 1.12px;
      }

      .cls-16 {
        fill: #f2e9d3;
      }

      .cls-11 {
        stroke-width: 1.14px;
      }
    </style>
  </defs>
  <rect class="cls-8" x="527.02" y="131.91" width="36.83" height="23.47"/>
  <rect class="cls-8" x="527.02" y="155.39" width="36.83" height="23.47"/>
  <rect class="cls-8" x="527.02" y="178.86" width="36.83" height="23.47"/>
  <rect class="cls-8" x="527.02" y="202.33" width="36.83" height="23.47"/>
  <rect class="cls-8" x="527.02" y="225.8" width="36.83" height="23.47"/>
  <rect class="cls-8" x="527.02" y="249.27" width="36.83" height="23.47"/>
  <rect class="cls-8" x="527.02" y="272.74" width="36.83" height="23.47"/>
  <rect class="cls-8" x="527.02" y="296.22" width="36.83" height="23.47"/>
  <rect class="cls-8" x="527.02" y="319.69" width="36.83" height="23.47"/>
  <rect class="cls-8" x="527.02" y="343.16" width="36.83" height="23.47"/>
  <rect class="cls-8" x="527.02" y="366.63" width="36.83" height="23.47"/>
  <rect class="cls-8" x="527.02" y="390.1" width="36.83" height="23.47"/>
  <rect class="cls-8" x="527.02" y="413.57" width="36.83" height="23.47"/>
  <rect class="cls-8" x="563.85" y="131.91" width="36.83" height="23.47"/>
  <rect class="cls-8" x="563.85" y="155.39" width="36.83" height="23.47"/>
  <rect class="cls-8" x="563.85" y="178.86" width="36.83" height="23.47"/>
  <rect class="cls-8" x="563.85" y="202.33" width="36.83" height="23.47"/>
  <rect class="cls-8" x="563.85" y="225.8" width="36.83" height="23.47"/>
  <rect class="cls-8" x="563.85" y="249.27" width="36.83" height="23.47"/>
  <rect class="cls-8" x="563.85" y="272.74" width="36.83" height="23.47"/>
  <rect class="cls-8" x="563.85" y="296.22" width="36.83" height="23.47"/>
  <rect class="cls-8" x="563.85" y="319.69" width="36.83" height="23.47"/>
  <rect class="cls-8" x="563.85" y="343.16" width="36.83" height="23.47"/>
  <rect class="cls-8" x="563.85" y="366.63" width="36.83" height="23.47"/>
  <rect class="cls-8" x="563.85" y="390.1" width="36.83" height="23.47"/>
  <rect class="cls-8" x="563.85" y="413.57" width="36.83" height="23.47"/>
  <rect class="cls-8" x="527.02" y="437.05" width="36.83" height="23.47"/>
  <rect class="cls-8" x="563.85" y="437.05" width="36.83" height="23.47"/>
  <rect class="cls-8" x="527.02" y="460.52" width="36.83" height="23.47"/>
  <rect class="cls-8" x="563.85" y="460.52" width="36.83" height="23.47"/>
  <rect class="cls-8" x="527.02" y="483.99" width="36.83" height="23.47"/>
  <rect class="cls-8" x="563.85" y="483.99" width="36.83" height="23.47"/>
  <rect class="cls-8" x="527.02" y="507.46" width="36.83" height="23.47"/>
  <rect class="cls-8" x="563.85" y="507.46" width="36.83" height="23.47"/>
  <rect class="cls-2" x="1.24" y="209.71" width="54.75" height="34.9"/>
  <rect class="cls-3" x="1.24" y="163.32" width="54.75" height="34.9"/>
  <rect class="cls-15" x="438.3" y="586.89" width="55.08" height="124.13"/>
  <polyline class="cls-5" points="511.46 752.54 408.48 752.54 408.48 837.47 231.62 837.47 231.62 530.77 406.79 530.93 406.79 275.33 354.88 275.33 354.88 84.81 487.8 84.65 487.8 .57 720.35 .57 720.35 239.47 688.27 239.47 688.27 273.01 720.35 273.01 720.35 752.54 555.32 752.54 527.49 768.01"/>
  <line class="cls-4" x1="408.48" y1="586.89" x2="408.48" y2="752.54"/>
  <line class="cls-1" x1="700.31" y1="414.87" x2="700.31" y2="571.16"/>
  <rect class="cls-9" x="354.88" y="108.27" width="20.78" height="23.64"/>
  <rect class="cls-9" x="354.88" y="84.63" width="20.78" height="23.64"/>
  <rect class="cls-9" x="354.88" y="131.91" width="20.78" height="23.64"/>
  <rect class="cls-9" x="231.62" y="585.16" width="20.78" height="31.89"/>
  <rect class="cls-9" x="231.62" y="553.27" width="20.78" height="31.89"/>
  <rect class="cls-9" x="231.62" y="741.93" width="20.78" height="53.26"/>
  <rect class="cls-9" x="231.62" y="710.04" width="20.78" height="31.89"/>
  <rect class="cls-9" x="387.7" y="741.93" width="20.78" height="53.26"/>
  <rect class="cls-9" x="387.7" y="710.04" width="20.78" height="31.89"/>
  <rect class="cls-9" x="231.62" y="617.06" width="20.78" height="31.89"/>
  <rect class="cls-9" x="354.88" y="155.56" width="20.78" height="23.64"/>
  <rect class="cls-9" x="354.88" y="179.2" width="20.78" height="23.64"/>
  <rect class="cls-9" x="354.88" y="202.85" width="20.78" height="23.64"/>
  <rect class="cls-11" x="673.08" y="-5.14" width="20.78" height="32.2" transform="translate(694.43 -672.51) rotate(90)"/>
  <rect class="cls-11" x="640.88" y="-5.14" width="20.78" height="32.2" transform="translate(662.23 -640.31) rotate(90)"/>
  <rect class="cls-9" x="699.57" y="45.67" width="20.78" height="24.32"/>
  <rect class="cls-9" x="699.57" y="69.99" width="20.78" height="24.32"/>
  <rect class="cls-9" x="699.57" y="94.31" width="20.78" height="24.32"/>
  <rect class="cls-9" x="699.57" y="118.63" width="20.78" height="24.32"/>
  <rect class="cls-9" x="699.57" y="142.95" width="20.78" height="24.32"/>
  <rect class="cls-9" x="699.57" y="167.26" width="20.78" height="24.32"/>
  <rect class="cls-9" x="699.57" y="21.35" width="20.78" height="24.32"/>
  <rect class="cls-9" x="406.79" y="392.44" width="20.78" height="23.08"/>
  <rect class="cls-9" x="406.79" y="369.21" width="20.78" height="23.08"/>
  <rect class="cls-9" x="406.79" y="345.97" width="20.78" height="23.08"/>
  <rect class="cls-9" x="406.79" y="322.73" width="20.78" height="23.08"/>
  <rect class="cls-9" x="406.79" y="299.49" width="20.78" height="23.08"/>
  <rect class="cls-9" x="406.79" y="276.25" width="20.78" height="23.08"/>
  <rect class="cls-9" x="406.79" y="415.52" width="20.78" height="23.08"/>
  <rect class="cls-9" x="406.79" y="438.61" width="20.78" height="23.08"/>
  <rect class="cls-9" x="406.79" y="461.69" width="20.78" height="23.08"/>
  <rect class="cls-9" x="406.79" y="484.77" width="20.78" height="23.08"/>
  <rect class="cls-9" x="406.79" y="507.85" width="20.78" height="23.08"/>
  <rect class="cls-10" x="699.57" y="301.38" width="20.78" height="28.37"/>
  <rect class="cls-10" x="699.57" y="273" width="20.78" height="28.37"/>
  <rect class="cls-10" x="699.57" y="329.75" width="20.78" height="28.37"/>
  <rect class="cls-10" x="699.57" y="358.12" width="20.78" height="28.37"/>
  <rect class="cls-10" x="699.57" y="386.49" width="20.78" height="28.37"/>
  <rect class="cls-10" x="699.57" y="600.07" width="20.78" height="28.37"/>
  <rect class="cls-10" x="699.57" y="571.7" width="20.78" height="28.37"/>
  <rect class="cls-10" x="699.57" y="628.45" width="20.78" height="28.37"/>
  <rect class="cls-10" x="699.57" y="656.82" width="20.78" height="28.37"/>
  <rect class="cls-9" x="699.57" y="685.19" width="20.78" height="54.02"/>
  <g>
    <path class="cls-16" d="M469.29,692.48v2.86h6.24v4h-15.83v-4h5.67v-2.89l-5.67-6.28v-5.55l7.5,8.53,8.32-8.78v5.61l-6.24,6.5Z"/>
    <path class="cls-16" d="M471,679.87c-2.58,0-4.22-1.81-4.98-6.75l-1.13-7.47c-1.36.42-2.11,1.75-2.11,4.67,0,3.14.79,4.89,2.33,5.55l-.41,4.14c-3.18-.92-5.33-4.3-5.33-9.69s2.46-8.83,6.71-8.83h9.46v3.72l-2.71.17c2.08,1.72,3.06,4.69,3.06,7.78,0,4.14-1.77,6.72-4.89,6.72ZM472.6,672.76c0-3.64-1.77-7.3-4.67-7.3h-.13l1.17,7.41c.38,2.14.92,2.89,1.92,2.89,1.13,0,1.7-.94,1.7-3Z"/>
    <path class="cls-16" d="M467.62,658.95c-4.92,0-8.26-4.14-8.26-10.19,0-5.14,2.24-8.53,5.67-9.47l.85,4.19c-1.7.61-2.71,2.47-2.71,5.28,0,3.78,1.73,6.05,4.44,6.05s4.45-2.28,4.45-6.05c0-3-1.01-4.89-2.62-5.44l.69-4.14c3.31.67,5.74,4.33,5.74,9.58,0,6.05-3.37,10.19-8.26,10.19Z"/>
    <path class="cls-16" d="M467.62,637.98c-4.92,0-8.26-4.14-8.26-10.19,0-5.14,2.24-8.53,5.67-9.47l.85,4.19c-1.7.61-2.71,2.47-2.71,5.28,0,3.78,1.73,6.05,4.44,6.05s4.45-2.28,4.45-6.05c0-3-1.01-4.89-2.62-5.44l.69-4.14c3.31.67,5.74,4.33,5.74,9.58,0,6.05-3.37,10.19-8.26,10.19Z"/>
    <path class="cls-16" d="M471,616.62c-2.58,0-4.22-1.81-4.98-6.75l-1.13-7.47c-1.36.42-2.11,1.75-2.11,4.67,0,3.14.79,4.89,2.33,5.55l-.41,4.14c-3.18-.92-5.33-4.3-5.33-9.69s2.46-8.83,6.71-8.83h9.46v3.72l-2.71.17c2.08,1.72,3.06,4.69,3.06,7.78,0,4.14-1.77,6.72-4.89,6.72ZM472.6,609.51c0-3.64-1.77-7.3-4.67-7.3h-.13l1.17,7.41c.38,2.14.92,2.89,1.92,2.89,1.13,0,1.7-.94,1.7-3Z"/>
  </g>
  <g>
    <path class="cls-13" d="M4.4,22.29H0v-2.07c2.9-.06,4.32-.83,4.94-2.82h2.41v14.81h-2.94v-9.91Z"/>
    <path class="cls-13" d="M15.85,25.19h8.81v2.43h-8.81v-2.43Z"/>
    <path class="cls-13" d="M42.05,19.98h-10.66v-2.59h14.06v2.33l-8.41,12.48h-3.36l8.37-12.22Z"/>
    <path class="cls-13" d="M45.17,27.31c0-1.6.73-2.78,2.63-4.58l5.61-5.33h3.79l-5.67,5.17c.63-.14,1.28-.22,1.95-.22,4.56,0,7.15,1.92,7.15,4.94s-2.94,5.13-7.76,5.13-7.7-2.01-7.7-5.11ZM52.87,30.03c2.96,0,4.74-1.07,4.74-2.74s-1.76-2.69-4.66-2.69c-1.36,0-2.47.2-3.26.59-.97.45-1.52,1.18-1.52,2.11,0,1.68,1.8,2.73,4.7,2.73Z"/>
    <path class="cls-13" d="M67.6,25.8h8.23v1.19h-8.23v-1.19Z"/>
    <path class="cls-13" d="M83.32,27.36c0-2.96,2.69-4.96,6.63-4.96,3.26,0,5.41,1.3,6.08,3.36l-1.34.26c-.53-1.5-2.19-2.47-4.74-2.47-3.24,0-5.31,1.48-5.31,3.81s2.07,3.83,5.31,3.83c2.69,0,4.34-1.03,4.84-2.59l1.32.2c-.53,2.05-2.82,3.53-6.16,3.53-3.95,0-6.63-2.03-6.63-4.98Z"/>
    <path class="cls-13" d="M102.05,23.67h-5.23v-1.15h11.73v1.15h-5.23v8.53h-1.26v-8.53Z"/>
    <path class="cls-13" d="M109.12,27.36c0-2.84,2.72-4.96,6.73-4.96,3.55,0,6.3,1.84,6.3,4.5,0,.22-.02.53-.06.77h-11.67c.18,2.15,2.19,3.55,5.43,3.55,2.55,0,4.15-.77,4.84-2.21l1.28.22c-.71,1.9-2.96,3.1-6.12,3.1-4.15,0-6.73-2.09-6.73-4.98ZM120.81,26.63c-.06-1.78-2.19-3.16-4.96-3.16-3.04,0-5,1.24-5.37,3.16h10.33Z"/>
    <path class="cls-13" d="M123.04,32.2l.26-1.07c.16.04.36.06.49.06.59,0,1.09-.24,1.42-.85.38-.69.55-2.05.67-4.4l.18-3.42h9.71v9.67h-1.26v-8.55h-7.25l-.14,2.41c-.16,2.61-.34,4.05-.85,4.94-.57,1.07-1.52,1.34-2.35,1.34-.34,0-.63-.04-.89-.14Z"/>
    <path class="cls-13" d="M137.81,32.2l.26-1.07c.16.04.36.06.49.06.59,0,1.09-.24,1.42-.85.38-.69.55-2.05.67-4.4l.18-3.42h9.71v9.67h-1.26v-8.55h-7.25l-.14,2.41c-.16,2.61-.34,4.05-.85,4.94-.57,1.07-1.52,1.34-2.35,1.34-.34,0-.63-.04-.89-.14Z"/>
    <path class="cls-13" d="M153.39,29.58c0-1.58,1.3-2.45,3.91-2.82l6.46-.93c-.41-1.5-1.76-2.33-4.23-2.33-2.63,0-4.32.71-4.86,2.13l-1.28-.18c.57-1.82,2.76-3.04,6.14-3.04,3.59,0,5.53,1.7,5.53,3.99v5.81h-1.2l-.04-2.61c-1.22,1.84-3.57,2.74-6.1,2.74-2.76,0-4.32-1.07-4.32-2.76ZM157.85,31.25c3.22,0,5.98-1.7,5.98-4.32v-.1l-6.4.91c-2.03.3-2.72.89-2.72,1.82,0,1.07,1.05,1.7,3.14,1.7Z"/>
    <path class="cls-13" d="M172.48,27.11l-5.25-4.58h1.68l4.6,4.01h1.86v-4.01h1.26v4.01h1.86l4.64-4.01h1.68l-5.25,4.56,5.51,5.11h-1.7l-4.9-4.56h-1.84v4.56h-1.26v-4.56h-1.82l-4.94,4.56h-1.68l5.55-5.09Z"/>
    <path class="cls-13" d="M187.15,22.53h1.26v8.19l8.79-8.19h1.24v9.67h-1.26v-8.19l-8.81,8.19h-1.22v-9.67Z"/>
  </g>
  <g>
    <path class="cls-13" d="M68.92,180.4h7.13v1.03h-7.13v-1.03Z"/>
    <path class="cls-13" d="M82.53,181.75c0-2.56,2.32-4.29,5.74-4.29,2.82,0,4.68,1.13,5.26,2.91l-1.16.22c-.46-1.3-1.9-2.14-4.1-2.14-2.8,0-4.6,1.28-4.6,3.3s1.79,3.32,4.6,3.32c2.32,0,3.76-.89,4.19-2.24l1.15.17c-.46,1.78-2.44,3.06-5.33,3.06-3.42,0-5.74-1.76-5.74-4.31Z"/>
    <path class="cls-13" d="M98.74,178.55h-4.53v-.99h10.15v.99h-4.53v7.38h-1.09v-7.38Z"/>
    <path class="cls-13" d="M104.86,181.75c0-2.46,2.36-4.29,5.83-4.29,3.08,0,5.45,1.59,5.45,3.9,0,.19-.02.46-.05.67h-10.1c.15,1.86,1.9,3.08,4.7,3.08,2.2,0,3.59-.67,4.19-1.91l1.11.19c-.62,1.64-2.56,2.68-5.3,2.68-3.59,0-5.83-1.81-5.83-4.31ZM114.98,181.12c-.05-1.54-1.9-2.73-4.29-2.73-2.63,0-4.32,1.08-4.65,2.73h8.94Z"/>
    <path class="cls-13" d="M116.91,185.94l.22-.92c.14.03.31.05.43.05.51,0,.94-.21,1.23-.73.32-.6.48-1.78.58-3.81l.15-2.96h8.41v8.37h-1.09v-7.4h-6.27l-.12,2.08c-.14,2.26-.29,3.5-.73,4.27-.5.92-1.32,1.16-2.03,1.16-.29,0-.55-.03-.77-.12Z"/>
    <path class="cls-13" d="M129.69,185.94l.22-.92c.14.03.31.05.43.05.51,0,.94-.21,1.23-.73.32-.6.48-1.78.58-3.81l.15-2.96h8.41v8.37h-1.09v-7.4h-6.27l-.12,2.08c-.14,2.26-.29,3.5-.73,4.27-.5.92-1.32,1.16-2.03,1.16-.29,0-.55-.03-.77-.12Z"/>
    <path class="cls-13" d="M143.18,183.66c0-1.37,1.13-2.12,3.38-2.44l5.59-.8c-.36-1.3-1.52-2.02-3.66-2.02-2.27,0-3.74.62-4.2,1.85l-1.11-.15c.5-1.57,2.39-2.63,5.31-2.63,3.11,0,4.79,1.47,4.79,3.45v5.02h-1.04l-.03-2.26c-1.06,1.59-3.09,2.38-5.28,2.38-2.39,0-3.74-.92-3.74-2.39ZM147.04,185.12c2.79,0,5.18-1.47,5.18-3.74v-.09l-5.54.79c-1.76.26-2.36.77-2.36,1.57,0,.92.91,1.47,2.72,1.47Z"/>
    <path class="cls-13" d="M159.7,181.53l-4.55-3.96h1.45l3.98,3.47h1.61v-3.47h1.09v3.47h1.61l4.02-3.47h1.45l-4.55,3.95,4.77,4.43h-1.47l-4.24-3.95h-1.59v3.95h-1.09v-3.95h-1.57l-4.27,3.95h-1.45l4.8-4.41Z"/>
    <path class="cls-13" d="M187.46,185.94h-11.16v-.96l6.14-4.05c2.29-1.52,3.28-2.41,3.28-3.93,0-1.81-1.57-2.96-3.95-2.96s-4.1,1.04-4.55,3.06l-1.16-.22c.6-2.43,2.73-3.88,5.71-3.88s5.14,1.56,5.14,3.98c0,1.81-1.18,3.01-3.83,4.72l-4.89,3.21h9.26v1.03Z"/>
    <path class="cls-13" d="M189.27,188.41l.97-3.95h1.42l-1.49,3.95h-.91Z"/>
    <path class="cls-13" d="M202.66,182.81h-9.4v-1.01l9.14-8.68h1.44v8.63h2.26v1.06h-2.26v3.13h-1.18v-3.13ZM202.66,181.75v-7.43l-7.86,7.43h7.86Z"/>
    <path class="cls-13" d="M212.66,177.56h1.09l4.82,5.02,4.75-5.02h1.09v8.37h-1.08v-7.01l-4.67,4.96h-.27l-4.67-4.89v6.94h-1.08v-8.37Z"/>
  </g>
  <g>
    <path class="cls-13" d="M69.95,226.79h7.13v1.03h-7.13v-1.03Z"/>
    <path class="cls-13" d="M83.55,228.14c0-2.56,2.32-4.29,5.74-4.29,2.82,0,4.68,1.13,5.26,2.91l-1.16.22c-.46-1.3-1.9-2.14-4.1-2.14-2.8,0-4.6,1.28-4.6,3.3s1.79,3.32,4.6,3.32c2.32,0,3.76-.89,4.19-2.24l1.15.17c-.46,1.78-2.44,3.06-5.33,3.06-3.42,0-5.74-1.76-5.74-4.31Z"/>
    <path class="cls-13" d="M99.77,224.94h-4.53v-.99h10.15v.99h-4.53v7.38h-1.09v-7.38Z"/>
    <path class="cls-13" d="M105.89,228.14c0-2.46,2.36-4.29,5.83-4.29,3.08,0,5.45,1.59,5.45,3.9,0,.19-.02.46-.05.67h-10.1c.15,1.86,1.9,3.08,4.7,3.08,2.2,0,3.59-.67,4.19-1.91l1.11.19c-.62,1.64-2.56,2.68-5.3,2.68-3.59,0-5.83-1.81-5.83-4.31ZM116.01,227.5c-.05-1.54-1.9-2.73-4.29-2.73-2.63,0-4.32,1.08-4.65,2.73h8.94Z"/>
    <path class="cls-13" d="M117.94,232.32l.22-.92c.14.03.31.05.43.05.51,0,.94-.21,1.23-.73.32-.6.48-1.78.58-3.81l.15-2.96h8.41v8.37h-1.09v-7.4h-6.27l-.12,2.08c-.14,2.26-.29,3.5-.73,4.27-.5.92-1.32,1.16-2.03,1.16-.29,0-.55-.03-.77-.12Z"/>
    <path class="cls-13" d="M130.72,232.32l.22-.92c.14.03.31.05.43.05.51,0,.94-.21,1.23-.73.32-.6.48-1.78.58-3.81l.15-2.96h8.41v8.37h-1.09v-7.4h-6.27l-.12,2.08c-.14,2.26-.29,3.5-.73,4.27-.5.92-1.32,1.16-2.03,1.16-.29,0-.55-.03-.77-.12Z"/>
    <path class="cls-13" d="M144.2,230.05c0-1.37,1.13-2.12,3.38-2.44l5.59-.8c-.36-1.3-1.52-2.02-3.66-2.02-2.27,0-3.74.62-4.2,1.85l-1.11-.15c.5-1.57,2.39-2.63,5.31-2.63,3.11,0,4.79,1.47,4.79,3.45v5.02h-1.04l-.03-2.26c-1.06,1.59-3.09,2.38-5.28,2.38-2.39,0-3.74-.92-3.74-2.39ZM148.06,231.5c2.79,0,5.18-1.47,5.18-3.74v-.09l-5.54.79c-1.76.26-2.36.77-2.36,1.57,0,.92.91,1.47,2.72,1.47Z"/>
    <path class="cls-13" d="M160.73,227.91l-4.55-3.96h1.45l3.98,3.47h1.61v-3.47h1.09v3.47h1.61l4.02-3.47h1.45l-4.55,3.95,4.77,4.43h-1.47l-4.24-3.95h-1.59v3.95h-1.09v-3.95h-1.57l-4.27,3.95h-1.45l4.8-4.41Z"/>
    <path class="cls-13" d="M188.48,232.32h-11.16v-.96l6.14-4.05c2.29-1.52,3.28-2.41,3.28-3.93,0-1.81-1.57-2.96-3.95-2.96s-4.1,1.04-4.55,3.06l-1.16-.22c.6-2.43,2.73-3.88,5.71-3.88s5.14,1.56,5.14,3.98c0,1.81-1.18,3.01-3.83,4.72l-4.89,3.21h9.26v1.03Z"/>
    <path class="cls-13" d="M191.4,234.8l.97-3.95h1.42l-1.49,3.95h-.91Z"/>
    <path class="cls-13" d="M199.06,222.45h-3.4v-.87c2.48-.02,3.35-.56,3.71-2.07h.85v12.82h-1.16v-9.88Z"/>
    <path class="cls-13" d="M209.76,223.95h1.09l4.82,5.02,4.75-5.02h1.09v8.37h-1.08v-7.01l-4.67,4.96h-.27l-4.67-4.89v6.94h-1.08v-8.37Z"/>
  </g>
  <g>
    <path class="cls-13" d="M.33,55.56h3.16l3.63,11.75,5.65-8.75h.67l5.75,8.65,3.5-11.65h3.12l-4.58,14.81h-3.26l-4.9-7.38-4.8,7.38h-3.28L.33,55.56Z"/>
    <path class="cls-13" d="M30.92,60.45h-4.4v-2.07c2.9-.06,4.32-.83,4.94-2.82h2.41v14.81h-2.94v-9.91Z"/>
    <path class="cls-13" d="M42.37,63.35h8.81v2.43h-8.81v-2.43Z"/>
    <path class="cls-13" d="M57.81,55.56h3.16l3.63,11.75,5.65-8.75h.67l5.75,8.65,3.5-11.65h3.12l-4.58,14.81h-3.26l-4.9-7.38-4.8,7.38h-3.28l-4.66-14.81Z"/>
    <path class="cls-13" d="M99.61,60.45c0,1.6-.73,2.78-2.63,4.58l-5.61,5.33h-3.79l5.67-5.17c-.63.14-1.28.22-1.95.22-4.56,0-7.15-1.92-7.15-4.94s2.94-5.13,7.76-5.13,7.7,2.01,7.7,5.11ZM91.83,63.16c1.36,0,2.47-.2,3.26-.59.97-.45,1.52-1.18,1.52-2.11,0-1.68-1.8-2.72-4.7-2.72s-4.74,1.07-4.74,2.74,1.76,2.69,4.66,2.69Z"/>
    <path class="cls-13" d="M106.71,63.97h8.23v1.18h-8.23v-1.18Z"/>
    <path class="cls-13" d="M127.07,65.84h-2.49v4.52h-1.26v-9.67h1.26v4.01h2.53l5.61-4.01h1.86l-6.42,4.56,6.69,5.11h-1.88l-5.9-4.52Z"/>
    <path class="cls-13" d="M136.8,60.69h1.22l.02,2.23c1.01-1.44,2.98-2.35,5.55-2.35,3.85,0,6.46,1.99,6.46,4.96s-2.61,4.98-6.46,4.98c-2.57,0-4.52-.93-5.53-2.35v6.56h-1.26v-14.02ZM143.44,69.36c3.22,0,5.29-1.52,5.29-3.83s-2.07-3.81-5.29-3.81-5.37,1.48-5.37,3.81,2.11,3.83,5.37,3.83Z"/>
    <path class="cls-13" d="M152.04,65.53c0-2.86,2.63-4.96,6.69-4.96s6.69,2.09,6.69,4.96-2.67,4.98-6.69,4.98-6.69-2.09-6.69-4.98ZM158.74,69.36c3.32,0,5.37-1.54,5.37-3.83s-2.05-3.81-5.37-3.81-5.37,1.54-5.37,3.81,2.07,3.83,5.37,3.83Z"/>
    <path class="cls-13" d="M167.41,65.53c0-2.96,2.69-4.96,6.63-4.96,3.26,0,5.41,1.3,6.08,3.36l-1.34.26c-.53-1.5-2.19-2.47-4.74-2.47-3.24,0-5.31,1.48-5.31,3.81s2.07,3.83,5.31,3.83c2.69,0,4.34-1.03,4.84-2.59l1.32.2c-.53,2.05-2.82,3.53-6.16,3.53-3.95,0-6.63-2.03-6.63-4.98Z"/>
    <path class="cls-13" d="M181.88,65.53c0-2.96,2.69-4.96,6.63-4.96,3.26,0,5.41,1.3,6.08,3.36l-1.34.26c-.53-1.5-2.19-2.47-4.74-2.47-3.24,0-5.31,1.48-5.31,3.81s2.07,3.83,5.31,3.83c2.69,0,4.34-1.03,4.84-2.59l1.32.2c-.53,2.05-2.82,3.53-6.16,3.53-3.95,0-6.63-2.03-6.63-4.98Z"/>
    <path class="cls-13" d="M198.07,63.97h8.23v1.18h-8.23v-1.18Z"/>
    <path class="cls-13" d="M209.91,60.69h11.21v9.67h-1.26v-8.53h-8.69v8.53h-1.26v-9.67Z"/>
    <path class="cls-13" d="M223.97,67.74c0-1.58,1.3-2.45,3.91-2.82l6.46-.93c-.41-1.5-1.76-2.33-4.23-2.33-2.63,0-4.32.71-4.86,2.13l-1.28-.18c.57-1.82,2.76-3.04,6.14-3.04,3.59,0,5.53,1.7,5.53,3.99v5.81h-1.2l-.04-2.61c-1.22,1.84-3.57,2.74-6.1,2.74-2.76,0-4.32-1.07-4.32-2.76ZM228.43,69.42c3.22,0,5.98-1.7,5.98-4.32v-.1l-6.4.91c-2.03.3-2.72.89-2.72,1.82,0,1.07,1.05,1.7,3.14,1.7Z"/>
    <path class="cls-13" d="M239.17,60.69h1.26v3.99h8.79v-3.99h1.26v9.67h-1.26v-4.54h-8.79v4.54h-1.26v-9.67Z"/>
    <path class="cls-13" d="M253.15,65.53c0-2.84,2.72-4.96,6.73-4.96,3.55,0,6.3,1.84,6.3,4.5,0,.22-.02.53-.06.77h-11.67c.18,2.15,2.19,3.55,5.43,3.55,2.55,0,4.15-.77,4.84-2.21l1.28.22c-.71,1.9-2.96,3.1-6.12,3.1-4.15,0-6.73-2.09-6.73-4.98ZM264.84,64.8c-.06-1.78-2.19-3.16-4.96-3.16-3.04,0-5,1.24-5.37,3.16h10.33Z"/>
    <path class="cls-13" d="M267.07,70.36l.26-1.07c.16.04.36.06.49.06.59,0,1.09-.24,1.42-.85.38-.69.55-2.05.67-4.4l.18-3.42h9.71v9.67h-1.26v-8.55h-7.25l-.14,2.41c-.16,2.61-.34,4.05-.85,4.94-.57,1.07-1.52,1.34-2.35,1.34-.34,0-.63-.04-.89-.14Z"/>
    <path class="cls-13" d="M283.56,60.69h1.26v8.19l8.79-8.19h1.24v9.67h-1.26v-8.19l-8.81,8.19h-1.22v-9.67Z"/>
  </g>
  <g>
    <path class="cls-13" d="M2.67,92.74h10.68c3.38,0,5.67,1.76,5.67,4.6,0,2.23-1.6,3.77-4.23,4.25l6.12,5.96h-3.91l-5.79-5.59h-5.57v5.59h-2.98v-14.81ZM13.29,99.39c1.54,0,2.57-.77,2.57-2.05s-.99-2.03-2.59-2.03h-7.62v4.09h7.64Z"/>
    <path class="cls-13" d="M25.29,97.63h-4.4v-2.07c2.9-.06,4.32-.83,4.94-2.82h2.41v14.81h-2.94v-9.91Z"/>
    <path class="cls-13" d="M36.88,101.15h8.23v1.19h-8.23v-1.19Z"/>
    <path class="cls-13" d="M53.49,97.87h1.22l.02,2.23c1.01-1.44,2.98-2.35,5.55-2.35,3.85,0,6.46,1.99,6.46,4.96s-2.61,4.98-6.46,4.98c-2.57,0-4.52-.93-5.53-2.35v6.56h-1.26v-14.02ZM60.12,106.54c3.22,0,5.29-1.52,5.29-3.83s-2.07-3.81-5.29-3.81-5.37,1.48-5.37,3.81,2.11,3.83,5.37,3.83Z"/>
    <path class="cls-13" d="M68.73,102.71c0-2.84,2.72-4.96,6.73-4.96,3.55,0,6.3,1.84,6.3,4.5,0,.22-.02.53-.06.77h-11.67c.18,2.15,2.19,3.55,5.43,3.55,2.55,0,4.15-.77,4.84-2.21l1.28.22c-.71,1.9-2.96,3.1-6.12,3.1-4.15,0-6.73-2.09-6.73-4.98ZM80.42,101.98c-.06-1.78-2.19-3.16-4.96-3.16-3.04,0-5,1.24-5.37,3.16h10.33Z"/>
    <path class="cls-13" d="M84.4,97.87h1.26v8.19l8.79-8.19h1.24v9.67h-1.26v-8.19l-8.81,8.19h-1.22v-9.67ZM87.6,93.49c.16,1.12,1.24,1.76,2.47,1.76s2.29-.63,2.45-1.76h1.22c-.26,1.72-1.74,2.72-3.67,2.72s-3.4-1.01-3.69-2.72h1.22Z"/>
    <path class="cls-13" d="M97.73,107.54l.26-1.07c.16.04.36.06.49.06.59,0,1.09-.24,1.42-.85.38-.69.55-2.05.67-4.4l.18-3.42h9.71v9.67h-1.26v-8.55h-7.25l-.14,2.41c-.16,2.61-.34,4.05-.85,4.94-.57,1.07-1.52,1.34-2.35,1.34-.34,0-.63-.04-.89-.14Z"/>
  </g>
  <path class="cls-13" d="M710.42,666.38h-3.4v-.87c2.48-.02,3.35-.56,3.71-2.07h.85v12.82h-1.16v-9.88Z"/>
  <path class="cls-13" d="M715.45,647.56h-10.46v-.9l5.75-3.8c2.15-1.43,3.08-2.26,3.08-3.68,0-1.7-1.47-2.77-3.7-2.77s-3.85.98-4.26,2.87l-1.09-.21c.56-2.28,2.56-3.64,5.35-3.64s4.82,1.46,4.82,3.73c0,1.7-1.11,2.82-3.59,4.42l-4.58,3.01h8.68v.96Z"/>
  <path class="cls-13" d="M704.44,616.97l1.09-.27c.72,2.05,2.45,2.71,4.68,2.71,2.47,0,4.12-1.01,4.12-2.61,0-1.38-1.03-2.31-3.52-2.31h-2.34v-.98h2.29c2.05,0,3.25-.77,3.25-2.08s-1.46-2.34-3.76-2.34-3.85.82-4.41,2.56l-1.07-.21c.74-2.21,2.69-3.32,5.5-3.32,3.01,0,4.84,1.43,4.84,3.3,0,1.22-.8,2.1-2.21,2.53,1.73.4,2.56,1.44,2.56,2.85,0,2.07-2.05,3.56-5.24,3.56-3,0-4.95-1.03-5.77-3.4Z"/>
  <path class="cls-13" d="M712.95,588.95h-8.81v-.95l8.57-8.14h1.35v8.09h2.11v.99h-2.11v2.93h-1.11v-2.93ZM712.95,587.96v-6.97l-7.37,6.97h7.37Z"/>
  <path class="cls-13" d="M704.19,403.91l1.11-.29c.72,1.95,2.44,2.56,4.52,2.56,2.64,0,4.34-1.33,4.34-3.06,0-1.95-1.65-3.12-4.28-3.12-1.99,0-3.32.53-4.17,1.38l-.88-.18,1.38-6.18h8.48v.96h-7.67l-.93,4.09c1.04-.72,2.53-1.03,3.88-1.03,3.29,0,5.3,1.59,5.3,4.09,0,2.34-2.21,4.02-5.45,4.02-2.82,0-4.81-1.01-5.62-3.24Z"/>
  <path class="cls-13" d="M704.27,373.28c0-1.49.8-2.58,2.45-4.13l4.17-3.93h1.41l-4.93,4.52c.91-.38,1.86-.51,2.82-.51,3.11,0,5.35,1.57,5.35,4.01s-2.29,4.12-5.67,4.12-5.59-1.6-5.59-4.07ZM709.87,376.38c2.79,0,4.57-1.28,4.57-3.16s-1.78-3.08-4.44-3.08c-1.33,0-2.39.22-3.19.71-.88.54-1.44,1.41-1.44,2.42,0,1.84,1.83,3.11,4.5,3.11Z"/>
  <path class="cls-13" d="M714.09,338.91h-9.1v-.99h10.41v.85l-7.34,11.17h-1.25l7.27-11.02Z"/>
  <path class="cls-13" d="M703.89,317.82c0-1.57,1.47-2.68,3.38-3-1.44-.34-2.55-1.28-2.55-2.66,0-1.79,1.86-3.09,4.97-3.09s4.97,1.3,4.97,3.09c0,1.36-1.11,2.31-2.53,2.66,1.89.32,3.36,1.43,3.36,3,0,2.07-2.07,3.49-5.8,3.49s-5.8-1.43-5.8-3.49ZM709.69,320.35c3.08,0,4.68-1.06,4.68-2.55,0-1.62-2.07-2.45-4.68-2.45s-4.68.83-4.68,2.45c0,1.49,1.6,2.55,4.68,2.55ZM709.69,314.41c2.15,0,3.88-.82,3.88-2.21,0-1.3-1.39-2.18-3.88-2.18s-3.88.88-3.88,2.18c0,1.39,1.75,2.21,3.88,2.21Z"/>
  <path class="cls-13" d="M715.36,285.12c0,1.49-.8,2.58-2.45,4.13l-4.17,3.93h-1.41l4.93-4.52c-.91.38-1.86.51-2.82.51-3.11,0-5.35-1.57-5.35-4.01s2.29-4.12,5.67-4.12,5.59,1.6,5.59,4.07ZM709.64,288.25c1.33,0,2.39-.22,3.19-.71.88-.54,1.44-1.41,1.44-2.42,0-1.84-1.83-3.11-4.5-3.11s-4.57,1.28-4.57,3.16,1.78,3.08,4.44,3.08Z"/>
  <g>
    <path class="cls-13" d="M704.99,176.41h-2.48v-.64c1.81-.01,2.44-.41,2.71-1.51h.62v9.35h-.85v-7.21Z"/>
    <path class="cls-13" d="M708.27,178.91c0-2.78,1.96-4.74,4.7-4.74s4.71,1.96,4.71,4.74-1.96,4.79-4.71,4.79-4.7-1.98-4.7-4.79ZM712.97,182.94c2.23,0,3.85-1.67,3.85-4.03s-1.62-3.98-3.85-3.98-3.84,1.66-3.84,3.98,1.61,4.03,3.84,4.03Z"/>
  </g>
  <g>
    <path class="cls-13" d="M705.67,152.44h-2.48v-.64c1.81-.01,2.44-.41,2.71-1.51h.62v9.35h-.85v-7.21Z"/>
    <path class="cls-13" d="M714.46,152.44h-2.48v-.64c1.81-.01,2.44-.41,2.71-1.51h.62v9.35h-.85v-7.21Z"/>
  </g>
  <g>
    <path class="cls-13" d="M705.49,128.12h-2.48v-.64c1.81-.01,2.44-.41,2.71-1.51h.62v9.35h-.85v-7.21Z"/>
    <path class="cls-13" d="M716.54,135.33h-8.14v-.7l4.47-2.95c1.67-1.11,2.39-1.76,2.39-2.87,0-1.32-1.15-2.16-2.88-2.16s-2.99.76-3.32,2.23l-.85-.16c.44-1.77,1.99-2.83,4.16-2.83s3.75,1.13,3.75,2.9c0,1.32-.86,2.19-2.79,3.44l-3.57,2.34h6.76v.75Z"/>
  </g>
  <g>
    <path class="cls-13" d="M705.4,103.8h-2.48v-.64c1.81-.01,2.44-.41,2.71-1.51h.62v9.35h-.85v-7.21Z"/>
    <path class="cls-13" d="M708,108.45l.85-.21c.56,1.6,1.91,2.11,3.64,2.11,1.92,0,3.2-.79,3.2-2.03,0-1.07-.8-1.79-2.74-1.79h-1.82v-.76h1.78c1.6,0,2.53-.6,2.53-1.62s-1.13-1.82-2.93-1.82-2.99.64-3.43,1.99l-.83-.16c.57-1.72,2.09-2.58,4.28-2.58,2.34,0,3.77,1.11,3.77,2.57,0,.95-.62,1.63-1.72,1.97,1.35.31,1.99,1.12,1.99,2.22,0,1.61-1.6,2.77-4.08,2.77-2.33,0-3.85-.8-4.49-2.64Z"/>
  </g>
  <g>
    <path class="cls-13" d="M705.21,79.49h-2.48v-.64c1.81-.01,2.44-.41,2.71-1.51h.62v9.35h-.85v-7.21Z"/>
    <path class="cls-13" d="M714.54,84.41h-6.86v-.74l6.67-6.33h1.05v6.3h1.65v.77h-1.65v2.28h-.86v-2.28ZM714.54,83.64v-5.42l-5.73,5.42h5.73Z"/>
  </g>
  <g>
    <path class="cls-13" d="M705.29,55.17h-2.48v-.64c1.81-.01,2.44-.41,2.71-1.51h.62v9.35h-.85v-7.21Z"/>
    <path class="cls-13" d="M708.18,59.94l.86-.22c.56,1.52,1.89,1.99,3.52,1.99,2.06,0,3.38-1.03,3.38-2.38,0-1.52-1.28-2.43-3.33-2.43-1.55,0-2.58.41-3.24,1.07l-.69-.14,1.07-4.81h6.59v.75h-5.97l-.72,3.18c.81-.56,1.97-.8,3.02-.8,2.56,0,4.13,1.23,4.13,3.18,0,1.82-1.72,3.13-4.24,3.13-2.19,0-3.74-.79-4.38-2.52Z"/>
  </g>
  <g>
    <path class="cls-13" d="M705.31,31.2h-2.48v-.64c1.81-.01,2.44-.41,2.71-1.51h.62v9.35h-.85v-7.21Z"/>
    <path class="cls-13" d="M708.1,35.33c0-1.16.62-2.01,1.91-3.22l3.24-3.05h1.1l-3.84,3.52c.71-.3,1.45-.4,2.19-.4,2.42,0,4.16,1.22,4.16,3.12s-1.78,3.2-4.41,3.2-4.35-1.25-4.35-3.17ZM712.45,37.75c2.17,0,3.55-1,3.55-2.46s-1.38-2.39-3.45-2.39c-1.04,0-1.86.17-2.48.55-.69.42-1.12,1.1-1.12,1.88,0,1.43,1.42,2.42,3.5,2.42Z"/>
  </g>
  <g>
    <path class="cls-13" d="M680.08,8.3h-2.48v-.64c1.81-.01,2.44-.41,2.71-1.51h.62v9.35h-.85v-7.21Z"/>
    <path class="cls-13" d="M689.66,6.93h-7.08v-.77h8.1v.66l-5.71,8.69h-.97l5.66-8.58Z"/>
  </g>
  <g>
    <path class="cls-13" d="M646.63,7.94h-2.48v-.64c1.81-.01,2.44-.41,2.71-1.51h.62v9.35h-.85v-7.21Z"/>
    <path class="cls-13" d="M649.68,12.52c0-1.22,1.15-2.08,2.63-2.33-1.12-.26-1.98-1-1.98-2.07,0-1.4,1.45-2.41,3.86-2.41s3.87,1.01,3.87,2.41c0,1.06-.86,1.8-1.97,2.07,1.47.25,2.62,1.11,2.62,2.33,0,1.61-1.61,2.72-4.51,2.72s-4.51-1.11-4.51-2.72ZM654.19,14.49c2.39,0,3.64-.82,3.64-1.98,0-1.26-1.61-1.91-3.64-1.91s-3.64.65-3.64,1.91c0,1.16,1.25,1.98,3.64,1.98ZM654.19,9.86c1.67,0,3.02-.64,3.02-1.72,0-1.01-1.08-1.7-3.02-1.7s-3.02.69-3.02,1.7c0,1.08,1.36,1.72,3.02,1.72Z"/>
  </g>
  <g>
    <path class="cls-13" d="M360.59,94.14h-2.48v-.64c1.81-.01,2.44-.41,2.71-1.51h.62v9.35h-.85v-7.21Z"/>
    <path class="cls-13" d="M372.05,95.08c0,1.16-.62,2.01-1.91,3.22l-3.24,3.05h-1.1l3.84-3.52c-.71.3-1.45.4-2.19.4-2.42,0-4.16-1.22-4.16-3.12s1.78-3.2,4.41-3.2,4.35,1.25,4.35,3.17ZM367.6,97.51c1.03,0,1.86-.17,2.48-.55.69-.42,1.12-1.1,1.12-1.88,0-1.43-1.42-2.42-3.5-2.42s-3.55,1-3.55,2.46,1.38,2.39,3.45,2.39Z"/>
  </g>
  <g>
    <path class="cls-13" d="M366.55,148.28h-8.14v-.7l4.47-2.95c1.67-1.11,2.39-1.76,2.39-2.87,0-1.32-1.15-2.16-2.88-2.16s-2.99.76-3.32,2.23l-.85-.16c.44-1.77,1.99-2.83,4.16-2.83s3.75,1.13,3.75,2.9c0,1.32-.86,2.19-2.79,3.44l-3.57,2.34h6.76v.75Z"/>
    <path class="cls-13" d="M370,141.07h-2.48v-.64c1.81-.01,2.44-.41,2.71-1.51h.62v9.35h-.85v-7.21Z"/>
  </g>
  <g>
    <path class="cls-13" d="M364.1,124.09h-6.97v-.6l3.83-2.53c1.43-.95,2.05-1.51,2.05-2.46,0-1.13-.98-1.85-2.47-1.85s-2.56.65-2.84,1.91l-.73-.14c.37-1.52,1.71-2.42,3.57-2.42s3.21.97,3.21,2.49c0,1.13-.74,1.88-2.39,2.95l-3.05,2.01h5.79v.64Z"/>
    <path class="cls-13" d="M365.19,120.06c0-2.38,1.68-4.06,4.03-4.06s4.04,1.68,4.04,4.06-1.68,4.1-4.04,4.1-4.03-1.7-4.03-4.1ZM369.22,123.51c1.91,0,3.3-1.43,3.3-3.45s-1.39-3.41-3.3-3.41-3.29,1.42-3.29,3.41,1.38,3.45,3.29,3.45Z"/>
  </g>
  <g>
    <path class="cls-13" d="M364.77,171.38h-6.97v-.6l3.83-2.53c1.43-.95,2.05-1.51,2.05-2.46,0-1.13-.98-1.85-2.47-1.85s-2.56.65-2.84,1.91l-.73-.14c.37-1.52,1.71-2.42,3.57-2.42s3.21.97,3.21,2.49c0,1.13-.74,1.88-2.39,2.95l-3.05,2.01h5.79v.64Z"/>
    <path class="cls-13" d="M372.81,171.38h-6.97v-.6l3.83-2.53c1.43-.95,2.05-1.51,2.05-2.46,0-1.13-.98-1.85-2.47-1.85s-2.56.65-2.84,1.91l-.73-.14c.37-1.52,1.71-2.42,3.57-2.42s3.21.97,3.21,2.49c0,1.13-.74,1.88-2.39,2.95l-3.05,2.01h5.79v.64Z"/>
  </g>
  <g>
    <path class="cls-13" d="M364.7,195.02h-6.97v-.6l3.83-2.53c1.43-.95,2.05-1.51,2.05-2.46,0-1.13-.98-1.85-2.47-1.85s-2.56.65-2.84,1.91l-.73-.14c.37-1.52,1.71-2.42,3.57-2.42s3.21.97,3.21,2.49c0,1.13-.74,1.88-2.39,2.95l-3.05,2.01h5.79v.64Z"/>
    <path class="cls-13" d="M365.44,192.83l.73-.18c.48,1.37,1.63,1.81,3.12,1.81,1.64,0,2.75-.67,2.75-1.74,0-.92-.68-1.54-2.35-1.54h-1.56v-.65h1.53c1.37,0,2.17-.51,2.17-1.39s-.97-1.56-2.51-1.56-2.56.54-2.94,1.71l-.72-.14c.49-1.47,1.79-2.21,3.66-2.21,2.01,0,3.23.95,3.23,2.2,0,.81-.53,1.4-1.47,1.69,1.15.27,1.71.96,1.71,1.9,0,1.38-1.37,2.37-3.49,2.37-2,0-3.3-.68-3.85-2.26Z"/>
  </g>
  <g>
    <path class="cls-13" d="M364.63,218.31h-6.97v-.6l3.83-2.53c1.43-.95,2.05-1.51,2.05-2.46,0-1.13-.98-1.85-2.47-1.85s-2.56.65-2.84,1.91l-.73-.14c.37-1.52,1.71-2.42,3.57-2.42s3.21.97,3.21,2.49c0,1.13-.74,1.88-2.39,2.95l-3.05,2.01h5.79v.64Z"/>
    <path class="cls-13" d="M370.82,216.35h-5.88v-.63l5.71-5.43h.9v5.39h1.41v.66h-1.41v1.95h-.74v-1.95ZM370.82,215.69v-4.65l-4.91,4.65h4.91Z"/>
  </g>
  <g>
    <path class="cls-13" d="M416.58,291.79h-6.97v-.6l3.83-2.53c1.43-.95,2.05-1.51,2.05-2.46,0-1.13-.98-1.85-2.47-1.85s-2.56.65-2.84,1.91l-.73-.14c.37-1.52,1.71-2.42,3.57-2.42s3.21.97,3.21,2.49c0,1.13-.74,1.88-2.39,2.95l-3.05,2.01h5.79v.64Z"/>
    <path class="cls-13" d="M417.31,289.71l.74-.19c.48,1.3,1.62,1.71,3.01,1.71,1.76,0,2.89-.89,2.89-2.04,0-1.3-1.1-2.08-2.85-2.08-1.33,0-2.21.35-2.78.92l-.59-.12.92-4.12h5.65v.64h-5.12l-.62,2.72c.69-.48,1.69-.68,2.58-.68,2.19,0,3.54,1.06,3.54,2.72,0,1.56-1.47,2.68-3.63,2.68-1.88,0-3.2-.67-3.75-2.16Z"/>
  </g>
  <g>
    <path class="cls-13" d="M416.59,315.03h-6.97v-.6l3.83-2.53c1.43-.95,2.05-1.51,2.05-2.46,0-1.13-.98-1.85-2.47-1.85s-2.56.65-2.84,1.91l-.73-.14c.37-1.52,1.71-2.42,3.57-2.42s3.21.97,3.21,2.49c0,1.13-.74,1.88-2.39,2.95l-3.05,2.01h5.79v.64Z"/>
    <path class="cls-13" d="M417.38,312.39c0-.99.53-1.72,1.63-2.76l2.78-2.62h.94l-3.29,3.01c.61-.26,1.24-.34,1.88-.34,2.07,0,3.57,1.05,3.57,2.67s-1.53,2.75-3.78,2.75-3.73-1.07-3.73-2.71ZM421.11,314.46c1.86,0,3.04-.85,3.04-2.1s-1.19-2.05-2.96-2.05c-.89,0-1.59.15-2.13.47-.59.36-.96.94-.96,1.61,0,1.23,1.22,2.07,3,2.07Z"/>
  </g>
  <g>
    <path class="cls-13" d="M417.09,338.27h-6.97v-.6l3.83-2.53c1.43-.95,2.05-1.51,2.05-2.46,0-1.13-.98-1.85-2.47-1.85s-2.56.65-2.84,1.91l-.73-.14c.37-1.52,1.71-2.42,3.57-2.42s3.21.97,3.21,2.49c0,1.13-.74,1.88-2.39,2.95l-3.05,2.01h5.79v.64Z"/>
    <path class="cls-13" d="M423.68,330.92h-6.07v-.66h6.94v.57l-4.89,7.44h-.83l4.85-7.35Z"/>
  </g>
  <g>
    <path class="cls-13" d="M416.31,361.86h-6.97v-.6l3.83-2.53c1.43-.95,2.05-1.51,2.05-2.46,0-1.13-.98-1.85-2.47-1.85s-2.56.65-2.84,1.91l-.73-.14c.37-1.52,1.71-2.42,3.57-2.42s3.21.97,3.21,2.49c0,1.13-.74,1.88-2.39,2.95l-3.05,2.01h5.79v.64Z"/>
    <path class="cls-13" d="M417.25,359.61c0-1.05.98-1.78,2.25-2-.96-.22-1.7-.85-1.7-1.77,0-1.2,1.24-2.06,3.31-2.06s3.31.87,3.31,2.06c0,.91-.74,1.54-1.69,1.77,1.26.21,2.24.95,2.24,2,0,1.38-1.38,2.33-3.87,2.33s-3.87-.95-3.87-2.33ZM421.12,361.29c2.05,0,3.12-.71,3.12-1.7,0-1.08-1.38-1.63-3.12-1.63s-3.12.56-3.12,1.63c0,.99,1.07,1.7,3.12,1.7ZM421.12,357.33c1.43,0,2.58-.54,2.58-1.47,0-.87-.93-1.45-2.58-1.45s-2.58.59-2.58,1.45c0,.93,1.16,1.47,2.58,1.47Z"/>
  </g>
  <g>
    <path class="cls-13" d="M416.54,384.74h-6.97v-.6l3.83-2.53c1.43-.95,2.05-1.51,2.05-2.46,0-1.13-.98-1.85-2.47-1.85s-2.56.65-2.84,1.91l-.73-.14c.37-1.52,1.71-2.42,3.57-2.42s3.21.97,3.21,2.49c0,1.13-.74,1.88-2.39,2.95l-3.05,2.01h5.79v.64Z"/>
    <path class="cls-13" d="M424.91,379.37c0,.99-.53,1.72-1.63,2.76l-2.78,2.62h-.94l3.29-3.01c-.61.26-1.24.34-1.88.34-2.07,0-3.57-1.05-3.57-2.67s1.53-2.75,3.78-2.75,3.73,1.07,3.73,2.71ZM421.09,381.45c.89,0,1.59-.15,2.13-.47.59-.36.96-.94.96-1.61,0-1.23-1.22-2.07-3-2.07s-3.04.85-3.04,2.1,1.19,2.05,2.96,2.05Z"/>
  </g>
  <g>
    <path class="cls-13" d="M408.57,405.43l.73-.18c.48,1.37,1.63,1.81,3.12,1.81,1.64,0,2.75-.67,2.75-1.74,0-.92-.68-1.54-2.35-1.54h-1.56v-.65h1.53c1.37,0,2.17-.51,2.17-1.39s-.97-1.56-2.51-1.56-2.56.54-2.94,1.71l-.72-.14c.49-1.47,1.79-2.21,3.66-2.21,2.01,0,3.23.95,3.23,2.2,0,.81-.53,1.4-1.47,1.69,1.15.27,1.71.96,1.71,1.9,0,1.38-1.37,2.37-3.49,2.37-2,0-3.3-.68-3.85-2.26Z"/>
    <path class="cls-13" d="M417.47,403.6c0-2.38,1.68-4.06,4.03-4.06s4.04,1.68,4.04,4.06-1.68,4.1-4.04,4.1-4.03-1.7-4.03-4.1ZM421.49,407.05c1.91,0,3.3-1.43,3.3-3.45s-1.39-3.41-3.3-3.41-3.29,1.42-3.29,3.41,1.38,3.45,3.29,3.45Z"/>
  </g>
  <g>
    <path class="cls-13" d="M409.81,429.23l.73-.18c.48,1.37,1.63,1.8,3.12,1.8,1.64,0,2.75-.67,2.75-1.74,0-.92-.68-1.54-2.35-1.54h-1.56v-.65h1.53c1.37,0,2.17-.51,2.17-1.39s-.97-1.56-2.51-1.56-2.56.54-2.94,1.71l-.72-.14c.49-1.47,1.79-2.21,3.66-2.21,2.01,0,3.23.95,3.23,2.2,0,.81-.53,1.4-1.47,1.69,1.15.27,1.71.96,1.71,1.9,0,1.38-1.37,2.37-3.49,2.37-2,0-3.3-.68-3.84-2.26Z"/>
    <path class="cls-13" d="M421.27,425.24h-2.13v-.54c1.55-.01,2.09-.35,2.32-1.29h.53v8.01h-.73v-6.17Z"/>
  </g>
  <g>
    <path class="cls-13" d="M409.38,452.31l.73-.18c.48,1.37,1.63,1.8,3.12,1.8,1.64,0,2.75-.67,2.75-1.74,0-.92-.68-1.54-2.35-1.54h-1.56v-.65h1.53c1.37,0,2.17-.51,2.17-1.39s-.97-1.56-2.51-1.56-2.56.54-2.94,1.71l-.72-.14c.49-1.47,1.79-2.21,3.66-2.21,2.01,0,3.23.95,3.23,2.2,0,.81-.53,1.4-1.47,1.69,1.15.27,1.71.96,1.71,1.9,0,1.38-1.37,2.37-3.49,2.37-2,0-3.3-.68-3.85-2.26Z"/>
    <path class="cls-13" d="M424.81,454.5h-6.97v-.6l3.83-2.53c1.43-.95,2.05-1.51,2.05-2.46,0-1.13-.98-1.85-2.47-1.85s-2.56.65-2.84,1.91l-.73-.14c.37-1.52,1.71-2.42,3.57-2.42s3.21.97,3.21,2.49c0,1.13-.74,1.88-2.39,2.95l-3.05,2.01h5.79v.64Z"/>
  </g>
  <g>
    <path class="cls-13" d="M409.2,475.03l.73-.18c.48,1.37,1.63,1.8,3.12,1.8,1.64,0,2.75-.67,2.75-1.74,0-.92-.68-1.54-2.35-1.54h-1.56v-.65h1.53c1.37,0,2.17-.51,2.17-1.39s-.97-1.56-2.51-1.56-2.56.54-2.94,1.71l-.72-.14c.49-1.47,1.79-2.21,3.66-2.21,2.01,0,3.23.95,3.23,2.2,0,.81-.53,1.4-1.47,1.69,1.15.27,1.71.96,1.71,1.9,0,1.38-1.37,2.37-3.49,2.37-2,0-3.3-.68-3.85-2.26Z"/>
    <path class="cls-13" d="M417.64,475.03l.73-.18c.48,1.37,1.63,1.8,3.12,1.8,1.64,0,2.75-.67,2.75-1.74,0-.92-.68-1.54-2.35-1.54h-1.56v-.65h1.53c1.37,0,2.17-.51,2.17-1.39s-.97-1.56-2.51-1.56-2.56.54-2.94,1.71l-.72-.14c.49-1.47,1.79-2.21,3.66-2.21,2.01,0,3.23.95,3.23,2.2,0,.81-.53,1.4-1.47,1.69,1.15.27,1.71.96,1.71,1.9,0,1.38-1.37,2.37-3.49,2.37-2,0-3.3-.68-3.85-2.26Z"/>
  </g>
  <g>
    <path class="cls-13" d="M409.05,498.12l.73-.18c.48,1.37,1.63,1.8,3.12,1.8,1.64,0,2.75-.67,2.75-1.74,0-.92-.68-1.54-2.35-1.54h-1.56v-.65h1.53c1.37,0,2.17-.51,2.17-1.39s-.97-1.56-2.51-1.56-2.56.54-2.94,1.71l-.72-.14c.49-1.47,1.79-2.21,3.66-2.21,2.01,0,3.23.95,3.23,2.2,0,.81-.53,1.4-1.47,1.69,1.15.27,1.71.96,1.71,1.9,0,1.38-1.37,2.37-3.49,2.37-2,0-3.3-.68-3.84-2.26Z"/>
    <path class="cls-13" d="M423.17,498.35h-5.88v-.63l5.71-5.43h.9v5.39h1.41v.66h-1.41v1.96h-.74v-1.96ZM423.17,497.69v-4.65l-4.91,4.65h4.91Z"/>
  </g>
  <g>
    <path class="cls-13" d="M408.82,521.2l.73-.18c.48,1.37,1.63,1.8,3.12,1.8,1.64,0,2.75-.67,2.75-1.74,0-.92-.68-1.54-2.35-1.54h-1.56v-.65h1.53c1.37,0,2.17-.51,2.17-1.39s-.97-1.56-2.51-1.56-2.56.54-2.94,1.71l-.72-.14c.49-1.47,1.79-2.21,3.66-2.21,2.01,0,3.23.95,3.23,2.2,0,.81-.53,1.4-1.47,1.69,1.15.27,1.71.96,1.71,1.9,0,1.38-1.37,2.37-3.49,2.37-2,0-3.3-.68-3.84-2.26Z"/>
    <path class="cls-13" d="M417.34,521.3l.74-.19c.48,1.3,1.62,1.71,3.01,1.71,1.76,0,2.89-.89,2.89-2.04,0-1.3-1.1-2.08-2.85-2.08-1.33,0-2.21.35-2.78.92l-.59-.12.92-4.12h5.65v.64h-5.12l-.62,2.72c.69-.48,1.69-.68,2.58-.68,2.19,0,3.54,1.06,3.54,2.72,0,1.56-1.47,2.68-3.63,2.68-1.88,0-3.2-.67-3.75-2.16Z"/>
  </g>
  <g>
    <path class="cls-13" d="M239.39,565.87h-6.07v-.66h6.94v.57l-4.89,7.44h-.83l4.85-7.35Z"/>
    <path class="cls-13" d="M240.91,569.19c0-2.38,1.68-4.06,4.03-4.06s4.04,1.68,4.04,4.06-1.68,4.1-4.04,4.1-4.03-1.7-4.03-4.1ZM244.94,572.64c1.91,0,3.3-1.43,3.3-3.45s-1.39-3.41-3.3-3.41-3.29,1.42-3.29,3.41,1.38,3.45,3.29,3.45Z"/>
  </g>
  <g>
    <path class="cls-13" d="M239.96,629.65h-6.07v-.66h6.94v.57l-4.89,7.44h-.83l4.85-7.35Z"/>
    <path class="cls-13" d="M248.55,637h-6.98v-.6l3.83-2.53c1.43-.95,2.05-1.51,2.05-2.46,0-1.13-.98-1.85-2.47-1.85s-2.56.65-2.84,1.91l-.73-.14c.37-1.52,1.71-2.42,3.57-2.42s3.22.97,3.22,2.49c0,1.13-.74,1.88-2.39,2.95l-3.05,2.01h5.79v.64Z"/>
  </g>
  <g>
    <path class="cls-13" d="M239.91,722.63h-6.07v-.66h6.94v.57l-4.89,7.44h-.83l4.85-7.35Z"/>
    <path class="cls-13" d="M241.16,727.79l.73-.18c.48,1.37,1.63,1.8,3.12,1.8,1.65,0,2.75-.67,2.75-1.74,0-.92-.68-1.54-2.35-1.54h-1.56v-.65h1.53c1.37,0,2.17-.51,2.17-1.39s-.97-1.56-2.51-1.56-2.56.54-2.94,1.71l-.72-.14c.49-1.47,1.79-2.21,3.66-2.21,2.01,0,3.23.95,3.23,2.2,0,.81-.53,1.4-1.47,1.69,1.15.27,1.71.96,1.71,1.9,0,1.38-1.37,2.37-3.49,2.37-2,0-3.3-.68-3.85-2.26Z"/>
  </g>
  <g>
    <path class="cls-13" d="M396.02,722.63h-6.07v-.66h6.94v.57l-4.89,7.44h-.83l4.85-7.35Z"/>
    <path class="cls-13" d="M397.31,727.9l.74-.19c.48,1.3,1.62,1.71,3.01,1.71,1.76,0,2.89-.89,2.89-2.04,0-1.3-1.1-2.08-2.85-2.08-1.33,0-2.21.35-2.78.92l-.59-.12.92-4.12h5.65v.64h-5.12l-.62,2.72c.69-.48,1.69-.68,2.58-.68,2.19,0,3.54,1.06,3.54,2.72,0,1.56-1.47,2.68-3.63,2.68-1.88,0-3.2-.67-3.75-2.16Z"/>
  </g>
  <g>
    <path class="cls-13" d="M675.6,563.15h1.71l1.96,6.36,3.06-4.73h.36l3.11,4.68,1.89-6.3h1.69l-2.48,8.01h-1.76l-2.65-4-2.6,4h-1.77l-2.52-8.01Z"/>
    <path class="cls-13" d="M692.14,565.8h-2.38v-1.12c1.57-.03,2.34-.45,2.67-1.53h1.3v8.01h-1.59v-5.36Z"/>
  </g>
  <g>
    <path class="cls-13" d="M661.29,264.99h1.71l1.96,6.35,3.06-4.73h.36l3.11,4.68,1.89-6.3h1.69l-2.48,8.01h-1.76l-2.65-3.99-2.6,3.99h-1.77l-2.52-8.01Z"/>
    <path class="cls-13" d="M683.62,273h-7.83v-1.17l4.02-2.21c1.43-.79,1.91-1.23,1.91-1.96,0-.84-.76-1.44-2.08-1.44s-2.23.49-2.54,1.55l-1.61-.33c.49-1.69,2.03-2.56,4.15-2.56,2.29,0,3.73,1.14,3.73,2.75,0,1.36-1.12,2.15-2.68,2.97l-2.1,1.12h5.04v1.29Z"/>
  </g>
  <g>
    <path class="cls-13" d="M673.48,195.61h1.71l1.96,6.35,3.06-4.73h.36l3.11,4.68,1.89-6.3h1.69l-2.48,8.01h-1.76l-2.65-3.99-2.6,3.99h-1.77l-2.52-8.01Z"/>
    <path class="cls-13" d="M687.51,201.53l1.59-.42c.34.92,1.25,1.31,2.67,1.31,1.66,0,2.34-.51,2.34-1.21,0-.63-.5-1.03-1.7-1.03h-1.83v-1.31h1.7c1.08,0,1.69-.36,1.69-.96,0-.63-.71-1.11-2.14-1.11s-2.26.45-2.57,1.31l-1.57-.35c.52-1.47,2.08-2.27,4.16-2.27,2.34,0,3.73,1,3.73,2.33,0,.72-.47,1.32-1.33,1.66,1.1.29,1.55.99,1.55,1.78,0,1.51-1.6,2.48-4.02,2.48-2.21,0-3.82-.72-4.26-2.21Z"/>
  </g>
  <g>
    <path class="cls-13" d="M493.81,76.62h1.71l1.96,6.35,3.06-4.73h.36l3.11,4.68,1.89-6.3h1.69l-2.48,8.01h-1.76l-2.65-3.99-2.6,3.99h-1.77l-2.52-8.01Z"/>
    <path class="cls-13" d="M507.72,81.98c0-.87.4-1.51,1.42-2.48l3.03-2.88h2.05l-3.07,2.8c.34-.07.69-.12,1.06-.12,2.47,0,3.87,1.04,3.87,2.67s-1.59,2.78-4.2,2.78-4.17-1.09-4.17-2.77ZM511.89,83.45c1.6,0,2.56-.58,2.56-1.48s-.95-1.45-2.52-1.45c-.74,0-1.33.11-1.76.32-.52.25-.82.64-.82,1.14,0,.91.97,1.47,2.54,1.47Z"/>
  </g>
  <g>
    <path class="cls-13" d="M585.43,30.4h1.71l1.96,6.35,3.06-4.73h.36l3.11,4.68,1.89-6.3h1.69l-2.48,8.01h-1.76l-2.65-3.99-2.6,3.99h-1.77l-2.52-8.01Z"/>
    <path class="cls-13" d="M604.83,36.72h-5.76v-1.17l5.4-5.15h1.91v4.99h1.55v1.34h-1.55v1.69h-1.56v-1.69ZM604.83,35.38v-3.47l-3.7,3.47h3.7Z"/>
  </g>
  <g>
    <path class="cls-13" d="M516.27,30.4h1.71l1.96,6.35,3.06-4.73h.36l3.11,4.68,1.89-6.3h1.69l-2.48,8.01h-1.76l-2.65-3.99-2.6,3.99h-1.77l-2.52-8.01Z"/>
    <path class="cls-13" d="M530.53,36.43l1.62-.49c.41.97,1.36,1.27,2.55,1.27,1.48,0,2.36-.59,2.36-1.46s-.85-1.46-2.35-1.46c-1.2,0-1.94.27-2.47.76l-1.38-.38,1-4.26h6.4v1.33h-5.23l-.46,1.82c.67-.38,1.53-.54,2.45-.54,2.32,0,3.68,1.12,3.68,2.73s-1.42,2.79-4,2.79c-2.04,0-3.54-.61-4.18-2.09Z"/>
  </g>
  <g>
    <path class="cls-13" d="M387.79,258.01h1.71l1.96,6.35,3.06-4.73h.36l3.11,4.68,1.89-6.3h1.69l-2.48,8.01h-1.76l-2.65-3.99-2.6,3.99h-1.77l-2.52-8.01Z"/>
    <path class="cls-13" d="M402.21,263.7c0-.93.69-1.62,1.89-1.93-.82-.31-1.36-.9-1.36-1.7,0-1.25,1.33-2.18,3.74-2.18s3.73.93,3.73,2.18c0,.79-.52,1.38-1.32,1.7,1.19.31,1.86,1,1.86,1.93,0,1.45-1.42,2.44-4.26,2.44s-4.27-.98-4.27-2.44ZM406.48,264.83c1.75,0,2.61-.47,2.61-1.2,0-.77-.96-1.19-2.61-1.19s-2.59.42-2.59,1.19c0,.73.84,1.2,2.59,1.2ZM406.48,261.22c1.35,0,2.15-.4,2.15-1.06s-.73-1.06-2.15-1.06-2.16.42-2.16,1.06.81,1.06,2.16,1.06Z"/>
  </g>
  <g>
    <path class="cls-13" d="M526.65,112.08h1.71l1.96,6.35,3.06-4.73h.36l3.11,4.68,1.89-6.3h1.69l-2.48,8.01h-1.76l-2.65-3.99-2.6,3.99h-1.77l-2.52-8.01Z"/>
    <path class="cls-13" d="M546.61,113.48h-5.77v-1.4h7.6v1.26l-4.55,6.75h-1.82l4.53-6.61Z"/>
  </g>
  <g>
    <path class="cls-13" d="M380.78,545.26h1.71l1.96,6.36,3.06-4.73h.36l3.11,4.68,1.89-6.3h1.69l-2.48,8.01h-1.76l-2.65-4-2.6,4h-1.77l-2.52-8.01Z"/>
    <path class="cls-13" d="M403.39,547.91c0,.87-.39,1.51-1.42,2.48l-3.03,2.88h-2.05l3.07-2.8c-.34.08-.69.12-1.06.12-2.47,0-3.87-1.04-3.87-2.67s1.59-2.78,4.2-2.78,4.17,1.09,4.17,2.77ZM399.18,549.37c.74,0,1.33-.11,1.76-.32.52-.25.82-.64.82-1.14,0-.91-.97-1.47-2.54-1.47s-2.56.58-2.56,1.48.95,1.45,2.52,1.45Z"/>
  </g>
  <g>
    <path class="cls-13" d="M396.25,764.5h-6.07v-.66h6.94v.57l-4.89,7.44h-.83l4.85-7.35Z"/>
    <path class="cls-13" d="M397.18,769.21c0-.99.53-1.72,1.63-2.75l2.78-2.62h.94l-3.29,3.01c.61-.26,1.24-.34,1.88-.34,2.07,0,3.57,1.05,3.57,2.67s-1.53,2.75-3.78,2.75-3.73-1.07-3.73-2.71ZM400.91,771.28c1.86,0,3.04-.85,3.04-2.1s-1.19-2.05-2.96-2.05c-.89,0-1.59.15-2.13.47-.59.36-.96.94-.96,1.61,0,1.23,1.22,2.07,3,2.07Z"/>
  </g>
  <g>
    <path class="cls-13" d="M240.14,764.5h-6.07v-.66h6.94v.57l-4.89,7.44h-.83l4.85-7.35Z"/>
    <path class="cls-13" d="M246.51,769.89h-5.87v-.63l5.71-5.43h.9v5.39h1.41v.66h-1.41v1.96h-.74v-1.96ZM246.51,769.23v-4.65l-4.91,4.65h4.91Z"/>
  </g>
  <g>
    <path class="cls-13" d="M241.16,597.76h-6.07v-.66h6.94v.57l-4.89,7.44h-.83l4.85-7.35Z"/>
    <path class="cls-13" d="M245.62,598.93h-2.13v-.54c1.55-.01,2.09-.35,2.32-1.29h.53v8.01h-.73v-6.17Z"/>
  </g>
  <g>
    <path class="cls-13" d="M572.87,520.87l.87-.22c.58,1.64,1.96,2.17,3.74,2.17,1.97,0,3.29-.81,3.29-2.09,0-1.1-.82-1.85-2.82-1.85h-1.87v-.78h1.83c1.64,0,2.6-.62,2.6-1.67s-1.17-1.87-3.01-1.87-3.08.65-3.52,2.05l-.86-.17c.59-1.77,2.15-2.65,4.4-2.65,2.41,0,3.87,1.14,3.87,2.64,0,.97-.64,1.68-1.77,2.03,1.38.32,2.05,1.15,2.05,2.28,0,1.65-1.64,2.85-4.19,2.85-2.4,0-3.96-.82-4.61-2.72Z"/>
    <path class="cls-13" d="M583.06,520.33c0-1.19.64-2.06,1.96-3.31l3.33-3.14h1.13l-3.95,3.62c.73-.31,1.49-.41,2.26-.41,2.49,0,4.28,1.26,4.28,3.2s-1.83,3.29-4.54,3.29-4.47-1.28-4.47-3.26ZM587.54,522.81c2.23,0,3.65-1.03,3.65-2.52s-1.42-2.46-3.55-2.46c-1.06,0-1.91.18-2.55.56-.7.44-1.15,1.13-1.15,1.94,0,1.47,1.46,2.49,3.6,2.49Z"/>
  </g>
  <g>
    <path class="cls-13" d="M573.55,497.75l.87-.22c.58,1.64,1.96,2.17,3.74,2.17,1.97,0,3.29-.81,3.29-2.09,0-1.1-.82-1.85-2.82-1.85h-1.87v-.78h1.83c1.64,0,2.6-.62,2.6-1.67s-1.17-1.87-3.01-1.87-3.08.65-3.52,2.05l-.86-.17c.59-1.77,2.15-2.65,4.4-2.65,2.41,0,3.87,1.14,3.87,2.64,0,.97-.64,1.68-1.77,2.03,1.38.32,2.05,1.15,2.05,2.28,0,1.65-1.64,2.85-4.19,2.85-2.4,0-3.96-.82-4.61-2.72Z"/>
    <path class="cls-13" d="M590.41,491.56h-7.28v-.79h8.33v.68l-5.87,8.93h-1l5.82-8.82Z"/>
  </g>
  <g>
    <path class="cls-13" d="M572.45,474.63l.87-.22c.58,1.64,1.96,2.17,3.74,2.17,1.97,0,3.29-.81,3.29-2.09,0-1.1-.82-1.85-2.82-1.85h-1.87v-.78h1.83c1.64,0,2.6-.62,2.6-1.67s-1.17-1.87-3.01-1.87-3.08.65-3.52,2.05l-.86-.17c.59-1.77,2.15-2.65,4.4-2.65,2.41,0,3.87,1.14,3.87,2.64,0,.97-.64,1.68-1.77,2.03,1.38.32,2.05,1.15,2.05,2.28,0,1.65-1.64,2.85-4.19,2.85-2.4,0-3.96-.82-4.61-2.72Z"/>
    <path class="cls-13" d="M583.09,474.56c0-1.26,1.18-2.14,2.71-2.4-1.15-.27-2.04-1.03-2.04-2.13,0-1.44,1.49-2.47,3.97-2.47s3.97,1.04,3.97,2.47c0,1.09-.88,1.85-2.03,2.13,1.51.26,2.69,1.14,2.69,2.4,0,1.65-1.65,2.79-4.64,2.79s-4.64-1.14-4.64-2.79ZM587.73,476.58c2.46,0,3.74-.85,3.74-2.04,0-1.29-1.65-1.96-3.74-1.96s-3.74.67-3.74,1.96c0,1.19,1.28,2.04,3.74,2.04ZM587.73,471.83c1.72,0,3.1-.65,3.1-1.77,0-1.04-1.12-1.74-3.1-1.74s-3.1.71-3.1,1.74c0,1.12,1.4,1.77,3.1,1.77Z"/>
  </g>
  <g>
    <path class="cls-13" d="M573.23,450.81l.87-.22c.58,1.64,1.96,2.17,3.74,2.17,1.97,0,3.29-.81,3.29-2.09,0-1.1-.82-1.85-2.82-1.85h-1.87v-.78h1.83c1.64,0,2.6-.62,2.6-1.67s-1.17-1.87-3.01-1.87-3.08.65-3.52,2.05l-.86-.17c.59-1.77,2.15-2.65,4.4-2.65,2.41,0,3.87,1.14,3.87,2.64,0,.97-.64,1.68-1.77,2.03,1.38.32,2.05,1.15,2.05,2.28,0,1.65-1.64,2.85-4.19,2.85-2.4,0-3.96-.82-4.61-2.72Z"/>
    <path class="cls-13" d="M592.21,446.99c0,1.19-.64,2.06-1.96,3.31l-3.33,3.14h-1.13l3.95-3.61c-.73.31-1.49.41-2.26.41-2.49,0-4.28-1.26-4.28-3.2s1.83-3.29,4.54-3.29,4.47,1.28,4.47,3.26ZM587.64,449.49c1.06,0,1.91-.18,2.55-.56.71-.44,1.15-1.13,1.15-1.94,0-1.47-1.46-2.49-3.6-2.49s-3.65,1.03-3.65,2.53,1.42,2.46,3.55,2.46Z"/>
  </g>
  <g>
    <path class="cls-13" d="M579.12,427.62h-7.05v-.76l6.86-6.51h1.08v6.47h1.69v.79h-1.69v2.35h-.88v-2.35ZM579.12,426.82v-5.58l-5.9,5.58h5.9Z"/>
    <path class="cls-13" d="M582.76,425.13c0-2.86,2.01-4.87,4.83-4.87s4.85,2.01,4.85,4.87-2.01,4.92-4.85,4.92-4.83-2.04-4.83-4.92ZM587.6,429.27c2.29,0,3.96-1.72,3.96-4.14s-1.67-4.09-3.96-4.09-3.95,1.71-3.95,4.09,1.65,4.14,3.95,4.14Z"/>
  </g>
  <g>
    <path class="cls-13" d="M580.56,404.5h-7.05v-.76l6.86-6.51h1.08v6.47h1.69v.79h-1.69v2.35h-.88v-2.35ZM580.56,403.71v-5.58l-5.9,5.58h5.9Z"/>
    <path class="cls-13" d="M587.89,399.44h-2.55v-.65c1.86-.01,2.51-.42,2.78-1.55h.64v9.61h-.87v-7.41Z"/>
  </g>
  <g>
    <path class="cls-13" d="M579.65,380.67h-7.05v-.76l6.86-6.51h1.08v6.47h1.69v.79h-1.69v2.35h-.88v-2.35ZM579.65,379.88v-5.58l-5.9,5.58h5.9Z"/>
    <path class="cls-13" d="M591.28,383.02h-8.37v-.72l4.6-3.04c1.72-1.14,2.46-1.81,2.46-2.95,0-1.36-1.18-2.22-2.96-2.22s-3.08.78-3.41,2.29l-.87-.17c.45-1.82,2.05-2.91,4.28-2.91s3.86,1.17,3.86,2.99c0,1.36-.88,2.26-2.87,3.54l-3.67,2.41h6.95v.77Z"/>
  </g>
  <g>
    <path class="cls-13" d="M579.44,357.91h-7.05v-.76l6.86-6.51h1.08v6.47h1.69v.79h-1.69v2.35h-.88v-2.35ZM579.44,357.12v-5.58l-5.9,5.58h5.9Z"/>
    <path class="cls-13" d="M582.72,357.63l.87-.22c.58,1.64,1.96,2.17,3.74,2.17,1.97,0,3.29-.81,3.29-2.09,0-1.1-.82-1.85-2.82-1.85h-1.87v-.78h1.83c1.64,0,2.6-.62,2.6-1.67s-1.17-1.87-3.01-1.87-3.08.65-3.52,2.05l-.86-.17c.59-1.77,2.15-2.65,4.4-2.65,2.41,0,3.87,1.14,3.87,2.64,0,.97-.64,1.68-1.77,2.03,1.38.32,2.05,1.15,2.05,2.28,0,1.65-1.64,2.85-4.19,2.85-2.4,0-3.96-.82-4.61-2.72Z"/>
  </g>
  <g>
    <path class="cls-13" d="M579.1,334.09h-7.05v-.76l6.86-6.51h1.08v6.47h1.69v.79h-1.69v2.35h-.88v-2.35ZM579.1,333.29v-5.58l-5.9,5.58h5.9Z"/>
    <path class="cls-13" d="M589.5,334.09h-7.05v-.76l6.86-6.51h1.08v6.47h1.69v.79h-1.69v2.35h-.88v-2.35ZM589.5,333.29v-5.58l-5.9,5.58h5.9Z"/>
  </g>
  <g>
    <path class="cls-13" d="M579.46,310.61h-7.05v-.76l6.86-6.51h1.08v6.47h1.69v.79h-1.69v2.35h-.88v-2.35ZM579.46,309.82v-5.58l-5.9,5.58h5.9Z"/>
    <path class="cls-13" d="M582.74,310.46l.88-.23c.58,1.56,1.95,2.05,3.61,2.05,2.12,0,3.47-1.06,3.47-2.45,0-1.56-1.32-2.5-3.42-2.5-1.59,0-2.65.42-3.33,1.1l-.71-.14,1.1-4.95h6.78v.77h-6.14l-.74,3.27c.83-.58,2.03-.82,3.1-.82,2.63,0,4.24,1.27,4.24,3.27,0,1.87-1.77,3.22-4.36,3.22-2.26,0-3.84-.81-4.5-2.59Z"/>
  </g>
  <g>
    <path class="cls-13" d="M579.28,287.14h-7.05v-.76l6.86-6.51h1.08v6.47h1.69v.79h-1.69v2.35h-.88v-2.35ZM579.28,286.35v-5.58l-5.9,5.58h5.9Z"/>
    <path class="cls-13" d="M582.92,286.32c0-1.19.64-2.06,1.96-3.31l3.33-3.14h1.13l-3.95,3.61c.73-.31,1.49-.41,2.26-.41,2.49,0,4.28,1.26,4.28,3.2s-1.83,3.29-4.54,3.29-4.47-1.28-4.47-3.26ZM587.39,288.81c2.23,0,3.65-1.03,3.65-2.53s-1.42-2.46-3.55-2.46c-1.06,0-1.91.18-2.55.56-.71.44-1.15,1.13-1.15,1.94,0,1.47,1.46,2.49,3.6,2.49Z"/>
  </g>
  <g>
    <path class="cls-13" d="M580.22,263.67h-7.05v-.76l6.86-6.51h1.08v6.47h1.69v.79h-1.69v2.35h-.88v-2.35ZM580.22,262.88v-5.58l-5.9,5.58h5.9Z"/>
    <path class="cls-13" d="M590.21,257.2h-7.28v-.79h8.33v.68l-5.87,8.93h-1l5.82-8.82Z"/>
  </g>
  <g>
    <path class="cls-13" d="M579.08,240.32h-7.05v-.76l6.86-6.51h1.08v6.47h1.69v.79h-1.69v2.35h-.88v-2.35ZM579.08,239.52v-5.58l-5.9,5.58h5.9Z"/>
    <path class="cls-13" d="M582.73,239.96c0-1.26,1.18-2.14,2.71-2.4-1.15-.27-2.04-1.03-2.04-2.13,0-1.44,1.49-2.47,3.97-2.47s3.97,1.04,3.97,2.47c0,1.09-.88,1.85-2.03,2.13,1.51.26,2.69,1.14,2.69,2.4,0,1.65-1.65,2.79-4.64,2.79s-4.64-1.14-4.64-2.79ZM587.37,241.98c2.46,0,3.74-.85,3.74-2.04,0-1.29-1.65-1.96-3.74-1.96s-3.74.67-3.74,1.96c0,1.19,1.28,2.04,3.74,2.04ZM587.37,237.23c1.72,0,3.1-.65,3.1-1.77,0-1.04-1.12-1.74-3.1-1.74s-3.1.7-3.1,1.74c0,1.11,1.4,1.77,3.1,1.77Z"/>
  </g>
  <g>
    <path class="cls-13" d="M579.54,216.73h-7.05v-.76l6.86-6.51h1.08v6.47h1.69v.79h-1.69v2.35h-.88v-2.35ZM579.54,215.93v-5.58l-5.9,5.58h5.9Z"/>
    <path class="cls-13" d="M591.65,212.63c0,1.19-.64,2.06-1.96,3.31l-3.33,3.14h-1.13l3.95-3.61c-.73.31-1.49.41-2.26.41-2.49,0-4.28-1.26-4.28-3.2s1.83-3.29,4.54-3.29,4.47,1.28,4.47,3.26ZM587.08,215.13c1.06,0,1.91-.18,2.55-.56.71-.44,1.15-1.13,1.15-1.94,0-1.47-1.46-2.49-3.6-2.49s-3.65,1.03-3.65,2.52,1.42,2.46,3.55,2.46Z"/>
  </g>
  <g>
    <path class="cls-13" d="M572.04,193.1l.88-.23c.58,1.56,1.95,2.05,3.61,2.05,2.12,0,3.47-1.06,3.47-2.45,0-1.56-1.32-2.5-3.42-2.5-1.59,0-2.65.42-3.33,1.1l-.71-.14,1.1-4.95h6.78v.77h-6.14l-.74,3.27c.83-.58,2.03-.82,3.1-.82,2.63,0,4.24,1.27,4.24,3.27,0,1.87-1.77,3.22-4.36,3.22-2.26,0-3.84-.81-4.5-2.59Z"/>
    <path class="cls-13" d="M582.22,190.77c0-2.86,2.01-4.87,4.83-4.87s4.84,2.01,4.84,4.87-2.01,4.92-4.84,4.92-4.83-2.04-4.83-4.92ZM587.05,194.91c2.29,0,3.96-1.72,3.96-4.14s-1.67-4.09-3.96-4.09-3.95,1.7-3.95,4.09,1.65,4.14,3.95,4.14Z"/>
  </g>
  <g>
    <path class="cls-13" d="M573.99,169.63l.88-.23c.58,1.56,1.95,2.05,3.61,2.05,2.12,0,3.47-1.06,3.47-2.45,0-1.56-1.32-2.5-3.42-2.5-1.59,0-2.65.42-3.33,1.1l-.71-.14,1.1-4.95h6.78v.77h-6.14l-.74,3.27c.83-.58,2.03-.82,3.1-.82,2.63,0,4.24,1.27,4.24,3.27,0,1.87-1.77,3.22-4.36,3.22-2.26,0-3.84-.81-4.5-2.59Z"/>
    <path class="cls-13" d="M588.12,164.72h-2.55v-.65c1.86-.01,2.51-.42,2.78-1.55h.64v9.61h-.87v-7.41Z"/>
  </g>
  <g>
    <path class="cls-13" d="M572.93,146.16l.88-.23c.58,1.56,1.95,2.05,3.61,2.05,2.12,0,3.47-1.06,3.47-2.45,0-1.56-1.32-2.5-3.42-2.5-1.59,0-2.65.42-3.33,1.1l-.71-.14,1.1-4.95h6.78v.77h-6.14l-.74,3.27c.83-.58,2.03-.82,3.1-.82,2.63,0,4.24,1.27,4.24,3.27,0,1.87-1.77,3.22-4.36,3.22-2.26,0-3.84-.81-4.5-2.59Z"/>
    <path class="cls-13" d="M591.11,148.66h-8.37v-.72l4.6-3.04c1.72-1.14,2.46-1.81,2.46-2.95,0-1.36-1.18-2.22-2.96-2.22s-3.08.78-3.41,2.29l-.87-.17c.45-1.82,2.05-2.91,4.28-2.91s3.86,1.17,3.86,2.99c0,1.36-.88,2.26-2.87,3.54l-3.67,2.41h6.95v.77Z"/>
  </g>
  <g>
    <path class="cls-13" d="M535.94,146.16l.88-.23c.58,1.56,1.95,2.05,3.61,2.05,2.12,0,3.47-1.06,3.47-2.45,0-1.56-1.32-2.5-3.42-2.5-1.59,0-2.65.42-3.33,1.1l-.71-.14,1.1-4.95h6.78v.77h-6.14l-.74,3.27c.83-.58,2.03-.82,3.1-.82,2.63,0,4.24,1.27,4.24,3.27,0,1.87-1.77,3.22-4.36,3.22-2.26,0-3.84-.81-4.5-2.59Z"/>
    <path class="cls-13" d="M545.75,146.03l.87-.22c.58,1.64,1.96,2.17,3.74,2.17,1.97,0,3.29-.81,3.29-2.09,0-1.1-.82-1.85-2.82-1.85h-1.87v-.78h1.83c1.64,0,2.6-.62,2.6-1.67s-1.17-1.87-3.01-1.87-3.08.65-3.52,2.05l-.86-.17c.59-1.77,2.15-2.65,4.4-2.65,2.41,0,3.87,1.14,3.87,2.64,0,.97-.64,1.68-1.77,2.03,1.38.32,2.05,1.15,2.05,2.28,0,1.65-1.64,2.85-4.19,2.85-2.4,0-3.96-.82-4.61-2.72Z"/>
  </g>
  <g>
    <path class="cls-13" d="M535.66,169.63l.88-.23c.58,1.56,1.95,2.05,3.61,2.05,2.12,0,3.47-1.06,3.47-2.45,0-1.56-1.32-2.5-3.42-2.5-1.59,0-2.65.42-3.33,1.1l-.71-.14,1.1-4.95h6.78v.77h-6.14l-.74,3.27c.83-.58,2.03-.82,3.1-.82,2.63,0,4.24,1.27,4.24,3.27,0,1.87-1.77,3.22-4.36,3.22-2.26,0-3.84-.81-4.5-2.59Z"/>
    <path class="cls-13" d="M552.58,169.79h-7.05v-.76l6.86-6.51h1.08v6.47h1.69v.79h-1.69v2.35h-.88v-2.35ZM552.58,168.99v-5.58l-5.9,5.58h5.9Z"/>
  </g>
  <g>
    <path class="cls-13" d="M535.85,193.1l.88-.23c.58,1.56,1.95,2.05,3.61,2.05,2.12,0,3.47-1.06,3.47-2.45,0-1.56-1.32-2.5-3.42-2.5-1.59,0-2.65.42-3.33,1.1l-.71-.14,1.1-4.95h6.78v.77h-6.14l-.74,3.27c.83-.58,2.03-.82,3.1-.82,2.63,0,4.24,1.27,4.24,3.27,0,1.87-1.77,3.22-4.36,3.22-2.26,0-3.84-.81-4.5-2.59Z"/>
    <path class="cls-13" d="M546,193.1l.88-.23c.58,1.56,1.95,2.05,3.61,2.05,2.12,0,3.47-1.06,3.47-2.45,0-1.56-1.32-2.5-3.42-2.5-1.59,0-2.65.42-3.33,1.1l-.71-.14,1.1-4.95h6.78v.77h-6.14l-.74,3.27c.83-.58,2.03-.82,3.1-.82,2.63,0,4.24,1.27,4.24,3.27,0,1.87-1.77,3.22-4.36,3.22-2.26,0-3.84-.81-4.5-2.59Z"/>
  </g>
  <g>
    <path class="cls-13" d="M535.85,216.57l.88-.23c.58,1.56,1.95,2.05,3.61,2.05,2.12,0,3.47-1.06,3.47-2.45,0-1.56-1.32-2.5-3.42-2.5-1.59,0-2.65.42-3.33,1.1l-.71-.14,1.1-4.95h6.78v.77h-6.14l-.74,3.27c.83-.58,2.03-.82,3.1-.82,2.63,0,4.24,1.27,4.24,3.27,0,1.87-1.77,3.22-4.36,3.22-2.26,0-3.84-.81-4.5-2.59Z"/>
    <path class="cls-13" d="M545.78,215.91c0-1.19.64-2.06,1.96-3.31l3.33-3.14h1.13l-3.95,3.61c.73-.31,1.49-.41,2.26-.41,2.49,0,4.28,1.26,4.28,3.2s-1.83,3.29-4.54,3.29-4.47-1.28-4.47-3.26ZM550.25,218.39c2.23,0,3.65-1.03,3.65-2.52s-1.42-2.46-3.55-2.46c-1.06,0-1.91.18-2.55.56-.7.44-1.15,1.13-1.15,1.94,0,1.47,1.46,2.49,3.6,2.49Z"/>
  </g>
  <g>
    <path class="cls-13" d="M536.45,240.05l.88-.23c.58,1.56,1.95,2.05,3.61,2.05,2.12,0,3.47-1.06,3.47-2.45,0-1.56-1.32-2.5-3.42-2.5-1.59,0-2.65.42-3.33,1.1l-.71-.14,1.1-4.95h6.78v.77h-6.14l-.74,3.27c.83-.58,2.03-.82,3.1-.82,2.63,0,4.24,1.27,4.24,3.27,0,1.87-1.77,3.22-4.36,3.22-2.26,0-3.84-.81-4.5-2.59Z"/>
    <path class="cls-13" d="M553.33,233.73h-7.28v-.79h8.33v.68l-5.87,8.93h-1l5.82-8.82Z"/>
  </g>
  <g>
    <path class="cls-13" d="M535.5,263.52l.88-.23c.58,1.56,1.95,2.05,3.61,2.05,2.12,0,3.47-1.06,3.47-2.45,0-1.56-1.32-2.5-3.42-2.5-1.59,0-2.65.42-3.33,1.1l-.71-.14,1.1-4.95h6.78v.77h-6.14l-.74,3.27c.83-.58,2.03-.82,3.1-.82,2.63,0,4.24,1.27,4.24,3.27,0,1.87-1.77,3.22-4.36,3.22-2.26,0-3.84-.81-4.5-2.59Z"/>
    <path class="cls-13" d="M545.76,263.31c0-1.26,1.18-2.14,2.71-2.4-1.15-.27-2.04-1.03-2.04-2.13,0-1.44,1.49-2.47,3.97-2.47s3.97,1.04,3.97,2.47c0,1.09-.88,1.85-2.02,2.13,1.51.26,2.69,1.14,2.69,2.4,0,1.65-1.65,2.79-4.64,2.79s-4.64-1.14-4.64-2.79ZM550.4,265.34c2.46,0,3.74-.85,3.74-2.04,0-1.29-1.65-1.96-3.74-1.96s-3.74.67-3.74,1.96c0,1.19,1.28,2.04,3.74,2.04ZM550.4,260.58c1.72,0,3.1-.65,3.1-1.77,0-1.04-1.12-1.74-3.1-1.74s-3.1.7-3.1,1.74c0,1.11,1.4,1.77,3.1,1.77Z"/>
  </g>
  <g>
    <path class="cls-13" d="M535.89,286.99l.88-.23c.58,1.56,1.95,2.05,3.61,2.05,2.12,0,3.47-1.06,3.47-2.45,0-1.56-1.32-2.5-3.42-2.5-1.59,0-2.65.42-3.33,1.1l-.71-.14,1.1-4.95h6.78v.77h-6.14l-.74,3.27c.83-.58,2.03-.82,3.1-.82,2.63,0,4.24,1.27,4.24,3.27,0,1.87-1.77,3.22-4.36,3.22-2.26,0-3.84-.81-4.5-2.59Z"/>
    <path class="cls-13" d="M554.63,283.04c0,1.19-.64,2.06-1.96,3.31l-3.33,3.14h-1.13l3.95-3.61c-.73.31-1.49.41-2.26.41-2.49,0-4.28-1.26-4.28-3.2s1.83-3.29,4.54-3.29,4.47,1.28,4.47,3.26ZM550.05,285.54c1.06,0,1.91-.18,2.55-.56.71-.44,1.15-1.13,1.15-1.94,0-1.47-1.46-2.49-3.6-2.49s-3.65,1.03-3.65,2.52,1.42,2.46,3.55,2.46Z"/>
  </g>
  <g>
    <path class="cls-13" d="M535.27,309.79c0-1.19.64-2.06,1.96-3.31l3.33-3.14h1.13l-3.95,3.61c.73-.31,1.49-.41,2.26-.41,2.49,0,4.28,1.26,4.28,3.2s-1.83,3.29-4.54,3.29-4.47-1.28-4.47-3.26ZM539.75,312.28c2.23,0,3.65-1.03,3.65-2.53s-1.42-2.46-3.55-2.46c-1.06,0-1.91.18-2.55.56-.7.44-1.15,1.13-1.15,1.94,0,1.47,1.46,2.49,3.6,2.49Z"/>
    <path class="cls-13" d="M545.58,308.13c0-2.86,2.01-4.87,4.83-4.87s4.84,2.01,4.84,4.87-2.01,4.92-4.84,4.92-4.83-2.04-4.83-4.92ZM550.41,312.27c2.29,0,3.96-1.72,3.96-4.14s-1.67-4.09-3.96-4.09-3.95,1.7-3.95,4.09,1.65,4.14,3.95,4.14Z"/>
  </g>
  <g>
    <path class="cls-13" d="M537.38,333.62c0-1.19.64-2.06,1.96-3.31l3.33-3.14h1.13l-3.95,3.61c.73-.31,1.49-.41,2.26-.41,2.49,0,4.28,1.26,4.28,3.2s-1.83,3.29-4.54,3.29-4.47-1.28-4.47-3.26ZM541.86,336.11c2.23,0,3.65-1.03,3.65-2.52s-1.42-2.46-3.55-2.46c-1.06,0-1.91.18-2.55.56-.7.44-1.15,1.13-1.15,1.94,0,1.47,1.46,2.49,3.6,2.49Z"/>
    <path class="cls-13" d="M551.15,329.38h-2.55v-.65c1.86-.01,2.51-.42,2.78-1.55h.64v9.61h-.87v-7.41Z"/>
  </g>
  <g>
    <path class="cls-13" d="M535.84,356.38c0-1.19.64-2.06,1.96-3.31l3.33-3.14h1.13l-3.95,3.61c.73-.31,1.49-.41,2.26-.41,2.49,0,4.28,1.26,4.28,3.2s-1.83,3.29-4.54,3.29-4.47-1.28-4.47-3.26ZM540.31,358.87c2.23,0,3.65-1.03,3.65-2.53s-1.42-2.46-3.55-2.46c-1.06,0-1.91.18-2.55.56-.7.44-1.15,1.13-1.15,1.94,0,1.47,1.46,2.49,3.6,2.49Z"/>
    <path class="cls-13" d="M554.1,359.55h-8.37v-.72l4.6-3.04c1.72-1.14,2.46-1.81,2.46-2.95,0-1.36-1.18-2.22-2.96-2.22s-3.08.78-3.41,2.29l-.87-.17c.45-1.82,2.05-2.91,4.28-2.91s3.86,1.17,3.86,2.99c0,1.36-.88,2.26-2.87,3.54l-3.67,2.41h6.95v.77Z"/>
  </g>
  <g>
    <path class="cls-13" d="M535.62,380.21c0-1.19.64-2.06,1.96-3.31l3.33-3.14h1.13l-3.95,3.61c.73-.31,1.49-.41,2.26-.41,2.49,0,4.28,1.26,4.28,3.2s-1.83,3.29-4.54,3.29-4.47-1.28-4.47-3.26ZM540.1,382.7c2.23,0,3.65-1.03,3.65-2.53s-1.42-2.46-3.55-2.46c-1.06,0-1.91.18-2.55.56-.71.44-1.15,1.13-1.15,1.94,0,1.47,1.46,2.49,3.6,2.49Z"/>
    <path class="cls-13" d="M545.52,380.75l.87-.22c.58,1.64,1.96,2.17,3.74,2.17,1.97,0,3.29-.81,3.29-2.09,0-1.1-.82-1.85-2.82-1.85h-1.87v-.78h1.83c1.64,0,2.6-.62,2.6-1.67s-1.17-1.87-3.01-1.87-3.08.65-3.52,2.05l-.86-.17c.59-1.77,2.15-2.65,4.4-2.65,2.41,0,3.87,1.14,3.87,2.64,0,.97-.64,1.68-1.77,2.03,1.38.32,2.05,1.15,2.05,2.28,0,1.65-1.64,2.85-4.19,2.85-2.4,0-3.96-.82-4.61-2.72Z"/>
  </g>
  <g>
    <path class="cls-13" d="M535.29,403.68c0-1.19.64-2.06,1.96-3.31l3.33-3.14h1.13l-3.95,3.61c.73-.31,1.49-.41,2.26-.41,2.49,0,4.28,1.26,4.28,3.2s-1.83,3.29-4.54,3.29-4.47-1.28-4.47-3.26ZM539.76,406.17c2.23,0,3.65-1.03,3.65-2.53s-1.42-2.46-3.55-2.46c-1.06,0-1.91.18-2.55.56-.71.44-1.15,1.13-1.15,1.94,0,1.47,1.46,2.49,3.6,2.49Z"/>
    <path class="cls-13" d="M552.34,404.5h-7.05v-.76l6.86-6.51h1.08v6.47h1.69v.79h-1.69v2.35h-.88v-2.35ZM552.34,403.71v-5.58l-5.9,5.58h5.9Z"/>
  </g>
  <g>
    <path class="cls-13" d="M535.58,426.8c0-1.19.64-2.06,1.96-3.31l3.33-3.14h1.13l-3.95,3.61c.73-.31,1.49-.41,2.26-.41,2.49,0,4.28,1.26,4.28,3.21s-1.83,3.29-4.54,3.29-4.47-1.28-4.47-3.26ZM540.05,429.28c2.23,0,3.65-1.03,3.65-2.52s-1.42-2.46-3.55-2.46c-1.06,0-1.91.18-2.55.56-.71.44-1.15,1.13-1.15,1.94,0,1.47,1.46,2.49,3.6,2.49Z"/>
    <path class="cls-13" d="M545.68,427.46l.88-.23c.58,1.56,1.95,2.05,3.61,2.05,2.12,0,3.47-1.06,3.47-2.45,0-1.56-1.32-2.5-3.42-2.5-1.59,0-2.65.42-3.33,1.1l-.71-.14,1.1-4.95h6.78v.77h-6.14l-.74,3.27c.83-.58,2.03-.82,3.1-.82,2.63,0,4.24,1.27,4.24,3.27,0,1.87-1.77,3.22-4.36,3.22-2.26,0-3.84-.81-4.5-2.59Z"/>
  </g>
  <g>
    <path class="cls-13" d="M535.44,450.27c0-1.19.64-2.06,1.96-3.31l3.33-3.14h1.13l-3.95,3.61c.73-.31,1.49-.41,2.26-.41,2.49,0,4.28,1.26,4.28,3.21s-1.83,3.29-4.54,3.29-4.47-1.28-4.47-3.26ZM539.92,452.75c2.23,0,3.65-1.03,3.65-2.52s-1.42-2.46-3.55-2.46c-1.06,0-1.91.18-2.55.56-.7.44-1.15,1.13-1.15,1.94,0,1.47,1.46,2.49,3.6,2.49Z"/>
    <path class="cls-13" d="M545.83,450.27c0-1.19.64-2.06,1.96-3.31l3.33-3.14h1.13l-3.95,3.61c.73-.31,1.49-.41,2.26-.41,2.49,0,4.28,1.26,4.28,3.21s-1.83,3.29-4.54,3.29-4.47-1.28-4.47-3.26ZM550.3,452.75c2.23,0,3.65-1.03,3.65-2.52s-1.42-2.46-3.55-2.46c-1.06,0-1.91.18-2.55.56-.71.44-1.15,1.13-1.15,1.94,0,1.47,1.46,2.49,3.6,2.49Z"/>
  </g>
  <g>
    <path class="cls-13" d="M536.62,474.45c0-1.19.64-2.06,1.96-3.31l3.33-3.14h1.13l-3.95,3.62c.73-.31,1.49-.41,2.26-.41,2.49,0,4.28,1.26,4.28,3.2s-1.83,3.29-4.54,3.29-4.47-1.28-4.47-3.26ZM541.09,476.94c2.23,0,3.65-1.03,3.65-2.52s-1.42-2.46-3.55-2.46c-1.06,0-1.91.18-2.55.56-.71.44-1.15,1.13-1.15,1.94,0,1.47,1.46,2.49,3.6,2.49Z"/>
    <path class="cls-13" d="M552.84,468.8h-7.28v-.79h8.33v.68l-5.87,8.93h-1l5.82-8.82Z"/>
  </g>
  <g>
    <path class="cls-13" d="M535.21,497.21c0-1.19.64-2.06,1.96-3.31l3.33-3.14h1.13l-3.95,3.62c.73-.31,1.49-.41,2.26-.41,2.49,0,4.28,1.26,4.28,3.2s-1.83,3.29-4.54,3.29-4.47-1.28-4.47-3.26ZM539.69,499.7c2.23,0,3.65-1.03,3.65-2.52s-1.42-2.46-3.55-2.46c-1.06,0-1.91.18-2.55.56-.7.44-1.15,1.13-1.15,1.94,0,1.47,1.46,2.49,3.6,2.49Z"/>
    <path class="cls-13" d="M545.58,497.67c0-1.26,1.18-2.14,2.71-2.4-1.15-.27-2.04-1.03-2.04-2.13,0-1.44,1.49-2.47,3.97-2.47s3.97,1.04,3.97,2.47c0,1.09-.88,1.85-2.02,2.13,1.51.26,2.69,1.14,2.69,2.4,0,1.65-1.65,2.79-4.64,2.79s-4.64-1.14-4.64-2.79ZM550.22,499.7c2.46,0,3.74-.85,3.74-2.04,0-1.29-1.65-1.96-3.74-1.96s-3.74.67-3.74,1.96c0,1.19,1.28,2.04,3.74,2.04ZM550.22,494.94c1.72,0,3.1-.65,3.1-1.77,0-1.04-1.12-1.74-3.1-1.74s-3.1.71-3.1,1.74c0,1.12,1.4,1.77,3.1,1.77Z"/>
  </g>
  <g>
    <path class="cls-13" d="M535.67,520.33c0-1.19.64-2.06,1.96-3.31l3.33-3.14h1.13l-3.95,3.62c.73-.31,1.49-.41,2.26-.41,2.49,0,4.28,1.26,4.28,3.2s-1.83,3.29-4.54,3.29-4.47-1.28-4.47-3.26ZM540.14,522.81c2.23,0,3.65-1.03,3.65-2.52s-1.42-2.46-3.55-2.46c-1.06,0-1.91.18-2.55.56-.7.44-1.15,1.13-1.15,1.94,0,1.47,1.46,2.49,3.6,2.49Z"/>
    <path class="cls-13" d="M554.36,517.05c0,1.19-.64,2.06-1.96,3.31l-3.33,3.14h-1.13l3.95-3.61c-.73.31-1.49.41-2.26.41-2.49,0-4.28-1.26-4.28-3.2s1.83-3.29,4.54-3.29,4.47,1.28,4.47,3.26ZM549.78,519.55c1.06,0,1.91-.18,2.55-.56.71-.44,1.15-1.13,1.15-1.94,0-1.47-1.46-2.49-3.6-2.49s-3.65,1.03-3.65,2.53,1.42,2.46,3.55,2.46Z"/>
  </g>
  <g>
    <path class="cls-7" d="M487.8,85.15s0-55.83,0-64.51c.14,0,146.83,0,146.83,0"/>
    <rect class="cls-12" x="486.57" y=".06" width="148.06" height="20.58"/>
  </g>
  <g>
    <path class="cls-6" d="M428.1,274.5h-53.15c0-7.62,0-47.48,0-47.48"/>
    <rect class="cls-12" x="354.36" y="227.02" width="21.3" height="48.78"/>
  </g>
  <g>
    <path class="cls-6" d="M688.28,273.54v-34.78c3.95,0,8.04,0,12,0,0-7.48,0-46.67,0-46.67"/>
    <rect class="cls-12" x="699.57" y="192.09" width="21.3" height="47.9"/>
  </g>
  <rect class="cls-12" x="314.89" y="447.66" width="8.05" height="174.59" transform="translate(853.88 216.04) rotate(90)"/>
  <rect class="cls-12" x="561.84" y="91.94" width="4.03" height="74.76" transform="translate(693.17 -434.53) rotate(90)"/>
  <rect class="cls-14" x="214.63" y="668.12" width="54.71" height="21.77" transform="translate(920.99 437.02) rotate(90)"/>
  <rect class="cls-12" x="699.57" y="415.36" width="21.3" height="155.8"/>
  <g>
    <path class="cls-13" d="M235.07,674.28h5.78c1.83,0,3.07.95,3.07,2.49,0,1.21-.86,2.04-2.29,2.3l3.31,3.23h-2.11l-3.13-3.02h-3.01v3.02h-1.61v-8.01ZM240.82,677.88c.83,0,1.39-.42,1.39-1.11s-.53-1.1-1.4-1.1h-4.12v2.21h4.13Z"/>
    <path class="cls-13" d="M247.31,676.93h-2.38v-1.12c1.57-.03,2.34-.45,2.67-1.53h1.3v8.01h-1.59v-5.36Z"/>
  </g>
</svg>