<svg width="164" height="159" viewBox="0 0 164 159" fill="none" xmlns="http://www.w3.org/2000/svg">
<path d="M96.7506 17.4827L78.0816 37.9878L55.0739 20.9975L52.8607 48.3131L24.0644 47.2402L39.1523 70.9328L15.5665 86.1871L42.1925 97.2069L32.8262 122.962L60.8201 117.1L69.2509 143.518L87.9199 123.012L110.928 140.003L113.141 112.687L141.937 113.76L126.849 90.0675L150.435 74.8132L123.809 63.7934L133.175 38.0385L105.181 43.9008L96.7506 17.4827Z" fill="#8B8B8B"/>
<path d="M94.7506 15.4827L76.0816 35.9878L53.0739 18.9975L50.8607 46.3131L22.0644 45.2402L37.1523 68.9328L13.5665 84.1871L40.1925 95.2069L30.8262 120.962L58.8201 115.1L67.2509 141.518L85.9199 121.012L108.928 138.003L111.141 110.687L139.937 111.76L124.849 88.0675L148.435 72.8132L121.809 61.7934L131.175 36.0385L103.181 41.9008L94.7506 15.4827Z" fill="#A1BDD9"/>
<path d="M57.0607 65.1097C54.4507 65.1097 53.1407 63.8497 53.1407 61.5497C53.1407 59.3897 54.2007 57.9197 57.0807 57.6997L59.0207 57.5497C59.4607 57.5197 59.7507 57.4797 60.0707 57.3897L60.2807 58.5797C59.9007 58.6697 59.4407 58.7397 59.0007 58.7597L57.1807 58.8697C55.5207 58.9597 54.7307 59.5097 54.5907 60.9297C55.2007 60.3097 56.1807 59.9797 57.4607 59.9797C59.3407 59.9797 60.7207 60.9097 60.7207 62.5097C60.7207 64.0997 59.2407 65.1097 57.0607 65.1097ZM54.7907 62.5197C54.7907 63.3697 55.6607 63.8997 57.0107 63.8997C58.3907 63.8997 59.2307 63.3697 59.2307 62.5197C59.2307 61.6697 58.4007 61.1497 57.0507 61.1497C55.6707 61.1497 54.7907 61.6697 54.7907 62.5197ZM65.07 65.1097C62.83 65.1097 61.34 64.0397 61.34 62.4897C61.34 60.9297 62.83 59.8697 65.07 59.8697C67.32 59.8697 68.81 60.9297 68.81 62.4897C68.81 64.0397 67.32 65.1097 65.07 65.1097ZM62.83 62.4897C62.83 63.3497 63.69 63.8997 65.07 63.8997C66.46 63.8997 67.32 63.3497 67.32 62.4897C67.32 61.6297 66.46 61.0797 65.07 61.0797C63.69 61.0797 62.83 61.6297 62.83 62.4897ZM69.7686 65.1097C69.5286 65.1097 69.2686 65.0697 69.0786 64.9997L69.2486 63.8697C69.3286 63.8797 69.4186 63.8897 69.4986 63.8897C69.7686 63.8897 69.9886 63.7997 70.1586 63.5197C70.3486 63.2197 70.4086 62.6597 70.4686 61.6697L70.5586 59.9797H76.2586V64.9997H74.8186V61.1997H71.9086L71.8586 61.9997C71.7886 63.1397 71.6586 63.8797 71.3186 64.3697C70.9486 64.9097 70.3886 65.1097 69.7686 65.1097ZM77.7568 64.9997V59.9797H79.1968V61.3397H81.6468C83.0968 61.3397 83.9768 62.0797 83.9768 63.1697C83.9768 64.2597 83.0968 64.9997 81.6468 64.9997H77.7568ZM79.1968 63.8697H81.5368C82.1168 63.8697 82.4868 63.6097 82.4868 63.1697C82.4868 62.7297 82.1168 62.4697 81.5368 62.4697H79.1968V63.8697ZM84.9346 64.9997V59.9797H86.3746V63.7797H89.0046V59.9797H90.4446V63.7797H93.0746V59.9797H94.5246V64.9997H84.9346ZM99.2693 65.1097C97.0293 65.1097 95.5393 64.0397 95.5393 62.4897C95.5393 60.9297 97.0293 59.8697 99.2693 59.8697C101.519 59.8697 103.009 60.9297 103.009 62.4897C103.009 64.0397 101.519 65.1097 99.2693 65.1097ZM97.0293 62.4897C97.0293 63.3497 97.8893 63.8997 99.2693 63.8997C100.659 63.8997 101.519 63.3497 101.519 62.4897C101.519 61.6297 100.659 61.0797 99.2693 61.0797C97.8893 61.0797 97.0293 61.6297 97.0293 62.4897ZM104.017 64.9997V59.9797H105.457V63.4197L109.217 59.9797H110.597V64.9997H109.157V61.5497L105.387 64.9997H104.017ZM105.087 57.7997H106.407C106.477 58.1997 106.847 58.4097 107.347 58.4097C107.837 58.4097 108.197 58.1997 108.287 57.7997H109.607C109.427 58.7097 108.587 59.3197 107.347 59.3197C106.107 59.3197 105.277 58.7097 105.087 57.7997ZM62.2706 78.1097C59.6606 78.1097 58.3506 76.8497 58.3506 74.5497C58.3506 72.3897 59.4106 70.9197 62.2906 70.6997L64.2306 70.5497C64.6706 70.5197 64.9606 70.4797 65.2806 70.3897L65.4906 71.5797C65.1106 71.6697 64.6506 71.7397 64.2106 71.7597L62.3906 71.8697C60.7306 71.9597 59.9406 72.5097 59.8006 73.9297C60.4106 73.3097 61.3906 72.9797 62.6706 72.9797C64.5506 72.9797 65.9306 73.9097 65.9306 75.5097C65.9306 77.0997 64.4506 78.1097 62.2706 78.1097ZM60.0006 75.5197C60.0006 76.3697 60.8706 76.8997 62.2206 76.8997C63.6006 76.8997 64.4406 76.3697 64.4406 75.5197C64.4406 74.6697 63.6106 74.1497 62.2606 74.1497C60.8806 74.1497 60.0006 74.6697 60.0006 75.5197ZM69.0705 78.1097C67.5805 78.1097 66.6505 77.5497 66.6505 76.5597C66.6505 75.7397 67.3005 75.2197 69.0805 74.9797L71.7705 74.6197C71.6205 74.1897 71.1405 73.9497 70.0905 73.9497C68.9605 73.9497 68.3305 74.1997 68.0905 74.6897L66.6005 74.5597C66.9305 73.5497 68.1505 72.8697 70.0905 72.8697C72.0505 72.8697 73.2705 73.6497 73.2705 74.9997V77.9997H71.9305L71.8705 77.1397C71.2505 77.7997 70.1805 78.1097 69.0705 78.1097ZM68.1305 76.5297C68.1305 76.8897 68.4705 77.0697 69.2105 77.0697C70.5205 77.0697 71.8405 76.5097 71.8405 75.5897V75.5497L69.1705 75.9197C68.4005 76.0397 68.1305 76.2097 68.1305 76.5297ZM74.6465 77.9997V72.9797H76.0865V74.7597H79.7165V72.9797H81.1565V77.9997H79.7165V75.9897H76.0865V77.9997H74.6465ZM82.6543 77.9997V72.9797H84.0943V74.7597H87.7243V72.9797H89.1643V77.9997H87.7243V75.9897H84.0943V77.9997H82.6543ZM93.863 78.1097C91.563 78.1097 90.173 77.0097 90.173 75.5197C90.173 73.9897 91.683 72.8697 93.853 72.8697C95.923 72.8697 97.413 73.8497 97.413 75.2997C97.413 75.4597 97.383 75.6897 97.333 75.9097H91.633C91.843 76.6197 92.633 77.0097 93.863 77.0097C94.983 77.0097 95.653 76.7797 95.953 76.3097L97.343 76.6097C96.903 77.5897 95.583 78.1097 93.863 78.1097ZM91.693 74.9097H95.903C95.813 74.3497 95.013 73.9297 93.853 73.9297C92.753 73.9297 91.983 74.2797 91.693 74.9097ZM98.4258 80.1997V72.9797H99.7958L99.8458 73.6397C100.406 73.1497 101.276 72.8697 102.346 72.8697C104.426 72.8697 105.836 73.9197 105.836 75.4897C105.836 77.0497 104.426 78.1097 102.346 78.1097C101.286 78.1097 100.436 77.8197 99.8658 77.3497V80.1997H98.4258ZM99.8658 75.4897C99.8658 76.3597 100.746 76.8997 102.106 76.8997C103.486 76.8997 104.346 76.3597 104.346 75.4897C104.346 74.6197 103.486 74.0797 102.106 74.0797C100.746 74.0797 99.8658 74.6197 99.8658 75.4897ZM49.9199 90.9997V85.9797H51.3599V87.7597H54.9899V85.9797H56.4299V90.9997H54.9899V88.9897H51.3599V90.9997H49.9199ZM59.9884 91.1097C58.4984 91.1097 57.5684 90.5497 57.5684 89.5597C57.5684 88.7397 58.2184 88.2197 59.9984 87.9797L62.6884 87.6197C62.5384 87.1897 62.0584 86.9497 61.0084 86.9497C59.8784 86.9497 59.2484 87.1997 59.0084 87.6897L57.5184 87.5597C57.8484 86.5497 59.0684 85.8697 61.0084 85.8697C62.9684 85.8697 64.1884 86.6497 64.1884 87.9997V90.9997H62.8484L62.7884 90.1397C62.1684 90.7997 61.0984 91.1097 59.9884 91.1097ZM59.0484 89.5297C59.0484 89.8897 59.3884 90.0697 60.1284 90.0697C61.4384 90.0697 62.7584 89.5097 62.7584 88.5897V88.5497L60.0884 88.9197C59.3184 89.0397 59.0484 89.2097 59.0484 89.5297ZM71.2007 91.1097C69.1007 91.1097 68.0207 90.5197 67.6007 89.4797L69.1007 89.2397C69.3207 89.8497 70.0707 90.0697 71.2007 90.0697C72.4007 90.0697 72.9907 89.8397 72.9907 89.4297C72.9907 89.1197 72.6907 88.9697 72.1307 88.9697H70.2407V87.9697H72.0407C72.6307 87.9697 72.9107 87.8097 72.9107 87.5097C72.9107 87.1497 72.4507 86.9097 71.2407 86.9097C70.2307 86.9097 69.3607 87.1497 69.1707 87.7697L67.7207 87.5097C68.1607 86.3997 69.4907 85.8697 71.2507 85.8697C73.3607 85.8697 74.3707 86.5397 74.3707 87.3797C74.3707 87.8497 74.0007 88.2297 73.3007 88.4197C74.0507 88.5597 74.4707 88.9597 74.4707 89.5097C74.4707 90.5397 73.1707 91.1097 71.2007 91.1097ZM77.6935 91.1097C76.2035 91.1097 75.2735 90.5497 75.2735 89.5597C75.2735 88.7397 75.9235 88.2197 77.7035 87.9797L80.3935 87.6197C80.2435 87.1897 79.7635 86.9497 78.7135 86.9497C77.5835 86.9497 76.9535 87.1997 76.7135 87.6897L75.2235 87.5597C75.5535 86.5497 76.7735 85.8697 78.7135 85.8697C80.6735 85.8697 81.8935 86.6497 81.8935 87.9997V90.9997H80.5535L80.4935 90.1397C79.8735 90.7997 78.8035 91.1097 77.6935 91.1097ZM76.7535 89.5297C76.7535 89.8897 77.0935 90.0697 77.8335 90.0697C79.1435 90.0697 80.4635 89.5097 80.4635 88.5897V88.5497L77.7935 88.9197C77.0235 89.0397 76.7535 89.2097 76.7535 89.5297ZM89.8195 85.9797V89.7797H90.8995V92.4897H89.4995V90.9997H83.9795V92.4897H82.5795V89.7797H83.2995C83.8495 89.2097 84.0195 88.4897 84.0595 87.3197L84.1195 85.9797H89.8195ZM84.7495 89.7797H88.3995V87.1697H85.4395L85.4295 87.5597C85.4195 88.4697 85.2595 89.2297 84.7495 89.7797ZM91.7559 90.9997V85.9797H93.1959V87.7597H96.8259V85.9797H98.2659V90.9997H96.8259V88.9897H93.1959V90.9997H91.7559ZM102.965 91.1097C100.665 91.1097 99.2746 90.0097 99.2746 88.5197C99.2746 86.9897 100.785 85.8697 102.955 85.8697C105.025 85.8697 106.515 86.8497 106.515 88.2997C106.515 88.4597 106.485 88.6897 106.435 88.9097H100.735C100.945 89.6197 101.735 90.0097 102.965 90.0097C104.085 90.0097 104.755 89.7797 105.055 89.3097L106.445 89.6097C106.005 90.5897 104.685 91.1097 102.965 91.1097ZM100.795 87.9097H105.005C104.915 87.3497 104.115 86.9297 102.955 86.9297C101.855 86.9297 101.085 87.2797 100.795 87.9097ZM107.527 90.9997V85.9797H108.967V89.4197L112.727 85.9797H114.107V90.9997H112.667V87.5497L108.897 90.9997H107.527ZM108.597 83.7997H109.917C109.987 84.1997 110.357 84.4097 110.857 84.4097C111.347 84.4097 111.707 84.1997 111.797 83.7997H113.117C112.937 84.7097 112.097 85.3197 110.857 85.3197C109.617 85.3197 108.787 84.7097 108.597 83.7997ZM63.5598 104.11C61.3798 104.11 59.8898 103.04 59.8898 101.49C59.8898 99.9297 61.3798 98.8697 63.5598 98.8697C65.4098 98.8697 66.6298 99.5797 66.9698 100.67L65.4598 100.94C65.2398 100.4 64.5698 100.08 63.5598 100.08C62.1998 100.08 61.3798 100.63 61.3798 101.49C61.3798 102.34 62.1998 102.9 63.5598 102.9C64.6398 102.9 65.3198 102.58 65.5198 102.07L67.0098 102.29C66.7698 103.34 65.4498 104.11 63.5598 104.11ZM69.742 104V100.2H67.232V98.9797H73.692V100.2H71.182V104H69.742ZM77.6326 104.11C75.3326 104.11 73.9426 103.01 73.9426 101.52C73.9426 99.9897 75.4526 98.8697 77.6226 98.8697C79.6926 98.8697 81.1826 99.8497 81.1826 101.3C81.1826 101.46 81.1526 101.69 81.1026 101.91H75.4026C75.6126 102.62 76.4026 103.01 77.6326 103.01C78.7526 103.01 79.4226 102.78 79.7226 102.31L81.1126 102.61C80.6726 103.59 79.3526 104.11 77.6326 104.11ZM75.4626 100.91H79.6726C79.5826 100.35 78.7826 99.9297 77.6226 99.9297C76.5226 99.9297 75.7526 100.28 75.4626 100.91ZM82.1953 104V98.9797H83.6353V100.76H87.2653V98.9797H88.7053V104H87.2653V101.99H83.6353V104H82.1953ZM95.0131 104L92.6731 102.02H91.6431V104H90.2031V98.9797H91.6431V100.78H92.6831L94.9431 98.9797H96.9431L93.8731 101.36L97.0331 104H95.0131ZM100.592 104.11C98.2916 104.11 96.9016 103.01 96.9016 101.52C96.9016 99.9897 98.4116 98.8697 100.582 98.8697C102.652 98.8697 104.142 99.8497 104.142 101.3C104.142 101.46 104.112 101.69 104.062 101.91H98.3616C98.5716 102.62 99.3616 103.01 100.592 103.01C101.712 103.01 102.382 102.78 102.682 102.31L104.072 102.61C103.632 103.59 102.312 104.11 100.592 104.11ZM98.4216 100.91H102.632C102.542 100.35 101.742 99.9297 100.582 99.9297C99.4816 99.9297 98.7116 100.28 98.4216 100.91Z" fill="#1A1A1A"/>
</svg>
