<svg width="136" height="132" viewBox="0 0 136 132" fill="none" xmlns="http://www.w3.org/2000/svg">
<g filter="url(#filter0_d_18_1342)">
<path d="M68 0L81.8687 24.0135L107.969 12.3184L104.309 39.478L132.672 44.5684L112.88 64.5L132.672 84.4316L104.309 89.522L107.969 116.682L81.8687 104.986L68 129L54.1313 104.986L28.0306 116.682L31.6913 89.522L3.32816 84.4316L23.12 64.5L3.32816 44.5684L31.6913 39.478L28.0306 12.3184L54.1313 24.0135L68 0Z" fill="#B4CC05"/>
</g>
<path d="M38.2593 52L35.2173 49.426H33.8783V52H32.0063V45.474H33.8783V47.814H35.2303L38.1683 45.474H40.7683L36.7773 48.568L40.8853 52H38.2593ZM41.807 54.86V45.474H43.588L43.653 46.332C44.381 45.695 45.512 45.331 46.903 45.331C49.607 45.331 51.44 46.696 51.44 48.737C51.44 50.765 49.607 52.143 46.903 52.143C45.525 52.143 44.42 51.766 43.679 51.155V54.86H41.807ZM43.679 48.737C43.679 49.868 44.823 50.57 46.591 50.57C48.385 50.57 49.503 49.868 49.503 48.737C49.503 47.606 48.385 46.904 46.591 46.904C44.823 46.904 43.679 47.606 43.679 48.737ZM51.3815 45.474H53.5915L56.5165 50.115L59.1035 45.474H61.1965L55.7495 54.86H53.6305L55.4375 51.844L51.3815 45.474ZM62.0561 52V45.474H70.3891V52H68.5171V47.06H63.9281V52H62.0561ZM72.3393 52V45.474H74.2113V47.788H78.9303V45.474H80.8023V52H78.9303V49.387H74.2113V52H72.3393ZM91.6284 52V45.474H93.5004V52H91.6284ZM82.7494 52V45.474H84.6214V47.242H87.8064C89.6914 47.242 90.8354 48.204 90.8354 49.621C90.8354 51.038 89.6914 52 87.8064 52H82.7494ZM84.6214 50.531H87.6634C88.4174 50.531 88.8984 50.193 88.8984 49.621C88.8984 49.049 88.4174 48.711 87.6634 48.711H84.6214V50.531ZM95.4447 52V45.474H97.3167V49.946L102.205 45.474H103.999V52H102.127V47.515L97.2257 52H95.4447ZM96.8357 42.64H98.5517C98.6427 43.16 99.1237 43.433 99.7737 43.433C100.411 43.433 100.879 43.16 100.996 42.64H102.712C102.478 43.823 101.386 44.616 99.7737 44.616C98.1617 44.616 97.0827 43.823 96.8357 42.64ZM30.918 69V64.06H27.655V62.474H36.053V64.06H32.79V69H30.918ZM41.2278 69.143C38.3158 69.143 36.3788 67.752 36.3788 65.737C36.3788 63.709 38.3158 62.331 41.2278 62.331C44.1528 62.331 46.0898 63.709 46.0898 65.737C46.0898 67.752 44.1528 69.143 41.2278 69.143ZM38.3158 65.737C38.3158 66.855 39.4338 67.57 41.2278 67.57C43.0348 67.57 44.1528 66.855 44.1528 65.737C44.1528 64.619 43.0348 63.904 41.2278 63.904C39.4338 63.904 38.3158 64.619 38.3158 65.737ZM47.3993 71.86V62.474H49.1803L49.2453 63.332C49.9733 62.695 51.1043 62.331 52.4953 62.331C55.1993 62.331 57.0323 63.696 57.0323 65.737C57.0323 67.765 55.1993 69.143 52.4953 69.143C51.1173 69.143 50.0123 68.766 49.2713 68.155V71.86H47.3993ZM49.2713 65.737C49.2713 66.868 50.4153 67.57 52.1833 67.57C53.9773 67.57 55.0953 66.868 55.0953 65.737C55.0953 64.606 53.9773 63.904 52.1833 63.904C50.4153 63.904 49.2713 64.606 49.2713 65.737ZM58.3554 69V62.474H65.1804V64.06H60.2794V69H58.3554ZM70.3381 69.143C67.4261 69.143 65.4891 67.752 65.4891 65.737C65.4891 63.709 67.4261 62.331 70.3381 62.331C73.2631 62.331 75.2001 63.709 75.2001 65.737C75.2001 67.752 73.2631 69.143 70.3381 69.143ZM67.4261 65.737C67.4261 66.855 68.5441 67.57 70.3381 67.57C72.1451 67.57 73.2631 66.855 73.2631 65.737C73.2631 64.619 72.1451 63.904 70.3381 63.904C68.5441 63.904 67.4261 64.619 67.4261 65.737ZM76.5097 69V62.474H82.3207C83.7767 62.474 84.6477 63.137 84.6477 64.151C84.6477 64.879 84.2187 65.373 83.5687 65.62C84.4137 65.828 84.9337 66.374 84.9337 67.193C84.9337 68.285 83.9717 69 82.2947 69H76.5097ZM78.3557 67.765H82.0347C82.6457 67.765 83.0097 67.479 83.0097 67.024C83.0097 66.582 82.6457 66.309 82.0347 66.309H78.3557V67.765ZM78.3557 65.087H81.9047C82.4767 65.087 82.8017 64.827 82.8017 64.398C82.8017 63.969 82.4767 63.709 81.9047 63.709H78.3557V65.087ZM95.3037 69V62.474H97.1757V69H95.3037ZM86.4247 69V62.474H88.2967V64.242H91.4817C93.3667 64.242 94.5107 65.204 94.5107 66.621C94.5107 68.038 93.3667 69 91.4817 69H86.4247ZM88.2967 67.531H91.3387C92.0927 67.531 92.5737 67.193 92.5737 66.621C92.5737 66.049 92.0927 65.711 91.3387 65.711H88.2967V67.531ZM99.12 69V62.474H100.992V66.946L105.88 62.474H107.674V69H105.802V64.515L100.901 69H99.12ZM100.511 59.64H102.227C102.318 60.16 102.799 60.433 103.449 60.433C104.086 60.433 104.554 60.16 104.671 59.64H106.387C106.153 60.823 105.061 61.616 103.449 61.616C101.837 61.616 100.758 60.823 100.511 59.64ZM51.3333 87.937V86H43.5463V79.474H45.4183V84.414H49.8773V79.474H51.7623V84.414H53.1663V87.937H51.3333ZM58.4985 86.143C55.5085 86.143 53.7015 84.713 53.7015 82.776C53.7015 80.787 55.6645 79.331 58.4855 79.331C61.1765 79.331 63.1135 80.605 63.1135 82.49C63.1135 82.698 63.0745 82.997 63.0095 83.283H55.5995C55.8725 84.206 56.8995 84.713 58.4985 84.713C59.9545 84.713 60.8255 84.414 61.2155 83.803L63.0225 84.193C62.4505 85.467 60.7345 86.143 58.4985 86.143ZM55.6775 81.983H61.1505C61.0335 81.255 59.9935 80.709 58.4855 80.709C57.0555 80.709 56.0545 81.164 55.6775 81.983ZM64.4301 86V79.474H66.3021V81.788H71.0211V79.474H72.8931V86H71.0211V83.387H66.3021V86H64.4301ZM77.2114 86V81.06H73.9484V79.474H82.3464V81.06H79.0834V86H77.2114ZM83.4096 88.86V79.474H85.1906L85.2556 80.332C85.9836 79.695 87.1146 79.331 88.5056 79.331C91.2096 79.331 93.0426 80.696 93.0426 82.737C93.0426 84.765 91.2096 86.143 88.5056 86.143C87.1276 86.143 86.0226 85.766 85.2816 85.155V88.86H83.4096ZM85.2816 82.737C85.2816 83.868 86.4256 84.57 88.1936 84.57C89.9876 84.57 91.1056 83.868 91.1056 82.737C91.1056 81.606 89.9876 80.904 88.1936 80.904C86.4256 80.904 85.2816 81.606 85.2816 82.737Z" fill="#1A1A1A"/>
<defs>
<filter id="filter0_d_18_1342" x="3.32812" y="0" width="132.344" height="132" filterUnits="userSpaceOnUse" color-interpolation-filters="sRGB">
<feFlood flood-opacity="0" result="BackgroundImageFix"/>
<feColorMatrix in="SourceAlpha" type="matrix" values="0 0 0 0 0 0 0 0 0 0 0 0 0 0 0 0 0 0 127 0" result="hardAlpha"/>
<feOffset dx="3" dy="3"/>
<feComposite in2="hardAlpha" operator="out"/>
<feColorMatrix type="matrix" values="0 0 0 0 0 0 0 0 0 0 0 0 0 0 0 0 0 0 0.4 0"/>
<feBlend mode="normal" in2="BackgroundImageFix" result="effect1_dropShadow_18_1342"/>
<feBlend mode="normal" in="SourceGraphic" in2="effect1_dropShadow_18_1342" result="shape"/>
</filter>
</defs>
</svg>
