<svg width="36" height="37" viewBox="0 0 36 37" fill="none" xmlns="http://www.w3.org/2000/svg">
<path d="M4.10629 16.7802L22.9711 8.8454C24.8344 8.02157 31.1485 5.37665 31.1485 5.37665C31.1485 5.37665 34.0594 4.2204 33.8203 7.03153C33.743 8.18778 33.0891 12.2419 32.4422 16.6212L30.4172 29.6073C30.4172 29.6073 30.2555 31.5079 28.8774 31.8403C27.4993 32.1727 25.2352 30.6841 24.8344 30.3517C24.511 30.1059 18.7594 26.3843 16.6571 24.5632C16.0875 24.0645 15.4477 23.0745 16.7344 21.9183C19.6454 19.1938 23.1329 15.8046 25.2352 13.6511C26.2055 12.661 27.1758 10.3485 23.1329 13.1524L11.7141 20.9933C11.7141 20.9933 10.4204 21.8171 7.98754 21.0727C5.56176 20.3284 2.72113 19.3384 2.72113 19.3384C2.72113 19.3384 0.78754 18.1026 4.10629 16.7802Z" fill="#1A1A1A"/>
</svg>
