<svg width="36" height="36" viewBox="0 0 36 36" fill="none" xmlns="http://www.w3.org/2000/svg">
<path d="M4.10629 16.3264L22.9711 8.60612C24.8344 7.80456 31.1485 5.23112 31.1485 5.23112C31.1485 5.23112 34.0594 4.10612 33.8203 6.84128C33.743 7.96628 33.0891 11.9108 32.4422 16.1718L30.4172 28.8069C30.4172 28.8069 30.2555 30.6561 28.8774 30.9796C27.4993 31.303 25.2352 29.8546 24.8344 29.5311C24.511 29.2921 18.7594 25.671 16.6571 23.8991C16.0875 23.4139 15.4477 22.4507 16.7344 21.3257C19.6454 18.6749 23.1329 15.3772 25.2352 13.2819C26.2055 12.3186 27.1758 10.0686 23.1329 12.7967L11.7141 20.4257C11.7141 20.4257 10.4204 21.2272 7.98754 20.503C5.56176 19.7788 2.72113 18.8155 2.72113 18.8155C2.72113 18.8155 0.78754 17.6132 4.10629 16.3264Z" fill="#1A1A1A"/>
</svg>
