<svg width="28" height="23" viewBox="0 0 28 23" fill="none" xmlns="http://www.w3.org/2000/svg">
<path d="M2.49117 10.0084L18.5726 3.18532C20.161 2.47691 25.5435 0.202538 25.5435 0.202538C25.5435 0.202538 28.0249 -0.791722 27.8211 1.62557C27.7552 2.61983 27.1978 6.10596 26.6463 9.87172L24.9201 21.0385C24.9201 21.0385 24.7822 22.6728 23.6074 22.9587C22.4327 23.2445 20.5026 21.9644 20.161 21.6786C19.8853 21.4673 14.9823 18.267 13.1902 16.701C12.7047 16.2723 12.1592 15.4209 13.2561 14.4267C15.7375 12.0839 18.7105 9.16952 20.5026 7.31771C21.3298 6.46638 22.1569 4.47786 18.7105 6.88894L8.9765 13.6313C8.9765 13.6313 7.87363 14.3397 5.79977 13.6996C3.73189 13.0596 1.31038 12.2082 1.31038 12.2082C1.31038 12.2082 -0.33792 11.1456 2.49117 10.0084Z" fill="#F5B300"/>
</svg>
