<svg width="28" height="24" viewBox="0 0 28 24" fill="none" xmlns="http://www.w3.org/2000/svg">
<path d="M1.83632 10.0919L17.9178 3.26881C19.5061 2.5604 24.8886 0.286035 24.8886 0.286035C24.8886 0.286035 27.3701 -0.708225 27.1663 1.70907C27.1003 2.70333 26.5429 6.18945 25.9915 9.95521L24.2652 21.122C24.2652 21.122 24.1274 22.7563 22.9526 23.0422C21.7778 23.328 19.8478 22.0479 19.5061 21.762C19.2304 21.5508 14.3275 18.3505 12.5353 16.7845C12.0498 16.3558 11.5044 15.5044 12.6012 14.5102C15.0827 12.1674 18.0556 9.25302 19.8478 7.40121C20.6749 6.54987 21.5021 4.56135 18.0556 6.97243L8.32165 13.7148C8.32165 13.7148 7.21879 14.4232 5.14492 13.7831C3.07705 13.1431 0.655538 12.2917 0.655538 12.2917C0.655538 12.2917 -0.992766 11.2291 1.83632 10.0919Z" fill="#F4EBD5"/>
</svg>
