<svg width="395" height="357" viewBox="0 0 395 357" fill="none" xmlns="http://www.w3.org/2000/svg">
<g clip-path="url(#clip0_30_5958)">
<mask id="mask0_30_5958" style="mask-type:luminance" maskUnits="userSpaceOnUse" x="99" y="0" width="296" height="345">
<path d="M391.037 334.472C383.081 337.853 375.124 341.234 367.168 344.614C278.868 335.478 190.567 326.334 102.267 317.197C101.332 212.705 100.382 107.107 99.4316 0.386719L394.591 1.05976L391.029 334.472H391.037Z" fill="white"/>
</mask>
<g mask="url(#mask0_30_5958)">
<path d="M391.037 334.472C383.081 337.853 375.124 341.234 367.168 344.614C278.868 335.478 190.567 326.334 102.267 317.197C101.332 212.705 100.382 107.107 99.4316 0.386719L394.591 1.05976L391.029 334.472H391.037Z" fill="url(#paint0_linear_30_5958)"/>
</g>
<mask id="mask1_30_5958" style="mask-type:luminance" maskUnits="userSpaceOnUse" x="134" y="5" width="233" height="322">
<path d="M268.416 317.994V281.905C300.11 284.574 331.804 287.243 363.499 289.912C363.336 301.965 363.182 314.026 363.02 326.078C331.488 323.386 299.948 320.686 268.416 317.994ZM363.56 278.609C363.777 262.294 363.993 245.978 364.217 229.663C332.299 227.489 300.381 225.323 268.462 223.149C268.455 239.124 268.447 255.092 268.439 271.067C300.149 273.581 331.851 276.095 363.56 278.602V278.609ZM364.279 218.353C364.418 204.134 364.557 189.922 364.688 175.703C332.623 174.233 300.558 172.771 268.493 171.301C268.493 185.041 268.478 198.772 268.47 212.512C300.404 214.461 332.337 216.403 364.271 218.353H364.279ZM364.75 164.401L365.275 115.733C333.009 114.974 300.744 114.216 268.478 113.458C268.485 129.039 268.501 144.619 268.509 160.192C300.589 161.592 332.677 162.993 364.758 164.393L364.75 164.401ZM365.329 108.19C365.53 91.3869 365.723 74.5763 365.924 57.7734C333.396 57.7502 300.875 57.7269 268.346 57.7037C268.4 73.8491 268.447 89.9944 268.501 106.14C300.774 106.828 333.056 107.509 365.329 108.198V108.19ZM268.849 11.9754C268.725 23.9277 268.609 35.8801 268.485 47.8324C301.029 48.1341 333.566 48.4358 366.11 48.7375C366.272 36.5376 366.426 24.3455 366.589 12.1456C334.006 12.0914 301.423 12.0295 268.841 11.9754H268.849ZM230.295 47.492C230.295 33.4432 230.295 19.3866 230.295 5.33775C198.655 5.24492 167.007 5.14435 135.367 5.05151C135.312 18.8915 135.258 32.7237 135.212 46.5637C166.906 46.8731 198.601 47.1826 230.303 47.492H230.295ZM230.163 105.227C230.21 89.128 230.248 73.0368 230.295 56.9379L135.127 55.6537C135.058 71.4509 134.988 87.2481 134.919 103.045C166.667 103.772 198.415 104.5 230.163 105.227ZM230.109 113.079C198.361 112.275 166.62 111.478 134.872 110.673C134.81 125.124 134.756 139.583 134.695 154.034C166.497 155.535 198.299 157.028 230.102 158.529C230.102 143.374 230.102 128.226 230.109 113.071V113.079ZM134.64 165.6C134.633 178.21 134.625 190.827 134.617 203.437C166.42 205.503 198.23 207.568 230.032 209.634C230.055 196.351 230.071 183.068 230.094 169.785C198.276 168.385 166.458 166.992 134.64 165.592V165.6ZM230.032 220.89C198.16 218.809 166.296 216.728 134.424 214.647L134.223 260.089C166.18 262.665 198.145 265.241 230.102 267.81C230.078 252.167 230.055 236.533 230.032 220.89ZM134.177 271.283C134.123 282.795 134.077 294.314 134.022 305.825C166.111 308.873 198.207 311.914 230.295 314.962C230.187 302.994 230.071 291.026 229.963 279.058C198.037 276.467 166.103 273.875 134.177 271.291V271.283Z" fill="white"/>
</mask>
<g mask="url(#mask1_30_5958)">
<path d="M391.037 334.472C383.081 337.853 375.124 341.234 367.168 344.614C278.868 335.478 190.567 326.334 102.267 317.197C101.332 212.705 100.382 107.107 99.4316 0.386719L394.591 1.05976L391.029 334.472H391.037Z" fill="url(#paint1_linear_30_5958)"/>
</g>
<path d="M105.92 209.448C105.828 194.44 105.743 179.432 105.65 164.424C115.313 164.819 124.977 165.213 134.641 165.608C134.586 178.218 134.532 190.835 134.471 203.445C124.954 205.449 115.437 207.452 105.913 209.456L105.92 209.448ZM134.818 110.673C124.992 109.227 115.167 107.78 105.341 106.326C105.434 124.521 105.534 142.716 105.627 160.912C115.29 158.73 124.954 156.556 134.61 154.375C134.679 139.808 134.741 125.24 134.81 110.673H134.818ZM105.287 102.868C115.12 103.03 124.954 103.192 134.78 103.355L135.212 56.265C125.093 54.2536 114.974 52.2499 104.847 50.2385C104.993 67.7841 105.14 85.3219 105.287 102.868ZM104.955 46.4401C113.676 46.4787 122.397 46.5174 131.126 46.5638C131.126 34.3407 131.126 22.1176 131.126 9.89449C122.32 8.28538 113.514 6.67626 104.708 5.06714C104.792 18.8607 104.877 32.6542 104.962 46.4478L104.955 46.4401ZM106.33 265.358C115.63 263.601 124.931 261.845 134.223 260.089L134.424 214.647C124.938 214.028 115.453 213.402 105.974 212.783C106.09 230.305 106.214 247.835 106.33 265.358ZM106.531 311.016C115.7 309.283 124.861 307.558 134.03 305.825C134.084 294.314 134.131 282.795 134.185 271.283C124.784 270.51 115.383 269.744 105.982 268.97C106.167 282.98 106.353 296.998 106.538 311.009L106.531 311.016ZM268.47 212.52C268.47 198.78 268.486 185.049 268.493 171.309C258.946 170.876 249.406 170.435 239.858 170.002C239.788 185.838 239.727 201.666 239.657 217.502C249.259 215.838 258.868 214.183 268.47 212.52ZM268.47 113.466C258.984 111.942 249.491 110.418 240.005 108.894C239.958 128.033 239.912 147.172 239.858 166.312C249.29 164.246 258.722 162.173 268.146 160.107L268.462 113.474L268.47 113.466ZM240.067 105.196C249.545 105.506 259.015 105.823 268.493 106.132C268.439 89.9868 268.393 73.8415 268.339 57.6961C258.977 55.6229 249.614 53.5573 240.252 51.484C240.19 69.3855 240.128 87.2869 240.067 105.196ZM240.267 47.5386C249.676 47.6314 259.085 47.732 268.493 47.8248C268.54 35.8106 268.586 23.7964 268.632 11.7899C259.201 9.6392 249.769 7.48855 240.337 5.3379L240.267 47.5463V47.5386ZM239.449 275.724C249.112 274.169 258.776 272.622 268.439 271.067C268.447 255.092 268.455 239.124 268.462 223.149C258.861 222.499 249.259 221.842 239.657 221.192C239.588 239.372 239.518 257.544 239.449 275.724ZM239.147 324.485C248.904 322.319 258.66 320.16 268.424 317.994V281.905C258.768 281.077 249.112 280.242 239.456 279.414C239.356 294.438 239.255 309.461 239.155 324.477L239.147 324.485Z" fill="url(#paint2_linear_30_5958)"/>
<path d="M239.147 324.485C248.903 322.319 258.66 320.16 268.424 317.994C299.956 320.686 331.495 323.386 363.027 326.078C362.989 329.738 362.942 333.397 362.904 337.056C321.654 332.863 280.397 328.678 239.147 324.485ZM363.653 278.609C331.974 276.057 300.303 273.504 268.624 270.951C258.899 272.544 249.174 274.13 239.449 275.724C280.845 279.205 322.249 282.686 363.645 286.168V278.602L363.653 278.609ZM364.341 225.919C364.317 223.397 364.302 220.875 364.279 218.353C332.345 216.403 300.411 214.461 268.478 212.512C258.876 214.175 249.267 215.831 239.665 217.494C281.223 220.302 322.782 223.11 364.348 225.911L364.341 225.919ZM364.789 171.959V164.393C332.693 162.993 300.589 161.593 268.493 160.192C258.946 162.227 249.398 164.261 239.85 166.296C281.494 168.184 323.137 170.071 364.789 171.951V171.959ZM230.032 209.634C198.23 207.568 166.42 205.503 134.617 203.437C125.185 205.348 115.761 207.251 106.33 209.162C147.564 211.839 188.798 214.523 230.032 217.2V209.634ZM230.094 158.529C198.292 157.144 166.489 155.759 134.687 154.367C125.255 156.479 115.815 158.591 106.384 160.703C147.618 162.498 188.852 164.292 230.094 166.095V158.529ZM230.102 275.376V267.81C198.145 265.234 166.18 262.658 134.223 260.089C124.923 261.845 115.622 263.601 106.33 265.357C147.587 268.699 188.844 272.034 230.102 275.368V275.376ZM230.295 314.962C198.207 311.914 166.111 308.873 134.022 305.825C124.853 307.558 115.692 309.283 106.523 311.016C147.649 315.217 188.775 319.425 229.901 323.626C230.032 320.741 230.156 317.847 230.287 314.962H230.295Z" fill="url(#paint3_linear_30_5958)"/>
<path d="M105.063 50.1069C146.807 50.4628 188.551 50.8264 230.303 51.1822C230.303 52.9383 230.303 54.6867 230.303 56.4428C198.578 56.3809 166.852 56.3268 135.135 56.2649C125.116 54.2148 115.09 52.157 105.071 50.1069H105.063ZM181.923 10.6061C198.045 10.6758 214.174 10.7454 230.295 10.815V5.33781C188.651 5.25271 147 5.16762 105.357 5.08252C113.784 6.64522 122.212 8.20792 130.639 9.77063L130.817 6.66843C143.501 6.5756 156.177 6.48276 168.861 6.39766C173.225 7.44204 177.582 8.47869 181.946 9.52307C181.946 9.88667 181.931 10.2503 181.931 10.6216L181.923 10.6061ZM268.555 11.9754C301.238 12.0296 333.914 12.0915 366.596 12.1456V5.60858C324.659 5.52348 282.722 5.43838 240.793 5.34555C250.047 7.55035 259.301 9.76289 268.555 11.9677V11.9754ZM365.917 57.7657C365.901 56.0328 365.878 54.2999 365.863 52.567C323.995 52.126 282.12 51.6773 240.252 51.2364C245.883 52.6289 251.646 53.9827 257.54 55.2824C261.379 56.1256 265.172 56.9302 268.926 57.6961C301.254 57.7193 333.589 57.7425 365.917 57.7657ZM365.268 111.934C323.508 110.921 281.757 109.907 239.997 108.886C249.483 110.41 258.977 111.934 268.463 113.458C300.728 114.216 332.994 114.974 365.26 115.733V111.934H365.268ZM230.11 113.079V109.242C188.52 108.267 146.931 107.3 105.349 106.325C115.19 107.772 125.031 109.219 134.872 110.673C166.621 111.478 198.361 112.275 230.11 113.079Z" fill="url(#paint4_linear_30_5958)"/>
<path d="M367.168 344.614C368.728 230.065 370.281 115.516 371.841 0.974609H394.614C393.447 112.143 392.281 223.319 391.107 334.488C383.127 337.861 375.148 341.241 367.168 344.614Z" fill="url(#paint5_linear_30_5958)"/>
<path d="M234.281 323.92C234.675 217.726 235.069 111.532 235.463 5.33789" stroke="#7C7774" stroke-linecap="round" stroke-linejoin="round"/>
<path d="M371.841 0.974666C281.038 0.773526 190.235 0.580122 99.4316 0.386719C100.366 105.985 101.293 211.591 102.22 317.19C190.536 326.334 278.852 335.47 367.168 344.614M371.841 0.974666H394.614C393.447 112.143 392.281 223.319 391.107 334.488C383.127 337.861 375.148 341.241 367.168 344.614M371.841 0.974666C370.281 115.516 368.728 230.065 367.168 344.614M99.4316 5.05935C190.212 5.24502 281 5.43069 371.78 5.62409M102.112 310.568C190.474 319.541 278.844 328.515 367.207 337.489M106.531 311.016C105.92 209.031 105.31 107.045 104.7 5.05935C113.506 6.66847 122.312 8.27759 131.118 9.88671M362.896 337.28C364.132 226.723 365.36 116.166 366.596 5.60862M229.909 323.626C230.04 217.525 230.164 111.431 230.295 5.33012M239.14 324.485C239.541 218.105 239.935 111.718 240.337 5.33785C249.792 7.55039 259.247 9.76293 268.71 11.9755C299.84 12.0296 335.474 12.0838 366.596 12.1379M230.295 51.1823C188.026 50.749 146.166 50.3235 104.7 49.8981M240.252 51.2364C281.718 51.6774 323.586 52.1183 365.863 52.567M230.295 47.4921C188.149 47.0821 146.405 46.6721 105.055 46.2621M240.26 47.5385C281.741 47.964 323.624 48.3895 365.924 48.815M230.11 109.242C188.126 108.26 146.537 107.285 105.349 106.326M239.997 108.886C281.347 109.892 323.099 110.905 365.268 111.934M230.164 105.552C188.281 104.593 146.791 103.633 105.696 102.69M240.013 105.196C281.378 106.186 323.145 107.184 365.322 108.19M230.094 169.785C188.342 167.952 146.992 166.134 106.028 164.331M239.858 170.002C281.077 171.889 322.705 173.785 364.735 175.711M230.094 166.095C188.466 164.285 147.232 162.482 106.384 160.703M239.858 166.304C281.1 168.168 322.744 170.056 364.797 171.959M230.032 220.89C188.281 218.159 146.931 215.459 105.974 212.783M239.657 221.192C280.799 223.985 322.334 226.808 364.279 229.663M230.032 217.2C188.404 214.492 147.17 211.816 106.33 209.162C115.762 207.251 125.186 205.348 134.617 203.437C166.42 205.503 198.23 207.568 230.032 209.634M239.657 217.502C280.814 220.279 322.373 223.087 364.341 225.919M229.963 279.058C188.234 275.662 146.907 272.305 105.974 268.978M239.449 279.422C280.428 282.888 321.809 286.384 363.592 289.92M230.102 275.376C188.451 272.003 147.193 268.669 106.33 265.357M363.646 286.168C321.848 282.656 280.443 279.174 239.449 275.724C249.174 274.13 258.899 272.544 268.625 270.951C300.303 273.504 331.975 276.057 363.653 278.61M105.063 50.1069C115.113 52.157 125.162 54.2148 135.212 56.2649C166.906 56.3268 198.601 56.381 230.303 56.4428M240.26 51.484C251.19 53.5263 257.632 55.5687 268.563 57.6033C299.523 57.6574 334.964 57.7116 365.924 57.7657M105.704 106.681C115.638 108.043 125.572 109.405 135.506 110.774C167.038 111.509 198.578 112.251 230.11 112.986M240.013 109.025C249.498 110.503 258.984 111.988 268.47 113.466C300.736 114.224 333.002 114.982 365.268 115.74M230.094 158.529C198.269 157.144 166.443 155.759 134.617 154.367C124.954 156.549 115.29 158.722 105.635 160.904M364.789 164.401C332.693 163.001 300.589 161.6 268.493 160.2C258.946 162.235 249.398 164.269 239.85 166.304M364.341 218.353C332.384 216.403 300.427 214.461 268.47 212.512C258.868 214.175 249.259 215.831 239.657 217.494M230.102 267.81C198.284 265.234 166.466 262.658 134.641 260.089C125.201 261.845 115.762 263.601 106.322 265.365M230.295 314.962C198.207 311.914 166.111 308.873 134.023 305.825M134.023 305.825C124.853 307.558 115.692 309.283 106.523 311.016M134.023 305.825C134.077 294.314 134.123 282.795 134.177 271.283M363.522 326.125C331.82 323.417 300.118 320.71 268.424 318.002C258.668 320.168 248.911 322.326 239.147 324.493M134.919 103.045C134.988 87.4493 135.058 71.861 135.127 56.2649M134.818 110.673C134.772 125.24 134.733 139.808 134.687 154.375M134.478 203.437C134.532 190.827 134.587 178.21 134.648 165.6M134.223 260.089C134.293 244.942 134.355 229.794 134.424 214.647M268.571 11.9755C268.571 23.8195 268.563 35.6635 268.555 47.5076M268.493 105.846C268.493 89.6773 268.493 73.5088 268.493 57.3325M268.401 160.246C268.439 144.65 268.486 129.054 268.524 113.458M268.47 212.945C268.47 199.066 268.486 185.188 268.493 171.309M268.439 271.067C268.447 255.092 268.455 239.124 268.462 223.149M268.416 317.994V281.905M182.17 10.7222C198.214 10.7532 214.259 10.7841 230.295 10.8073" stroke="url(#paint6_linear_30_5958)" stroke-miterlimit="10"/>
<path d="M208.056 22.0479V46.881C196.546 46.8191 185.036 46.7649 173.526 46.7108C171.943 46.703 170.359 46.6953 168.783 46.6876C156.069 46.6257 143.354 46.5561 130.639 46.4942V6.75358C143.308 6.6298 155.968 6.50602 168.637 6.38224C168.683 6.39772 168.737 6.40545 168.783 6.42092C173.163 7.4653 177.543 8.52516 181.923 9.56954V20.0133C184.063 19.9824 186.203 19.9514 188.342 19.9205C191.896 19.8663 195.449 19.8122 199.002 19.758C202.015 20.5162 205.035 21.2821 208.056 22.0479ZM269.219 11.3566C259.664 12.3545 250.116 13.3602 240.569 14.3582V47.7242C250.07 47.7397 259.579 47.7629 269.08 47.7784H269.096C279.254 47.7938 289.419 47.8093 299.577 47.8325V16.1298C289.458 14.5361 279.339 12.9425 269.219 11.3566ZM333.628 3.75195C323.848 5.14446 314.069 6.52923 304.289 7.92174V48.1806C306.939 48.142 309.604 48.111 312.277 48.0955C315.544 48.0646 318.827 48.0491 322.133 48.0414C325.934 48.0259 329.75 48.0337 333.597 48.0491C344.326 48.0956 354.886 48.2425 365.268 48.4901V9.77068C354.724 7.75928 344.179 5.75562 333.628 3.75195ZM183.746 74.1432C174.878 74.236 166.01 74.3288 157.142 74.4217V103.92C166.01 104.113 174.878 104.299 183.746 104.492C192.22 104.577 200.686 104.662 209.16 104.747C209.191 95.9359 209.23 87.1244 209.253 78.3129V77.6089C200.756 76.4485 192.251 75.3036 183.746 74.1432ZM361.915 71.5902C358.509 70.9172 355.102 70.2441 351.695 69.5788C349.973 69.2384 348.25 68.898 346.528 68.5577C346.497 68.5577 346.458 68.5422 346.42 68.5344C339.715 67.2116 333.002 65.8964 326.297 64.5735C315.251 66.1749 304.204 67.784 293.158 69.3932V84.3085C288.631 83.4884 284.113 82.6684 279.578 81.8406C279.532 81.8329 279.478 81.8251 279.431 81.8174C272.556 82.8463 265.682 83.8675 258.807 84.8887L258.552 105.637C265.558 105.823 272.572 106.001 279.578 106.186C282.66 106.264 285.735 106.349 288.817 106.434C290.261 106.465 291.714 106.503 293.158 106.542C304.158 106.828 315.15 107.115 326.15 107.409C326.196 107.409 326.25 107.409 326.297 107.401C331.596 107.207 336.903 107.014 342.202 106.821C345.369 106.705 348.536 106.589 351.695 106.473C355.102 106.349 358.509 106.225 361.915 106.093C362.008 106.093 362.108 106.086 362.201 106.086C362.108 94.5898 362.008 83.0861 361.915 71.5902ZM278.342 189.605C272.827 190.185 267.319 190.773 261.811 191.354V218.979C269.907 219.536 278.01 220.086 286.113 220.635C291.111 219.173 296.117 217.711 301.114 216.248V190.92C293.521 190.479 285.928 190.038 278.342 189.605ZM327.718 182.147C320.349 182.952 312.972 183.757 305.602 184.561C305.525 196.769 305.456 208.976 305.386 221.184C316.803 222.02 328.228 222.863 339.653 223.706C346.327 221.989 353.009 220.263 359.683 218.546V183.795C349.03 183.246 338.37 182.697 327.718 182.147ZM330.244 290.299C319.878 291.614 309.511 292.929 299.145 294.244C298.998 305.848 298.859 317.445 298.712 329.041C307.758 330.063 316.811 331.092 325.864 332.113C335.451 329.869 345.029 327.626 354.615 325.39V294.391C346.489 293.022 338.363 291.66 330.244 290.299ZM355.936 259.718C355.936 259.579 355.936 259.439 355.936 259.3C347.957 257.884 339.977 256.476 331.998 255.061C325.911 256.329 319.831 257.598 313.744 258.859V278.602C321.338 280.838 328.931 283.081 336.517 285.324C343.09 283.375 349.656 281.425 356.23 279.476C356.129 272.893 356.037 266.301 355.944 259.718H355.936ZM291.366 268.003C283.726 267.268 276.079 266.541 268.439 265.806C264.67 266.974 260.9 268.143 257.13 269.318C253.361 270.487 249.591 271.655 245.821 272.831C245.837 274.509 245.845 276.196 245.86 277.875L270.347 283.027C277.392 279.615 284.437 276.211 291.482 272.8C291.443 271.198 291.405 269.605 291.366 268.003Z" fill="url(#paint7_linear_30_5958)"/>
<path d="M209.253 77.6089C209.253 82.2273 209.238 86.869 209.207 91.5262C209.176 96.0596 209.137 100.577 209.091 105.064C200.64 104.871 192.197 104.678 183.746 104.484V74.1353C192.251 75.288 200.748 76.4484 209.253 77.6011V77.6089ZM181.923 20.0133V9.56946C177.543 8.52508 173.164 7.46523 168.784 6.42085V46.6875C170.36 46.6952 171.943 46.703 173.527 46.7107C173.581 37.876 173.627 29.0336 173.673 20.1989C178.563 20.1061 183.453 20.0133 188.343 19.9204C186.203 19.9514 184.063 19.9823 181.923 20.0133ZM333.628 3.75188C333.62 18.6672 333.612 33.5825 333.597 48.49C344.156 48.49 354.708 48.49 365.268 48.49V9.76286C354.724 7.7592 344.172 5.75554 333.628 3.74414V3.75188ZM269.22 11.3565C269.181 23.4945 269.135 35.6403 269.096 47.7783C279.254 47.7938 289.42 47.8092 299.577 47.8324V16.2999C289.458 14.6521 279.339 13.0043 269.22 11.3565ZM351.696 69.5788C349.973 69.2384 348.251 68.898 346.528 68.5576C346.497 68.5576 346.458 68.5421 346.42 68.5344C339.715 67.2115 333.002 65.8964 326.297 64.5735V107.401C338.193 107.795 350.089 108.182 361.985 108.577C361.962 96.2453 361.939 83.9216 361.915 71.5901C358.509 70.9171 355.102 70.2441 351.696 69.5788ZM279.578 81.8405V106.186C282.66 106.264 285.735 106.349 288.817 106.434C290.262 106.465 291.714 106.503 293.158 106.542V84.3084C288.632 83.4883 284.113 82.6683 279.578 81.8405ZM293.158 111.95C293.158 111.95 293.112 111.942 293.089 111.95H293.158ZM339.653 185.652V223.706C346.327 221.989 353.009 220.263 359.683 218.546V183.795C353.009 184.414 346.327 185.033 339.653 185.652ZM286.113 192.669V220.635C291.111 219.173 296.117 217.71 301.115 216.248V190.92C296.117 191.5 291.111 192.088 286.113 192.669ZM355.937 259.718C349.463 261.141 342.982 262.557 336.509 263.98V285.324C343.083 283.375 349.649 281.425 356.222 279.476C356.122 272.892 356.029 266.301 355.937 259.718ZM291.428 269.697C291.413 269.125 291.389 268.56 291.374 268.003C291.096 267.98 290.825 267.949 290.547 267.926C283.657 271.376 276.774 274.826 269.884 278.285C269.938 278.888 269.992 279.491 270.046 280.11C270.139 281.093 270.247 282.068 270.355 283.027C277.4 279.615 284.445 276.211 291.49 272.8C291.482 271.778 291.467 270.75 291.436 269.705L291.428 269.697ZM325.277 298.344C325.471 309.6 325.664 320.857 325.864 332.113C335.451 329.869 345.029 327.626 354.616 325.39V294.391C344.836 295.706 335.057 297.021 325.277 298.344Z" fill="url(#paint8_linear_30_5958)"/>
<g opacity="0.7">
<path d="M188.342 19.9127V24.3842H183.144V19.9978L188.342 19.9205V19.9127ZM282.761 13.4144V20.3382C285.264 20.725 287.766 21.1118 290.269 21.4986V14.7914L282.761 13.4066V13.4144ZM312.277 7.18677V48.0955C315.544 48.0646 318.827 48.0491 322.133 48.0414V5.43066C318.85 6.01861 315.567 6.59882 312.277 7.18677ZM195.712 76.1004V81.5698C197.913 81.9257 200.115 82.2893 202.309 82.6452C202.309 80.8272 202.316 79.0014 202.324 77.1834L195.704 76.1004H195.712ZM288.817 83.6276V106.434C290.261 106.465 291.714 106.503 293.158 106.542V84.3084C291.714 84.0841 290.261 83.852 288.817 83.6276ZM346.528 68.5576C346.528 68.5576 346.458 68.5422 346.42 68.5344C345.014 68.3023 343.608 68.0625 342.202 67.8227C342.264 81.0747 342.326 94.3345 342.387 107.586C345.562 107.764 348.737 107.942 351.912 108.12C351.842 95.2241 351.765 82.328 351.696 69.4318C349.973 69.1378 348.25 68.8516 346.528 68.5576ZM333.635 182.449C328.305 183.285 322.983 184.112 317.653 184.948V197.395H326.181V185.219C331.295 184.43 336.416 183.641 341.53 182.859L333.635 182.449ZM343.523 327.835C343.484 317.197 343.453 306.56 343.415 295.931C339.946 295.126 336.478 294.322 333.017 293.517C335.536 293.022 338.046 292.527 340.564 292.032C338.981 291.769 337.389 291.498 335.806 291.235C332.832 291.776 329.858 292.318 326.884 292.859C325.061 292.419 323.238 291.985 321.407 291.544C319.182 291.784 316.958 292.032 314.733 292.272C316.958 292.689 319.182 293.107 321.407 293.517C317.313 294.322 313.219 295.126 309.117 295.931V330.225C310.909 330.426 312.709 330.627 314.501 330.836V296.666C319.013 295.861 323.531 295.064 328.043 294.26C331.496 295.041 334.948 295.83 338.409 296.612V329.057C340.109 328.655 341.816 328.252 343.515 327.85L343.523 327.835ZM285.712 275.453C285.65 273.898 285.596 272.343 285.534 270.788C282.189 270.518 278.837 270.247 275.492 269.968C277.678 269.055 279.872 268.143 282.058 267.23C279.609 266.936 277.168 266.642 274.719 266.355C272.271 267.199 269.83 268.034 267.381 268.877C265.094 268.645 262.816 268.413 260.529 268.173C258.644 268.785 256.76 269.396 254.875 270.007L260.375 271.5L253.26 274.022C253.175 275.809 253.09 277.604 253.005 279.391C255.338 279.871 257.679 280.358 260.012 280.838C260.058 279.19 260.104 277.534 260.158 275.886C263.063 274.687 265.967 273.48 268.872 272.281C272.139 272.877 275.415 273.473 278.682 274.068C278.937 275.585 279.184 277.101 279.439 278.617C281.525 277.565 283.618 276.505 285.704 275.453H285.712ZM348.32 281.82V261.451L325.123 256.229C323.47 256.616 321.817 257.01 320.156 257.397C328.089 259.06 336.022 260.724 343.948 262.387C343.971 269.287 343.994 276.188 344.025 283.089C345.454 282.663 346.883 282.238 348.312 281.812L348.32 281.82ZM142.365 6.51372V46.5483C145.1 46.5638 147.834 46.5792 150.569 46.5947V6.56014C147.834 6.54467 145.1 6.5292 142.365 6.51372Z" fill="#A38257"/>
</g>
<path d="M188.837 29.7297H182.595C181.722 29.7297 181.004 29.1031 181.004 28.345C181.004 27.5868 181.715 26.9602 182.595 26.9602H188.837C189.71 26.9602 190.428 27.5868 190.428 28.345C190.428 29.1031 189.717 29.7297 188.837 29.7297ZM204.108 88.0139C204.108 87.0623 203.452 86.1881 202.648 86.0566L195.171 84.8962C194.368 84.7724 193.711 85.4455 193.711 86.397C193.711 87.3486 194.368 88.2228 195.171 88.3543L202.648 89.5147C203.452 89.6385 204.108 88.9654 204.108 88.0139Z" fill="url(#paint9_linear_30_5958)"/>
<path d="M168.783 46.6798V6.38224M173.526 46.703V20.1294C182.024 20.0056 190.513 19.8741 199.002 19.7503V46.8346M183.144 19.9979V24.3843H188.342V19.9128M150.569 6.56017V46.5947M142.365 6.51376V46.5483M269.142 47.3065V11.256M282.761 13.4608V20.346C285.263 20.7328 287.766 21.1196 290.269 21.4987V14.8379M333.628 3.75195C344.172 5.75562 354.724 7.75928 365.268 9.76294C365.268 22.7519 365.268 35.7409 365.268 48.7299L304.289 48.1806V7.92174C314.069 6.52923 323.848 5.14446 333.628 3.75195ZM333.628 3.75195V48.0569M322.133 48.0955V5.23729M312.284 48.0569V6.78452M183.746 104.508V74.1432M195.712 76.1004V81.5699C197.913 81.9257 200.115 82.2893 202.308 82.6452C202.301 80.6415 202.293 78.6379 202.285 76.6342M279.586 106.086C285.727 106.217 289.937 106.372 293.127 106.465C309.349 106.937 315.938 106.991 326.297 107.254M279.586 106.086V106.093C272.58 105.946 265.573 105.792 258.567 105.645C258.644 98.7286 258.729 91.8125 258.807 84.8964C265.682 83.8675 272.564 82.8463 279.439 81.8251C284.012 82.6529 288.585 83.4807 293.158 84.3085V69.3932C304.204 67.784 315.251 66.1749 326.297 64.5658C338.17 66.9021 350.042 69.2462 361.915 71.5825C361.938 83.9139 361.962 96.2376 361.985 108.569C346.837 107.85 334.663 107.47 326.297 107.254M279.586 106.086V81.8174M326.297 107.254V64.8134M293.158 84.3317V106.124M288.817 106.403V83.6199M342.21 67.8227C342.271 81.0747 342.333 94.3345 342.395 107.587M351.695 69.4318C351.765 82.328 351.842 95.2241 351.912 108.12M261.811 191.354C267.319 190.766 272.835 190.185 278.342 189.597C285.936 190.038 293.521 190.472 301.114 190.913V216.241C296.117 217.711 291.111 219.173 286.113 220.635M261.811 191.354V218.979C269.915 219.529 278.018 220.086 286.113 220.635M261.811 191.354C269.915 191.794 278.018 192.228 286.113 192.669M286.113 220.635V192.669M286.113 192.669C291.111 192.088 296.117 191.5 301.114 190.92M339.761 224.255C328.305 223.482 316.85 222.708 305.394 221.935C305.463 209.472 305.533 197.016 305.602 184.553M339.761 224.255C346.404 222.352 353.047 220.449 359.691 218.546V183.788C349.03 183.238 338.378 182.689 327.718 182.14C320.349 182.944 312.972 183.749 305.602 184.553M339.761 224.255C339.722 211.382 339.691 198.517 339.653 185.644M305.602 184.553C316.95 184.917 328.305 185.281 339.653 185.644M339.653 185.644C346.335 185.025 353.009 184.406 359.691 183.78M333.635 182.449C328.305 183.285 322.983 184.112 317.653 184.948V197.395H326.181V185.219C331.295 184.43 336.416 183.641 341.53 182.859M325.857 332.113C316.803 331.092 307.758 330.063 298.704 329.041V329.049C298.851 317.445 298.998 305.848 299.145 294.252C309.511 292.937 319.87 291.622 330.236 290.307C338.363 291.668 346.489 293.03 354.615 294.391V325.39C345.029 327.626 335.443 329.869 325.857 332.113ZM325.857 332.113C325.663 320.857 325.47 309.601 325.269 298.344M299.145 294.244C307.858 295.606 316.564 296.975 325.277 298.337C335.057 297.022 344.836 295.699 354.615 294.384M338.409 329.041V296.596C334.956 295.815 331.503 295.026 328.043 294.244C323.531 295.049 319.013 295.846 314.501 296.65V330.821M314.733 292.264C317.128 292.728 319.522 293.192 321.917 293.656C317.653 294.414 313.389 295.165 309.117 295.923V330.217M343.523 327.873V295.915C340.016 295.118 336.517 294.322 333.01 293.517L341.221 292.14M321.005 291.475C322.968 291.916 324.922 292.349 326.884 292.79C329.858 292.272 332.832 291.753 335.806 291.235M313.744 258.859C319.824 257.59 325.911 256.329 331.99 255.061V255.053C339.969 256.469 347.949 257.877 355.929 259.292C356.029 266.015 356.122 272.746 356.222 279.468C349.656 281.418 343.083 283.367 336.517 285.317C328.923 283.081 321.338 280.838 313.744 278.594V258.859ZM313.744 258.859L336.663 263.98L356.516 259.594M336.517 285.324V263.98M344.033 283.089C344.009 276.188 343.986 269.287 343.955 262.387C336.022 260.724 328.089 259.06 320.163 257.397M348.32 281.82V261.451L325.123 256.229M245.821 272.823V277.867L270.347 283.019M245.821 272.823H245.829C253.368 270.487 260.908 268.143 268.447 265.806C276.087 266.533 283.734 267.268 291.374 267.996C291.405 269.597 291.443 271.191 291.482 272.792C284.437 276.204 277.392 279.607 270.347 283.019M245.821 272.823C253.84 274.641 261.858 276.467 269.876 278.285M270.347 283.019C270.193 281.441 270.03 279.863 269.876 278.285M269.876 278.285C277.037 274.857 284.205 271.43 291.366 267.996M279.478 278.602C279.339 277.031 279.2 275.461 279.061 273.89C275.677 273.349 272.294 272.807 268.91 272.274C266.029 273.504 263.156 274.741 260.274 275.971C260.189 277.596 260.112 279.221 260.027 280.845M253.106 279.399C253.16 277.612 253.214 275.817 253.268 274.03C255.639 273.156 258.011 272.274 260.382 271.399C258.405 270.982 256.435 270.564 254.458 270.146M260.413 268.297C262.738 268.529 265.071 268.754 267.396 268.986C269.845 268.112 272.286 267.23 274.735 266.355M282.065 267.23C279.879 268.143 277.686 269.055 275.5 269.968C278.844 270.239 282.197 270.51 285.542 270.788C285.627 272.444 285.704 274.092 285.789 275.747M130.639 46.4942V6.75358C143.308 6.6298 155.976 6.50602 168.637 6.38224C173.063 7.4421 177.489 8.50195 181.923 9.56954V20.0133C187.616 19.9282 193.309 19.8431 199.002 19.758C202.023 20.5239 205.035 21.2898 208.056 22.0479V46.881C182.248 46.7572 156.447 46.6257 130.639 46.5019V46.4942ZM190.428 28.3452C190.428 27.587 189.717 26.9604 188.837 26.9604H182.595C181.722 26.9604 181.004 27.587 181.004 28.3452C181.004 29.1033 181.715 29.7299 182.595 29.7299H188.837C189.71 29.7299 190.428 29.1033 190.428 28.3452ZM299.477 48.142C299.515 37.5434 299.546 26.9527 299.585 16.3541C289.443 14.6135 279.292 12.8651 269.15 11.1245C259.625 12.2849 250.101 13.4531 240.576 14.6135V47.6004C260.212 47.7784 279.849 47.964 299.477 48.142ZM209.044 105.065C209.114 95.9359 209.183 86.815 209.261 77.6863L183.754 74.1432C174.886 74.236 166.018 74.3288 157.15 74.4217V103.92C174.453 104.299 191.749 104.685 209.052 105.065H209.044ZM204.108 88.0141C204.108 87.0625 203.452 86.1883 202.648 86.0568L195.171 84.8964C194.368 84.7726 193.711 85.4457 193.711 86.3972C193.711 87.3488 194.368 88.2229 195.171 88.3545L202.648 89.5149C203.452 89.6387 204.108 88.9656 204.108 88.0141Z" stroke="url(#paint10_linear_30_5958)" stroke-miterlimit="10"/>
<path d="M165.632 84.3395V78.344H163.392V76.5027H164.349C164.767 76.5027 165.137 76.3635 165.477 76.0773C165.856 75.7601 166.049 75.3655 166.049 74.9014H168.142V84.3317H165.639L165.632 84.3395ZM165.894 78.0809V84.0687H167.864V75.1721H166.304C166.304 75.5976 166.087 75.9767 165.655 76.2939C165.222 76.6111 164.79 76.7735 164.342 76.7735H163.647V78.0809H165.887H165.894Z" fill="url(#paint11_linear_30_5958)"/>
<path d="M165.022 14.2267H168.969V16.3386H161.932V15.2943C161.932 14.5284 162.318 13.8089 163.09 13.1359C163.106 13.1204 163.832 12.6098 165.261 11.6041C166.049 11.0394 166.451 10.552 166.451 10.1265C166.451 9.83254 166.373 9.58499 166.227 9.39158C166.049 9.1595 165.802 9.04346 165.477 9.04346C165.13 9.04346 164.875 9.19044 164.713 9.49215C164.55 9.79386 164.465 10.1961 164.465 10.7145H161.932C161.932 9.57725 162.256 8.65665 162.897 7.9604C163.538 7.26414 164.404 6.91602 165.477 6.91602C166.451 6.91602 167.285 7.16357 167.972 7.66642C168.737 8.22342 169.116 8.98157 169.116 9.93311C169.116 10.9465 168.606 11.813 167.586 12.5247C166.736 13.1049 165.879 13.6774 165.029 14.2421L165.022 14.2267ZM168.698 16.0679V14.4974H164.458V14.3737C164.898 13.9404 165.562 13.4453 166.435 12.8961C167.308 12.3468 167.872 11.9368 168.119 11.6815C168.598 11.1941 168.837 10.6062 168.837 9.91764C168.837 9.03572 168.49 8.3472 167.802 7.85209C167.169 7.39566 166.396 7.17131 165.47 7.17131C164.465 7.17131 163.67 7.47302 163.075 8.08417C162.488 8.69533 162.187 9.47668 162.187 10.436H164.187C164.187 9.995 164.288 9.61593 164.481 9.31422C164.713 8.95062 165.037 8.76496 165.47 8.76496C165.863 8.76496 166.172 8.91194 166.404 9.20592C166.605 9.47668 166.713 9.77839 166.713 10.111C166.713 10.6294 166.327 11.1709 165.555 11.7356C164.828 12.254 164.102 12.7645 163.384 13.2674C162.596 13.925 162.202 14.598 162.202 15.2788V16.0524H168.706L168.698 16.0679Z" fill="url(#paint12_linear_30_5958)"/>
<path d="M273.692 88.3932V86.7222L274.256 86.6835C274.557 86.6603 274.797 86.5752 274.974 86.4127C275.152 86.2503 275.245 86.0414 275.245 85.7861C275.245 85.554 275.167 85.3684 275.013 85.2369C274.866 85.1053 274.673 85.0667 274.434 85.1053C274.156 85.1595 273.939 85.2833 273.785 85.4844C273.638 85.6778 273.561 85.9718 273.561 86.3586L271.877 86.5288C271.877 85.6933 272.085 85.0048 272.518 84.4246C272.951 83.8521 273.568 83.4189 274.418 83.1481C275.337 82.8541 276.195 82.8077 276.96 83.0553C277.956 83.3802 278.497 84.1228 278.497 85.2523C278.497 85.6778 278.327 86.1033 278.002 86.5211C277.686 86.9233 277.346 87.2096 276.998 87.3798V87.4262C277.4 87.4881 277.825 87.7356 278.273 88.1611C278.829 88.6949 279.115 89.2674 279.115 89.8553C279.115 91.0931 278.497 91.9132 277.369 92.2922C276.473 92.5862 275.469 92.532 274.418 92.1994C273.561 91.9209 272.927 91.4799 272.472 90.8765C272 90.2576 271.776 89.5382 271.776 88.6717L273.468 88.8187C273.468 89.221 273.545 89.5304 273.715 89.7625C273.885 90.0023 274.109 90.1493 274.41 90.1957C274.712 90.2421 274.967 90.2112 275.198 90.0719C275.438 89.9327 275.561 89.7161 275.561 89.4221C275.561 89.1281 275.422 88.8806 275.16 88.7104C274.905 88.5479 274.596 88.4551 274.233 88.4319L273.669 88.4009L273.692 88.3932ZM273.916 86.9465V88.1611L274.256 88.1766C274.681 88.1921 275.067 88.3158 275.407 88.5479C275.755 88.7955 275.94 89.0972 275.94 89.4531C275.94 89.8244 275.77 90.1029 275.438 90.2886C275.121 90.4665 274.781 90.5129 274.434 90.4433C274.086 90.3737 273.823 90.2035 273.599 89.925C273.383 89.6542 273.283 89.3602 273.283 89.0276L272 88.8883C272 89.5923 272.201 90.1957 272.626 90.745C273.059 91.2943 273.646 91.6965 274.449 91.9364C275.453 92.2381 276.38 92.2845 277.184 92.0137C278.172 91.6733 278.721 90.9229 278.721 89.7934C278.721 89.3138 278.512 88.8419 278.111 88.4009C277.693 87.929 277.145 87.6041 276.512 87.4262C277.045 87.1477 277.469 86.8073 277.748 86.4127C278.002 86.0569 278.134 85.6856 278.134 85.2987C278.134 84.3008 277.67 83.6355 276.813 83.3415C276.118 83.1017 275.314 83.1326 274.457 83.3957C273.7 83.6277 273.12 84.0223 272.696 84.5793C272.302 85.0976 272.109 85.6623 272.109 86.2967L273.375 86.1497C273.375 85.8325 273.476 85.554 273.669 85.322C273.87 85.0821 274.132 84.9274 274.449 84.8578C274.735 84.8036 274.998 84.8578 275.229 85.0357C275.469 85.2214 275.592 85.4535 275.592 85.7474C275.592 86.0569 275.453 86.3354 275.183 86.5675C274.913 86.7996 274.611 86.9156 274.264 86.9311L273.924 86.9465H273.916Z" fill="url(#paint13_linear_30_5958)"/>
<path d="M269.49 203.19V201.302L265.658 201.024V198.904L269.127 193.775L272.039 193.93V199.345L273.12 199.415V201.565L272.039 201.488V203.391L269.49 203.198V203.19ZM269.76 201.047V202.935L271.776 203.089V201.194L272.858 201.271V199.67L271.776 199.6V194.193L269.281 194.061L265.929 199.012V200.792L269.76 201.062V201.047ZM269.76 199.461L267.334 199.299L269.729 195.848L269.76 199.461ZM269.49 199.167V196.66L267.837 199.059L269.49 199.159V199.167Z" fill="url(#paint14_linear_30_5958)"/>
<path d="M319.051 67.6681L325.076 67.1575V69.3777L320.867 69.5866L320.766 70.7548C320.913 70.6465 321.083 70.5691 321.276 70.5227C321.469 70.4763 321.678 70.4453 321.902 70.4376C322.798 70.4067 323.624 70.7393 324.358 71.451C325.115 72.1782 325.501 73.0369 325.501 74.0194C325.501 75.1257 325.069 76.0231 324.234 76.6807C323.454 77.2996 322.543 77.5549 321.508 77.4698C320.565 77.3924 319.793 77.0443 319.19 76.4408C318.572 75.822 318.225 75.0251 318.147 74.0426L320.442 74.1045C320.496 74.4604 320.612 74.7312 320.805 74.9168C320.998 75.1102 321.237 75.2108 321.515 75.2263C321.832 75.2417 322.103 75.1257 322.319 74.8781C322.535 74.6306 322.651 74.3134 322.651 73.9421C322.651 73.6326 322.527 73.3541 322.288 73.0911C322.048 72.8358 321.786 72.712 321.492 72.7043C321.091 72.7043 320.782 72.859 320.558 73.1762L318.379 73.153L319.067 67.6681H319.051ZM324.783 67.4824L319.268 67.9234L318.642 72.89L320.419 72.9054C320.511 72.7739 320.658 72.6656 320.859 72.5728C321.06 72.4799 321.268 72.4335 321.485 72.4335C321.832 72.4335 322.157 72.596 322.458 72.9132C322.767 73.2381 322.921 73.5862 322.921 73.9498C322.921 74.3753 322.782 74.7466 322.504 75.0716C322.226 75.3887 321.894 75.5357 321.515 75.5203C321.206 75.5048 320.921 75.381 320.658 75.1644C320.395 74.9478 320.249 74.6847 320.218 74.3908L318.402 74.3289C318.456 75.118 318.758 75.7678 319.322 76.2861C319.893 76.8122 320.612 77.1216 321.5 77.1913C322.466 77.2686 323.323 77.0211 324.057 76.4408C324.791 75.8606 325.192 75.0329 325.192 74.0117C325.192 73.122 324.845 72.333 324.165 71.6676C323.501 71.0101 322.736 70.7006 321.894 70.7316C321.678 70.7316 321.469 70.778 321.261 70.8553C321.052 70.9327 320.782 71.0874 320.457 71.3118L320.635 69.3313L324.775 69.107V67.4901L324.783 67.4824Z" fill="url(#paint15_linear_30_5958)"/>
<path d="M181.182 42.7112C179.946 42.7112 179.011 42.2548 178.37 41.3497C177.798 40.5451 177.52 39.5085 177.52 38.2243C177.52 36.8395 177.79 35.6868 178.331 34.7817C178.988 33.6909 179.946 33.1416 181.197 33.1416C182.224 33.1416 183.051 33.3737 183.669 33.8301C184.287 34.2866 184.627 34.9364 184.704 35.7874H182.17C182.17 35.6094 182.07 35.4547 181.861 35.3232C181.653 35.1917 181.429 35.1221 181.182 35.1221C180.88 35.1221 180.641 35.2458 180.455 35.4857C180.27 35.7332 180.185 36.0581 180.185 36.4836C180.548 36.2438 180.988 36.12 181.506 36.12C182.41 36.12 183.174 36.4295 183.785 37.0561C184.395 37.6827 184.704 38.4563 184.704 39.3769C184.704 40.2975 184.372 41.0789 183.715 41.7287C183.051 42.3863 182.209 42.7112 181.189 42.7112H181.182ZM181.182 42.4405C182.139 42.4405 182.92 42.1465 183.53 41.5585C184.14 40.9706 184.434 40.2434 184.434 39.3692C184.434 38.495 184.155 37.7833 183.607 37.2186C183.059 36.6538 182.356 36.3753 181.506 36.3753C181.251 36.3753 180.981 36.4217 180.71 36.5068C180.432 36.5997 180.17 36.7466 179.922 36.9633C179.922 36.2747 180.038 35.7564 180.278 35.3851C180.517 35.0138 180.818 34.8358 181.189 34.8358C181.467 34.8358 181.745 34.9132 182.023 35.0679C182.302 35.2226 182.441 35.3696 182.441 35.5011H184.441C184.372 34.9132 184.063 34.4258 183.507 34.0313C182.912 33.6058 182.147 33.3892 181.205 33.3892C180.092 33.3892 179.227 33.8997 178.609 34.9132C178.068 35.8028 177.798 36.9014 177.798 38.2088C177.798 39.4388 178.053 40.4213 178.571 41.1563C179.165 41.9995 180.038 42.425 181.197 42.425L181.182 42.4405ZM181.182 40.8545C180.826 40.8545 180.525 40.7076 180.285 40.4213C180.038 40.1351 179.922 39.7947 179.922 39.4001C179.922 39.0056 180.046 38.6962 180.285 38.4022C180.533 38.1082 180.826 37.9612 181.182 37.9612C181.537 37.9612 181.823 38.1082 182.07 38.3944C182.317 38.6807 182.433 39.0288 182.433 39.4311C182.433 39.8334 182.317 40.1505 182.07 40.4291C181.83 40.7153 181.537 40.8545 181.174 40.8545H181.182ZM181.182 40.5838C181.467 40.5838 181.699 40.4677 181.884 40.2356C182.07 40.0036 182.163 39.7328 182.163 39.4234C182.163 39.0752 182.07 38.789 181.892 38.5646C181.707 38.3403 181.475 38.2243 181.182 38.2243C180.888 38.2243 180.649 38.3403 180.463 38.5646C180.278 38.789 180.185 39.0675 180.185 39.4001C180.185 39.7328 180.278 40.0113 180.463 40.2434C180.649 40.4755 180.888 40.5915 181.182 40.5915V40.5838Z" fill="url(#paint16_linear_30_5958)"/>
<path d="M326.737 265.984V263.888L334.068 265.652V267.47C333.017 268.321 332.222 269.264 331.666 270.293C331.055 271.454 330.746 272.738 330.746 274.154L328.066 273.511C328.205 272.173 328.522 270.943 329.008 269.806C329.495 268.676 330.128 267.74 330.916 267.013L326.729 265.984H326.737ZM327 264.22V265.783L331.465 266.858C330.53 267.709 329.796 268.731 329.263 269.922C328.8 270.959 328.498 272.088 328.359 273.318L330.476 273.829C330.476 272.506 330.785 271.268 331.395 270.115C331.951 269.071 332.747 268.135 333.79 267.299V265.86L326.992 264.228L327 264.22Z" fill="url(#paint17_linear_30_5958)"/>
<path d="M264.607 24.2605C263.557 24.1213 262.746 23.75 262.159 23.1543C261.587 22.5818 261.309 21.8778 261.309 21.0268C261.309 20.5627 261.433 20.1294 261.672 19.7272C261.919 19.3171 262.197 19.0696 262.514 18.9768C262.251 18.8994 262.027 18.6828 261.819 18.3269C261.618 17.9788 261.518 17.6152 261.518 17.2361C261.518 16.5089 261.788 15.8823 262.352 15.3253C262.931 14.7528 263.681 14.3737 264.607 14.2113C265.589 14.0411 266.469 14.1571 267.218 14.5826C267.999 15.0313 268.408 15.7121 268.408 16.6095C268.408 17.0505 268.269 17.4914 267.991 17.9324C267.713 18.3733 267.404 18.675 267.056 18.8452C267.404 18.9381 267.767 19.232 268.153 19.7504C268.547 20.2764 268.74 20.7947 268.74 21.2976C268.74 22.3342 268.269 23.1543 267.357 23.719C266.554 24.2141 265.627 24.3843 264.607 24.2528V24.2605ZM264.607 23.9743C265.581 24.0903 266.446 23.9356 267.172 23.4869C267.983 22.9841 268.408 22.2414 268.408 21.2821C268.408 20.7793 268.254 20.3074 267.937 19.8741C267.589 19.3868 267.118 19.0541 266.539 18.8684C267.025 18.6132 267.419 18.265 267.697 17.8318C267.952 17.445 268.076 17.0427 268.076 16.6327C268.076 15.8281 267.721 15.217 267.018 14.8147C266.346 14.4279 265.534 14.3273 264.592 14.482C263.704 14.629 263.008 14.9617 262.483 15.4723C261.973 15.9674 261.726 16.5399 261.726 17.2129C261.726 17.5688 261.819 17.8937 262.004 18.1799C262.221 18.5048 262.545 18.7601 262.985 18.9458C262.483 19.1315 262.12 19.41 261.873 19.7968C261.634 20.1759 261.51 20.5859 261.51 21.0268C261.51 21.8237 261.765 22.4658 262.282 22.9841C262.8 23.5024 263.58 23.8505 264.592 23.9743H264.607ZM264.607 22.3497C264.198 22.3188 263.889 22.1718 263.665 21.901C263.441 21.638 263.333 21.3363 263.333 20.9959C263.333 20.6555 263.457 20.377 263.704 20.1294C263.959 19.8819 264.26 19.7504 264.607 19.7504C264.955 19.7504 265.28 19.8741 265.565 20.1372C265.851 20.4079 265.998 20.7174 265.998 21.0655C265.998 21.4446 265.882 21.754 265.643 21.9938C265.372 22.2646 265.032 22.3807 264.615 22.3497H264.607ZM264.607 18.3424C264.306 18.3579 264.036 18.265 263.812 18.0639C263.588 17.8627 263.48 17.6075 263.48 17.2903C263.48 16.9731 263.596 16.7178 263.827 16.4857C264.059 16.2536 264.322 16.1221 264.607 16.0834C264.893 16.0448 265.187 16.1221 265.434 16.3C265.689 16.4857 265.82 16.7487 265.82 17.0891C265.82 17.4295 265.697 17.708 265.442 17.9556C265.195 18.1954 264.916 18.3269 264.607 18.3424ZM264.607 22.0712C264.963 22.0944 265.233 22.0093 265.426 21.8159C265.619 21.6225 265.712 21.3672 265.712 21.0578C265.712 20.7715 265.604 20.524 265.388 20.3228C265.171 20.1294 264.916 20.0289 264.615 20.0289C264.314 20.0289 264.082 20.1217 263.881 20.3151C263.681 20.5008 263.58 20.7329 263.58 21.0036C263.58 21.3053 263.665 21.5452 263.827 21.7463C263.99 21.9474 264.252 22.0557 264.607 22.0789V22.0712ZM264.607 18.0639C264.855 18.0484 265.071 17.9556 265.256 17.7776C265.442 17.5997 265.534 17.3754 265.534 17.1201C265.534 16.8648 265.442 16.6791 265.256 16.5399C265.071 16.4006 264.855 16.3465 264.607 16.3774C264.36 16.4084 264.152 16.5012 263.982 16.6636C263.812 16.8261 263.727 17.0272 263.727 17.2748C263.727 17.5224 263.812 17.7312 263.974 17.8705C264.144 18.0175 264.353 18.0794 264.607 18.0639Z" fill="url(#paint18_linear_30_5958)"/>
<path d="M319.731 309.987C318.858 309.864 318.124 309.546 317.522 309.036C316.85 308.463 316.51 307.752 316.51 306.916L318.935 307.256C318.989 307.434 319.09 307.574 319.236 307.682C319.383 307.79 319.553 307.852 319.746 307.883C320.048 307.93 320.303 307.844 320.511 307.636C320.72 307.427 320.851 307.164 320.905 306.846C320.735 306.939 320.527 306.993 320.287 307.009C320.04 307.024 319.777 307.017 319.491 306.978C318.611 306.854 317.862 306.444 317.251 305.756C316.641 305.067 316.332 304.27 316.332 303.381C316.332 302.491 316.626 301.733 317.213 301.16C317.869 300.526 318.742 300.278 319.824 300.433C321.06 300.611 322.002 301.16 322.659 302.104C323.261 302.971 323.562 304.077 323.562 305.423C323.562 306.901 323.276 308.046 322.713 308.85C322.048 309.794 321.052 310.173 319.731 309.987ZM319.731 309.724C320.967 309.902 321.894 309.531 322.512 308.626C323.037 307.852 323.3 306.777 323.3 305.384C323.3 304.092 323.014 303.048 322.45 302.236C321.847 301.377 320.975 300.866 319.824 300.704C318.858 300.565 318.062 300.781 317.452 301.354C316.88 301.888 316.602 302.576 316.602 303.419C316.602 304.224 316.88 304.943 317.444 305.578C318.001 306.22 318.688 306.591 319.499 306.707C319.793 306.746 320.063 306.746 320.31 306.707C320.557 306.661 320.882 306.537 321.268 306.336C321.268 306.97 321.121 307.442 320.828 307.759C320.534 308.076 320.171 308.208 319.746 308.146C319.522 308.115 319.314 308.038 319.105 307.914C318.904 307.79 318.773 307.651 318.734 307.496L316.772 307.218C316.842 307.868 317.159 308.417 317.722 308.873C318.286 309.33 318.958 309.608 319.731 309.717V309.724ZM319.824 305.16C319.453 305.106 319.136 304.928 318.873 304.611C318.619 304.301 318.487 303.953 318.487 303.566C318.487 303.141 318.595 302.808 318.812 302.568C319.028 302.329 319.368 302.236 319.816 302.305C320.241 302.367 320.581 302.568 320.828 302.901C321.052 303.203 321.16 303.551 321.16 303.945C321.16 304.34 321.059 304.634 320.851 304.866C320.619 305.129 320.272 305.222 319.816 305.16H319.824ZM319.824 304.889C320.163 304.936 320.426 304.866 320.619 304.673C320.812 304.479 320.905 304.224 320.905 303.907C320.905 303.566 320.812 303.272 320.627 303.017C320.442 302.762 320.171 302.615 319.831 302.561C319.491 302.506 319.244 302.592 319.051 302.793C318.858 302.994 318.765 303.265 318.765 303.597C318.765 303.907 318.873 304.193 319.082 304.44C319.298 304.696 319.545 304.843 319.831 304.881L319.824 304.889Z" fill="url(#paint19_linear_30_5958)"/>
<path d="M341.839 16.7796V10.7841L339.599 10.5133V8.67214L340.556 8.78818C340.974 8.8346 341.344 8.74176 341.684 8.49421C342.063 8.22344 342.256 7.85211 342.256 7.38794L344.349 7.6355V17.0659L341.847 16.7642L341.839 16.7796ZM342.101 10.552V16.5398L344.071 16.7796V7.88305L342.511 7.69739C342.511 8.12287 342.295 8.471 341.862 8.74177C341.429 9.01253 340.997 9.12084 340.549 9.06668L339.854 8.98159V10.289L342.094 10.5598L342.101 10.552Z" fill="url(#paint20_linear_30_5958)"/>
<path d="M349.857 18.0095C348.621 17.8626 347.679 17.1972 347.022 16.0291C346.481 15.0543 346.211 13.9403 346.211 12.6871C346.211 11.4338 346.504 10.4668 347.092 9.6545C347.771 8.70295 348.706 8.30067 349.872 8.43993C351.039 8.57918 351.974 9.19807 352.653 10.2966C353.248 11.2559 353.549 12.3467 353.549 13.569C353.549 14.7913 353.264 15.8512 352.7 16.6944C352.012 17.7156 351.07 18.1565 349.865 18.0095H349.857ZM349.857 17.7388C350.977 17.8703 351.85 17.468 352.483 16.5165C353.016 15.7119 353.287 14.7139 353.287 13.5303C353.287 12.3467 353.009 11.3255 352.46 10.4281C351.827 9.40694 350.969 8.83447 349.872 8.70295C348.776 8.57144 347.918 8.94277 347.285 9.81696C346.744 10.5674 346.474 11.5344 346.474 12.7103C346.474 13.8862 346.721 14.9924 347.207 15.8821C347.81 16.9806 348.698 17.5918 349.857 17.7388ZM349.872 16.1297C349.355 16.0678 349 15.7428 348.806 15.1472C348.675 14.7449 348.606 14.2034 348.606 13.5071V12.424C348.606 11.6117 348.729 11.0315 348.976 10.6911C349.193 10.3972 349.486 10.2734 349.872 10.3198C350.359 10.3817 350.714 10.6834 350.923 11.2327C351.077 11.6195 351.147 12.1146 351.147 12.7335V13.7933C351.147 14.4896 351.077 15.0234 350.946 15.387C350.745 15.9517 350.382 16.1993 349.865 16.1374L349.872 16.1297ZM349.872 15.8589C350.29 15.9053 350.575 15.6964 350.722 15.2245C350.83 14.8996 350.884 14.4045 350.884 13.7469V12.6871C350.884 12.1069 350.823 11.6582 350.714 11.3255C350.552 10.8691 350.274 10.6138 349.872 10.5674C349.471 10.5209 349.216 10.7066 349.061 11.1244C348.938 11.4416 348.876 11.8748 348.876 12.4395V13.5226C348.876 14.3813 348.961 14.9692 349.131 15.3019C349.301 15.6268 349.548 15.8125 349.88 15.8512L349.872 15.8589Z" fill="url(#paint21_linear_30_5958)"/>
<path d="M269.76 276.977L266.748 276.057L266.191 276.412L265.427 276.165L265.635 276.018C265.728 275.948 265.751 275.871 265.705 275.778C265.658 275.67 265.535 275.592 265.334 275.531L265.813 275.159L270.71 276.552L269.752 276.977H269.76ZM266.694 275.979L269.706 276.892L270.448 276.552L265.875 275.244L265.512 275.523C265.697 275.577 265.805 275.662 265.844 275.778C265.882 275.894 265.844 275.987 265.751 276.057L265.597 276.165L266.145 276.343L266.694 275.987V275.979Z" fill="url(#paint22_linear_30_5958)"/>
<path d="M271.583 275.128L273.684 274.061L275.492 274.417L271.567 276.173L270.895 275.995C270.416 275.871 270.138 275.67 270.03 275.399C270.03 275.399 269.999 275.151 269.961 274.664C269.93 274.386 269.783 274.215 269.513 274.154C269.335 274.115 269.15 274.099 268.98 274.115C268.779 274.13 268.617 274.177 268.501 274.254C268.377 274.339 268.377 274.417 268.485 274.502C268.593 274.579 268.802 274.656 269.103 274.726L268.223 275.275C267.62 275.113 267.249 274.927 267.087 274.695C266.917 274.463 266.994 274.231 267.319 273.976C267.643 273.72 268.053 273.55 268.586 273.426C269.227 273.279 269.876 273.264 270.517 273.388C271.228 273.527 271.598 273.798 271.606 274.2C271.606 274.517 271.591 274.834 271.575 275.136L271.583 275.128ZM275.074 274.448L273.738 274.184L271.498 275.306L271.413 275.283C271.328 275.105 271.297 274.865 271.328 274.556C271.359 274.239 271.343 274.022 271.282 273.914C271.166 273.705 270.864 273.55 270.393 273.457C269.806 273.341 269.219 273.357 268.648 273.488C268.153 273.604 267.759 273.774 267.458 274.007C267.157 274.239 267.072 274.463 267.203 274.672C267.342 274.881 267.651 275.043 268.161 275.182L268.848 274.749C268.593 274.687 268.416 274.61 268.315 274.525C268.192 274.424 268.199 274.316 268.346 274.215C268.485 274.123 268.678 274.061 268.941 274.037C269.181 274.022 269.405 274.037 269.621 274.084C269.945 274.154 270.131 274.331 270.177 274.61C270.2 274.865 270.223 275.113 270.247 275.353C270.331 275.631 270.586 275.817 271.011 275.933L271.513 276.064L275.074 274.44V274.448Z" fill="url(#paint23_linear_30_5958)"/>
<path d="M312.702 217.687V211.692L310.461 211.568V209.727L311.419 209.781C311.836 209.804 312.207 209.68 312.547 209.417C312.926 209.116 313.119 208.737 313.119 208.272L315.212 208.388V217.819L312.709 217.68L312.702 217.687ZM312.964 211.444V217.432L314.934 217.54V208.644L313.374 208.559C313.374 208.984 313.157 209.348 312.725 209.642C312.292 209.936 311.86 210.075 311.412 210.044L310.716 210.005V211.313L312.956 211.437L312.964 211.444Z" fill="url(#paint24_linear_30_5958)"/>
<path d="M319.839 214.268V212.396L320.495 212.435C320.827 212.45 321.075 212.388 321.252 212.249C321.43 212.11 321.523 211.916 321.523 211.661C321.523 211.429 321.445 211.228 321.299 211.058C321.152 210.887 320.951 210.794 320.696 210.787C320.387 210.771 320.14 210.849 319.962 211.034C319.785 211.212 319.7 211.522 319.7 211.963L317.328 211.831C317.328 210.756 317.66 209.944 318.317 209.394C318.92 208.884 319.715 208.659 320.704 208.713C321.639 208.768 322.411 209.031 323.037 209.503C323.763 210.052 324.126 210.787 324.126 211.715C324.126 212.063 324.018 212.396 323.794 212.713C323.57 213.03 323.33 213.255 323.06 213.378V213.417C323.361 213.494 323.67 213.726 323.971 214.098C324.327 214.539 324.512 214.987 324.512 215.452C324.512 216.426 324.118 217.177 323.338 217.695C322.635 218.152 321.754 218.353 320.696 218.291C319.707 218.237 318.896 217.904 318.247 217.301C317.529 216.628 317.166 215.73 317.166 214.608L319.592 214.748C319.592 215.204 319.692 215.552 319.893 215.792C320.094 216.032 320.356 216.163 320.688 216.187C320.997 216.202 321.268 216.132 321.5 215.962C321.731 215.8 321.847 215.575 321.847 215.289C321.847 215.003 321.724 214.763 321.469 214.601C321.214 214.438 320.889 214.345 320.503 214.322L319.846 214.283L319.839 214.268ZM320.109 212.674V214.005L320.495 214.028C320.959 214.051 321.353 214.183 321.677 214.423C322.002 214.663 322.164 214.949 322.164 215.281C322.164 215.637 322.009 215.924 321.7 216.132C321.391 216.349 321.052 216.442 320.681 216.419C320.31 216.395 319.986 216.248 319.723 215.962C319.46 215.676 319.321 215.351 319.321 214.964L317.483 214.864C317.483 215.761 317.799 216.504 318.425 217.092C319.02 217.641 319.777 217.943 320.688 217.997C321.7 218.051 322.527 217.881 323.168 217.471C323.879 217.014 324.234 216.326 324.234 215.413C324.234 215.018 324.103 214.647 323.832 214.283C323.539 213.873 323.137 213.572 322.635 213.378C323.06 213.162 323.377 212.899 323.585 212.574C323.763 212.303 323.848 212.001 323.848 211.684C323.848 210.849 323.523 210.183 322.875 209.696C322.295 209.263 321.569 209.023 320.688 208.969C319.808 208.915 319.089 209.139 318.51 209.626C317.931 210.114 317.637 210.764 317.637 211.568L319.422 211.669C319.422 211.305 319.545 211.019 319.785 210.802C320.032 210.586 320.325 210.493 320.681 210.516C320.982 210.531 321.252 210.663 321.476 210.895C321.708 211.127 321.824 211.39 321.824 211.676C321.824 211.978 321.693 212.233 321.438 212.427C321.183 212.628 320.858 212.713 320.48 212.69L320.094 212.667L320.109 212.674Z" fill="url(#paint25_linear_30_5958)"/>
<path d="M176.083 193.876C176.925 195.353 177.868 196.893 178.934 198.479C180.409 200.684 181.908 202.664 183.352 204.412" stroke="#1A1A1A" stroke-width="2" stroke-miterlimit="10"/>
<path d="M106.894 205.936C106.106 211.344 104.522 215.312 103.17 217.997C101.633 221.045 100.05 223.08 98.134 227.868C96.759 231.303 96.0793 233.075 96.3805 235.326C96.9676 239.666 100.498 242.265 101.201 242.784C104.275 245.05 107.496 245.267 110.401 245.414C121.532 245.994 130.029 240.223 132.516 238.397C135.46 236.231 137.545 234.026 138.866 232.479" stroke="#1A1A1A" stroke-width="2" stroke-miterlimit="10"/>
<path d="M121.942 134.323C107.064 136.497 95.6932 149.145 94.9053 164.393C94.1096 179.711 99.7563 193.644 104.762 204.072C111.289 217.657 119.995 232.324 129.203 247.843C131.304 251.386 133.428 254.96 135.537 258.542C130.578 261.103 125.418 262.348 119.794 262.402C105.581 262.526 88.6946 254.821 69.607 239.488C49.2912 223.172 46.8888 220.96 43.5595 217.889C42.3622 216.782 41.0027 215.529 38.8243 213.611L20.7563 234.204C22.6952 235.914 23.8694 236.997 25.0126 238.049C28.7436 241.492 31.4318 243.975 52.4815 260.878C76.621 280.265 99.3547 290.005 120.041 289.819C130.3 289.727 140.017 287.228 149.071 282.369C151.635 287.135 154.068 291.862 156.309 296.519C171.766 328.709 171.271 344.599 171.263 344.754C171.271 344.553 171.287 344.46 171.287 344.46L198.555 346.842C198.748 344.622 199.899 324.029 180.981 284.636C177.667 277.728 174.006 270.788 170.174 263.865C174.639 256.654 178.509 245.955 179.452 230.189C180.479 213.077 177.644 194.077 171.464 176.686C155.922 132.93 129.635 133.193 121.949 134.315M145.664 185.876C151.728 202.95 153.08 219.629 151.743 232.162C143.215 217.788 135.205 204.219 129.427 192.181C125.611 184.229 121.764 174.876 122.235 165.817C122.305 164.44 122.884 163.233 123.78 162.436C124.367 161.918 125.085 161.562 125.889 161.446C127.835 161.159 130.323 162.196 132.872 164.37C136.232 167.225 141.184 173.274 145.656 185.876" fill="#B4CC04"/>
<path d="M129.998 183.943C129.426 186.31 130.462 188.979 132.478 190.348C134.494 191.71 137.36 191.671 139.337 190.255C141.315 188.84 142.28 186.14 141.647 183.788" stroke="#1A1A1A" stroke-width="3" stroke-miterlimit="10"/>
<path d="M157.915 181.088C157.892 183.904 161.19 186.209 165.277 186.24C169.363 186.271 172.7 184.02 172.716 181.204C172.731 178.388 169.44 176.083 165.354 176.052C161.268 176.021 157.931 178.272 157.915 181.088Z" fill="#F39655"/>
<path d="M95.84 180.601C95.8168 183.416 99.1152 185.722 103.202 185.753C107.288 185.784 110.625 183.533 110.64 180.717C110.656 177.901 107.365 175.595 103.279 175.564C99.1925 175.533 95.8554 177.785 95.84 180.601Z" fill="#F39655"/>
<path d="M99.5166 165.67C101.68 169.329 106.469 171.897 111.513 172.106C116.557 172.307 121.625 170.141 124.205 166.668" stroke="#1A1A1A" stroke-width="4" stroke-miterlimit="10"/>
<path d="M144.173 166.018C146.336 169.677 151.125 172.245 156.169 172.454C161.213 172.655 166.281 170.489 168.861 167.016" stroke="#1A1A1A" stroke-width="4" stroke-miterlimit="10"/>
<path d="M217.542 347.678C216.939 346.773 215.951 346.169 214.962 345.736C213.432 345.063 211.741 344.87 210.08 344.777C208.411 344.684 206.735 344.676 205.097 344.359C204.364 344.212 203.622 344.003 203.02 343.555C202.602 343.245 202.263 342.812 202.093 342.317C202.077 342.27 202.062 342.232 202.054 342.193C201.938 341.814 201.59 341.566 201.197 341.559L198.663 341.535C199.806 341.543 200.749 340.623 200.756 339.47L200.772 337.072C200.779 335.927 199.86 334.983 198.717 334.975L170.815 334.759C169.672 334.751 168.73 335.671 168.722 336.824L168.707 339.222C168.699 340.367 169.618 341.311 170.761 341.319C169.618 341.311 168.676 342.232 168.668 343.377L168.583 354.161C168.575 355.306 169.495 356.25 170.646 356.257L215.974 356.613C217.117 356.621 218.059 355.7 218.067 354.548C218.075 353.124 218.067 351.693 218.098 350.27C218.121 349.163 218.121 348.56 217.542 347.678Z" stroke="#1A1A1A" stroke-miterlimit="10"/>
<path d="M6.43479 246.868C7.50852 247.038 8.62087 246.721 9.60963 246.288C11.1391 245.623 12.4291 244.509 13.6342 243.348C14.8315 242.188 15.9825 240.958 17.3266 239.968C17.9291 239.527 18.5934 239.124 19.3272 238.985C19.8371 238.885 20.3855 238.931 20.8644 239.148C20.9108 239.171 20.9494 239.186 20.9803 239.202C21.3356 239.372 21.7605 239.287 22.0231 239.001L23.7612 237.152C22.9733 237.987 23.0196 239.302 23.8539 240.091L25.5997 241.731C26.4339 242.521 27.7471 242.474 28.535 241.639L47.6381 221.269C48.426 220.434 48.3796 219.119 47.5454 218.33L45.7996 216.69C44.9654 215.9 43.6522 215.947 42.8642 216.782C43.6522 215.947 43.6058 214.632 42.7716 213.843L34.9233 206.462C34.089 205.673 32.7759 205.72 31.9879 206.555L0.950292 239.65C0.162378 240.486 0.208726 241.801 1.04299 242.59C2.07809 243.565 3.13637 244.524 4.15602 245.514C4.95166 246.288 5.39197 246.698 6.43479 246.861V246.868Z" stroke="#1A1A1A" stroke-miterlimit="10"/>
<path d="M155.791 267.485C173.102 261.954 190.42 256.422 207.731 250.891V207.545C194.066 205.789 180.402 204.033 166.737 202.285C150.214 204.528 133.698 206.772 117.175 209.008C117.322 223.846 117.469 238.683 117.616 253.521C130.338 258.179 143.061 262.828 155.791 267.485Z" fill="#E2BF9C"/>
<path d="M140.025 236.571C141.099 236.424 141.956 235.666 142.149 234.738C142.396 233.531 141.5 232.17 140.025 231.899C137.043 231.257 134.061 230.615 131.087 229.98C130.276 230.499 129.805 231.388 129.859 232.309C129.929 233.423 130.771 234.398 131.937 234.661C134.633 235.303 137.329 235.937 140.025 236.579V236.571Z" fill="#7B5A3E"/>
<path d="M140.983 213.564C156.834 210.733 172.685 207.909 188.536 205.078C185.508 204.729 182.472 204.381 179.444 204.033C163.786 206.663 148.136 209.294 132.478 211.924C135.313 212.466 138.148 213.015 140.983 213.556V213.564Z" fill="#A38257"/>
<path d="M155.791 267.485C155.644 250.427 155.497 233.376 155.351 216.318C172.808 213.394 190.274 210.47 207.731 207.545V250.891C190.421 256.422 173.102 261.954 155.791 267.485Z" fill="#C29D78"/>
<path d="M207.731 207.545V250.891C190.42 256.422 173.102 261.954 155.791 267.485C143.068 262.828 130.346 258.179 117.616 253.521C117.469 238.683 117.322 223.846 117.175 209.008C133.698 206.764 150.214 204.521 166.737 202.285C180.402 204.041 194.066 205.797 207.731 207.545Z" stroke="#1A1A1A" stroke-linecap="round" stroke-linejoin="round"/>
<path d="M117.183 209.008C129.906 211.444 142.628 213.881 155.358 216.318C172.816 213.394 190.281 210.47 207.739 207.545" stroke="#1A1A1A" stroke-linecap="round" stroke-linejoin="round"/>
<path d="M155.358 216.318C155.505 233.377 155.652 250.427 155.799 267.485" stroke="#1A1A1A" stroke-linecap="round" stroke-linejoin="round"/>
<path d="M140.025 236.571L131.937 234.653C130.771 234.374 129.813 233.098 129.813 231.814C129.813 230.529 130.771 229.702 131.937 229.98L140.025 231.899C141.191 232.177 142.149 233.454 142.149 234.738C142.149 236.022 141.191 236.85 140.025 236.571Z" stroke="#1A1A1A" stroke-linecap="round" stroke-linejoin="round"/>
<path d="M140.982 213.564C157.305 210.795 173.627 208.025 189.941 205.263" stroke="#1A1A1A" stroke-linecap="round" stroke-linejoin="round"/>
<path d="M132.478 211.932C148.136 209.302 163.786 206.671 179.444 204.041" stroke="#1A1A1A" stroke-linecap="round" stroke-linejoin="round"/>
<mask id="mask2_30_5958" style="mask-type:luminance" maskUnits="userSpaceOnUse" x="169" y="222" width="30" height="31">
<path d="M169.162 229.16L198.863 222.995V243.418L169.162 252.083V229.16Z" fill="white"/>
</mask>
<g mask="url(#mask2_30_5958)">
<path d="M177.883 232.99C177.435 232.673 176.825 232.905 176.439 233.547C176.045 234.197 175.867 234.955 175.751 235.55C175.597 236.324 175.481 237.214 175.357 238.15C175.326 238.366 175.303 238.583 175.272 238.8C175.071 238.776 174.901 238.691 174.747 238.537C174.353 238.15 174.083 237.345 173.928 236.138C173.766 234.854 173.758 234.692 173.743 234.46C173.743 234.375 173.727 234.282 173.72 234.142L172.715 234.545C172.731 234.676 172.731 234.754 172.739 234.831C172.754 235.086 172.769 235.272 172.939 236.61C173.132 238.142 173.519 239.202 174.098 239.759C174.384 240.037 174.708 240.192 175.071 240.215C175.025 240.494 174.979 240.772 174.925 241.043C174.562 242.9 174.16 243.596 174.16 243.604C174.16 243.596 174.168 243.588 174.168 243.588L174.855 244.424C174.917 244.331 175.442 243.441 175.882 241.175C175.96 240.78 176.029 240.37 176.091 239.96C176.385 239.759 176.748 239.395 177.149 238.73C177.582 238.011 177.96 237.098 178.208 236.177C178.833 233.856 178.123 233.145 177.891 232.982M177.288 235.883C177.041 236.796 176.678 237.562 176.346 238.08C176.462 237.214 176.57 236.401 176.701 235.713C176.786 235.264 176.91 234.746 177.142 234.367C177.18 234.305 177.219 234.274 177.265 234.259C177.296 234.259 177.319 234.259 177.342 234.274C177.404 234.313 177.443 234.429 177.458 234.591C177.481 234.808 177.466 235.21 177.288 235.883Z" fill="white"/>
<path d="M195.982 235.001C195.928 234.119 195.596 233.593 195.063 233.369C194.592 233.168 194.089 233.261 193.587 233.547C192.815 233.98 192.297 234.8 192.066 236.007C192.004 236.316 191.981 236.634 191.942 236.958C191.842 236.889 191.726 236.811 191.61 236.726C191.463 237.098 191.324 237.461 191.177 237.833C191.2 237.848 191.216 237.871 191.231 237.879C191.486 238.018 191.741 238.158 192.004 238.289C192.05 238.312 192.081 238.335 192.096 238.421C192.197 239.016 192.336 239.581 192.521 240.107C192.529 240.138 192.56 240.184 192.583 240.177C192.861 240.107 193.147 240.03 193.433 239.952C193.263 239.465 193.108 238.978 192.993 238.444C193.402 238.452 193.796 238.382 194.198 238.212C194.592 238.049 194.962 237.794 195.294 237.376C195.812 236.719 196.044 235.914 195.99 235.001M194.831 236.556C194.622 236.85 194.375 237.028 194.12 237.144C193.703 237.322 193.294 237.376 192.884 237.33C192.815 237.33 192.784 237.283 192.792 237.183C192.792 237.082 192.792 236.989 192.792 236.889C192.792 236.355 192.853 235.829 193.093 235.334C193.302 234.901 193.572 234.63 193.889 234.483C194.136 234.367 194.383 234.32 194.622 234.398C195.294 234.614 195.302 235.899 194.831 236.564" fill="white"/>
<path d="M181.367 239.558C181.313 239.836 181.205 240.076 181.042 240.27C180.664 240.734 180.239 241.012 179.776 241.051C179.459 241.074 179.235 240.865 179.088 240.486C180.123 239.821 181.143 239.171 182.155 238.521C182.101 237.206 181.514 236.463 180.594 236.564C180.061 236.618 179.559 236.912 179.088 237.376C178.331 238.127 177.868 239.357 178.038 240.579C178.184 241.623 178.771 242.281 179.536 242.235C180.108 242.204 180.641 241.894 181.158 241.438C181.521 241.113 181.838 240.703 182.054 240.154C182.186 239.836 182.255 239.504 182.278 239.148C181.993 239.241 181.707 239.334 181.421 239.442C181.398 239.45 181.367 239.519 181.359 239.558M178.957 239.349C179.042 238.753 179.304 238.343 179.675 238.049C179.922 237.848 180.185 237.709 180.455 237.701C180.687 237.701 180.88 237.802 181.004 238.065C181.019 238.096 181.035 238.142 181.05 238.189C180.339 238.637 179.652 239.078 178.934 239.535C178.934 239.465 178.941 239.403 178.949 239.349" fill="white"/>
<path d="M185.971 238.359C185.917 238.637 185.816 238.877 185.654 239.07C185.283 239.527 184.874 239.805 184.426 239.829C184.125 239.852 183.916 239.643 183.769 239.272C183.808 239.241 183.847 239.225 183.878 239.202C184.797 238.606 185.708 238.018 186.612 237.43C186.635 237.415 186.658 237.407 186.674 237.384C186.697 237.353 186.72 237.307 186.72 237.276C186.682 236.386 186.349 235.659 185.716 235.465C185.268 235.326 184.812 235.465 184.349 235.752C183.885 236.046 183.468 236.456 183.151 237.082C182.68 238.018 182.595 238.954 182.873 239.859C183.128 240.687 183.615 241.051 184.271 240.981C185.021 240.904 185.693 240.432 186.288 239.62C186.589 239.21 186.782 238.707 186.844 238.142C186.844 238.088 186.844 238.034 186.852 237.972C186.566 238.065 186.295 238.158 186.025 238.25C186.002 238.25 185.979 238.312 185.971 238.351M183.986 237.26C184.295 236.835 184.658 236.603 185.044 236.548C185.299 236.517 185.507 236.641 185.639 236.935C185.646 236.958 185.654 236.989 185.67 237.028C184.998 237.461 184.326 237.895 183.63 238.335C183.654 237.918 183.769 237.554 183.986 237.26Z" fill="white"/>
<path d="M190.011 234.506C189.547 234.374 189.068 234.49 188.589 234.738C188.234 234.924 187.91 235.218 187.655 235.666C187.5 235.937 187.392 236.239 187.338 236.587C187.639 236.572 187.933 236.564 188.219 236.556C188.288 236.285 188.388 236.061 188.551 235.906C188.921 235.566 189.292 235.458 189.671 235.574C189.833 235.628 189.933 235.79 189.972 236.038C189.856 236.1 189.748 236.154 189.64 236.216C189.207 236.455 188.775 236.672 188.35 236.935C188.064 237.105 187.794 237.353 187.585 237.732C187.237 238.359 187.253 239.519 187.917 239.79C188.234 239.921 188.566 239.867 188.906 239.736C189.331 239.565 189.709 239.264 190.003 238.699C190.003 238.683 190.018 238.676 190.034 238.66C190.049 238.892 190.065 239.109 190.08 239.333L190.876 239.124V238.962C190.876 238.003 190.876 237.051 190.876 236.092C190.876 235.233 190.567 234.653 190.026 234.498M189.578 238.25C189.269 238.598 188.937 238.776 188.582 238.776C188.334 238.776 188.211 238.506 188.303 238.173C188.35 237.987 188.45 237.871 188.566 237.794C188.767 237.662 188.96 237.546 189.161 237.43C189.439 237.276 189.717 237.129 190.011 236.974C190.026 237.5 189.872 237.918 189.578 238.25Z" fill="white"/>
</g>
<path d="M98.134 227.868C96.759 231.303 96.0793 233.075 96.3805 235.326C96.9676 239.666 100.498 242.265 101.201 242.783C104.275 245.05 107.496 245.267 110.401 245.414C121.532 245.994 130.029 240.223 132.516 238.397C135.46 236.231 137.545 234.026 138.866 232.479" stroke="#1A1A1A" stroke-width="2" stroke-miterlimit="10"/>
<path d="M196.5 219.699V213.703L194.26 214.028V212.187L195.218 212.048C195.635 211.986 196.006 211.792 196.345 211.46C196.724 211.088 196.917 210.663 196.917 210.207L199.01 209.905V219.335L196.508 219.699H196.5ZM196.77 213.402V219.389L198.74 219.103V210.207L197.18 210.431C197.18 210.856 196.963 211.266 196.531 211.645C196.098 212.024 195.666 212.249 195.218 212.318L194.522 212.419V213.726L196.763 213.402H196.77Z" fill="#7B5A3E"/>
<path d="M203.962 218.624V212.628L201.722 212.953V211.112L202.68 210.972C203.097 210.911 203.467 210.717 203.807 210.385C204.186 210.013 204.379 209.588 204.379 209.131L206.472 208.83V218.26L203.97 218.624H203.962ZM204.232 212.326V218.314L206.202 218.028V209.131L204.642 209.356C204.642 209.781 204.425 210.191 203.993 210.57C203.56 210.949 203.128 211.174 202.68 211.243L201.984 211.344V212.651L204.224 212.326H204.232Z" fill="#7B5A3E"/>
</g>
<defs>
<linearGradient id="paint0_linear_30_5958" x1="109.945" y1="172.501" x2="405.104" y2="172.501" gradientUnits="userSpaceOnUse">
<stop stop-color="#FFFCF8" stop-opacity="0"/>
<stop offset="0.05" stop-color="#FFFCF8" stop-opacity="0.0196"/>
<stop offset="0.14" stop-color="#FFFCF8" stop-opacity="0.1369"/>
<stop offset="0.23" stop-color="#FFFCF8" stop-opacity="0.3136"/>
<stop offset="0.31" stop-color="#FFFCF8" stop-opacity="0.5184"/>
<stop offset="0.4" stop-color="#FFFCF8" stop-opacity="0.7056"/>
<stop offset="0.48" stop-color="#FFFCF8" stop-opacity="0.8649"/>
<stop offset="0.55" stop-color="#FFFCF8" stop-opacity="0.9604"/>
<stop offset="0.62" stop-color="#FFFCF8"/>
</linearGradient>
<linearGradient id="paint1_linear_30_5958" x1="109.945" y1="172.501" x2="405.104" y2="172.501" gradientUnits="userSpaceOnUse">
<stop stop-color="#FFFCF8" stop-opacity="0"/>
<stop offset="0.05" stop-color="#FFFCF8" stop-opacity="0.0196"/>
<stop offset="0.14" stop-color="#FFFCF8" stop-opacity="0.1369"/>
<stop offset="0.23" stop-color="#FFFCF8" stop-opacity="0.3136"/>
<stop offset="0.31" stop-color="#FFFCF8" stop-opacity="0.5184"/>
<stop offset="0.4" stop-color="#FFFCF8" stop-opacity="0.7056"/>
<stop offset="0.48" stop-color="#FFFCF8" stop-opacity="0.8649"/>
<stop offset="0.55" stop-color="#FFFCF8" stop-opacity="0.9604"/>
<stop offset="0.62" stop-color="#FFFCF8"/>
</linearGradient>
<linearGradient id="paint2_linear_30_5958" x1="104.7" y1="164.772" x2="268.632" y2="164.772" gradientUnits="userSpaceOnUse">
<stop stop-color="#7C7774" stop-opacity="0"/>
<stop offset="1" stop-color="#7C7774"/>
</linearGradient>
<linearGradient id="paint3_linear_30_5958" x1="115.429" y1="245.715" x2="244.315" y2="245.715" gradientUnits="userSpaceOnUse">
<stop stop-color="#D5CBC2" stop-opacity="0"/>
<stop offset="1" stop-color="#D5CBC2"/>
</linearGradient>
<linearGradient id="paint4_linear_30_5958" x1="147.618" y1="60.4037" x2="271.776" y2="60.4037" gradientUnits="userSpaceOnUse">
<stop stop-color="#615D5A" stop-opacity="0"/>
<stop offset="0.99" stop-color="#615D5A"/>
</linearGradient>
<linearGradient id="paint5_linear_30_5958" x1="154.184" y1="172.794" x2="298.28" y2="172.794" gradientUnits="userSpaceOnUse">
<stop stop-color="#7C7774" stop-opacity="0"/>
<stop offset="1" stop-color="#7C7774"/>
</linearGradient>
<linearGradient id="paint6_linear_30_5958" x1="99.0454" y1="172.508" x2="395" y2="172.508" gradientUnits="userSpaceOnUse">
<stop stop-color="#1A1A1A" stop-opacity="0"/>
<stop offset="0.96" stop-color="#1A1A1A"/>
</linearGradient>
<linearGradient id="paint7_linear_30_5958" x1="71.5224" y1="167.928" x2="306.151" y2="167.928" gradientUnits="userSpaceOnUse">
<stop stop-color="#E2BF9C" stop-opacity="0"/>
<stop offset="0.84" stop-color="#E2BF9C"/>
</linearGradient>
<linearGradient id="paint8_linear_30_5958" x1="120.172" y1="167.928" x2="316.657" y2="167.928" gradientUnits="userSpaceOnUse">
<stop stop-color="#C29D78" stop-opacity="0"/>
<stop offset="1" stop-color="#C29D78"/>
</linearGradient>
<linearGradient id="paint9_linear_30_5958" x1="138.426" y1="58.2452" x2="234.991" y2="58.2452" gradientUnits="userSpaceOnUse">
<stop stop-color="#7B5A3E" stop-opacity="0"/>
<stop offset="1" stop-color="#7B5A3E"/>
</linearGradient>
<linearGradient id="paint10_linear_30_5958" x1="130.253" y1="167.928" x2="365.654" y2="167.928" gradientUnits="userSpaceOnUse">
<stop stop-color="#1A1A1A" stop-opacity="0"/>
<stop offset="1" stop-color="#1A1A1A"/>
</linearGradient>
<linearGradient id="paint11_linear_30_5958" x1="127.256" y1="79.6204" x2="305.857" y2="79.6204" gradientUnits="userSpaceOnUse">
<stop stop-color="#7B5A3E" stop-opacity="0"/>
<stop offset="0.97" stop-color="#7B5A3E"/>
</linearGradient>
<linearGradient id="paint12_linear_30_5958" x1="6.48454e-06" y1="11.6119" x2="305.857" y2="11.6119" gradientUnits="userSpaceOnUse">
<stop stop-color="#7B5A3E" stop-opacity="0"/>
<stop offset="0.97" stop-color="#7B5A3E"/>
</linearGradient>
<linearGradient id="paint13_linear_30_5958" x1="-2.16284e-06" y1="87.6737" x2="0.772463" y2="87.6737" gradientUnits="userSpaceOnUse">
<stop stop-color="#7B5A3E" stop-opacity="0"/>
<stop offset="0.97" stop-color="#7B5A3E"/>
</linearGradient>
<linearGradient id="paint14_linear_30_5958" x1="127.256" y1="198.579" x2="305.857" y2="198.579" gradientUnits="userSpaceOnUse">
<stop stop-color="#7B5A3E" stop-opacity="0"/>
<stop offset="0.97" stop-color="#7B5A3E"/>
</linearGradient>
<linearGradient id="paint15_linear_30_5958" x1="-0.000667052" y1="72.3175" x2="305.858" y2="72.3175" gradientUnits="userSpaceOnUse">
<stop stop-color="#7B5A3E" stop-opacity="0"/>
<stop offset="0.97" stop-color="#7B5A3E"/>
</linearGradient>
<linearGradient id="paint16_linear_30_5958" x1="127.248" y1="37.9225" x2="305.857" y2="37.9225" gradientUnits="userSpaceOnUse">
<stop stop-color="#7B5A3E" stop-opacity="0"/>
<stop offset="0.97" stop-color="#7B5A3E"/>
</linearGradient>
<linearGradient id="paint17_linear_30_5958" x1="-4.24448e-05" y1="269.025" x2="305.858" y2="269.025" gradientUnits="userSpaceOnUse">
<stop stop-color="#7B5A3E" stop-opacity="0"/>
<stop offset="0.97" stop-color="#7B5A3E"/>
</linearGradient>
<linearGradient id="paint18_linear_30_5958" x1="-0.000251276" y1="19.2166" x2="305.857" y2="19.2166" gradientUnits="userSpaceOnUse">
<stop stop-color="#7B5A3E" stop-opacity="0"/>
<stop offset="0.97" stop-color="#7B5A3E"/>
</linearGradient>
<linearGradient id="paint19_linear_30_5958" x1="0.000368655" y1="305.214" x2="305.857" y2="305.214" gradientUnits="userSpaceOnUse">
<stop stop-color="#7B5A3E" stop-opacity="0"/>
<stop offset="0.97" stop-color="#7B5A3E"/>
</linearGradient>
<linearGradient id="paint20_linear_30_5958" x1="0.000168792" y1="12.2385" x2="305.857" y2="12.2385" gradientUnits="userSpaceOnUse">
<stop stop-color="#7B5A3E" stop-opacity="0"/>
<stop offset="0.97" stop-color="#7B5A3E"/>
</linearGradient>
<linearGradient id="paint21_linear_30_5958" x1="-0.000179445" y1="13.2286" x2="305.857" y2="13.2286" gradientUnits="userSpaceOnUse">
<stop stop-color="#7B5A3E" stop-opacity="0"/>
<stop offset="0.97" stop-color="#7B5A3E"/>
</linearGradient>
<linearGradient id="paint22_linear_30_5958" x1="113.739" y1="289.054" x2="268.99" y2="274.673" gradientUnits="userSpaceOnUse">
<stop stop-color="#7B5A3E" stop-opacity="0"/>
<stop offset="0.97" stop-color="#7B5A3E"/>
</linearGradient>
<linearGradient id="paint23_linear_30_5958" x1="73.268" y1="291.741" x2="278.392" y2="272.74" gradientUnits="userSpaceOnUse">
<stop stop-color="#7B5A3E" stop-opacity="0"/>
<stop offset="0.97" stop-color="#7B5A3E"/>
</linearGradient>
<linearGradient id="paint24_linear_30_5958" x1="0.000313041" y1="213.053" x2="305.858" y2="213.053" gradientUnits="userSpaceOnUse">
<stop stop-color="#7B5A3E" stop-opacity="0"/>
<stop offset="0.97" stop-color="#7B5A3E"/>
</linearGradient>
<linearGradient id="paint25_linear_30_5958" x1="-0.00071379" y1="213.494" x2="0.771752" y2="213.494" gradientUnits="userSpaceOnUse">
<stop stop-color="#7B5A3E" stop-opacity="0"/>
<stop offset="0.97" stop-color="#7B5A3E"/>
</linearGradient>
<clipPath id="clip0_30_5958">
<rect width="395" height="357" fill="white"/>
</clipPath>
</defs>
</svg>
