<svg width="75" height="69" viewBox="0 0 75 69" fill="none" xmlns="http://www.w3.org/2000/svg">
<g clip-path="url(#clip0_18_1764)">
<path d="M38.5419 0.104694C33.8177 0.815278 30.2328 4.76629 30.0187 9.50057C29.8032 14.2546 31.6328 18.5636 33.2511 21.787C35.3595 25.9873 38.1637 30.5151 41.132 35.3085C41.8098 36.4036 42.4931 37.5068 43.1723 38.6134C41.6005 39.4198 39.9635 39.8199 38.1756 39.8492C33.6571 39.9225 28.2683 37.5714 22.1601 32.8608C15.6598 27.8487 14.8903 27.166 13.8253 26.2217C13.4423 25.882 13.0078 25.4969 12.3092 24.9065L6.61523 31.3398C7.236 31.8643 7.61277 32.1985 7.97703 32.5219C9.17129 33.5803 10.0333 34.3452 16.7685 39.5387C24.493 45.4958 31.7448 48.4618 38.3215 48.3544C41.5839 48.3014 44.6668 47.5025 47.5329 45.9727C48.3594 47.4441 49.145 48.9054 49.8686 50.3462C54.8632 60.2964 54.7444 65.2284 54.7423 65.2773C54.7444 65.2162 54.7485 65.1856 54.7485 65.1856L63.4253 65.8588C63.481 65.17 63.7952 58.7768 57.6827 46.6004C56.6108 44.4659 55.4319 42.3213 54.1952 40.1827C55.5966 37.9348 56.8006 34.6067 57.0627 29.7128C57.3463 24.3997 56.3981 18.5113 54.3912 13.1316C49.3403 -0.407524 40.9832 -0.262147 38.5419 0.104694ZM46.2128 16.0446C48.1836 21.3285 48.6535 26.4996 48.26 30.3915C45.5121 25.9534 42.9331 21.7619 41.0653 18.0412C39.8314 15.5827 38.5864 12.69 38.7143 9.8776C38.7338 9.44962 38.9152 9.07531 39.1981 8.82463C39.383 8.66159 39.6103 8.55086 39.8655 8.51214C40.4848 8.41907 41.2759 8.73564 42.0941 9.40275C43.1702 10.2811 44.7586 12.1459 46.2128 16.0446Z" fill="#B4CC04"/>
<path d="M41.2258 15.482C41.0506 16.2184 41.3864 17.0445 42.0308 17.4622C42.6752 17.88 43.5851 17.861 44.2108 17.4167C44.8364 16.9724 45.136 16.1328 44.9282 15.4045" stroke="#1A1A1A" stroke-width="0.5" stroke-miterlimit="10"/>
<path d="M52.45 16.1084C53.7499 16.1084 54.8037 15.4006 54.8037 14.5276C54.8037 13.6545 53.7499 12.9468 52.45 12.9468C51.15 12.9468 50.0962 13.6545 50.0962 14.5276C50.0962 15.4006 51.15 16.1084 52.45 16.1084Z" fill="#F39655"/>
<path d="M32.7107 16.1084C34.0106 16.1084 35.0645 15.4006 35.0645 14.5276C35.0645 13.6545 34.0106 12.9468 32.7107 12.9468C31.4107 12.9468 30.3569 13.6545 30.3569 14.5276C30.3569 15.4006 31.4107 16.1084 32.7107 16.1084Z" fill="#F39655"/>
<path d="M31.4902 9.88696C32.1868 11.0174 33.7168 11.8034 35.3198 11.8543C36.9228 11.9053 38.53 11.2191 39.3412 10.1363" stroke="#1A1A1A" stroke-width="0.5" stroke-miterlimit="10"/>
<path d="M45.689 9.88696C46.3855 11.0174 47.9155 11.8034 49.5185 11.8543C51.1215 11.9053 52.7287 11.2191 53.5399 10.1363" stroke="#1A1A1A" stroke-width="0.5" stroke-miterlimit="10"/>
<path d="M57.0303 26.4457C60.9426 26.8812 65.0168 25.7032 68.0574 23.2569C70.1699 21.5572 71.7646 19.2611 72.6446 16.7319C73.4726 14.3536 72.9755 11.4358 74.8594 9.50244" stroke="#1A1A1A" stroke-width="0.5" stroke-miterlimit="10"/>
<path d="M37.5337 29.1855C33.6214 29.6209 29.5472 28.443 26.5066 25.9967C24.394 24.297 22.7994 22.0008 21.9193 19.4717C21.0914 17.0933 21.5884 14.1756 19.7046 12.2422" stroke="#1A1A1A" stroke-width="0.5" stroke-miterlimit="10"/>
<path d="M69.4687 66.0733C69.2754 65.7935 68.9598 65.6094 68.6442 65.4769C68.1569 65.2724 67.6189 65.216 67.0892 65.1902C66.5595 65.1644 66.0256 65.1671 65.5036 65.0713C65.27 65.0285 65.0336 64.964 64.8411 64.8274C64.7069 64.7323 64.5978 64.5992 64.5442 64.445C64.5394 64.4307 64.5352 64.4178 64.531 64.4069C64.4928 64.2908 64.3823 64.2126 64.2572 64.2126H63.4515C63.8157 64.2126 64.1112 63.9239 64.1112 63.568V62.8234C64.1112 62.4674 63.8157 62.1787 63.4515 62.1787H54.5786C54.2144 62.1787 53.9189 62.4674 53.9189 62.8234V63.568C53.9189 63.9239 54.2144 64.2126 54.5786 64.2126C54.2144 64.2126 53.9189 64.5014 53.9189 64.8573V68.203C53.9189 68.559 54.2144 68.8477 54.5786 68.8477H68.9925C69.3567 68.8477 69.6522 68.559 69.6522 68.2024C69.6522 67.7601 69.6452 67.3179 69.6522 66.8756C69.6577 66.5326 69.6564 66.3457 69.4687 66.0733Z" stroke="#1A1A1A" stroke-width="0.5" stroke-miterlimit="10"/>
<path d="M2.09155 35.305C2.43287 35.3559 2.7853 35.2547 3.09951 35.1182C3.58403 34.9069 3.99208 34.5591 4.37093 34.1963C4.74979 33.8336 5.11057 33.4491 5.536 33.1393C5.72716 33.0007 5.93571 32.875 6.16928 32.8295C6.33194 32.7976 6.50642 32.8098 6.65796 32.8764C6.67187 32.8825 6.68438 32.8879 6.6955 32.8934C6.80881 32.9443 6.94297 32.9185 7.02778 32.8288L7.57486 32.2507C7.32739 32.5123 7.34407 32.9199 7.6117 33.1617L8.1713 33.6671C8.43893 33.909 8.85601 33.8927 9.10349 33.6311L15.1269 27.2637C15.3744 27.0022 15.3577 26.5946 15.0901 26.3527L14.5305 25.8473C14.2629 25.6055 13.8458 25.6218 13.5983 25.8833C13.8458 25.6218 13.8291 25.2142 13.5615 24.9723L11.0471 22.7013C10.7795 22.4595 10.3624 22.4758 10.1149 22.7373L0.330049 33.0795C0.0825767 33.341 0.0992602 33.7493 0.366891 33.9912C0.699171 34.2914 1.03632 34.5863 1.36373 34.8913C1.61815 35.1284 1.75927 35.2547 2.09155 35.3043V35.305Z" stroke="#1A1A1A" stroke-width="0.5" stroke-miterlimit="10"/>
</g>
<defs>
<clipPath id="clip0_18_1764">
<rect width="75" height="69" fill="white"/>
</clipPath>
</defs>
</svg>
